<?xml version="1.0" standalone="no"?>
<!DOCTYPE svg PUBLIC "-//W3C//DTD SVG 1.1//EN" "http://www.w3.org/Graphics/SVG/1.1/DTD/svg11.dtd" >
<svg>
<metadata>
Created by FontForge 20090914 at Mon May  4 10:41:42 2020
 By www-data
Copyright (c) 2011 by The Entente. All rights reserved. wf-rip
</metadata>
<defs>
<font id="Relative-Bold" horiz-adv-x="1167" >
  <font-face 
    font-family="Relative"
    font-weight="700"
    font-stretch="normal"
    units-per-em="2048"
    panose-1="2 0 8 6 3 0 0 2 0 4"
    ascent="1638"
    descent="-410"
    x-height="1028"
    cap-height="1434"
    bbox="-176 -582.001 2220 1880"
    underline-thickness="102"
    underline-position="-102"
    unicode-range="U+0020-U+FB02"
  />
<missing-glyph horiz-adv-x="1292" 
d="M143 20v1393c0 13.333 7 20.333 21 21h964c13.333 0 20.333 -7 21 -21v-1393c0 -13.333 -7 -20 -21 -20h-964c-14 0 -21 6.66699 -21 20zM401 242h490v950h-490v-950z" />
    <glyph glyph-name="fi" unicode="fi" horiz-adv-x="1204" 
d="M25 827v181c0 13.333 6.66699 20 20 20h164v88c0 106.667 29.667 189.667 89 249s141 89 245 89c76.667 0 147.667 -14.333 213 -43c10.667 -4 16 -15.667 16 -35v-176c0 -10.667 -4 -16 -12 -16c-4 0 -9.66699 1.33301 -17 4c-64 30 -119 45 -165 45
c-82 0 -123 -45.667 -123 -137v-68h282c13.333 0 20.333 -6.66699 21 -20v-181c0 -13.333 -7 -20 -21 -20h-282v-787c0 -13.333 -7 -20 -21 -20h-205c-13.333 0 -20 6.66699 -20 20v787h-164c-13.333 0 -20 6.66699 -20 20zM848 1180v233c0 13.333 6.66699 20.333 20 21h234
c13.333 0 20 -7 20 -21v-233c0 -13.333 -6.66699 -20.333 -20 -21h-234c-13.333 0.666992 -20 7.66699 -20 21zM862 20v988c0 13.333 7 20 21 20h204c13.333 0 20.333 -6.66699 21 -20v-988c0 -13.333 -7 -20 -21 -20h-204c-14 0 -21 6.66699 -21 20z" />
    <glyph glyph-name="fl" unicode="fl" horiz-adv-x="1253" 
d="M25 827v181c0 13.333 6.66699 20 20 20h164v88c0 106.667 29.667 189.667 89 249s141 89 245 89c76.667 0 147.667 -14.333 213 -43c10.667 -4 16 -15.667 16 -35v-176c0 -10.667 -4 -16 -12 -16c-4 0 -9.66699 1.33301 -17 4c-64 30 -119 45 -165 45
c-82 0 -123 -45.667 -123 -137v-68h282c13.333 0 20.333 -6.66699 21 -20v-181c0 -13.333 -7 -20 -21 -20h-282v-787c0 -13.333 -7 -20 -21 -20h-205c-13.333 0 -20 6.66699 -20 20v787h-164c-13.333 0 -20 6.66699 -20 20zM887 20v1393c0 13.333 6.66699 20.333 20 21h205
c13.333 0 20.333 -7 21 -21v-1393c0 -13.333 -7 -20 -21 -20h-205c-13.333 0 -20 6.66699 -20 20z" />
    <glyph glyph-name=".notdef" horiz-adv-x="1292" 
d="M143 20v1393c0 13.333 7 20.333 21 21h964c13.333 0 20.333 -7 21 -21v-1393c0 -13.333 -7 -20 -21 -20h-964c-14 0 -21 6.66699 -21 20zM401 242h490v950h-490v-950z" />
    <glyph glyph-name="space" unicode=" " horiz-adv-x="522" 
 />
    <glyph glyph-name="exclam" unicode="!" horiz-adv-x="618" 
d="M170 20v238c0 13.333 6.66699 20.333 20 21h238c13.333 0 20.333 -7 21 -21v-238c0 -13.333 -7 -20 -21 -20h-238c-13.333 0 -20 6.66699 -20 20zM182 416v997c0 13.333 7 20.333 21 21h213c13.333 0 20 -7 20 -21v-997c0 -13.333 -6.66699 -20.333 -20 -21h-213
c-14 0.666992 -21 7.66699 -21 21z" />
    <glyph glyph-name="quotedbl" unicode="&#x22;" horiz-adv-x="851" 
d="M111 954v459c0 13.333 6.66699 20.333 20 21h201c13.333 0 20 -7 20 -21v-459c0 -13.333 -6.66699 -20 -20 -20h-201c-13.333 0 -20 6.66699 -20 20zM500 954v459c0 13.333 6.66699 20.333 20 21h201c13.333 0 20 -7 20 -21v-459c0 -13.333 -6.66699 -20 -20 -20h-201
c-13.333 0 -20 6.66699 -20 20z" />
    <glyph glyph-name="numbersign" unicode="#" horiz-adv-x="1591" 
d="M123 426v197c0 13.333 6.66699 20 20 20h271l26 148h-215c-13.333 0 -20 6.66699 -20 20v197c0 13.333 6.66699 20 20 20h256l66 385c1.33301 13.333 8.66602 20.333 21.999 21h201c12 0 18 -7 18 -21l-65 -385h252l65 385c1.33301 13.333 9 20.333 23 21h201
c12 0 18 -7 18 -21l-65 -385h229c13.333 0 20 -6.66699 20 -20v-197c0 -13.333 -6.66699 -20 -20 -20h-270l-27 -148h215c13.333 0 20 -6.66699 20 -20v-197c0 -13.333 -6.66699 -20 -20 -20h-256l-66 -386c-1.33301 -13.333 -8.66602 -20 -21.999 -20h-201
c-12 0 -18 6.66699 -18 20l65 386h-252l-65 -386c-1.33301 -13.333 -9 -20 -23 -20h-200c-12 0 -18.333 6.66699 -19 20l66 386h-230c-13.333 0 -20 6.66699 -20 20zM655 643h252l27 148h-252z" />
    <glyph glyph-name="dollar" unicode="$" horiz-adv-x="1208" 
d="M47 463c0 13.333 7.00098 19.998 21.001 19.998h215c12 0 18.667 -6.66699 20 -20c9.33301 -116 68.666 -191.667 177.999 -227v413c-134 40.667 -234 91.834 -300 153.501s-99 143.167 -99 244.5c0 109.333 37.833 198.666 113.5 267.999s170.834 113 285.501 131v172
c0 13.333 7 20 21 20h196c13.333 0 20.333 -6.66699 21 -20v-178c117.333 -24.667 211.5 -75.667 282.5 -153s107.833 -164.333 110.5 -261c0 -13.333 -6.66699 -20 -20 -20h-218c-12 0 -18.667 6.66699 -20 20c-15.333 80.667 -60.333 137.334 -135 170.001v-377
c134 -39.333 240.167 -88.666 318.5 -147.999s117.5 -138.333 117.5 -237c0 -125.333 -38.833 -227 -116.5 -305s-184.167 -125 -319.5 -141v-172c0 -13.333 -7 -20.333 -21 -21h-196c-13.333 0 -20.333 7 -21 21v176c-126.667 22 -230.334 77 -311.001 165
s-121.667 190 -123 306zM340.001 1059c0 -64 47 -117.332 141 -159.999v309c-94 -22.667 -141 -72.334 -141 -149.001zM719.001 224.999c56 12 99.667 34.5 131 67.5s47 71.5 47 115.5c0 69.333 -59.333 127.333 -178 174v-357z" />
    <glyph glyph-name="percent" unicode="%" horiz-adv-x="1814" 
d="M104 1067c0 110.667 35.833 199.5 107.5 266.5s158.167 100.5 259.5 100.5s187.833 -33.5 259.5 -100.5s107.5 -155.833 107.5 -266.5s-35.833 -199.5 -107.5 -266.5s-158.167 -100.5 -259.5 -100.5s-187.833 33.5 -259.5 100.5s-107.5 155.833 -107.5 266.5zM274 117
l1145 1310c8 10.667 17.667 10.667 29 0l90 -81c9.33301 -9.33301 10.666 -19 3.99902 -29l-1145 -1311c-8 -10.667 -17.333 -10.667 -28 0l-90 82c-10 10 -11.667 19.667 -5 29zM299.001 1067c0 -61.333 17 -107.333 51 -138s74.333 -46 121 -46s87 15.333 121 46
s51 76.667 51 138s-17 107.333 -51 138s-74.333 46 -121 46s-87 -15.333 -121 -46s-51 -76.667 -51 -138zM977.001 366.5c0 110.333 35.833 199 107.5 266s158 100.5 259 100.5s187.333 -33.5 259 -100.5s107.5 -155.667 107.5 -266s-35.833 -199 -107.5 -266
s-158 -100.5 -259 -100.5s-187.333 33.5 -259 100.5s-107.5 155.667 -107.5 266zM1171 366.5c0 -61.667 17.167 -107.834 51.5 -138.501s74.666 -46 120.999 -46s86.666 15.333 120.999 46s51.5 76.834 51.5 138.501s-17.167 107.834 -51.5 138.501s-74.666 46 -120.999 46
s-86.666 -15.333 -120.999 -46s-51.5 -76.834 -51.5 -138.501z" />
    <glyph glyph-name="ampersand" unicode="&#x26;" horiz-adv-x="1388" 
d="M94 397c0 182.667 93 330.329 279 442.996c-64 98 -96.333 190.667 -97 278c0 96.667 33.167 176.834 99.5 240.501s153.5 95.5 261.5 95.5c109.333 0 196.666 -29.667 261.999 -89s98 -130.666 98 -213.999c0 -146 -65.333 -255.333 -196 -328l-101 -57l195 -268
c16.667 65.333 25 142.333 25 231c0 12 6.66699 18.333 20 19h350c13.333 0 20.333 -7 21 -21v-180c0 -13.333 -7 -20.333 -21 -21h-168c-9.33301 -87.333 -31 -167.666 -65 -240.999l178 -252c4 -8 6 -14.333 6 -19c0 -9.33301 -5.33301 -14 -16 -14h-236
c-9.33301 0 -18 6 -26 18l-54 74c-95.333 -75.333 -216 -112.666 -362 -111.999c-135.333 0 -244.666 38.5 -327.999 115.5s-125 177.5 -125 301.5zM340 402.995c0 -58.667 19.5 -107 58.5 -145s92.5 -57 160.5 -57c84.667 0 157 26 217 78l-272 376
c-109.333 -66.667 -164 -150.667 -164 -252zM506 1110c0 -48 21 -101.333 63 -160l6 -8l78 37c74 35.333 111 82.333 111 141c0 32.667 -11.667 59.667 -35 81s-54 32 -92 32c-35.333 0 -66 -11 -92 -33s-39 -52 -39 -90z" />
    <glyph glyph-name="quotesingle" unicode="'" horiz-adv-x="462" 
d="M111 954v459c0 13.333 6.66699 20.333 20 21h201c13.333 0 20 -7 20 -21v-459c0 -13.333 -6.66699 -20 -20 -20h-201c-13.333 0 -20 6.66699 -20 20z" />
    <glyph glyph-name="parenleft" unicode="(" horiz-adv-x="731" 
d="M154 362v306.002c0 134 11.5 243.833 34.5 329.5s60.5 161.667 112.5 228s128.333 139.166 229 218.499c6.66699 4 11.667 6 15 6c4 0 8.66699 -2.66699 14 -8l129 -148c4 -4 6 -8.66699 6 -14c0 -4 -2.66699 -8.66699 -8 -14c-87.333 -78 -148 -140.833 -182 -188.5
s-57.833 -105.667 -71.5 -174s-20.5 -171.5 -20.5 -309.5v-158c0 -138 6.83301 -241 20.5 -309s37.5 -126 71.5 -174s94.667 -111 182 -189c5.33301 -5.33301 8 -10 8 -14c0 -5.33301 -2 -10 -6 -14l-129 -148c-5.33301 -5.33301 -10 -8 -14 -8c-2.66699 0 -7.66699 2 -15 6
c-101.333 79.333 -177.833 152.166 -229.5 218.499s-89 142.333 -112 228s-34.5 195.5 -34.5 329.5z" />
    <glyph glyph-name="parenright" unicode=")" horiz-adv-x="741" 
d="M47 -250c0 4 2.66699 8.66504 8 13.998c87.333 78 148.166 141 182.499 189s58.333 106 72 174s20.5 171 20.5 309v158c0 138 -6.83301 241.167 -20.5 309.5s-37.667 126.333 -72 174s-95.166 110.5 -182.499 188.5c-5.33301 5.33301 -8 10 -8 14c0 5.33301 2 10 6 14
l129 148c5.33301 5.33301 10.333 8 15 8c2.66699 0 7.33398 -2 14.001 -6c101.333 -79.333 177.833 -152.166 229.5 -218.499s89.167 -142.5 112.5 -228.5s35 -195.667 35 -329v-306c0 -134 -11.667 -243.833 -35 -329.5s-61 -161.667 -113 -228
s-128.333 -139.166 -229 -218.499c-6.66699 -4 -11.334 -6 -14.001 -6c-4 0 -9 2.66699 -15 8l-129 148c-4 4 -6 8.66699 -6 14z" />
    <glyph glyph-name="asterisk" unicode="*" horiz-adv-x="964" 
d="M104 1100l52 160c4 12 12.667 16 26 12l195 -64v205c0 13.333 6.66699 20.333 20 21h168c13.333 0 20.333 -7 21 -21v-205l194 64c13.333 4 22.333 0 27 -12l51 -160c4 -13.333 0 -22.333 -12 -27l-195 -63l119 -164c9.33301 -12 8 -22.333 -4 -31l-135 -96
c-12 -8 -21.667 -7.33301 -29 2l-121 164l-121 -164c-6.66699 -9.33301 -16 -10 -28 -2l-135 96c-12 8 -13.333 18.333 -4 31l118 164l-194 63c-12.667 4.66699 -17 13.667 -13 27z" />
    <glyph glyph-name="plus" unicode="+" horiz-adv-x="1171" 
d="M104 606v189c0 13.333 7 20 21 20h346v346c0 13.333 7 20.333 21 21h188c13.333 0 20 -7 20 -21v-346h347c13.333 0 20 -6.66699 20 -20v-189c0 -13.333 -6.66699 -20 -20 -20h-347v-346c0 -13.333 -6.66699 -20.333 -20 -21h-188c-13.333 0 -20.333 7 -21 21v346h-346
c-14 0 -21 6.66699 -21 20z" />
    <glyph glyph-name="comma" unicode="," horiz-adv-x="593" 
d="M164 20v222c0 13.333 6.66699 20 20 20h222c13.333 0 20 -6.66699 20 -20v-281c0 -132.667 -59.333 -199 -178 -199h-55c-13.333 0 -20.333 7 -21 21v86c0 13.333 7 20 21 20c34 0 58.167 6.83301 72.5 20.5s21.5 35.5 21.5 65.5v25h-103c-13.333 0 -20 6.66699 -20 20z
" />
    <glyph glyph-name="hyphen" unicode="-" horiz-adv-x="1052" 
d="M104 606v189c0 13.333 7 20 21 20h803c13.333 0 20 -6.66699 20 -20v-189c0 -13.333 -6.66699 -20 -20 -20h-803c-14 0 -21 6.66699 -21 20z" />
    <glyph glyph-name="period" unicode="." horiz-adv-x="593" 
d="M164 20v222c0 13.333 6.66699 20 20 20h222c13.333 0 20 -6.66699 20 -20v-222c0 -13.333 -6.66699 -20 -20 -20h-222c-13.333 0 -20 6.66699 -20 20z" />
    <glyph glyph-name="slash" unicode="/" horiz-adv-x="987" 
d="M20 20l710.999 1393c5.33301 13.333 15 20.333 29 21h223c15.333 0 19.333 -7 12 -21l-710 -1393c-5.33301 -13.333 -14.333 -20 -27 -20h-225c-15.333 0 -19.666 6.66699 -12.999 20z" />
    <glyph glyph-name="zero" unicode="0" horiz-adv-x="1273" 
d="M72 717c0 232 53.167 412.833 159.5 542.5s241.5 194.5 405.5 194.5s299.167 -64.833 405.5 -194.5s159.5 -310.5 159.5 -542.5s-53.167 -412.833 -159.5 -542.5s-241.5 -194.5 -405.5 -194.5s-299.167 64.833 -405.5 194.5s-159.5 310.5 -159.5 542.5zM326 717
c0 -172 28.667 -297.667 86 -377s132.333 -119 225 -119s167.667 39.667 225 119s86 205 86 377s-28.667 297.5 -86 376.5s-132.333 118.5 -225 118.5s-167.667 -39.5 -225 -118.5s-86 -204.5 -86 -376.5z" />
    <glyph glyph-name="one" unicode="1" horiz-adv-x="806" 
d="M111 991v218.999c0 12 7.33301 22.333 22 31l338 182c10.667 6.66699 21.667 10.334 33 11.001h114c13.333 0 20.333 -7 21 -21v-1393c0 -13.333 -7 -20 -21 -20h-208c-13.333 0 -20.333 6.66699 -21 20v1094l-242 -135c-8 -4 -14.667 -6 -20 -6c-10.667 0 -16 6 -16 18z
" />
    <glyph glyph-name="two" unicode="2" horiz-adv-x="1243" 
d="M119 20l-0.000976562 162c0 19.333 7.33301 35 22 47l537 502c94 88.667 141 178 141 268c0 64 -19.833 115.5 -59.5 154.5s-92.834 58.5 -159.501 58.5c-65.333 0 -119.166 -19 -161.499 -57s-66.166 -92 -71.499 -162c-1.33301 -20.667 -10.333 -30.667 -27 -30h-195
c-16.667 0 -24.667 10 -24 30c2.66699 128.667 48.334 237.667 137.001 327s202.667 134 342 134c143.333 0 257.333 -40.667 342 -122s127 -187.333 127 -318c0 -88.667 -17.333 -165.5 -52 -230.5s-92.334 -135.833 -173.001 -212.5l-350 -329h598c13.333 0 20 -7 20 -21
v-201c0 -13.333 -6.66699 -20 -20 -20h-953c-13.333 0 -20 6.66699 -20 20z" />
    <glyph glyph-name="three" unicode="3" horiz-adv-x="1232" 
d="M92 446c1.33301 23.333 10.3311 35.001 26.998 35.001h192c18 0 27.667 -8.66699 29 -26c8 -82 37.667 -141.5 89 -178.5s114.5 -55.5 189.5 -55.5s135.333 19.167 181 57.5s68.5 92.833 68.5 163.5c0 62.667 -23.833 111.834 -71.5 147.501s-117.167 53.5 -208.5 53.5
h-113c-15.333 0 -22.666 7.66699 -21.999 23v196c0 15.333 7.33301 23 22 23h113c148.667 0 223 56 223 168c0 50.667 -17 89.834 -51 117.501s-82.667 41.5 -146 41.5c-56 0 -104.333 -15.333 -145 -46s-67.334 -75.334 -80.001 -134.001
c-2.66699 -16.667 -11.667 -24.667 -27 -24h-194c-18 0 -27 11.333 -27 34c8 118.667 56.833 217 146.5 295s195.834 117 318.501 117c132.667 0 241.667 -34.833 327 -104.5s128 -161.834 128 -276.501c0 -125.333 -52.667 -224.333 -158 -297
c58.667 -27.333 109.834 -70.333 153.501 -129s65.5 -135 65.5 -229c0 -136.667 -47 -243.834 -141 -321.501s-219 -116.5 -375 -116.5c-142 0 -261.5 41.833 -358.5 125.5s-148.833 197.167 -155.5 340.5z" />
    <glyph glyph-name="four" unicode="4" horiz-adv-x="1224" 
d="M61 258v157.998c0 16.667 5.66699 32.334 17 47.001l647 954c6.66699 10.667 15.667 16.334 27 17.001h155c13.333 0 20.333 -7 21 -21v-934h202c13.333 0 20.333 -6.66699 21 -20v-201c0 -13.333 -7 -20 -21 -20h-202v-218c0 -13.333 -7.66699 -20 -23 -20h-207
c-13.333 0 -20 6.66699 -20 20v218h-596c-14 0 -21 6.66699 -21 20zM354 478.998h324v484z" />
    <glyph glyph-name="five" unicode="5" horiz-adv-x="1245" 
d="M119 424c0 20.667 7.99805 31.002 23.998 31.002h199c8 0 13.833 -2.16699 17.5 -6.5s6.83398 -12.5 9.50098 -24.5c28.667 -135.333 118 -203 268 -203c74 0 134.167 21.5 180.5 64.5s69.5 102.833 69.5 179.5c0 75.333 -23.667 134.833 -71 178.5
s-110.333 65.5 -189 65.5c-101.333 0 -191 -31.667 -269 -95c-15.333 -12 -26.666 -18 -33.999 -18h-174c-13.333 0 -20.333 6.66699 -21 20l88 797c1.33301 13.333 8.33301 20.333 21 21h802c13.333 0 20.333 -7 21 -21v-201c0 -13.333 -7 -20 -21 -20h-591l-50 -307
c84.667 44 177.667 65.667 279 65c142 0 254 -42 336 -126s123 -202.333 123 -355c0 -158.667 -47.5 -279.834 -142.5 -363.501s-218.167 -125.5 -369.5 -125.5c-146 0 -264.5 40.167 -355.5 120.5s-141.167 188.166 -150.5 323.499z" />
    <glyph glyph-name="six" unicode="6" horiz-adv-x="1280" 
d="M133 653c0 267.333 48.4971 467.667 145.497 601s227.5 200 391.5 200c128.667 0 234.834 -35.167 318.501 -105.5s133.167 -163.5 148.5 -279.5c0 -13.333 -7.66699 -20 -23 -20h-205c-10.667 0 -18 6.66699 -22 20c-31.333 95.333 -103.666 143 -216.999 143
c-155.333 0 -248.333 -128.333 -279 -385c92.667 65.333 197.334 98.333 314.001 99c136.667 0 249 -43 337 -129s132 -200.667 132 -344s-50 -258 -150 -344s-219.333 -129 -358 -129c-158.667 0 -287.167 55.833 -385.5 167.5s-147.5 280.167 -147.5 505.5z
M431.997 452.501c0 -68.333 22.5 -124 67.5 -167s104.333 -64.5 178 -64.5s133.167 21.5 178.5 64.5s68 98.667 68 167s-22.667 124 -68 167s-104.833 64.5 -178.5 64.5s-133 -21.5 -178 -64.5s-67.5 -98.667 -67.5 -167z" />
    <glyph glyph-name="seven" unicode="7" horiz-adv-x="1044" 
d="M59 1212v201c0 13.333 7 20.333 21 21h926c13.333 0 20 -7 20 -21v-160c0 -15.333 -3.33301 -32.333 -10 -51l-479 -1188c-4 -9.33301 -11.667 -14 -23 -14h-209c-13.333 -0 -20 5.33301 -20 16c0 4 1.33301 9 4 15l469 1161h-678c-14 0 -21 6.66699 -21 20z" />
    <glyph glyph-name="eight" unicode="8" horiz-adv-x="1232" 
d="M119 426c0 140.667 66.667 252.667 200 336c-104 79.333 -155.667 177 -155 293c0 122.667 44 219.834 132 291.501s194.833 107.5 320.5 107.5s232.5 -35.833 320.5 -107.5s132 -168.834 132 -291.501c0 -116 -52 -213.667 -156 -293c134 -83.333 201 -195.333 201 -336
c0 -130 -45.667 -236.833 -137 -320.5s-211.5 -125.5 -360.5 -125.5s-269.167 41.833 -360.5 125.5s-137 190.5 -137 320.5zM373 428c0 -62.667 22.833 -112.834 68.5 -150.501s104 -56.5 175 -56.5s129.333 18.833 175 56.5s68.5 87.834 68.5 150.501
c0 64 -22.833 114.5 -68.5 151.5s-104 55.5 -175 55.5s-129.333 -18.5 -175 -55.5s-68.5 -87.5 -68.5 -151.5zM410 1047c0 -53.333 18.667 -95.833 56 -127.5s87.5 -47.5 150.5 -47.5s113.167 15.833 150.5 47.5s56 74.167 56 127.5c0 54.667 -18.667 96.667 -56 126
s-87.5 44 -150.5 44s-113.167 -14.667 -150.5 -44s-56 -71.333 -56 -126z" />
    <glyph glyph-name="nine" unicode="9" horiz-adv-x="1280" 
d="M106 981c0 143.333 50.0029 258 150.003 344s219.333 129 358 129c158.667 0 287.167 -56 385.5 -168s147.5 -280.667 147.5 -506c0 -267.333 -48.5 -467.5 -145.5 -600.5s-227.5 -199.5 -391.5 -199.5c-128.667 0 -234.834 35 -318.501 105s-133.167 163.333 -148.5 280
c0 13.333 7.66699 20 23 20h205c10.667 0 18 -6.66699 22 -20c31.333 -95.333 103.666 -143.333 216.999 -144c155.333 0 248.333 128.333 279 385c-92.667 -65.333 -197.334 -98 -314.001 -98c-136.667 0 -249 43 -337 129s-132 200.667 -132 344zM356.003 981
c0 -68 22.667 -123.5 68 -166.5s104.833 -64.5 178.5 -64.5s133 21.5 178 64.5s67.5 98.5 67.5 166.5s-22.5 123.5 -67.5 166.5s-104.333 64.5 -178 64.5s-133.167 -21.5 -178.5 -64.5s-68 -98.5 -68 -166.5z" />
    <glyph glyph-name="colon" unicode=":" horiz-adv-x="593" 
d="M164 20v222c0 13.333 6.66699 20 20 20h222c13.333 0 20 -6.66699 20 -20v-222c0 -13.333 -6.66699 -20 -20 -20h-222c-13.333 0 -20 6.66699 -20 20zM164 786v222c0 13.333 6.66699 20 20 20h222c13.333 0 20 -6.66699 20 -20v-222c0 -13.333 -6.66699 -20 -20 -20h-222
c-13.333 0 -20 6.66699 -20 20z" />
    <glyph glyph-name="semicolon" unicode=";" horiz-adv-x="593" 
d="M164 20v222c0 13.333 6.66699 20 20 20h222c13.333 0 20 -6.66699 20 -20v-281c0 -132.667 -59.333 -199 -178 -199h-55c-13.333 0 -20.333 7 -21 21v86c0 13.333 7 20 21 20c34 0 58.167 6.83301 72.5 20.5s21.5 35.5 21.5 65.5v25h-103c-13.333 0 -20 6.66699 -20 20z
M164 786v222c0 13.333 6.66699 20 20 20h222c13.333 0 20 -6.66699 20 -20v-222c0 -13.333 -6.66699 -20 -20 -20h-222c-13.333 0 -20 6.66699 -20 20z" />
    <glyph glyph-name="less" unicode="&#x3c;" horiz-adv-x="1058" 
d="M106 502v196c0 9.33301 7 18.333 21 27l788 401c13.333 5.33301 20.333 1.33301 21 -12v-225c0 -13.333 -7 -23 -21 -29l-518 -260l518 -260c13.333 -5.33301 20.333 -15 21 -29v-225c0 -13.333 -7 -17.333 -21 -12l-788 401c-14 8.66699 -21 17.667 -21 27z" />
    <glyph glyph-name="equal" unicode="=" horiz-adv-x="1163" 
d="M131 313v189c0 13.333 7 20 21 20h913c13.333 0 20 -6.66699 20 -20v-189c0 -13.333 -6.66699 -20 -20 -20h-913c-14 0 -21 6.66699 -21 20zM131 729v189c0 13.333 7 20 21 20h913c13.333 0 20 -6.66699 20 -20v-189c0 -13.333 -6.66699 -20 -20 -20h-913
c-14 0 -21 6.66699 -21 20z" />
    <glyph glyph-name="greater" unicode="&#x3e;" horiz-adv-x="1058" 
d="M123 86v225c0 13.333 6.66699 23 20 29l519 260l-519 260c-13.333 5.33301 -20 15 -20 29v225c0 13.333 6.66699 17.333 20 12l789 -401c13.333 -8 20 -17 20 -27v-196c0 -9.33301 -6.66699 -18.333 -20 -27l-789 -401c-13.333 -5.33301 -20 -1.33301 -20 12z" />
    <glyph glyph-name="question" unicode="?" 
d="M131 1020c4 116 49.666 217.335 136.999 304.002s202.666 130 345.999 130c134 0 241.333 -34.5 322 -103.5s121 -155.167 121 -258.5c0 -66.667 -11.333 -124.667 -34 -174s-50.334 -89.333 -83.001 -120l-98 -88c-32.667 -28 -60.334 -62.167 -83.001 -102.5
s-34 -87.166 -34 -140.499v-51c0 -13.333 -6.66699 -20.333 -20 -21h-213c-13.333 0 -20.333 7 -21 21v51c0 68 11.333 128.333 34 181s50.334 95 83.001 127s65.334 61.667 98.001 89s60.334 56.666 83.001 87.999s34 65.666 34 102.999c0 44 -16.333 81.167 -49 111.5
s-77 45.5 -133 45.5c-60 0 -111.667 -16.333 -155 -49s-71.666 -80.334 -84.999 -143.001c-4 -13.333 -11 -20.333 -21 -21h-208c-14 0.666992 -21 7.66699 -21 21zM458.999 20.002v238c0 13.333 6.66699 20.333 20 21h238c13.333 0 20 -7 20 -21v-238
c0 -13.333 -6.66699 -20 -20 -20h-238c-13.333 0 -20 6.66699 -20 20z" />
    <glyph glyph-name="at" unicode="@" horiz-adv-x="1650" 
d="M72 584c0 155.333 37.1641 291.33 111.497 407.997s169.833 203.334 286.5 260.001s244.667 85 384 85c221.333 0 397.5 -66.167 528.5 -198.5s196.5 -296.166 196.5 -491.499c0 -148.667 -29 -264 -87 -346s-141.667 -123 -251 -123c-98 0 -167.667 34.333 -209 103
c-76.667 -68 -164 -102.333 -262 -103c-102.667 0 -187 32.167 -253 96.5s-99 154.5 -99 270.5c0 132.667 38.5 239.834 115.5 321.501s171.5 122.5 283.5 122.5c72.667 0 141.667 -22.333 207 -67l6 36c2.66699 10.667 8.33398 16.334 17.001 17.001h133
c10.667 0 16 -5.66699 16 -17l-45 -411c-2.66699 -32.667 -4 -56.667 -4 -72c0 -82 35.333 -123 106 -123c40.667 0 72.334 24.333 95.001 73s34 117.334 34 206.001c0 150 -45 275.167 -135 375.5s-221 150.5 -393 150.5c-157.333 0 -293.333 -52.833 -408 -158.5
s-172 -243.834 -172 -414.501c0 -176 54.667 -319 164 -429s248 -165 416 -165c64 0 121.333 5.5 172 16.5s88.334 22.5 113.001 34.5s60 31 106 57c10.667 5.33301 19 2.66602 25 -8.00098l71 -139c4 -10.667 1.33301 -19 -8 -25c-143.333 -78 -303 -116.667 -479 -116
c-226.667 0 -413.667 69 -561 207s-221 327 -221 567zM609.997 550.997c0 -62.667 14.999 -111.498 44.999 -146.498s71.667 -52.5 125 -52.5c62.667 0 113.167 24.667 151.5 74s57.5 110.666 57.5 183.999c0 136.667 -53.333 205 -160 205
c-69.333 0 -123.166 -26.333 -161.499 -79s-57.5 -114.334 -57.5 -185.001z" />
    <glyph glyph-name="A" unicode="A" horiz-adv-x="1282" 
d="M-6 20c0 4 0.666992 8.33301 2 13l504 1380c4 13.333 10.667 20.333 20 21h242c9.33301 0 16 -7 20 -21l504 -1380c1.33301 -4 2 -8.33301 2 -13c0 -13.333 -7.33301 -20 -22 -20h-224c-12 0 -20 6.66699 -24 20l-123 359h-508l-123 -359c-4 -13.333 -12 -20 -24 -20
h-224c-14.667 0 -22 6.66699 -22 20zM469 616h344l-172 500z" />
    <glyph glyph-name="B" unicode="B" horiz-adv-x="1288" 
d="M143 20l0.00195312 1393c0 13.333 7 20.333 21 21h549c121.333 0 222.666 -34.5 303.999 -103.5s122 -160.833 122 -275.5c0 -112 -48.667 -206.333 -146 -283c138 -61.333 207 -176.666 207 -345.999c0 -122.667 -39.833 -224.334 -119.5 -305.001
s-185.834 -121 -318.501 -121h-598c-14 0 -21 6.66699 -21 20zM401.002 238l336.001 -0.000976562c60 0 108.5 17.333 145.5 52s55.5 83.334 55.5 146.001c0 60 -18.833 108.167 -56.5 144.5s-85.834 54.5 -144.501 54.5h-336v-397zM401.003 871.999h314
c49.333 0 89.333 14 120 42s46 68.667 46 122s-15.5 93.333 -46.5 120s-70.833 40 -119.5 40h-314v-324z" />
    <glyph glyph-name="C" unicode="C" horiz-adv-x="1447" 
d="M78 716.5c0 124.333 19.501 235.001 58.501 332.001s90.5 174.167 154.5 231.5s135 100.666 213 129.999s158.333 44 241 44c170.667 0 315.5 -46.333 434.5 -139s187.833 -217.667 206.5 -375c0 -13.333 -7.33301 -20 -22 -20h-207c-12 0 -20 6.66699 -24 20
c-53.333 184 -182.666 276.333 -387.999 277c-108 0 -201.833 -43.833 -281.5 -131.5s-119.5 -210.667 -119.5 -369s40 -281.166 120 -368.499s173.667 -131 281 -131c204.667 0 334 92.333 388 277c4 13.333 12 20 24 20h207c15.333 0 22.666 -6.66699 21.999 -20
c-19.333 -157.333 -88.333 -282.333 -207 -375s-263.334 -139 -434.001 -139c-83.333 0 -163.833 14.667 -241.5 44s-148.5 72.666 -212.5 129.999s-115.5 134.333 -154.5 231s-58.5 207.167 -58.5 331.5z" />
    <glyph glyph-name="D" unicode="D" horiz-adv-x="1349" 
d="M143 20v1393c0 13.333 7 20.333 21 21h434c194 0 354.833 -61.5 482.5 -184.5s191.5 -300.5 191.5 -532.5s-63.833 -409.5 -191.5 -532.5s-288.5 -184.5 -482.5 -184.5h-434c-14 0 -21 6.66699 -21 20zM401 238l185 0.000976562c126.667 0 228.334 40.167 305.001 120.5
s115 199.666 115 357.999s-38.333 277.833 -115 358.5s-178.334 121 -305.001 121h-185v-958z" />
    <glyph glyph-name="E" unicode="E" horiz-adv-x="1196" 
d="M143 20v1393c0 13.333 7 20.333 21 21h883c13.333 0 20 -7 20 -21v-196c0 -13.333 -6.66699 -20.333 -20 -21h-646v-324h584c13.333 0 20.333 -6.66699 21 -20v-197c0 -13.333 -7 -20 -21 -20h-584v-397h676c13.333 0 20.333 -7 21 -21v-197c0 -13.333 -7 -20 -21 -20
h-913c-14 0 -21 6.66699 -21 20z" />
    <glyph glyph-name="F" unicode="F" horiz-adv-x="1206" 
d="M143 20v1393c0 13.333 7 20.333 21 21h909c13.333 0 20.333 -7 21 -21v-196c0 -13.333 -7 -20.333 -21 -21h-672v-354h607c13.333 0 20 -7 20 -21v-196c0 -13.333 -6.66699 -20.333 -20 -21h-607v-584c0 -13.333 -6.66699 -20 -20 -20h-217c-14 0 -21 6.66699 -21 20z
" />
    <glyph glyph-name="G" unicode="G" horiz-adv-x="1460" 
d="M78 717c0 116 19.166 221.832 57.499 317.499s89.833 173.5 154.5 233.5s137.334 106 218.001 138s164.667 48 252 48c158.667 0 295.5 -41.667 410.5 -125s182.833 -194.666 203.5 -333.999c0 -13.333 -7.33301 -20 -22 -20h-215c-12 0 -20.333 6.66699 -25 20
c-50.667 147.333 -168 221.333 -352 222c-112 0 -209.333 -44.167 -292 -132.5s-124 -210.833 -124 -367.5c0 -154 39.667 -275.833 119 -365.5s181 -134.5 305 -134.5c169.333 0 292.333 58.667 369 176v121h-379c-13.333 0 -20.333 7 -21 21v196c0 13.333 7 20.333 21 21
h616c13.333 0 20.333 -7 21 -21v-354c0 -31.333 -7 -57.333 -21 -78c-60 -96.667 -142.5 -174 -247.5 -232s-217.833 -87 -338.5 -87c-203.333 0 -372.5 64.167 -507.5 192.5s-202.5 309.833 -202.5 544.5z" />
    <glyph glyph-name="H" unicode="H" horiz-adv-x="1388" 
d="M139 20v1393c0 13.333 7 20.333 21 21h217c13.333 0 20 -7 20 -21v-547h594v547c0 13.333 7 20.333 21 21h217c13.333 0 20 -7 20 -21v-1393c0 -13.333 -6.66699 -20 -20 -20h-217c-13.333 0 -20.333 6.66699 -21 20v609h-594v-609c0 -13.333 -6.66699 -20 -20 -20h-217
c-14 0 -21 6.66699 -21 20z" />
    <glyph glyph-name="I" unicode="I" horiz-adv-x="516" 
d="M129 20v1393c0 13.333 7 20.333 21 21h217c13.333 0 20 -7 20 -21v-1393c0 -13.333 -6.66699 -20 -20 -20h-217c-14 0 -21 6.66699 -21 20z" />
    <glyph glyph-name="J" unicode="J" horiz-adv-x="1107" 
d="M39 465c0 13.333 6.66797 20 20.001 20h217c13.333 0 20.333 -6.66699 21 -20c0 -80.667 21.167 -142.167 63.5 -184.5s96.166 -63.5 161.499 -63.5c82 0 141.5 27 178.5 81s55.5 140.333 55.5 259v856c0 13.333 6.66699 20.333 20 21h217c13.333 0 20.333 -7 21 -21
v-854c0 -190 -43.333 -334 -130 -432s-207.334 -147 -362.001 -147c-147.333 0 -264.666 46.333 -351.999 139s-131 208 -131 346z" />
    <glyph glyph-name="K" unicode="K" horiz-adv-x="1257" 
d="M143 20v1393c0 13.333 7 20.333 21 21h217c13.333 0 20 -7 20 -21v-508l469 508c12 13.333 24.333 20.333 37 21h250c9.33301 0 15.5 -3.5 18.5 -10.5s0.833008 -13.167 -6.5 -18.5l-467 -500l551 -876c2.66699 -4.66699 4 -9.33398 4 -14.001
c0 -2.66699 -0.666992 -5 -2 -7c-2.66699 -5.33301 -8 -8 -16 -8h-246c-13.333 -0 -26.333 10.333 -39 31l-430 684l-123 -131v-564c0 -13.333 -6.66699 -20 -20 -20h-217c-14 0 -21 6.66699 -21 20z" />
    <glyph glyph-name="L" unicode="L" horiz-adv-x="1183" 
d="M143 20v1393c0 13.333 7 20.333 21 21h217c13.333 0 20 -7 20 -21v-1175h699c13.333 0 20 -7 20 -21v-197c0 -13.333 -6.66699 -20 -20 -20h-936c-14 0 -21 6.66699 -21 20z" />
    <glyph glyph-name="M" unicode="M" horiz-adv-x="1634" 
d="M143 20l0.000976562 1393c0 13.333 7 20.333 21 21h256c16.667 0 27.667 -7 33 -21l364 -842l365 842c5.33301 13.333 16 20.333 32 21h256c13.333 0 20.333 -7 21 -21v-1393c0 -13.333 -7 -20 -21 -20h-217c-13.333 0 -20 6.66699 -20 20v945l-303 -703
c-6.66699 -15.333 -16.334 -22.666 -29.001 -21.999h-168c-12 0 -21.333 7.33301 -28 22l-304 703v-945c0 -13.333 -6.66699 -20 -20 -20h-217c-14 0 -21 6.66699 -21 20z" />
    <glyph glyph-name="N" unicode="N" horiz-adv-x="1425" 
d="M143 20v1393c0 13.333 7 20.333 21 21h219c15.333 0 26.333 -5.66699 33 -17l604 -971v967c0 13.333 6.66699 20.333 20 21h222c13.333 0 20 -7 20 -21v-1393c0 -13.333 -6.66699 -20 -20 -20h-220c-15.333 -0 -26 5.33301 -32 16l-604 971v-967
c0 -13.333 -7 -20 -21 -20h-221c-14 0 -21 6.66699 -21 20z" />
    <glyph glyph-name="O" unicode="O" horiz-adv-x="1572" 
d="M78 717c0 120 20.167 228.167 60.5 324.5s94.166 173.833 161.499 232.5s142.666 103.334 225.999 134.001s170.166 46 260.499 46s177 -15.333 260 -46s158.333 -75.334 226 -134.001s121.667 -136.167 162 -232.5s60.5 -204.5 60.5 -324.5
s-20.167 -228.167 -60.5 -324.5s-94.333 -173.833 -162 -232.5s-143 -103.334 -226 -134.001s-169.667 -46 -260 -46s-177.166 15.333 -260.499 46s-158.666 75.334 -225.999 134.001s-121.166 136.167 -161.499 232.5s-60.5 204.5 -60.5 324.5zM344 716.5
c0 -159.667 43 -282.834 129 -369.501s190.5 -130 313.5 -130s227.5 43.333 313.5 130s129 209.834 129 369.501s-43 283 -129 370s-190.5 130.5 -313.5 130.5s-227.5 -43.5 -313.5 -130.5s-129 -210.333 -129 -370z" />
    <glyph glyph-name="P" unicode="P" horiz-adv-x="1241" 
d="M143 20l0.000976562 1393c0 13.333 7 20.333 21 21h526c154 0 273.5 -37 358.5 -111s127.5 -174.5 127.5 -301.5s-42.333 -227.333 -127 -301s-204.334 -110.5 -359.001 -110.5h-289v-590c0 -13.333 -6.66699 -20 -20 -20h-217c-14 0 -21 6.66699 -21 20zM401.001 848
h299.001c64 0 115.5 15 154.5 45s58.5 73 58.5 129s-19.333 99 -58 129s-90.334 45 -155.001 45h-299v-348z" />
    <glyph glyph-name="Q" unicode="Q" horiz-adv-x="1572" 
d="M78 717c0 120 20.167 228.166 60.5 324.499s94.166 173.833 161.499 232.5s142.666 103.334 225.999 134.001s170.166 46 260.499 46s177 -15.333 260 -46s158.333 -75.334 226 -134.001s121.667 -136.167 162 -232.5s60.5 -204.5 60.5 -324.5
c0 -184 -47.667 -339.667 -143 -467l114 -111c5.33301 -5.33301 8.16602 -10 8.49902 -14s-2.5 -8.66699 -8.5 -14l-147 -150c-5.33301 -5.33301 -10.166 -8 -14.499 -8s-9.16602 2.66699 -14.499 8l-125 121c-112 -68 -238.333 -102 -379 -102
c-90 0 -176.667 15.333 -260 46s-158.666 75.334 -225.999 134.001s-121.166 136.167 -161.499 232.5s-60.5 204.5 -60.5 324.5zM344 716.499c0 -159.667 43 -282.833 129 -369.5s190.333 -130 313 -130c68 0 133 14.333 195 43l-115 111c-5.33301 5.33301 -8 10 -8 14
s2.66699 8.66699 8 14l148 150c5.33301 5.33301 10 8 14 8s8.66699 -2.66699 14 -8l119 -117c45.333 79.333 68 174.333 68 285c0 160 -43 283.333 -129 370s-190.5 130 -313.5 130s-227.5 -43.5 -313.5 -130.5s-129 -210.333 -129 -370z" />
    <glyph glyph-name="R" unicode="R" horiz-adv-x="1259" 
d="M143 20l-0.00195312 1393c0 13.333 7 20.333 21 21h559c132.667 0 238.834 -34.5 318.501 -103.5s119.5 -165.167 119.5 -288.5c0 -86 -25.167 -162 -75.5 -228s-113.166 -114.667 -188.499 -146l305 -648c1.33301 -2.66699 2 -5.33398 2 -8.00098c0 -8 -6 -12 -18 -12
h-236c-10.667 0 -20 6.66699 -28 20l-308 631h-213v-631c0 -13.333 -6.66699 -20 -20 -20h-217c-14 0 -21 6.66699 -21 20zM400.998 889.001h332c52 0 93.333 13.667 124 41s46 64.833 46 112.5s-15.333 85.167 -46 112.5s-72 41 -124 41h-332v-307z" />
    <glyph glyph-name="S" unicode="S" horiz-adv-x="1208" 
d="M47 463c0 13.333 6.99805 20.002 20.998 20.002h215c12 0 18.667 -6.66699 20 -20c6.66699 -80.667 37.667 -141.834 93 -183.501s128 -62.5 218 -62.5c86 0 154.667 17.5 206 52.5s77 81.167 77 138.5c0 90 -108.667 162.333 -326 217
c-165.333 42 -288.166 94.833 -368.499 158.5s-120.5 151.5 -120.5 263.5c0 125.333 49.167 224.5 147.5 297.5s216.5 109.5 354.5 109.5c152.667 0 278.167 -42.333 376.5 -127s148.833 -185 151.5 -301c0 -13.333 -6.66699 -20 -20 -20h-218c-12 0 -18.667 6.66699 -20 20
c-9.33301 61.333 -39 108.5 -89 141.5s-111.667 49.5 -185 49.5c-69.333 0 -126.666 -13.667 -171.999 -41s-68 -66.333 -68 -117c0 -54.667 29 -98.334 87 -131.001s142.333 -65 253 -97c68 -19.333 127.667 -39.166 179 -59.499s100.833 -46.166 148.5 -77.499
s84.167 -68.833 109.5 -112.5s38 -92.834 38 -147.501c0 -143.333 -49.833 -254.833 -149.5 -334.5s-234.167 -119.5 -403.5 -119.5c-158.667 0 -290.5 46.667 -395.5 140s-158.167 207.666 -159.5 342.999z" />
    <glyph glyph-name="T" unicode="T" horiz-adv-x="1155" 
d="M27 1217v196c0 13.333 6.66699 20.333 20 21h1061c13.333 0 20 -7 20 -21v-196c0 -13.333 -6.66699 -20.333 -20 -21h-401v-1176c0 -13.333 -7 -20 -21 -20h-217c-13.333 0 -20 6.66699 -20 20v1176h-402c-13.333 0.666992 -20 7.66699 -20 21z" />
    <glyph glyph-name="U" unicode="U" horiz-adv-x="1310" 
d="M111 553l0.00195312 860c0 13.333 6.66699 20.333 20 21h217c13.333 0 20.333 -7 21 -21v-858c0 -113.333 25.167 -198 75.5 -254s120.666 -84 210.999 -84s160.666 28 210.999 84s75.5 140.667 75.5 254v858c0 13.333 7 20.333 21 21h217c13.333 0 20 -7 20 -21v-860
c0 -177.333 -49.5 -317.166 -148.5 -419.499s-231 -153.5 -396 -153.5s-297 51.167 -396 153.5s-148.5 242.166 -148.5 419.499z" />
    <glyph glyph-name="V" unicode="V" horiz-adv-x="1277" 
d="M-4 1421c0 8 6.00098 12.333 18.001 13h242c12 0 20.333 -7 25 -21l358 -1106l358 1106c4 13.333 12.333 20.333 25 21h242c12 0 18 -4.33301 18 -13c0 -2.66699 -0.666992 -6 -2 -10l-492 -1391c-4 -13.333 -11.333 -20 -22 -20h-254
c-10.667 0 -18.334 6.66699 -23.001 20l-491 1391c-1.33301 4 -2 7.33301 -2 10z" />
    <glyph glyph-name="W" unicode="W" horiz-adv-x="1712" 
d="M4 1421c0 8 6.33301 12.333 19 13h223c15.333 0 23.333 -7 24 -21l207 -1046l250 948c4 13.333 12.333 20 25 20h209c12 0 20 -6.66699 24 -20l250 -948l207 1046c1.33301 13.333 9.33301 20.333 24 21h224c12 0 18 -4.33301 18 -13
c0 -2.66699 -0.666992 -6.66699 -2 -12l-322 -1389c-4 -13.333 -11.333 -20 -22 -20h-250c-10.667 0 -18 6.66699 -22 20l-234 920l-233 -920c-4 -13.333 -11.667 -20 -23 -20h-250c-10.667 0 -18 6.66699 -22 20l-322 1389c-1.33301 5.33301 -2 9.33301 -2 12z" />
    <glyph glyph-name="X" unicode="X" horiz-adv-x="1220" 
d="M-10 12c0 2.66699 0.664062 5.33398 1.99707 8.00098l473 734l-420 659c-1.33301 2.66699 -2 5.33398 -2 8.00098c0 8 5.33301 12.333 16 13h252c10.667 0 20.334 -7 29.001 -21l270 -432l271 432c8 13.333 17.333 20.333 28 21h252c10.667 0 16.334 -4.33301 17.001 -13
c0 -2.66699 -0.666992 -5.33398 -2 -8.00098l-420 -659l473 -734c1.33301 -2.66699 2 -5.33398 2 -8.00098c0 -8 -5.66699 -12 -17 -12h-258c-10.667 0 -20.667 6.66699 -30 20l-316 506l-315 -506c-9.33301 -13.333 -19.666 -20 -30.999 -20h-258c-10.667 0 -16 4 -16 12z
" />
    <glyph glyph-name="Y" unicode="Y" horiz-adv-x="1118" 
d="M-12 1421c0 8 4.66699 12.332 14 12.999h240c13.333 0 22 -5.66699 26 -17l291 -645l291 645c4 10.667 13 16.334 27 17.001h239c9.33301 0 14 -4.33301 14 -13c0 -2.66699 -0.666992 -5.33398 -2 -8.00098l-440 -909v-484c0 -13.333 -6.66699 -20 -20 -20h-217
c-13.333 0 -20.333 6.66699 -21 20v484l-440 909c-1.33301 2.66699 -2 5.33398 -2 8.00098z" />
    <glyph glyph-name="Z" unicode="Z" horiz-adv-x="1241" 
d="M55 20v189c0 10.667 4.33301 22.334 13 35.001l763 952h-720c-13.333 0 -20.333 7 -21 21v196c0 13.333 7 20.333 21 21h1005c13.333 0 20.333 -7 21 -21v-188c0 -10.667 -4.33301 -22.334 -13 -35.001l-762 -952h797c13.333 0 20.333 -7 21 -21v-197
c0 -13.333 -7 -20 -21 -20h-1083c-14 0 -21 6.66699 -21 20z" />
    <glyph glyph-name="bracketleft" unicode="[" horiz-adv-x="837" 
d="M143 -385v1798c0 13.333 7 20.333 21 21h571c13.333 0 20.333 -7 21 -21v-196c0 -13.333 -7 -20.333 -21 -21h-334v-1364h334c13.333 0 20.333 -6.66699 21 -20v-197c0 -13.333 -7 -20.333 -21 -21h-571c-14 0.666992 -21 7.66699 -21 21z" />
    <glyph glyph-name="backslash" unicode="\" horiz-adv-x="987" 
d="M-8 1413c-5.33301 13.333 -1.33301 20.333 12 21h223c13.333 0 23 -7 29 -21l711 -1393c5.33301 -13.333 0.333008 -20 -15 -20h-223c-12 0 -21 6.66699 -27 20z" />
    <glyph glyph-name="bracketright" unicode="]" horiz-adv-x="837" 
d="M82 -188c0 13.333 6.66699 20 20 20h334v1364h-334c-13.333 0 -20 7 -20 21v196c0 13.333 6.66699 20.333 20 21h572c13.333 0 20 -7 20 -21v-1798c0 -13.333 -6.66699 -20.333 -20 -21h-572c-13.333 0 -20 7 -20 21v197z" />
    <glyph glyph-name="asciicircum" unicode="^" horiz-adv-x="1138" 
d="M38 741.5c-2 4.33301 -1.66797 9.16602 0.999023 14.499l397 657c6.66699 13.333 15.667 20.333 27 21h213c10.667 0 19.334 -7 26.001 -21l398 -657c2.66699 -5.33301 3 -10.166 1 -14.499s-6.66699 -6.5 -14 -6.5h-227c-12 0 -21.667 7 -29 21l-262 436l-262 -436
c-6.66699 -13.333 -16 -20.333 -28 -21h-228c-6.66699 0 -11 2.16699 -13 6.5z" />
    <glyph glyph-name="underscore" unicode="_" horiz-adv-x="1148" 
d="M109 -20c0 13.333 6.66699 20 20 20h891c13.333 -0 20 -6.66699 20 -20v-189c0 -13.333 -6.66699 -20 -20 -20h-891c-13.333 0 -20 6.66699 -20 20v189z" />
    <glyph glyph-name="grave" unicode="`" horiz-adv-x="776" 
d="M165 1427.5c2 4.33301 6.33203 6.50098 12.999 6.50098h260c12 0 22.333 -7 31 -21l141 -258c8 -13.333 4.66699 -20 -10 -20h-184c-15.333 0 -27.666 6 -36.999 18l-211 260c-4 5.33301 -5 10.166 -3 14.499z" />
    <glyph glyph-name="a" unicode="a" horiz-adv-x="1103" 
d="M80 322c0 108 39.1689 192.334 117.502 253.001s177.166 91 296.499 91c69.333 0 153 -13.667 251 -41v28c0 53.333 -16.333 95.666 -49 126.999s-79.667 47 -141 47c-90 0 -152.667 -32 -188 -96c-8 -12 -17.667 -18 -29 -18h-207c-9.33301 0 -14 4 -14 12
s0.666992 14.667 2 20c20.667 88.667 69.167 161.5 145.5 218.5s173.166 85.5 290.499 85.5c132.667 0 238.5 -35.5 317.5 -106.5s118.5 -167.5 118.5 -289.5v-444c0 -79.333 13 -142.333 39 -189c2.66699 -4 4 -7.33301 4 -10c0 -6.66699 -6 -10 -18 -10h-250
c-13.333 0 -20.333 6.66699 -21 20v60c-80.667 -66.667 -178 -100 -292 -100c-106.667 0 -195.5 31 -266.5 93s-106.5 145 -106.5 249zM317.002 328.001c0 -39.333 15.832 -70.332 47.499 -92.999s76.167 -34 133.5 -34c65.333 0 122.833 20.167 172.5 60.5
s74.5 91.833 74.5 154.5c-95.333 27.333 -175.666 41 -240.999 41c-53.333 0 -97.833 -11.333 -133.5 -34s-53.5 -54.334 -53.5 -95.001z" />
    <glyph glyph-name="b" unicode="b" horiz-adv-x="1220" 
d="M135 20v1393c0 13.333 7 20.333 21 21h204c13.333 0 20.333 -7 21 -21v-467c86 68 184.333 102.333 295 103c139.333 0 252 -48.167 338 -144.5s129 -226.5 129 -390.5s-43 -294 -129 -390s-198.667 -144 -338 -144c-110.667 0 -209 34.667 -295 104v-64
c0 -13.333 -7 -20 -21 -20h-204c-14 0 -21 6.66699 -21 20zM369 514c0 -90 23.167 -164.667 69.5 -224s109 -89 188 -89s141.833 29.667 188.5 89s70 134 70 224s-23.333 164.667 -70 224s-109.5 89 -188.5 89s-141.667 -29.667 -188 -89s-69.5 -134 -69.5 -224z" />
    <glyph glyph-name="c" unicode="c" horiz-adv-x="1161" 
d="M74 514c0 158.667 50.834 287.497 152.501 386.497s229.5 148.5 383.5 148.5c130 0 238.667 -35.5 326 -106.5s139.333 -157.833 156 -260.5c1.33301 -5.33301 2 -12.166 2 -20.499s-5 -12.5 -15 -12.5h-200c-15.333 0 -25 6.33301 -29 19
c-38 106.667 -119.333 159.667 -244 159c-83.333 0 -149.833 -27.5 -199.5 -82.5s-74.5 -131.667 -74.5 -230s24.833 -175.166 74.5 -230.499s116.167 -83 199.5 -83c124 0 205.333 53 244 159c4 12 13.667 18.333 29 19h200c9.33301 0 14.166 -4.16699 14.499 -12.5
s-0.166992 -15.166 -1.5 -20.499c-16.667 -102.667 -68.667 -189.334 -156 -260.001s-196 -106 -326 -106c-154 0 -281.833 49.333 -383.5 148s-152.5 227.334 -152.5 386.001z" />
    <glyph glyph-name="d" unicode="d" horiz-adv-x="1220" 
d="M78 514c0 164 43 294.167 129 390.5s198.667 144.5 338 144.5c110.667 0 209 -34.333 295 -103v467c0 13.333 6.66699 20.333 20 21h205c13.333 0 20 -7 20 -21v-1393c0 -13.333 -6.66699 -20 -20 -20h-205c-13.333 0 -20 6.66699 -20 20v64
c-86 -69.333 -184.333 -104 -295 -104c-139.333 0 -252 48 -338 144s-129 226 -129 390zM336 514c0 -90 23.167 -164.667 69.5 -224s109.166 -89 188.499 -89s142.166 29.667 188.499 89s69.5 134 69.5 224s-23.167 164.667 -69.5 224s-109.166 89 -188.499 89
s-142.166 -29.667 -188.499 -89s-69.5 -134 -69.5 -224z" />
    <glyph glyph-name="e" unicode="e" horiz-adv-x="1214" 
d="M82 514c0 155.333 51.167 283.333 153.5 384s227.166 151 374.499 151c162.667 0 291.834 -54 387.501 -162s143.5 -239.667 143.5 -395v-35c0 -13.333 -7 -20.333 -21 -21h-780c10.667 -70.667 40 -127.5 88 -170.5s108.667 -64.5 182 -64.5
c117.333 0 201.333 42.333 252 127c8 12 17.667 18 29 18h209c9.33301 0 14 -4.66699 14 -14c0 -5.33301 -1.33301 -12.333 -4 -21c-86 -221.333 -253.333 -331.666 -502 -330.999c-150 0 -275.167 49.667 -375.5 149s-150.5 227.666 -150.5 384.999zM348 641
l531.003 -0.000976562c-40.667 124 -130.334 186 -269.001 186c-58.667 0 -111.834 -16.667 -159.501 -50s-81.834 -78.666 -102.501 -135.999z" />
    <glyph glyph-name="f" unicode="f" horiz-adv-x="765" 
d="M25 827v181c0 13.333 6.66699 20 20 20h164v88c0 106.667 29.667 189.667 89 249s141 89 245 89c76.667 0 147.667 -14.333 213 -43c10.667 -4 16 -15.667 16 -35v-176c0 -10.667 -4 -16 -12 -16c-4 0 -9.66699 1.33301 -17 4c-64 30 -119 45 -165 45
c-82 0 -123 -45.667 -123 -137v-68h282c13.333 0 20.333 -6.66699 21 -20v-181c0 -13.333 -7 -20 -21 -20h-282v-787c0 -13.333 -7 -20 -21 -20h-205c-13.333 0 -20 6.66699 -20 20v787h-164c-13.333 0 -20 6.66699 -20 20z" />
    <glyph glyph-name="g" unicode="g" horiz-adv-x="1191" 
d="M74 526c0 154 43.6689 279.668 131.002 377.001s200.666 146 339.999 146c113.333 0 208.666 -34.333 285.999 -103v62c0 13.333 7 20 21 20h205c13.333 0 20 -6.66699 20 -20v-906c0 -176 -43 -308 -129 -396s-210.333 -132 -373 -132c-120 0 -222 31.667 -306 95
s-130.667 149 -140 257c0 13.333 7 20.333 21 21h204c12 0 19 -7 21 -21c18 -87.333 89 -131 213 -131c82 0 143 24 183 72s60 114.333 60 199v36c-79.333 -65.333 -172 -98 -278 -98c-143.333 0 -259 48.167 -347 144.5s-132 222.166 -132 377.499zM336.002 526.001
c0 -87.333 23.5 -159.333 70.5 -216s109.5 -85 187.5 -85s139.833 28 185.5 84s68.5 128.333 68.5 217s-22.833 161 -68.5 217s-107.5 84 -185.5 84s-140.5 -28.333 -187.5 -85s-70.5 -128.667 -70.5 -216z" />
    <glyph glyph-name="h" unicode="h" horiz-adv-x="1183" 
d="M135 20v1393c0 13.333 7 20.333 21 21h204c13.333 0 20.333 -7 21 -21v-483c86 79.333 192.333 119 319 119c116 0 206.5 -30.5 271.5 -91.5s97.5 -155.5 97.5 -283.5v-654c0 -13.333 -6.66699 -20 -20 -20h-205c-13.333 0 -20.333 6.66699 -21 20v598
c0 139.333 -60.667 209 -182 209c-72.667 0 -134.167 -30.333 -184.5 -91s-75.5 -145.667 -75.5 -255v-461c0 -13.333 -7 -20 -21 -20h-204c-14 0 -21 6.66699 -21 20z" />
    <glyph glyph-name="i" unicode="i" horiz-adv-x="438" 
d="M82 1180v233c0 13.333 6.66699 20.333 20 21h234c13.333 0 20 -7 20 -21v-233c0 -13.333 -6.66699 -20.333 -20 -21h-234c-13.333 0.666992 -20 7.66699 -20 21zM96 20v988c0 13.333 7 20 21 20h205c13.333 0 20 -6.66699 20 -20v-988c0 -13.333 -6.66699 -20 -20 -20
h-205c-14 0 -21 6.66699 -21 20z" />
    <glyph glyph-name="j" unicode="j" horiz-adv-x="438" 
d="M37 -328c39.333 104 59 197.668 59 281.001v1055c0 13.333 7 20 21 20h205c13.333 0 20 -6.66699 20 -20v-1063c0 -112 -26 -230.333 -78 -355c-4 -10.667 -9.66699 -15.667 -17 -15c-2 0 -4.33301 0.333008 -7 1l-189 72c-10.667 3.33301 -16 8.66602 -16 15.999z
M82 1180v233c0 13.333 6.66699 20.333 20 21h234c13.333 0 20 -7 20 -21v-233c0 -13.333 -6.66699 -20.333 -20 -21h-234c-13.333 0.666992 -20 7.66699 -20 21z" />
    <glyph glyph-name="k" unicode="k" horiz-adv-x="1081" 
d="M135 20v1393c0 13.333 7 20.333 21 21h204c13.333 0 20.333 -7 21 -21v-723l342 320c12 12 23 18 33 18h248c10.667 0 16 -4.66699 16 -14c0 -5.33301 -2.66699 -11 -8 -17l-357 -344l406 -622c2.66699 -4 4 -9 4 -15c0 -10.667 -6 -16 -18 -16h-230
c-15.333 0 -26.333 6 -33 18l-307 474l-96 -91v-381c0 -13.333 -7 -20 -21 -20h-204c-14 0 -21 6.66699 -21 20z" />
    <glyph glyph-name="l" unicode="l" horiz-adv-x="487" 
d="M121 20v1393c0 13.333 6.66699 20.333 20 21h205c13.333 0 20.333 -7 21 -21v-1393c0 -13.333 -7 -20 -21 -20h-205c-13.333 0 -20 6.66699 -20 20z" />
    <glyph glyph-name="m" unicode="m" horiz-adv-x="1630" 
d="M135 20l-0.000976562 988.001c0 13.333 7 20 21 20h204c13.333 0 20.333 -6.66699 21 -20v-76c75.333 78 159.333 117 252 117c112 0 197.333 -42.333 256 -127c92.667 84.667 197 127 313 127c104 0 182.333 -31.5 235 -94.5s79 -151.833 79 -266.5v-668
c0 -13.333 -7 -20 -21 -20h-205c-13.333 0 -20 6.66699 -20 20v633c0 65.333 -10.667 110.666 -32 135.999s-53.666 38 -96.999 38c-128.667 0 -193 -116.667 -193 -350v-457c0 -13.333 -6.66699 -20 -20 -20h-205c-13.333 0 -20.333 6.66699 -21 20v623
c0 68 -10.5 115.667 -31.5 143s-54.833 41 -101.5 41c-57.333 0 -103 -29 -137 -87s-51 -145.667 -51 -263v-457c0 -13.333 -7 -20 -21 -20h-204c-14 0 -21 6.66699 -21 20z" />
    <glyph glyph-name="n" unicode="n" 
d="M135 20l0.000976562 988.001c0 13.333 7 20 21 20h204c13.333 0 20.333 -6.66699 21 -20v-74c92.667 76.667 195.667 115 309 115c112 0 199.833 -31.167 263.5 -93.5s95.5 -146.833 95.5 -253.5v-682c0 -13.333 -7 -20 -21 -20h-205c-13.333 0 -20 6.66699 -20 20v594
c0 142 -58.667 213 -176 213c-70.667 0 -129.334 -28.333 -176.001 -85s-70 -142.334 -70 -257.001v-465c0 -13.333 -7 -20 -21 -20h-204c-14 0 -21 6.66699 -21 20z" />
    <glyph glyph-name="o" unicode="o" horiz-adv-x="1249" 
d="M76 514c0 154 52.167 281.667 156.5 383s235 152 392 152s287.833 -50.667 392.5 -152s157 -229 157 -383s-52.333 -281.5 -157 -382.5s-235.5 -151.5 -392.5 -151.5s-287.667 50.5 -392 151.5s-156.5 228.5 -156.5 382.5zM338 514c0 -94 26.667 -169.667 80 -227
s122.333 -86 207 -86s153.5 28.667 206.5 86s79.5 133 79.5 227s-26.5 169.667 -79.5 227s-121.833 86 -206.5 86s-153.667 -28.667 -207 -86s-80 -133 -80 -227z" />
    <glyph glyph-name="p" unicode="p" horiz-adv-x="1220" 
d="M135 -385v1393c0 13.333 7 20 21 20h204c13.333 0 20.333 -6.66699 21 -20v-64c86 69.333 184.333 104.333 295 105c139.333 0 252 -48.167 338 -144.5s129 -226.5 129 -390.5s-43 -294 -129 -390s-198.667 -144 -338 -144c-110.667 0 -209 34 -295 102v-467
c0 -13.333 -7 -20.333 -21 -21h-204c-14 0.666992 -21 7.66699 -21 21zM369 514c0 -90 23.167 -164.667 69.5 -224s109 -89 188 -89s141.833 29.667 188.5 89s70 134 70 224s-23.333 164.667 -70 224s-109.5 89 -188.5 89s-141.667 -29.667 -188 -89s-69.5 -134 -69.5 -224z
" />
    <glyph glyph-name="q" unicode="q" horiz-adv-x="1220" 
d="M78 514c0 164 43 294.167 129 390.5s198.667 144.5 338 144.5c110.667 0 209 -35 295 -105v64c0 13.333 6.66699 20 20 20h205c13.333 0 20 -6.66699 20 -20v-1393c0 -13.333 -6.66699 -20.333 -20 -21h-205c-13.333 0 -20 7 -20 21v467c-86 -68 -184.333 -102 -295 -102
c-139.333 0 -252 48 -338 144s-129 226 -129 390zM336 514c0 -90 23.167 -164.667 69.5 -224s109.166 -89 188.499 -89s142.166 29.667 188.499 89s69.5 134 69.5 224s-23.167 164.667 -69.5 224s-109.166 89 -188.499 89s-142.166 -29.667 -188.499 -89
s-69.5 -134 -69.5 -224z" />
    <glyph glyph-name="r" unicode="r" horiz-adv-x="884" 
d="M135 20v988c0 13.333 7 20 21 20h204c13.333 0 20.333 -6.66699 21 -20v-56c68 64 152 96.333 252 97c62.667 0 125.334 -11 188.001 -33c16.667 -6.66699 25 -19 25 -37v-191c0 -15.333 -5.66699 -22.666 -17 -21.999c-2.66699 0 -7.33398 1.33301 -14.001 4
c-78 38 -148.333 57 -211 57c-70.667 0 -125.5 -20.833 -164.5 -62.5s-58.5 -112.834 -58.5 -213.501v-531c0 -13.333 -7 -20 -21 -20h-204c-14 0 -21 6.66699 -21 20z" />
    <glyph glyph-name="s" unicode="s" horiz-adv-x="1024" 
d="M61 342c0 13.333 6.99707 20.002 20.9971 20.002h207c12 0 18.667 -6.66699 20 -20c18 -94 88.333 -141 211 -141c52 0 95.333 8.83301 130 26.5s52 42.167 52 73.5c0 58.667 -86 102.334 -258 131.001c-238.667 40.667 -358 139.667 -358 297
c0 106.667 40.333 186.667 121 240s176.334 80 287.001 80c122.667 0 222.834 -29.833 300.501 -89.5s120.834 -135.167 129.501 -226.5c0 -13.333 -7 -20 -21 -20h-207c-13.333 0 -22.666 6.66699 -27.999 20c-31.333 68 -92.333 102.333 -183 103
c-44 0 -80.5 -8.66699 -109.5 -26s-43.5 -42.333 -43.5 -75c0 -28.667 17.333 -52.834 52 -72.501s100.667 -37.834 198 -54.501c121.333 -20.667 212.666 -53.834 273.999 -99.501s92 -113.5 92 -203.5c0 -96.667 -40.5 -175 -121.5 -235s-185.833 -90 -314.5 -90
c-130 0 -235.667 32.667 -317 98s-126 153.333 -134 264z" />
    <glyph glyph-name="t" unicode="t" horiz-adv-x="860" 
d="M29 827l0.000976562 180.999c0 13.333 6.66699 20 20 20h176v295c0 13.333 7 20 21 20h205c13.333 0 20 -6.66699 20 -20v-295h309c13.333 0 20.333 -6.66699 21 -20v-181c0 -13.333 -7 -20 -21 -20h-309v-438c0 -57.333 11 -99.666 33 -126.999s58 -41 108 -41
c65.333 0 125.666 10 180.999 30c4 1.33301 8.66699 2 14 2c9.33301 0 14 -6 14 -18v-168c0 -19.333 -5.33301 -31 -16 -35c-57.333 -22 -136 -32.667 -236 -32c-102.667 0 -185.667 29.667 -249 89s-95 144.333 -95 255v483h-176c-13.333 0 -20 6.66699 -20 20z" />
    <glyph glyph-name="u" unicode="u" 
d="M119 326v681.999c0 13.333 6.66699 20 20 20h205c13.333 0 20.333 -6.66699 21 -20v-594c0 -142 58.667 -213 176 -213c70.667 0 129.167 28.333 175.5 85s69.5 142.334 69.5 257.001v465c0 13.333 7 20 21 20h205c13.333 0 20 -6.66699 20 -20v-988
c0 -13.333 -6.66699 -20 -20 -20h-205c-13.333 0 -20.333 6.66699 -21 20v74c-92.667 -76.667 -195.667 -114.667 -309 -114c-112 0 -199.667 31 -263 93s-95 146.333 -95 253z" />
    <glyph glyph-name="v" unicode="v" horiz-adv-x="995" 
d="M-8 1010c0 12 5.99902 18 17.999 18h217c15.333 0 25 -6.66699 29 -20l242 -693l241 693c4 13.333 13.667 20 29 20h217c12 0 18.333 -6 19 -18c0 -5.33301 -1 -10.333 -3 -15l-368 -975c-5.33301 -13.333 -13.666 -20 -24.999 -20h-221c-10.667 0 -19 6.66699 -25 20
l-368 975c-1.33301 6 -2 11 -2 15z" />
    <glyph glyph-name="w" unicode="w" horiz-adv-x="1527" 
d="M-4 1014c0 9.33301 5.33203 14 15.999 14h211c15.333 0 25 -6.66699 29 -20l184 -691l199 641c4 13.333 11.333 20.333 22 21h213c10.667 0 18.334 -7 23.001 -21l199 -641l184 691c4 13.333 13.667 20 29 20h211c10.667 0 16 -4.66699 16 -14
c0 -5.33301 -0.666992 -11 -2 -17l-303 -977c-4 -13.333 -13 -20 -27 -20h-223c-13.333 0 -22.333 6.66699 -27 20l-186 629l-186 -629c-4 -13.333 -13 -20 -27 -20h-223c-13.333 0 -22.333 6.66699 -27 20l-303 977c-1.33301 6 -2 11.667 -2 17z" />
    <glyph glyph-name="x" unicode="x" horiz-adv-x="995" 
d="M-4 10c0 4 1.99805 9.66895 5.99805 17.002l352 512l-315 462c-2.66699 5.33301 -4 9.66602 -4 12.999c0 9.33301 4.66699 14 14 14h240c12 0 21.333 -4.66699 28 -14l181 -271l180 271c6.66699 9.33301 16.334 14 29.001 14h239c9.33301 0 14.333 -4.66699 15 -14
c0 -2.66699 -1.66699 -7 -5 -13l-317 -462l354 -512c4 -6.66699 6 -12.334 6 -17.001c0 -6.66699 -4 -10 -12 -10h-254c-9.33301 0 -18.666 6.66699 -27.999 20l-207 312l-207 -312c-9.33301 -13.333 -19 -20 -29 -20h-254c-8 -0 -12 3.33301 -12 10z" />
    <glyph glyph-name="y" unicode="y" horiz-adv-x="991" 
d="M-4 1012c0 10.667 5.33301 15.999 16 15.999h238c13.333 0 22 -6.66699 26 -20l246 -646l199 646c4 13.333 13 20 27 20h225c10.667 0 16 -4.66699 16 -14c0 -5.33301 -0.666992 -10.333 -2 -15l-379 -1099c-75.333 -217.333 -195.333 -326 -360 -326
c-84.667 0 -151 11 -199 33c-13.333 8 -20 19 -20 33v180c0 13.333 5.33301 20 16 20c8 0 30.5 -7.5 67.5 -22.5s69.167 -22.5 96.5 -22.5c52 0 93.333 17.5 124 52.5s57.667 93.5 81 175.5l-414 972c-2.66699 8.66699 -4 14.334 -4 17.001z" />
    <glyph glyph-name="z" unicode="z" horiz-adv-x="989" 
d="M39 20v173c0 9.33301 4 19.333 12 30l545 584h-510c-13.333 0 -20 6.66699 -20 20v181c0 13.333 6.66699 20 20 20h795c13.333 0 20 -6.66699 20 -20v-172c0 -16.667 -5.33301 -31 -16 -43l-535 -572h570c13.333 0 20 -6.66699 20 -20v-181
c0 -13.333 -6.66699 -20 -20 -20h-861c-13.333 0 -20 6.66699 -20 20z" />
    <glyph glyph-name="braceleft" unicode="{" horiz-adv-x="794" 
d="M39 416l-0.000976562 195.999c0 13.333 6.66699 20.333 20 21h60c82 0 123 45.667 123 137v285c0 138 28.667 235.667 86 293s146.666 86 267.999 86h96c13.333 0 20.333 -7 21 -21v-196c0 -13.333 -7 -20.333 -21 -21h-59c-49.333 0 -84.5 -14 -105.5 -42
s-31.5 -71.333 -31.5 -130v-338c0 -50.667 -10 -88.5 -30 -113.5s-53 -44.5 -99 -58.5c46.667 -13.333 79.834 -32.666 99.501 -57.999s29.5 -63.333 29.5 -114v-338c0 -58.667 10.5 -102 31.5 -130s56.167 -42 105.5 -42h59c13.333 0 20.333 -6.66699 21 -20v-197
c0 -13.333 -7 -20.333 -21 -21h-96c-121.333 0 -210.666 28.833 -267.999 86.5s-86 155.167 -86 292.5v285c0 91.333 -41 137 -123 137h-60c-13.333 0.666992 -20 7.66699 -20 21z" />
    <glyph glyph-name="bar" unicode="|" horiz-adv-x="516" 
d="M131 -184v1597c0 13.333 7 20.333 21 21h213c13.333 0 20 -7 20 -21v-1597c0 -13.333 -6.66699 -20.333 -20 -21h-213c-14 0.666992 -21 7.66699 -21 21z" />
    <glyph glyph-name="braceright" unicode="}" horiz-adv-x="794" 
d="M82 -188c0 13.333 6.66699 20.002 20 20.002h60c49.333 0 84.5 14 105.5 42s31.5 71.333 31.5 130v338c0 50.667 9.83301 88.667 29.5 114s52.834 44.666 99.501 57.999c-46.667 13.333 -79.834 32.666 -99.501 57.999s-29.5 63.333 -29.5 114v338
c0 58.667 -10.5 102 -31.5 130s-56.167 42 -105.5 42h-60c-13.333 0 -20 7 -20 21v196c0 13.333 6.66699 20.333 20 21h97c121.333 0 210.666 -28.667 267.999 -86s86 -155 86 -293v-285c0 -91.333 41 -137 123 -137h59c13.333 0 20.333 -7 21 -21v-196
c0 -13.333 -7 -20.333 -21 -21h-59c-82 0 -123 -45.667 -123 -137v-285c0 -138 -28.667 -235.667 -86 -293s-146.666 -86 -267.999 -86h-97c-13.333 0 -20 7 -20 21v197z" />
    <glyph glyph-name="asciitilde" unicode="~" horiz-adv-x="1112" 
d="M78 752c0 9.33301 6 18.001 18 26.001c30 23.333 69.667 42.166 119 56.499s93 21.5 131 21.5c79.333 0 155.5 -14 228.5 -42s127.833 -42 164.5 -42c53.333 0 105.333 17 156 51c5.33301 2.66699 10 4 14 4c6.66699 0 13.667 -5.33301 21 -16l98 -168
c1.33301 -2.66699 2 -5.33398 2 -8.00098c0 -9.33301 -6 -18.333 -18 -27c-30 -23.333 -69.667 -42.166 -119 -56.499s-93 -21.5 -131 -21.5c-79.333 0 -155.5 14 -228.5 42s-127.833 42 -164.5 42c-53.333 0 -105.333 -17 -156 -51c-5.33301 -2.66699 -10 -4 -14 -4
c-6.66699 0 -13.667 5.33301 -21 16l-98 168c-1.33301 3.33301 -2 6.33301 -2 9z" />
    <glyph glyph-name="uni00A0" unicode="&#xa0;" horiz-adv-x="522" 
 />
    <glyph glyph-name="exclamdown" unicode="&#xa1;" horiz-adv-x="618" 
d="M170 770v238c0 13.333 6.66699 20 20 20h238c13.333 0 20.333 -6.66699 21 -20v-238c0 -13.333 -7 -20 -21 -20h-238c-13.333 0 -20 6.66699 -20 20zM182 -385v997c0 13.333 7 20.333 21 21h213c13.333 0 20 -7 20 -21v-997c0 -13.333 -6.66699 -20.333 -20 -21h-213
c-14 0.666992 -21 7.66699 -21 21z" />
    <glyph glyph-name="cent" unicode="&#xa2;" horiz-adv-x="1161" 
d="M74 717c0 135.333 37.501 249.332 112.501 341.999s173.167 152 294.5 178v176c0 13.333 7 20.333 21 21h196c13.333 0 20.333 -7 21 -21v-176c102.667 -19.333 187 -61.333 253 -126s106 -140 120 -226c1.33301 -5.33301 2 -12.166 2 -20.499s-5 -12.5 -15 -12.5h-200
c-15.333 0 -25 6 -29 18c-24.667 65.333 -68.334 111.333 -131.001 138v-584c62.667 24.667 106.334 71 131.001 139c4 12 13.667 18.333 29 19h200c9.33301 0 14.166 -4.16699 14.499 -12.5s-0.166992 -15.166 -1.5 -20.499c-13.333 -87.333 -53.333 -163.5 -120 -228.5
s-151 -106.833 -253 -125.5v-175c0 -13.333 -7 -20 -21 -20h-196c-13.333 0 -20.333 6.66699 -21 20v175c-121.333 26 -219.5 85.667 -294.5 179s-112.5 207.666 -112.5 342.999zM328.001 716.999c0 -70.667 13.668 -131.667 41.001 -183s64.666 -88 111.999 -110v584
c-102 -49.333 -153 -146.333 -153 -291z" />
    <glyph glyph-name="sterling" unicode="&#xa3;" horiz-adv-x="1204" 
d="M66 602v196.999c0 13.333 6.66699 20 20 20h109c-23.333 75.333 -35 146.333 -35 213c0 122.667 42.667 223.667 128 303s191.333 119 318 119c151.333 0 268.666 -40 351.999 -120s125 -183.333 125 -310c0 -13.333 -6.66699 -20 -20 -20h-213c-12 0 -19 6.66699 -21 20
c-19.333 128.667 -93.666 193 -222.999 193c-52 0 -97 -16.833 -135 -50.5s-57 -78.5 -57 -134.5c0 -69.333 14.333 -140.333 43 -213h401c13.333 0 20.333 -6.66699 21 -20v-197c0 -13.333 -7 -20 -21 -20h-352c2.66699 -19.333 4 -33.666 4 -42.999
c0 -104 -41 -204.333 -123 -301h715c13.333 0 20 -7 20 -21v-197c0 -13.333 -6.66699 -20 -20 -20h-971c-13.333 0 -20 6.66699 -20 20v181c0 15.333 5.33301 29 16 41c86 98 129 199.667 129 305c0 15.333 -0.666992 27 -2 35h-168c-13.333 0 -20 6.66699 -20 20z" />
    <glyph glyph-name="currency" unicode="&#xa4;" horiz-adv-x="1105" 
d="M86 201c-9.33301 9.33301 -9.33301 18.666 0 27.999l107 107c-35.333 62.667 -53.166 130.167 -53.499 202.5s17.5 139.833 53.5 202.5l-107 107c-9.33301 9.33301 -9.33301 19 0 29l129 129c9.33301 9.33301 19 9.33301 29 0l114 -113c57.333 28.667 122.333 43 195 43
s137.667 -14.333 195 -43l114 113c9.33301 9.33301 19 9.33301 29 0l129 -129c9.33301 -9.33301 9.33301 -19 0 -29l-107 -107c35.333 -62.667 53.166 -130.167 53.499 -202.5s-17.5 -139.833 -53.5 -202.5l107 -107c9.33301 -9.33301 9.33301 -18.666 0 -27.999l-129 -129
c-9.33301 -9.33301 -19 -9.33301 -29 0l-114 112c-57.333 -28.667 -122.333 -43 -195 -43s-137.667 14.333 -195 43l-114 -112c-9.33301 -9.33301 -19 -9.33301 -29 0zM362 539c0 -57.333 17.833 -103.5 53.5 -138.5s81.5 -52.5 137.5 -52.5s101.667 17.5 137 52.5
s53 81.167 53 138.5s-17.667 103.333 -53 138s-81 52 -137 52s-101.833 -17.333 -137.5 -52s-53.5 -80.667 -53.5 -138z" />
    <glyph glyph-name="yen" unicode="&#xa5;" horiz-adv-x="1118" 
d="M-12 1421c0 8 4.66699 12.332 14 12.999h240c13.333 0 22 -5.66699 26 -17l291 -645l291 645c4 10.667 13 16.334 27 17.001h239c9.33301 0 14 -4.33301 14 -13c0 -2.66699 -0.666992 -5.33398 -2 -8.00098l-340 -696h248c13.333 0 20.333 -7 21 -21v-180
c0 -13.333 -7 -20 -21 -20h-348v-76h307c13.333 0 20.333 -7 21 -21v-180c0 -13.333 -7 -20 -21 -20h-307v-179c0 -13.333 -6.66699 -20 -20 -20h-217c-13.333 0 -20.333 6.66699 -21 20v179h-291c-13.333 0 -20 6.66699 -20 20v180c0 13.333 6.66699 20.333 20 21h291v76
h-332c-13.333 0 -20 6.66699 -20 20v180c0 13.333 6.66699 20.333 20 21h230l-338 696c-1.33301 2.66699 -2 5.33398 -2 8.00098z" />
    <glyph glyph-name="brokenbar" unicode="&#xa6;" horiz-adv-x="516" 
d="M131 -385v770c0 13.333 7 20.333 21 21h213c13.333 0 20 -7 20 -21v-770c0 -13.333 -6.66699 -20.333 -20 -21h-213c-14 0.666992 -21 7.66699 -21 21zM131 643v770c0 13.333 7 20.333 21 21h213c13.333 0 20 -7 20 -21v-770c0 -13.333 -6.66699 -20 -20 -20h-213
c-14 0 -21 6.66699 -21 20z" />
    <glyph glyph-name="section" unicode="&#xa7;" horiz-adv-x="1030" 
d="M68 -20c0 13.333 6.66797 19.999 20.001 19.999h209c12 0 18.667 -6.66699 20 -20c6.66699 -54.667 27.834 -96.334 63.501 -125.001s79.5 -43 131.5 -43c53.333 0 96 13.167 128 39.5s48 66.166 48 119.499c0 44 -18 83 -54 117s-98.667 75 -188 123
c-146 79.333 -243.833 144.5 -293.5 195.5s-74.5 123.167 -74.5 216.5c0 68 31.333 135.333 94 202c-40.667 44 -66.834 86.5 -78.501 127.5s-17.5 88.167 -17.5 141.5c0 109.333 41 196.666 123 261.999s181.667 98 299 98c136.667 0 244.834 -40 324.501 -120
s119.5 -175 119.5 -285c0 -13.333 -6.66699 -20.333 -20 -21h-209c-12 0 -19 7 -21 21c-6.66699 54.667 -27.834 96.334 -63.501 125.001s-79.167 43 -130.5 43c-53.333 0 -96 -13.333 -128 -40s-48 -66.667 -48 -120c0 -44 18 -83 54 -117s98.333 -75 187 -123
c146 -79.333 244 -144.5 294 -195.5s75 -122.833 75 -215.5c0 -69.333 -32 -137.666 -96 -204.999c40.667 -44 67.167 -86.167 79.5 -126.5s18.5 -87.166 18.5 -140.499c0 -109.333 -41 -196.666 -123 -261.999s-181.667 -98 -299 -98c-136.667 0 -244.834 40 -324.501 120
s-119.5 175.333 -119.5 286zM332.001 599.999c0 -30 17.334 -60 52.001 -90s117.667 -82 249 -156c30 23.333 45 48 45 74c0 30 -17.833 60 -53.5 90s-118.834 82 -249.501 156c-28.667 -23.333 -43 -48 -43 -74z" />
    <glyph glyph-name="dieresis" unicode="&#xa8;" horiz-adv-x="872" 
d="M123 1192v221c0 13.333 6.66699 20.333 20 21h222c13.333 0 20 -7 20 -21v-221c0 -13.333 -6.66699 -20.333 -20 -21h-222c-13.333 0.666992 -20 7.66699 -20 21zM487 1192v221c0 13.333 7 20.333 21 21h221c13.333 0 20.333 -7 21 -21v-221
c0 -13.333 -7 -20.333 -21 -21h-221c-14 0.666992 -21 7.66699 -21 21z" />
    <glyph glyph-name="copyright" unicode="&#xa9;" horiz-adv-x="1638" 
d="M106 717c0 113.333 20.833 217.833 62.5 313.5s96.334 173.5 164.001 233.5s143.5 106.667 227.5 140s170.333 50 259 50s175 -16.667 259 -50s159.833 -80 227.5 -140s122.334 -137.833 164.001 -233.5s62.5 -200.167 62.5 -313.5s-20.833 -217.833 -62.5 -313.5
s-96.334 -173.5 -164.001 -233.5s-143.5 -106.667 -227.5 -140s-170.333 -50 -259 -50s-175 16.667 -259 50s-159.833 80 -227.5 140s-122.334 137.833 -164.001 233.5s-62.5 200.167 -62.5 313.5zM205 717c0 -138 30.667 -257.833 92 -359.5s137.5 -175.667 228.5 -222
s189 -69.5 294 -69.5s202.833 23.167 293.5 69.5s166.834 120.333 228.501 222s92.5 221.5 92.5 359.5s-30.833 257.833 -92.5 359.5s-137.834 175.667 -228.501 222s-188.5 69.5 -293.5 69.5s-203 -23.167 -294 -69.5s-167.167 -120.333 -228.5 -222s-92 -221.5 -92 -359.5
zM389 717c0 150 42.667 267.001 128 351.001s186 126 302 126c105.333 0 194.833 -27.667 268.5 -83s119.5 -129.333 137.5 -222c0 -13.333 -7.66699 -20.333 -23 -21h-49c-15.333 0 -25 7 -29 21c-16.667 65.333 -51.5 118.166 -104.5 158.499s-119.833 60.5 -200.5 60.5
c-90 0 -167.833 -34.833 -233.5 -104.5s-98.5 -165.167 -98.5 -286.5s32.833 -216.833 98.5 -286.5s143.5 -104.5 233.5 -104.5c80.667 0 147.667 20 201 60s88 93 104 159c4 13.333 13.667 20 29 20h49c15.333 0 23 -6.66699 23 -20
c-18 -92.667 -63.833 -166.667 -137.5 -222s-163.167 -83 -268.5 -83c-116 0 -216.667 42 -302 126s-128 201 -128 351z" />
    <glyph glyph-name="ordfeminine" unicode="&#xaa;" horiz-adv-x="946" 
d="M74 1053c0 120 34.8311 216.167 104.498 288.5s154.834 108.5 255.501 108.5c83.333 0 154.333 -22 213 -66v35c0 9.33301 5 14.333 15 15h155c9.33301 0 14 -5 14 -15v-735c0 -9.33301 -4.66699 -14 -14 -14h-155c-9.33301 0 -14.333 4.66699 -15 14v37
c-56 -44 -127 -66 -213 -66c-101.333 0 -186.666 36 -255.999 108s-104 168.667 -104 290zM265.998 1052.5c0 -68.333 17.833 -124.333 53.5 -168s83.5 -65.5 143.5 -65.5s107.667 21.833 143 65.5s53 99.667 53 168s-17.667 124 -53 167s-83 64.5 -143 64.5
s-107.833 -21.5 -143.5 -64.5s-53.5 -98.667 -53.5 -167z" />
    <glyph glyph-name="guillemotleft" unicode="&#xab;" horiz-adv-x="1126" 
d="M74 492v139c0 12 6.66699 24.333 20 37l479 413c4 4 8.33301 6 13 6c8 0 12 -4.66699 12 -14v-229c0 -13.333 -4.66699 -24.333 -14 -33l-279 -250l279 -250c9.33301 -8 14 -18.667 14 -32v-230c0 -9.33301 -4 -14 -12 -14c-4 0 -8.33301 2 -13 6l-479 414
c-13.333 12.667 -20 25 -20 37zM510 492v139c0 12 6.66699 24.333 20 37l480 413c4 4 8 6 12 6c8 0 12 -4.66699 12 -14v-229c0 -13.333 -4.66699 -24.333 -14 -33l-279 -250l279 -250c9.33301 -8 14 -18.667 14 -32v-230c0 -9.33301 -4 -14 -12 -14c-4 0 -8 2 -12 6
l-480 414c-13.333 12.667 -20 25 -20 37z" />
    <glyph glyph-name="logicalnot" unicode="&#xac;" horiz-adv-x="1142" 
d="M106 647v180c0 13.333 7 20.333 21 21h864c13.333 0 20.333 -7 21 -21v-446c0 -13.333 -7 -20.333 -21 -21h-205c-13.333 0 -20 7 -20 21v246h-639c-14 0 -21 6.66699 -21 20z" />
    <glyph glyph-name="uni00AD" unicode="&#xad;" horiz-adv-x="1052" 
d="M104 606v189c0 13.333 7 20 21 20h803c13.333 0 20 -6.66699 20 -20v-189c0 -13.333 -6.66699 -20 -20 -20h-803c-14 0 -21 6.66699 -21 20z" />
    <glyph glyph-name="registered" unicode="&#xae;" horiz-adv-x="1638" 
d="M106 717c0 113.333 20.833 217.833 62.5 313.5s96.334 173.5 164.001 233.5s143.5 106.667 227.5 140s170.333 50 259 50s175 -16.667 259 -50s159.833 -80 227.5 -140s122.334 -137.833 164.001 -233.5s62.5 -200.167 62.5 -313.5s-20.833 -217.833 -62.5 -313.5
s-96.334 -173.5 -164.001 -233.5s-143.5 -106.667 -227.5 -140s-170.333 -50 -259 -50s-175 16.667 -259 50s-159.833 80 -227.5 140s-122.334 137.833 -164.001 233.5s-62.5 200.167 -62.5 313.5zM205 717c0 -138 30.667 -257.833 92 -359.5s137.5 -175.667 228.5 -222
s189 -69.5 294 -69.5s202.833 23.167 293.5 69.5s166.834 120.333 228.501 222s92.5 221.5 92.5 359.5s-30.833 257.833 -92.5 359.5s-137.834 175.667 -228.501 222s-188.5 69.5 -293.5 69.5s-203 -23.167 -294 -69.5s-167.167 -120.333 -228.5 -222s-92 -221.5 -92 -359.5
zM537 272l-0.000976562 893.001c0 15.333 7.33301 23 22 23h279c96.667 0 170.334 -23.5 221.001 -70.5s76 -110.167 76 -189.5c0 -62.667 -17.167 -116.334 -51.5 -161.001s-80.166 -75 -137.499 -91l201 -404c2.66699 -5.33301 4 -10 4 -14c0 -5.33301 -4 -8 -12 -8h-58
c-16.667 0 -27.334 6 -32.001 18l-201 396h-213v-392c0 -15.333 -7.66699 -22.666 -23 -21.999h-53c-14.667 -0.666992 -22 6.66602 -22 21.999zM634.999 750.001h217c122.667 0 184 59.333 184 178c0 116 -61.333 174 -184 174h-217v-352z" />
    <glyph glyph-name="macron" unicode="&#xaf;" horiz-adv-x="610" 
d="M63 1200v184c0 13.333 7 20.333 21 21h442c13.333 0 20.333 -7 21 -21v-184c0 -13.333 -7 -20 -21 -20h-442c-14 0 -21 6.66699 -21 20z" />
    <glyph glyph-name="degree" unicode="&#xb0;" horiz-adv-x="921" 
d="M80 1083.5c0 109 35.833 198 107.5 267s162.834 103.5 273.501 103.5s201.834 -34.5 273.501 -103.5s107.5 -158 107.5 -267s-35.833 -198 -107.5 -267s-162.834 -103.5 -273.501 -103.5s-201.834 34.5 -273.501 103.5s-107.5 158 -107.5 267zM287 1083
c0 -56 16 -100.333 48 -133s74 -49 126 -49s94.333 16.333 127 49s49 77 49 133s-16.333 100.5 -49 133.5s-75 49.5 -127 49.5s-94 -16.5 -126 -49.5s-48 -77.5 -48 -133.5z" />
    <glyph glyph-name="plusminus" unicode="&#xb1;" horiz-adv-x="1171" 
d="M104 20v189c0 13.333 7 20 21 20h922c13.333 0 20 -6.66699 20 -20v-189c0 -13.333 -6.66699 -20 -20 -20h-922c-14 0 -21 6.66699 -21 20zM104 688v189c0 13.333 7 20 21 20h346v346c0 13.333 7 20.333 21 21h188c13.333 0 20 -7 20 -21v-346h347
c13.333 0 20 -6.66699 20 -20v-189c0 -13.333 -6.66699 -20 -20 -20h-347v-346c0 -13.333 -6.66699 -20.333 -20 -21h-188c-13.333 0 -20.333 7 -21 21v346h-346c-14 0 -21 6.66699 -21 20z" />
    <glyph glyph-name="twosuperior" unicode="&#xb2;" horiz-adv-x="724" 
d="M84 688l-0.000976562 94.001c0 12 4 21.667 12 29l318 254c42 35.333 63 77.666 63 126.999c0 26 -9.16699 47.5 -27.5 64.5s-43.166 25.5 -74.499 25.5c-28.667 0 -54 -8.5 -76 -25.5s-35.667 -40.5 -41 -70.5c-1.33301 -13.333 -8 -20.333 -20 -21h-127
c-13.333 0 -20.333 7 -21 21c2.66699 70.667 30.667 131.667 84 183s120.333 77 201 77c79.333 0 143.833 -22.833 193.5 -68.5s74.5 -98.667 74.5 -159s-9.16699 -107.5 -27.5 -141.5s-50.833 -70.667 -97.5 -110l-162 -136h283c13.333 0 20 -6.66699 20 -20v-123
c0 -13.333 -6.66699 -20 -20 -20h-535c-13.333 0 -20 6.66699 -20 20z" />
    <glyph glyph-name="threesuperior" unicode="&#xb3;" horiz-adv-x="729" 
d="M74 903c0 13.333 6.66699 20.332 20 20.999h137c9.33301 0 16.333 -7 21 -21c16.667 -56 55 -84 115 -84c30 0 53.167 7.5 69.5 22.5s24.5 35.5 24.5 61.5c0 57.333 -34.333 86 -103 86h-75c-13.333 0 -20.333 7 -21 21v118c0 13.333 7 20.333 21 21h59
c61.333 0 92 26 92 78c0 42 -26 63 -78 63c-46.667 0 -78.667 -24.333 -96 -73c-4 -10.667 -10.667 -16.334 -20 -17.001h-125c-13.333 0 -20.333 6.33301 -21 19c4 66.667 30.333 121.167 79 163.5s109.667 63.5 183 63.5c76.667 0 137.5 -20.167 182.5 -60.5
s67.5 -91.166 67.5 -152.499c0 -64 -26.667 -114.667 -80 -152c75.333 -38 113 -96 113 -174c0 -83.333 -26.333 -146.166 -79 -188.499s-120 -63.5 -202 -63.5c-79.333 0 -146.5 24.333 -201.5 73s-82.5 107 -82.5 175z" />
    <glyph glyph-name="acute" unicode="&#xb4;" horiz-adv-x="776" 
d="M166 1155l141 257.999c8 13.333 18.333 20.333 31 21h260c6.66699 0 11 -2.16699 13 -6.5s1 -9.16602 -3 -14.499l-211 -260c-10.667 -12 -23 -18 -37 -18h-184c-14.667 0 -18 6.66699 -10 20z" />
    <glyph glyph-name="mu" unicode="&#xb5;" 
d="M119 -385v1393c0 13.333 6.66699 20 20 20h205c13.333 0 20.333 -6.66699 21 -20v-594c0 -142 58.667 -213 176 -213c70.667 0 129.167 28.333 175.5 85s69.5 142.334 69.5 257.001v465c0 13.333 7 20 21 20h205c13.333 0 20 -6.66699 20 -20v-988
c0 -13.333 -6.66699 -20 -20 -20h-205c-13.333 0 -20.333 6.66699 -21 20v74c-92.667 -76.667 -195.667 -114.667 -309 -114c-34 0 -71.333 4.66699 -112 14v-379c0 -13.333 -7 -20.333 -21 -21h-205c-13.333 0.666992 -20 7.66699 -20 21z" />
    <glyph glyph-name="mu" unicode="&#x3bc;" 
d="M119 -385v1393c0 13.333 6.66699 20 20 20h205c13.333 0 20.333 -6.66699 21 -20v-594c0 -142 58.667 -213 176 -213c70.667 0 129.167 28.333 175.5 85s69.5 142.334 69.5 257.001v465c0 13.333 7 20 21 20h205c13.333 0 20 -6.66699 20 -20v-988
c0 -13.333 -6.66699 -20 -20 -20h-205c-13.333 0 -20.333 6.66699 -21 20v74c-92.667 -76.667 -195.667 -114.667 -309 -114c-34 0 -71.333 4.66699 -112 14v-379c0 -13.333 -7 -20.333 -21 -21h-205c-13.333 0.666992 -20 7.66699 -20 21z" />
    <glyph glyph-name="paragraph" unicode="&#xb6;" horiz-adv-x="1298" 
d="M33 1040.5c0 125.667 41.666 222.667 124.999 291s196 102.5 338 102.5h745c13.333 0 20.333 -7 21 -21v-196c0 -13.333 -7 -20.333 -21 -21h-119v-1380c0 -13.333 -6.66699 -20.333 -20 -21h-197c-13.333 0 -20 7 -20 21v1380h-133v-1380c0 -13.333 -7 -20.333 -21 -21
h-196c-13.333 0 -20.333 7 -21 21v817h-25c-143.333 0 -255.166 36.5 -335.499 109.5s-120.5 172.333 -120.5 298z" />
    <glyph glyph-name="periodcentered" unicode="&#xb7;" horiz-adv-x="593" 
d="M164 618v222c0 13.333 6.66699 20 20 20h222c13.333 0 20 -6.66699 20 -20v-222c0 -13.333 -6.66699 -20 -20 -20h-222c-13.333 0 -20 6.66699 -20 20z" />
    <glyph glyph-name="cedilla" unicode="&#xb8;" horiz-adv-x="557" 
d="M55 -295c0 13.333 6.99902 20.332 20.999 20.999c1.33301 0 22.5 -4.5 63.5 -13.5s84.5 -13.5 130.5 -13.5c48 0 72 13.667 72 41c0 24.667 -17 37 -51 37c-31.333 0 -71.666 -6.33301 -120.999 -19c-5.33301 -1.33301 -10 -2 -14 -2c-5.33301 0 -10.333 2 -15 6l-47 45
c-4 4 -6 9 -6 15c0 4 0.666992 8 2 12l64 223c4 13.333 10.667 20.333 20 21h131c18 0 23.667 -7 17 -21l-82 -166c34 9.33301 68.667 14.333 104 15c61.333 0 108 -14.667 140 -44s48 -68.666 48 -117.999c0 -113.333 -78.333 -170 -235 -170
c-90 0 -163.667 6.66699 -221 20c-13.333 4 -20.333 11 -21 21v90z" />
    <glyph glyph-name="onesuperior" unicode="&#xb9;" horiz-adv-x="454" 
d="M35 1151v149c0 8 4.66699 15 14 21l176 104c10.667 5.33301 21 8.33301 31 9h78c13.333 0 20 -7 20 -21v-725c0 -13.333 -6.66699 -20 -20 -20h-127c-13.333 0 -20.333 6.66699 -21 20v520l-116 -67c-8 -4 -14.333 -6 -19 -6c-10.667 0 -16 5.33301 -16 16z" />
    <glyph glyph-name="ordmasculine" unicode="&#xba;" horiz-adv-x="946" 
d="M61 1053c0 116 39 211.833 117 287.5s175.667 113.5 293 113.5c118.667 0 217 -37.833 295 -113.5s117 -171.5 117 -287.5s-39 -211.667 -117 -287s-176.333 -113 -295 -113c-117.333 0 -215 37.667 -293 113s-117 171 -117 287zM256 1052.5c0 -71 19.833 -128 59.5 -171
s91.5 -64.5 155.5 -64.5s115.833 21.5 155.5 64.5s59.5 100 59.5 171s-19.833 128 -59.5 171s-91.5 64.5 -155.5 64.5s-115.833 -21.5 -155.5 -64.5s-59.5 -100 -59.5 -171z" />
    <glyph glyph-name="guillemotright" unicode="&#xbb;" horiz-adv-x="1126" 
d="M92 49v230c0 13.333 4.66699 24 14 32l279 250l-279 250c-9.33301 8 -14 19 -14 33v229c0 9.33301 4 14 12 14c4 0 8.33301 -2 13 -6l479 -413c13.333 -12 20 -24.333 20 -37v-139c0 -12 -6.66699 -24.333 -20 -37l-479 -414c-4 -4 -8.33301 -6 -13 -6
c-8 0 -12 4.66699 -12 14zM528 49v230c0 13.333 5 24 15 32l278 250l-278 250c-9.33301 8 -14.333 19 -15 33v229c0 9.33301 4.33301 14 13 14c4 0 8 -2 12 -6l479 -413c13.333 -12 20.333 -24.333 21 -37v-139c0 -12 -7 -24.333 -21 -37l-479 -414c-4 -4 -8 -6 -12 -6
c-8.66699 0 -13 4.66699 -13 14z" />
    <glyph glyph-name="onequarter" unicode="&#xbc;" horiz-adv-x="1642" 
d="M121 1151v149c0 8 4.66699 15 14 21l176 104c10.667 5.33301 21 8.33301 31 9h78c13.333 0 20 -7 20 -21v-725c0 -13.333 -6.66699 -20 -20 -20h-127c-13.333 0 -20.333 6.66699 -21 20v520l-116 -67c-8 -4 -14.333 -6 -19 -6c-10.667 0 -16 5.33301 -16 16zM215 117
l1145 1310c8 10.667 17.667 10.667 29 0l90 -81c9.33301 -9.33301 10.666 -19 3.99902 -29l-1145 -1311c-8 -10.667 -17.667 -10.667 -29 0l-90 82c-9.33301 10 -10.666 19.667 -3.99902 29zM874 133v113c0 8 3 16 9 24l346 482c6.66699 9.33301 14 14 22 14h113
c13.333 0 20 -7 20 -21v-464h105c13.333 0 20 -7 20 -21v-127c0 -13.333 -6.66699 -20 -20 -20h-105v-93c0 -13.333 -6.66699 -20 -20 -20h-123c-13.333 0 -20 6.66699 -20 20v93h-326c-14 0 -21 6.66699 -21 20zM1075 281h146v206z" />
    <glyph glyph-name="onehalf" unicode="&#xbd;" horiz-adv-x="1789" 
d="M121 1151v149c0 8 4.66699 15 14 21l176 104c10.667 5.33301 21 8.33301 31 9h78c13.333 0 20 -7 20 -21v-725c0 -13.333 -6.66699 -20 -20 -20h-127c-13.333 0 -20.333 6.66699 -21 20v520l-116 -67c-8 -4 -14.333 -6 -19 -6c-10.667 0 -16 5.33301 -16 16zM215 117
l1145 1310c8 10.667 17.667 10.667 29 0l90 -81c9.33301 -9.33301 10.666 -19 3.99902 -29l-1145 -1311c-8 -10.667 -17.667 -10.667 -29 0l-90 82c-9.33301 10 -10.666 19.667 -3.99902 29zM1087 20l0.000976562 95c0 12 4.33301 21.333 13 28l317 254
c42 35.333 63.333 77.666 64 126.999c0 26 -9.33301 47.5 -28 64.5s-43.667 25.5 -75 25.5c-28.667 0 -53.834 -8.5 -75.501 -25.5s-35.167 -40.5 -40.5 -70.5c-1.33301 -13.333 -8.33301 -20 -21 -20h-127c-13.333 0 -20 6.66699 -20 20
c2.66699 70.667 30.5 131.667 83.5 183s119.833 77 200.5 77c79.333 0 144 -22.833 194 -68.5s75 -98.5 75 -158.5s-9.33301 -107.167 -28 -141.5s-51 -71.166 -97 -110.499l-162 -135h282c13.333 0 20.333 -7 21 -21v-123c0 -13.333 -7 -20 -21 -20h-534
c-14 0 -21 6.66699 -21 20z" />
    <glyph glyph-name="threequarters" unicode="&#xbe;" horiz-adv-x="1679" 
d="M92 903c0 13.333 7 20.332 21 20.999h137c9.33301 0 16 -7 20 -21c16.667 -56 55 -84 115 -84c30 0 53.167 7.5 69.5 22.5s24.5 35.5 24.5 61.5c0 57.333 -34 86 -102 86h-76c-13.333 0 -20 7 -20 21v118c0 13.333 6.66699 20.333 20 21h59c61.333 0 92.333 26 93 78
c0 42 -26 63 -78 63c-46.667 0 -78.667 -24.333 -96 -73c-4 -10.667 -11 -16.334 -21 -17.001h-125c-13.333 0 -20 6.33301 -20 19c4 66.667 30.167 121.167 78.5 163.5s109.5 63.5 183.5 63.5c76.667 0 137.5 -20.167 182.5 -60.5s67.5 -91.166 67.5 -152.499
c0 -64 -26.667 -114.667 -80 -152c75.333 -38 112.666 -96 111.999 -174c0 -83.333 -26.167 -146.166 -78.5 -188.499s-119.5 -63.5 -201.5 -63.5c-79.333 0 -146.666 24.333 -201.999 73s-83 107 -83 175zM281 116.999l1144 1310c8 10.667 17.667 10.667 29 0l90 -81
c9.33301 -9.33301 10.666 -19 3.99902 -29l-1145 -1311c-8 -10.667 -17.333 -10.667 -28 0l-90 82c-9.33301 10 -10.666 19.667 -3.99902 29zM940 132.999l-0.000976562 113c0 8 2.66699 16 8 24l346 482c6.66699 9.33301 14.334 14 23.001 14h113c13.333 0 20 -7 20 -21
v-464h104c13.333 0 20.333 -7 21 -21v-127c0 -13.333 -7 -20 -21 -20h-104v-93c0 -13.333 -6.66699 -20 -20 -20h-123c-13.333 0 -20.333 6.66699 -21 20v93h-325c-14 0 -21 6.66699 -21 20zM1141 280.999h145v206z" />
    <glyph glyph-name="questiondown" unicode="&#xbf;" 
d="M111 -63c0 66.667 11.166 124.498 33.499 173.498s49.833 88.833 82.5 119.5l99 88c32.667 28 60.167 62.167 82.5 102.5s33.5 87.166 33.5 140.499v51c0 13.333 7 20.333 21 21h213c13.333 0 20 -7 20 -21v-51c0 -68 -11.167 -128.333 -33.5 -181s-50 -95 -83 -127
s-65.833 -61.667 -98.5 -89s-60.167 -56.666 -82.5 -87.999s-33.5 -65.666 -33.5 -102.999c0 -44 16.333 -81.167 49 -111.5s77 -45.5 133 -45.5c60 0 111.5 16.333 154.5 49s71.167 80.334 84.5 143.001c4 13.333 11 20.333 21 21h209c13.333 0 20 -7 20 -21
c-4 -116 -49.667 -217.333 -137 -304s-202.666 -130 -345.999 -130c-134 0 -241.167 34.5 -321.5 103.5s-120.5 155.5 -120.5 259.5zM429.999 769.998v238c0 13.333 7 20 21 20h237c13.333 0 20.333 -6.66699 21 -20v-238c0 -13.333 -7 -20 -21 -20h-237
c-14 0 -21 6.66699 -21 20z" />
    <glyph glyph-name="Agrave" unicode="&#xc0;" horiz-adv-x="1282" 
d="M-6 20c0 4 0.666992 8.33301 2 13l504 1380c4 13.333 10.667 20.333 20 21h242c9.33301 0 16 -7 20 -21l504 -1380c1.33301 -4 2 -8.33301 2 -13c0 -13.333 -7.33301 -20 -22 -20h-224c-12 0 -20 6.66699 -24 20l-123 359h-508l-123 -359c-4 -13.333 -12 -20 -24 -20
h-224c-14.667 0 -22 6.66699 -22 20zM310 1833c2 4 6.66602 6 13.999 6h260c12 0 22 -6.66699 30 -20l142 -258c8 -13.333 4.33301 -20.333 -11 -21h-184c-13.333 0 -25.666 6.33301 -36.999 19l-211 260c-4 5.33301 -5 10 -3 14zM468.999 616h344l-172 500z" />
    <glyph glyph-name="Aacute" unicode="&#xc1;" horiz-adv-x="1282" 
d="M-6 20c0 4 0.666992 8.33301 2 13l504 1380c4 13.333 10.667 20.333 20 21h242c9.33301 0 16 -7 20 -21l504 -1380c1.33301 -4 2 -8.33301 2 -13c0 -13.333 -7.33301 -20 -22 -20h-224c-12 0 -20 6.66699 -24 20l-123 359h-508l-123 -359c-4 -13.333 -12 -20 -24 -20
h-224c-14.667 0 -22 6.66699 -22 20zM469 616h344l-172 500zM502 1561l141 258c8 13.333 18.333 20 31 20h260c6.66699 0 11 -2 13 -6s1 -8.66699 -3 -14l-211 -260c-10.667 -12 -23 -18.333 -37 -19h-184c-14.667 0.666992 -18 7.66699 -10 21z" />
    <glyph glyph-name="Acircumflex" unicode="&#xc2;" horiz-adv-x="1282" 
d="M-6 20c0 4 0.666992 8.33301 2 13l504 1380c4 13.333 10.667 20.333 20 21h242c9.33301 0 16 -7 20 -21l504 -1380c1.33301 -4 2 -8.33301 2 -13c0 -13.333 -7.33301 -20 -22 -20h-224c-12 0 -20 6.66699 -24 20l-123 359h-508l-123 -359c-4 -13.333 -12 -20 -24 -20
h-224c-14.667 0 -22 6.66699 -22 20zM302 1517.5c-2 4.33301 -0.999023 9.16602 3.00098 14.499l221 291c9.33301 10.667 19.666 16 30.999 16h168c10.667 0 21 -5.33301 31 -16l221 -291c4 -5.33301 5 -10.166 3 -14.499s-6.33301 -6.5 -13 -6.5h-193
c-12 0 -24.333 6.33301 -37 19l-96 96l-96 -96c-12 -12 -24.333 -18.333 -37 -19h-193c-6.66699 0 -11 2.16699 -13 6.5zM469.001 616h344l-172 500z" />
    <glyph glyph-name="Atilde" unicode="&#xc3;" horiz-adv-x="1282" 
d="M-6 20c0 4 0.666992 8.33301 2 13l504 1380c4 13.333 10.667 20.333 20 21h242c9.33301 0 16 -7 20 -21l504 -1380c1.33301 -4 2 -8.33301 2 -13c0 -13.333 -7.33301 -20 -22 -20h-224c-12 0 -20 6.66699 -24 20l-123 359h-508l-123 -359c-4 -13.333 -12 -20 -24 -20
h-224c-14.667 0 -22 6.66699 -22 20zM246 1749c0 5.33301 4.00098 11.333 12.001 18c86 66.667 165.333 100.334 238 101.001c57.333 0 110.5 -13.333 159.5 -40s89.833 -40 122.5 -40c36.667 0 80.334 16.333 131.001 49c5.33301 4 11 6 17 6
c6.66699 0 13.334 -5.33301 20.001 -16l88 -121c2.66699 -4 4 -8.83301 4 -14.5s-4 -11.834 -12 -18.501c-86 -66.667 -165.333 -100 -238 -100c-57.333 0 -110.5 13.333 -159.5 40s-89.833 40 -122.5 40c-36.667 0 -80.334 -16.333 -131.001 -49
c-6.66699 -4 -12.334 -6.33301 -17.001 -7c-6.66699 0 -13.334 5.66699 -20.001 17l-88 121c-2.66699 4 -4 8.66699 -4 14zM469.001 616h344l-172 500z" />
    <glyph glyph-name="Adieresis" unicode="&#xc4;" horiz-adv-x="1282" 
d="M-6 20c0 4 0.666992 8.33301 2 13l504 1380c4 13.333 10.667 20.333 20 21h242c9.33301 0 16 -7 20 -21l504 -1380c1.33301 -4 2 -8.33301 2 -13c0 -13.333 -7.33301 -20 -22 -20h-224c-12 0 -20 6.66699 -24 20l-123 359h-508l-123 -359c-4 -13.333 -12 -20 -24 -20
h-224c-14.667 0 -22 6.66699 -22 20zM328 1597v222c0 13.333 6.66699 20 20 20h221c13.333 0 20.333 -6.66699 21 -20v-222c0 -13.333 -7 -20 -21 -20h-221c-13.333 0 -20 6.66699 -20 20zM469 616h344l-172 500zM692 1597v222c0 13.333 7 20 21 20h221
c13.333 0 20 -6.66699 20 -20v-222c0 -13.333 -6.66699 -20 -20 -20h-221c-14 0 -21 6.66699 -21 20z" />
    <glyph glyph-name="Aring" unicode="&#xc5;" horiz-adv-x="1282" 
d="M-6 20c0 4 0.666992 8.33301 2 13l504 1380c4 13.333 10.667 20.333 20 21h242c9.33301 0 16 -7 20 -21l504 -1380c1.33301 -4 2 -8.33301 2 -13c0 -13.333 -7.33301 -20 -22 -20h-224c-12 0 -20 6.66699 -24 20l-123 359h-508l-123 -359c-4 -13.333 -12 -20 -24 -20
h-224c-14.667 0 -22 6.66699 -22 20zM430 1679c0 58.667 19.5 106.834 58.5 144.501s89.833 56.5 152.5 56.5s113.5 -18.833 152.5 -56.5s58.5 -85.834 58.5 -144.501s-19.5 -106.667 -58.5 -144s-89.833 -56 -152.5 -56s-113.5 18.667 -152.5 56s-58.5 85.333 -58.5 144z
M469 616h344l-172 500zM569 1679.5c0 -21.667 6.83301 -38.667 20.5 -51s30.834 -18.5 51.501 -18.5s37.834 6.16699 51.501 18.5s20.5 29.333 20.5 51s-6.83301 38.667 -20.5 51s-30.834 18.5 -51.501 18.5s-37.834 -6.16699 -51.501 -18.5s-20.5 -29.333 -20.5 -51z" />
    <glyph glyph-name="AE" unicode="&#xc6;" horiz-adv-x="1792" 
d="M-2 20c0 4 0.667969 8.33301 2.00098 13l555 1380c5.33301 13.333 13.666 20.333 24.999 21h1077c13.333 0 20 -7 20 -21v-196c0 -13.333 -6.66699 -20.333 -20 -21h-639v-324h577c13.333 0 20.333 -6.66699 21 -20v-197c0 -13.333 -7 -20 -21 -20h-577v-397h670
c13.333 0 20 -7 20 -21v-197c0 -13.333 -6.66699 -20 -20 -20h-908c-13.333 0 -20 6.66699 -20 20v357h-357l-139 -357c-4 -13.333 -12 -20 -24 -20h-220c-14.667 0 -22 6.66699 -22 20zM496.001 614h264v582h-37z" />
    <glyph glyph-name="Ccedilla" unicode="&#xc7;" horiz-adv-x="1447" 
d="M78 717c0 124 19.501 234.499 58.501 331.499s90.5 174.167 154.5 231.5s135 100.666 213 129.999s158.333 44 241 44c170.667 0 315.5 -46.333 434.5 -139s187.833 -217.667 206.5 -375c0 -13.333 -7.33301 -20 -22 -20h-207c-12 0 -20 6.66699 -24 20
c-53.333 184 -182.666 276.333 -387.999 277c-108 0 -201.833 -43.833 -281.5 -131.5s-119.5 -210.667 -119.5 -369s40 -281.166 120 -368.499s173.667 -131 281 -131c204.667 0 334 92.333 388 277c4 13.333 12 20 24 20h207c15.333 0 22.666 -6.66699 21.999 -20
c-19.333 -154 -86.833 -277.5 -202.5 -370.5s-256.834 -140.833 -423.501 -143.5l-43 -89c32.667 9.33301 67.334 14.333 104.001 15c61.333 0 108.166 -14.667 140.499 -44s48.5 -68.666 48.5 -117.999c0 -113.333 -78.667 -170 -236 -170c-90 0 -163.667 6.66699 -221 20
c-13.333 4 -20.333 11 -21 21v90c0 13.333 7 20.333 21 21c1.33301 0 22.5 -4.5 63.5 -13.5s84.833 -13.5 131.5 -13.5c48 0 71.667 13.667 71 41c0 24.667 -17 37 -51 37c-31.333 0 -71.666 -6.33301 -120.999 -19c-5.33301 -1.33301 -10 -2 -14 -2
c-5.33301 0 -10.333 2 -15 6l-47 45c-4 4 -6 9 -6 15c0 4 0.666992 8 2 12l45 158c-152.667 28.667 -279.834 104.5 -381.501 227.5s-152.5 288.833 -152.5 497.5z" />
    <glyph glyph-name="Egrave" unicode="&#xc8;" horiz-adv-x="1177" 
d="M125 20v1393c0 13.333 6.66699 20.333 20 21h883c13.333 0 20.333 -7 21 -21v-196c0 -13.333 -7 -20.333 -21 -21h-645v-324h584c13.333 0 20 -6.66699 20 -20v-197c0 -13.333 -6.66699 -20 -20 -20h-584v-397h676c13.333 0 20 -7 20 -21v-197
c0 -13.333 -6.66699 -20 -20 -20h-914c-13.333 0 -20 6.66699 -20 20zM304 1833c2 4 6.33203 6 12.999 6h261c12 0 22 -6.66699 30 -20l142 -258c8 -13.333 4.33301 -20.333 -11 -21h-184c-15.333 0 -27.666 6.33301 -36.999 19l-211 260c-4 5.33301 -5 10 -3 14z" />
    <glyph glyph-name="Eacute" unicode="&#xc9;" horiz-adv-x="1196" 
d="M143 20v1393c0 13.333 7 20.333 21 21h883c13.333 0 20 -7 20 -21v-196c0 -13.333 -6.66699 -20.333 -20 -21h-646v-324h584c13.333 0 20.333 -6.66699 21 -20v-197c0 -13.333 -7 -20 -21 -20h-584v-397h676c13.333 0 20.333 -7 21 -21v-197c0 -13.333 -7 -20 -21 -20
h-913c-14 0 -21 6.66699 -21 20zM440 1561l142 258c8 13.333 18 20 30 20h260c6.66699 0 11.167 -2 13.5 -6s1.5 -8.66699 -2.5 -14l-211 -260c-10.667 -12 -23 -18.333 -37 -19h-184c-15.333 0.666992 -19 7.66699 -11 21z" />
    <glyph glyph-name="Ecircumflex" unicode="&#xca;" horiz-adv-x="1196" 
d="M143 20v1393c0 13.333 7 20.333 21 21h883c13.333 0 20 -7 20 -21v-196c0 -13.333 -6.66699 -20.333 -20 -21h-646v-324h584c13.333 0 20.333 -6.66699 21 -20v-197c0 -13.333 -7 -20 -21 -20h-584v-397h676c13.333 0 20.333 -7 21 -21v-197c0 -13.333 -7 -20 -21 -20
h-913c-14 0 -21 6.66699 -21 20zM271 1517.5c-2 4.33301 -1 9.16602 3 14.499l222 291c9.33301 10.667 19.333 16 30 16h168c10.667 0 21 -5.33301 31 -16l221 -291c4 -5.33301 5 -10.166 3 -14.499s-6.33301 -6.5 -13 -6.5h-193c-12 0 -24 6.33301 -36 19l-97 96l-96 -96
c-12 -12 -24.333 -18.333 -37 -19h-192c-7.33301 0 -12 2.16699 -14 6.5z" />
    <glyph glyph-name="Edieresis" unicode="&#xcb;" horiz-adv-x="1177" 
d="M125 20v1393c0 13.333 6.66699 20.333 20 21h883c13.333 0 20.333 -7 21 -21v-196c0 -13.333 -7 -20.333 -21 -21h-645v-324h584c13.333 0 20 -6.66699 20 -20v-197c0 -13.333 -6.66699 -20 -20 -20h-584v-397h676c13.333 0 20 -7 20 -21v-197
c0 -13.333 -6.66699 -20 -20 -20h-914c-13.333 0 -20 6.66699 -20 20zM276 1597v222c0 13.333 7 20 21 20h221c13.333 0 20.333 -6.66699 21 -20v-222c0 -13.333 -7 -20 -21 -20h-221c-14 0 -21 6.66699 -21 20zM641 1597v222c0 13.333 7 20 21 20h221
c13.333 0 20 -6.66699 20 -20v-222c0 -13.333 -6.66699 -20 -20 -20h-221c-14 0 -21 6.66699 -21 20z" />
    <glyph glyph-name="Igrave" unicode="&#xcc;" horiz-adv-x="516" 
d="M-50 1833c2 4 6.33203 6 12.999 6h260c12 0 22.333 -6.66699 31 -20l141 -258c8 -13.333 4.66699 -20.333 -10 -21h-184c-13.333 0 -25.666 6.33301 -36.999 19l-211 260c-4 5.33301 -5 10 -3 14zM128.999 20v1393c0 13.333 7 20.333 21 21h217c13.333 0 20 -7 20 -21
v-1393c0 -13.333 -6.66699 -20 -20 -20h-217c-14 0 -21 6.66699 -21 20z" />
    <glyph glyph-name="Iacute" unicode="&#xcd;" horiz-adv-x="516" 
d="M123 1561l140.999 258c8 13.333 18.333 20 31 20h260c6.66699 0 11 -2 13 -6s1 -8.66699 -3 -14l-211 -260c-9.33301 -12 -21.666 -18.333 -36.999 -19h-184c-14.667 0.666992 -18 7.66699 -10 21zM128.999 20v1393c0 13.333 7 20.333 21 21h217c13.333 0 20 -7 20 -21
v-1393c0 -13.333 -6.66699 -20 -20 -20h-217c-14 0 -21 6.66699 -21 20z" />
    <glyph glyph-name="Icircumflex" unicode="&#xce;" horiz-adv-x="516" 
d="M-81 1517.5c-2 4.33301 -0.999023 9.16602 3.00098 14.499l221 291c9.33301 10.667 19.666 16 30.999 16h168c10.667 0 21 -5.33301 31 -16l221 -291c4 -5.33301 5 -10.166 3 -14.499s-6.33301 -6.5 -13 -6.5h-193c-12 0 -24.333 6.33301 -37 19l-96 96l-96 -96
c-12 -12 -24.333 -18.333 -37 -19h-193c-6.66699 0 -11 2.16699 -13 6.5zM129.001 20v1393c0 13.333 7 20.333 21 21h217c13.333 0 20 -7 20 -21v-1393c0 -13.333 -6.66699 -20 -20 -20h-217c-14 0 -21 6.66699 -21 20z" />
    <glyph glyph-name="Idieresis" unicode="&#xcf;" horiz-adv-x="516" 
d="M-55 1597v222c0 13.333 6.66699 20 20 20h221c13.333 0 20.333 -6.66699 21 -20v-222c0 -13.333 -7 -20 -21 -20h-221c-13.333 0 -20 6.66699 -20 20zM129 20v1393c0 13.333 7 20.333 21 21h217c13.333 0 20 -7 20 -21v-1393c0 -13.333 -6.66699 -20 -20 -20h-217
c-14 0 -21 6.66699 -21 20zM309 1597v222c0 13.333 7 20 21 20h221c13.333 0 20 -6.66699 20 -20v-222c0 -13.333 -6.66699 -20 -20 -20h-221c-14 0 -21 6.66699 -21 20z" />
    <glyph glyph-name="Eth" unicode="&#xd0;" horiz-adv-x="1386" 
d="M23 618v197c0 13.333 6.66699 20.333 20 21h141v577c0 13.333 7 20.333 21 21h434c194 0 354.833 -61.5 482.5 -184.5s191.5 -300.5 191.5 -532.5s-63.833 -409.5 -191.5 -532.5s-288.5 -184.5 -482.5 -184.5h-434c-13.333 0 -20.333 6.66699 -21 20v578h-141
c-13.333 0 -20 6.66699 -20 20zM442 238l185 0.000976562c126.667 0 228.334 40.167 305.001 120.5s115 199.666 115 357.999s-38.333 277.833 -115 358.5s-178.334 121 -305.001 121h-185v-360h265c13.333 0 20 -7 20 -21v-197c0 -13.333 -6.66699 -20 -20 -20h-265v-360z
" />
    <glyph glyph-name="Ntilde" unicode="&#xd1;" horiz-adv-x="1425" 
d="M143 20v1393c0 13.333 7 20.333 21 21h219c15.333 0 26.333 -5.66699 33 -17l604 -971v967c0 13.333 6.66699 20.333 20 21h222c13.333 0 20 -7 20 -21v-1393c0 -13.333 -6.66699 -20 -20 -20h-220c-15.333 -0 -26 5.33301 -32 16l-604 971v-967
c0 -13.333 -7 -20 -21 -20h-221c-14 0 -21 6.66699 -21 20zM324 1749c0 5.33301 4.00195 11.333 12.002 18c86 66.667 165 100.334 237 101.001c57.333 0 110.666 -13.333 159.999 -40s90.333 -40 123 -40c36.667 0 80.334 16.333 131.001 49c5.33301 4 11 6 17 6
c6.66699 0 13.334 -5.33301 20.001 -16l88 -121c2.66699 -4 4 -8.83301 4 -14.5s-4 -11.834 -12 -18.501c-86 -66.667 -165.333 -100 -238 -100c-57.333 0 -110.5 13.333 -159.5 40s-89.833 40 -122.5 40c-36.667 0 -80.334 -16.333 -131.001 -49
c-6.66699 -4 -12.334 -6.33301 -17.001 -7c-6.66699 0 -13.334 5.66699 -20.001 17l-88 121c-2.66699 4 -4 8.66699 -4 14z" />
    <glyph glyph-name="Ograve" unicode="&#xd2;" horiz-adv-x="1572" 
d="M78 717c0 120 20.167 228.167 60.5 324.5s94.166 173.833 161.499 232.5s142.666 103.334 225.999 134.001s170.166 46 260.499 46s177 -15.333 260 -46s158.333 -75.334 226 -134.001s121.667 -136.167 162 -232.5s60.5 -204.5 60.5 -324.5
s-20.167 -228.167 -60.5 -324.5s-94.333 -173.833 -162 -232.5s-143 -103.334 -226 -134.001s-169.667 -46 -260 -46s-177.166 15.333 -260.499 46s-158.666 75.334 -225.999 134.001s-121.166 136.167 -161.499 232.5s-60.5 204.5 -60.5 324.5zM344 716.5
c0 -159.667 43 -282.834 129 -369.501s190.5 -130 313.5 -130s227.5 43.333 313.5 130s129 209.834 129 369.501s-43 283 -129 370s-190.5 130.5 -313.5 130.5s-227.5 -43.5 -313.5 -130.5s-129 -210.333 -129 -370zM490.5 1833c2.33301 4 6.83398 6 13.501 6h260
c12 0 22.333 -6.66699 31 -20l141 -258c8 -13.333 4.66699 -20.333 -10 -21h-185c-13.333 0 -25.333 6.33301 -36 19l-211 260c-4.66699 5.33301 -5.83398 10 -3.50098 14z" />
    <glyph glyph-name="Oacute" unicode="&#xd3;" horiz-adv-x="1572" 
d="M78 717c0 120 20.167 228.167 60.5 324.5s94.166 173.833 161.499 232.5s142.666 103.334 225.999 134.001s170.166 46 260.499 46s177 -15.333 260 -46s158.333 -75.334 226 -134.001s121.667 -136.167 162 -232.5s60.5 -204.5 60.5 -324.5
s-20.167 -228.167 -60.5 -324.5s-94.333 -173.833 -162 -232.5s-143 -103.334 -226 -134.001s-169.667 -46 -260 -46s-177.166 15.333 -260.499 46s-158.666 75.334 -225.999 134.001s-121.166 136.167 -161.499 232.5s-60.5 204.5 -60.5 324.5zM344 716.5
c0 -159.667 43 -282.834 129 -369.501s190.5 -130 313.5 -130s227.5 43.333 313.5 130s129 209.834 129 369.501s-43 283 -129 370s-190.5 130.5 -313.5 130.5s-227.5 -43.5 -313.5 -130.5s-129 -210.333 -129 -370zM608 1561l142 258c8 13.333 18 20 30 20h260
c6.66699 0 11.167 -2 13.5 -6s1.5 -8.66699 -2.5 -14l-211 -260c-10.667 -12 -23 -18.333 -37 -19h-185c-14.667 0.666992 -18 7.66699 -10 21z" />
    <glyph glyph-name="Ocircumflex" unicode="&#xd4;" horiz-adv-x="1572" 
d="M78 717c0 120 20.167 228.167 60.5 324.5s94.166 173.833 161.499 232.5s142.666 103.334 225.999 134.001s170.166 46 260.499 46s177 -15.333 260 -46s158.333 -75.334 226 -134.001s121.667 -136.167 162 -232.5s60.5 -204.5 60.5 -324.5
s-20.167 -228.167 -60.5 -324.5s-94.333 -173.833 -162 -232.5s-143 -103.334 -226 -134.001s-169.667 -46 -260 -46s-177.166 15.333 -260.499 46s-158.666 75.334 -225.999 134.001s-121.166 136.167 -161.499 232.5s-60.5 204.5 -60.5 324.5zM344 716.5
c0 -159.667 43 -282.834 129 -369.501s190.5 -130 313.5 -130s227.5 43.333 313.5 130s129 209.834 129 369.501s-43 283 -129 370s-190.5 130.5 -313.5 130.5s-227.5 -43.5 -313.5 -130.5s-129 -210.333 -129 -370zM447.5 1517.5
c-2.33301 4.33301 -1.16699 9.16602 3.5 14.499l221 291c9.33301 10.667 19.333 16 30 16h168c10.667 0 21 -5.33301 31 -16l221 -291c4 -5.33301 5 -10.166 3 -14.499s-6.33301 -6.5 -13 -6.5h-192c-12 0 -24.333 6.33301 -37 19l-97 96l-96 -96
c-12 -12 -24.333 -18.333 -37 -19h-192c-6.66699 0 -11.167 2.16699 -13.5 6.5z" />
    <glyph glyph-name="Otilde" unicode="&#xd5;" horiz-adv-x="1572" 
d="M78 717c0 120 20.167 228.167 60.5 324.5s94.166 173.833 161.499 232.5s142.666 103.334 225.999 134.001s170.166 46 260.499 46s177 -15.333 260 -46s158.333 -75.334 226 -134.001s121.667 -136.167 162 -232.5s60.5 -204.5 60.5 -324.5
s-20.167 -228.167 -60.5 -324.5s-94.333 -173.833 -162 -232.5s-143 -103.334 -226 -134.001s-169.667 -46 -260 -46s-177.166 15.333 -260.499 46s-158.666 75.334 -225.999 134.001s-121.166 136.167 -161.499 232.5s-60.5 204.5 -60.5 324.5zM344 716.5
c0 -159.667 43 -282.834 129 -369.501s190.5 -130 313.5 -130s227.5 43.333 313.5 130s129 209.834 129 369.501s-43 283 -129 370s-190.5 130.5 -313.5 130.5s-227.5 -43.5 -313.5 -130.5s-129 -210.333 -129 -370zM391 1749c0 5.33301 3.99805 11.333 11.998 18
c86 66.667 165.333 100.334 238 101.001c57.333 0 110.5 -13.333 159.5 -40s90.167 -40 123.5 -40c36.667 0 80.334 16.333 131.001 49c6.66699 4 12 6 16 6c6.66699 0 13.667 -5.33301 21 -16l88 -121c2.66699 -4 4 -8.83301 4 -14.5s-4.33301 -11.834 -13 -18.501
c-86 -66.667 -165 -100 -237 -100c-57.333 0 -110.666 13.333 -159.999 40s-90.333 40 -123 40c-36.667 0 -80.334 -16.333 -131.001 -49c-5.33301 -4 -10.666 -6.33301 -15.999 -7c-6.66699 0 -13.667 5.66699 -21 17l-88 121c-2.66699 4 -4 8.66699 -4 14z" />
    <glyph glyph-name="Odieresis" unicode="&#xd6;" horiz-adv-x="1572" 
d="M78 717c0 120 20.167 228.167 60.5 324.5s94.166 173.833 161.499 232.5s142.666 103.334 225.999 134.001s170.166 46 260.499 46s177 -15.333 260 -46s158.333 -75.334 226 -134.001s121.667 -136.167 162 -232.5s60.5 -204.5 60.5 -324.5
s-20.167 -228.167 -60.5 -324.5s-94.333 -173.833 -162 -232.5s-143 -103.334 -226 -134.001s-169.667 -46 -260 -46s-177.166 15.333 -260.499 46s-158.666 75.334 -225.999 134.001s-121.166 136.167 -161.499 232.5s-60.5 204.5 -60.5 324.5zM344 716.5
c0 -159.667 43 -282.834 129 -369.501s190.5 -130 313.5 -130s227.5 43.333 313.5 130s129 209.834 129 369.501s-43 283 -129 370s-190.5 130.5 -313.5 130.5s-227.5 -43.5 -313.5 -130.5s-129 -210.333 -129 -370zM473 1597v222c0 13.333 7 20 21 20h221
c13.333 0 20 -6.66699 20 -20v-222c0 -13.333 -6.66699 -20 -20 -20h-221c-14 0 -21 6.66699 -21 20zM838 1597v222c0 13.333 6.66699 20 20 20h221c13.333 0 20.333 -6.66699 21 -20v-222c0 -13.333 -7 -20 -21 -20h-221c-13.333 0 -20 6.66699 -20 20z" />
    <glyph glyph-name="multiply" unicode="&#xd7;" horiz-adv-x="1036" 
d="M104 440.5c0 5.66699 2.33008 10.5 6.99707 14.5l245 245l-245 246c-4 4 -6.16699 8.83301 -6.5 14.5s1.83398 10.5 6.50098 14.5l133 133c5.33301 5.33301 10 8 14 8s8.66699 -2.66699 14 -8l246 -246l246 246c5.33301 5.33301 10 8 14 8s9 -2.66699 15 -8l133 -133
c4 -4 6 -8.83301 6 -14.5s-2 -10.5 -6 -14.5l-246 -246l246 -245c4 -4 6 -8.83301 6 -14.5s-2 -10.5 -6 -14.5l-133 -133c-5.33301 -5.33301 -10.166 -8 -14.499 -8s-9.16602 2.66699 -14.499 8l-246 246l-246 -246c-5.33301 -5.33301 -10 -8 -14 -8s-8.66699 2.66699 -14 8
l-133 133c-4.66699 4 -7 8.83301 -7 14.5z" />
    <glyph glyph-name="Oslash" unicode="&#xd8;" horiz-adv-x="1572" 
d="M78 717c0 120 20.1699 228.168 60.5029 324.501s94.166 173.833 161.499 232.5s142.666 103.334 225.999 134.001s170 46 260 46c113.333 0 216.666 -21.667 309.999 -65l82 139c5.33301 8 10.666 12 15.999 12c2.66699 0 6.66699 -1.33301 12 -4l88 -53
c8 -5.33301 12.333 -11 13 -17c0 -2.66699 -1.33301 -6.66699 -4 -12l-82 -139c182.667 -134 274 -333.333 274 -598c0 -120 -20.167 -228.167 -60.5 -324.5s-94.333 -173.833 -162 -232.5s-143 -103.334 -226 -134.001s-169.833 -46 -260.5 -46
c-113.333 0 -216.333 21.667 -309 65l-82 -139c-5.33301 -8 -10.666 -12 -15.999 -12c-2.66699 0 -6.66699 1.33301 -12 4l-88 53c-8 5.33301 -12.333 10.666 -13 15.999c0 2.66699 1.33301 7 4 13l82 139c-182.667 134 -274 333.333 -274 598zM344.003 717.001
c0 -161.333 45.667 -287.667 137 -379l492 840c-56 26 -118.333 39 -187 39c-122.667 0 -227 -43.333 -313 -130s-129 -210 -129 -370zM600.003 256c56 -26 118 -38.999 186 -38.999c122.667 0 227.167 43.333 313.5 130s129.5 210 129.5 370
c0 161.333 -45.667 287.666 -137 378.999z" />
    <glyph glyph-name="Ugrave" unicode="&#xd9;" horiz-adv-x="1310" 
d="M111 553l0.00195312 860c0 13.333 6.66699 20.333 20 21h217c13.333 0 20.333 -7 21 -21v-858c0 -113.333 25.167 -198 75.5 -254s120.666 -84 210.999 -84s160.666 28 210.999 84s75.5 140.667 75.5 254v858c0 13.333 7 20.333 21 21h217c13.333 0 20 -7 20 -21v-860
c0 -177.333 -49.5 -317.166 -148.5 -419.499s-231 -153.5 -396 -153.5s-297 51.167 -396 153.5s-148.5 242.166 -148.5 419.499zM359.002 1833c2 4 6.66602 6 13.999 6h260c12 0 22.333 -6.66699 31 -20l141 -258c8 -13.333 4.66699 -20.333 -10 -21h-185
c-13.333 0 -25.666 6.33301 -36.999 19l-211 260c-4 5.33301 -5 10 -3 14z" />
    <glyph glyph-name="Uacute" unicode="&#xda;" horiz-adv-x="1310" 
d="M111 553l0.00195312 860c0 13.333 6.66699 20.333 20 21h217c13.333 0 20.333 -7 21 -21v-858c0 -113.333 25.167 -198 75.5 -254s120.666 -84 210.999 -84s160.666 28 210.999 84s75.5 140.667 75.5 254v858c0 13.333 7 20.333 21 21h217c13.333 0 20 -7 20 -21v-860
c0 -177.333 -49.5 -317.166 -148.5 -419.499s-231 -153.5 -396 -153.5s-297 51.167 -396 153.5s-148.5 242.166 -148.5 419.499zM496.002 1561l140.999 258c8 13.333 18.333 20 31 20h260c6.66699 0 11 -2 13 -6s1 -8.66699 -3 -14l-211 -260
c-9.33301 -12 -21.666 -18.333 -36.999 -19h-184c-14.667 0.666992 -18 7.66699 -10 21z" />
    <glyph glyph-name="Ucircumflex" unicode="&#xdb;" horiz-adv-x="1310" 
d="M111 553l0.00195312 860c0 13.333 6.66699 20.333 20 21h217c13.333 0 20.333 -7 21 -21v-858c0 -113.333 25.167 -198 75.5 -254s120.666 -84 210.999 -84s160.666 28 210.999 84s75.5 140.667 75.5 254v858c0 13.333 7 20.333 21 21h217c13.333 0 20 -7 20 -21v-860
c0 -177.333 -49.5 -317.166 -148.5 -419.499s-231 -153.5 -396 -153.5s-297 51.167 -396 153.5s-148.5 242.166 -148.5 419.499zM316.002 1517.5c-2 4.33301 -1 9.16602 3 14.499l222 291c9.33301 10.667 19.333 16 30 16h168c10.667 0 21 -5.33301 31 -16l221 -291
c4 -5.33301 5 -10.166 3 -14.499s-6.33301 -6.5 -13 -6.5h-193c-12 0 -24 6.33301 -36 19l-97 96l-96 -96c-12 -12 -24.333 -18.333 -37 -19h-192c-7.33301 0 -12 2.16699 -14 6.5z" />
    <glyph glyph-name="Udieresis" unicode="&#xdc;" horiz-adv-x="1310" 
d="M111 553l0.00195312 860c0 13.333 6.66699 20.333 20 21h217c13.333 0 20.333 -7 21 -21v-858c0 -113.333 25.167 -198 75.5 -254s120.666 -84 210.999 -84s160.666 28 210.999 84s75.5 140.667 75.5 254v858c0 13.333 7 20.333 21 21h217c13.333 0 20 -7 20 -21v-860
c0 -177.333 -49.5 -317.166 -148.5 -419.499s-231 -153.5 -396 -153.5s-297 51.167 -396 153.5s-148.5 242.166 -148.5 419.499zM342.002 1597v222c0 13.333 6.66699 20 20 20h222c13.333 0 20 -6.66699 20 -20v-222c0 -13.333 -6.66699 -20 -20 -20h-222
c-13.333 0 -20 6.66699 -20 20zM707.002 1597v222c0 13.333 6.66699 20 20 20h221c13.333 0 20.333 -6.66699 21 -20v-222c0 -13.333 -7 -20 -21 -20h-221c-13.333 0 -20 6.66699 -20 20z" />
    <glyph glyph-name="Yacute" unicode="&#xdd;" horiz-adv-x="1118" 
d="M-12 1421c0 8 4.66699 12.332 14 12.999h240c13.333 0 22 -5.66699 26 -17l291 -645l291 645c4 10.667 13 16.334 27 17.001h239c9.33301 0 14 -4.33301 14 -13c0 -2.66699 -0.666992 -5.33398 -2 -8.00098l-440 -909v-484c0 -13.333 -6.66699 -20 -20 -20h-217
c-13.333 0 -20.333 6.66699 -21 20v484l-440 909c-1.33301 2.66699 -2 5.33398 -2 8.00098zM412 1561l141 258c8 13.333 18.333 20 31 20h260c6.66699 0 11 -2 13 -6s1 -8.66699 -3 -14l-211 -260c-10.667 -12 -23 -18.333 -37 -19h-184
c-14.667 0.666992 -18 7.66699 -10 21z" />
    <glyph glyph-name="Thorn" unicode="&#xde;" horiz-adv-x="1241" 
d="M143 20v1393c0 13.333 7 20.333 21 21h217c13.333 0 20 -7 20 -21v-285h293c152.667 0 271.167 -36.833 355.5 -110.5s126.5 -174 126.5 -301s-42 -227.333 -126 -301s-202.667 -110.5 -356 -110.5h-293v-285c0 -13.333 -6.66699 -20 -20 -20h-217
c-14 0 -21 6.66699 -21 20zM401 543h299.001c64 0 115.5 15 154.5 45s58.5 73 58.5 129s-19.333 99 -58 129s-90.334 45 -155.001 45h-299v-348z" />
    <glyph glyph-name="germandbls" unicode="&#xdf;" horiz-adv-x="1277" 
d="M25 827l-0.000976562 180.999c0 13.333 6.66699 20 20 20h141c0 134 39.667 238.5 119 313.5s183.666 112.5 312.999 112.5c120 0 217.333 -33.167 292 -99.5s112 -149.166 112 -248.499c0 -52 -9.16699 -97.5 -27.5 -136.5s-38.166 -67.333 -59.499 -85
s-41.166 -36 -59.499 -55s-27.5 -38.167 -27.5 -57.5c0 -23.333 19.5 -48 58.5 -74s81.333 -50.5 127 -73.5s88 -59.167 127 -108.5s58.5 -106 58.5 -170c0 -117.333 -33.833 -207.666 -101.5 -270.999s-156.167 -95 -265.5 -95c-118.667 0 -211.5 34.333 -278.5 103
s-102.5 155.667 -106.5 261c0 13.333 6.66699 20.333 20 21h181c12 0 18.667 -7 20 -21c19.333 -95.333 72 -143 158 -143c38 0 68.667 13.333 92 40s35 59.667 35 99c0 40.667 -19.5 76.834 -58.5 108.501s-81.333 57 -127 76s-88 49.667 -127 92
s-58.5 94.166 -58.5 155.499c0 31.333 6.5 59.666 19.5 84.999s28.833 46.333 47.5 63l54 48c18 16 33.333 33.5 46 52.5s19 39.833 19 62.5c0 42 -15 77.5 -45 106.5s-70 43.5 -120 43.5c-57.333 0 -103.5 -21.167 -138.5 -63.5s-52.5 -105.833 -52.5 -190.5v-959
c0 -13.333 -6.66699 -20 -20 -20h-205c-13.333 0 -20.333 6.66699 -21 20v787h-141c-13.333 0 -20 6.66699 -20 20z" />
    <glyph glyph-name="agrave" unicode="&#xe0;" horiz-adv-x="1103" 
d="M80 322c0 108 39.1689 192.334 117.502 253.001s177.166 91 296.499 91c69.333 0 153 -13.667 251 -41v28c0 53.333 -16.333 95.666 -49 126.999s-79.667 47 -141 47c-90 0 -152.667 -32 -188 -96c-8 -12 -17.667 -18 -29 -18h-207c-9.33301 0 -14 4 -14 12
s0.666992 14.667 2 20c20.667 88.667 69.167 161.5 145.5 218.5s173.166 85.5 290.499 85.5c132.667 0 238.5 -35.5 317.5 -106.5s118.5 -167.5 118.5 -289.5v-444c0 -79.333 13 -142.333 39 -189c8 -13.333 3.33301 -20 -14 -20h-250c-13.333 0 -20.333 6.66699 -21 20v60
c-80.667 -66.667 -178 -100 -292 -100c-106.667 0 -195.5 31 -266.5 93s-106.5 145 -106.5 249zM247.002 1427.5c2 4.33301 6.33203 6.50098 12.999 6.50098h260c12 0 22.333 -7 31 -21l141 -258c8 -13.333 4.66699 -20 -10 -20h-184c-15.333 0 -27.666 6 -36.999 18
l-211 260c-4 5.33301 -5 10.166 -3 14.499zM317.001 328.002c0 -39.333 15.832 -70.332 47.499 -92.999s76.167 -34 133.5 -34c65.333 0 122.833 20.167 172.5 60.5s74.5 91.833 74.5 154.5c-95.333 27.333 -175.666 41 -240.999 41c-53.333 0 -97.833 -11.333 -133.5 -34
s-53.5 -54.334 -53.5 -95.001z" />
    <glyph glyph-name="aacute" unicode="&#xe1;" horiz-adv-x="1103" 
d="M80 322c0 108 39.1689 192.334 117.502 253.001s177.166 91 296.499 91c69.333 0 153 -13.667 251 -41v28c0 53.333 -16.333 95.666 -49 126.999s-79.667 47 -141 47c-90 0 -152.667 -32 -188 -96c-8 -12 -17.667 -18 -29 -18h-207c-9.33301 0 -14 4 -14 12
s0.666992 14.667 2 20c20.667 88.667 69.167 161.5 145.5 218.5s173.166 85.5 290.499 85.5c132.667 0 238.5 -35.5 317.5 -106.5s118.5 -167.5 118.5 -289.5v-444c0 -79.333 13 -142.333 39 -189c8 -13.333 3.33301 -20 -14 -20h-250c-13.333 0 -20.333 6.66699 -21 20v60
c-80.667 -66.667 -178 -100 -292 -100c-106.667 0 -195.5 31 -266.5 93s-106.5 145 -106.5 249zM317.002 328.001c0 -39.333 15.832 -70.332 47.499 -92.999s76.167 -34 133.5 -34c65.333 0 122.833 20.167 172.5 60.5s74.5 91.833 74.5 154.5
c-95.333 27.333 -175.666 41 -240.999 41c-53.333 0 -97.833 -11.333 -133.5 -34s-53.5 -54.334 -53.5 -95.001zM391.001 1155l141 257.999c8 13.333 18.333 20.333 31 21h260c6.66699 0 11.167 -2.16699 13.5 -6.5s1.5 -9.16602 -2.5 -14.499l-211 -260
c-10.667 -12 -23 -18 -37 -18h-185c-14.667 0 -18 6.66699 -10 20z" />
    <glyph glyph-name="acircumflex" unicode="&#xe2;" horiz-adv-x="1103" 
d="M80 322c0 108 39.1689 192.334 117.502 253.001s177.166 91 296.499 91c69.333 0 153 -13.667 251 -41v28c0 53.333 -16.333 95.666 -49 126.999s-79.667 47 -141 47c-90 0 -152.667 -32 -188 -96c-8 -12 -17.667 -18 -29 -18h-207c-9.33301 0 -14 4 -14 12
s0.666992 14.667 2 20c20.667 88.667 69.167 161.5 145.5 218.5s173.166 85.5 290.499 85.5c132.667 0 238.5 -35.5 317.5 -106.5s118.5 -167.5 118.5 -289.5v-444c0 -79.333 13 -142.333 39 -189c8 -13.333 3.33301 -20 -14 -20h-250c-13.333 0 -20.333 6.66699 -21 20v60
c-80.667 -66.667 -178 -100 -292 -100c-106.667 0 -195.5 31 -266.5 93s-106.5 145 -106.5 249zM216.002 1112c-2 4 -0.999023 8.66602 3.00098 13.999l221 291c9.33301 10.667 19.666 16.334 30.999 17.001h168c10.667 0 21 -5.66699 31 -17l221 -291
c4 -5.33301 5 -10 3 -14s-6.33301 -6 -13 -6h-193c-12 0 -24.333 6 -37 18l-96 97l-96 -97c-12 -12 -24.333 -18 -37 -18h-193c-6.66699 0 -11 2 -13 6zM317.003 328c0 -39.333 15.832 -70.332 47.499 -92.999s76.167 -34 133.5 -34c65.333 0 122.833 20.167 172.5 60.5
s74.5 91.833 74.5 154.5c-95.333 27.333 -175.666 41 -240.999 41c-53.333 0 -97.833 -11.333 -133.5 -34s-53.5 -54.334 -53.5 -95.001z" />
    <glyph glyph-name="atilde" unicode="&#xe3;" horiz-adv-x="1103" 
d="M80 322c0 108 39.1689 192.334 117.502 253.001s177.166 91 296.499 91c69.333 0 153 -13.667 251 -41v28c0 53.333 -16.333 95.666 -49 126.999s-79.667 47 -141 47c-90 0 -152.667 -32 -188 -96c-8 -12 -17.667 -18 -29 -18h-207c-9.33301 0 -14 4 -14 12
s0.666992 14.667 2 20c20.667 88.667 69.167 161.5 145.5 218.5s173.166 85.5 290.499 85.5c132.667 0 238.5 -35.5 317.5 -106.5s118.5 -167.5 118.5 -289.5v-444c0 -79.333 13 -142.333 39 -189c8 -13.333 3.33301 -20 -14 -20h-250c-13.333 0 -20.333 6.66699 -21 20v60
c-80.667 -66.667 -178 -100 -292 -100c-106.667 0 -195.5 31 -266.5 93s-106.5 145 -106.5 249zM168.002 1343.5c0 5.66699 3.99902 11.834 11.999 18.501c86 66.667 165.333 100 238 100c57.333 0 110.5 -13.333 159.5 -40s89.833 -40 122.5 -40
c36.667 0 80.334 16.667 131.001 50c5.33301 4 11 6 17 6c6.66699 0 13.334 -5.66699 20.001 -17l88 -121c2.66699 -4 4.16699 -8.66699 4.5 -14s-3.83398 -11.333 -12.501 -18c-86 -66.667 -165 -100.334 -237 -101.001c-57.333 0 -110.666 13.333 -159.999 40
s-90.333 40 -123 40c-36.667 0 -80.334 -16.333 -131.001 -49c-6.66699 -4 -12 -6 -16 -6c-6.66699 0 -13.667 5.33301 -21 16l-88 121c-2.66699 4 -4 8.83301 -4 14.5zM317.001 328.001c0 -39.333 15.832 -70.332 47.499 -92.999s76.167 -34 133.5 -34
c65.333 0 122.833 20.167 172.5 60.5s74.5 91.833 74.5 154.5c-95.333 27.333 -175.666 41 -240.999 41c-53.333 0 -97.833 -11.333 -133.5 -34s-53.5 -54.334 -53.5 -95.001z" />
    <glyph glyph-name="adieresis" unicode="&#xe4;" horiz-adv-x="1103" 
d="M80 322c0 108 39.1689 192.334 117.502 253.001s177.166 91 296.499 91c69.333 0 153 -13.667 251 -41v28c0 53.333 -16.333 95.666 -49 126.999s-79.667 47 -141 47c-90 0 -152.667 -32 -188 -96c-8 -12 -17.667 -18 -29 -18h-207c-9.33301 0 -14 4 -14 12
s0.666992 14.667 2 20c20.667 88.667 69.167 161.5 145.5 218.5s173.166 85.5 290.499 85.5c132.667 0 238.5 -35.5 317.5 -106.5s118.5 -167.5 118.5 -289.5v-444c0 -79.333 13 -142.333 39 -189c8 -13.333 3.33301 -20 -14 -20h-250c-13.333 0 -20.333 6.66699 -21 20v60
c-80.667 -66.667 -178 -100 -292 -100c-106.667 0 -195.5 31 -266.5 93s-106.5 145 -106.5 249zM242.002 1192v221c0 13.333 6.66699 20.333 20 21h221c13.333 0 20.333 -7 21 -21v-221c0 -13.333 -7 -20.333 -21 -21h-221c-13.333 0.666992 -20 7.66699 -20 21z
M317.002 328.001c0 -39.333 15.832 -70.332 47.499 -92.999s76.167 -34 133.5 -34c65.333 0 122.833 20.167 172.5 60.5s74.5 91.833 74.5 154.5c-95.333 27.333 -175.666 41 -240.999 41c-53.333 0 -97.833 -11.333 -133.5 -34s-53.5 -54.334 -53.5 -95.001zM606.001 1192
v221c0 13.333 7 20.333 21 21h221c13.333 0 20 -7 20 -21v-221c0 -13.333 -6.66699 -20.333 -20 -21h-221c-14 0.666992 -21 7.66699 -21 21z" />
    <glyph glyph-name="aring" unicode="&#xe5;" horiz-adv-x="1103" 
d="M80 322c0 108 39.1689 192.334 117.502 253.001s177.166 91 296.499 91c69.333 0 153 -13.667 251 -41v28c0 53.333 -16.333 95.666 -49 126.999s-79.667 47 -141 47c-90 0 -152.667 -32 -188 -96c-8 -12 -17.667 -18 -29 -18h-207c-9.33301 0 -14 4 -14 12
s0.666992 14.667 2 20c20.667 88.667 69.167 161.5 145.5 218.5s173.166 85.5 290.499 85.5c132.667 0 238.5 -35.5 317.5 -106.5s118.5 -167.5 118.5 -289.5v-444c0 -79.333 13 -142.333 39 -189c8 -13.333 3.33301 -20 -14 -20h-250c-13.333 0 -20.333 6.66699 -21 20v60
c-80.667 -66.667 -178 -100 -292 -100c-106.667 0 -195.5 31 -266.5 93s-106.5 145 -106.5 249zM317.002 328.001c0 -39.333 15.832 -70.332 47.499 -92.999s76.167 -34 133.5 -34c65.333 0 122.833 20.167 172.5 60.5s74.5 91.833 74.5 154.5
c-95.333 27.333 -175.666 41 -240.999 41c-53.333 0 -97.833 -11.333 -133.5 -34s-53.5 -54.334 -53.5 -95.001zM346.001 1274c0 58.667 19.5 106.834 58.5 144.501s89.833 56.5 152.5 56.5s113.5 -18.833 152.5 -56.5s58.5 -85.834 58.5 -144.501
s-19.5 -106.834 -58.5 -144.501s-89.833 -56.5 -152.5 -56.5s-113.5 18.833 -152.5 56.5s-58.5 85.834 -58.5 144.501zM485.001 1274c0 -22 6.83301 -39.167 20.5 -51.5s30.834 -18.5 51.501 -18.5s37.834 6.16699 51.501 18.5s20.5 29.5 20.5 51.5s-6.83301 39 -20.5 51
s-30.834 18 -51.501 18s-37.834 -6 -51.501 -18s-20.5 -29 -20.5 -51z" />
    <glyph glyph-name="ae" unicode="&#xe6;" horiz-adv-x="1910" 
d="M80 322c0 108 39.1689 192.332 117.502 252.999s177.166 91 296.499 91c75.333 0 159 -13 251 -39v26c0 53.333 -16.333 95.666 -49 126.999s-79.667 47 -141 47c-90 0 -152.667 -32 -188 -96c-8 -12 -17.667 -18 -29 -18h-207c-9.33301 0 -14 4 -14 12
s0.666992 14.667 2 20c20.667 88.667 69.167 161.5 145.5 218.5s173.166 85.5 290.499 85.5c166.667 0 288.334 -53.333 365.001 -160c102.667 106.667 231 160 385 160c162.667 0 291.667 -54 387 -162s143 -239.667 143 -395v-35c0 -13.333 -6.66699 -20.333 -20 -21h-789
c12 -68 43 -124.167 93 -168.5s112 -66.5 186 -66.5c117.333 0 201 42.333 251 127c8 12 17.667 18 29 18h209c9.33301 0 14 -4.66699 14 -14c0 -5.33301 -1.33301 -12.333 -4 -21c-86 -221.333 -253 -331.666 -501 -330.999c-174.667 0 -311.334 62 -410.001 186
c-92.667 -124 -230 -186 -412 -186c-125.333 0 -223.5 30.333 -294.5 91s-106.5 144.334 -106.5 251.001zM317.002 327.999c0 -39.333 15.832 -70.332 47.499 -92.999s76.167 -34 133.5 -34c65.333 0 122.833 20.167 172.5 60.5s74.5 91.833 74.5 154.5
c-95.333 27.333 -175.666 41 -240.999 41c-53.333 0 -97.833 -11.333 -133.5 -34s-53.5 -54.334 -53.5 -95.001zM1042 641l531 -0.000976562c-40.667 124 -130 186 -268 186c-58.667 0 -112 -16.667 -160 -50s-82.333 -78.666 -103 -135.999z" />
    <glyph glyph-name="ccedilla" unicode="&#xe7;" horiz-adv-x="1161" 
d="M74 514c0 158.667 50.833 287.496 152.5 386.496s229.5 148.5 383.5 148.5c130 0 238.667 -35.5 326 -106.5s139.333 -157.833 156 -260.5c1.33301 -5.33301 2 -12.166 2 -20.499s-5 -12.5 -15 -12.5h-200c-15.333 0 -25 6.33301 -29 19
c-38 106.667 -119.333 159.667 -244 159c-83.333 0 -150.5 -27.5 -201.5 -82.5s-76.5 -131.667 -76.5 -230s25.5 -175.166 76.5 -230.499s118.167 -83 201.5 -83c124 0 205.333 53 244 159c4 12 13.667 18.333 29 19h200c9.33301 0 14.166 -4.16699 14.499 -12.5
s-0.166992 -15.166 -1.5 -20.499c-16.667 -102.667 -68 -189 -154 -259s-193.333 -105.667 -322 -107l-43 -89c32.667 9.33301 67.667 14.333 105 15c61.333 0 108 -14.667 140 -44s48 -68.666 48 -117.999c0 -113.333 -78.333 -170 -235 -170
c-90 0 -163.667 6.66699 -221 20c-13.333 4 -20.333 11 -21 21v90c0 13.333 7 20.333 21 21c1.33301 0 22.5 -4.5 63.5 -13.5s84.5 -13.5 130.5 -13.5c48 0 72 13.667 72 41c0 24.667 -17 37 -51 37c-31.333 0 -71.666 -6.33301 -120.999 -19
c-5.33301 -1.33301 -10.333 -2 -15 -2c-5.33301 0 -10 2 -14 6l-47 45c-4 4 -6 9 -6 15c0 4 0.666992 8 2 12l45 162c-118.667 28.667 -214.167 89 -286.5 181s-108.5 204.333 -108.5 337z" />
    <glyph glyph-name="egrave" unicode="&#xe8;" horiz-adv-x="1214" 
d="M82 514c0 155.333 51.167 283.333 153.5 384s227.166 151 374.499 151c162.667 0 291.834 -54 387.501 -162s143.5 -239.667 143.5 -395v-35c0 -13.333 -7 -20.333 -21 -21h-780c10.667 -70.667 40 -127.5 88 -170.5s108.667 -64.5 182 -64.5
c117.333 0 201.333 42.333 252 127c8 12 17.667 18 29 18h209c9.33301 0 14 -4.66699 14 -14c0 -5.33301 -1.33301 -12.333 -4 -21c-86 -221.333 -253.333 -331.666 -502 -330.999c-150 0 -275.167 49.667 -375.5 149s-150.5 227.666 -150.5 384.999zM331 1427.5
c2 4.33301 6.33203 6.50098 12.999 6.50098h260c12 0 22.333 -7 31 -21l141 -258c8 -13.333 4.66699 -20 -10 -20h-184c-13.333 0 -25.666 6 -36.999 18l-211 260c-4 5.33301 -5 10.166 -3 14.499zM347.999 641.001l531.003 -0.000976562
c-40.667 124 -130.334 186 -269.001 186c-58.667 0 -111.834 -16.667 -159.501 -50s-81.834 -78.666 -102.501 -135.999z" />
    <glyph glyph-name="eacute" unicode="&#xe9;" horiz-adv-x="1214" 
d="M82 514c0 155.333 51.167 283.333 153.5 384s227.166 151 374.499 151c162.667 0 291.834 -54 387.501 -162s143.5 -239.667 143.5 -395v-35c0 -13.333 -7 -20.333 -21 -21h-780c10.667 -70.667 40 -127.5 88 -170.5s108.667 -64.5 182 -64.5
c117.333 0 201.333 42.333 252 127c8 12 17.667 18 29 18h209c9.33301 0 14 -4.66699 14 -14c0 -5.33301 -1.33301 -12.333 -4 -21c-86 -221.333 -253.333 -331.666 -502 -330.999c-150 0 -275.167 49.667 -375.5 149s-150.5 227.666 -150.5 384.999zM348 641
l531.003 -0.000976562c-40.667 124 -130.334 186 -269.001 186c-58.667 0 -111.834 -16.667 -159.501 -50s-81.834 -78.666 -102.501 -135.999zM424.003 1155l141 257.999c8 13.333 18.333 20.333 31 21h260c6.66699 0 11 -2.16699 13 -6.5s1 -9.16602 -3 -14.499l-211 -260
c-10.667 -12 -23 -18 -37 -18h-184c-14.667 0 -18 6.66699 -10 20z" />
    <glyph glyph-name="ecircumflex" unicode="&#xea;" horiz-adv-x="1214" 
d="M82 514c0 155.333 51.167 283.333 153.5 384s227.166 151 374.499 151c162.667 0 291.834 -54 387.501 -162s143.5 -239.667 143.5 -395v-35c0 -13.333 -7 -20.333 -21 -21h-780c10.667 -70.667 40 -127.5 88 -170.5s108.667 -64.5 182 -64.5
c117.333 0 201.333 42.333 252 127c8 12 17.667 18 29 18h209c9.33301 0 14 -4.66699 14 -14c0 -5.33301 -1.33301 -12.333 -4 -21c-86 -221.333 -253.333 -331.666 -502 -330.999c-150 0 -275.167 49.667 -375.5 149s-150.5 227.666 -150.5 384.999zM282 1112
c-2 4 -0.999023 8.66602 3.00098 13.999l221 291c9.33301 10.667 19.666 16.334 30.999 17.001h168c10.667 0 20.667 -5.66699 30 -17l221 -291c4 -5.33301 5 -10 3 -14s-6.33301 -6 -13 -6h-192c-12 0 -24.333 6 -37 18l-96 97l-97 -97c-12 -12 -24.333 -18 -37 -18h-192
c-6.66699 0 -11 2 -13 6zM348.001 640.999l531.003 -0.000976562c-40.667 124 -130.334 186 -269.001 186c-58.667 0 -111.834 -16.667 -159.501 -50s-81.834 -78.666 -102.501 -135.999z" />
    <glyph glyph-name="edieresis" unicode="&#xeb;" horiz-adv-x="1214" 
d="M82 514c0 155.333 51.167 283.333 153.5 384s227.166 151 374.499 151c162.667 0 291.834 -54 387.501 -162s143.5 -239.667 143.5 -395v-35c0 -13.333 -7 -20.333 -21 -21h-780c10.667 -70.667 40 -127.5 88 -170.5s108.667 -64.5 182 -64.5
c117.333 0 201.333 42.333 252 127c8 12 17.667 18 29 18h209c9.33301 0 14 -4.66699 14 -14c0 -5.33301 -1.33301 -12.333 -4 -21c-86 -221.333 -253.333 -331.666 -502 -330.999c-150 0 -275.167 49.667 -375.5 149s-150.5 227.666 -150.5 384.999zM301 1192v221
c0 13.333 7 20.333 21 21h221c13.333 0 20 -7 20 -21v-221c0 -13.333 -6.66699 -20.333 -20 -21h-221c-14 0.666992 -21 7.66699 -21 21zM348 641l531.003 -0.000976562c-40.667 124 -130.334 186 -269.001 186c-58.667 0 -111.834 -16.667 -159.501 -50
s-81.834 -78.666 -102.501 -135.999zM666.003 1192v221c0 13.333 6.66699 20.333 20 21h221c13.333 0 20.333 -7 21 -21v-221c0 -13.333 -7 -20.333 -21 -21h-221c-13.333 0.666992 -20 7.66699 -20 21z" />
    <glyph glyph-name="igrave" unicode="&#xec;" horiz-adv-x="438" 
d="M-73 1427.5c2 4.33301 6.66602 6.50098 13.999 6.50098h260c12 0 22 -7 30 -21l142 -258c8 -13.333 4.33301 -20 -11 -20h-184c-15.333 0 -27.666 6 -36.999 18l-211 260c-4 5.33301 -5 10.166 -3 14.499zM95.999 20.001v988c0 13.333 7 20 21 20h205
c13.333 0 20 -6.66699 20 -20v-988c0 -13.333 -6.66699 -20 -20 -20h-205c-14 0 -21 6.66699 -21 20z" />
    <glyph glyph-name="iacute" unicode="&#xed;" horiz-adv-x="438" 
d="M68 1155l141 257.999c8 13.333 18.333 20.333 31 21h260c6.66699 0 11 -2.16699 13 -6.5s1 -9.16602 -3 -14.499l-211 -260c-10.667 -12 -23 -18 -37 -18h-184c-14.667 0 -18 6.66699 -10 20zM96 19.999v988c0 13.333 7 20 21 20h205c13.333 0 20 -6.66699 20 -20v-988
c0 -13.333 -6.66699 -20 -20 -20h-205c-14 0 -21 6.66699 -21 20z" />
    <glyph glyph-name="icircumflex" unicode="&#xee;" horiz-adv-x="438" 
d="M-120 1112c-2 4 -0.999023 8.66602 3.00098 13.999l221 291c9.33301 10.667 19.666 16.334 30.999 17.001h168c10.667 0 21 -5.66699 31 -17l221 -291c4 -5.33301 5 -10 3 -14s-6.33301 -6 -13 -6h-193c-12 0 -24.333 6 -37 18l-96 97l-96 -97
c-12 -12 -24.333 -18 -37 -18h-192c-7.33301 0 -12 2 -14 6zM96.001 19.999v988c0 13.333 7 20 21 20h205c13.333 0 20 -6.66699 20 -20v-988c0 -13.333 -6.66699 -20 -20 -20h-205c-14 0 -21 6.66699 -21 20z" />
    <glyph glyph-name="idieresis" unicode="&#xef;" horiz-adv-x="438" 
d="M-94 1192v221c0 13.333 6.66699 20.333 20 21h221c13.333 0 20.333 -7 21 -21v-221c0 -13.333 -7 -20.333 -21 -21h-221c-13.333 0.666992 -20 7.66699 -20 21zM96 20v988c0 13.333 7 20 21 20h205c13.333 0 20 -6.66699 20 -20v-988c0 -13.333 -6.66699 -20 -20 -20
h-205c-14 0 -21 6.66699 -21 20zM270 1192v221c0 13.333 7 20.333 21 21h221c13.333 0 20 -7 20 -21v-221c0 -13.333 -6.66699 -20.333 -20 -21h-221c-14 0.666992 -21 7.66699 -21 21z" />
    <glyph glyph-name="eth" unicode="&#xf0;" horiz-adv-x="1191" 
d="M76 514c0 154 46.667 281.666 140 382.999s210.333 152 351 152c98 0 184.667 -23.333 260 -70c-35.333 58.667 -94 109 -176 151l-221 -81c-13.333 -5.33301 -22.333 -2 -27 10l-47 125c-5.33301 10.667 -1 19.334 13 26.001l57 21
c-38 9.33301 -73.667 16.666 -107 21.999c-15.333 2.66699 -20.666 12.334 -15.999 29.001l31 148c1.33301 9.33301 10.666 14 27.999 14c116 -13.333 228.667 -45.333 338 -96l258 94c4 1.33301 8.33301 2 13 2c5.33301 0 10 -4 14 -12l57 -142
c5.33301 -13.333 1.33301 -22 -12 -26l-127 -50c72.667 -69.333 126 -150.5 160 -243.5s51 -209.5 51 -349.5c0 -203.333 -45.333 -361 -136 -473s-218 -168 -382 -168c-155.333 0 -280.833 50.5 -376.5 151.5s-143.5 228.5 -143.5 382.5zM338 513.999
c0 -95.333 22.5 -171.333 67.5 -228s108.5 -85 190.5 -85c76.667 0 138.5 28.333 185.5 85s70.5 132.667 70.5 228c0 92.667 -23.5 168 -70.5 226s-108.833 87 -185.5 87c-82 0 -145.5 -28.333 -190.5 -85s-67.5 -132.667 -67.5 -228z" />
    <glyph glyph-name="ntilde" unicode="&#xf1;" 
d="M135 20l0.000976562 988.001c0 13.333 7 20 21 20h204c13.333 0 20.333 -6.66699 21 -20v-74c92.667 76.667 195.667 115 309 115c112 0 199.833 -31.167 263.5 -93.5s95.5 -146.833 95.5 -253.5v-682c0 -13.333 -7 -20 -21 -20h-205c-13.333 0 -20 6.66699 -20 20v594
c0 142 -58.667 213 -176 213c-70.667 0 -129.334 -28.333 -176.001 -85s-70 -142.334 -70 -257.001v-465c0 -13.333 -7 -20 -21 -20h-204c-14 0 -21 6.66699 -21 20zM199.001 1343.5c0 5.66699 3.99902 11.834 11.999 18.501c86 66.667 165.333 100 238 100
c57.333 0 110.5 -13.333 159.5 -40s89.833 -40 122.5 -40c36.667 0 80.334 16.667 131.001 50c6.66699 4 12.334 6 17.001 6c6.66699 0 13.334 -5.66699 20.001 -17l88 -121c2.66699 -4 4 -8.66699 4 -14s-4 -11.333 -12 -18c-86 -66.667 -165.333 -100.334 -238 -101.001
c-57.333 0 -110.5 13.333 -159.5 40s-89.833 40 -122.5 40c-36.667 0 -80.334 -16.333 -131.001 -49c-5.33301 -4 -11 -6 -17 -6c-6.66699 0 -13.334 5.33301 -20.001 16l-88 121c-2.66699 4 -4 8.83301 -4 14.5z" />
    <glyph glyph-name="ograve" unicode="&#xf2;" horiz-adv-x="1249" 
d="M76 514c0 154 52.167 281.667 156.5 383s235 152 392 152s287.833 -50.667 392.5 -152s157 -229 157 -383s-52.333 -281.5 -157 -382.5s-235.5 -151.5 -392.5 -151.5s-287.667 50.5 -392 151.5s-156.5 228.5 -156.5 382.5zM333 1427.5
c2 4.33301 6.33203 6.50098 12.999 6.50098h260c12 0 22.333 -7 31 -21l141 -258c8 -13.333 4.66699 -20 -10 -20h-184c-15.333 0 -27.666 6 -36.999 18l-211 260c-4 5.33301 -5 10.166 -3 14.499zM337.999 514.001c0 -94 26.667 -169.667 80 -227s122.333 -86 207 -86
s153.5 28.667 206.5 86s79.5 133 79.5 227s-26.5 169.667 -79.5 227s-121.833 86 -206.5 86s-153.667 -28.667 -207 -86s-80 -133 -80 -227z" />
    <glyph glyph-name="oacute" unicode="&#xf3;" horiz-adv-x="1249" 
d="M76 514c0 154 52.167 281.667 156.5 383s235 152 392 152s287.833 -50.667 392.5 -152s157 -229 157 -383s-52.333 -281.5 -157 -382.5s-235.5 -151.5 -392.5 -151.5s-287.667 50.5 -392 151.5s-156.5 228.5 -156.5 382.5zM338 514c0 -94 26.667 -169.667 80 -227
s122.333 -86 207 -86s153.5 28.667 206.5 86s79.5 133 79.5 227s-26.5 169.667 -79.5 227s-121.833 86 -206.5 86s-153.667 -28.667 -207 -86s-80 -133 -80 -227zM434 1155l140.999 257.999c8 13.333 18.333 20.333 31 21h260c6.66699 0 11.167 -2.16699 13.5 -6.5
s1.5 -9.16602 -2.5 -14.499l-211 -260c-9.33301 -12 -21.666 -18 -36.999 -18h-185c-14.667 0 -18 6.66699 -10 20z" />
    <glyph glyph-name="ocircumflex" unicode="&#xf4;" horiz-adv-x="1249" 
d="M76 514c0 154 52.167 281.667 156.5 383s235 152 392 152s287.833 -50.667 392.5 -152s157 -229 157 -383s-52.333 -281.5 -157 -382.5s-235.5 -151.5 -392.5 -151.5s-287.667 50.5 -392 151.5s-156.5 228.5 -156.5 382.5zM286 1112
c-2 4 -0.999023 8.66602 3.00098 13.999l221 291c9.33301 10.667 19.666 16.334 30.999 17.001h168c10.667 0 20.667 -5.66699 30 -17l222 -291c4 -5.33301 5 -10 3 -14s-6.66699 -6 -14 -6h-192c-12 0 -24.333 6 -37 18l-96 97l-97 -97c-12 -12 -24 -18 -36 -18h-193
c-6.66699 0 -11 2 -13 6zM338.001 513.999c0 -94 26.667 -169.667 80 -227s122.333 -86 207 -86s153.5 28.667 206.5 86s79.5 133 79.5 227s-26.5 169.667 -79.5 227s-121.833 86 -206.5 86s-153.667 -28.667 -207 -86s-80 -133 -80 -227z" />
    <glyph glyph-name="otilde" unicode="&#xf5;" horiz-adv-x="1249" 
d="M76 514c0 154 52.167 281.667 156.5 383s235 152 392 152s287.833 -50.667 392.5 -152s157 -229 157 -383s-52.333 -281.5 -157 -382.5s-235.5 -151.5 -392.5 -151.5s-287.667 50.5 -392 151.5s-156.5 228.5 -156.5 382.5zM229 1343.5
c0 5.66699 4.33594 11.834 13.0029 18.501c86 66.667 165 100 237 100c57.333 0 110.666 -13.333 159.999 -40s90.333 -40 123 -40c36.667 0 80.334 16.667 131.001 50c5.33301 4 10.666 6 15.999 6c6.66699 0 13.667 -5.66699 21 -17l88 -121c2.66699 -4 4 -8.66699 4 -14
s-4 -11.333 -12 -18c-86 -66.667 -165.333 -100.334 -238 -101.001c-57.333 0 -110.5 13.333 -159.5 40s-90.167 40 -123.5 40c-36.667 0 -80.334 -16.333 -131.001 -49c-6.66699 -4 -12 -6 -16 -6c-6.66699 0 -13.334 5.33301 -20.001 16l-89 121
c-2.66699 4 -4 8.83301 -4 14.5zM338.003 514c0 -94 26.667 -169.667 80 -227s122.333 -86 207 -86s153.5 28.667 206.5 86s79.5 133 79.5 227s-26.5 169.667 -79.5 227s-121.833 86 -206.5 86s-153.667 -28.667 -207 -86s-80 -133 -80 -227z" />
    <glyph glyph-name="odieresis" unicode="&#xf6;" horiz-adv-x="1249" 
d="M76 514c0 154 52.167 281.667 156.5 383s235 152 392 152s287.833 -50.667 392.5 -152s157 -229 157 -383s-52.333 -281.5 -157 -382.5s-235.5 -151.5 -392.5 -151.5s-287.667 50.5 -392 151.5s-156.5 228.5 -156.5 382.5zM311 1192v221c0 13.333 7 20.333 21 21h221
c13.333 0 20 -7 20 -21v-221c0 -13.333 -6.66699 -20.333 -20 -21h-221c-14 0.666992 -21 7.66699 -21 21zM338 514c0 -94 26.667 -169.667 80 -227s122.333 -86 207 -86s153.5 28.667 206.5 86s79.5 133 79.5 227s-26.5 169.667 -79.5 227s-121.833 86 -206.5 86
s-153.667 -28.667 -207 -86s-80 -133 -80 -227zM676 1192v221c0 13.333 6.66699 20.333 20 21h222c13.333 0 20 -7 20 -21v-221c0 -13.333 -6.66699 -20.333 -20 -21h-222c-13.333 0.666992 -20 7.66699 -20 21z" />
    <glyph glyph-name="divide" unicode="&#xf7;" horiz-adv-x="1171" 
d="M104 420v188c0 13.333 7 20.333 21 21h922c13.333 0 20 -7 20 -21v-188c0 -13.333 -6.66699 -20.333 -20 -21h-922c-14 0.666992 -21 7.66699 -21 21zM446 20v222c0 13.333 7 20 21 20h221c13.333 0 20.333 -6.66699 21 -20v-222c0 -13.333 -7 -20 -21 -20h-221
c-14 0 -21 6.66699 -21 20zM446 786v222c0 13.333 7 20 21 20h221c13.333 0 20.333 -6.66699 21 -20v-222c0 -13.333 -7 -20 -21 -20h-221c-14 0 -21 6.66699 -21 20z" />
    <glyph glyph-name="oslash" unicode="&#xf8;" horiz-adv-x="1249" 
d="M76 514c0 154 52.168 281.667 156.501 383s235.166 152 392.499 152c72.667 0 141.334 -11.667 206.001 -35l64 108c5.33301 8 10.666 12.333 15.999 13c2.66699 0 7 -1.66699 13 -5l88 -53c8 -5.33301 12 -10.666 12 -15.999c0 -2.66699 -1.33301 -6.66699 -4 -12
l-59 -103c142 -102.667 213 -246.667 213 -432c0 -154 -52.333 -281.5 -157 -382.5s-235.334 -151.5 -392.001 -151.5c-72.667 0 -141.667 11.333 -207 34l-64 -108c-5.33301 -8 -10.666 -12 -15.999 -12c-2.66699 0 -6.66699 1.33301 -12 4l-88 53
c-8 5.33301 -12.333 10.666 -13 15.999c0 2.66699 1.33301 7 4 13l60 102c-142 102 -213 246 -213 432zM338.001 514c0 -91.333 24.668 -165 74.001 -221l305 522c-28.667 8 -59.334 12 -92.001 12c-84.667 0 -153.667 -28.667 -207 -86s-80 -133 -80 -227zM532.002 213
c28.667 -8 59.667 -12 93 -12c84.667 0 153.5 28.667 206.5 86s79.5 133 79.5 227c0 91.333 -24.333 165 -73 221z" />
    <glyph glyph-name="ugrave" unicode="&#xf9;" 
d="M119 326v681.999c0 13.333 6.66699 20 20 20h205c13.333 0 20.333 -6.66699 21 -20v-594c0 -142 58.667 -213 176 -213c70.667 0 129.167 28.333 175.5 85s69.5 142.334 69.5 257.001v465c0 13.333 7 20 21 20h205c13.333 0 20 -6.66699 20 -20v-988
c0 -13.333 -6.66699 -20 -20 -20h-205c-13.333 0 -20.333 6.66699 -21 20v74c-92.667 -76.667 -195.667 -114.667 -309 -114c-112 0 -199.667 31 -263 93s-95 146.333 -95 253zM282 1427.5c2 4.33301 6.33301 6.50098 13 6.50098h260c12 0 22.333 -7 31 -21l141 -258
c8 -13.333 4.66699 -20 -10 -20h-185c-13.333 0 -25.333 6 -36 18l-211 260c-4 5.33301 -5 10.166 -3 14.499z" />
    <glyph glyph-name="uacute" unicode="&#xfa;" 
d="M119 326v681.999c0 13.333 6.66699 20 20 20h205c13.333 0 20.333 -6.66699 21 -20v-594c0 -142 58.667 -213 176 -213c70.667 0 129.167 28.333 175.5 85s69.5 142.334 69.5 257.001v465c0 13.333 7 20 21 20h205c13.333 0 20 -6.66699 20 -20v-988
c0 -13.333 -6.66699 -20 -20 -20h-205c-13.333 0 -20.333 6.66699 -21 20v74c-92.667 -76.667 -195.667 -114.667 -309 -114c-112 0 -199.667 31 -263 93s-95 146.333 -95 253zM389 1155l141 257.999c8 13.333 18.333 20.333 31 21h260c6.66699 0 11.167 -2.16699 13.5 -6.5
s1.16602 -9.16602 -3.50098 -14.499l-210 -260c-9.33301 -12 -21.666 -18 -36.999 -18h-185c-14.667 0 -18 6.66699 -10 20z" />
    <glyph glyph-name="ucircumflex" unicode="&#xfb;" 
d="M119 326v681.999c0 13.333 6.66699 20 20 20h205c13.333 0 20.333 -6.66699 21 -20v-594c0 -142 58.667 -213 176 -213c70.667 0 129.167 28.333 175.5 85s69.5 142.334 69.5 257.001v465c0 13.333 7 20 21 20h205c13.333 0 20 -6.66699 20 -20v-988
c0 -13.333 -6.66699 -20 -20 -20h-205c-13.333 0 -20.333 6.66699 -21 20v74c-92.667 -76.667 -195.667 -114.667 -309 -114c-112 0 -199.667 31 -263 93s-95 146.333 -95 253zM239 1112c-2 4 -0.999023 8.66602 3.00098 13.999l221 291
c9.33301 10.667 19.666 16.334 30.999 17.001h168c10.667 0 20.667 -5.66699 30 -17l221 -291c4 -5.33301 5 -10 3 -14s-6.33301 -6 -13 -6h-192c-12 0 -24.333 6 -37 18l-96 97l-97 -97c-12 -12 -24.333 -18 -37 -18h-192c-6.66699 0 -11 2 -13 6z" />
    <glyph glyph-name="udieresis" unicode="&#xfc;" 
d="M119 326v681.999c0 13.333 6.66699 20 20 20h205c13.333 0 20.333 -6.66699 21 -20v-594c0 -142 58.667 -213 176 -213c70.667 0 129.167 28.333 175.5 85s69.5 142.334 69.5 257.001v465c0 13.333 7 20 21 20h205c13.333 0 20 -6.66699 20 -20v-988
c0 -13.333 -6.66699 -20 -20 -20h-205c-13.333 0 -20.333 6.66699 -21 20v74c-92.667 -76.667 -195.667 -114.667 -309 -114c-112 0 -199.667 31 -263 93s-95 146.333 -95 253zM260 1192v221c0 13.333 7 20.333 21 21h221c13.333 0 20 -7 20 -21v-221
c0 -13.333 -6.66699 -20.333 -20 -21h-221c-14 0.666992 -21 7.66699 -21 21zM625 1192v221c0 13.333 6.66699 20.333 20 21h221c13.333 0 20.333 -7 21 -21v-221c0 -13.333 -7 -20.333 -21 -21h-221c-13.333 0.666992 -20 7.66699 -20 21z" />
    <glyph glyph-name="yacute" unicode="&#xfd;" horiz-adv-x="991" 
d="M-4 1012c0 10.667 5.33301 15.999 16 15.999h238c13.333 0 22 -6.66699 26 -20l246 -646l199 646c4 13.333 13 20 27 20h225c10.667 0 16 -4.66699 16 -14c0 -5.33301 -0.666992 -10.333 -2 -15l-379 -1099c-75.333 -217.333 -195.333 -326 -360 -326
c-84.667 0 -151 11 -199 33c-13.333 8 -20 19 -20 33v180c0 13.333 5.33301 20 16 20c8 0 30.5 -7.5 67.5 -22.5s69.167 -22.5 96.5 -22.5c52 0 93.333 17.5 124 52.5s57.667 93.5 81 175.5l-414 972c-2.66699 8.66699 -4 14.334 -4 17.001zM350 1155l142 257.999
c8 13.333 18 20.333 30 21h260c6.66699 0 11.167 -2.16699 13.5 -6.5s1.5 -9.16602 -2.5 -14.499l-211 -260c-10.667 -12 -23 -18 -37 -18h-185c-14.667 0 -18 6.66699 -10 20z" />
    <glyph glyph-name="thorn" unicode="&#xfe;" horiz-adv-x="1220" 
d="M135 -385v1798c0 13.333 7 20.333 21 21h204c13.333 0 20.333 -7 21 -21v-467c86 68 184.333 102.333 295 103c139.333 0 252 -48.167 338 -144.5s129 -226.5 129 -390.5s-43 -294 -129 -390s-198.667 -144 -338 -144c-110.667 0 -209 34.667 -295 104v-469
c0 -13.333 -7 -20.333 -21 -21h-204c-14 0.666992 -21 7.66699 -21 21zM369 514c0 -90 23.167 -164.667 69.5 -224s109 -89 188 -89s141.833 29.667 188.5 89s70 134 70 224s-23.333 164.667 -70 224s-109.5 89 -188.5 89s-141.667 -29.667 -188 -89s-69.5 -134 -69.5 -224z
" />
    <glyph glyph-name="ydieresis" unicode="&#xff;" horiz-adv-x="991" 
d="M-4 1012c0 10.667 5.33301 15.999 16 15.999h238c13.333 0 22 -6.66699 26 -20l246 -646l199 646c4 13.333 13 20 27 20h225c10.667 0 16 -4.66699 16 -14c0 -5.33301 -0.666992 -10.333 -2 -15l-379 -1099c-75.333 -217.333 -195.333 -326 -360 -326
c-84.667 0 -151 11 -199 33c-13.333 8 -20 19 -20 33v180c0 13.333 5.33301 20 16 20c8 0 30.5 -7.5 67.5 -22.5s69.167 -22.5 96.5 -22.5c52 0 93.333 17.5 124 52.5s57.667 93.5 81 175.5l-414 972c-2.66699 8.66699 -4 14.334 -4 17.001zM182 1192v221
c0 13.333 7 20.333 21 21h221c13.333 0 20 -7 20 -21v-221c0 -13.333 -6.66699 -20.333 -20 -21h-221c-14 0.666992 -21 7.66699 -21 21zM547 1192v221c0 13.333 6.66699 20.333 20 21h221c13.333 0 20.333 -7 21 -21v-221c0 -13.333 -7 -20.333 -21 -21h-221
c-13.333 0.666992 -20 7.66699 -20 21z" />
    <glyph glyph-name="Amacron" unicode="&#x100;" horiz-adv-x="1282" 
d="M-6 20c0 4 0.666992 8.33301 2 13l504 1380c4 13.333 10.667 20.333 20 21h242c9.33301 0 16 -7 20 -21l504 -1380c1.33301 -4 2 -8.33301 2 -13c0 -13.333 -7.33301 -20 -22 -20h-224c-12 0 -20 6.66699 -24 20l-123 359h-508l-123 -359c-4 -13.333 -12 -20 -24 -20
h-224c-14.667 0 -22 6.66699 -22 20zM399 1606v184c0 13.333 7 20 21 20h442c13.333 0 20.333 -6.66699 21 -20v-184c0 -13.333 -7 -20.333 -21 -21h-442c-14 0.666992 -21 7.66699 -21 21zM469 616h344l-172 500z" />
    <glyph glyph-name="amacron" unicode="&#x101;" horiz-adv-x="1103" 
d="M80 322c0 108 39.1689 192.334 117.502 253.001s177.166 91 296.499 91c69.333 0 153 -13.667 251 -41v28c0 53.333 -16.333 95.666 -49 126.999s-79.667 47 -141 47c-90 0 -152.667 -32 -188 -96c-8 -12 -17.667 -18 -29 -18h-207c-9.33301 0 -14 4 -14 12
s0.666992 14.667 2 20c20.667 88.667 69.167 161.5 145.5 218.5s173.166 85.5 290.499 85.5c132.667 0 238.5 -35.5 317.5 -106.5s118.5 -167.5 118.5 -289.5v-444c0 -79.333 13 -142.333 39 -189c8 -13.333 3.33301 -20 -14 -20h-250c-13.333 0 -20.333 6.66699 -21 20v60
c-80.667 -66.667 -178 -100 -292 -100c-106.667 0 -195.5 31 -266.5 93s-106.5 145 -106.5 249zM309.002 1200v184c0 13.333 7 20.333 21 21h442c13.333 0 20.333 -7 21 -21v-184c0 -13.333 -7 -20 -21 -20h-442c-14 0 -21 6.66699 -21 20zM317.002 328.001
c0 -39.333 15.832 -70.332 47.499 -92.999s76.167 -34 133.5 -34c65.333 0 122.833 20.167 172.5 60.5s74.5 91.833 74.5 154.5c-95.333 27.333 -175.666 41 -240.999 41c-53.333 0 -97.833 -11.333 -133.5 -34s-53.5 -54.334 -53.5 -95.001z" />
    <glyph glyph-name="Abreve" unicode="&#x102;" horiz-adv-x="1282" 
d="M-6 20c0 4 0.666992 8.33301 2 13l504 1380c4 13.333 10.667 20.333 20 21h242c9.33301 0 16 -7 20 -21l504 -1380c1.33301 -4 2 -8.33301 2 -13c0 -13.333 -7.33301 -20 -22 -20h-224c-12 0 -20 6.66699 -24 20l-123 359h-508l-123 -359c-4 -13.333 -12 -20 -24 -20
h-224c-14.667 0 -22 6.66699 -22 20zM362 1810c0 13.333 6.99805 20.333 20.998 21h160c13.333 0 20 -7 20 -21c0 -69.333 26 -104 78 -104s78 34.667 78 104c0 13.333 6.66699 20.333 20 21h160c13.333 0 20.333 -7 21 -21c0 -87.333 -25.667 -155.833 -77 -205.5
s-118.666 -74.5 -201.999 -74.5s-150.666 24.833 -201.999 74.5s-77 118.167 -77 205.5zM468.998 616h344l-172 500z" />
    <glyph glyph-name="abreve" unicode="&#x103;" horiz-adv-x="1103" 
d="M80 322c0 108 39.1689 192.334 117.502 253.001s177.166 91 296.499 91c69.333 0 153 -13.667 251 -41v28c0 53.333 -16.333 95.666 -49 126.999s-79.667 47 -141 47c-90 0 -152.667 -32 -188 -96c-8 -12 -17.667 -18 -29 -18h-207c-9.33301 0 -14 4 -14 12
s0.666992 14.667 2 20c20.667 88.667 69.167 161.5 145.5 218.5s173.166 85.5 290.499 85.5c132.667 0 238.5 -35.5 317.5 -106.5s118.5 -167.5 118.5 -289.5v-444c0 -79.333 13 -142.333 39 -189c8 -13.333 3.33301 -20 -14 -20h-250c-13.333 0 -20.333 6.66699 -21 20v60
c-80.667 -66.667 -178 -100 -292 -100c-106.667 0 -195.5 31 -266.5 93s-106.5 145 -106.5 249zM276.002 1405c0 13.333 6.99805 19.999 20.998 19.999h160c13.333 0 20 -6.66699 20 -20c0 -69.333 26 -104.166 78 -104.499s78 34.5 78 104.5c0 13.333 6.66699 20 20 20h160
c13.333 0 20.333 -6.66699 21 -20c0 -87.333 -25.667 -156 -77 -206s-118.666 -75 -201.999 -75s-150.666 25 -201.999 75s-77 118.667 -77 206zM317 328c0 -39.333 15.832 -70.332 47.499 -92.999s76.167 -34 133.5 -34c65.333 0 122.833 20.167 172.5 60.5
s74.5 91.833 74.5 154.5c-95.333 27.333 -175.666 41 -240.999 41c-53.333 0 -97.833 -11.333 -133.5 -34s-53.5 -54.334 -53.5 -95.001z" />
    <glyph glyph-name="Aogonek" unicode="&#x104;" horiz-adv-x="1282" 
d="M-6 20c0 4 0.666992 8.33105 2 12.998l504 1380c4 13.333 10.667 20.333 20 21h242c9.33301 0 16 -7 20 -21l504 -1380c1.33301 -4 2 -8.33301 2 -13c0 -8 -4.66699 -14.667 -14 -20c-53.333 -30 -80 -67.667 -80 -113c0 -49.333 28 -73.666 84 -72.999h41
c13.333 0 20 -7 20 -21v-131c0 -13.333 -6.66699 -20 -20 -20h-111c-74 0 -133.333 16.333 -178 49s-67 78.334 -67 137.001c0 60 23 110.667 69 152l-137 399h-508l-123 -359c-4 -13.333 -12 -20 -24 -20h-224c-14.667 0 -22 6.66699 -22 20zM469 615.998h344l-172 500z
" />
    <glyph glyph-name="aogonek" unicode="&#x105;" horiz-adv-x="1103" 
d="M80 322c0 108 39.1689 192.332 117.502 252.999s177.166 91 296.499 91c75.333 0 159 -13 251 -39v26c0 53.333 -16.333 95.666 -49 126.999s-79.667 47 -141 47c-90 0 -152.667 -32 -188 -96c-8 -12 -17.667 -18 -29 -18h-207c-9.33301 0 -14 4 -14 12
s0.666992 14.667 2 20c20.667 88.667 69.167 161.5 145.5 218.5s173.166 85.5 290.499 85.5c132.667 0 238.5 -35.5 317.5 -106.5s118.5 -167.5 118.5 -289.5v-444c0 -79.333 13 -142.333 39 -189c5.33301 -8 4 -14.667 -4 -20c-76.667 -35.333 -115 -73 -115 -113
c0 -49.333 28 -73.666 84 -72.999h74c13.333 0 20.333 -7 21 -21v-131c0 -13.333 -7 -20 -21 -20h-143c-74 0 -133.5 16.333 -178.5 49s-67.5 78.334 -67.5 137.001c0 56 21.667 106.667 65 152v100c-80.667 -66.667 -178 -100 -292 -100c-106.667 0 -195.5 31 -266.5 93
s-106.5 145 -106.5 249zM317.002 327.999c0 -39.333 15.832 -70.332 47.499 -92.999s76.167 -34 133.5 -34c65.333 0 122.833 20.167 172.5 60.5s74.5 91.833 74.5 154.5c-95.333 27.333 -175.666 41 -240.999 41c-53.333 0 -97.833 -11.333 -133.5 -34
s-53.5 -54.334 -53.5 -95.001z" />
    <glyph glyph-name="Cacute" unicode="&#x106;" horiz-adv-x="1447" 
d="M78 716.5c0 124.333 19.501 235.001 58.501 332.001s90.5 174.167 154.5 231.5s135 100.666 213 129.999s158.333 44 241 44c170.667 0 315.5 -46.333 434.5 -139s187.833 -217.667 206.5 -375c0 -13.333 -7.33301 -20 -22 -20h-207c-12 0 -20 6.66699 -24 20
c-53.333 184 -182.666 276.333 -387.999 277c-108 0 -201.833 -43.833 -281.5 -131.5s-119.5 -210.667 -119.5 -369s40 -281.166 120 -368.499s173.667 -131 281 -131c204.667 0 334 92.333 388 277c4 13.333 12 20 24 20h207c15.333 0 22.666 -6.66699 21.999 -20
c-19.333 -157.333 -88.333 -282.333 -207 -375s-263.334 -139 -434.001 -139c-83.333 0 -163.833 14.667 -241.5 44s-148.5 72.666 -212.5 129.999s-115.5 134.333 -154.5 231s-58.5 207.167 -58.5 331.5zM594.001 1561l140.999 258c8 13.333 18.333 20 31 20h260
c6.66699 0 11 -2 13 -6s1 -8.66699 -3 -14l-211 -260c-9.33301 -12 -21.666 -18.333 -36.999 -19h-184c-14.667 0.666992 -18 7.66699 -10 21z" />
    <glyph glyph-name="cacute" unicode="&#x107;" horiz-adv-x="1161" 
d="M74 514c0 158.667 50.834 287.497 152.501 386.497s229.5 148.5 383.5 148.5c130 0 238.667 -35.5 326 -106.5s139.333 -157.833 156 -260.5c1.33301 -5.33301 2 -12.166 2 -20.499s-5 -12.5 -15 -12.5h-200c-15.333 0 -25 6.33301 -29 19
c-38 106.667 -119.333 159.667 -244 159c-83.333 0 -149.833 -27.5 -199.5 -82.5s-74.5 -131.667 -74.5 -230s24.833 -175.166 74.5 -230.499s116.167 -83 199.5 -83c124 0 205.333 53 244 159c4 12 13.667 18.333 29 19h200c9.33301 0 14.166 -4.16699 14.499 -12.5
s-0.166992 -15.166 -1.5 -20.499c-16.667 -102.667 -68.667 -189.334 -156 -260.001s-196 -106 -326 -106c-154 0 -281.833 49.333 -383.5 148s-152.5 227.334 -152.5 386.001zM432.001 1155l141.001 257.999c8 13.333 18.333 20.333 31 21h260
c6.66699 0 11.167 -2.16699 13.5 -6.5s1.16602 -9.16602 -3.50098 -14.499l-210 -260c-10.667 -12 -23 -18 -37 -18h-185c-14.667 0 -18 6.66699 -10 20z" />
    <glyph glyph-name="Ccircumflex" unicode="&#x108;" horiz-adv-x="1447" 
d="M78 716.5c0 124.333 19.501 235.001 58.501 332.001s90.5 174.167 154.5 231.5s135 100.666 213 129.999s158.333 44 241 44c170.667 0 315.5 -46.333 434.5 -139s187.833 -217.667 206.5 -375c0 -13.333 -7.33301 -20 -22 -20h-207c-12 0 -20 6.66699 -24 20
c-53.333 184 -182.666 276.333 -387.999 277c-108 0 -201.833 -43.833 -281.5 -131.5s-119.5 -210.667 -119.5 -369s40 -281.166 120 -368.499s173.667 -131 281 -131c204.667 0 334 92.333 388 277c4 13.333 12 20 24 20h207c15.333 0 22.666 -6.66699 21.999 -20
c-19.333 -157.333 -88.333 -282.333 -207 -375s-263.334 -139 -434.001 -139c-83.333 0 -163.833 14.667 -241.5 44s-148.5 72.666 -212.5 129.999s-115.5 134.333 -154.5 231s-58.5 207.167 -58.5 331.5zM406.501 1517.5c-2.33301 4.33301 -1.16602 9.16602 3.50098 14.499
l221 291c9.33301 10.667 19.666 16 30.999 16h167c10.667 0 21 -5.33301 31 -16l221 -291c4 -5.33301 5 -10.166 3 -14.499s-6.33301 -6.5 -13 -6.5h-192c-12 0 -24.333 6.33301 -37 19l-97 96l-96 -96c-12 -12 -24.333 -18.333 -37 -19h-192
c-6.66699 0 -11.167 2.16699 -13.5 6.5z" />
    <glyph glyph-name="ccircumflex" unicode="&#x109;" horiz-adv-x="1161" 
d="M74 514c0 158.667 50.834 287.497 152.501 386.497s229.5 148.5 383.5 148.5c130 0 238.667 -35.5 326 -106.5s139.333 -157.833 156 -260.5c1.33301 -5.33301 2 -12.166 2 -20.499s-5 -12.5 -15 -12.5h-200c-15.333 0 -25 6.33301 -29 19
c-38 106.667 -119.333 159.667 -244 159c-83.333 0 -149.833 -27.5 -199.5 -82.5s-74.5 -131.667 -74.5 -230s24.833 -175.166 74.5 -230.499s116.167 -83 199.5 -83c124 0 205.333 53 244 159c4 12 13.667 18.333 29 19h200c9.33301 0 14.166 -4.16699 14.499 -12.5
s-0.166992 -15.166 -1.5 -20.499c-16.667 -102.667 -68.667 -189.334 -156 -260.001s-196 -106 -326 -106c-154 0 -281.833 49.333 -383.5 148s-152.5 227.334 -152.5 386.001zM275.501 1112c-2.33301 4 -1.16699 8.66602 3.5 13.999l221 291
c9.33301 10.667 19.333 16.334 30 17.001h168c10.667 0 21 -5.66699 31 -17l221 -291c4 -5.33301 5 -10 3 -14s-6.33301 -6 -13 -6h-192c-12 0 -24.333 6 -37 18l-97 97l-96 -97c-12 -12 -24.333 -18 -37 -18h-192c-6.66699 0 -11.167 2 -13.5 6z" />
    <glyph glyph-name="Cdotaccent" unicode="&#x10a;" horiz-adv-x="1443" 
d="M74 716.5c0 124.333 19.335 235.001 58.002 332.001s90.167 174.167 154.5 231.5s135.333 100.666 213 129.999s158.167 44 241.5 44c170.667 0 315.5 -46.333 434.5 -139s187.833 -217.667 206.5 -375c0 -13.333 -7.33301 -20 -22 -20h-207
c-12 0 -20.333 6.66699 -25 20c-53.333 184 -182.333 276.333 -387 277c-108 0 -201.833 -43.833 -281.5 -131.5s-119.5 -210.667 -119.5 -369s40 -281.166 120 -368.499s173.667 -131 281 -131c204.667 0 333.667 92.333 387 277c4 13.333 12.333 20 25 20h207
c15.333 0 22.666 -6.66699 21.999 -20c-19.333 -157.333 -88.333 -282.333 -207 -375s-263.334 -139 -434.001 -139c-83.333 0 -163.833 14.667 -241.5 44s-148.667 72.666 -213 129.999s-115.833 134.333 -154.5 231s-58 207.167 -58 331.5zM604.002 1585v234
c0 13.333 7 20 21 20h233c13.333 0 20.333 -6.66699 21 -20v-234c0 -13.333 -7 -20 -21 -20h-233c-14 0 -21 6.66699 -21 20z" />
    <glyph glyph-name="cdotaccent" unicode="&#x10b;" horiz-adv-x="1161" 
d="M74 514c0 158.667 50.834 287.497 152.501 386.497s229.5 148.5 383.5 148.5c130 0 238.667 -35.5 326 -106.5s139.333 -157.833 156 -260.5c1.33301 -5.33301 2 -12.166 2 -20.499s-5 -12.5 -15 -12.5h-200c-15.333 0 -25 6.33301 -29 19
c-38 106.667 -119.333 159.667 -244 159c-83.333 0 -149.833 -27.5 -199.5 -82.5s-74.5 -131.667 -74.5 -230s24.833 -175.166 74.5 -230.499s116.167 -83 199.5 -83c124 0 205.333 53 244 159c4 12 13.667 18.333 29 19h200c9.33301 0 14.166 -4.16699 14.499 -12.5
s-0.166992 -15.166 -1.5 -20.499c-16.667 -102.667 -68.667 -189.334 -156 -260.001s-196 -106 -326 -106c-154 0 -281.833 49.333 -383.5 148s-152.5 227.334 -152.5 386.001zM473.001 1180v233c0 13.333 7 20.333 21 21h233c13.333 0 20.333 -7 21 -21v-233
c0 -13.333 -7 -20.333 -21 -21h-233c-14 0.666992 -21 7.66699 -21 21z" />
    <glyph glyph-name="Ccaron" unicode="&#x10c;" horiz-adv-x="1443" 
d="M74 716.5c0 124.333 19.335 235.001 58.002 332.001s90.167 174.167 154.5 231.5s135.333 100.666 213 129.999s158.167 44 241.5 44c170.667 0 315.5 -46.333 434.5 -139s187.833 -217.667 206.5 -375c0 -13.333 -7.33301 -20 -22 -20h-207
c-12 0 -20.333 6.66699 -25 20c-53.333 184 -182.333 276.333 -387 277c-108 0 -201.833 -43.833 -281.5 -131.5s-119.5 -210.667 -119.5 -369s40 -281.166 120 -368.499s173.667 -131 281 -131c204.667 0 333.667 92.333 387 277c4 13.333 12.333 20 25 20h207
c15.333 0 22.666 -6.66699 21.999 -20c-19.333 -157.333 -88.333 -282.333 -207 -375s-263.334 -139 -434.001 -139c-83.333 0 -163.833 14.667 -241.5 44s-148.667 72.666 -213 129.999s-115.833 134.333 -154.5 231s-58 207.167 -58 331.5zM402.502 1833
c2.33301 4 6.83301 6.00098 13.5 6.00098h192c12 0 24.333 -6 37 -18l96 -97l97 97c12 12 24 18 36 18h193c6.66699 0 11 -2 13 -6s1 -8.66699 -3 -14l-221 -291c-9.33301 -10.667 -19.666 -16.334 -30.999 -17.001h-168c-10.667 0 -20.667 5.66699 -30 17l-221 291
c-4.66699 5.33301 -5.83398 10 -3.50098 14z" />
    <glyph glyph-name="ccaron" unicode="&#x10d;" horiz-adv-x="1161" 
d="M74 514c0 158.667 50.834 287.497 152.501 386.497s229.5 148.5 383.5 148.5c130 0 238.667 -35.5 326 -106.5s139.333 -157.833 156 -260.5c1.33301 -5.33301 2 -12.166 2 -20.499s-5 -12.5 -15 -12.5h-200c-15.333 0 -25 6.33301 -29 19
c-38 106.667 -119.333 159.667 -244 159c-83.333 0 -149.833 -27.5 -199.5 -82.5s-74.5 -131.667 -74.5 -230s24.833 -175.166 74.5 -230.499s116.167 -83 199.5 -83c124 0 205.333 53 244 159c4 12 13.667 18.333 29 19h200c9.33301 0 14.166 -4.16699 14.499 -12.5
s-0.166992 -15.166 -1.5 -20.499c-16.667 -102.667 -68.667 -189.334 -156 -260.001s-196 -106 -326 -106c-154 0 -281.833 49.333 -383.5 148s-152.5 227.334 -152.5 386.001zM271.001 1427.5c2 4.33301 6.66602 6.5 13.999 6.5h192c12 0 24.333 -6.33301 37 -19l96 -96
l97 96c12 12 24 18.333 36 19h193c6.66699 0 11 -2.16699 13 -6.5s1 -9.16602 -3 -14.499l-221 -291c-9.33301 -10.667 -19.666 -16 -30.999 -16h-168c-10.667 0 -20.667 5.33301 -30 16l-222 291c-4 5.33301 -5 10.166 -3 14.499z" />
    <glyph glyph-name="Dcaron" unicode="&#x10e;" horiz-adv-x="1349" 
d="M143 20v1393c0 13.333 7 20.333 21 21h434c194 0 354.833 -61.5 482.5 -184.5s191.5 -300.5 191.5 -532.5s-63.833 -409.5 -191.5 -532.5s-288.5 -184.5 -482.5 -184.5h-434c-14 0 -21 6.66699 -21 20zM212 1833c2 4 6.33203 6.00098 12.999 6.00098h193
c12 0 24.333 -6 37 -18l96 -97l96 97c12 12 24.333 18 37 18h193c6.66699 0 11 -2 13 -6s1 -8.66699 -3 -14l-221 -291c-9.33301 -10.667 -19.666 -16.334 -30.999 -17.001h-168c-10.667 0 -21 5.66699 -31 17l-221 291c-4 5.33301 -5 10 -3 14zM400.999 238.001
l185 0.000976562c126.667 0 228.334 40.167 305.001 120.5s115 199.666 115 357.999s-38.333 277.833 -115 358.5s-178.334 121 -305.001 121h-185v-958z" />
    <glyph glyph-name="dcaron" unicode="&#x10f;" horiz-adv-x="1490" 
d="M78 514c0 164 43 294.167 129 390.5s198.667 144.5 338 144.5c110.667 0 209 -34.333 295 -103v467c0 13.333 6.66699 20.333 20 21h205c13.333 0 20 -7 20 -21v-1393c0 -13.333 -6.66699 -20 -20 -20h-205c-13.333 0 -20 6.66699 -20 20v64
c-86 -69.333 -184.333 -104 -295 -104c-139.333 0 -252 48 -338 144s-129 226 -129 390zM336 514c0 -90 23.167 -164.667 69.5 -224s109.166 -89 188.499 -89s142.166 29.667 188.499 89s69.5 134 69.5 224s-23.167 164.667 -69.5 224s-109.166 89 -188.499 89
s-142.166 -29.667 -188.499 -89s-69.5 -134 -69.5 -224zM1182 963l0.000976562 81c0 13.333 6.66699 20.333 20 21c44 0 74.167 8.5 90.5 25.5s24.5 42.5 24.5 76.5v13h-100c-13.333 0 -20.333 6.66699 -21 20v213c0 13.333 7 20.333 21 21h233c13.333 0 20 -7 20 -21v-262
c0 -56 -17.333 -104.833 -52 -146.5s-83.334 -62.5 -146.001 -62.5h-70c-13.333 0.666992 -20 7.66699 -20 21z" />
    <glyph glyph-name="Dcroat" unicode="&#x110;" horiz-adv-x="1386" 
d="M23 618v197c0 13.333 6.66699 20.333 20 21h141v577c0 13.333 7 20.333 21 21h434c194 0 354.833 -61.5 482.5 -184.5s191.5 -300.5 191.5 -532.5s-63.833 -409.5 -191.5 -532.5s-288.5 -184.5 -482.5 -184.5h-434c-13.333 0 -20.333 6.66699 -21 20v578h-141
c-13.333 0 -20 6.66699 -20 20zM442 238l185 0.000976562c126.667 0 228.334 40.167 305.001 120.5s115 199.666 115 357.999s-38.333 277.833 -115 358.5s-178.334 121 -305.001 121h-185v-360h265c13.333 0 20 -7 20 -21v-197c0 -13.333 -6.66699 -20 -20 -20h-265v-360z
" />
    <glyph glyph-name="dcroat" unicode="&#x111;" horiz-adv-x="1220" 
d="M78 514c0 164 43 294.167 129 390.5s198.667 144.5 338 144.5c110.667 0 209 -34.333 295 -103v150h-234c-13.333 0 -20 6.66699 -20 20v168c0 13.333 6.66699 20.333 20 21h234v108c0 13.333 6.66699 20.333 20 21h205c13.333 0 20 -7 20 -21v-108h105
c13.333 0 20 -7 20 -21v-168c0 -13.333 -6.66699 -20 -20 -20h-105v-1076c0 -13.333 -6.66699 -20 -20 -20h-205c-13.333 0 -20 6.66699 -20 20v64c-86 -69.333 -184.333 -104 -295 -104c-139.333 0 -252 48 -338 144s-129 226 -129 390zM336 514
c0 -90 23.167 -164.667 69.5 -224s109.166 -89 188.499 -89s142.166 29.667 188.499 89s69.5 134 69.5 224s-23.167 164.667 -69.5 224s-109.166 89 -188.499 89s-142.166 -29.667 -188.499 -89s-69.5 -134 -69.5 -224z" />
    <glyph glyph-name="Emacron" unicode="&#x112;" horiz-adv-x="1196" 
d="M143 20v1393c0 13.333 7 20.333 21 21h883c13.333 0 20 -7 20 -21v-196c0 -13.333 -6.66699 -20.333 -20 -21h-646v-324h584c13.333 0 20.333 -6.66699 21 -20v-197c0 -13.333 -7 -20 -21 -20h-584v-397h676c13.333 0 20.333 -7 21 -21v-197c0 -13.333 -7 -20 -21 -20
h-913c-14 0 -21 6.66699 -21 20zM358 1606v184c0 13.333 7 20 21 20h442c13.333 0 20.333 -6.66699 21 -20v-184c0 -13.333 -7 -20.333 -21 -21h-442c-14 0.666992 -21 7.66699 -21 21z" />
    <glyph glyph-name="emacron" unicode="&#x113;" horiz-adv-x="1214" 
d="M82 514c0 155.333 51.167 283.333 153.5 384s227.166 151 374.499 151c162.667 0 291.834 -54 387.501 -162s143.5 -239.667 143.5 -395v-35c0 -13.333 -7 -20.333 -21 -21h-780c10.667 -70.667 40 -127.5 88 -170.5s108.667 -64.5 182 -64.5
c117.333 0 201.333 42.333 252 127c8 12 17.667 18 29 18h209c9.33301 0 14 -4.66699 14 -14c0 -5.33301 -1.33301 -12.333 -4 -21c-86 -221.333 -253.333 -331.666 -502 -330.999c-150 0 -275.167 49.667 -375.5 149s-150.5 227.666 -150.5 384.999zM348 641
l531.003 -0.000976562c-40.667 124 -130.334 186 -269.001 186c-58.667 0 -111.834 -16.667 -159.501 -50s-81.834 -78.666 -102.501 -135.999zM369.003 1200v184c0 13.333 6.66699 20.333 20 21h442c13.333 0 20.333 -7 21 -21v-184c0 -13.333 -7 -20 -21 -20h-442
c-13.333 0 -20 6.66699 -20 20z" />
    <glyph glyph-name="Ebreve" unicode="&#x114;" horiz-adv-x="1196" 
d="M143 20v1393c0 13.333 7 20.333 21 21h883c13.333 0 20 -7 20 -21v-196c0 -13.333 -6.66699 -20.333 -20 -21h-646v-324h584c13.333 0 20.333 -6.66699 21 -20v-197c0 -13.333 -7 -20 -21 -20h-584v-397h676c13.333 0 20.333 -7 21 -21v-197c0 -13.333 -7 -20 -21 -20
h-913c-14 0 -21 6.66699 -21 20zM315 1810c0 13.333 6.99902 20.333 20.999 21h160c13.333 0 20 -7 20 -21c0 -69.333 26 -104 78 -104s78 34.667 78 104c0 13.333 6.66699 20.333 20 21h160c13.333 0 20 -7 20 -21c0 -87.333 -25.5 -155.833 -76.5 -205.5
s-118.167 -74.5 -201.5 -74.5s-150.666 24.833 -201.999 74.5s-77 118.167 -77 205.5z" />
    <glyph glyph-name="ebreve" unicode="&#x115;" horiz-adv-x="1214" 
d="M82 514c0 155.333 51.167 283.333 153.5 384s227.166 151 374.499 151c162.667 0 291.834 -54 387.501 -162s143.5 -239.667 143.5 -395v-35c0 -13.333 -7 -20.333 -21 -21h-780c10.667 -70.667 40 -127.5 88 -170.5s108.667 -64.5 182 -64.5
c117.333 0 201.333 42.333 252 127c8 12 17.667 18 29 18h209c9.33301 0 14 -4.66699 14 -14c0 -5.33301 -1.33301 -12.333 -4 -21c-86 -221.333 -253.333 -331.666 -502 -330.999c-150 0 -275.167 49.667 -375.5 149s-150.5 227.666 -150.5 384.999zM330 1405
c0 13.333 6.66602 19.999 19.999 19.999h160c13.333 0 20 -6.66699 20 -20c0 -69.333 26 -104.166 78 -104.499s78 34.5 78 104.5c0 13.333 7 20 21 20h159c13.333 0 20.333 -6.66699 21 -20c0 -87.333 -25.667 -156 -77 -206s-118.666 -75 -201.999 -75
s-150.5 25 -201.5 75s-76.5 118.667 -76.5 206zM347.999 640.999l531.003 -0.000976562c-40.667 124 -130.334 186 -269.001 186c-58.667 0 -111.834 -16.667 -159.501 -50s-81.834 -78.666 -102.501 -135.999z" />
    <glyph glyph-name="Edotaccent" unicode="&#x116;" horiz-adv-x="1196" 
d="M143 20v1393c0 13.333 7 20.333 21 21h883c13.333 0 20 -7 20 -21v-196c0 -13.333 -6.66699 -20.333 -20 -21h-646v-324h584c13.333 0 20.333 -6.66699 21 -20v-197c0 -13.333 -7 -20 -21 -20h-584v-397h676c13.333 0 20.333 -7 21 -21v-197c0 -13.333 -7 -20 -21 -20
h-913c-14 0 -21 6.66699 -21 20zM475 1585v234c0 13.333 7 20 21 20h233c13.333 0 20.333 -6.66699 21 -20v-234c0 -13.333 -7 -20 -21 -20h-233c-14 0 -21 6.66699 -21 20z" />
    <glyph glyph-name="edotaccent" unicode="&#x117;" horiz-adv-x="1214" 
d="M82 514c0 155.333 51.167 283.333 153.5 384s227.166 151 374.499 151c162.667 0 291.834 -54 387.501 -162s143.5 -239.667 143.5 -395v-35c0 -13.333 -7 -20.333 -21 -21h-780c10.667 -70.667 40 -127.5 88 -170.5s108.667 -64.5 182 -64.5
c117.333 0 201.333 42.333 252 127c8 12 17.667 18 29 18h209c9.33301 0 14 -4.66699 14 -14c0 -5.33301 -1.33301 -12.333 -4 -21c-86 -221.333 -253.333 -331.666 -502 -330.999c-150 0 -275.167 49.667 -375.5 149s-150.5 227.666 -150.5 384.999zM348 641
l531.003 -0.000976562c-40.667 124 -130.334 186 -269.001 186c-58.667 0 -111.834 -16.667 -159.501 -50s-81.834 -78.666 -102.501 -135.999zM477.003 1180v233c0 13.333 7 20.333 21 21h233c13.333 0 20.333 -7 21 -21v-233c0 -13.333 -7 -20.333 -21 -21h-233
c-14 0.666992 -21 7.66699 -21 21z" />
    <glyph glyph-name="Eogonek" unicode="&#x118;" horiz-adv-x="1196" 
d="M143 20l-0.000976562 1393c0 13.333 7 20.333 21 21h883c13.333 0 20 -7 20 -21v-196c0 -13.333 -6.66699 -20.333 -20 -21h-646v-324h584c13.333 0 20.333 -6.66699 21 -20v-197c0 -13.333 -7 -20 -21 -20h-584v-397h676c13.333 0 20.333 -7 21 -21v-197
c0 -9.33301 -5 -16 -15 -20c-53.333 -22 -79.666 -59.667 -78.999 -113c0 -49.333 27.667 -73.666 83 -72.999h41c13.333 0 20.333 -7 21 -21v-131c0 -13.333 -7 -20 -21 -20h-110c-74 0 -133.5 16.333 -178.5 49s-67.5 78.334 -67.5 137.001c0 72.667 31.333 130 94 172
h-702c-14 0 -21 6.66699 -21 20z" />
    <glyph glyph-name="eogonek" unicode="&#x119;" horiz-adv-x="1214" 
d="M82 514c0 155.333 51.167 283.33 153.5 383.997s227.166 151 374.499 151c162.667 0 291.834 -54 387.501 -162s143.5 -239.667 143.5 -395v-35c0 -13.333 -7 -20.333 -21 -21h-788c12 -68 43 -124.167 93 -168.5s111.667 -66.5 185 -66.5
c117.333 0 201.333 42.333 252 127c8 12 17.667 18 29 18h209c9.33301 0 14 -4.66699 14 -14c0 -5.33301 -1.33301 -12.333 -4 -21c-31.333 -82 -73.333 -147.167 -126 -195.5s-119.334 -86.833 -200.001 -115.5c-53.333 -19.333 -79.666 -57 -78.999 -113
c0 -49.333 27.667 -73.666 83 -72.999h41c13.333 0 20.333 -7 21 -21v-131c0 -13.333 -7 -20 -21 -20h-110c-74 0 -133.5 16.333 -178.5 49s-67.5 78.334 -67.5 137.001c0 62.667 24 114.667 72 156c-135.333 15.333 -246.333 71.333 -333 168s-130 217.334 -130 362.001z
M348 640.997l531.003 -0.000976562c-40.667 124 -130.334 186 -269.001 186c-58.667 0 -111.834 -16.667 -159.501 -50s-81.834 -78.666 -102.501 -135.999z" />
    <glyph glyph-name="Ecaron" unicode="&#x11a;" horiz-adv-x="1196" 
d="M143 20v1393c0 13.333 7 20.333 21 21h883c13.333 0 20 -7 20 -21v-196c0 -13.333 -6.66699 -20.333 -20 -21h-646v-324h584c13.333 0 20.333 -6.66699 21 -20v-197c0 -13.333 -7 -20 -21 -20h-584v-397h676c13.333 0 20.333 -7 21 -21v-197c0 -13.333 -7 -20 -21 -20
h-913c-14 0 -21 6.66699 -21 20zM259 1833c2 4 6.33203 6.00098 12.999 6.00098h193c12 0 24.333 -6 37 -18l96 -97l96 97c12 12 24.333 18 37 18h193c6.66699 0 11 -2 13 -6s1 -8.66699 -3 -14l-221 -291c-9.33301 -10.667 -19.666 -16.334 -30.999 -17.001h-168
c-10.667 0 -21 5.66699 -31 17l-221 291c-4 5.33301 -5 10 -3 14z" />
    <glyph glyph-name="ecaron" unicode="&#x11b;" horiz-adv-x="1214" 
d="M82 514c0 155.333 51.167 283.333 153.5 384s227.166 151 374.499 151c162.667 0 291.834 -54 387.501 -162s143.5 -239.667 143.5 -395v-35c0 -13.333 -7 -20.333 -21 -21h-780c10.667 -70.667 40 -127.5 88 -170.5s108.667 -64.5 182 -64.5
c117.333 0 201.333 42.333 252 127c8 12 17.667 18 29 18h209c9.33301 0 14 -4.66699 14 -14c0 -5.33301 -1.33301 -12.333 -4 -21c-86 -221.333 -253.333 -331.666 -502 -330.999c-150 0 -275.167 49.667 -375.5 149s-150.5 227.666 -150.5 384.999zM269 1427.5
c2 4.33301 6.66602 6.5 13.999 6.5h192c12 0 24.333 -6.33301 37 -19l96 -96l97 96c12 12 24 18.333 36 19h193c6.66699 0 11 -2.16699 13 -6.5s1 -9.16602 -3 -14.499l-221 -291c-9.33301 -10.667 -19.666 -16 -30.999 -16h-168c-10.667 0 -20.667 5.33301 -30 16l-222 291
c-4 5.33301 -5 10.166 -3 14.499zM347.999 641l531.003 -0.000976562c-40.667 124 -130.334 186 -269.001 186c-58.667 0 -111.834 -16.667 -159.501 -50s-81.834 -78.666 -102.501 -135.999z" />
    <glyph glyph-name="Gcircumflex" unicode="&#x11c;" horiz-adv-x="1460" 
d="M78 717c0 116 19.166 221.832 57.499 317.499s89.833 173.5 154.5 233.5s137.334 106 218.001 138s164.667 48 252 48c158.667 0 295.5 -41.667 410.5 -125s182.833 -194.666 203.5 -333.999c0 -13.333 -7.33301 -20 -22 -20h-215c-12 0 -20.333 6.66699 -25 20
c-50.667 147.333 -168 221.333 -352 222c-112 0 -209.333 -44.167 -292 -132.5s-124 -210.833 -124 -367.5c0 -154 39.667 -275.833 119 -365.5s181 -134.5 305 -134.5c169.333 0 292.333 58.667 369 176v121h-379c-13.333 0 -20.333 7 -21 21v196c0 13.333 7 20.333 21 21
h616c13.333 0 20.333 -7 21 -21v-354c0 -31.333 -7 -57.333 -21 -78c-60 -96.667 -142.5 -174 -247.5 -232s-217.833 -87 -338.5 -87c-203.333 0 -372.5 64.167 -507.5 192.5s-202.5 309.833 -202.5 544.5zM420.999 1517.5c-2 4.33301 -0.999023 9.16602 3.00098 14.499
l221 291c9.33301 10.667 19.666 16 30.999 16h168c10.667 0 20.667 -5.33301 30 -16l222 -291c4 -5.33301 5 -10.166 3 -14.499s-6.66699 -6.5 -14 -6.5h-192c-12 0 -24.333 6.33301 -37 19l-96 96l-96 -96c-12 -12 -24.333 -18.333 -37 -19h-193
c-6.66699 0 -11 2.16699 -13 6.5z" />
    <glyph glyph-name="gcircumflex" unicode="&#x11d;" horiz-adv-x="1191" 
d="M74 526c0 154 43.6689 279.668 131.002 377.001s200.666 146 339.999 146c113.333 0 208.666 -34.333 285.999 -103v62c0 13.333 7 20 21 20h205c13.333 0 20 -6.66699 20 -20v-906c0 -176 -43 -308 -129 -396s-210.333 -132 -373 -132c-120 0 -222 31.667 -306 95
s-130.667 149 -140 257c0 13.333 7 20.333 21 21h204c12 0 19 -7 21 -21c18 -87.333 89 -131 213 -131c82 0 143 24 183 72s60 114.333 60 199v36c-79.333 -65.333 -172 -98 -278 -98c-143.333 0 -259 48.167 -347 144.5s-132 222.166 -132 377.499zM239.002 1112
c-2 4 -0.999023 8.66602 3.00098 13.999l221 291c9.33301 10.667 19.666 16.334 30.999 17.001h168c10.667 0 20.667 -5.66699 30 -17l221 -291c4 -5.33301 5 -10 3 -14s-6.33301 -6 -13 -6h-192c-12 0 -24.333 6 -37 18l-96 97l-97 -97c-12 -12 -24.333 -18 -37 -18h-192
c-6.66699 0 -11 2 -13 6zM336.003 526c0 -87.333 23.5 -159.333 70.5 -216s109.5 -85 187.5 -85s139.833 28 185.5 84s68.5 128.333 68.5 217s-22.833 161 -68.5 217s-107.5 84 -185.5 84s-140.5 -28.333 -187.5 -85s-70.5 -128.667 -70.5 -216z" />
    <glyph glyph-name="Gbreve" unicode="&#x11e;" horiz-adv-x="1460" 
d="M78 717c0 116 19.166 221.832 57.499 317.499s89.833 173.5 154.5 233.5s137.334 106 218.001 138s164.667 48 252 48c158.667 0 295.5 -41.667 410.5 -125s182.833 -194.666 203.5 -333.999c0 -13.333 -7.33301 -20 -22 -20h-215c-12 0 -20.333 6.66699 -25 20
c-50.667 147.333 -168 221.333 -352 222c-112 0 -209.333 -44.167 -292 -132.5s-124 -210.833 -124 -367.5c0 -154 39.667 -275.833 119 -365.5s181 -134.5 305 -134.5c169.333 0 292.333 58.667 369 176v121h-379c-13.333 0 -20.333 7 -21 21v196c0 13.333 7 20.333 21 21
h616c13.333 0 20.333 -7 21 -21v-354c0 -31.333 -7 -57.333 -21 -78c-60 -96.667 -142.5 -174 -247.5 -232s-217.833 -87 -338.5 -87c-203.333 0 -372.5 64.167 -507.5 192.5s-202.5 309.833 -202.5 544.5zM480.999 1810c0 13.333 6.99902 20.333 20.999 21h160
c13.333 0 20 -7 20 -21c0 -69.333 26 -104 78 -104s78 34.667 78 104c0 13.333 6.66699 20.333 20 21h160c13.333 0 20 -7 20 -21c0 -87.333 -25.5 -155.833 -76.5 -205.5s-118.167 -74.5 -201.5 -74.5s-150.666 24.833 -201.999 74.5s-77 118.167 -77 205.5z" />
    <glyph glyph-name="gbreve" unicode="&#x11f;" horiz-adv-x="1191" 
d="M74 526c0 154 43.6689 279.668 131.002 377.001s200.666 146 339.999 146c113.333 0 208.666 -34.333 285.999 -103v62c0 13.333 7 20 21 20h205c13.333 0 20 -6.66699 20 -20v-906c0 -176 -43 -308 -129 -396s-210.333 -132 -373 -132c-120 0 -222 31.667 -306 95
s-130.667 149 -140 257c0 13.333 7 20.333 21 21h204c12 0 19 -7 21 -21c18 -87.333 89 -131 213 -131c82 0 143 24 183 72s60 114.333 60 199v36c-79.333 -65.333 -172 -98 -278 -98c-143.333 0 -259 48.167 -347 144.5s-132 222.166 -132 377.499zM303.002 1405
c0 13.333 6.99902 19.999 20.999 19.999h159c13.333 0 20.333 -6.66699 21 -20c0 -69.333 25.833 -104.166 77.5 -104.499s77.5 34.5 77.5 104.5c0 13.333 7 20 21 20h160c13.333 0 20 -6.66699 20 -20c0 -87.333 -25.5 -156 -76.5 -206s-118.167 -75 -201.5 -75
s-150.666 25 -201.999 75s-77 118.667 -77 206zM336.001 526c0 -87.333 23.5 -159.333 70.5 -216s109.5 -85 187.5 -85s139.833 28 185.5 84s68.5 128.333 68.5 217s-22.833 161 -68.5 217s-107.5 84 -185.5 84s-140.5 -28.333 -187.5 -85s-70.5 -128.667 -70.5 -216z" />
    <glyph glyph-name="Gdotaccent" unicode="&#x120;" horiz-adv-x="1460" 
d="M78 717c0 116 19.166 221.832 57.499 317.499s89.833 173.5 154.5 233.5s137.334 106 218.001 138s164.667 48 252 48c158.667 0 295.5 -41.667 410.5 -125s182.833 -194.666 203.5 -333.999c0 -13.333 -7.33301 -20 -22 -20h-215c-12 0 -20.333 6.66699 -25 20
c-50.667 147.333 -168 221.333 -352 222c-112 0 -209.333 -44.167 -292 -132.5s-124 -210.833 -124 -367.5c0 -154 39.667 -275.833 119 -365.5s181 -134.5 305 -134.5c169.333 0 292.333 58.667 369 176v121h-379c-13.333 0 -20.333 7 -21 21v196c0 13.333 7 20.333 21 21
h616c13.333 0 20.333 -7 21 -21v-354c0 -31.333 -7 -57.333 -21 -78c-60 -96.667 -142.5 -174 -247.5 -232s-217.833 -87 -338.5 -87c-203.333 0 -372.5 64.167 -507.5 192.5s-202.5 309.833 -202.5 544.5zM622.999 1585v234c0 13.333 6.66699 20 20 20h234
c13.333 0 20 -6.66699 20 -20v-234c0 -13.333 -6.66699 -20 -20 -20h-234c-13.333 0 -20 6.66699 -20 20z" />
    <glyph glyph-name="gdotaccent" unicode="&#x121;" horiz-adv-x="1191" 
d="M74 526c0 154 43.6689 279.668 131.002 377.001s200.666 146 339.999 146c113.333 0 208.666 -34.333 285.999 -103v62c0 13.333 7 20 21 20h205c13.333 0 20 -6.66699 20 -20v-906c0 -176 -43 -308 -129 -396s-210.333 -132 -373 -132c-120 0 -222 31.667 -306 95
s-130.667 149 -140 257c0 13.333 7 20.333 21 21h204c12 0 19 -7 21 -21c18 -87.333 89 -131 213 -131c82 0 143 24 183 72s60 114.333 60 199v36c-79.333 -65.333 -172 -98 -278 -98c-143.333 0 -259 48.167 -347 144.5s-132 222.166 -132 377.499zM336.002 526.001
c0 -87.333 23.5 -159.333 70.5 -216s109.5 -85 187.5 -85s139.833 28 185.5 84s68.5 128.333 68.5 217s-22.833 161 -68.5 217s-107.5 84 -185.5 84s-140.5 -28.333 -187.5 -85s-70.5 -128.667 -70.5 -216zM442.002 1180v233c0 13.333 7 20.333 21 21h233
c13.333 0 20.333 -7 21 -21v-233c0 -13.333 -7 -20.333 -21 -21h-233c-14 0.666992 -21 7.66699 -21 21z" />
    <glyph glyph-name="Gcommaaccent" unicode="&#x122;" horiz-adv-x="1460" 
d="M78 717c0 116 19.166 221.832 57.499 317.499s89.833 173.5 154.5 233.5s137.334 106 218.001 138s164.667 48 252 48c158.667 0 295.5 -41.667 410.5 -125s182.833 -194.666 203.5 -333.999c0 -13.333 -7.33301 -20 -22 -20h-215c-12 0 -20.333 6.66699 -25 20
c-50.667 147.333 -168 221.333 -352 222c-112 0 -209.333 -44.167 -292 -132.5s-124 -210.833 -124 -367.5c0 -154 39.667 -275.833 119 -365.5s181 -134.5 305 -134.5c169.333 0 292.333 58.667 369 176v121h-379c-13.333 0 -20.333 7 -21 21v196c0 13.333 7 20.333 21 21
h616c13.333 0 20.333 -7 21 -21v-354c0 -31.333 -7 -57.333 -21 -78c-60 -96.667 -142.5 -174 -247.5 -232s-217.833 -87 -338.5 -87c-203.333 0 -372.5 64.167 -507.5 192.5s-202.5 309.833 -202.5 544.5zM656.999 -102.001c0 13.333 7 20 21 20h221
c13.333 0 20.333 -6.66699 21 -20v-281c0 -132.667 -59.667 -199 -179 -199h-55c-13.333 0 -20 7 -20 21v86c0 13.333 6.66699 20 20 20c34 0 58.167 6.83301 72.5 20.5s21.5 35.5 21.5 65.5v25h-102c-13.333 0 -20.333 6.66699 -21 20v222z" />
    <glyph glyph-name="gcommaaccent" unicode="&#x123;" horiz-adv-x="1191" 
d="M74 526c0 154 43.6689 279.668 131.002 377.001s200.666 146 339.999 146c113.333 0 208.666 -34.333 285.999 -103v62c0 13.333 7 20 21 20h205c13.333 0 20 -6.66699 20 -20v-906c0 -176 -43 -308 -129 -396s-210.333 -132 -373 -132c-120 0 -222 31.667 -306 95
s-130.667 149 -140 257c0 13.333 7 20.333 21 21h204c12 0 19 -7 21 -21c18 -87.333 89 -131 213 -131c82 0 143 24 183 72s60 114.333 60 199v36c-79.333 -65.333 -172 -98 -278 -98c-143.333 0 -259 48.167 -347 144.5s-132 222.166 -132 377.499zM336.002 526.001
c0 -87.333 23.5 -159.333 70.5 -216s109.5 -85 187.5 -85s139.833 28 185.5 84s68.5 128.333 68.5 217s-22.833 161 -68.5 217s-107.5 84 -185.5 84s-140.5 -28.333 -187.5 -85s-70.5 -128.667 -70.5 -216zM436.002 1108v262c0 56 17.5 104.833 52.5 146.5
s83.833 62.5 146.5 62.5h70c13.333 0 20 -6.66699 20 -20v-82c0 -13.333 -6.66699 -20.333 -20 -21c-44 0 -74.167 -8.5 -90.5 -25.5s-24.5 -42.5 -24.5 -76.5v-13h100c13.333 0 20.333 -6.66699 21 -20v-213c0 -13.333 -7 -20.333 -21 -21h-233
c-14 0.666992 -21 7.66699 -21 21z" />
    <glyph glyph-name="Hcircumflex" unicode="&#x124;" horiz-adv-x="1388" 
d="M139 20v1393c0 13.333 7 20.333 21 21h217c13.333 0 20 -7 20 -21v-547h594v547c0 13.333 7 20.333 21 21h217c13.333 0 20 -7 20 -21v-1393c0 -13.333 -6.66699 -20 -20 -20h-217c-13.333 0 -20.333 6.66699 -21 20v609h-594v-609c0 -13.333 -6.66699 -20 -20 -20h-217
c-14 0 -21 6.66699 -21 20zM355 1517.5c-2 4.33301 -1 9.16602 3 14.499l222 291c9.33301 10.667 19.333 16 30 16h168c10.667 0 21 -5.33301 31 -16l221 -291c4 -5.33301 5 -10.166 3 -14.499s-6.33301 -6.5 -13 -6.5h-193c-12 0 -24 6.33301 -36 19l-97 96l-96 -96
c-12 -12 -24.333 -18.333 -37 -19h-192c-7.33301 0 -12 2.16699 -14 6.5z" />
    <glyph glyph-name="hcircumflex" unicode="&#x125;" horiz-adv-x="1183" 
d="M134 1517.5c-2 4.33301 -0.999023 9.16602 3.00098 14.499l221 291c9.33301 10.667 19.666 16 30.999 16h168c10.667 0 21 -5.33301 31 -16l221 -291c4 -5.33301 5 -10.166 3 -14.499s-6.33301 -6.5 -13 -6.5h-193c-12 0 -24.333 6.33301 -37 19l-96 96l-96 -96
c-12 -12 -24.333 -18.333 -37 -19h-193c-6.66699 0 -11 2.16699 -13 6.5zM135.001 20v1393c0 13.333 7 20.333 21 21h204c13.333 0 20.333 -7 21 -21v-483c86 79.333 192.333 119 319 119c116 0 206.5 -30.5 271.5 -91.5s97.5 -155.5 97.5 -283.5v-654
c0 -13.333 -6.66699 -20 -20 -20h-205c-13.333 0 -20.333 6.66699 -21 20v598c0 139.333 -60.667 209 -182 209c-72.667 0 -134.167 -30.333 -184.5 -91s-75.5 -145.667 -75.5 -255v-461c0 -13.333 -7 -20 -21 -20h-204c-14 0 -21 6.66699 -21 20z" />
    <glyph glyph-name="Hbar" unicode="&#x126;" horiz-adv-x="1388" 
d="M-16 1030v180c0 13.333 6.66699 20.333 20 21h135v182c0 13.333 7 20.333 21 21h217c13.333 0 20 -7 20 -21v-182h594v182c0 13.333 7 20.333 21 21h217c13.333 0 20 -7 20 -21v-182h135c13.333 0 20.333 -7 21 -21v-180c0 -13.333 -7 -20 -21 -20h-135v-990
c0 -13.333 -6.66699 -20 -20 -20h-217c-13.333 0 -20.333 6.66699 -21 20v609h-594v-609c0 -13.333 -6.66699 -20 -20 -20h-217c-13.333 0 -20.333 6.66699 -21 20v990h-135c-13.333 0 -20 6.66699 -20 20zM397 866h594v144h-594v-144z" />
    <glyph glyph-name="hbar" unicode="&#x127;" horiz-adv-x="1183" 
d="M-20 1116v168c0 13.333 6.66699 20.333 20 21h135v108c0 13.333 7 20.333 21 21h204c13.333 0 20.333 -7 21 -21v-108h219c13.333 0 20.333 -7 21 -21v-168c0 -13.333 -7 -20 -21 -20h-219v-166c86 79.333 192.333 119 319 119c116 0 206.5 -30.5 271.5 -91.5
s97.5 -155.5 97.5 -283.5v-654c0 -13.333 -6.66699 -20 -20 -20h-205c-13.333 0 -20.333 6.66699 -21 20v598c0 139.333 -60.667 209 -182 209c-72.667 0 -134.167 -30.333 -184.5 -91s-75.5 -145.667 -75.5 -255v-461c0 -13.333 -7 -20 -21 -20h-204
c-13.333 0 -20.333 6.66699 -21 20v1076h-135c-13.333 0 -20 6.66699 -20 20z" />
    <glyph glyph-name="Itilde" unicode="&#x128;" horiz-adv-x="516" 
d="M-135 1749c0 5.33301 4 11.333 12 18c86 66.667 165.333 100.334 238 101.001c57.333 0 110.5 -13.333 159.5 -40s89.833 -40 122.5 -40c36.667 0 80.334 16.333 131.001 49c5.33301 4 11 6 17 6c6.66699 0 13.334 -5.33301 20.001 -16l88 -121
c2.66699 -4 4 -8.83301 4 -14.5s-4 -11.834 -12 -18.501c-86 -66.667 -165 -100 -237 -100c-57.333 0 -110.666 13.333 -159.999 40s-90.333 40 -123 40c-36.667 0 -80.334 -16.333 -131.001 -49c-6.66699 -4 -12.334 -6.33301 -17.001 -7
c-6.66699 0 -13.334 5.66699 -20.001 17l-88 121c-2.66699 4 -4 8.66699 -4 14zM129 20v1393c0 13.333 7 20.333 21 21h217c13.333 0 20 -7 20 -21v-1393c0 -13.333 -6.66699 -20 -20 -20h-217c-14 0 -21 6.66699 -21 20z" />
    <glyph glyph-name="itilde" unicode="&#x129;" horiz-adv-x="438" 
d="M-176 1343.5c0 5.66699 3.99805 11.834 11.998 18.501c86 66.667 165.333 100 238 100c57.333 0 110.5 -13.333 159.5 -40s89.833 -40 122.5 -40c36.667 0 80.334 16.667 131.001 50c5.33301 4 11 6 17 6c6.66699 0 13.334 -5.66699 20.001 -17l88 -121
c2.66699 -4 4 -8.66699 4 -14s-4 -11.333 -12 -18c-86 -66.667 -165 -100.334 -237 -101.001c-57.333 0 -110.666 13.333 -159.999 40s-90.333 40 -123 40c-36.667 0 -80.334 -16.333 -131.001 -49c-6.66699 -4 -12 -6 -16 -6c-6.66699 0 -13.667 5.33301 -21 16l-88 121
c-2.66699 4 -4 8.83301 -4 14.5zM95.998 20v988c0 13.333 7 20 21 20h205c13.333 0 20 -6.66699 20 -20v-988c0 -13.333 -6.66699 -20 -20 -20h-205c-14 0 -21 6.66699 -21 20z" />
    <glyph glyph-name="Imacron" unicode="&#x12a;" horiz-adv-x="516" 
d="M16 1606v184c0 13.333 7 20 21 20h442c13.333 0 20.333 -6.66699 21 -20v-184c0 -13.333 -7 -20.333 -21 -21h-442c-14 0.666992 -21 7.66699 -21 21zM129 20v1393c0 13.333 7 20.333 21 21h217c13.333 0 20 -7 20 -21v-1393c0 -13.333 -6.66699 -20 -20 -20h-217
c-14 0 -21 6.66699 -21 20z" />
    <glyph glyph-name="imacron" unicode="&#x12b;" horiz-adv-x="438" 
d="M-23 1200v184c0 13.333 7 20.333 21 21h442c13.333 0 20.333 -7 21 -21v-184c0 -13.333 -7 -20 -21 -20h-442c-14 0 -21 6.66699 -21 20zM96 20v988c0 13.333 7 20 21 20h205c13.333 0 20 -6.66699 20 -20v-988c0 -13.333 -6.66699 -20 -20 -20h-205
c-14 0 -21 6.66699 -21 20z" />
    <glyph glyph-name="Ibreve" unicode="&#x12c;" horiz-adv-x="516" 
d="M-20 1810c0 13.333 6.66602 20.333 19.999 21h160c13.333 0 20 -7 20 -21c0 -69.333 26 -104 78 -104s78 34.667 78 104c0 13.333 6.66699 20.333 20 21h160c13.333 0 20.333 -7 21 -21c0 -87.333 -25.667 -155.833 -77 -205.5s-118.666 -74.5 -201.999 -74.5
s-150.5 24.833 -201.5 74.5s-76.5 118.167 -76.5 205.5zM128.999 20v1393c0 13.333 7 20.333 21 21h217c13.333 0 20 -7 20 -21v-1393c0 -13.333 -6.66699 -20 -20 -20h-217c-14 0 -21 6.66699 -21 20z" />
    <glyph glyph-name="ibreve" unicode="&#x12d;" horiz-adv-x="438" 
d="M-59 1405c0 13.333 6.66602 19.999 19.999 19.999h160c13.333 0 20 -6.66699 20 -20c0 -69.333 26 -104.166 78 -104.499s78 34.5 78 104.5c0 13.333 6.66699 20 20 20h160c13.333 0 20.333 -6.66699 21 -20c0 -87.333 -25.667 -156 -77 -206s-118.666 -75 -201.999 -75
s-150.5 25 -201.5 75s-76.5 118.667 -76.5 206zM95.999 19.999v988c0 13.333 7 20 21 20h205c13.333 0 20 -6.66699 20 -20v-988c0 -13.333 -6.66699 -20 -20 -20h-205c-14 0 -21 6.66699 -21 20z" />
    <glyph glyph-name="Iogonek" unicode="&#x12e;" horiz-adv-x="516" 
d="M61 -172c0 60 22.667 110.665 68 151.998v1433c0 13.333 7 20.333 21 21h217c13.333 0 20 -7 20 -21v-1393c0 -9.33301 -4.66699 -16 -14 -20c-53.333 -22 -80 -59.667 -80 -113c0 -49.333 28 -73.666 84 -72.999h41c13.333 0 20 -7 20 -21v-131
c0 -13.333 -6.66699 -20 -20 -20h-111c-74 0 -133.5 16.333 -178.5 49s-67.5 78.334 -67.5 137.001z" />
    <glyph glyph-name="iogonek" unicode="&#x12f;" horiz-adv-x="438" 
d="M16 -172c0 64 26.667 117.998 80 161.998v1018c0 13.333 7 20 21 20h205c13.333 0 20 -6.66699 20 -20v-988c0 -9.33301 -4.66699 -16 -14 -20c-53.333 -23.333 -80 -61 -80 -113c0 -49.333 28 -73.666 84 -72.999h41c13.333 0 20 -7 20 -21v-131
c0 -13.333 -6.66699 -20 -20 -20h-111c-74 0 -133.5 16.333 -178.5 49s-67.5 78.334 -67.5 137.001zM82 1180v233c0 13.333 6.66699 20.333 20 21h234c13.333 0 20 -7 20 -21v-233c0 -13.333 -6.66699 -20.333 -20 -21h-234c-13.333 0.666992 -20 7.66699 -20 21z" />
    <glyph glyph-name="Idotaccent" unicode="&#x130;" horiz-adv-x="516" 
d="M121 1585v234c0 13.333 6.66699 20 20 20h234c13.333 0 20 -6.66699 20 -20v-234c0 -13.333 -6.66699 -20 -20 -20h-234c-13.333 0 -20 6.66699 -20 20zM129 20v1393c0 13.333 7 20.333 21 21h217c13.333 0 20 -7 20 -21v-1393c0 -13.333 -6.66699 -20 -20 -20h-217
c-14 0 -21 6.66699 -21 20z" />
    <glyph glyph-name="dotlessi" unicode="&#x131;" horiz-adv-x="438" 
d="M96 20v988c0 13.333 7 20 21 20h205c13.333 0 20 -6.66699 20 -20v-988c0 -13.333 -6.66699 -20 -20 -20h-205c-14 0 -21 6.66699 -21 20z" />
    <glyph glyph-name="IJ" unicode="&#x132;" horiz-adv-x="1624" 
d="M129 20v1393c0 13.333 7 20.333 21 21h217c13.333 0 20 -7 20 -21v-1393c0 -13.333 -6.66699 -20 -20 -20h-217c-14 0 -21 6.66699 -21 20zM555 465c0 13.333 6.66797 20 20.001 20h218c13.333 0 20 -6.66699 20 -20c0 -80.667 21.167 -142.167 63.5 -184.5
s96.166 -63.5 161.499 -63.5c82 0 141.5 27 178.5 81s55.5 140.333 55.5 259v856c0 13.333 6.66699 20.333 20 21h217c13.333 0 20.333 -7 21 -21v-854c0 -190 -43.333 -334 -130 -432s-207.334 -147 -362.001 -147c-147.333 0 -264.666 46.333 -351.999 139
s-131 208 -131 346z" />
    <glyph glyph-name="ij" unicode="&#x133;" horiz-adv-x="876" 
d="M82 1180v233c0 13.333 6.66699 20.333 20 21h234c13.333 0 20 -7 20 -21v-233c0 -13.333 -6.66699 -20.333 -20 -21h-234c-13.333 0.666992 -20 7.66699 -20 21zM96 20v988c0 13.333 7 20 21 20h205c13.333 0 20 -6.66699 20 -20v-988c0 -13.333 -6.66699 -20 -20 -20
h-205c-14 0 -21 6.66699 -21 20zM475 -328c39.333 104 59.333 197.667 60 281v1055c0 13.333 6.66699 20 20 20h205c13.333 0 20 -6.66699 20 -20v-1063c0 -112 -26 -230.333 -78 -355c-5.33301 -13.333 -13.333 -18 -24 -14l-189 72c-13.333 4 -18 12 -14 24zM520 1180v233
c0 13.333 7 20.333 21 21h233c13.333 0 20.333 -7 21 -21v-233c0 -13.333 -7 -20.333 -21 -21h-233c-14 0.666992 -21 7.66699 -21 21z" />
    <glyph glyph-name="Jcircumflex" unicode="&#x134;" horiz-adv-x="1107" 
d="M39 465c0 13.333 6.66797 20 20.001 20h217c13.333 0 20.333 -6.66699 21 -20c0 -80.667 21.167 -142.167 63.5 -184.5s96.166 -63.5 161.499 -63.5c82 0 141.5 27 178.5 81s55.5 140.333 55.5 259v856c0 13.333 6.66699 20.333 20 21h217c13.333 0 20.333 -7 21 -21
v-854c0 -190 -43.333 -334 -130 -432s-207.334 -147 -362.001 -147c-147.333 0 -264.666 46.333 -351.999 139s-131 208 -131 346zM566.001 1517.5c-2 4.33301 -1 9.16602 3 14.499l222 291c9.33301 10.667 19.333 16 30 16h168c10.667 0 21 -5.33301 31 -16l221 -291
c4 -5.33301 5 -10.166 3 -14.499s-6.33301 -6.5 -13 -6.5h-193c-12 0 -24.333 6.33301 -37 19l-96 96l-96 -96c-12 -12 -24.333 -18.333 -37 -19h-192c-7.33301 0 -12 2.16699 -14 6.5z" />
    <glyph glyph-name="jcircumflex" unicode="&#x135;" horiz-adv-x="438" 
d="M-120 1112c-2 4 -0.999023 8.66602 3.00098 13.999l221 291c9.33301 10.667 19.666 16.334 30.999 17.001h168c10.667 0 21 -5.66699 31 -17l221 -291c4 -5.33301 5 -10 3 -14s-6.33301 -6 -13 -6h-193c-12 0 -24.333 6 -37 18l-96 97l-96 -97
c-12 -12 -24.333 -18 -37 -18h-192c-7.33301 0 -12 2 -14 6zM37.001 -328.001c39.333 104 59 197.667 59 281v1055c0 13.333 7 20 21 20h205c13.333 0 20 -6.66699 20 -20v-1063c0 -112 -26 -230.333 -78 -355c-5.33301 -13.333 -13.333 -18 -24 -14l-189 72
c-13.333 4 -18 12 -14 24z" />
    <glyph glyph-name="Kcommaaccent" unicode="&#x136;" horiz-adv-x="1257" 
d="M143 20v1393c0 13.333 7 20.333 21 21h217c13.333 0 20 -7 20 -21v-508l469 508c12 13.333 24.333 20.333 37 21h250c9.33301 0 15.5 -3.5 18.5 -10.5s0.833008 -13.167 -6.5 -18.5l-467 -500l551 -876c4 -8 4.66699 -14.833 2 -20.5s-8 -8.5 -16 -8.5h-246
c-13.333 -0 -26.333 10.333 -39 31l-430 684l-123 -131v-564c0 -13.333 -6.66699 -20 -20 -20h-217c-14 0 -21 6.66699 -21 20zM535 -82c0 13.333 6.66699 20.333 20 21h221c13.333 0 20.333 -7 21 -21v-280c0 -132.667 -59.667 -199 -179 -199h-55
c-13.333 0 -20 6.66699 -20 20v86c0 13.333 6.66699 20.333 20 21c34 0 58.167 6.83301 72.5 20.5s21.5 35.5 21.5 65.5v24h-102c-13.333 0 -20 7 -20 21v221z" />
    <glyph glyph-name="kcommaaccent" unicode="&#x137;" horiz-adv-x="1081" 
d="M135 20v1393c0 13.333 7 20.333 21 21h204c13.333 0 20.333 -7 21 -21v-723l342 320c12 12 23 18 33 18h248c10.667 0 16 -4.66699 16 -14c0 -5.33301 -2.66699 -11 -8 -17l-357 -344l406 -622c2.66699 -4 4 -9 4 -15c0 -10.667 -6 -16 -18 -16h-230
c-15.333 0 -26.333 6 -33 18l-307 474l-96 -91v-381c0 -13.333 -7 -20 -21 -20h-204c-14 0 -21 6.66699 -21 20zM453 -82c0 13.333 6.66699 20.333 20 21h221c13.333 0 20.333 -7 21 -21v-280c0 -132.667 -59.333 -199 -178 -199h-56c-13.333 0 -20 6.66699 -20 20v86
c0 13.333 6.66699 20.333 20 21c34 0 58.167 6.83301 72.5 20.5s21.5 35.5 21.5 65.5v24h-102c-13.333 0 -20 7 -20 21v221z" />
    <glyph glyph-name="kgreenlandic" unicode="&#x138;" horiz-adv-x="1089" 
d="M135 20v988c0 13.333 7 20 21 20h204c13.333 0 20.333 -6.66699 21 -20v-318l342 320c12 12 23 18 33 18h248c10.667 0 16 -4.66699 16 -14c0 -5.33301 -2.66699 -11 -8 -17l-357 -344l406 -622c2.66699 -4 4 -9 4 -15c0 -10.667 -6 -16 -18 -16h-230
c-15.333 0 -26.333 6 -33 18l-307 474l-96 -91v-381c0 -13.333 -7 -20 -21 -20h-204c-14 0 -21 6.66699 -21 20z" />
    <glyph glyph-name="Lacute" unicode="&#x139;" horiz-adv-x="1183" 
d="M143 20v1393c0 13.333 7 20.333 21 21h217c13.333 0 20 -7 20 -21v-1175h699c13.333 0 20 -7 20 -21v-197c0 -13.333 -6.66699 -20 -20 -20h-936c-14 0 -21 6.66699 -21 20zM158 1561l141 258c8 13.333 18.333 20 31 20h260c6.66699 0 11 -2 13 -6s1 -8.66699 -3 -14
l-211 -260c-10.667 -12 -23 -18.333 -37 -19h-184c-14.667 0.666992 -18 7.66699 -10 21z" />
    <glyph glyph-name="lacute" unicode="&#x13a;" horiz-adv-x="487" 
d="M121 20v1393c0 13.333 6.66699 20.333 20 21h205c13.333 0 20.333 -7 21 -21v-1393c0 -13.333 -7 -20 -21 -20h-205c-13.333 0 -20 6.66699 -20 20zM141 1561l142 258c8 13.333 18 20 30 20h260c6.66699 0 11.167 -2 13.5 -6s1.5 -8.66699 -2.5 -14l-211 -260
c-10.667 -12 -23 -18.333 -37 -19h-184c-15.333 0.666992 -19 7.66699 -11 21z" />
    <glyph glyph-name="Lcommaaccent" unicode="&#x13b;" horiz-adv-x="1183" 
d="M143 20v1393c0 13.333 7 20.333 21 21h217c13.333 0 20 -7 20 -21v-1175h699c13.333 0 20 -7 20 -21v-197c0 -13.333 -6.66699 -20 -20 -20h-936c-14 0 -21 6.66699 -21 20zM514 -82c0 13.333 7 20.333 21 21h221c13.333 0 20 -7 20 -21v-280
c0 -132.667 -59.333 -199 -178 -199h-55c-13.333 0 -20.333 6.66699 -21 20v86c0 13.333 7 20.333 21 21c34 0 58.167 6.83301 72.5 20.5s21.5 35.5 21.5 65.5v24h-102c-13.333 0 -20.333 7 -21 21v221z" />
    <glyph glyph-name="lcommaaccent" unicode="&#x13c;" horiz-adv-x="487" 
d="M113 -82c0 13.333 6.66699 20.333 20 21h221c13.333 0 20.333 -7 21 -21v-280c0 -132.667 -59.333 -199 -178 -199h-56c-13.333 0 -20 6.66699 -20 20v86c0 13.333 6.66699 20.333 20 21c34 0 58.333 6.83301 73 20.5s22 35.5 22 65.5v24h-103c-13.333 0 -20 7 -20 21
v221zM121 20v1393c0 13.333 6.66699 20.333 20 21h205c13.333 0 20.333 -7 21 -21v-1393c0 -13.333 -7 -20 -21 -20h-205c-13.333 0 -20 6.66699 -20 20z" />
    <glyph glyph-name="Lcaron" unicode="&#x13d;" horiz-adv-x="1183" 
d="M143 20v1393c0 13.333 7 20.333 21 21h217c13.333 0 20 -7 20 -21v-1175h699c13.333 0 20 -7 20 -21v-197c0 -13.333 -6.66699 -20 -20 -20h-936c-14 0 -21 6.66699 -21 20zM596 963v81c0 13.333 6.66699 20.333 20 21c44 0 74.167 8.5 90.5 25.5s24.5 42.5 24.5 76.5v13
h-100c-13.333 0 -20.333 6.66699 -21 20v213c0 13.333 7 20.333 21 21h233c13.333 0 20.333 -7 21 -21v-262c0 -56 -17.5 -104.833 -52.5 -146.5s-83.833 -62.5 -146.5 -62.5h-70c-13.333 0.666992 -20 7.66699 -20 21z" />
    <glyph glyph-name="lcaron" unicode="&#x13e;" horiz-adv-x="765" 
d="M121 20v1393c0 13.333 6.66699 20.333 20 21h205c13.333 0 20.333 -7 21 -21v-1393c0 -13.333 -7 -20 -21 -20h-205c-13.333 0 -20 6.66699 -20 20zM457 963l0.000976562 81c0 13.333 6.66699 20.333 20 21c44 0 74.167 8.5 90.5 25.5s24.5 42.5 24.5 76.5v13h-100
c-13.333 0 -20.333 6.66699 -21 20v213c0 13.333 7 20.333 21 21h233c13.333 0 20 -7 20 -21v-262c0 -56 -17.333 -104.833 -52 -146.5s-83.334 -62.5 -146.001 -62.5h-70c-13.333 0.666992 -20 7.66699 -20 21z" />
    <glyph glyph-name="Ldot" unicode="&#x13f;" horiz-adv-x="1183" 
d="M143 20v1393c0 13.333 7 20.333 21 21h217c13.333 0 20 -7 20 -21v-1175h699c13.333 0 20 -7 20 -21v-197c0 -13.333 -6.66699 -20 -20 -20h-936c-14 0 -21 6.66699 -21 20zM553 635v221c0 13.333 6.66699 20.333 20 21h222c13.333 0 20 -7 20 -21v-221
c0 -13.333 -6.66699 -20.333 -20 -21h-222c-13.333 0.666992 -20 7.66699 -20 21z" />
    <glyph glyph-name="ldot" unicode="&#x140;" horiz-adv-x="778" 
d="M121 20v1393c0 13.333 6.66699 20.333 20 21h205c13.333 0 20.333 -7 21 -21v-1393c0 -13.333 -7 -20 -21 -20h-205c-13.333 0 -20 6.66699 -20 20zM471 635v221c0 13.333 7 20.333 21 21h221c13.333 0 20 -7 20 -21v-221c0 -13.333 -6.66699 -20.333 -20 -21h-221
c-14 0.666992 -21 7.66699 -21 21z" />
    <glyph glyph-name="Lslash" unicode="&#x141;" horiz-adv-x="1183" 
d="M-37 571c-6.66699 13.333 -4 22.999 8 28.999l197 105v708c0 13.333 6.66699 20.333 20 21h218c13.333 0 20 -7 20 -21v-573l250 133c12 5.33301 21.667 2 29 -10l86 -160c6.66699 -13.333 3.66699 -23 -9 -29l-356 -188v-348h682c13.333 0 20 -7 20 -21v-197
c0 -13.333 -6.66699 -20 -20 -20h-920c-13.333 0 -20 6.66699 -20 20v429l-90 -48c-12 -5.33301 -21.667 -1.66602 -29 11.001z" />
    <glyph glyph-name="lslash" unicode="&#x142;" horiz-adv-x="595" 
d="M-63 608c-6.66699 13.333 -4 22.998 8 28.998l233 123v653c0 13.333 7 20.333 21 21h204c13.333 0 20.333 -7 21 -21v-524l127 67c12 5.33301 21.667 2 29 -10l86 -160c6.66699 -13.333 3.66699 -22.666 -9 -27.999l-233 -123v-615c0 -13.333 -7 -20 -21 -20h-204
c-13.333 0 -20.333 6.66699 -21 20v484l-127 -66c-12 -5.33301 -21.333 -1.66602 -28 11.001z" />
    <glyph glyph-name="Nacute" unicode="&#x143;" horiz-adv-x="1425" 
d="M143 20v1393c0 13.333 7 20.333 21 21h219c15.333 0 26.333 -5.66699 33 -17l604 -971v967c0 13.333 6.66699 20.333 20 21h222c13.333 0 20 -7 20 -21v-1393c0 -13.333 -6.66699 -20 -20 -20h-220c-15.333 -0 -26 5.33301 -32 16l-604 971v-967
c0 -13.333 -7 -20 -21 -20h-221c-14 0 -21 6.66699 -21 20zM563 1561l142 258c8 13.333 18 20 30 20h260c6.66699 0 11.167 -2 13.5 -6s1.5 -8.66699 -2.5 -14l-211 -260c-10.667 -12 -23 -18.333 -37 -19h-185c-14.667 0.666992 -18 7.66699 -10 21z" />
    <glyph glyph-name="nacute" unicode="&#x144;" 
d="M135 20l0.000976562 988.001c0 13.333 7 20 21 20h204c13.333 0 20.333 -6.66699 21 -20v-74c92.667 76.667 195.667 115 309 115c112 0 199.833 -31.167 263.5 -93.5s95.5 -146.833 95.5 -253.5v-682c0 -13.333 -7 -20 -21 -20h-205c-13.333 0 -20 6.66699 -20 20v594
c0 142 -58.667 213 -176 213c-70.667 0 -129.334 -28.333 -176.001 -85s-70 -142.334 -70 -257.001v-465c0 -13.333 -7 -20 -21 -20h-204c-14 0 -21 6.66699 -21 20zM449.001 1155l141 257.999c8 13.333 18.333 20.333 31 21h260c6.66699 0 11 -2.16699 13 -6.5
s1 -9.16602 -3 -14.499l-211 -260c-10.667 -12 -23 -18 -37 -18h-184c-14.667 0 -18 6.66699 -10 20z" />
    <glyph glyph-name="Ncommaaccent" unicode="&#x145;" horiz-adv-x="1425" 
d="M143 20v1393c0 13.333 7 20.333 21 21h219c15.333 0 26.333 -5.66699 33 -17l604 -971v967c0 13.333 6.66699 20.333 20 21h222c13.333 0 20 -7 20 -21v-1393c0 -13.333 -6.66699 -20 -20 -20h-220c-15.333 -0 -26 5.33301 -32 16l-604 971v-967
c0 -13.333 -7 -20 -21 -20h-221c-14 0 -21 6.66699 -21 20zM590 -61c0 13.333 6.66699 20 20 20h221c13.333 0 20.333 -6.66699 21 -20v-281c0 -132.667 -59.333 -199 -178 -199h-56c-13.333 0 -20 7 -20 21v86c0 13.333 6.66699 20 20 20c34 0 58.333 6.83301 73 20.5
s22 35.5 22 65.5v25h-103c-13.333 0 -20 6.66699 -20 20v222z" />
    <glyph glyph-name="ncommaaccent" unicode="&#x146;" 
d="M135 20l0.000976562 988.001c0 13.333 7 20 21 20h204c13.333 0 20.333 -6.66699 21 -20v-74c92.667 76.667 195.667 115 309 115c112 0 199.833 -31.167 263.5 -93.5s95.5 -146.833 95.5 -253.5v-682c0 -13.333 -7 -20 -21 -20h-205c-13.333 0 -20 6.66699 -20 20v594
c0 142 -58.667 213 -176 213c-70.667 0 -129.334 -28.333 -176.001 -85s-70 -142.334 -70 -257.001v-465c0 -13.333 -7 -20 -21 -20h-204c-14 0 -21 6.66699 -21 20zM473.001 -81.999c0 13.333 7 20.333 21 21h221c13.333 0 20 -7 20 -21v-280
c0 -132.667 -59.333 -199 -178 -199h-55c-13.333 0 -20.333 6.66699 -21 20v86c0 13.333 7 20.333 21 21c34 0 58.167 6.83301 72.5 20.5s21.5 35.5 21.5 65.5v24h-102c-13.333 0 -20.333 7 -21 21v221z" />
    <glyph glyph-name="Ncaron" unicode="&#x147;" horiz-adv-x="1425" 
d="M143 20v1393c0 13.333 7 20.333 21 21h219c15.333 0 26.333 -5.66699 33 -17l604 -971v967c0 13.333 6.66699 20.333 20 21h222c13.333 0 20 -7 20 -21v-1393c0 -13.333 -6.66699 -20 -20 -20h-220c-15.333 -0 -26 5.33301 -32 16l-604 971v-967
c0 -13.333 -7 -20 -21 -20h-221c-14 0 -21 6.66699 -21 20zM374 1833c2 4 6.33301 6.00098 13 6.00098h193c12 0 24 -6 36 -18l97 -97l96 97c12 12 24.333 18 37 18h192c6.66699 0 11.167 -2 13.5 -6s1.5 -8.66699 -2.5 -14l-222 -291
c-9.33301 -10.667 -19.333 -16.334 -30 -17.001h-168c-10.667 0 -21 5.66699 -31 17l-221 291c-4 5.33301 -5 10 -3 14z" />
    <glyph glyph-name="ncaron" unicode="&#x148;" 
d="M135 20l0.000976562 988.001c0 13.333 7 20 21 20h204c13.333 0 20.333 -6.66699 21 -20v-74c92.667 76.667 195.667 115 309 115c112 0 199.833 -31.167 263.5 -93.5s95.5 -146.833 95.5 -253.5v-682c0 -13.333 -7 -20 -21 -20h-205c-13.333 0 -20 6.66699 -20 20v594
c0 142 -58.667 213 -176 213c-70.667 0 -129.334 -28.333 -176.001 -85s-70 -142.334 -70 -257.001v-465c0 -13.333 -7 -20 -21 -20h-204c-14 0 -21 6.66699 -21 20zM300.001 1427.5c2 4.33301 6.33203 6.5 12.999 6.5h193c12 0 24.333 -6.33301 37 -19l96 -96l96 96
c12 12 24.333 18.333 37 19h193c6.66699 0 11 -2.16699 13 -6.5s1 -9.16602 -3 -14.499l-221 -291c-9.33301 -10.667 -19.666 -16 -30.999 -16h-168c-10.667 0 -21 5.33301 -31 16l-221 291c-4 5.33301 -5 10.166 -3 14.499z" />
    <glyph glyph-name="napostrophe" unicode="&#x149;" horiz-adv-x="1335" 
d="M20 1024l0.000976562 82c0 13.333 7 20 21 20c44 0 74.167 8.66699 90.5 26s24.5 43 24.5 77v12h-101c-13.333 0 -20 7 -20 21v213c0 13.333 6.66699 20 20 20h234c13.333 0 20 -6.66699 20 -20v-263c0 -56 -17.333 -104.667 -52 -146s-83.334 -62 -146.001 -62h-70
c-14 0 -21 6.66699 -21 20zM303.001 20l0.000976562 988.001c0 13.333 7 20 21 20h204c13.333 0 20.333 -6.66699 21 -20v-74c92.667 76.667 195.667 115 309 115c112 0 199.833 -31.167 263.5 -93.5s95.5 -146.833 95.5 -253.5v-682c0 -13.333 -7 -20 -21 -20h-205
c-13.333 0 -20 6.66699 -20 20v594c0 142 -58.667 213 -176 213c-70.667 0 -129.334 -28.333 -176.001 -85s-70 -142.334 -70 -257.001v-465c0 -13.333 -7 -20 -21 -20h-204c-14 0 -21 6.66699 -21 20z" />
    <glyph glyph-name="Eng" unicode="&#x14a;" horiz-adv-x="1425" 
d="M143 20v1393c0 13.333 7 20.333 21 21h219c15.333 0 26.333 -5.66699 33 -17l604 -966v962c0 13.333 6.66699 20.333 20 21h222c13.333 0 20 -7 20 -21v-1401c0 -162.667 -39.667 -276.334 -119 -341.001s-213 -97 -401 -97c-13.333 0 -20.333 6.66699 -21 20v197
c0 13.333 7 20.333 21 21c94 0 159.833 14.333 197.5 43s56.5 77 56.5 145l-610 975v-955c0 -13.333 -7 -20 -21 -20h-221c-14 0 -21 6.66699 -21 20z" />
    <glyph glyph-name="eng" unicode="&#x14b;" horiz-adv-x="1159" 
d="M135 20v988.001c0 13.333 7 20 21 20h204c13.333 0 20.333 -6.66699 21 -20v-74c92.667 76.667 195.667 115 309 115c112 0 199.833 -31.167 263.5 -93.5s95.5 -146.833 95.5 -253.5v-757c0 -112 -26 -230.333 -78 -355c-5.33301 -13.333 -13.666 -18 -24.999 -14
l-188 72c-13.333 4 -18.333 12 -15 24c39.333 104 59.333 197.667 60 281v661c0 142 -58.667 213 -176 213c-70.667 0 -129.334 -28.333 -176.001 -85s-70 -142.334 -70 -257.001v-465c0 -13.333 -7 -20 -21 -20h-204c-14 0 -21 6.66699 -21 20z" />
    <glyph glyph-name="Omacron" unicode="&#x14c;" horiz-adv-x="1572" 
d="M78 717c0 120 20.167 228.167 60.5 324.5s94.166 173.833 161.499 232.5s142.666 103.334 225.999 134.001s170.166 46 260.499 46s177 -15.333 260 -46s158.333 -75.334 226 -134.001s121.667 -136.167 162 -232.5s60.5 -204.5 60.5 -324.5
s-20.167 -228.167 -60.5 -324.5s-94.333 -173.833 -162 -232.5s-143 -103.334 -226 -134.001s-169.667 -46 -260 -46s-177.166 15.333 -260.499 46s-158.666 75.334 -225.999 134.001s-121.166 136.167 -161.499 232.5s-60.5 204.5 -60.5 324.5zM344 716.5
c0 -159.667 43 -282.834 129 -369.501s190.5 -130 313.5 -130s227.5 43.333 313.5 130s129 209.834 129 369.501s-43 283 -129 370s-190.5 130.5 -313.5 130.5s-227.5 -43.5 -313.5 -130.5s-129 -210.333 -129 -370zM545 1606v184c0 13.333 6.66699 20 20 20h443
c13.333 0 20 -6.66699 20 -20v-184c0 -13.333 -6.66699 -20.333 -20 -21h-443c-13.333 0.666992 -20 7.66699 -20 21z" />
    <glyph glyph-name="omacron" unicode="&#x14d;" horiz-adv-x="1249" 
d="M76 514c0 154 52.167 281.667 156.5 383s235 152 392 152s287.833 -50.667 392.5 -152s157 -229 157 -383s-52.333 -281.5 -157 -382.5s-235.5 -151.5 -392.5 -151.5s-287.667 50.5 -392 151.5s-156.5 228.5 -156.5 382.5zM338 514c0 -94 26.667 -169.667 80 -227
s122.333 -86 207 -86s153.5 28.667 206.5 86s79.5 133 79.5 227s-26.5 169.667 -79.5 227s-121.833 86 -206.5 86s-153.667 -28.667 -207 -86s-80 -133 -80 -227zM383 1200v184c0 13.333 6.66699 20.333 20 21h443c13.333 0 20 -7 20 -21v-184
c0 -13.333 -6.66699 -20 -20 -20h-443c-13.333 0 -20 6.66699 -20 20z" />
    <glyph glyph-name="Obreve" unicode="&#x14e;" horiz-adv-x="1572" 
d="M78 717c0 120 20.167 228.167 60.5 324.5s94.166 173.833 161.499 232.5s142.666 103.334 225.999 134.001s170.166 46 260.499 46s177 -15.333 260 -46s158.333 -75.334 226 -134.001s121.667 -136.167 162 -232.5s60.5 -204.5 60.5 -324.5
s-20.167 -228.167 -60.5 -324.5s-94.333 -173.833 -162 -232.5s-143 -103.334 -226 -134.001s-169.667 -46 -260 -46s-177.166 15.333 -260.499 46s-158.666 75.334 -225.999 134.001s-121.166 136.167 -161.499 232.5s-60.5 204.5 -60.5 324.5zM344 716.5
c0 -159.667 43 -282.834 129 -369.501s190.5 -130 313.5 -130s227.5 43.333 313.5 130s129 209.834 129 369.501s-43 283 -129 370s-190.5 130.5 -313.5 130.5s-227.5 -43.5 -313.5 -130.5s-129 -210.333 -129 -370zM508 1810c0 13.333 6.66699 20.333 20 21h160
c13.333 0 20.333 -7 21 -21c0 -69.333 25.833 -104 77.5 -104s77.5 34.667 77.5 104c0 13.333 7 20.333 21 21h159c13.333 0 20.333 -7 21 -21c0 -87.333 -25.667 -155.833 -77 -205.5s-118.5 -74.5 -201.5 -74.5s-150.167 24.833 -201.5 74.5s-77 118.167 -77 205.5z" />
    <glyph glyph-name="obreve" unicode="&#x14f;" horiz-adv-x="1249" 
d="M76 514c0 154 52.167 281.667 156.5 383s235 152 392 152s287.833 -50.667 392.5 -152s157 -229 157 -383s-52.333 -281.5 -157 -382.5s-235.5 -151.5 -392.5 -151.5s-287.667 50.5 -392 151.5s-156.5 228.5 -156.5 382.5zM338 514c0 -94 26.667 -169.667 80 -227
s122.333 -86 207 -86s153.5 28.667 206.5 86s79.5 133 79.5 227s-26.5 169.667 -79.5 227s-121.833 86 -206.5 86s-153.667 -28.667 -207 -86s-80 -133 -80 -227zM346 1405c0 13.333 6.99902 19.999 20.999 19.999h159c13.333 0 20.333 -6.66699 21 -20
c0 -69.333 25.833 -104.166 77.5 -104.499s77.5 34.5 77.5 104.5c0 13.333 7 20 21 20h160c13.333 0 20 -6.66699 20 -20c0 -87.333 -25.5 -156 -76.5 -206s-118.167 -75 -201.5 -75s-150.666 25 -201.999 75s-77 118.667 -77 206z" />
    <glyph glyph-name="Ohungarumlaut" unicode="&#x150;" horiz-adv-x="1572" 
d="M78 717c0 120 20.167 228.167 60.5 324.5s94.166 173.833 161.499 232.5s142.666 103.334 225.999 134.001s170.166 46 260.499 46s177 -15.333 260 -46s158.333 -75.334 226 -134.001s121.667 -136.167 162 -232.5s60.5 -204.5 60.5 -324.5
s-20.167 -228.167 -60.5 -324.5s-94.333 -173.833 -162 -232.5s-143 -103.334 -226 -134.001s-169.667 -46 -260 -46s-177.166 15.333 -260.499 46s-158.666 75.334 -225.999 134.001s-121.166 136.167 -161.499 232.5s-60.5 204.5 -60.5 324.5zM344 716.5
c0 -159.667 43 -282.834 129 -369.501s190.5 -130 313.5 -130s227.5 43.333 313.5 130s129 209.834 129 369.501s-43 283 -129 370s-190.5 130.5 -313.5 130.5s-227.5 -43.5 -313.5 -130.5s-129 -210.333 -129 -370zM463 1561l140.999 258c8 13.333 18.333 20 31 20h260
c6.66699 0 11 -2 13 -6s1 -8.66699 -3 -14l-211 -260c-9.33301 -12 -21.666 -18.333 -36.999 -19h-184c-14.667 0.666992 -18 7.66699 -10 21zM839.999 1561l140.999 258c8 13.333 18.333 20 31 20h260c6.66699 0 11 -2 13 -6s1 -8.66699 -3 -14l-211 -260
c-9.33301 -12 -21.666 -18.333 -36.999 -19h-184c-14.667 0.666992 -18 7.66699 -10 21z" />
    <glyph glyph-name="ohungarumlaut" unicode="&#x151;" horiz-adv-x="1249" 
d="M76 514c0 154 52.167 281.667 156.5 383s235 152 392 152s287.833 -50.667 392.5 -152s157 -229 157 -383s-52.333 -281.5 -157 -382.5s-235.5 -151.5 -392.5 -151.5s-287.667 50.5 -392 151.5s-156.5 228.5 -156.5 382.5zM276 1155l142 257.999
c8 13.333 18.333 20.333 31 21h260c6.66699 0 11 -2.16699 13 -6.5s1 -9.16602 -3 -14.499l-211 -260c-10.667 -12 -23 -18 -37 -18h-184c-15.333 0 -19 6.66699 -11 20zM338 513.999c0 -94 26.667 -169.667 80 -227s122.333 -86 207 -86s153.5 28.667 206.5 86
s79.5 133 79.5 227s-26.5 169.667 -79.5 227s-121.833 86 -206.5 86s-153.667 -28.667 -207 -86s-80 -133 -80 -227zM653 1155l142 257.999c8 13.333 18 20.333 30 21h260c6.66699 0 11.167 -2.16699 13.5 -6.5s1.5 -9.16602 -2.5 -14.499l-211 -260
c-10.667 -12 -23 -18 -37 -18h-184c-15.333 0 -19 6.66699 -11 20z" />
    <glyph glyph-name="OE" unicode="&#x152;" horiz-adv-x="2318" 
d="M78 717c0 120 20.167 228.165 60.5 324.498s94.166 173.833 161.499 232.5s142.666 103.334 225.999 134.001s170 46 260 46c186 0 346 -58.667 480 -176v135c0 13.333 6.66699 20.333 20 21h883c13.333 0 20 -7 20 -21v-196c0 -13.333 -6.66699 -20.333 -20 -21h-645
v-324h583c13.333 0 20.333 -6.66699 21 -20v-197c0 -13.333 -7 -20 -21 -20h-583v-397h676c13.333 0 20 -7 20 -21v-197c0 -13.333 -6.66699 -20 -20 -20h-914c-13.333 0 -20 6.66699 -20 20v136c-131.333 -117.333 -291.333 -176 -480 -176c-90 0 -176.667 15.333 -260 46
s-158.666 75.334 -225.999 134.001s-121.166 136.167 -161.499 232.5s-60.5 204.5 -60.5 324.5zM344 716.498c0 -159.667 43 -282.834 129 -369.501s190.5 -130 313.5 -130s227.5 43.333 313.5 130s129 209.834 129 369.501s-43 283 -129 370s-190.5 130.5 -313.5 130.5
s-227.5 -43.5 -313.5 -130.5s-129 -210.333 -129 -370z" />
    <glyph glyph-name="oe" unicode="&#x153;" horiz-adv-x="2091" 
d="M76 514c0 154 52.166 281.665 156.499 382.998s235.166 152 392.499 152c187.333 0 333.333 -68.333 438 -205c102.667 136.667 244 205 424 205c162.667 0 291.667 -54 387 -162s143 -239.667 143 -395v-35c0 -13.333 -6.66699 -20.333 -20 -21h-780
c10.667 -70.667 39.834 -127.5 87.501 -170.5s108.5 -64.5 182.5 -64.5c117.333 0 201.333 42.333 252 127c8 12 17.333 18 28 18h209c9.33301 0 14.333 -4.66699 15 -14c0 -5.33301 -1.33301 -12.333 -4 -21c-86 -221.333 -253.333 -331.666 -502 -330.999
c-87.333 0 -167.5 17.667 -240.5 53s-133.5 85 -181.5 149c-105.333 -135.333 -251.333 -202.666 -438 -201.999c-157.333 0 -288.166 50.5 -392.499 151.5s-156.5 228.5 -156.5 382.5zM337.999 513.998c0 -94 26.667 -169.667 80 -227s122.333 -86 207 -86
s153.5 28.667 206.5 86s79.5 133 79.5 227s-26.5 169.667 -79.5 227s-121.833 86 -206.5 86s-153.667 -28.667 -207 -86s-80 -133 -80 -227zM1225 640.998l530.002 -0.000976562c-40.667 124 -130 186 -268 186c-58.667 0 -111.834 -16.667 -159.501 -50
s-81.834 -78.666 -102.501 -135.999z" />
    <glyph glyph-name="Racute" unicode="&#x154;" horiz-adv-x="1259" 
d="M143 20l-0.00195312 1393c0 13.333 7 20.333 21 21h559c132.667 0 238.834 -34.5 318.501 -103.5s119.5 -165.167 119.5 -288.5c0 -86 -25.167 -162 -75.5 -228s-113.166 -114.667 -188.499 -146l305 -648c1.33301 -2.66699 2 -5.33398 2 -8.00098c0 -8 -6 -12 -18 -12
h-236c-10.667 0 -20 6.66699 -28 20l-308 631h-213v-631c0 -13.333 -6.66699 -20 -20 -20h-217c-14 0 -21 6.66699 -21 20zM400.998 889.001h332c52 0 93.333 13.667 124 41s46 64.833 46 112.5s-15.333 85.167 -46 112.5s-72 41 -124 41h-332v-307zM423.998 1561l141 258
c8 13.333 18.333 20 31 20h260c6.66699 0 11 -2 13 -6s1 -8.66699 -3 -14l-211 -260c-10.667 -12 -23 -18.333 -37 -19h-184c-14.667 0.666992 -18 7.66699 -10 21z" />
    <glyph glyph-name="racute" unicode="&#x155;" horiz-adv-x="884" 
d="M135 20v988c0 13.333 7 20 21 20h204c13.333 0 20.333 -6.66699 21 -20v-56c68 64 152 96.333 252 97c62.667 0 125.334 -11 188.001 -33c16.667 -6.66699 25 -19 25 -37v-191c0 -15.333 -5.66699 -22.666 -17 -21.999c-2.66699 0 -7.33398 1.33301 -14.001 4
c-78 38 -148.333 57 -211 57c-70.667 0 -125.5 -20.833 -164.5 -62.5s-58.5 -112.834 -58.5 -213.501v-531c0 -13.333 -7 -20 -21 -20h-204c-14 0 -21 6.66699 -21 20zM319 1155l141.999 257.999c8 13.333 18.333 20.333 31 21h260c6.66699 0 11 -2.16699 13 -6.5
s1 -9.16602 -3 -14.499l-211 -260c-9.33301 -12 -21.666 -18 -36.999 -18h-184c-15.333 0 -19 6.66699 -11 20z" />
    <glyph glyph-name="Rcommaaccent" unicode="&#x156;" horiz-adv-x="1259" 
d="M143 20l-0.00195312 1393c0 13.333 7 20.333 21 21h559c132.667 0 238.834 -34.5 318.501 -103.5s119.5 -165.167 119.5 -288.5c0 -86 -25.167 -162 -75.5 -228s-113.166 -114.667 -188.499 -146l305 -648c1.33301 -2.66699 2 -5.33398 2 -8.00098c0 -8 -6 -12 -18 -12
h-236c-10.667 0 -20 6.66699 -28 20l-308 631h-213v-631c0 -13.333 -6.66699 -20 -20 -20h-217c-14 0 -21 6.66699 -21 20zM400.998 889.001h332c52 0 93.333 13.667 124 41s46 64.833 46 112.5s-15.333 85.167 -46 112.5s-72 41 -124 41h-332v-307zM501.998 -81.999
c0 13.333 6.66699 20.333 20 21h221c13.333 0 20.333 -7 21 -21v-280c0 -132.667 -59.333 -199 -178 -199h-56c-13.333 0 -20 6.66699 -20 20v86c0 13.333 6.66699 20.333 20 21c34 0 58.333 6.83301 73 20.5s22 35.5 22 65.5v24h-103c-13.333 0 -20 7 -20 21v221z" />
    <glyph glyph-name="rcommaaccent" unicode="&#x157;" horiz-adv-x="884" 
d="M135 20v988c0 13.333 7 20 21 20h204c13.333 0 20.333 -6.66699 21 -20v-56c68 64 152 96.333 252 97c62.667 0 125.334 -11 188.001 -33c16.667 -6.66699 25 -19 25 -37v-191c0 -15.333 -5.66699 -22.666 -17 -21.999c-2.66699 0 -7.33398 1.33301 -14.001 4
c-78 38 -148.333 57 -211 57c-70.667 0 -125.5 -20.833 -164.5 -62.5s-58.5 -112.834 -58.5 -213.501v-531c0 -13.333 -7 -20 -21 -20h-204c-14 0 -21 6.66699 -21 20zM244 -82c0 13.333 6.66699 20.333 20 21h221c13.333 0 20.333 -7 21 -21v-280
c0 -132.667 -59.333 -199 -178 -199h-56c-13.333 0 -20 6.66699 -20 20v86c0 13.333 6.66699 20.333 20 21c34 0 58.333 6.83301 73 20.5s22 35.5 22 65.5v24h-103c-13.333 0 -20 7 -20 21v221z" />
    <glyph glyph-name="Rcaron" unicode="&#x158;" horiz-adv-x="1259" 
d="M143 20l-0.00195312 1393c0 13.333 7 20.333 21 21h559c132.667 0 238.834 -34.5 318.501 -103.5s119.5 -165.167 119.5 -288.5c0 -86 -25.167 -162 -75.5 -228s-113.166 -114.667 -188.499 -146l305 -648c1.33301 -2.66699 2 -5.33398 2 -8.00098c0 -8 -6 -12 -18 -12
h-236c-10.667 0 -20 6.66699 -28 20l-308 631h-213v-631c0 -13.333 -6.66699 -20 -20 -20h-217c-14 0 -21 6.66699 -21 20zM246.998 1833c2 4 6.33301 6.00098 13 6.00098h193c12 0 24 -6 36 -18l97 -97l96 97c12 12 24.333 18 37 18h192c6.66699 0 11.167 -2 13.5 -6
s1.5 -8.66699 -2.5 -14l-222 -291c-9.33301 -10.667 -19.333 -16.334 -30 -17.001h-168c-10.667 0 -21 5.66699 -31 17l-221 291c-4 5.33301 -5 10 -3 14zM400.998 889.002h332c52 0 93.333 13.667 124 41s46 64.833 46 112.5s-15.333 85.167 -46 112.5s-72 41 -124 41h-332
v-307z" />
    <glyph glyph-name="rcaron" unicode="&#x159;" horiz-adv-x="884" 
d="M135 20v988c0 13.333 7 20 21 20h204c13.333 0 20.333 -6.66699 21 -20v-56c68 64 152 96.333 252 97c62.667 0 125.334 -11 188.001 -33c16.667 -6.66699 25 -19 25 -37v-191c0 -15.333 -5.66699 -22.666 -17 -21.999c-2.66699 0 -7.33398 1.33301 -14.001 4
c-78 38 -148.333 57 -211 57c-70.667 0 -125.5 -20.833 -164.5 -62.5s-58.5 -112.834 -58.5 -213.501v-531c0 -13.333 -7 -20 -21 -20h-204c-14 0 -21 6.66699 -21 20zM136 1427.5c2 4.33301 6.66602 6.5 13.999 6.5h192c12 0 24.333 -6.33301 37 -19l96 -96l96 96
c12 12 24.333 18.333 37 19h193c6.66699 0 11 -2.16699 13 -6.5s1 -9.16602 -3 -14.499l-221 -291c-9.33301 -10.667 -19.666 -16 -30.999 -16h-168c-10.667 0 -21 5.33301 -31 16l-221 291c-4 5.33301 -5 10.166 -3 14.499z" />
    <glyph glyph-name="Sacute" unicode="&#x15a;" horiz-adv-x="1208" 
d="M47 463c0 13.333 6.99805 20.002 20.998 20.002h215c12 0 18.667 -6.66699 20 -20c6.66699 -80.667 37.667 -141.834 93 -183.501s128 -62.5 218 -62.5c86 0 154.667 17.5 206 52.5s77 81.167 77 138.5c0 90 -108.667 162.333 -326 217
c-165.333 42 -288.166 94.833 -368.499 158.5s-120.5 151.5 -120.5 263.5c0 125.333 49.167 224.5 147.5 297.5s216.5 109.5 354.5 109.5c152.667 0 278.167 -42.333 376.5 -127s148.833 -185 151.5 -301c0 -13.333 -6.66699 -20 -20 -20h-218c-12 0 -18.667 6.66699 -20 20
c-9.33301 61.333 -39 108.5 -89 141.5s-111.667 49.5 -185 49.5c-69.333 0 -126.666 -13.667 -171.999 -41s-68 -66.333 -68 -117c0 -54.667 29 -98.334 87 -131.001s142.333 -65 253 -97c68 -19.333 127.667 -39.166 179 -59.499s100.833 -46.166 148.5 -77.499
s84.167 -68.833 109.5 -112.5s38 -92.834 38 -147.501c0 -143.333 -49.833 -254.833 -149.5 -334.5s-234.167 -119.5 -403.5 -119.5c-158.667 0 -290.5 46.667 -395.5 140s-158.167 207.666 -159.5 342.999zM417.998 1561l140.999 258c8 13.333 18.333 20 31 20h260
c6.66699 0 11 -2 13 -6s1 -8.66699 -3 -14l-211 -260c-9.33301 -12 -21.666 -18.333 -36.999 -19h-184c-14.667 0.666992 -18 7.66699 -10 21z" />
    <glyph glyph-name="sacute" unicode="&#x15b;" horiz-adv-x="1024" 
d="M61 342c0 13.333 6.99707 20.002 20.9971 20.002h207c12 0 18.667 -6.66699 20 -20c18 -94 88.333 -141 211 -141c52 0 95.333 8.83301 130 26.5s52 42.167 52 73.5c0 58.667 -86 102.334 -258 131.001c-238.667 40.667 -358 139.667 -358 297
c0 106.667 40.333 186.667 121 240s176.334 80 287.001 80c122.667 0 222.834 -29.833 300.501 -89.5s120.834 -135.167 129.501 -226.5c0 -13.333 -7 -20 -21 -20h-207c-13.333 0 -22.666 6.66699 -27.999 20c-31.333 68 -92.333 102.333 -183 103
c-44 0 -80.5 -8.66699 -109.5 -26s-43.5 -42.333 -43.5 -75c0 -28.667 17.333 -52.834 52 -72.501s100.667 -37.834 198 -54.501c121.333 -20.667 212.666 -53.834 273.999 -99.501s92 -113.5 92 -203.5c0 -96.667 -40.5 -175 -121.5 -235s-185.833 -90 -314.5 -90
c-130 0 -235.667 32.667 -317 98s-126 153.333 -134 264zM325.997 1155l141 257.999c8 13.333 18.333 20.333 31 21h260c6.66699 0 11 -2.16699 13 -6.5s1 -9.16602 -3 -14.499l-211 -260c-10.667 -12 -23 -18 -37 -18h-184c-14.667 0 -18 6.66699 -10 20z" />
    <glyph glyph-name="Scircumflex" unicode="&#x15c;" horiz-adv-x="1208" 
d="M47 463c0 13.333 6.99805 20.002 20.998 20.002h215c12 0 18.667 -6.66699 20 -20c6.66699 -80.667 37.667 -141.834 93 -183.501s128 -62.5 218 -62.5c86 0 154.667 17.5 206 52.5s77 81.167 77 138.5c0 90 -108.667 162.333 -326 217
c-165.333 42 -288.166 94.833 -368.499 158.5s-120.5 151.5 -120.5 263.5c0 125.333 49.167 224.5 147.5 297.5s216.5 109.5 354.5 109.5c152.667 0 278.167 -42.333 376.5 -127s148.833 -185 151.5 -301c0 -13.333 -6.66699 -20 -20 -20h-218c-12 0 -18.667 6.66699 -20 20
c-9.33301 61.333 -39 108.5 -89 141.5s-111.667 49.5 -185 49.5c-69.333 0 -126.666 -13.667 -171.999 -41s-68 -66.333 -68 -117c0 -54.667 29 -98.334 87 -131.001s142.333 -65 253 -97c68 -19.333 127.667 -39.166 179 -59.499s100.833 -46.166 148.5 -77.499
s84.167 -68.833 109.5 -112.5s38 -92.834 38 -147.501c0 -143.333 -49.833 -254.833 -149.5 -334.5s-234.167 -119.5 -403.5 -119.5c-158.667 0 -290.5 46.667 -395.5 140s-158.167 207.666 -159.5 342.999zM258.998 1517.5c-2 4.33301 -0.999023 9.16602 3.00098 14.499
l221 291c9.33301 10.667 19.666 16 30.999 16h168c10.667 0 21 -5.33301 31 -16l221 -291c4 -5.33301 5 -10.166 3 -14.499s-6.33301 -6.5 -13 -6.5h-193c-12 0 -24.333 6.33301 -37 19l-96 96l-96 -96c-12 -12 -24.333 -18.333 -37 -19h-193
c-6.66699 0 -11 2.16699 -13 6.5z" />
    <glyph glyph-name="scircumflex" unicode="&#x15d;" horiz-adv-x="1024" 
d="M61 342c0 13.333 6.99707 20.002 20.9971 20.002h207c12 0 18.667 -6.66699 20 -20c18 -94 88.333 -141 211 -141c52 0 95.333 8.83301 130 26.5s52 42.167 52 73.5c0 58.667 -86 102.334 -258 131.001c-238.667 40.667 -358 139.667 -358 297
c0 106.667 40.333 186.667 121 240s176.334 80 287.001 80c122.667 0 222.834 -29.833 300.501 -89.5s120.834 -135.167 129.501 -226.5c0 -13.333 -7 -20 -21 -20h-207c-13.333 0 -22.666 6.66699 -27.999 20c-31.333 68 -92.333 102.333 -183 103
c-44 0 -80.5 -8.66699 -109.5 -26s-43.5 -42.333 -43.5 -75c0 -28.667 17.333 -52.834 52 -72.501s100.667 -37.834 198 -54.501c121.333 -20.667 212.666 -53.834 273.999 -99.501s92 -113.5 92 -203.5c0 -96.667 -40.5 -175 -121.5 -235s-185.833 -90 -314.5 -90
c-130 0 -235.667 32.667 -317 98s-126 153.333 -134 264zM162.997 1112c-2 4 -0.999023 8.66602 3.00098 13.999l221 291c9.33301 10.667 19.666 16.334 30.999 17.001h168c10.667 0 20.667 -5.66699 30 -17l222 -291c4 -5.33301 5 -10 3 -14s-6.66699 -6 -14 -6h-192
c-12 0 -24.333 6 -37 18l-96 97l-96 -97c-12 -12 -24.333 -18 -37 -18h-193c-6.66699 0 -11 2 -13 6z" />
    <glyph glyph-name="Scedilla" unicode="&#x15e;" horiz-adv-x="1208" 
d="M47 463c0 13.333 6.99512 20 20.9951 20h215c12 0 18.667 -6.66699 20 -20c6.66699 -80.667 37.667 -141.834 93 -183.501s128 -62.5 218 -62.5c86 0 154.667 17.5 206 52.5s77 81.167 77 138.5c0 90 -108.667 162.333 -326 217
c-165.333 42 -288.166 94.833 -368.499 158.5s-120.5 151.5 -120.5 263.5c0 125.333 49.167 224.5 147.5 297.5s216.5 109.5 354.5 109.5c152.667 0 278.167 -42.333 376.5 -127s148.833 -185 151.5 -301c0 -13.333 -6.66699 -20 -20 -20h-218c-12 0 -18.667 6.66699 -20 20
c-9.33301 61.333 -39 108.5 -89 141.5s-111.667 49.5 -185 49.5c-69.333 0 -126.666 -13.667 -171.999 -41s-68 -66.333 -68 -117c0 -54.667 29 -98.334 87 -131.001s142.333 -65 253 -97c68 -19.333 127.667 -39.166 179 -59.499s100.833 -46.166 148.5 -77.499
s84.167 -68.833 109.5 -112.5s38 -92.834 38 -147.501c0 -139.333 -47.167 -248.5 -141.5 -327.5s-221.166 -121.167 -380.499 -126.5l-43 -89c32.667 9.33301 67.334 14.333 104.001 15c61.333 0 108.166 -14.667 140.499 -44s48.5 -68.666 48.5 -117.999
c0 -113.333 -78.667 -170 -236 -170c-90 0 -163.667 6.66699 -221 20c-13.333 4 -20 11 -20 21v90c0 13.333 6.66699 20.333 20 21c1.33301 0 22.5 -4.5 63.5 -13.5s84.833 -13.5 131.5 -13.5c48 0 71.667 13.667 71 41c0 24.667 -17 37 -51 37
c-31.333 0 -71.666 -6.33301 -120.999 -19c-5.33301 -1.33301 -10 -2 -14 -2c-5.33301 0 -10 2 -14 6l-48 45c-4 4 -6 9 -6 15c0 4 0.666992 8 2 12l43 156c-128.667 22 -233.167 77 -313.5 165s-121.166 190.667 -122.499 308z" />
    <glyph glyph-name="scedilla" unicode="&#x15f;" horiz-adv-x="1024" 
d="M61 342c0 13.333 6.99609 20.0029 20.9961 20.0029h207c12 0 18.667 -6.66699 20 -20c18 -94 88.333 -141 211 -141c52 0 95.333 8.83301 130 26.5s52 42.167 52 73.5c0 58.667 -86 102.334 -258 131.001c-238.667 40.667 -358 139.667 -358 297
c0 106.667 40.333 186.667 121 240s176.334 80 287.001 80c122.667 0 222.834 -29.833 300.501 -89.5s120.834 -135.167 129.501 -226.5c0 -13.333 -7 -20 -21 -20h-207c-13.333 0 -22.666 6.66699 -27.999 20c-31.333 68 -92.333 102.333 -183 103
c-44 0 -80.5 -8.66699 -109.5 -26s-43.5 -42.333 -43.5 -75c0 -28.667 17.333 -52.834 52 -72.501s100.667 -37.834 198 -54.501c121.333 -20.667 212.666 -53.834 273.999 -99.501s92 -113.5 92 -203.5c0 -94 -38.167 -170.667 -114.5 -230s-176.833 -91 -301.5 -95
l-43 -89c34 9.33301 69 14.333 105 15c61.333 0 108 -14.667 140 -44s48 -68.666 48 -117.999c0 -113.333 -78.333 -170 -235 -170c-90 0 -163.667 6.66699 -221 20c-13.333 4 -20.333 11 -21 21v90c0 13.333 7 20.333 21 21c1.33301 0 22.5 -4.5 63.5 -13.5
s84.5 -13.5 130.5 -13.5c48 0 72 13.667 72 41c0 24.667 -17 37 -51 37c-31.333 0 -71.666 -6.33301 -120.999 -19c-5.33301 -1.33301 -10 -2 -14 -2c-5.33301 0 -10.333 2 -15 6l-47 45c-4 4 -6 9 -6 15c0 4 0.666992 8 2 12l45 158
c-95.333 19.333 -171.833 59.666 -229.5 120.999s-89.167 137.666 -94.5 228.999z" />
    <glyph glyph-name="Scaron" unicode="&#x160;" horiz-adv-x="1208" 
d="M47 463c0 13.333 6.99805 20.002 20.998 20.002h215c12 0 18.667 -6.66699 20 -20c6.66699 -80.667 37.667 -141.834 93 -183.501s128 -62.5 218 -62.5c86 0 154.667 17.5 206 52.5s77 81.167 77 138.5c0 90 -108.667 162.333 -326 217
c-165.333 42 -288.166 94.833 -368.499 158.5s-120.5 151.5 -120.5 263.5c0 125.333 49.167 224.5 147.5 297.5s216.5 109.5 354.5 109.5c152.667 0 278.167 -42.333 376.5 -127s148.833 -185 151.5 -301c0 -13.333 -6.66699 -20 -20 -20h-218c-12 0 -18.667 6.66699 -20 20
c-9.33301 61.333 -39 108.5 -89 141.5s-111.667 49.5 -185 49.5c-69.333 0 -126.666 -13.667 -171.999 -41s-68 -66.333 -68 -117c0 -54.667 29 -98.334 87 -131.001s142.333 -65 253 -97c68 -19.333 127.667 -39.166 179 -59.499s100.833 -46.166 148.5 -77.499
s84.167 -68.833 109.5 -112.5s38 -92.834 38 -147.501c0 -143.333 -49.833 -254.833 -149.5 -334.5s-234.167 -119.5 -403.5 -119.5c-158.667 0 -290.5 46.667 -395.5 140s-158.167 207.666 -159.5 342.999zM256.998 1833c2 4 6.33203 6.00098 12.999 6.00098h193
c12 0 24.333 -6 37 -18l96 -97l96 97c12 12 24.333 18 37 18h193c6.66699 0 11 -2 13 -6s1 -8.66699 -3 -14l-221 -291c-9.33301 -10.667 -19.666 -16.334 -30.999 -17.001h-168c-10.667 0 -21 5.66699 -31 17l-221 291c-4 5.33301 -5 10 -3 14z" />
    <glyph glyph-name="scaron" unicode="&#x161;" horiz-adv-x="1024" 
d="M61 342c0 13.333 6.99707 20.002 20.9971 20.002h207c12 0 18.667 -6.66699 20 -20c18 -94 88.333 -141 211 -141c52 0 95.333 8.83301 130 26.5s52 42.167 52 73.5c0 58.667 -86 102.334 -258 131.001c-238.667 40.667 -358 139.667 -358 297
c0 106.667 40.333 186.667 121 240s176.334 80 287.001 80c122.667 0 222.834 -29.833 300.501 -89.5s120.834 -135.167 129.501 -226.5c0 -13.333 -7 -20 -21 -20h-207c-13.333 0 -22.666 6.66699 -27.999 20c-31.333 68 -92.333 102.333 -183 103
c-44 0 -80.5 -8.66699 -109.5 -26s-43.5 -42.333 -43.5 -75c0 -28.667 17.333 -52.834 52 -72.501s100.667 -37.834 198 -54.501c121.333 -20.667 212.666 -53.834 273.999 -99.501s92 -113.5 92 -203.5c0 -96.667 -40.5 -175 -121.5 -235s-185.833 -90 -314.5 -90
c-130 0 -235.667 32.667 -317 98s-126 153.333 -134 264zM150.497 1427.5c2.33301 4.33301 6.83301 6.5 13.5 6.5h192c12 0 24.333 -6.33301 37 -19l96 -96l97 96c12 12 24.333 18.333 37 19h192c6.66699 0 11 -2.16699 13 -6.5s1 -9.16602 -3 -14.499l-221 -291
c-9.33301 -10.667 -19.666 -16 -30.999 -16h-167c-10.667 0 -21 5.33301 -31 16l-221 291c-4.66699 5.33301 -5.83398 10.166 -3.50098 14.499z" />
    <glyph glyph-name="Tcommaaccent" unicode="&#x162;" horiz-adv-x="1155" 
d="M27 1217v196c0 13.333 6.66699 20.333 20 21h1061c13.333 0 20 -7 20 -21v-196c0 -13.333 -6.66699 -20.333 -20 -21h-401v-1176c0 -13.333 -7 -20 -21 -20h-217c-13.333 0 -20 6.66699 -20 20v1176h-402c-13.333 0.666992 -20 7.66699 -20 21zM446 -82
c0 13.333 7 20.333 21 21h221c13.333 0 20.333 -7 21 -21v-280c0 -132.667 -59.667 -199 -179 -199h-55c-13.333 0 -20 6.66699 -20 20v86c0 13.333 6.66699 20.333 20 21c34 0 58.167 6.83301 72.5 20.5s21.5 35.5 21.5 65.5v24h-102c-13.333 0 -20.333 7 -21 21v221z" />
    <glyph glyph-name="tcommaaccent" unicode="&#x163;" horiz-adv-x="860" 
d="M29 827l0.000976562 180.999c0 13.333 6.66699 20 20 20h176v295c0 13.333 7 20 21 20h205c13.333 0 20 -6.66699 20 -20v-295h309c13.333 0 20.333 -6.66699 21 -20v-181c0 -13.333 -7 -20 -21 -20h-309v-438c0 -57.333 11 -99.666 33 -126.999s58 -41 108 -41
c65.333 0 125.666 10 180.999 30c4 1.33301 8.66699 2 14 2c9.33301 0 14 -6 14 -18v-168c0 -19.333 -5.33301 -31 -16 -35c-57.333 -22 -136 -32.667 -236 -32c-102.667 0 -185.667 29.667 -249 89s-95 144.333 -95 255v483h-176c-13.333 0 -20 6.66699 -20 20z
M414.001 -82.001c0 13.333 6.66699 20.333 20 21h221c13.333 0 20.333 -7 21 -21v-280c0 -132.667 -59.333 -199 -178 -199h-56c-13.333 0 -20 6.66699 -20 20v86c0 13.333 6.66699 20.333 20 21c34 0 58.333 6.83301 73 20.5s22 35.5 22 65.5v24h-103
c-13.333 0 -20 7 -20 21v221z" />
    <glyph glyph-name="Tcaron" unicode="&#x164;" horiz-adv-x="1155" 
d="M27 1217v196c0 13.333 6.66699 20.333 20 21h1061c13.333 0 20 -7 20 -21v-196c0 -13.333 -6.66699 -20.333 -20 -21h-401v-1176c0 -13.333 -7 -20 -21 -20h-217c-13.333 0 -20 6.66699 -20 20v1176h-402c-13.333 0.666992 -20 7.66699 -20 21zM239 1833
c2 4 6.33398 6.00098 13.001 6.00098h192c12 0 24.333 -6 37 -18l97 -97l96 97c12 12 24.333 18 37 18h192c6.66699 0 11.167 -2 13.5 -6s1.16602 -8.66699 -3.50098 -14l-221 -291c-9.33301 -10.667 -19.333 -16.334 -30 -17.001h-168c-10.667 0 -21 5.66699 -31 17
l-221 291c-4 5.33301 -5 10 -3 14z" />
    </font>
</defs>
</svg>
