<?xml version="1.0" standalone="no"?>
<!DOCTYPE svg PUBLIC "-//W3C//DTD SVG 1.1//EN" "http://www.w3.org/Graphics/SVG/1.1/DTD/svg11.dtd" >
<svg>
<metadata>
Created by FontForge 20090914 at Mon May  4 10:57:41 2020
 By www-data
(C) 2016 Sharp Type Corporation
</metadata>
<defs>
<font id="SharpGroteskMedium19-Regular" horiz-adv-x="616" >
  <font-face 
    font-family="Sharp Grotesk Medium 19"
    font-weight="500"
    font-stretch="expanded"
    units-per-em="1000"
    panose-1="2 11 6 5 5 7 2 3 2 4"
    ascent="800"
    descent="-200"
    x-height="575"
    cap-height="713"
    bbox="-91 -336.002 1494 1167"
    underline-thickness="50"
    underline-position="-50"
    unicode-range="U+0020-U+3009"
  />
<missing-glyph horiz-adv-x="59" 
 />
    <glyph glyph-name=".notdef" horiz-adv-x="59" 
 />
    <glyph glyph-name="space" unicode=" " horiz-adv-x="290" 
 />
    <glyph glyph-name="exclam" unicode="!" horiz-adv-x="308" 
d="M87 713l-0.000976562 -177c0 -38.667 0.833008 -76.834 2.5 -114.501s3.5 -72.5 5.5 -104.5c2.66699 -31.333 5.16699 -57.666 7.5 -78.999s4.5 -35 6.5 -41c4.66699 1.33301 10.834 2.33301 18.501 3s16.167 1 25.5 1s17.666 -0.333008 24.999 -1s13.333 -1.66699 18 -3
c2 6 4.16699 19.667 6.5 41s4.83301 47.666 7.5 78.999c2.66699 32 4.83398 66.833 6.50098 104.5s2.5 75.834 2.5 114.501v177h-132zM150.999 -12c28 0 48.833 6.33105 62.5 18.998s20.5 34.334 20.5 65.001c0 31.333 -7 53.166 -21 65.499s-34.667 18.5 -62 18.5
s-48 -6.16699 -62 -18.5s-21 -34.166 -21 -65.499s6.16699 -53.166 18.5 -65.499s33.833 -18.5 64.5 -18.5z" />
    <glyph glyph-name="quotedbl" unicode="&#x22;" horiz-adv-x="401" 
d="M254 466l79 -0.00195312c3.33301 10 6.5 26.5 9.5 49.5s5.5 50.167 7.5 81.5l2 48.5c0.666992 16.333 1 32.833 1 49.5v18h-118v-18c0 -34 1 -66.667 3 -98s4.33301 -58.666 7 -81.999c1.33301 -11.333 2.83301 -21.166 4.5 -29.499s3.16699 -14.833 4.5 -19.5z
M67 465.998l79 -0.00195312c2.66699 10 5.5 26.5 8.5 49.5s5.83301 50.167 8.5 81.5l2 48.5c0.666992 16.333 1 32.833 1 49.5v18h-118v-18c0 -34 0.833008 -66.667 2.5 -98s4.16699 -58.666 7.5 -81.999c1.33301 -11.333 2.83301 -21.166 4.5 -29.499
s3.16699 -14.833 4.5 -19.5z" />
    <glyph glyph-name="numbersign" unicode="#" horiz-adv-x="837" 
d="M484 272h-163l30 179h162zM439 0h119l27 167h182v105h-164l29 179h170v105h-153l26 157h-119l-26 -157h-162l26 157h-121l-26 -157h-176v-105h159l-30 -179h-165v-105h148l-28 -167h121l28 167h162z" />
    <glyph glyph-name="dollar" unicode="$" horiz-adv-x="582" 
d="M356 -121l-0.00195312 111.005c64.667 9.33301 114 33.333 148 72s50.667 84 50 136v7c0 37.333 -6.5 68.166 -19.5 92.499s-30.167 44.166 -51.5 59.499c-22 14.667 -46 26.5 -72 35.5s-52 16.5 -78 22.5c-28.667 7.33301 -55.667 14.833 -81 22.5s-46 18.167 -62 31.5
c-7.33301 6.66699 -13 14.834 -17 24.501s-6 20.5 -6 32.5v3c0 25.333 8.66699 47 26 65s46.333 27 87 27c43.333 0 75.166 -9.5 95.499 -28.5s31.833 -47.5 34.5 -85.5v-15h128v16c-1.33301 56 -16.666 102.5 -45.999 139.5s-74 60.833 -134 71.5v120h-118v-116
c-66.667 -6.66699 -116.167 -28.5 -148.5 -65.5s-48.5 -80.167 -48.5 -129.5v-5c0 -36.667 6.33301 -66.834 19 -90.501s29.667 -42.834 51 -57.501c20.667 -14.667 43.834 -26.167 69.501 -34.5s51.5 -15.833 77.5 -22.5c30 -6.66699 58 -14 84 -22s47 -19 63 -33
c8 -7.33301 14 -16 18 -26s6 -21.333 6 -34v-6c0 -28.667 -10.5 -52.834 -31.5 -72.501s-53.833 -29.5 -98.5 -29.5c-52 0 -89.5 11.667 -112.5 35s-35.167 58 -36.5 104v18h-132v-18c2 -70.667 19.333 -126.834 52 -168.501s87.334 -67.167 164.001 -76.5v-110h120z" />
    <glyph glyph-name="percent" unicode="%" horiz-adv-x="729" 
d="M174 419c45.333 0 81 12.168 107 36.501s39 58.166 39 101.499v23c0 45.333 -13.167 80.5 -39.5 105.5s-61.5 37.5 -105.5 37.5c-42 0 -76.833 -12.167 -104.5 -36.5s-41.5 -59.833 -41.5 -106.5v-23c0 -44 12.667 -78 38 -102s61 -36 107 -36zM32 0.000976562h142
l46.5 63.5l73.5 101.5l89.5 124l95.5 132l91 124.5l75 102.5l29.5 38.5l20.5 26.5h-137l-47 -64.5l-74 -101.5l-91 -124l-96 -132l-92 -124.5l-76 -102.5l-29.5 -37.5zM175 498.001c-18.667 0 -33.168 5.49902 -43.501 16.499s-15.5 26.5 -15.5 46.5v18
c0 22 5.66699 38.333 17 49s25.333 16 42 16c18 0 32.5 -5.5 43.5 -16.5s16.5 -27.167 16.5 -48.5v-18c0 -19.333 -5.16699 -34.666 -15.5 -45.999s-25.166 -17 -44.499 -17zM550.999 -11c45.333 0 81 12.002 107 36.002s39 58 39 102v23c0 46 -13.333 81.5 -40 106.5
s-61.667 37.5 -105 37.5c-42 0 -76.833 -12.333 -104.5 -37s-41.5 -60.334 -41.5 -107.001v-23c0 -44.667 12.667 -78.834 38 -102.501s61 -35.5 107 -35.5zM551.999 68.002c-18.667 0 -33.334 5.49902 -44.001 16.499s-16 26.5 -16 46.5v19
c0 21.333 5.83301 37.333 17.5 48s25.834 16 42.501 16c18 0 32.333 -5.5 43 -16.5s16 -26.833 16 -47.5v-19c0 -19.333 -5.16699 -34.666 -15.5 -45.999s-24.833 -17 -43.5 -17z" />
    <glyph glyph-name="ampersand" unicode="&#x26;" horiz-adv-x="759" 
d="M291 534l-0.000976562 1c0 32 8.16699 56.833 24.5 74.5s36.5 26.5 60.5 26.5c20.667 0 37.334 -6.33301 50.001 -19s19 -29 19 -49v-1c0 -30.667 -10.5 -55 -31.5 -73s-55.833 -37.333 -104.5 -58c-6 18 -10.5 35.167 -13.5 51.5s-4.5 31.833 -4.5 46.5zM275.999 88
c-39.333 0 -70.333 8.50293 -93 25.5029s-34 43.167 -34 78.5v1c0.666992 27.333 9.66699 49.166 27 65.499s42.333 32.166 75 47.499c7.33301 -14.667 15.5 -29.167 24.5 -43.5l27.5 -42.5c14 -20.667 28.167 -39.834 42.5 -57.501s28.5 -34.167 42.5 -49.5
c-18 -8 -36.333 -14.167 -55 -18.5s-37.667 -6.5 -57 -6.5zM639.999 -9.99707c22.667 0 42.0029 2.49707 58.0029 7.49707s28.667 12.167 38 21.5v109c-12.667 -11.333 -25.334 -20.333 -38.001 -27s-30 -10 -52 -10c-12.667 0 -26.5 1.83301 -41.5 5.5
s-30.167 9.5 -45.5 17.5c45.333 44.667 83.166 96.834 113.499 156.501s51.166 121.834 62.499 186.501v8h-115v-8c-8.66699 -50.667 -25.334 -101.167 -50.001 -151.5s-55.667 -93.5 -93 -129.5c-12.667 12.667 -25.834 27 -39.501 43s-27.5 33.667 -41.5 53l-25.5 39
c-8.33301 12.667 -15.833 25.334 -22.5 38.001c68 30 118.5 61.833 151.5 95.5s49.5 73.834 49.5 120.501v1c0 45.333 -15.167 83.166 -45.5 113.499s-72.166 45.5 -125.499 45.5c-56.667 0 -103 -16.833 -139 -50.5s-54 -81.834 -54 -144.501v-1
c0 -19.333 2.33301 -40.5 7 -63.5s11.334 -46.5 20.001 -70.5c-34.667 -14.667 -66.167 -31.334 -94.5 -50.001s-50.833 -41 -67.5 -67c-8 -13.333 -14.167 -28.166 -18.5 -44.499s-6.5 -34.166 -6.5 -53.499v-2c0 -44 10.167 -80 30.5 -108s48.5 -49 84.5 -63
c18 -6.66699 37.5 -11.667 58.5 -15s43.167 -5 66.5 -5c37.333 0 73 5 107 15s66 24 96 42c27.333 -18 55.333 -31.5 84 -40.5s58 -13.5 88 -13.5z" />
    <glyph glyph-name="quotesingle" unicode="'" horiz-adv-x="214" 
d="M67 466l79 -0.00195312c2.66699 10 5.5 26.5 8.5 49.5s5.83301 50.167 8.5 81.5l2 48.5c0.666992 16.333 1 32.833 1 49.5v18h-118v-18c0 -34 0.833008 -66.667 2.5 -98s4.16699 -58.666 7.5 -81.999c1.33301 -11.333 2.83301 -21.166 4.5 -29.499
s3.16699 -14.833 4.5 -19.5z" />
    <glyph glyph-name="parenleft" unicode="(" horiz-adv-x="397" 
d="M58 235c0 -92 12.833 -167.503 38.5 -226.503s61.5 -103.5 107.5 -133.5c22.667 -14.667 47.667 -26.167 75 -34.5s56.333 -13.166 87 -14.499v117c-53.333 4.66699 -96.333 30.834 -129 78.501s-49 121.834 -49 222.501v87c0 101.333 16.167 175.833 48.5 223.5
s75.5 74.5 129.5 80.5v115c-59.333 -4 -112.333 -21.333 -159 -52s-83 -76 -109 -136c-13.333 -30 -23.333 -63.833 -30 -101.5s-10 -79.5 -10 -125.5v-100z" />
    <glyph glyph-name="parenright" unicode=")" horiz-adv-x="397" 
d="M30 -174c62.667 3.33301 117 19.833 163 49.5s81.667 73.834 107 132.501c12.667 30 22.167 63.833 28.5 101.5s9.5 79.5 9.5 125.5v100c0 92 -13.167 167.833 -39.5 227.5s-62.5 104.834 -108.5 135.501c-23.333 15.333 -48.333 27.333 -75 36s-55 14 -85 16v-116
c54.667 -5.33301 98 -31.833 130 -79.5s48 -122.167 48 -223.5v-87c0 -100.667 -16.167 -174.834 -48.5 -222.501s-75.5 -73.834 -129.5 -78.501v-117z" />
    <glyph glyph-name="asterisk" unicode="*" horiz-adv-x="446" 
d="M355 451l49 85l-149 48l149 47l-50 86l-114 -105l33 152h-99l33 -151l-115 103l-50 -86l149 -47l-149 -47l50 -85l115 105l-33 -153h99l-32 152z" />
    <glyph glyph-name="plus" unicode="+" horiz-adv-x="518" 
d="M475 302v110h-162v155h-108v-155h-159v-110h159v-156h108v156h162z" />
    <glyph glyph-name="comma" unicode="," horiz-adv-x="293" 
d="M80 -146c51.333 7.33301 89.168 27.168 113.501 59.501s36.5 74.5 36.5 126.5c0 40.667 -6.16699 68.667 -18.5 84s-33.5 23 -63.5 23c-28.667 0 -49.5 -5.66699 -62.5 -17s-19.5 -32 -19.5 -62c0 -30.667 5.33301 -50.834 16 -60.501s28 -14.5 52 -14.5
c3.33301 0 6.66602 0.166992 9.99902 0.5s6.33301 0.833008 9 1.5c-3.33301 -22 -11.333 -39.5 -24 -52.5s-29.667 -21.5 -51 -25.5z" />
    <glyph glyph-name="hyphen" unicode="-" horiz-adv-x="511" 
d="M460 370h-409v-124h409v124z" />
    <glyph glyph-name="period" unicode="." horiz-adv-x="293" 
d="M145 -11c28 0 48.833 6.33105 62.5 18.998s20.5 34.334 20.5 65.001c0 31.333 -7 53.166 -21 65.499s-34.667 18.5 -62 18.5s-47.833 -6.16699 -61.5 -18.5s-20.5 -34.166 -20.5 -65.499s6.16699 -53.166 18.5 -65.499s33.5 -18.5 63.5 -18.5z" />
    <glyph glyph-name="slash" unicode="/" horiz-adv-x="357" 
d="M146 0l201 713h-135l-201 -713h135z" />
    <glyph glyph-name="zero" unicode="0" horiz-adv-x="647" 
d="M323 -14c84.667 0 152.332 26.332 202.999 78.999s76 131.334 76 236.001v106c0 69.333 -11.5 127.666 -34.5 174.999s-55.5 83 -97.5 107c-21.333 12 -44.166 21 -68.499 27s-50.5 9 -78.5 9c-87.333 0 -155.5 -27.167 -204.5 -81.5s-73.5 -133.5 -73.5 -237.5v-105
c0 -105.333 24.167 -184.166 72.5 -236.499s116.833 -78.5 205.5 -78.5zM322.998 99.999c-51.333 0 -88.833 17.501 -112.5 52.501s-35.5 86.167 -35.5 153.5v95c0 67.333 11.833 119.5 35.5 156.5s61.167 55.5 112.5 55.5c50.667 0 88 -18.333 112 -55s36 -89 36 -157v-94
c0 -68.667 -12.333 -120.334 -37 -155.001s-61.667 -52 -111 -52z" />
    <glyph glyph-name="one" unicode="1" horiz-adv-x="441" 
d="M421 0v119h-133v594h-101c-6 -36.667 -18.167 -63.5 -36.5 -80.5s-47.833 -27.167 -88.5 -30.5v-95h103v-388h-138v-119h394z" />
    <glyph glyph-name="two" unicode="2" horiz-adv-x="597" 
d="M563 0l0.00195312 114.995h-385c2 23.333 11.167 43.333 27.5 60s37.166 32.334 62.499 47.001l39 21l41 22c26 12.667 51.667 26.334 77 41.001s48.666 31.334 69.999 50.001c20.667 19.333 37.334 41.5 50.001 66.5s19 54.167 19 87.5v5
c0 61.333 -21.5 111.5 -64.5 150.5s-106.167 58.5 -189.5 58.5c-85.333 0 -151.333 -19.833 -198 -59.5s-70 -97.167 -70 -172.5v-43h126v38c0 41.333 11.833 73.333 35.5 96s58.5 34 104.5 34c42.667 0 74.667 -9 96 -27s32 -45 32 -81v-5c0 -24.667 -8.33301 -46 -25 -64
s-38.334 -34.333 -65.001 -49l-41.5 -22l-44.5 -22c-26.667 -13.333 -53.5 -27.666 -80.5 -42.999s-51.167 -32.666 -72.5 -51.999c-22 -19.333 -39.667 -42 -53 -68s-20 -56.667 -20 -92v-92h529z" />
    <glyph glyph-name="three" unicode="3" horiz-adv-x="615" 
d="M301 -13c88.667 0 156.331 19.332 202.998 57.999s70 89 70 151v9c0 43.333 -9.16699 78 -27.5 104s-44.833 44.667 -79.5 56c33.333 12.667 57.666 31.834 72.999 57.501s23 57.5 23 95.5v9c0 58.667 -22.167 106.167 -66.5 142.5s-107.833 54.5 -190.5 54.5
c-85.333 0 -150.833 -20.333 -196.5 -61s-68.5 -94.667 -68.5 -162v-29h124v24c0 35.333 11.833 63.833 35.5 85.5s57.834 32.5 102.501 32.5s77.667 -9.16699 99 -27.5s32 -42.833 32 -73.5v-8c0 -31.333 -9.5 -55.333 -28.5 -72s-49.167 -25 -90.5 -25h-77v-98h77
c42 0 73.833 -6.33301 95.5 -19s32.5 -36.667 32.5 -72v-10c0 -34 -12.667 -60.833 -38 -80.5s-60.666 -29.5 -105.999 -29.5c-48.667 0 -84.5 9.83301 -107.5 29.5s-34.5 50.5 -34.5 92.5v27h-126v-34c0 -76.667 21.333 -133.667 64 -171s111.334 -56 206.001 -56z" />
    <glyph glyph-name="four" unicode="4" horiz-adv-x="613" 
d="M358 264v264l-204 -264h204zM593 160h-113v-160h-122v160h-342v87l356 466h108v-449h113v-104z" />
    <glyph glyph-name="five" unicode="5" 
d="M305 -13c85.333 0 152.001 21.8359 200.001 65.5029s72 103.167 72 178.5v27c0 47.333 -9.33301 88.666 -28 123.999s-45.334 62.666 -80.001 81.999c-17.333 10 -36.5 17.5 -57.5 22.5s-43.833 7.5 -68.5 7.5c-42.667 0 -77.667 -6.5 -105 -19.5
s-49.666 -29.167 -66.999 -48.5l11.5 89l11.5 87h205c44.667 0 78 2.16699 100 6.5s37 14.5 45 30.5c3.33301 7.33301 6 17.166 8 29.499s3 26.833 3 43.5v1h-460l-47 -374l130 -35c0.666992 0.666992 1.66699 2.16699 3 4.5s2 3.83301 2 4.5
c13.333 21.333 30.666 39.333 51.999 54s50.333 22 87 22c40 0 71.5 -11 94.5 -33s34.5 -53.667 34.5 -95v-24c0 -44.667 -12.667 -79 -38 -103s-59.666 -36 -102.999 -36c-44.667 0 -78.334 11.167 -101.001 33.5s-34 51.833 -34 88.5v14h-133v-14
c0.666992 -74 22.5 -131.333 65.5 -172s108.833 -61 197.5 -61z" />
    <glyph glyph-name="six" unicode="6" horiz-adv-x="630" 
d="M590 219l0.00195312 8c0 71.333 -20.833 126 -62.5 164s-96.834 57 -165.501 57c-46 0 -85 -8.5 -117 -25.5s-56.667 -38.833 -74 -65.5v45c0 67.333 13 119.5 39 156.5s65.333 55.5 118 55.5c39.333 0 69.166 -9 89.499 -27s32.5 -43.667 36.5 -77v-4h127v5
c-4 68.667 -28.5 121.5 -73.5 158.5s-103.5 55.5 -175.5 55.5c-90 0 -161 -27.167 -213 -81.5s-78 -133.5 -78 -237.5v-105c0 -105.333 24 -184.166 72 -236.499s118.333 -78.5 211 -78.5c55.333 0 102.833 9.83301 142.5 29.5s70.167 47.167 91.5 82.5
c10.667 17.333 18.667 36.166 24 56.499s8 41.833 8 64.5zM323.002 100c-42.667 0 -75.833 10.668 -99.5 32.001s-39.167 53.333 -46.5 96c4 32 19.333 59.167 46 81.5s61.334 33.5 104.001 33.5c39.333 0 71.666 -8.83301 96.999 -26.5s38 -46.167 38 -85.5v-5
c0 -38.667 -12.5 -69.334 -37.5 -92.001s-58.833 -34 -101.5 -34z" />
    <glyph glyph-name="seven" unicode="7" horiz-adv-x="542" 
d="M245 0c12 51.333 28 105.332 48 161.999s43 112.667 69 168c25.333 56 52.333 108.833 81 158.5s57 93.5 85 131.5v93h-509v-118h366c-24 -31.333 -49.667 -69.166 -77 -113.499s-54.333 -92.833 -81 -145.5s-51.5 -107.5 -74.5 -164.5s-42.167 -114.167 -57.5 -171.5
h150z" />
    <glyph glyph-name="eight" unicode="8" horiz-adv-x="612" 
d="M305 -13c88.667 0 156.668 17.6689 204.001 53.002s71 84.666 71 147.999v14c0 42.667 -9.83301 77.667 -29.5 105s-46.167 47.333 -79.5 60c30 11.333 53.333 29.5 70 54.5s25 56.5 25 94.5v10c0 61.333 -22.833 109.666 -68.5 144.999s-108.834 53 -189.501 53
s-143.5 -17.667 -188.5 -53s-67.5 -83.666 -67.5 -144.999v-10c0 -38.667 7.66699 -70.5 23 -95.5s38 -43.167 68 -54.5c-33.333 -13.333 -60 -34 -80 -62s-30 -62 -30 -102v-14c0 -64.667 23.167 -114.334 69.5 -149.001s113.833 -52 202.5 -52zM319.001 409.002
l-26 -0.000976562c-40.667 0 -70.5 8.66699 -89.5 26s-28.5 40.333 -28.5 69v6c0 33.333 11.667 59.333 35 78s56.333 28 99 28c43.333 0 76.5 -9.16699 99.5 -27.5s34.5 -43.833 34.5 -76.5v-7c0 -29.333 -10.5 -52.666 -31.5 -69.999s-51.833 -26 -92.5 -26z
M306.001 100.001c-46 0 -81.667 9 -107 27s-38 44 -38 78v13c0 28.667 11.667 52.5 35 71.5s55 28.5 95 28.5h27c42 -0.666992 75.167 -9.66699 99.5 -27s36.5 -41.666 36.5 -72.999v-13c0 -34.667 -13.167 -60.834 -39.5 -78.501s-62.5 -26.5 -108.5 -26.5z" />
    <glyph glyph-name="nine" unicode="9" horiz-adv-x="625" 
d="M302 360c-42 0 -74.999 9.83105 -98.999 29.498s-36 48.834 -36 87.501v6c0 40 12 71.833 36 95.5s57.333 35.5 100 35.5c49.333 0 86.333 -13.667 111 -41s39 -66.666 43 -117.999c-9.33301 -27.333 -28.333 -50 -57 -68s-61.334 -27 -98.001 -27zM304.001 -14.002
c92.667 0 162.333 27.002 209 81.002s70 133 70 237v106c0 61.333 -9.33301 115.666 -28 162.999s-48.667 84.333 -90 111c-20.667 14 -44.667 24.333 -72 31s-58 10 -92 10c-54 0 -100.667 -10.333 -140 -31s-70 -49.334 -92 -86.001
c-10.667 -18 -18.667 -37.167 -24 -57.5s-8 -42.166 -8 -65.499v-8c0 -74.667 21.667 -129.5 65 -164.5s100.333 -52.5 171 -52.5c44.667 0 82.5 7.83301 113.5 23.5s55.167 36.167 72.5 61.5v-38c0 -68.667 -12.333 -120.834 -37 -156.501s-64 -53.5 -118 -53.5
c-38 0.666992 -68.333 10.167 -91 28.5s-35.667 44.833 -39 79.5v9h-129v-10c4 -72.667 28 -127.167 72 -163.5s106.333 -54.5 187 -54.5z" />
    <glyph glyph-name="colon" unicode=":" horiz-adv-x="298" 
d="M149 383c29.333 0 50.1641 5.50098 62.4971 16.501s18.5 32.5 18.5 64.5s-6.16699 53.5 -18.5 64.5s-33.166 16.5 -62.499 16.5s-50.166 -5.5 -62.499 -16.5s-18.5 -32.5 -18.5 -64.5c0 -32.667 5.83301 -54.334 17.5 -65.001s32.834 -16 63.501 -16zM148.998 27.001
c29.333 0 50.165 5.33301 62.498 16s18.5 32 18.5 64c0 32.667 -6 54.334 -18 65.001s-33 16 -63 16c-29.333 0 -50.166 -5.33301 -62.499 -16s-18.5 -32.334 -18.5 -65.001s5.83301 -54.167 17.5 -64.5s32.834 -15.5 63.501 -15.5z" />
    <glyph glyph-name="semicolon" unicode=";" horiz-adv-x="299" 
d="M149 383c29.333 0 50.1641 5.50098 62.4971 16.501s18.5 32.5 18.5 64.5s-6.16699 53.5 -18.5 64.5s-33.166 16.5 -62.499 16.5s-50.166 -5.5 -62.499 -16.5s-18.5 -32.5 -18.5 -64.5c0 -32.667 5.83301 -54.334 17.5 -65.001s32.834 -16 63.501 -16zM83.998 -145.999
c51.333 7.33301 89.1689 27.168 113.502 59.501s36.5 74.5 36.5 126.5c0 40.667 -6.16699 68.667 -18.5 84s-33.5 23 -63.5 23c-28.667 0 -49.5 -5.66699 -62.5 -17s-19.5 -32 -19.5 -62c0 -30.667 5.5 -50.834 16.5 -60.501s27.833 -14.5 50.5 -14.5
c3.33301 0 6.66602 0.166992 9.99902 0.5s6.66602 0.833008 9.99902 1.5c-3.33301 -22 -11.333 -39.5 -24 -52.5s-29.667 -21.5 -51 -25.5z" />
    <glyph glyph-name="less" unicode="&#x3c;" horiz-adv-x="544" 
d="M476 138v126l-278 102l278 101v119l-414 -169v-106z" />
    <glyph glyph-name="equal" unicode="=" horiz-adv-x="544" 
d="M478 432v106h-412v-106h412zM478 185v106h-412v-106h412z" />
    <glyph glyph-name="greater" unicode="&#x3e;" horiz-adv-x="544" 
d="M67 138l414 173v106l-414 169v-119l279 -101l-279 -102v-126z" />
    <glyph glyph-name="question" unicode="?" horiz-adv-x="622" 
d="M233 191c4.66699 4.66699 12.1719 8.00195 22.5049 10.002s23.166 3 38.499 3s28 -1.16699 38 -3.5s17.333 -5.5 22 -9.5l2 44c0.666992 26 10.167 45.5 28.5 58.5s39.166 25.5 62.499 37.5c19.333 10 38.166 21.5 56.499 34.5s33.833 30.833 46.5 53.5
c6 11.333 10.5 24.5 13.5 39.5s4.5 31.833 4.5 50.5v15c0 36 -9 69.167 -27 99.5s-45.667 54.833 -83 73.5c-18.667 8.66699 -39.834 15.334 -63.501 20.001s-49.834 7 -78.501 7c-88 0 -153.667 -19.5 -197 -58.5s-65 -94.167 -65 -165.5v-41h127v34
c0 39.333 10.333 69.833 31 91.5s54.667 32.5 102 32.5c44 0 75.833 -9.66699 95.5 -29s29.5 -43 29.5 -71v-14c0 -20.667 -4.66699 -37.334 -14 -50.001s-21.333 -23 -36 -31l-22.5 -12l-23.5 -12c-18 -8.66699 -35.667 -18.5 -53 -29.5s-31.333 -25.167 -42 -42.5
c-6 -9.33301 -10.333 -19.833 -13 -31.5s-4 -24.834 -4 -39.501v-16c0 -10 0.166992 -19.333 0.5 -28s0.833008 -15.334 1.5 -20.001zM294.005 -10.998c28 0 48.833 6.33105 62.5 18.998s20.5 34.334 20.5 65.001c0 31.333 -7 53.166 -21 65.499s-34.667 18.5 -62 18.5
s-48 -6.16699 -62 -18.5s-21 -34.166 -21 -65.499s6.33301 -53.166 19 -65.499s34 -18.5 64 -18.5z" />
    <glyph glyph-name="at" unicode="@" horiz-adv-x="769" 
d="M382 -131c58 0 110.666 11.833 157.999 35.5s85 56.5 113 98.5l-110 31c-18 -20.667 -39.333 -37 -64 -49s-56.334 -18 -95.001 -18c-76.667 0 -136.334 22.333 -179.001 67s-64 112.334 -64 203.001v77c0 90 22.667 158.333 68 205s106.333 70 183 70
c58.667 0 105.167 -10.667 139.5 -32s58.833 -50.333 73.5 -87c8 -18.667 13.833 -38.5 17.5 -59.5s5.5 -43.5 5.5 -67.5v-46c0 -56 -4.16699 -94 -12.5 -114s-20.166 -30 -35.499 -30c-14.667 0 -25 4.5 -31 13.5s-9 27.5 -9 55.5v268h-56l-20 -68
c-6.66699 21.333 -18.834 39 -36.501 53s-40.834 21 -69.501 21c-42 0 -75.5 -15.167 -100.5 -45.5s-37.5 -75.5 -37.5 -135.5v-75c0 -58 11.333 -102.333 34 -133s57.334 -46 104.001 -46c26.667 0 48.667 6 66 18s29.666 29.667 36.999 53
c9.33301 -22.667 24 -39.334 44 -50.001s43.667 -16 71 -16c46.667 0 83.334 18.833 110.001 56.5s40 96.834 40 177.501v49c0 64.667 -12.167 122.5 -36.5 173.5s-61.166 91.167 -110.499 120.5c-24.667 15.333 -52.5 26.666 -83.5 33.999s-65.167 11 -102.5 11
c-68 0 -128.167 -14.167 -180.5 -42.5s-93.166 -69.5 -122.499 -123.5c-15.333 -27.333 -26.666 -57.5 -33.999 -90.5s-11 -69.167 -11 -108.5v-96c0 -83.333 14.333 -151.333 43 -204s68.334 -91.667 119.001 -117c25.333 -12 52.666 -21.167 81.999 -27.5
s60.333 -9.5 93 -9.5zM381.999 147c-23.333 0 -39.666 7.50098 -48.999 22.501s-14 39.5 -14 73.5v69c0 35.333 5.33301 60.666 16 75.999s26.667 23 48 23s36.666 -6.83301 45.999 -20.5s14 -38.167 14 -73.5v-79c0 -32.667 -4.5 -56 -13.5 -70s-24.833 -21 -47.5 -21z" />
    <glyph glyph-name="A" unicode="A" horiz-adv-x="634" 
d="M307 546l8 49l7 -49l93 -285h-197zM500 0h125l-247 713h-127l-241 -713h126l49 155h264z" />
    <glyph glyph-name="B" unicode="B" horiz-adv-x="619" 
d="M335 0c87.333 0 151.332 17 191.999 51s61 82.333 61 145v14c0 42 -9.5 75.333 -28.5 100s-46.833 43 -83.5 55c32.667 12.667 57.167 32.167 73.5 58.5s24.5 59.833 24.5 100.5v11c0 56.667 -19.667 100.5 -59 131.5s-103.666 46.5 -192.999 46.5h-255v-713h268z
M324.999 612c45.333 0 78 -7.33203 98 -21.999s30 -37.334 30 -68.001v-9c0 -34.667 -10.667 -59.667 -32 -75s-53.333 -23 -96 -23h-137v197h137zM318.999 314.001c48.667 0 84.5 -7.66699 107.5 -23s34.5 -40 34.5 -74v-11c0 -33.333 -10.833 -58.333 -32.5 -75
s-58.167 -25 -109.5 -25h-131v208h131z" />
    <glyph glyph-name="C" unicode="C" horiz-adv-x="648" 
d="M329 -14c93.333 0 162.669 23.667 208.002 71s71.333 113.666 78 198.999v16h-132v-15c-4 -49.333 -17.5 -87.166 -40.5 -113.499s-59.167 -39.5 -108.5 -39.5c-54 0 -94.667 17.333 -122 52s-41 84.334 -41 149.001v96c0 71.333 13.5 124.666 40.5 159.999
s67.5 53 121.5 53c49.333 0 85.666 -12.5 108.999 -37.5s37 -62.167 41 -111.5v-10h129v11c-7.33301 86.667 -34.333 151.5 -81 194.5s-112.667 64.5 -198 64.5c-90.667 0 -161.334 -27.167 -212.001 -81.5s-76 -132.833 -76 -235.5v-109
c0 -102.667 24.667 -180.5 74 -233.5s119.333 -79.5 210 -79.5z" />
    <glyph glyph-name="D" unicode="D" horiz-adv-x="641" 
d="M67 0l238.001 0.000976562c56 0 106 11.167 150 33.5s78.333 55.833 103 100.5c12.667 22.667 22.167 48.167 28.5 76.5s9.5 59.5 9.5 93.5v104c0 70 -13.333 127.5 -40 172.5s-62.334 78.167 -107.001 99.5c-22 11.333 -45.333 19.666 -70 24.999s-50.667 8 -78 8h-234
v-713zM295.001 606.001c52.667 0 95.166 -17 127.499 -51s48.5 -86 48.5 -156v-84c0 -70 -15.667 -121.833 -47 -155.5s-72.666 -50.5 -123.999 -50.5h-110v497h105z" />
    <glyph glyph-name="E" unicode="E" horiz-adv-x="571" 
d="M538 111h-350v195h285v109h-285v191h335v107h-456v-713h471v111z" />
    <glyph glyph-name="F" unicode="F" horiz-adv-x="539" 
d="M487 285v112h-299v205h318v111h-439v-713h121v285h299z" />
    <glyph glyph-name="G" unicode="G" horiz-adv-x="660" 
d="M514 0h90.9971v373h-290v-107h161v-11c0 -27.333 -4.83301 -53 -14.5 -77s-25.167 -43.333 -46.5 -58c-10.667 -7.33301 -23 -12.833 -37 -16.5s-30 -5.5 -48 -5.5c-54 0 -94.167 16.167 -120.5 48.5s-39.166 83.833 -38.499 154.5v103c0 70.667 13.333 123.5 40 158.5
s67.667 52.5 123 52.5c34 0 60.833 -6.16699 80.5 -18.5s33.834 -28.5 42.501 -48.5c4.66699 -10 8.33398 -20.667 11.001 -32s4.33398 -23 5.00098 -35v-16h130v16c-3.33301 77.333 -27.833 137.333 -73.5 180s-110.167 64 -193.5 64
c-90.667 0 -161.834 -26.333 -213.501 -79s-77.5 -131.667 -77.5 -237v-113c0 -106 21.5 -184.167 64.5 -234.5s104.833 -75.5 185.5 -75.5c62.667 0 110.667 16.333 144 49s54.333 73.667 63 123z" />
    <glyph glyph-name="H" unicode="H" horiz-adv-x="663" 
d="M473 0h123v713h-123v-297h-282v297h-124v-713h124v298h282v-298z" />
    <glyph glyph-name="I" unicode="I" horiz-adv-x="443" 
d="M404 0v115h-123v487h123v111h-365v-111h124v-487h-124v-115h365z" />
    <glyph glyph-name="J" unicode="J" horiz-adv-x="557" 
d="M260 -14c75.333 0 133.668 21.167 175.001 63.5s62 109.5 62 201.5v462h-128v-457c0 -56.667 -8.33301 -96 -25 -118s-44.667 -33 -84 -33c-36.667 0 -63.334 9.83301 -80.001 29.5s-26 47.5 -28 83.5v24h-128v-23c2 -78 23.5 -136.333 64.5 -175s98.167 -58 171.5 -58z
" />
    <glyph glyph-name="K" unicode="K" horiz-adv-x="627" 
d="M304 369l187 -369h138l-237 451l221 262h-151l-272 -328v328h-123v-713h123v236l113 135z" />
    <glyph glyph-name="L" unicode="L" horiz-adv-x="535" 
d="M510 0v116h-318v597h-125v-713h443z" />
    <glyph glyph-name="M" unicode="M" horiz-adv-x="757" 
d="M201 490l165 -246h21l165 244l21 38v-526h117v712h-114l-197 -297l-197 298h-115v-713h118v520z" />
    <glyph glyph-name="N" unicode="N" horiz-adv-x="670" 
d="M184 478l-7 67l24 -62l289 -483h113v713h-117v-472l6 -65l-24 60l-284 477h-117v-713h117v478z" />
    <glyph glyph-name="O" unicode="O" horiz-adv-x="662" 
d="M330 -14c88 0 157.832 25.832 209.499 77.499s77.5 130.834 77.5 237.501v106c0 69.333 -11.833 127.666 -35.5 174.999s-57.167 83 -100.5 107c-21.333 12 -44.5 21 -69.5 27s-51.833 9 -80.5 9c-58 0 -108.333 -12.167 -151 -36.5s-76 -60.166 -100 -107.499
c-11.333 -23.333 -20 -49.5 -26 -78.5s-9 -60.833 -9 -95.5v-106c0 -108 24.833 -187.5 74.5 -238.5s119.834 -76.5 210.501 -76.5zM330.999 99.999c-54 0 -93.832 17.499 -119.499 52.499s-38.5 86.167 -38.5 153.5v96c0 67.333 12.833 119.5 38.5 156.5
s65.167 55.5 118.5 55.5s93.166 -18.167 119.499 -54.5s39.5 -89.166 39.5 -158.499v-95c0 -67.333 -13 -118.5 -39 -153.5s-65.667 -52.5 -119 -52.5z" />
    <glyph glyph-name="P" unicode="P" horiz-adv-x="614" 
d="M317 607c48 0 83.667 -11.167 107 -33.5s35 -52.5 35 -90.5v-23c0 -41.333 -11.833 -73 -35.5 -95s-58.167 -33 -103.5 -33h-131v275h128zM322 226c88.667 -0.666992 154.333 20.333 197 63s64 99.667 64 171v23c0 70.667 -21.833 126.667 -65.5 168
s-110.167 62 -199.5 62h-251v-713h122v226h133z" />
    <glyph glyph-name="Q" unicode="Q" horiz-adv-x="659" 
d="M614 -116l-108.999 160c33.333 25.333 59.833 59.5 79.5 102.5s29.5 94.833 29.5 155.5v103c0 70 -12 128.667 -36 176s-57.667 83.333 -101 108c-21.333 12 -44.333 21 -69 27s-51 9 -79 9c-87.333 0 -156.5 -27.333 -207.5 -82s-76.5 -134 -76.5 -238v-103
c0 -108 24.833 -187.667 74.5 -239s118.5 -77 206.5 -77c11.333 0 22.166 0.5 32.499 1.5s20.5 2.5 30.5 4.5l62 -108h163zM329.001 100c-54 0 -93.833 17.668 -119.5 53.001s-38.5 86.666 -38.5 153.999v94c0 67.333 12.833 119.666 38.5 156.999s65.5 56 119.5 56
c53.333 0 93 -18.333 119 -55s39 -89.667 39 -159v-93c0 -67.333 -13.333 -118.666 -40 -153.999s-66 -53 -118 -53z" />
    <glyph glyph-name="R" unicode="R" horiz-adv-x="628" 
d="M323 607c46 0 79.5 -9.33105 100.5 -27.998s31.5 -45.334 31.5 -80.001v-13c0 -36.667 -11.5 -64.834 -34.5 -84.501s-55.833 -29.5 -98.5 -29.5h-132v235h133zM317 265.002c45.333 0 76.833 -8.66602 94.5 -25.999s26.5 -45.666 26.5 -84.999v-113
c0 -8.66699 1.16699 -16.834 3.5 -24.501s5.83301 -13.167 10.5 -16.5h132c-5.33301 4 -9.5 9.33301 -12.5 16s-4.5 14.334 -4.5 23.001v118c0 47.333 -8 84 -24 110s-41.333 44.333 -76 55c37.333 13.333 65.833 33.666 85.5 60.999s29.5 63.666 29.5 108.999v16
c0 63.333 -20 113.333 -60 150s-105.333 55 -196 55h-259v-713h123v265h127z" />
    <glyph glyph-name="S" unicode="S" horiz-adv-x="582" 
d="M300 -14c55.333 0 101.83 9.66992 139.497 29.0029s66.167 45 85.5 77c9.33301 16.667 16.333 34 21 52s7 36.667 7 56v8c0 37.333 -6.33301 68 -19 92s-29.667 43 -51 57c-21.333 14.667 -45 26.334 -71 35.001s-52.667 16.334 -80 23.001l-81 23
c-25.333 7.33301 -45.666 17.666 -60.999 30.999c-7.33301 6.66699 -13 14.667 -17 24s-6 20 -6 32v3c0 25.333 8.66699 47.166 26 65.499s46.333 27.5 87 27.5c45.333 0 78 -9.5 98 -28.5s31.333 -47.5 34 -85.5v-15h127v16c-2 66.667 -23.333 119.5 -64 158.5
s-105 58.5 -193 58.5c-54.667 0 -99.667 -9.16699 -135 -27.5s-61.666 -42.5 -78.999 -72.5c-8.66699 -14.667 -15.167 -30.167 -19.5 -46.5s-6.5 -33.5 -6.5 -51.5v-5c0 -36.667 6.33301 -66.834 19 -90.501s29.667 -42.5 51 -56.5c20.667 -14.667 44 -26.167 70 -34.5
s52 -15.833 78 -22.5c29.333 -6.66699 57 -14 83 -22s47 -19 63 -33c8 -7.33301 14 -15.833 18 -25.5s6 -20.834 6 -33.501v-6c0 -28 -10.333 -52.167 -31 -72.5s-53.334 -30.5 -98.001 -30.5c-51.333 0 -88.666 11.5 -111.999 34.5s-35.666 57.5 -36.999 103.5v18h-132v-18
c1.33301 -52.667 11.333 -97.334 30 -134.001s48 -64.667 88 -84c20.667 -10 44.5 -17.333 71.5 -22s57.167 -7 90.5 -7z" />
    <glyph glyph-name="T" unicode="T" horiz-adv-x="548" 
d="M523 603v110h-497v-110h182v-603h126v603h189z" />
    <glyph glyph-name="U" unicode="U" horiz-adv-x="641" 
d="M321 -14c84.667 0 149.166 24.333 193.499 73s66.5 125 66.5 229v425h-129v-420c0 -66 -10 -113.667 -30 -143s-53.333 -44 -100 -44s-80.667 14.833 -102 44.5s-32 77.167 -32 142.5v420h-128v-425c0 -104 21.333 -180.333 64 -229s108.334 -73 197.001 -73z" />
    <glyph glyph-name="V" unicode="V" horiz-adv-x="623" 
d="M377 0l233 713h-130l-165 -528l-170 528h-130l236 -713h126z" />
    <glyph glyph-name="W" unicode="W" horiz-adv-x="925" 
d="M610 0h117l179 713h-122l-125 -518l-157 518h-93l-158 -506l-110 506h-123l162 -713h115l160 502z" />
    <glyph glyph-name="X" unicode="X" horiz-adv-x="621" 
d="M471 0h143l-231 377l211 336h-141l-142 -239l-138 239h-140l205 -335l-233 -378h147l160 272z" />
    <glyph glyph-name="Y" unicode="Y" horiz-adv-x="594" 
d="M356 0v278l232 435h-135l-159 -310l-152 310h-135l221 -435v-278h128z" />
    <glyph glyph-name="Z" unicode="Z" horiz-adv-x="576" 
d="M540 0v117h-348l346 484v112h-481v-112h336l-359 -497v-104h506z" />
    <glyph glyph-name="bracketleft" unicode="[" horiz-adv-x="381" 
d="M350 -72h-152v720h152v101h-276v-922h276v101z" />
    <glyph glyph-name="backslash" unicode="\" horiz-adv-x="357" 
d="M10 713l203 -713h133l-203 713h-133z" />
    <glyph glyph-name="bracketright" unicode="]" horiz-adv-x="381" 
d="M308 -173v921h-276v-100h152v-720h-152v-101h276z" />
    <glyph glyph-name="asciicircum" unicode="^" horiz-adv-x="554" 
d="M366 412h108l-153 301h-89l-152 -301h109l88 195z" />
    <glyph glyph-name="uni005F" unicode="_" horiz-adv-x="619" 
d="M589 -57h-560v-124h560v124z" />
    <glyph glyph-name="grave" unicode="`" horiz-adv-x="549" 
d="M300 653h96l-134 198h-134z" />
    <glyph glyph-name="a" unicode="a" horiz-adv-x="600" 
d="M256 83c-28.667 0 -50.333 5.99902 -65 17.999s-22 30 -22 54v2c0 13.333 2.66699 25.166 8 35.499s13 19.5 23 27.5c12 8.66699 26.333 15.667 43 21s41.334 11 74.001 17c25.333 5.33301 47 10.833 65 16.5s32.333 12.834 43 21.501v-47
c0 -27.333 -7 -53.666 -21 -78.999s-33.667 -46.333 -59 -63c-12.667 -8 -26.334 -14 -41.001 -18s-30.667 -6 -48 -6zM443.001 -0.000976562l100.002 -0.000976562v394c0 59.333 -18 106.5 -54 141.5s-97.333 52.5 -184 52.5c-77.333 0 -137.833 -18.833 -181.5 -56.5
s-67.167 -87.167 -70.5 -148.5v-13h126v12c1.33301 34.667 12.666 61.5 33.999 80.5s53.666 28.5 96.999 28.5c41.333 0 70.666 -7 87.999 -21s26 -33.333 26 -58v-1c0 -22.667 -10.167 -39 -30.5 -49s-55.166 -19.333 -104.499 -28c-33.333 -6 -60.833 -11.333 -82.5 -16
s-40.167 -10 -55.5 -16c-8 -2.66699 -15.833 -6 -23.5 -10s-15.167 -8.66699 -22.5 -14c-22 -14.667 -39.167 -33.167 -51.5 -55.5s-18.5 -49.166 -18.5 -80.499v-4c0 -46.667 15 -83.5 45 -110.5s74.333 -40.5 133 -40.5c54 0 99 11.5 135 34.5s63 52.167 81 87.5z" />
    <glyph glyph-name="b" unicode="b" horiz-adv-x="629" 
d="M361 -14c70.667 0 126.667 24.665 168 73.998s62 119.333 62 210v44c0 90.667 -21 158.834 -63 204.501s-96.667 68.834 -164 69.501c-44 0 -81.333 -10.5 -112 -31.5s-53.667 -49.833 -69 -86.5v293h-120v-763h104l12 111c14 -37.333 36.167 -67.5 66.5 -90.5
s68.833 -34.5 115.5 -34.5zM323 95.998c-44 0 -78.667 15.666 -104 46.999s-38 75 -38 131v41c0 49.333 13 89.833 39 121.5s61.333 47.5 106 47.5c41.333 0 75 -15 101 -45s39 -72.333 39 -127v-42c0 -57.333 -12.5 -100.666 -37.5 -129.999s-60.167 -44 -105.5 -44z" />
    <glyph glyph-name="c" unicode="c" horiz-adv-x="599" 
d="M306 -14c75.333 0 136.831 18.998 184.498 56.998s73.834 97.333 78.501 178v14h-129v-12c-4.66699 -42.667 -18.167 -74.667 -40.5 -96s-53.166 -32 -92.499 -32c-44.667 0 -79.334 14.5 -104.001 43.5s-37 69.833 -37 122.5v48c0 57.333 13 100.5 39 129.5
s60.333 43.5 103 43.5c38.667 0 69 -10.167 91 -30.5s35.333 -52.166 40 -95.499v-11h130v10c-6 79.333 -32.167 138 -78.5 176s-107.166 57 -182.499 57c-52 0 -98.333 -10.667 -139 -32s-72.667 -52.666 -96 -93.999c-12 -20.667 -20.833 -43.667 -26.5 -69
s-8.5 -53.333 -8.5 -84v-50c0 -88 23.167 -155.5 69.5 -202.5s112.5 -70.5 198.5 -70.5z" />
    <glyph glyph-name="d" unicode="d" horiz-adv-x="630" 
d="M304 96c-40.667 0 -74 14.668 -100 44.001s-39 73.333 -39 132v39c0 54.667 12.333 97.167 37 127.5s60 45.5 106 45.5c44 0 78.667 -15.667 104 -47s38 -73 38 -125v-42c0 -52.667 -13 -94.834 -39 -126.501s-61.667 -47.5 -107 -47.5zM465 0.000976562
l101.999 -0.000976562v763h-120v-282c-15.333 33.333 -37.833 59.333 -67.5 78s-66.167 28 -109.5 28c-68.667 0 -124.5 -23.167 -167.5 -69.5s-64.5 -114.166 -64.5 -203.499v-44c0 -92.667 20.833 -162.667 62.5 -210s96.834 -71 165.501 -71c48 0 87.5 11.833 118.5 35.5
s53.167 54.167 66.5 91.5z" />
    <glyph glyph-name="e" unicode="e" horiz-adv-x="608" 
d="M311 488c45.333 0 79.333 -13.167 102 -39.5s35 -62.166 37 -107.499h-290c4 47.333 19 83.666 45 108.999s61.333 38 106 38zM565 172l0.00292969 2.00098h-131v-4c-8 -24.667 -21.833 -44.334 -41.5 -59.001s-46.834 -22 -81.501 -22
c-47.333 0 -83.833 13.333 -109.5 40s-39.834 64.667 -42.501 114h413v75c0 46.667 -9 90.5 -27 131.5s-46 74.167 -84 99.5c-19.333 13.333 -41.5 23.166 -66.5 29.499s-52.833 9.5 -83.5 9.5c-55.333 0 -103.5 -11.5 -144.5 -34.5s-72.833 -55.5 -95.5 -97.5
c-10.667 -20.667 -18.834 -43.5 -24.501 -68.5s-8.5 -51.833 -8.5 -80.5v-49c0 -84 22.167 -150.333 66.5 -199s111.833 -73 202.5 -73c75.333 0 133.833 16.833 175.5 50.5s69.167 78.834 82.5 135.501z" />
    <glyph glyph-name="f" unicode="f" horiz-adv-x="358" 
d="M347 467v107.998h-126v13c0 28.667 1.83301 50.334 5.5 65.001s11.5 24.334 23.5 29.001c5.33301 2.66699 12.5 4.66699 21.5 6s19.167 2 30.5 2h46v103h-63c-64 0 -110.5 -14.5 -139.5 -43.5s-43.5 -78.167 -43.5 -147.5v-27h-95v-108h95v-467h118l1 467h126z" />
    <glyph glyph-name="g" unicode="g" horiz-adv-x="572" 
d="M283 -248c96 0 166.833 17.4932 212.5 52.4932s68.5 81.5 68.5 139.5c0 48.667 -17.333 87.5 -52 116.5s-89.667 43.5 -165 43.5h-112c-32.667 0 -55.5 3 -68.5 9s-19.5 15.333 -19.5 28c0 9.33301 3.16699 17 9.5 23s18.833 10.333 37.5 13c9.33301 2 21 3.33301 35 4
s30.333 1 49 1h10c75.333 0 134.833 16.667 178.5 50s65.5 79.333 65.5 138v27c0 41.333 -13.5 76.833 -40.5 106.5s-65.167 47.834 -114.5 54.501l-5 1c59.333 0.666992 101.166 9.33398 125.499 26.001s36.5 47 36.5 91v19h-142v-14c0 -25.333 -2.66699 -45 -8 -59
s-16 -24 -32 -30c-8 -2.66699 -17.833 -5.16699 -29.5 -7.5s-25.5 -4.16602 -41.5 -5.49902l-27 -2c-62.667 -6 -112.667 -24.167 -150 -54.5s-56 -72.5 -56 -126.5v-23c0 -40 9.16699 -73 27.5 -99s45.833 -45 82.5 -57c-39.333 -7.33301 -68.833 -20.166 -88.5 -38.499
s-29.5 -42.166 -29.5 -71.499c0 -28 8.83301 -51 26.5 -69s44.834 -29.667 81.501 -35c-42 -10 -72.833 -25.5 -92.5 -46.5s-29.5 -46.167 -29.5 -75.5c0 -25.333 7 -47.666 21 -66.999s38.667 -34.666 74 -45.999c18 -5.33301 39.667 -9.33301 65 -12s54.333 -4 87 -4h10z
M288 270.993c-36.667 0 -65.167 8.16992 -85.5 24.5029s-30.5 40.833 -30.5 73.5v25c0 33.333 10.667 58.666 32 75.999s48 26.666 80 27.999c1.33301 0 2.5 0.166992 3.5 0.5s1.83301 0.5 2.5 0.5c34 0 62.167 -8 84.5 -24s33.5 -42.667 33.5 -80v-25
c0 -32.667 -10 -57.334 -30 -74.001s-50 -25 -90 -25zM264 -146.004c-40.667 0 -70.333 7.00098 -89 21.001s-28 29.667 -28 47v2c0 19.333 8.16699 36 24.5 50s40.833 22.667 73.5 26h96c39.333 0 67 -5.83301 83 -17.5s24 -26.834 24 -45.501c0 -26 -13 -46.333 -39 -61
s-66.667 -22 -122 -22h-23z" />
    <glyph glyph-name="h" unicode="h" horiz-adv-x="613" 
d="M182 316c0 49.333 11.167 88.999 33.5 118.999s54.833 45 97.5 45c43.333 0 73.666 -13.167 90.999 -39.5s26 -61.166 26 -104.499v-336h125v367c0 69.333 -16.167 123.5 -48.5 162.5s-81.166 58.5 -146.499 58.5c-42.667 0 -79 -10 -109 -30s-53 -46.667 -69 -80v285
h-119v-763h119v316z" />
    <glyph glyph-name="i" unicode="i" horiz-adv-x="251" 
d="M128 635c27.333 0 47.666 6.33301 60.999 19s20 34 20 64c0 30.667 -6.66699 52 -20 64s-33.666 18 -60.999 18c-26.667 0 -47 -6 -61 -18s-21 -33.333 -21 -64s6.16699 -52.167 18.5 -64.5s33.5 -18.5 63.5 -18.5zM188 0v575h-125v-575h125z" />
    <glyph glyph-name="j" unicode="j" horiz-adv-x="249" 
d="M127 635c27.333 0 47.666 6.33301 60.999 19s20 34 20 64c0 30.667 -6.66699 52 -20 64s-33.666 18 -60.999 18c-26.667 0 -47 -6 -61 -18s-21 -33.333 -21 -64s6.16699 -52.167 18.5 -64.5s33.5 -18.5 63.5 -18.5zM-7 -226c52.667 0 92.8311 5.5 120.498 16.5
s46.834 30.5 57.501 58.5c4.66699 14.667 8.33398 32 11.001 52s4 43.333 4 70v604h-121v-589c0 -29.333 -2 -50.833 -6 -64.5s-12 -22.5 -24 -26.5c-6 -2 -13.5 -3.5 -22.5 -4.5s-19.5 -1.5 -31.5 -1.5h-29v-115h41z" />
    <glyph glyph-name="k" unicode="k" horiz-adv-x="583" 
d="M442 0h139l-203 354l197 221h-151l-222 -253l-20 -27v468h-119v-763h119v167l104 118z" />
    <glyph glyph-name="l" unicode="l" horiz-adv-x="250" 
d="M187 0v763h-124v-763h124z" />
    <glyph glyph-name="m" unicode="m" horiz-adv-x="937" 
d="M185 323c0 47.333 9.50098 85.499 28.501 114.499s48.5 43.5 88.5 43.5c41.333 0 69.833 -13.167 85.5 -39.5s23.5 -58.833 23.5 -97.5v-344h122v341c0 40.667 8.83301 74.167 26.5 100.5s46.167 39.5 85.5 39.5c41.333 0 70.333 -12.833 87 -38.5s25 -60.167 25 -103.5
v-339h123v371c0 68.667 -16 122.167 -48 160.5s-79.667 57.5 -143 57.5c-42.667 0 -78.667 -10.167 -108 -30.5s-51 -48.166 -65 -83.499c-11.333 35.333 -30.833 63.166 -58.5 83.499s-64.5 30.5 -110.5 30.5c-42.667 0 -78.334 -10.167 -107.001 -30.5
s-50 -48.166 -64 -83.499l-11 100h-103v-575h123v323z" />
    <glyph glyph-name="n" unicode="n" 
d="M186 315c0 50.667 11 90.832 33 120.499s55.333 44.5 100 44.5c43.333 0 73.333 -13 90 -39s25 -61 25 -105v-336h124v364c0 68.667 -16.833 123.167 -50.5 163.5s-83.167 60.5 -148.5 60.5c-46 0 -84.167 -11.167 -114.5 -33.5s-52.5 -52.166 -66.5 -89.499l-12 110
h-104v-575h124v315z" />
    <glyph glyph-name="o" unicode="o" 
d="M308 -14c54 0 101.167 10.499 141.5 31.499s71.5 51.833 93.5 92.5c11.333 20.667 19.833 43.334 25.5 68.001s8.5 51.667 8.5 81v50c0 60 -11.333 110.667 -34 152s-54.334 73 -95.001 95c-20 10.667 -41.667 18.667 -65 24s-48.333 8 -75 8
c-52 0 -98.333 -10.667 -139 -32s-72.667 -52.666 -96 -93.999c-11.333 -20.667 -20 -43.834 -26 -69.501s-9 -53.5 -9 -83.5v-50c0 -88 23.333 -155.5 70 -202.5s113.334 -70.5 200.001 -70.5zM308 94.999c-44.667 0 -79.667 14.5 -105 43.5s-38 69.833 -38 122.5v48
c0 56.667 13.167 99.667 39.5 129s61.166 44 104.499 44s78 -15.167 104 -45.5s39 -72.833 39 -127.5v-48c0 -53.333 -12.667 -94.333 -38 -123s-60.666 -43 -105.999 -43z" />
    <glyph glyph-name="p" unicode="p" horiz-adv-x="629" 
d="M323 94c-44.667 0 -79.667 15.501 -105 46.501s-38 72.5 -38 124.5v42c0 53.333 13.167 95.833 39.5 127.5s61.833 47.5 106.5 47.5c41.333 0 75 -14.833 101 -44.5s39 -73.834 39 -132.501v-43c0 -54 -12.5 -95.5 -37.5 -124.5s-60.167 -43.5 -105.5 -43.5zM361 -10.999
c45.333 0 85.334 10.165 120.001 30.498s62 50.833 82 91.5c9.33301 20 16.5 42.5 21.5 67.5s7.5 52.5 7.5 82.5v43c0 92.667 -20.667 163.167 -62 211.5s-97 72.5 -167 72.5c-46.667 0 -85.5 -11.667 -116.5 -35s-53.833 -53.666 -68.5 -90.999l-13 113h-102v-771h120v293
c15.333 -33.333 37.666 -59.666 66.999 -78.999s66.333 -29 111 -29z" />
    <glyph glyph-name="q" unicode="q" horiz-adv-x="630" 
d="M567 -196v770.999h-102l-13 -111c-14 37.333 -36 67.333 -66 90s-68.667 34 -116 34c-70.667 0 -127 -24.167 -169 -72.5s-63 -118.166 -63 -209.499v-47c0 -60.667 9.83301 -111 29.5 -151s46.834 -69.667 81.501 -89c17.333 -10 35.666 -17.5 54.999 -22.5
s40 -7.5 62 -7.5c47.333 0 85.833 10.5 115.5 31.5s51.5 49.167 65.5 84.5v-301h120zM304 93.999c-40.667 0 -74 14.3311 -100 42.998s-39 70.334 -39 125.001v44c0 58 12.333 101.833 37 131.5s60 44.5 106 44.5c44 0 78.667 -15.833 104 -47.5s38 -75.5 38 -131.5v-41
c0 -49.333 -13.167 -89.666 -39.5 -120.999s-61.833 -47 -106.5 -47z" />
    <glyph glyph-name="r" unicode="r" horiz-adv-x="406" 
d="M183 0l0.000976562 281c0 42 4.16699 75.667 12.5 101s23.833 43.333 46.5 54c11.333 6 25.166 10.333 41.499 13s34.833 4 55.5 4h52v127h-35c-51.333 0 -91.5 -10.833 -120.5 -32.5s-48.5 -55.5 -58.5 -101.5l-16 129h-99v-575h121z" />
    <glyph glyph-name="s" unicode="s" horiz-adv-x="543" 
d="M279 -14c79.333 0 138.5 17.3311 177.5 51.998s58.5 79.334 58.5 134.001v4c0 31.333 -6 56.666 -18 75.999s-28 35 -48 47c-20 11.333 -42 20.166 -66 26.499s-48 11.5 -72 15.5c-26 4.66699 -50.167 9.5 -72.5 14.5s-40.5 12.167 -54.5 21.5
c-7.33301 4.66699 -12.666 10.334 -15.999 17.001s-5 14.334 -5 23.001v2c0 20 7.5 36.5 22.5 49.5s41.167 19.5 78.5 19.5c36 0 63.167 -6.33301 81.5 -19s29.166 -32.667 32.499 -60v-9h126v9c-6.66699 55.333 -28.834 99 -66.501 131s-95.167 48 -172.5 48
c-74 0 -129.667 -16.5 -167 -49.5s-56 -75.167 -56 -126.5v-3c0 -30.667 6 -55.667 18 -75s27.667 -34.666 47 -45.999s41 -20.166 65 -26.499s48 -11.833 72 -16.5c26 -4.66699 50.333 -9.5 73 -14.5s40.667 -12.167 54 -21.5
c7.33301 -4.66699 12.666 -10.334 15.999 -17.001s5 -14.667 5 -24v-3c0 -22.667 -8.5 -40.667 -25.5 -54s-45.167 -20 -84.5 -20c-38.667 0 -68.667 7.16699 -90 21.5s-34.666 37.833 -39.999 70.5v11h-133v-12c7.33301 -64 31.833 -112.667 73.5 -146
s103.834 -50 186.501 -50z" />
    <glyph glyph-name="t" unicode="t" horiz-adv-x="396" 
d="M369 116h-37.9971c-30 0 -52.5 2.83301 -67.5 8.5s-24.833 17.167 -29.5 34.5c-2.66699 8.66699 -4.66699 19.667 -6 33s-2 29 -2 47v226h143v110h-143v147h-103c-0.666992 -10 -1.16699 -22 -1.5 -36s-1.16602 -27.333 -2.49902 -40
c-2.66699 -30 -7.83398 -49.667 -15.501 -59s-23.167 -14.333 -46.5 -15c-10.667 -0.666992 -19.334 -1.16699 -26.001 -1.5s-14.667 -0.5 -24 -0.5v-105h104v-246c0 -55.333 5.16699 -99 15.5 -131s29.166 -54.667 56.499 -68c14 -6.66699 30.667 -11.667 50 -15
s41.666 -5 66.999 -5h69v116z" />
    <glyph glyph-name="u" unicode="u" horiz-adv-x="598" 
d="M433 0l103 -0.000976562v575h-124v-314c0 -48.667 -10.167 -88.167 -30.5 -118.5s-50.833 -45.5 -91.5 -45.5s-69 13.333 -85 40s-24 61.334 -24 104.001v334h-123v-366c0 -68.667 15.5 -122.5 46.5 -161.5s78.833 -58.5 143.5 -58.5c44 0 80.5 10.5 109.5 31.5
s50.167 49.5 63.5 85.5z" />
    <glyph glyph-name="v" unicode="v" horiz-adv-x="562" 
d="M331 0l219 575h-129l-145 -410l-140 410h-128l210 -575h113z" />
    <glyph glyph-name="w" unicode="w" horiz-adv-x="822" 
d="M534 0h111l169 575h-120l-114 -408l-132 408h-80l-142 -409l-96 409h-122l145 -575h114l139 384z" />
    <glyph glyph-name="x" unicode="x" horiz-adv-x="587" 
d="M430 0h144l-208 302l193 273h-141l-122 -185l-118 185h-144l191 -274l-213 -301h148l136 208z" />
    <glyph glyph-name="y" unicode="y" horiz-adv-x="562" 
d="M94 -206c36 0 65.833 2 89.5 6s43.5 12 59.5 24s30.667 29.333 44 52s27.333 53 42 91l234 608h-129l-140 -390l-9 -34l-5 34l-144 390h-131l222 -561l-10 -27c-10 -23.333 -19.833 -41 -29.5 -53s-21.5 -20.333 -35.5 -25c-7.33301 -2 -15.833 -3.5 -25.5 -4.5
s-20.5 -1.5 -32.5 -1.5h-63v-109h63z" />
    <glyph glyph-name="z" unicode="z" horiz-adv-x="525" 
d="M498 0v106h-314l312 371v98h-448v-104h301l-321 -377v-94h470z" />
    <glyph glyph-name="braceleft" unicode="{" horiz-adv-x="403" 
d="M372 -173l0.000976562 97.0049h-57c-32.667 0 -55.5 6.16699 -68.5 18.5s-19.5 29.5 -19.5 51.5c0 11.333 3 25.166 9 41.499s12.667 33.5 20 51.5s14 36.167 20 54.5s9 35.166 9 50.499c0 27.333 -9.16699 51.166 -27.5 71.499s-48.833 30.5 -91.5 30.5v6
c43.333 0 73.5 9 90.5 27s25.5 41.333 25.5 70c0 20.667 -4.66699 42.5 -14 65.5l-27 65.5c-4.66699 10.667 -8.16699 20.5 -10.5 29.5s-3.5 17.167 -3.5 24.5c0 21.333 6.66699 38.166 20 50.499s36.333 18.5 69 18.5h56v98h-121c-40 0 -71 -6 -93 -18
s-37.667 -27.667 -47 -47c-4 -10 -7.16699 -20.333 -9.5 -31s-3.5 -22 -3.5 -34c0 -23.333 4.66699 -47.666 14 -72.999l27 -72c4.66699 -11.333 8.16699 -21.833 10.5 -31.5s3.5 -18.834 3.5 -27.501c0 -20.667 -5.33301 -36.334 -16 -47.001s-28 -16 -52 -16h-59v-111h63
c24 0 41.833 -5.66699 53.5 -17s17.5 -28.333 17.5 -51c0 -12 -3.33301 -26.667 -10 -44l-22 -56c-8.66699 -20 -16.334 -40 -23.001 -60s-10 -39 -10 -57c0 -24 4.5 -45.667 13.5 -65s24.5 -35 46.5 -47c11.333 -5.33301 24.833 -9.5 40.5 -12.5s33.5 -4.5 53.5 -4.5h123z
" />
    <glyph glyph-name="bar" unicode="|" horiz-adv-x="268" 
d="M196 -63v844h-124v-844h124z" />
    <glyph glyph-name="braceright" unicode="}" horiz-adv-x="403" 
d="M31 -173l123.004 -0.00488281c40 0 71.167 5.83301 93.5 17.5s38.166 27.167 47.499 46.5c4 10 7.16699 20.333 9.5 31s3.5 22 3.5 34c0 18 -3.33301 37 -10 57s-14.334 40 -23.001 60s-16.334 38.667 -23.001 56s-10 32 -10 44c0 22.667 6 39.667 18 51s29.667 17 53 17
h64v111h-59c-22.667 0 -39.834 5.33301 -51.501 16s-17.5 26.334 -17.5 47.001c0 16.667 4.66699 36.334 14 59.001s18.333 46.667 27 72c4.66699 12.667 8.16699 25 10.5 37s3.5 24 3.5 36c0 23.333 -4.33301 44.833 -13 64.5s-24 35.5 -46 47.5
c-11.333 6 -24.833 10.5 -40.5 13.5s-33.5 4.5 -53.5 4.5h-120v-98h56c32.667 0 55.667 -6.16699 69 -18.5s20 -29.166 20 -50.499c0 -14.667 -4.5 -32.5 -13.5 -53.5l-27.5 -66.5c-4.66699 -11.333 -8.16699 -22.333 -10.5 -33s-3.5 -21.334 -3.5 -32.001
c0 -28.667 8.66699 -52 26 -70s47.333 -27 90 -27v-6c-42.667 0 -73.167 -10.167 -91.5 -30.5s-27.5 -44.166 -27.5 -71.499c0 -15.333 3 -32.166 9 -50.499s12.667 -36.5 20 -54.5s14 -35.167 20 -51.5s9 -30.166 9 -41.499c0 -22 -6.5 -39.167 -19.5 -51.5
s-35.833 -18.5 -68.5 -18.5h-57v-97z" />
    <glyph glyph-name="asciitilde" unicode="~" horiz-adv-x="553" 
d="M71 479h83.001c0.666992 20.667 4.16699 36.167 10.5 46.5s15.5 15.5 27.5 15.5s23.5 -3.33301 34.5 -10s22.5 -14.334 34.5 -23.001s25.5 -16.334 40.5 -23.001s32.5 -10 52.5 -10c47.333 0 79.833 13.833 97.5 41.5s26.5 64.834 26.5 111.501h-84
c-0.666992 -22.667 -3.83398 -38.667 -9.50098 -48s-16.167 -14 -31.5 -14c-11.333 0 -22.5 3.33301 -33.5 10s-22.833 14.667 -35.5 24c-12 8.66699 -25.5 16.334 -40.5 23.001s-32.167 10 -51.5 10c-45.333 0 -76.833 -14.333 -94.5 -43s-26.5 -65.667 -26.5 -111z" />
    <glyph glyph-name="uni00A0" unicode="&#xa0;" horiz-adv-x="290" 
 />
    <glyph glyph-name="exclamdown" unicode="&#xa1;" horiz-adv-x="308" 
d="M154 590c-28 0 -48.833 -6.5 -62.5 -19.5s-20.5 -34.833 -20.5 -65.5c0 -31.333 7 -53.166 21 -65.499s34.667 -18.5 62 -18.5s47.833 6.16699 61.5 18.5s20.5 34.166 20.5 65.499c0 32 -6.16699 54.167 -18.5 66.5s-33.5 18.5 -63.5 18.5zM218 -136v177
c0 39.333 -0.833008 77.666 -2.5 114.999s-3.5 72 -5.5 104c-2.66699 31.333 -5.33398 57.666 -8.00098 78.999s-5 35.333 -7 42c-4 -0.666992 -9.83301 -1.5 -17.5 -2.5s-16.167 -1.5 -25.5 -1.5s-17.666 0.5 -24.999 1.5l-18.999 2.5
c-1.33301 -6.66699 -3.33301 -20.667 -6 -42s-5 -47.666 -7 -78.999c-2.66699 -32 -4.83398 -66.667 -6.50098 -104s-2.5 -75.666 -2.5 -114.999v-177h132z" />
    <glyph glyph-name="cent" unicode="&#xa2;" horiz-adv-x="607" 
d="M570 220l-0.000976562 14.999h-129v-13c-5.33301 -43.333 -19.166 -75.333 -41.499 -96s-53.166 -31 -92.499 -31c-44.667 0 -79.5 14.5 -104.5 43.5s-37.5 69.833 -37.5 122.5v48c0 57.333 13.167 100.5 39.5 129.5s60.833 43.5 103.5 43.5
c38.667 0 69.167 -10.167 91.5 -30.5s35.833 -52.166 40.5 -95.499v-11h129v10c-4.66699 68 -24.834 120.833 -60.501 158.5s-82.5 60.834 -140.5 69.501v105h-118v-105c-62.667 -10.667 -113.667 -39.167 -153 -85.5s-59 -109.166 -59 -188.499v-50
c0 -77.333 18.167 -139 54.5 -185s88.5 -74 156.5 -84v-111h118v111c58.667 9.33301 106 32.666 142 69.999s56.333 90.666 61 159.999z" />
    <glyph glyph-name="sterling" unicode="&#xa3;" horiz-adv-x="619" 
d="M438 -15c58.667 0 100.496 14.499 125.496 43.499s37.5 76.833 37.5 143.5v29h-134v-12c0 -35.333 -4.66699 -60.666 -14 -75.999s-25.666 -23 -48.999 -23c-16 0 -31.667 2.83301 -47 8.5s-30.666 12.5 -45.999 20.5c4 11.333 7 23.166 9 35.499s3 24.833 3 37.5
c0 20.667 -1.5 39.667 -4.5 57s-7.16699 34 -12.5 50h129v92h-162c-10.667 23.333 -19.834 46.166 -27.501 68.499s-11.5 45.5 -11.5 69.5c0 28.667 7.33301 50 22 64s36.334 21 65.001 21c29.333 0 51 -7.66699 65 -23s22.333 -34.666 25 -57.999v-8l136 1v8
c-7.33301 63.333 -30.833 111.166 -70.5 143.499s-92.167 48.5 -157.5 48.5c-66.667 0 -119 -18 -157 -54s-57 -84.333 -57 -145c0 -26.667 3.5 -51 10.5 -73s14.833 -43 23.5 -63h-95v-92h141c12 -19.333 22.667 -38.833 32 -58.5s14 -40.167 14 -61.5v-15
c-15.333 7.33301 -31.166 13.5 -47.499 18.5s-33.166 7.5 -50.499 7.5c-37.333 0 -66.833 -9.66699 -88.5 -29s-32.5 -43.666 -32.5 -72.999c0 -31.333 10 -56.333 30 -75s52.667 -28 98 -28c26.667 0 50.834 5.5 72.501 16.5s40.5 25.5 56.5 43.5
c23.333 -15.333 48.666 -29.166 75.999 -41.499s58.333 -18.5 93 -18.5zM144.996 59.999c-12.667 0 -22.5 2.83301 -29.5 8.5s-10.5 12.5 -10.5 20.5s2.5 14.667 7.5 20s13.5 8 25.5 8c11.333 0 22.5 -2.5 33.5 -7.5s22.833 -11.5 35.5 -19.5
c-8 -10 -17.167 -17.5 -27.5 -22.5s-21.833 -7.5 -34.5 -7.5z" />
    <glyph glyph-name="currency" unicode="&#xa4;" horiz-adv-x="734" 
d="M370 226c-38.667 0 -69.667 12.833 -93 38.5s-35 57.167 -35 94.5v8c0 38.667 11.667 70.5 35 95.5s54.333 37.5 93 37.5s69.834 -12.833 93.501 -38.5s35.5 -57.167 35.5 -94.5v-8c0 -37.333 -11.833 -68.833 -35.5 -94.5s-54.834 -38.5 -93.501 -38.5zM370 117
c24.667 0 47.666 2.83398 68.999 8.50098s41 13.5 59 23.5l110 -111l85 88l-111 111c10 18 17.333 37.167 22 57.5s7 41.833 7 64.5v8c0 23.333 -2.5 45.5 -7.5 66.5s-12.833 40.833 -23.5 59.5l114 119l-89 84l-113 -117c-18 10 -37.167 17.333 -57.5 22s-41.833 7 -64.5 7
c-24 0 -46.167 -2.33301 -66.5 -7s-39.166 -12 -56.499 -22l-116 114l-85 -89l113 -113c-9.33301 -18 -16.5 -37.333 -21.5 -58s-7.5 -42.667 -7.5 -66v-8c0 -24 2.5 -46.667 7.5 -68s12.167 -41 21.5 -59l-115 -118l91 -86l112 116
c17.333 -8.66699 36.333 -15.334 57 -20.001s42.667 -7 66 -7z" />
    <glyph glyph-name="yen" unicode="&#xa5;" horiz-adv-x="594" 
d="M510 107v94h-152v67h154v97h-154l229 348h-136l-155 -243l-152 243h-137l223 -348h-148v-97h148v-67h-150v-94h150v-107h128v107h152z" />
    <glyph glyph-name="brokenbar" unicode="&#xa6;" horiz-adv-x="268" 
d="M72 403h124v378h-124v-378zM72 327v-390h124v390h-124z" />
    <glyph glyph-name="section" unicode="&#xa7;" horiz-adv-x="644" 
d="M315 280c-48 10.667 -85.3311 20.835 -111.998 30.502s-45.334 20.834 -56.001 33.501c-5.33301 6.66699 -9.33301 14 -12 22s-4 16.667 -4 26v1c0 17.333 6 32.666 18 45.999s32 21.666 60 24.999c16 -6.66699 33.167 -12.5 51.5 -17.5s37.833 -9.83301 58.5 -14.5
c40 -8.66699 74.667 -17.334 104 -26.001s52.333 -19.667 69 -33c8 -6 14 -13.333 18 -22s6 -18.667 6 -30v-1c0 -17.333 -5.5 -32.5 -16.5 -45.5s-29.5 -21.833 -55.5 -26.5c-18.667 6 -38.834 11.667 -60.501 17s-44.5 10.333 -68.5 15zM329.002 -98.999
c79.333 0 140 17.6719 182 53.0049s63 80 63 134v2c0 32.667 -6.16699 59.334 -18.5 80.001s-29.5 37.667 -51.5 51c38 7.33301 68.333 22.666 91 45.999s34 50.666 34 81.999v1c0 33.333 -8.5 60.666 -25.5 81.999s-43.167 39 -78.5 53
c-17.333 7.33301 -37.333 14.166 -60 20.499s-47.667 12.166 -75 17.499c-37.333 8 -69.666 15.833 -96.999 23.5s-48.333 17.167 -63 28.5c-7.33301 6 -12.833 12.833 -16.5 20.5s-5.5 16.5 -5.5 26.5v1c0 22 8.33301 39.833 25 53.5s44 20.5 82 20.5
c41.333 0 71.666 -7.5 90.999 -22.5s30.333 -39.167 33 -72.5v-9h122v9c-2 60.667 -22.833 108 -62.5 142s-100.5 51 -182.5 51c-50.667 0 -93 -7.66699 -127 -23s-59.333 -36.333 -76 -63c-8 -12.667 -14.167 -26.334 -18.5 -41.001s-6.5 -30.334 -6.5 -47.001v-1
c0 -29.333 5.66699 -54.166 17 -74.499s27.333 -37.833 48 -52.5c-42.667 -6.66699 -76.5 -22.334 -101.5 -47.001s-37.5 -52.667 -37.5 -84v-1c0 -32.667 7.5 -59.5 22.5 -80.5s39.5 -38.833 73.5 -53.5c16.667 -6.66699 36.667 -13.334 60 -20.001
s49.333 -13.334 78 -20.001l115 -25.5c30.667 -7 53.667 -15.833 69 -26.5c7.33301 -5.33301 13 -12 17 -20s6 -17.333 6 -28c0 -25.333 -10.167 -45.666 -30.5 -60.999s-51.166 -23 -92.499 -23c-48.667 0 -84 9.33301 -106 28s-33.667 48.334 -35 89.001v9h-127v-10
c1.33301 -46.667 10.666 -86.167 27.999 -118.5s45 -57.166 83 -74.499c19.333 -8 41.833 -14.167 67.5 -18.5s54.5 -6.5 86.5 -6.5z" />
    <glyph glyph-name="dieresis" unicode="&#xa8;" horiz-adv-x="553" 
d="M373 650c24 0 41.999 5.66699 53.999 17s18 30 18 56s-6.16699 44.333 -18.5 55s-30.166 16 -53.499 16c-24 0 -41.833 -5.33301 -53.5 -16s-17.5 -29 -17.5 -55c0 -27.333 5.33301 -46.333 16 -57s29 -16 55 -16zM177.999 650c24.667 0 42.833 5.66699 54.5 17
s17.5 30 17.5 56s-6 44.333 -18 55s-30 16 -54 16c-23.333 0 -41 -5.33301 -53 -16s-18 -29 -18 -55c0 -27.333 5.5 -46.333 16.5 -57s29.167 -16 54.5 -16z" />
    <glyph glyph-name="copyright" unicode="&#xa9;" horiz-adv-x="745" 
d="M378 -14c62 0 117.669 12.667 167.002 38s88.666 62.666 117.999 111.999c14 24.667 24.667 52.334 32 83.001s11 64 11 100v75c0 70.667 -14.667 131 -44 181s-69.333 88.667 -120 116c-24.667 13.333 -51 23.333 -79 30s-57.667 10 -89 10
c-62 0 -117.833 -13.667 -167.5 -41s-89.167 -66.333 -118.5 -117c-14 -25.333 -24.667 -53.333 -32 -84s-11 -63.667 -11 -99v-72c0 -76 14.5 -138.5 43.5 -187.5s68.5 -85.5 118.5 -109.5c25.333 -11.333 52.166 -20 80.499 -26s58.5 -9 90.5 -9zM378.002 72
c-76 0 -136.334 21.498 -181.001 64.498s-67 106.167 -67 189.5v55c0 56 10.167 103.5 30.5 142.5s48.833 68.833 85.5 89.5c18.667 10.667 38.667 18.5 60 23.5s44 7.5 68 7.5c49.333 0 92.333 -10 129 -30s65.334 -49 86.001 -87
c10.667 -19.333 18.5 -40.666 23.5 -63.999s7.5 -49 7.5 -77v-59c0 -83.333 -21.5 -146.666 -64.5 -189.999s-102.167 -65 -177.5 -65zM377.001 141.998c47.333 0 86.498 12.833 117.498 38.5s48.167 66.834 51.5 123.501v15h-88v-13
c-2.66699 -28.667 -11 -49.834 -25 -63.501s-32.333 -20.5 -55 -20.5c-26 0 -47 9.66699 -63 29s-24 47 -24 83v46c0 38.667 8.33301 67.834 25 87.501s37.667 29.5 63 29.5c21.333 0 39.166 -6.66699 53.499 -20s22.833 -34.333 25.5 -63v-11h87v12
c-3.33301 55.333 -20.166 96.166 -50.499 122.499s-69.166 39.5 -116.499 39.5c-49.333 0 -90.166 -16.833 -122.499 -50.5s-48.5 -82.5 -48.5 -146.5v-48c0 -62.667 15 -110 45 -142s71.667 -48 125 -48z" />
    <glyph glyph-name="ordfeminine" unicode="&#xaa;" horiz-adv-x="432" 
d="M194 382c-13.333 0 -24.335 3.66504 -33.002 10.998s-13 18 -13 32v2c0 8 1.66699 15.333 5 22s8.33301 12.334 15 17.001c6 4.66699 13.833 8.5 23.5 11.5s21.834 5.83301 36.501 8.5c12 2.66699 23 5.33398 33 8.00098s18.667 6 26 10v-14c0 -16 -3 -32.333 -9 -49
s-15.667 -30.667 -29 -42c-6.66699 -6 -14.667 -10.333 -24 -13s-19.666 -4 -30.999 -4zM303.998 316.998l84.001 0.00195312v267c0 43.333 -13 77.666 -39 102.999s-68.667 38 -128 38c-57.333 0 -101.166 -13.333 -131.499 -40s-46.5 -62 -48.5 -106v-6h108v6
c0.666992 21.333 7 37.333 19 48s29.667 16 53 16s40 -4.33301 50 -13s15 -20 15 -34v-1c0 -14.667 -5.16699 -24.667 -15.5 -30s-31.166 -10.666 -62.499 -15.999c-34.667 -6.66699 -60.834 -12.334 -78.501 -17.001s-34.5 -12.334 -50.5 -23.001
c-15.333 -9.33301 -28 -22.333 -38 -39s-15 -35.667 -15 -57v-1c0 -34.667 10.667 -60.667 32 -78s53.333 -26 96 -26c33.333 0 61.666 6.33301 84.999 19s41.666 29 54.999 49z" />
    <glyph glyph-name="guillemotleft" unicode="&#xab;" horiz-adv-x="590" 
d="M562 105l-165 212l140 195h-112l-137 -194v-15l153 -198h121zM340 105l-157 209l140 198h-110l-139 -198v-14l145 -195h121z" />
    <glyph glyph-name="logicalnot" unicode="&#xac;" horiz-adv-x="605" 
d="M546 163v344h-510v-112h392v-232h118z" />
    <glyph glyph-name="uni00AD" unicode="&#xad;" horiz-adv-x="511" 
d="M460 370h-409v-124h409v124z" />
    <glyph glyph-name="registered" unicode="&#xae;" horiz-adv-x="456" 
d="M230 329c34.667 0 65.999 7 93.999 21s50.333 34.667 67 62c8 14 14.167 29.5 18.5 46.5s6.5 35.5 6.5 55.5v24c0 39.333 -8.5 73 -25.5 101s-39.833 49.333 -68.5 64c-14 8 -29 13.833 -45 17.5s-32.667 5.5 -50 5.5c-34.667 0 -66.167 -7.66699 -94.5 -23
s-50.833 -37.333 -67.5 -66c-8 -14 -14.167 -29.5 -18.5 -46.5s-6.5 -35.5 -6.5 -55.5v-22c0 -42.667 8.33301 -77.5 25 -104.5s39.334 -47.167 68.001 -60.5c14.667 -6 30 -10.667 46 -14s33 -5 51 -5zM229.999 381c-40.667 0 -72.834 11.5 -96.501 34.5
s-35.5 57.167 -35.5 102.5v12c0 45.333 11.833 80.166 35.5 104.499s54.834 36.5 93.501 36.5c39.333 0 71 -11.667 95 -35s36 -57.666 36 -102.999v-15c0 -45.333 -11.5 -79.5 -34.5 -102.5s-54.167 -34.5 -93.5 -34.5zM226.999 587c13.333 0 23 -1.66797 29 -5.00098
s9 -9.66602 9 -18.999c0 -8.66699 -3.16699 -15.167 -9.5 -19.5s-15.833 -6.5 -28.5 -6.5h-23v50h23zM227.999 489.999c12 0 19.832 -1.83301 23.499 -5.5s5.5 -11.167 5.5 -22.5v-25c0 -3.33301 0.333008 -6.16602 1 -8.49902s1.66699 -3.83301 3 -4.5h53
c-1.33301 0.666992 -2.33301 2 -3 4s-1 4.66699 -1 8v26c0 15.333 -2.83301 27 -8.5 35s-14.167 13.333 -25.5 16c12.667 4 22.5 10.167 29.5 18.5s10.5 19.833 10.5 34.5c0 19.333 -6.16699 35.166 -18.5 47.499s-33.166 18.5 -62.499 18.5h-83v-208h52v66h24z" />
    <glyph glyph-name="macron" unicode="&#xaf;" horiz-adv-x="549" 
d="M120 654h310v92h-310v-92z" />
    <glyph glyph-name="degree" unicode="&#xb0;" horiz-adv-x="351" 
d="M175 434c45.333 0 81.332 12.168 107.999 36.501s40 58.166 40 101.499v7c0 45.333 -13.5 80.5 -40.5 105.5s-62.5 37.5 -106.5 37.5c-42 0 -77.167 -12.167 -105.5 -36.5s-42.5 -59.833 -42.5 -106.5v-7c0 -44 12.833 -78 38.5 -102s61.834 -36 108.501 -36z
M175.999 513.001c-18.667 0 -33.5 5.49902 -44.5 16.499s-16.5 26.5 -16.5 46.5v3c0 21.333 6 37.333 18 48s26.333 16 43 16c18 0 32.667 -5.5 44 -16.5s17 -26.833 17 -47.5v-3c0 -19.333 -5.33301 -34.666 -16 -45.999s-25.667 -17 -45 -17z" />
    <glyph glyph-name="plusminus" unicode="&#xb1;" horiz-adv-x="518" 
d="M452 398v110h-139v130h-108v-130h-136v-110h136v-131h108v131h139zM452 93v109h-383v-109h383z" />
    <glyph glyph-name="twosuperior" unicode="&#xb2;" horiz-adv-x="309" 
d="M288 357l-0.000976562 77.0029h-163c6 10.667 15.333 20 28 28s26.334 16 41.001 24c15.333 8 30.166 17.167 44.499 27.5s25.833 23.166 34.5 38.499c4.66699 8 8.16699 16.667 10.5 26s3.5 19.666 3.5 30.999v4c0 31.333 -10.333 56.833 -31 76.5s-54 29.5 -100 29.5
c-42 0 -74.5 -10.333 -97.5 -31s-34.5 -50 -34.5 -88v-22h87v19c0 14 3 25.833 9 35.5s17.667 14.5 35 14.5c16.667 0 28 -3.16699 34 -9.5s9 -15.166 9 -26.499v-3c0 -16 -6 -29.333 -18 -40s-26.667 -20.334 -44 -29.001c-17.333 -9.33301 -34.666 -19.5 -51.999 -30.5
s-32 -24.5 -44 -40.5c-6 -8 -10.5 -17.333 -13.5 -28s-4.5 -22.334 -4.5 -35.001v-48h266z" />
    <glyph glyph-name="threesuperior" unicode="&#xb3;" horiz-adv-x="319" 
d="M156 350c43.333 0 77.166 9.50195 101.499 28.502s36.5 43.833 36.5 74.5v8c0 21.333 -4.5 38.333 -13.5 51s-21.833 22 -38.5 28c16 6 27.833 15.167 35.5 27.5s11.5 27.833 11.5 46.5v6c0 29.333 -11.333 53.166 -34 71.499s-55 27.5 -97 27.5
c-42.667 0 -75.5 -10.167 -98.5 -30.5s-34.5 -47.833 -34.5 -82.5v-13h88v10c0 12.667 3.33301 22.834 10 30.501s18.334 11.5 35.001 11.5c15.333 0 26.333 -2.83301 33 -8.5s10 -13.834 10 -24.501v-5c0 -12.667 -2.83301 -22 -8.5 -28s-15.167 -9 -28.5 -9h-42v-70h42
c14 0 24.333 -2.33301 31 -7s10 -13.334 10 -26.001v-7c0 -12 -3.83301 -20.833 -11.5 -26.5s-20.5 -8.5 -38.5 -8.5s-30.167 3.83301 -36.5 11.5s-9.5 17.834 -9.5 30.501v14h-90v-17c0 -38.667 10.833 -67.334 32.5 -86.001s56.5 -28 104.5 -28z" />
    <glyph glyph-name="acute" unicode="&#xb4;" horiz-adv-x="549" 
d="M195 653h96l174 198h-134z" />
    <glyph glyph-name="paragraph" unicode="&#xb6;" horiz-adv-x="703" 
d="M439 0v612.001h81v-612h116v713h-335c-90.667 0 -158.167 -21.333 -202.5 -64s-66.5 -99.334 -66.5 -170.001c0 -73.333 21.833 -131.333 65.5 -174s110.167 -63.667 199.5 -63h27v-242h115zM299 346.001c-46 0 -81.333 11.333 -106 34s-37 55.667 -37 99
c0 40 12 72.167 36 96.5s60.333 36.5 109 36.5h23v-266h-25z" />
    <glyph glyph-name="periodcentered" unicode="&#xb7;" horiz-adv-x="293" 
d="M145 222c28 0 48.833 6.33105 62.5 18.998s20.5 34.334 20.5 65.001c0 31.333 -7 53.166 -21 65.499s-34.667 18.5 -62 18.5s-47.833 -6.16699 -61.5 -18.5s-20.5 -34.166 -20.5 -65.499s6.16699 -53.166 18.5 -65.499s33.5 -18.5 63.5 -18.5z" />
    <glyph glyph-name="cedilla" unicode="&#xb8;" horiz-adv-x="549" 
d="M275 -290c53.333 0 94.3359 11.167 123.003 33.5s43 53.5 43 93.5c0 31.333 -11.5 56.833 -34.5 76.5s-57.5 29.834 -103.5 30.501v57h-88v-125h54c27.333 0 46.666 -3.83301 57.999 -11.5s17 -17.834 17 -30.501c0 -16 -5.83301 -28 -17.5 -36s-29.167 -12 -52.5 -12
c-22 0 -39.833 4.83301 -53.5 14.5s-21.5 23.167 -23.5 40.5h-110c7.33301 -40.667 24.666 -72.667 51.999 -96s72.666 -35 135.999 -35z" />
    <glyph glyph-name="onesuperior" unicode="&#xb9;" horiz-adv-x="250" 
d="M236 357v78.999h-66v277h-68c-2.66699 -18.667 -10 -34.167 -22 -46.5s-28.667 -19.166 -50 -20.499v-64h60v-146h-72v-79h218z" />
    <glyph glyph-name="ordmasculine" unicode="&#xba;" horiz-adv-x="451" 
d="M226 308c56 0 101.333 16.167 136 48.5s52 78.833 52 139.5v36c0 61.333 -17.667 108.833 -53 142.5s-80.333 50.5 -135 50.5s-99.834 -16.5 -135.501 -49.5s-53.5 -80.833 -53.5 -143.5v-36c0 -60.667 16.333 -107.167 49 -139.5s79.334 -48.5 140.001 -48.5zM226 406
c-25.333 0 -44.1699 8 -56.5029 24s-18.5 38.667 -18.5 68v33c0 32.667 6.33301 57 19 73s31.334 24 56.001 24s43.334 -8.33301 56.001 -25s19 -40.667 19 -72v-33c0 -29.333 -6.16699 -52 -18.5 -68s-31.166 -24 -56.499 -24z" />
    <glyph glyph-name="guillemotright" unicode="&#xbb;" horiz-adv-x="590" 
d="M158 105l153 198v15l-137 194h-112l140 -195l-164 -212h120zM380 105l146 195v14l-139 198h-111l140 -198l-157 -209h121z" />
    <glyph glyph-name="onequarter" unicode="&#xbc;" horiz-adv-x="806" 
d="M476 398l276 261l-123 91l-193 -321zM360 342l-282 -271l124 -98l196 338zM304 357v78.999h-66v277h-68c-2.66699 -18.667 -10 -34.167 -22 -46.5s-28.667 -19.166 -50 -20.499v-64h60v-146h-72v-79h218zM583 221.999l16 26l-3 -33v-79h-80zM724 68.999v67h-53v220h-73
l-176 -227v-60h174v-69h75v69h53z" />
    <glyph glyph-name="onehalf" unicode="&#xbd;" horiz-adv-x="806" 
d="M476 398l276 261l-123 91l-193 -321zM360 342l-282 -271l124 -98l196 338zM304 357v78.999h-66v277h-68c-2.66699 -18.667 -10 -34.167 -22 -46.5s-28.667 -19.166 -50 -20.499v-64h60v-146h-72v-79h218zM729 -0.000976562l-0.000976562 77.0029h-163
c6 10.667 15.333 20 28 28s26.334 16 41.001 24c15.333 8 30.166 17.167 44.499 27.5s25.833 23.166 34.5 38.499c4.66699 8 8.16699 16.667 10.5 26s3.5 19.666 3.5 30.999v4c0 31.333 -10.333 56.833 -31 76.5s-54 29.5 -100 29.5c-42 0 -74.5 -10.333 -97.5 -31
s-34.5 -50 -34.5 -88v-22h87v19c0 14 3 25.833 9 35.5s17.667 14.5 35 14.5c16.667 0 28 -3.16699 34 -9.5s9 -15.166 9 -26.499v-3c0 -16 -6 -29.333 -18 -40s-26.667 -20.334 -44 -29.001c-17.333 -9.33301 -34.666 -19.5 -51.999 -30.5s-32 -24.5 -44 -40.5
c-6 -8 -10.5 -17.333 -13.5 -28s-4.5 -22.334 -4.5 -35.001v-48h266z" />
    <glyph glyph-name="threequarters" unicode="&#xbe;" horiz-adv-x="806" 
d="M476 398l276 261l-123 91l-193 -321zM360 342l-282 -271l124 -98l196 338zM192 350c43.333 0 77.166 9.50195 101.499 28.502s36.5 43.833 36.5 74.5v8c0 21.333 -4.5 38.333 -13.5 51s-21.833 22 -38.5 28c16 6 27.833 15.167 35.5 27.5s11.5 27.833 11.5 46.5v6
c0 29.333 -11.333 53.166 -34 71.499s-55 27.5 -97 27.5c-42.667 0 -75.5 -10.167 -98.5 -30.5s-34.5 -47.833 -34.5 -82.5v-13h88v10c0 12.667 3.33301 22.834 10 30.501s18.334 11.5 35.001 11.5c15.333 0 26.333 -2.83301 33 -8.5s10 -13.834 10 -24.501v-5
c0 -12.667 -2.83301 -22 -8.5 -28s-15.167 -9 -28.5 -9h-42v-70h42c14 0 24.333 -2.33301 31 -7s10 -13.334 10 -26.001v-7c0 -12 -3.83301 -20.833 -11.5 -26.5s-20.5 -8.5 -38.5 -8.5s-30.167 3.83301 -36.5 11.5s-9.5 17.834 -9.5 30.501v14h-90v-17
c0 -38.667 10.833 -67.334 32.5 -86.001s56.5 -28 104.5 -28zM583 222.002l16 26l-3 -33v-79h-80zM724 69.002v67h-53v220h-73l-176 -227v-60h174v-69h75v69h53z" />
    <glyph glyph-name="questiondown" unicode="&#xbf;" horiz-adv-x="622" 
d="M414 386c-4.66699 -4 -12.1689 -7.16992 -22.502 -9.50293s-23.166 -3.5 -38.499 -3.5s-27.833 1.16699 -37.5 3.5s-17.167 5.5 -22.5 9.5l-2 -44c-0.666992 -26 -10.167 -45.5 -28.5 -58.5s-39.166 -25.5 -62.499 -37.5
c-18.667 -9.33301 -37.334 -20.666 -56.001 -33.999s-34.334 -31.333 -47.001 -54c-6 -11.333 -10.5 -24.5 -13.5 -39.5s-4.5 -31.833 -4.5 -50.5v-15c0 -36 9 -69.167 27 -99.5s45.667 -54.833 83 -73.5c18.667 -8.66699 39.834 -15.334 63.501 -20.001
s49.834 -7 78.501 -7c88 0 153.667 19.5 197 58.5s65 94.167 65 165.5v41h-127v-34c0 -38.667 -10.333 -69 -31 -91s-54.667 -33 -102 -33c-44 0 -75.833 9.66699 -95.5 29s-29.5 43 -29.5 71v14c0 20.667 4.66699 37.334 14 50.001s21.333 23 36 31l22.5 12l23.5 12
c18.667 8.66699 36.5 18.5 53.5 29.5s30.833 25.167 41.5 42.5c6 9.33301 10.333 19.833 13 31.5s4 24.834 4 39.501v16c0 10 -0.166992 19.333 -0.5 28s-0.833008 15.334 -1.5 20.001zM352.998 587.997c-28 0 -48.833 -6.33105 -62.5 -18.998s-20.5 -34.334 -20.5 -65.001
c0 -31.333 7 -53.166 21 -65.499s34.667 -18.5 62 -18.5s48 6.16699 62 18.5s21 34.166 21 65.499s-6.33301 53.166 -19 65.499s-34 18.5 -64 18.5z" />
    <glyph glyph-name="Agrave" unicode="&#xc0;" horiz-adv-x="634" 
d="M307 546l8 49l7 -49l93 -285h-197zM500 0h125l-247 713h-127l-241 -713h126l49 155h264zM267 791h96l-134 198h-134z" />
    <glyph glyph-name="Aacute" unicode="&#xc1;" horiz-adv-x="634" 
d="M307 546l8 49l7 -49l93 -285h-197zM500 0h125l-247 713h-127l-241 -713h126l49 155h264zM265 791h96l174 198h-134z" />
    <glyph glyph-name="Acircumflex" unicode="&#xc2;" horiz-adv-x="634" 
d="M307 546l8 49l7 -49l93 -285h-197zM500 0h125l-247 713h-127l-241 -713h126l49 155h264zM389 790h108l-141 198h-88l-140 -198h108l77 113z" />
    <glyph glyph-name="Atilde" unicode="&#xc3;" horiz-adv-x="634" 
d="M307 546l8 49l7 -49l93 -285h-197zM500 0h125l-247 713h-127l-241 -713h126l49 155h264zM109 790l83.001 -0.00195312c0.666992 21.333 3.83398 36.833 9.50098 46.5s14.834 14.5 27.501 14.5c12 0 23.5 -3.33301 34.5 -10s22.5 -14.334 34.5 -23.001
s25.5 -16.334 40.5 -23.001s32.5 -10 52.5 -10c47.333 0 79.5 13.833 96.5 41.5s25.5 64.834 25.5 111.501h-83c-0.666992 -22.667 -3.83398 -38.5 -9.50098 -47.5s-15.834 -13.5 -30.501 -13.5c-11.333 0 -22.666 3.33301 -33.999 10s-23 14.334 -35 23.001
c-12.667 8.66699 -26.334 16.334 -41.001 23.001s-31.667 10 -51 10c-44.667 0 -75.834 -14.167 -93.501 -42.5s-26.5 -65.166 -26.5 -110.499z" />
    <glyph glyph-name="Adieresis" unicode="&#xc4;" horiz-adv-x="634" 
d="M307 546l8 49l7 -49l93 -285h-197zM500 0h125l-247 713h-127l-241 -713h126l49 155h264zM411 787c24 0 41.999 5.66699 53.999 17s18 30 18 56s-6.16699 44.333 -18.5 55s-30.166 16 -53.499 16c-24 0 -41.833 -5.33301 -53.5 -16s-17.5 -29 -17.5 -55
c0 -27.333 5.33301 -46.333 16 -57s29 -16 55 -16zM215.999 787c24.667 0 42.833 5.66699 54.5 17s17.5 30 17.5 56s-6 44.333 -18 55s-30 16 -54 16c-23.333 0 -41 -5.33301 -53 -16s-18 -29 -18 -55c0 -27.333 5.5 -46.333 16.5 -57s29.167 -16 54.5 -16z" />
    <glyph glyph-name="Aring" unicode="&#xc5;" horiz-adv-x="634" 
d="M307 546l8 49l7 -49l93 -285h-197zM500 0h125l-247 713h-127l-241 -713h126l49 155h264zM313 781c42 0 75.334 12 100.001 36s37 56.333 37 97c0 43.333 -12.333 76.666 -37 99.999s-58 35 -100 35c-40.667 0 -73.334 -12.167 -98.001 -36.5s-37 -57.166 -37 -98.499
c0 -42.667 12 -75.5 36 -98.5s57 -34.5 99 -34.5zM313.001 863c-17.333 0 -30.333 4.33301 -39 13s-13 21.334 -13 38.001c0 17.333 4.83301 30.666 14.5 39.999s22.167 14 37.5 14c16 0 28.833 -4.66699 38.5 -14s14.5 -22.666 14.5 -39.999
c0 -16.667 -5.83301 -29.334 -17.5 -38.001s-23.5 -13 -35.5 -13z" />
    <glyph glyph-name="AE" unicode="&#xc6;" horiz-adv-x="950" 
d="M388 543l15 49v-49l45 -283h-197zM489 0h428v111h-329l-31 195h294v109h-312l-30 191h392v107h-549l-359 -713h133l75 155h263z" />
    <glyph glyph-name="Ccedilla" unicode="&#xc7;" horiz-adv-x="648" 
d="M346 -304c53.333 0 94.3379 11.165 123.005 33.498s43 53.5 43 93.5c0 31.333 -11.5 56.833 -34.5 76.5s-57.5 29.834 -103.5 30.501v57h-13c82.667 5.33301 144 31.333 184 78s63.333 110.334 70 191.001v16h-132v-15c-4 -49.333 -17.5 -87.166 -40.5 -113.499
s-59.167 -39.5 -108.5 -39.5c-54 0 -94.667 17.333 -122 52s-41 84.334 -41 149.001v96c0 71.333 13.5 124.666 40.5 159.999s67.5 53 121.5 53c49.333 0 85.666 -12.5 108.999 -37.5s37 -62.167 41 -111.5v-10h129v11c-7.33301 86.667 -34.333 151.5 -81 194.5
s-112.667 64.5 -198 64.5c-90.667 0 -161.334 -27.167 -212.001 -81.5s-76 -132.833 -76 -235.5v-109c0 -96.667 22 -171.5 66 -224.5s106.667 -82.167 188 -87.5h-13v-125h54c27.333 0 46.666 -3.83301 57.999 -11.5s17 -17.834 17 -30.501c0 -16 -5.83301 -28 -17.5 -36
s-29.167 -12 -52.5 -12c-22 0 -39.833 4.83301 -53.5 14.5s-21.5 23.167 -23.5 40.5h-110c7.33301 -40.667 24.666 -72.667 51.999 -96s72.666 -35 135.999 -35z" />
    <glyph glyph-name="Egrave" unicode="&#xc8;" horiz-adv-x="571" 
d="M538 111h-350v195h285v109h-285v191h335v107h-456v-713h471v111zM256 791h96l-134 198h-134z" />
    <glyph glyph-name="Eacute" unicode="&#xc9;" horiz-adv-x="571" 
d="M538 111h-350v195h285v109h-285v191h335v107h-456v-713h471v111zM253 791h96l174 198h-134z" />
    <glyph glyph-name="Ecircumflex" unicode="&#xca;" horiz-adv-x="571" 
d="M538 111h-350v195h285v109h-285v191h335v107h-456v-713h471v111zM378 791h108l-141 198h-88l-140 -198h108l77 113z" />
    <glyph glyph-name="Edieresis" unicode="&#xcb;" horiz-adv-x="571" 
d="M538 111h-350v195h285v109h-285v191h335v107h-456v-713h471v111zM400 788c24 0 41.999 5.66699 53.999 17s18 30 18 56s-6.16699 44.333 -18.5 55s-30.166 16 -53.499 16c-24 0 -41.833 -5.33301 -53.5 -16s-17.5 -29 -17.5 -55c0 -27.333 5.33301 -46.333 16 -57
s29 -16 55 -16zM204.999 788c24.667 0 42.833 5.66699 54.5 17s17.5 30 17.5 56s-6 44.333 -18 55s-30 16 -54 16c-23.333 0 -41 -5.33301 -53 -16s-18 -29 -18 -55c0 -27.333 5.5 -46.333 16.5 -57s29.167 -16 54.5 -16z" />
    <glyph glyph-name="Igrave" unicode="&#xcc;" horiz-adv-x="443" 
d="M404 0v115h-123v487h123v111h-365v-111h124v-487h-124v-115h365zM176 791h96l-134 198h-134z" />
    <glyph glyph-name="Iacute" unicode="&#xcd;" horiz-adv-x="443" 
d="M404 0v115h-123v487h123v111h-365v-111h124v-487h-124v-115h365zM174 791h96l174 198h-134z" />
    <glyph glyph-name="Icircumflex" unicode="&#xce;" horiz-adv-x="443" 
d="M404 0v115h-123v487h123v111h-365v-111h124v-487h-124v-115h365zM299 791h108l-141 198h-88l-140 -198h108l77 113z" />
    <glyph glyph-name="Idieresis" unicode="&#xcf;" horiz-adv-x="443" 
d="M404 0v115h-123v487h123v111h-365v-111h124v-487h-124v-115h365zM321 788c24 0 41.999 5.66699 53.999 17s18 30 18 56s-6.16699 44.333 -18.5 55s-30.166 16 -53.499 16c-24 0 -41.833 -5.33301 -53.5 -16s-17.5 -29 -17.5 -55c0 -27.333 5.33301 -46.333 16 -57
s29 -16 55 -16zM125.999 788c24.667 0 42.833 5.66699 54.5 17s17.5 30 17.5 56s-6 44.333 -18 55s-30 16 -54 16c-23.333 0 -41 -5.33301 -53 -16s-18 -29 -18 -55c0 -27.333 5.5 -46.333 16.5 -57s29.167 -16 54.5 -16z" />
    <glyph glyph-name="Eth" unicode="&#xd0;" horiz-adv-x="658" 
d="M323 0c56 0 105.834 11.168 149.501 33.501s78.167 55.833 103.5 100.5c12.667 22.667 22.167 48.167 28.5 76.5s9.5 59.5 9.5 93.5v104c0 70 -13.333 127.5 -40 172.5s-62.334 78.167 -107.001 99.5c-22 11.333 -45.333 19.666 -70 24.999s-50.667 8 -78 8h-234v-305
h-86v-111h86v-297h238zM345.001 297.001v111h-137v198h105c52.667 0 95.167 -17 127.5 -51s48.5 -86 48.5 -156v-84c0 -70 -15.833 -121.833 -47.5 -155.5s-73.167 -50.5 -124.5 -50.5h-109v188h137z" />
    <glyph glyph-name="Ntilde" unicode="&#xd1;" horiz-adv-x="670" 
d="M184 478l-7 67l24 -62l289 -483h113v713h-117v-472l6 -65l-24 60l-284 477h-117v-713h117v478zM151 798l83.001 -0.00195312c0.666992 21.333 3.83398 36.833 9.50098 46.5s14.834 14.5 27.501 14.5c12 0 23.5 -3.33301 34.5 -10s22.5 -14.334 34.5 -23.001
s25.5 -16.334 40.5 -23.001s32.5 -10 52.5 -10c47.333 0 79.5 13.833 96.5 41.5s25.5 64.834 25.5 111.501h-83c-0.666992 -22.667 -3.83398 -38.5 -9.50098 -47.5s-15.834 -13.5 -30.501 -13.5c-11.333 0 -22.666 3.33301 -33.999 10s-23 14.334 -35 23.001
c-12.667 8.66699 -26.334 16.334 -41.001 23.001s-31.667 10 -51 10c-44.667 0 -75.834 -14.167 -93.501 -42.5s-26.5 -65.166 -26.5 -110.499z" />
    <glyph glyph-name="Ograve" unicode="&#xd2;" horiz-adv-x="662" 
d="M330 -14c88 0 157.832 25.832 209.499 77.499s77.5 130.834 77.5 237.501v106c0 69.333 -11.833 127.666 -35.5 174.999s-57.167 83 -100.5 107c-21.333 12 -44.5 21 -69.5 27s-51.833 9 -80.5 9c-58 0 -108.333 -12.167 -151 -36.5s-76 -60.166 -100 -107.499
c-11.333 -23.333 -20 -49.5 -26 -78.5s-9 -60.833 -9 -95.5v-106c0 -108 24.833 -187.5 74.5 -238.5s119.834 -76.5 210.501 -76.5zM330.999 99.999c-54 0 -93.832 17.499 -119.499 52.499s-38.5 86.167 -38.5 153.5v96c0 67.333 12.833 119.5 38.5 156.5
s65.167 55.5 118.5 55.5s93.166 -18.167 119.499 -54.5s39.5 -89.166 39.5 -158.499v-95c0 -67.333 -13 -118.5 -39 -153.5s-65.667 -52.5 -119 -52.5zM285 802.998h96l-134 198h-134z" />
    <glyph glyph-name="Oacute" unicode="&#xd3;" horiz-adv-x="662" 
d="M330 -14c88 0 157.832 25.832 209.499 77.499s77.5 130.834 77.5 237.501v106c0 69.333 -11.833 127.666 -35.5 174.999s-57.167 83 -100.5 107c-21.333 12 -44.5 21 -69.5 27s-51.833 9 -80.5 9c-58 0 -108.333 -12.167 -151 -36.5s-76 -60.166 -100 -107.499
c-11.333 -23.333 -20 -49.5 -26 -78.5s-9 -60.833 -9 -95.5v-106c0 -108 24.833 -187.5 74.5 -238.5s119.834 -76.5 210.501 -76.5zM330.999 99.999c-54 0 -93.832 17.499 -119.499 52.499s-38.5 86.167 -38.5 153.5v96c0 67.333 12.833 119.5 38.5 156.5
s65.167 55.5 118.5 55.5s93.166 -18.167 119.499 -54.5s39.5 -89.166 39.5 -158.499v-95c0 -67.333 -13 -118.5 -39 -153.5s-65.667 -52.5 -119 -52.5zM293 805.998h96l174 198h-134z" />
    <glyph glyph-name="Ocircumflex" unicode="&#xd4;" horiz-adv-x="662" 
d="M330 -14c88 0 157.832 25.832 209.499 77.499s77.5 130.834 77.5 237.501v106c0 69.333 -11.833 127.666 -35.5 174.999s-57.167 83 -100.5 107c-21.333 12 -44.5 21 -69.5 27s-51.833 9 -80.5 9c-58 0 -108.333 -12.167 -151 -36.5s-76 -60.166 -100 -107.499
c-11.333 -23.333 -20 -49.5 -26 -78.5s-9 -60.833 -9 -95.5v-106c0 -108 24.833 -187.5 74.5 -238.5s119.834 -76.5 210.501 -76.5zM330.999 99.999c-54 0 -93.832 17.499 -119.499 52.499s-38.5 86.167 -38.5 153.5v96c0 67.333 12.833 119.5 38.5 156.5
s65.167 55.5 118.5 55.5s93.166 -18.167 119.499 -54.5s39.5 -89.166 39.5 -158.499v-95c0 -67.333 -13 -118.5 -39 -153.5s-65.667 -52.5 -119 -52.5zM407 802.998h108l-141 198h-88l-140 -198h108l77 113z" />
    <glyph glyph-name="Otilde" unicode="&#xd5;" horiz-adv-x="662" 
d="M330 -14c88 0 157.832 25.832 209.499 77.499s77.5 130.834 77.5 237.501v106c0 69.333 -11.833 127.666 -35.5 174.999s-57.167 83 -100.5 107c-21.333 12 -44.5 21 -69.5 27s-51.833 9 -80.5 9c-58 0 -108.333 -12.167 -151 -36.5s-76 -60.166 -100 -107.499
c-11.333 -23.333 -20 -49.5 -26 -78.5s-9 -60.833 -9 -95.5v-106c0 -108 24.833 -187.5 74.5 -238.5s119.834 -76.5 210.501 -76.5zM330.999 99.999c-54 0 -93.832 17.499 -119.499 52.499s-38.5 86.167 -38.5 153.5v96c0 67.333 12.833 119.5 38.5 156.5
s65.167 55.5 118.5 55.5s93.166 -18.167 119.499 -54.5s39.5 -89.166 39.5 -158.499v-95c0 -67.333 -13 -118.5 -39 -153.5s-65.667 -52.5 -119 -52.5zM128 802.998l83.001 -0.00195312c0.666992 21.333 3.83398 36.833 9.50098 46.5s14.834 14.5 27.501 14.5
c12 0 23.5 -3.33301 34.5 -10s22.5 -14.334 34.5 -23.001s25.5 -16.334 40.5 -23.001s32.5 -10 52.5 -10c47.333 0 79.5 13.833 96.5 41.5s25.5 64.834 25.5 111.501h-83c-0.666992 -22.667 -3.83398 -38.5 -9.50098 -47.5s-15.834 -13.5 -30.501 -13.5
c-11.333 0 -22.666 3.33301 -33.999 10s-23 14.334 -35 23.001c-12.667 8.66699 -26.334 16.334 -41.001 23.001s-31.667 10 -51 10c-44.667 0 -75.834 -14.167 -93.501 -42.5s-26.5 -65.166 -26.5 -110.499z" />
    <glyph glyph-name="Odieresis" unicode="&#xd6;" horiz-adv-x="662" 
d="M330 -14c88 0 157.832 25.832 209.499 77.499s77.5 130.834 77.5 237.501v106c0 69.333 -11.833 127.666 -35.5 174.999s-57.167 83 -100.5 107c-21.333 12 -44.5 21 -69.5 27s-51.833 9 -80.5 9c-58 0 -108.333 -12.167 -151 -36.5s-76 -60.166 -100 -107.499
c-11.333 -23.333 -20 -49.5 -26 -78.5s-9 -60.833 -9 -95.5v-106c0 -108 24.833 -187.5 74.5 -238.5s119.834 -76.5 210.501 -76.5zM330.999 99.999c-54 0 -93.832 17.499 -119.499 52.499s-38.5 86.167 -38.5 153.5v96c0 67.333 12.833 119.5 38.5 156.5
s65.167 55.5 118.5 55.5s93.166 -18.167 119.499 -54.5s39.5 -89.166 39.5 -158.499v-95c0 -67.333 -13 -118.5 -39 -153.5s-65.667 -52.5 -119 -52.5zM429 799.998c24 0 41.999 5.66699 53.999 17s18 30 18 56s-6.16699 44.333 -18.5 55s-30.166 16 -53.499 16
c-24 0 -41.833 -5.33301 -53.5 -16s-17.5 -29 -17.5 -55c0 -27.333 5.33301 -46.333 16 -57s29 -16 55 -16zM233.999 799.998c24.667 0 42.833 5.66699 54.5 17s17.5 30 17.5 56s-6 44.333 -18 55s-30 16 -54 16c-23.333 0 -41 -5.33301 -53 -16s-18 -29 -18 -55
c0 -27.333 5.5 -46.333 16.5 -57s29.167 -16 54.5 -16z" />
    <glyph glyph-name="multiply" unicode="&#xd7;" horiz-adv-x="509" 
d="M389 154l72 72l-136 140l131 132l-71 73l-132 -132l-126 129l-72 -73l126 -129l-139 -140l71 -73l140 140z" />
    <glyph glyph-name="Oslash" unicode="&#xd8;" horiz-adv-x="664" 
d="M173 306v94c0 67.333 13 119.833 39 157.5s65.667 56.5 119 56.5c11.333 0 22 -0.833008 32 -2.5s19.333 -4.16699 28 -7.5l-182 -448c-12 17.333 -21 38.5 -27 63.5s-9 53.833 -9 86.5zM331 99c-8.66699 0 -16.833 0.499023 -24.5 1.49902s-15.167 2.5 -22.5 4.5
l177 438c10 -18 17.5 -39 22.5 -63s7.5 -51 7.5 -81v-93c0 -67.333 -13.333 -118.666 -40 -153.999s-66.667 -53 -120 -53zM331.001 -14.001c88 0 158.001 25.8311 210.001 77.498s78 130.834 78 237.501v104c0 60 -9 112 -27 156s-43.333 79.333 -76 106l54 126h-98
l-36 -83c-15.333 5.33301 -31.833 9.33301 -49.5 12s-36.167 4 -55.5 4c-58 0 -108.333 -12.5 -151 -37.5s-76 -61.167 -100 -108.5c-11.333 -24 -20 -50.5 -26 -79.5s-9 -60.833 -9 -95.5v-104c0 -65.333 9.66699 -120.166 29 -164.499s46.666 -78.833 81.999 -103.5
l-55 -123h100l37 87c14.667 -3.33301 29.667 -6 45 -8s31.333 -3 48 -3z" />
    <glyph glyph-name="Ugrave" unicode="&#xd9;" horiz-adv-x="641" 
d="M321 -14c84.667 0 149.166 24.333 193.499 73s66.5 125 66.5 229v425h-129v-420c0 -66 -10 -113.667 -30 -143s-53.333 -44 -100 -44s-80.667 14.833 -102 44.5s-32 77.167 -32 142.5v420h-128v-425c0 -104 21.333 -180.333 64 -229s108.334 -73 197.001 -73z
M277.999 784h96l-134 198h-134z" />
    <glyph glyph-name="Uacute" unicode="&#xda;" horiz-adv-x="641" 
d="M321 -14c84.667 0 149.166 24.333 193.499 73s66.5 125 66.5 229v425h-129v-420c0 -66 -10 -113.667 -30 -143s-53.333 -44 -100 -44s-80.667 14.833 -102 44.5s-32 77.167 -32 142.5v420h-128v-425c0 -104 21.333 -180.333 64 -229s108.334 -73 197.001 -73z
M275.999 784h96l174 198h-134z" />
    <glyph glyph-name="Ucircumflex" unicode="&#xdb;" horiz-adv-x="641" 
d="M321 -14c84.667 0 149.166 24.333 193.499 73s66.5 125 66.5 229v425h-129v-420c0 -66 -10 -113.667 -30 -143s-53.333 -44 -100 -44s-80.667 14.833 -102 44.5s-32 77.167 -32 142.5v420h-128v-425c0 -104 21.333 -180.333 64 -229s108.334 -73 197.001 -73z
M399.999 784h108l-141 198h-88l-140 -198h108l77 113z" />
    <glyph glyph-name="Udieresis" unicode="&#xdc;" horiz-adv-x="641" 
d="M321 -14c84.667 0 149.166 24.333 193.499 73s66.5 125 66.5 229v425h-129v-420c0 -66 -10 -113.667 -30 -143s-53.333 -44 -100 -44s-80.667 14.833 -102 44.5s-32 77.167 -32 142.5v420h-128v-425c0 -104 21.333 -180.333 64 -229s108.334 -73 197.001 -73z
M421.999 781c24 0 41.999 5.66699 53.999 17s18 30 18 56s-6.16699 44.333 -18.5 55s-30.166 16 -53.499 16c-24 0 -41.833 -5.33301 -53.5 -16s-17.5 -29 -17.5 -55c0 -27.333 5.33301 -46.333 16 -57s29 -16 55 -16zM226.998 781c24.667 0 42.833 5.66699 54.5 17
s17.5 30 17.5 56s-6 44.333 -18 55s-30 16 -54 16c-23.333 0 -41 -5.33301 -53 -16s-18 -29 -18 -55c0 -27.333 5.5 -46.333 16.5 -57s29.167 -16 54.5 -16z" />
    <glyph glyph-name="Yacute" unicode="&#xdd;" horiz-adv-x="594" 
d="M356 0v278l232 435h-135l-159 -310l-152 310h-135l221 -435v-278h128zM247 783h96l174 198h-134z" />
    <glyph glyph-name="Thorn" unicode="&#xde;" horiz-adv-x="606" 
d="M309 494c48 0 83.667 -10.5 107 -31.5s35 -50.5 35 -88.5v-19c0 -42 -11.833 -73.333 -35.5 -94s-58.167 -31 -103.5 -31h-123v264h120zM314 124c88.667 -0.666992 154.333 19.667 197 61s64 97.666 64 168.999v20c0 70.667 -21.833 125.834 -65.5 165.501
s-110.167 59.5 -199.5 59.5h-121v114h-122v-713h122v124h125z" />
    <glyph glyph-name="germandbls" unicode="&#xdf;" horiz-adv-x="617" 
d="M364 -5c77.333 0 134.665 19.666 171.998 58.999s56 90.333 56 153v14c0 47.333 -11.333 85.5 -34 114.5s-54.667 48.833 -96 59.5c32.667 11.333 56.334 29 71.001 53s22.334 55.333 23.001 94v10c0.666992 36 -7.66602 68.333 -24.999 97s-44 51.667 -80 69
c-17.333 8 -37.333 14.167 -60 18.5s-47.667 6.5 -75 6.5c-58 0 -105.667 -9.66699 -143 -29s-65 -45.666 -83 -78.999c-8.66699 -16.667 -15.334 -34.334 -20.001 -53.001s-7 -38.667 -7 -60v-522h124v516c0 34.667 9.83301 63.667 29.5 87s52.834 35 99.501 35
c43.333 0 74.166 -9.16699 92.499 -27.5s27.5 -42.166 27.5 -71.499v-9c0 -32 -8.83301 -56.333 -26.5 -73s-46.167 -25 -85.5 -25h-44v-95h61c38 0 68.5 -8.5 91.5 -25.5s34.5 -44.167 34.5 -81.5v-12c0 -37.333 -10 -65.5 -30 -84.5s-51.667 -28.5 -95 -28.5
c-14.667 0 -28.167 0.5 -40.5 1.5s-23.5 2.5 -33.5 4.5v-108c12 -2.66699 26 -4.66699 42 -6s34 -2 54 -2z" />
    <glyph glyph-name="agrave" unicode="&#xe0;" horiz-adv-x="600" 
d="M256 83c-28.667 0 -50.333 5.99902 -65 17.999s-22 30 -22 54v2c0 13.333 2.66699 25.166 8 35.499s13 19.5 23 27.5c12 8.66699 26.333 15.667 43 21s41.334 11 74.001 17c25.333 5.33301 47 10.833 65 16.5s32.333 12.834 43 21.501v-47
c0 -27.333 -7 -53.666 -21 -78.999s-33.667 -46.333 -59 -63c-12.667 -8 -26.334 -14 -41.001 -18s-30.667 -6 -48 -6zM443.001 -0.000976562l100.002 -0.000976562v394c0 59.333 -18 106.5 -54 141.5s-97.333 52.5 -184 52.5c-77.333 0 -137.833 -18.833 -181.5 -56.5
s-67.167 -87.167 -70.5 -148.5v-13h126v12c1.33301 34.667 12.666 61.5 33.999 80.5s53.666 28.5 96.999 28.5c41.333 0 70.666 -7 87.999 -21s26 -33.333 26 -58v-1c0 -22.667 -10.167 -39 -30.5 -49s-55.166 -19.333 -104.499 -28c-33.333 -6 -60.833 -11.333 -82.5 -16
s-40.167 -10 -55.5 -16c-8 -2.66699 -15.833 -6 -23.5 -10s-15.167 -8.66699 -22.5 -14c-22 -14.667 -39.167 -33.167 -51.5 -55.5s-18.5 -49.166 -18.5 -80.499v-4c0 -46.667 15 -83.5 45 -110.5s74.333 -40.5 133 -40.5c54 0 99 11.5 135 34.5s63 52.167 81 87.5z
M260.003 665.998h96l-134 198h-134z" />
    <glyph glyph-name="aacute" unicode="&#xe1;" horiz-adv-x="600" 
d="M256 83c-28.667 0 -50.333 5.99902 -65 17.999s-22 30 -22 54v2c0 13.333 2.66699 25.166 8 35.499s13 19.5 23 27.5c12 8.66699 26.333 15.667 43 21s41.334 11 74.001 17c25.333 5.33301 47 10.833 65 16.5s32.333 12.834 43 21.501v-47
c0 -27.333 -7 -53.666 -21 -78.999s-33.667 -46.333 -59 -63c-12.667 -8 -26.334 -14 -41.001 -18s-30.667 -6 -48 -6zM443.001 -0.000976562l100.002 -0.000976562v394c0 59.333 -18 106.5 -54 141.5s-97.333 52.5 -184 52.5c-77.333 0 -137.833 -18.833 -181.5 -56.5
s-67.167 -87.167 -70.5 -148.5v-13h126v12c1.33301 34.667 12.666 61.5 33.999 80.5s53.666 28.5 96.999 28.5c41.333 0 70.666 -7 87.999 -21s26 -33.333 26 -58v-1c0 -22.667 -10.167 -39 -30.5 -49s-55.166 -19.333 -104.499 -28c-33.333 -6 -60.833 -11.333 -82.5 -16
s-40.167 -10 -55.5 -16c-8 -2.66699 -15.833 -6 -23.5 -10s-15.167 -8.66699 -22.5 -14c-22 -14.667 -39.167 -33.167 -51.5 -55.5s-18.5 -49.166 -18.5 -80.499v-4c0 -46.667 15 -83.5 45 -110.5s74.333 -40.5 133 -40.5c54 0 99 11.5 135 34.5s63 52.167 81 87.5z
M256.003 665.998h96l174 198h-134z" />
    <glyph glyph-name="acircumflex" unicode="&#xe2;" horiz-adv-x="600" 
d="M256 83c-28.667 0 -50.333 5.99902 -65 17.999s-22 30 -22 54v2c0 13.333 2.66699 25.166 8 35.499s13 19.5 23 27.5c12 8.66699 26.333 15.667 43 21s41.334 11 74.001 17c25.333 5.33301 47 10.833 65 16.5s32.333 12.834 43 21.501v-47
c0 -27.333 -7 -53.666 -21 -78.999s-33.667 -46.333 -59 -63c-12.667 -8 -26.334 -14 -41.001 -18s-30.667 -6 -48 -6zM443.001 -0.000976562l100.002 -0.000976562v394c0 59.333 -18 106.5 -54 141.5s-97.333 52.5 -184 52.5c-77.333 0 -137.833 -18.833 -181.5 -56.5
s-67.167 -87.167 -70.5 -148.5v-13h126v12c1.33301 34.667 12.666 61.5 33.999 80.5s53.666 28.5 96.999 28.5c41.333 0 70.666 -7 87.999 -21s26 -33.333 26 -58v-1c0 -22.667 -10.167 -39 -30.5 -49s-55.166 -19.333 -104.499 -28c-33.333 -6 -60.833 -11.333 -82.5 -16
s-40.167 -10 -55.5 -16c-8 -2.66699 -15.833 -6 -23.5 -10s-15.167 -8.66699 -22.5 -14c-22 -14.667 -39.167 -33.167 -51.5 -55.5s-18.5 -49.166 -18.5 -80.499v-4c0 -46.667 15 -83.5 45 -110.5s74.333 -40.5 133 -40.5c54 0 99 11.5 135 34.5s63 52.167 81 87.5z
M382.003 665.998h108l-141 198h-88l-140 -198h108l77 113z" />
    <glyph glyph-name="atilde" unicode="&#xe3;" horiz-adv-x="600" 
d="M256 83c-28.667 0 -50.333 5.99902 -65 17.999s-22 30 -22 54v2c0 13.333 2.66699 25.166 8 35.499s13 19.5 23 27.5c12 8.66699 26.333 15.667 43 21s41.334 11 74.001 17c25.333 5.33301 47 10.833 65 16.5s32.333 12.834 43 21.501v-47
c0 -27.333 -7 -53.666 -21 -78.999s-33.667 -46.333 -59 -63c-12.667 -8 -26.334 -14 -41.001 -18s-30.667 -6 -48 -6zM443.001 -0.000976562l100.002 -0.000976562v394c0 59.333 -18 106.5 -54 141.5s-97.333 52.5 -184 52.5c-77.333 0 -137.833 -18.833 -181.5 -56.5
s-67.167 -87.167 -70.5 -148.5v-13h126v12c1.33301 34.667 12.666 61.5 33.999 80.5s53.666 28.5 96.999 28.5c41.333 0 70.666 -7 87.999 -21s26 -33.333 26 -58v-1c0 -22.667 -10.167 -39 -30.5 -49s-55.166 -19.333 -104.499 -28c-33.333 -6 -60.833 -11.333 -82.5 -16
s-40.167 -10 -55.5 -16c-8 -2.66699 -15.833 -6 -23.5 -10s-15.167 -8.66699 -22.5 -14c-22 -14.667 -39.167 -33.167 -51.5 -55.5s-18.5 -49.166 -18.5 -80.499v-4c0 -46.667 15 -83.5 45 -110.5s74.333 -40.5 133 -40.5c54 0 99 11.5 135 34.5s63 52.167 81 87.5z
M102.003 665.998l83.001 -0.00195312c0.666992 21.333 3.83398 36.833 9.50098 46.5s14.834 14.5 27.501 14.5c12 0 23.5 -3.33301 34.5 -10s22.5 -14.334 34.5 -23.001s25.5 -16.334 40.5 -23.001s32.5 -10 52.5 -10c47.333 0 79.5 13.833 96.5 41.5
s25.5 64.834 25.5 111.501h-83c-0.666992 -22.667 -3.83398 -38.5 -9.50098 -47.5s-15.834 -13.5 -30.501 -13.5c-11.333 0 -22.666 3.33301 -33.999 10s-23 14.334 -35 23.001c-12.667 8.66699 -26.334 16.334 -41.001 23.001s-31.667 10 -51 10
c-44.667 0 -75.834 -14.167 -93.501 -42.5s-26.5 -65.166 -26.5 -110.499z" />
    <glyph glyph-name="adieresis" unicode="&#xe4;" horiz-adv-x="600" 
d="M256 83c-28.667 0 -50.333 5.99902 -65 17.999s-22 30 -22 54v2c0 13.333 2.66699 25.166 8 35.499s13 19.5 23 27.5c12 8.66699 26.333 15.667 43 21s41.334 11 74.001 17c25.333 5.33301 47 10.833 65 16.5s32.333 12.834 43 21.501v-47
c0 -27.333 -7 -53.666 -21 -78.999s-33.667 -46.333 -59 -63c-12.667 -8 -26.334 -14 -41.001 -18s-30.667 -6 -48 -6zM443.001 -0.000976562l100.002 -0.000976562v394c0 59.333 -18 106.5 -54 141.5s-97.333 52.5 -184 52.5c-77.333 0 -137.833 -18.833 -181.5 -56.5
s-67.167 -87.167 -70.5 -148.5v-13h126v12c1.33301 34.667 12.666 61.5 33.999 80.5s53.666 28.5 96.999 28.5c41.333 0 70.666 -7 87.999 -21s26 -33.333 26 -58v-1c0 -22.667 -10.167 -39 -30.5 -49s-55.166 -19.333 -104.499 -28c-33.333 -6 -60.833 -11.333 -82.5 -16
s-40.167 -10 -55.5 -16c-8 -2.66699 -15.833 -6 -23.5 -10s-15.167 -8.66699 -22.5 -14c-22 -14.667 -39.167 -33.167 -51.5 -55.5s-18.5 -49.166 -18.5 -80.499v-4c0 -46.667 15 -83.5 45 -110.5s74.333 -40.5 133 -40.5c54 0 99 11.5 135 34.5s63 52.167 81 87.5z
M404.003 662.998c24 0 41.999 5.66699 53.999 17s18 30 18 56s-6.16699 44.333 -18.5 55s-30.166 16 -53.499 16c-24 0 -41.833 -5.33301 -53.5 -16s-17.5 -29 -17.5 -55c0 -27.333 5.33301 -46.333 16 -57s29 -16 55 -16zM209.002 662.998c24.667 0 42.833 5.66699 54.5 17
s17.5 30 17.5 56s-6 44.333 -18 55s-30 16 -54 16c-23.333 0 -41 -5.33301 -53 -16s-18 -29 -18 -55c0 -27.333 5.5 -46.333 16.5 -57s29.167 -16 54.5 -16z" />
    <glyph glyph-name="aring" unicode="&#xe5;" horiz-adv-x="600" 
d="M256 83c-28.667 0 -50.333 5.99902 -65 17.999s-22 30 -22 54v2c0 13.333 2.66699 25.166 8 35.499s13 19.5 23 27.5c12 8.66699 26.333 15.667 43 21s41.334 11 74.001 17c25.333 5.33301 47 10.833 65 16.5s32.333 12.834 43 21.501v-47
c0 -27.333 -7 -53.666 -21 -78.999s-33.667 -46.333 -59 -63c-12.667 -8 -26.334 -14 -41.001 -18s-30.667 -6 -48 -6zM443.001 -0.000976562l100.002 -0.000976562v394c0 59.333 -18 106.5 -54 141.5s-97.333 52.5 -184 52.5c-77.333 0 -137.833 -18.833 -181.5 -56.5
s-67.167 -87.167 -70.5 -148.5v-13h126v12c1.33301 34.667 12.666 61.5 33.999 80.5s53.666 28.5 96.999 28.5c41.333 0 70.666 -7 87.999 -21s26 -33.333 26 -58v-1c0 -22.667 -10.167 -39 -30.5 -49s-55.166 -19.333 -104.499 -28c-33.333 -6 -60.833 -11.333 -82.5 -16
s-40.167 -10 -55.5 -16c-8 -2.66699 -15.833 -6 -23.5 -10s-15.167 -8.66699 -22.5 -14c-22 -14.667 -39.167 -33.167 -51.5 -55.5s-18.5 -49.166 -18.5 -80.499v-4c0 -46.667 15 -83.5 45 -110.5s74.333 -40.5 133 -40.5c54 0 99 11.5 135 34.5s63 52.167 81 87.5z
M302.003 664.998c42 0 75.334 12 100.001 36s37 56.333 37 97c0 43.333 -12.333 76.666 -37 99.999s-58 35 -100 35c-40.667 0 -73.334 -12.167 -98.001 -36.5s-37 -57.166 -37 -98.499c0 -42.667 12 -75.5 36 -98.5s57 -34.5 99 -34.5zM302.004 746.998
c-17.333 0 -30.333 4.33301 -39 13s-13 21.334 -13 38.001c0 17.333 4.83301 30.666 14.5 39.999s22.167 14 37.5 14c16 0 28.833 -4.66699 38.5 -14s14.5 -22.666 14.5 -39.999c0 -16.667 -5.83301 -29.334 -17.5 -38.001s-23.5 -13 -35.5 -13z" />
    <glyph glyph-name="ae" unicode="&#xe6;" horiz-adv-x="996" 
d="M699 488c45.333 0 79.5 -13.167 102.5 -39.5s35.5 -62.5 37.5 -108.5h-291c4 47.333 19 83.833 45 109.5s61.333 38.5 106 38.5zM256 83c-29.333 0 -51.332 5.99707 -65.999 17.9971s-22 30 -22 54v2c0 14 2.33301 25.833 7 35.5s12.667 18.834 24 27.501
c12 8.66699 26.5 15.167 43.5 19.5s41.833 9.5 74.5 15.5c25.333 5.33301 47 10.833 65 16.5s32.333 12.834 43 21.501v-44c0 -27.333 -7 -53.666 -21 -78.999s-33.667 -46.333 -59 -63c-12.667 -8 -26.334 -14 -41.001 -18s-30.667 -6 -48 -6zM954.001 170.997
l0.00292969 3.00293h-132v-4c-8 -24.667 -22 -44.334 -42 -59.001s-47.333 -22 -82 -22c-46.667 0 -82.834 13.333 -108.501 40s-39.834 64.334 -42.501 113.001h413v76c0 46.667 -9 90.5 -27 131.5s-46 74.5 -84 100.5c-19.333 12.667 -41.5 22.167 -66.5 28.5
s-52.833 9.5 -83.5 9.5c-44.667 0 -83.834 -7.5 -117.501 -22.5s-61.834 -36.167 -84.501 -63.5c-14.667 27.333 -37.5 48.5 -68.5 63.5s-72.167 22.5 -123.5 22.5c-80.667 0 -142 -18.833 -184 -56.5s-64.667 -87.167 -68 -148.5v-13h124v12
c1.33301 31.333 13 57.666 35 78.999s53.333 32 94 32c39.333 0 68.833 -7.83301 88.5 -23.5s29.5 -36.834 29.5 -63.501v-2c0 -22 -11.167 -37 -33.5 -45s-56.166 -16.333 -101.499 -25c-33.333 -6 -61 -11.333 -83 -16s-40.667 -10 -56 -16
c-7.33301 -2.66699 -14.833 -6 -22.5 -10s-15.167 -8.66699 -22.5 -14c-22.667 -14.667 -40 -32.834 -52 -54.501s-18 -48.167 -18 -79.5v-4c0 -46.667 15.667 -84 47 -112s78.666 -42 141.999 -42c56 0 103.833 12.333 143.5 37s68.5 57 86.5 97
c18.667 -42.667 47.834 -75.667 87.501 -99s90.5 -35 152.5 -35c74 0 132.333 16.667 175 50s71 78.333 85 135z" />
    <glyph glyph-name="ccedilla" unicode="&#xe7;" horiz-adv-x="599" 
d="M324 -304c53.333 0 94.334 11.166 123.001 33.499s43 53.5 43 93.5c0 31.333 -11.5 56.833 -34.5 76.5s-57.5 29.834 -103.5 30.501v57h-16c67.333 4.66699 121.833 26 163.5 64s64.834 94.667 69.501 170v14h-129v-12c-4.66699 -42.667 -18.167 -74.667 -40.5 -96
s-53.166 -32 -92.499 -32c-44.667 0 -79.334 14.5 -104.001 43.5s-37 69.833 -37 122.5v48c0 57.333 13 100.5 39 129.5s60.333 43.5 103 43.5c38.667 0 69 -10.167 91 -30.5s35.333 -52.166 40 -95.499v-11h130v10c-6 79.333 -32.167 138 -78.5 176
s-107.166 57 -182.499 57c-52 0 -98.333 -10.667 -139 -32s-72.667 -52.666 -96 -93.999c-12 -20.667 -20.833 -43.667 -26.5 -69s-8.5 -53.333 -8.5 -84v-50c0 -82.667 20.667 -147.334 62 -194.001s100.333 -72.667 177 -78h-13v-125h54
c27.333 0 46.666 -3.83301 57.999 -11.5s17 -17.834 17 -30.501c0 -16 -5.83301 -28 -17.5 -36s-29.167 -12 -52.5 -12c-22 0 -39.833 4.83301 -53.5 14.5s-21.5 23.167 -23.5 40.5h-110c7.33301 -40.667 24.666 -72.667 51.999 -96s72.666 -35 135.999 -35z" />
    <glyph glyph-name="egrave" unicode="&#xe8;" horiz-adv-x="608" 
d="M311 488c45.333 0 79.333 -13.167 102 -39.5s35 -62.166 37 -107.499h-290c4 47.333 19 83.666 45 108.999s61.333 38 106 38zM565 172l0.00292969 2.00098h-131v-4c-8 -24.667 -21.833 -44.334 -41.5 -59.001s-46.834 -22 -81.501 -22
c-47.333 0 -83.833 13.333 -109.5 40s-39.834 64.667 -42.501 114h413v75c0 46.667 -9 90.5 -27 131.5s-46 74.167 -84 99.5c-19.333 13.333 -41.5 23.166 -66.5 29.499s-52.833 9.5 -83.5 9.5c-55.333 0 -103.5 -11.5 -144.5 -34.5s-72.833 -55.5 -95.5 -97.5
c-10.667 -20.667 -18.834 -43.5 -24.501 -68.5s-8.5 -51.833 -8.5 -80.5v-49c0 -84 22.167 -150.333 66.5 -199s111.833 -73 202.5 -73c75.333 0 133.833 16.833 175.5 50.5s69.167 78.834 82.5 135.501zM267.003 665.001h96l-134 198h-134z" />
    <glyph glyph-name="eacute" unicode="&#xe9;" horiz-adv-x="608" 
d="M311 488c45.333 0 79.333 -13.167 102 -39.5s35 -62.166 37 -107.499h-290c4 47.333 19 83.666 45 108.999s61.333 38 106 38zM565 172l0.00292969 2.00098h-131v-4c-8 -24.667 -21.833 -44.334 -41.5 -59.001s-46.834 -22 -81.501 -22
c-47.333 0 -83.833 13.333 -109.5 40s-39.834 64.667 -42.501 114h413v75c0 46.667 -9 90.5 -27 131.5s-46 74.167 -84 99.5c-19.333 13.333 -41.5 23.166 -66.5 29.499s-52.833 9.5 -83.5 9.5c-55.333 0 -103.5 -11.5 -144.5 -34.5s-72.833 -55.5 -95.5 -97.5
c-10.667 -20.667 -18.834 -43.5 -24.501 -68.5s-8.5 -51.833 -8.5 -80.5v-49c0 -84 22.167 -150.333 66.5 -199s111.833 -73 202.5 -73c75.333 0 133.833 16.833 175.5 50.5s69.167 78.834 82.5 135.501zM263.003 665.001h96l174 198h-134z" />
    <glyph glyph-name="ecircumflex" unicode="&#xea;" horiz-adv-x="608" 
d="M311 488c45.333 0 79.333 -13.167 102 -39.5s35 -62.166 37 -107.499h-290c4 47.333 19 83.666 45 108.999s61.333 38 106 38zM565 172l0.00292969 2.00098h-131v-4c-8 -24.667 -21.833 -44.334 -41.5 -59.001s-46.834 -22 -81.501 -22
c-47.333 0 -83.833 13.333 -109.5 40s-39.834 64.667 -42.501 114h413v75c0 46.667 -9 90.5 -27 131.5s-46 74.167 -84 99.5c-19.333 13.333 -41.5 23.166 -66.5 29.499s-52.833 9.5 -83.5 9.5c-55.333 0 -103.5 -11.5 -144.5 -34.5s-72.833 -55.5 -95.5 -97.5
c-10.667 -20.667 -18.834 -43.5 -24.501 -68.5s-8.5 -51.833 -8.5 -80.5v-49c0 -84 22.167 -150.333 66.5 -199s111.833 -73 202.5 -73c75.333 0 133.833 16.833 175.5 50.5s69.167 78.834 82.5 135.501zM388.003 665.001h108l-141 198h-88l-140 -198h108l77 113z" />
    <glyph glyph-name="edieresis" unicode="&#xeb;" horiz-adv-x="608" 
d="M311 488c45.333 0 79.333 -13.167 102 -39.5s35 -62.166 37 -107.499h-290c4 47.333 19 83.666 45 108.999s61.333 38 106 38zM565 172l0.00292969 2.00098h-131v-4c-8 -24.667 -21.833 -44.334 -41.5 -59.001s-46.834 -22 -81.501 -22
c-47.333 0 -83.833 13.333 -109.5 40s-39.834 64.667 -42.501 114h413v75c0 46.667 -9 90.5 -27 131.5s-46 74.167 -84 99.5c-19.333 13.333 -41.5 23.166 -66.5 29.499s-52.833 9.5 -83.5 9.5c-55.333 0 -103.5 -11.5 -144.5 -34.5s-72.833 -55.5 -95.5 -97.5
c-10.667 -20.667 -18.834 -43.5 -24.501 -68.5s-8.5 -51.833 -8.5 -80.5v-49c0 -84 22.167 -150.333 66.5 -199s111.833 -73 202.5 -73c75.333 0 133.833 16.833 175.5 50.5s69.167 78.834 82.5 135.501zM409.003 662.001c24 0 41.999 5.66699 53.999 17s18 30 18 56
s-6.16699 44.333 -18.5 55s-30.166 16 -53.499 16c-24 0 -41.833 -5.33301 -53.5 -16s-17.5 -29 -17.5 -55c0 -27.333 5.33301 -46.333 16 -57s29 -16 55 -16zM214.002 662.001c24.667 0 42.833 5.66699 54.5 17s17.5 30 17.5 56s-6 44.333 -18 55s-30 16 -54 16
c-23.333 0 -41 -5.33301 -53 -16s-18 -29 -18 -55c0 -27.333 5.5 -46.333 16.5 -57s29.167 -16 54.5 -16z" />
    <glyph glyph-name="igrave" unicode="&#xec;" horiz-adv-x="251" 
d="M188 0v575h-125v-575h125zM81 653h96l-134 198h-134z" />
    <glyph glyph-name="iacute" unicode="&#xed;" horiz-adv-x="251" 
d="M188 0v575h-125v-575h125zM78 653h96l174 198h-134z" />
    <glyph glyph-name="icircumflex" unicode="&#xee;" horiz-adv-x="251" 
d="M188 0v575h-125v-575h125zM203 653h108l-141 198h-88l-140 -198h108l77 113z" />
    <glyph glyph-name="idieresis" unicode="&#xef;" horiz-adv-x="251" 
d="M188 0v575h-125v-575h125zM225 650c24 0 41.999 5.66699 53.999 17s18 30 18 56s-6.16699 44.333 -18.5 55s-30.166 16 -53.499 16c-24 0 -41.833 -5.33301 -53.5 -16s-17.5 -29 -17.5 -55c0 -27.333 5.33301 -46.333 16 -57s29 -16 55 -16zM29.999 650
c24.667 0 42.833 5.66699 54.5 17s17.5 30 17.5 56s-6 44.333 -18 55s-30 16 -54 16c-23.333 0 -41 -5.33301 -53 -16s-18 -29 -18 -55c0 -27.333 5.5 -46.333 16.5 -57s29.167 -16 54.5 -16z" />
    <glyph glyph-name="eth" unicode="&#xf0;" horiz-adv-x="617" 
d="M306 -14c86 0 152.333 23.667 199 71s70 116.333 70 207v42c0 74.667 -14.5 143 -43.5 205s-73.833 121 -134.5 177l117 82h-128l-48 -33l-21.5 16.5c-7.66699 5.66699 -15.5 11.167 -23.5 16.5h-186l76.5 -49.5l66.5 -45.5l-113 -79h129l46 32
c25.333 -20 46.833 -39.5 64.5 -58.5s32.167 -38.5 43.5 -58.5c-15.333 14.667 -33.666 25.5 -54.999 32.5s-45.333 10.5 -72 10.5c-48.667 0 -92.167 -9.83301 -130.5 -29.5s-68.833 -49.167 -91.5 -88.5c-10.667 -19.333 -18.834 -41 -24.501 -65s-8.5 -50.333 -8.5 -79
v-46c0 -80.667 23.667 -144.167 71 -190.5s113 -69.5 197 -69.5zM309 95c-44.667 0 -79.833 13.6699 -105.5 41.0029s-38.5 64.666 -38.5 111.999v44c0 51.333 13 90.833 39 118.5s61 41.5 105 41.5c43.333 0 78.5 -13.333 105.5 -40s40.5 -66.334 40.5 -119.001v-45
c0 -48.667 -12.833 -86.334 -38.5 -113.001s-61.5 -40 -107.5 -40z" />
    <glyph glyph-name="ntilde" unicode="&#xf1;" 
d="M186 315c0 50.667 11 90.832 33 120.499s55.333 44.5 100 44.5c43.333 0 73.333 -13 90 -39s25 -61 25 -105v-336h124v364c0 68.667 -16.833 123.167 -50.5 163.5s-83.167 60.5 -148.5 60.5c-46 0 -84.167 -11.167 -114.5 -33.5s-52.5 -52.166 -66.5 -89.499l-12 110
h-104v-575h124v315zM107 658.998l83.001 -0.00195312c0.666992 21.333 3.83398 36.833 9.50098 46.5s14.834 14.5 27.501 14.5c12 0 23.5 -3.33301 34.5 -10s22.5 -14.334 34.5 -23.001s25.5 -16.334 40.5 -23.001s32.5 -10 52.5 -10c47.333 0 79.5 13.833 96.5 41.5
s25.5 64.834 25.5 111.501h-83c-0.666992 -22.667 -3.83398 -38.5 -9.50098 -47.5s-15.834 -13.5 -30.501 -13.5c-11.333 0 -22.666 3.33301 -33.999 10s-23 14.334 -35 23.001c-12.667 8.66699 -26.334 16.334 -41.001 23.001s-31.667 10 -51 10
c-44.667 0 -75.834 -14.167 -93.501 -42.5s-26.5 -65.166 -26.5 -110.499z" />
    <glyph glyph-name="ograve" unicode="&#xf2;" 
d="M308 -14c54 0 101.167 10.499 141.5 31.499s71.5 51.833 93.5 92.5c11.333 20.667 19.833 43.334 25.5 68.001s8.5 51.667 8.5 81v50c0 60 -11.333 110.667 -34 152s-54.334 73 -95.001 95c-20 10.667 -41.667 18.667 -65 24s-48.333 8 -75 8
c-52 0 -98.333 -10.667 -139 -32s-72.667 -52.666 -96 -93.999c-11.333 -20.667 -20 -43.834 -26 -69.501s-9 -53.5 -9 -83.5v-50c0 -88 23.333 -155.5 70 -202.5s113.334 -70.5 200.001 -70.5zM308 94.999c-44.667 0 -79.667 14.5 -105 43.5s-38 69.833 -38 122.5v48
c0 56.667 13.167 99.667 39.5 129s61.166 44 104.499 44s78 -15.167 104 -45.5s39 -72.833 39 -127.5v-48c0 -53.333 -12.667 -94.333 -38 -123s-60.666 -43 -105.999 -43zM263 665.999h96l-134 198h-134z" />
    <glyph glyph-name="oacute" unicode="&#xf3;" 
d="M308 -14c54 0 101.167 10.499 141.5 31.499s71.5 51.833 93.5 92.5c11.333 20.667 19.833 43.334 25.5 68.001s8.5 51.667 8.5 81v50c0 60 -11.333 110.667 -34 152s-54.334 73 -95.001 95c-20 10.667 -41.667 18.667 -65 24s-48.333 8 -75 8
c-52 0 -98.333 -10.667 -139 -32s-72.667 -52.666 -96 -93.999c-11.333 -20.667 -20 -43.834 -26 -69.501s-9 -53.5 -9 -83.5v-50c0 -88 23.333 -155.5 70 -202.5s113.334 -70.5 200.001 -70.5zM308 94.999c-44.667 0 -79.667 14.5 -105 43.5s-38 69.833 -38 122.5v48
c0 56.667 13.167 99.667 39.5 129s61.166 44 104.499 44s78 -15.167 104 -45.5s39 -72.833 39 -127.5v-48c0 -53.333 -12.667 -94.333 -38 -123s-60.666 -43 -105.999 -43zM261 665.999h96l174 198h-134z" />
    <glyph glyph-name="ocircumflex" unicode="&#xf4;" 
d="M308 -14c54 0 101.167 10.499 141.5 31.499s71.5 51.833 93.5 92.5c11.333 20.667 19.833 43.334 25.5 68.001s8.5 51.667 8.5 81v50c0 60 -11.333 110.667 -34 152s-54.334 73 -95.001 95c-20 10.667 -41.667 18.667 -65 24s-48.333 8 -75 8
c-52 0 -98.333 -10.667 -139 -32s-72.667 -52.666 -96 -93.999c-11.333 -20.667 -20 -43.834 -26 -69.501s-9 -53.5 -9 -83.5v-50c0 -88 23.333 -155.5 70 -202.5s113.334 -70.5 200.001 -70.5zM308 94.999c-44.667 0 -79.667 14.5 -105 43.5s-38 69.833 -38 122.5v48
c0 56.667 13.167 99.667 39.5 129s61.166 44 104.499 44s78 -15.167 104 -45.5s39 -72.833 39 -127.5v-48c0 -53.333 -12.667 -94.333 -38 -123s-60.666 -43 -105.999 -43zM385 665.999h108l-141 198h-88l-140 -198h108l77 113z" />
    <glyph glyph-name="otilde" unicode="&#xf5;" 
d="M308 -14c54 0 101.167 10.499 141.5 31.499s71.5 51.833 93.5 92.5c11.333 20.667 19.833 43.334 25.5 68.001s8.5 51.667 8.5 81v50c0 60 -11.333 110.667 -34 152s-54.334 73 -95.001 95c-20 10.667 -41.667 18.667 -65 24s-48.333 8 -75 8
c-52 0 -98.333 -10.667 -139 -32s-72.667 -52.666 -96 -93.999c-11.333 -20.667 -20 -43.834 -26 -69.501s-9 -53.5 -9 -83.5v-50c0 -88 23.333 -155.5 70 -202.5s113.334 -70.5 200.001 -70.5zM308 94.999c-44.667 0 -79.667 14.5 -105 43.5s-38 69.833 -38 122.5v48
c0 56.667 13.167 99.667 39.5 129s61.166 44 104.499 44s78 -15.167 104 -45.5s39 -72.833 39 -127.5v-48c0 -53.333 -12.667 -94.333 -38 -123s-60.666 -43 -105.999 -43zM105 665.999l83.001 -0.00195312c0.666992 21.333 3.83398 36.833 9.50098 46.5
s14.834 14.5 27.501 14.5c12 0 23.5 -3.33301 34.5 -10s22.5 -14.334 34.5 -23.001s25.5 -16.334 40.5 -23.001s32.5 -10 52.5 -10c47.333 0 79.5 13.833 96.5 41.5s25.5 64.834 25.5 111.501h-83c-0.666992 -22.667 -3.83398 -38.5 -9.50098 -47.5
s-15.834 -13.5 -30.501 -13.5c-11.333 0 -22.666 3.33301 -33.999 10s-23 14.334 -35 23.001c-12.667 8.66699 -26.334 16.334 -41.001 23.001s-31.667 10 -51 10c-44.667 0 -75.834 -14.167 -93.501 -42.5s-26.5 -65.166 -26.5 -110.499z" />
    <glyph glyph-name="odieresis" unicode="&#xf6;" 
d="M308 -14c54 0 101.167 10.499 141.5 31.499s71.5 51.833 93.5 92.5c11.333 20.667 19.833 43.334 25.5 68.001s8.5 51.667 8.5 81v50c0 60 -11.333 110.667 -34 152s-54.334 73 -95.001 95c-20 10.667 -41.667 18.667 -65 24s-48.333 8 -75 8
c-52 0 -98.333 -10.667 -139 -32s-72.667 -52.666 -96 -93.999c-11.333 -20.667 -20 -43.834 -26 -69.501s-9 -53.5 -9 -83.5v-50c0 -88 23.333 -155.5 70 -202.5s113.334 -70.5 200.001 -70.5zM308 94.999c-44.667 0 -79.667 14.5 -105 43.5s-38 69.833 -38 122.5v48
c0 56.667 13.167 99.667 39.5 129s61.166 44 104.499 44s78 -15.167 104 -45.5s39 -72.833 39 -127.5v-48c0 -53.333 -12.667 -94.333 -38 -123s-60.666 -43 -105.999 -43zM407 662.999c24 0 41.999 5.66699 53.999 17s18 30 18 56s-6.16699 44.333 -18.5 55
s-30.166 16 -53.499 16c-24 0 -41.833 -5.33301 -53.5 -16s-17.5 -29 -17.5 -55c0 -27.333 5.33301 -46.333 16 -57s29 -16 55 -16zM211.999 662.999c24.667 0 42.833 5.66699 54.5 17s17.5 30 17.5 56s-6 44.333 -18 55s-30 16 -54 16c-23.333 0 -41 -5.33301 -53 -16
s-18 -29 -18 -55c0 -27.333 5.5 -46.333 16.5 -57s29.167 -16 54.5 -16z" />
    <glyph glyph-name="divide" unicode="&#xf7;" horiz-adv-x="518" 
d="M260 474c21.333 0 37.333 4.83301 48 14.5s16 26.167 16 49.5c0 24 -5.33301 40.667 -16 50s-26.667 14 -48 14s-37.333 -4.66699 -48 -14s-16 -26 -16 -50s5 -40.667 15 -50s26.333 -14 49 -14zM475 302v110h-429v-110h429zM260 116c21.333 0 37.333 4.83301 48 14.5
s16 26.167 16 49.5c0 24 -5.33301 40.667 -16 50s-26.667 14 -48 14s-37.333 -4.66699 -48 -14s-16 -26 -16 -50c0 -24.667 5 -41.5 15 -50.5s26.333 -13.5 49 -13.5z" />
    <glyph glyph-name="oslash" unicode="&#xf8;" 
d="M164 261v47.999c0 56.667 13.333 99.667 40 129s61.667 44 105 44c5.33301 0 10.5 -0.166992 15.5 -0.5s9.83301 -1.16602 14.5 -2.49902l-140 -337c-11.333 14.667 -20 32 -26 52s-9 42.333 -9 67zM308 94.999c-5.33301 0 -10.668 0.333008 -16.001 1l-16 2l140 335
c12 -15.333 21 -33.333 27 -54s9 -44 9 -70v-48c0 -53.333 -12.667 -94.333 -38 -123s-60.666 -43 -105.999 -43zM307.998 -14.001c54 0 101.165 10.499 141.498 31.499s71.5 51.833 93.5 92.5c11.333 20.667 19.833 43.334 25.5 68.001s8.5 51.667 8.5 81v50
c0 56 -10.167 104 -30.5 144s-48.166 71.333 -83.499 94l49 113h-97l-34 -80c-11.333 2.66699 -23 4.66699 -35 6s-24.667 2 -38 2c-52 0 -98.333 -10.667 -139 -32s-72.667 -52.666 -96 -93.999c-11.333 -20.667 -20 -43.834 -26 -69.501s-9 -53.5 -9 -83.5v-50
c0 -56 9.33301 -103.5 28 -142.5s46.334 -69.833 83.001 -92.5l-48 -114h97l35 83c11.333 -2.66699 23.333 -4.5 36 -5.5s25.667 -1.5 39 -1.5z" />
    <glyph glyph-name="ugrave" unicode="&#xf9;" horiz-adv-x="598" 
d="M433 0l103 -0.000976562v575h-124v-314c0 -48.667 -10.167 -88.167 -30.5 -118.5s-50.833 -45.5 -91.5 -45.5s-69 13.333 -85 40s-24 61.334 -24 104.001v334h-123v-366c0 -68.667 15.5 -122.5 46.5 -161.5s78.833 -58.5 143.5 -58.5c44 0 80.5 10.5 109.5 31.5
s50.167 49.5 63.5 85.5zM250 642.999h96l-134 198h-134z" />
    <glyph glyph-name="uacute" unicode="&#xfa;" horiz-adv-x="598" 
d="M433 0l103 -0.000976562v575h-124v-314c0 -48.667 -10.167 -88.167 -30.5 -118.5s-50.833 -45.5 -91.5 -45.5s-69 13.333 -85 40s-24 61.334 -24 104.001v334h-123v-366c0 -68.667 15.5 -122.5 46.5 -161.5s78.833 -58.5 143.5 -58.5c44 0 80.5 10.5 109.5 31.5
s50.167 49.5 63.5 85.5zM248 642.999h96l174 198h-134z" />
    <glyph glyph-name="ucircumflex" unicode="&#xfb;" horiz-adv-x="598" 
d="M433 0l103 -0.000976562v575h-124v-314c0 -48.667 -10.167 -88.167 -30.5 -118.5s-50.833 -45.5 -91.5 -45.5s-69 13.333 -85 40s-24 61.334 -24 104.001v334h-123v-366c0 -68.667 15.5 -122.5 46.5 -161.5s78.833 -58.5 143.5 -58.5c44 0 80.5 10.5 109.5 31.5
s50.167 49.5 63.5 85.5zM372 642.999h108l-141 198h-88l-140 -198h108l77 113z" />
    <glyph glyph-name="udieresis" unicode="&#xfc;" horiz-adv-x="598" 
d="M433 0l103 -0.000976562v575h-124v-314c0 -48.667 -10.167 -88.167 -30.5 -118.5s-50.833 -45.5 -91.5 -45.5s-69 13.333 -85 40s-24 61.334 -24 104.001v334h-123v-366c0 -68.667 15.5 -122.5 46.5 -161.5s78.833 -58.5 143.5 -58.5c44 0 80.5 10.5 109.5 31.5
s50.167 49.5 63.5 85.5zM394 639.999c24 0 41.999 5.66699 53.999 17s18 30 18 56s-6.16699 44.333 -18.5 55s-30.166 16 -53.499 16c-24 0 -41.833 -5.33301 -53.5 -16s-17.5 -29 -17.5 -55c0 -27.333 5.33301 -46.333 16 -57s29 -16 55 -16zM198.999 639.999
c24.667 0 42.833 5.66699 54.5 17s17.5 30 17.5 56s-6 44.333 -18 55s-30 16 -54 16c-23.333 0 -41 -5.33301 -53 -16s-18 -29 -18 -55c0 -27.333 5.5 -46.333 16.5 -57s29.167 -16 54.5 -16z" />
    <glyph glyph-name="yacute" unicode="&#xfd;" horiz-adv-x="562" 
d="M94 -206c36 0 65.833 2 89.5 6s43.5 12 59.5 24s30.667 29.333 44 52s27.333 53 42 91l234 608h-129l-140 -390l-9 -34l-5 34l-144 390h-131l222 -561l-10 -27c-10 -23.333 -19.833 -41 -29.5 -53s-21.5 -20.333 -35.5 -25c-7.33301 -2 -15.833 -3.5 -25.5 -4.5
s-20.5 -1.5 -32.5 -1.5h-63v-109h63zM236 646h96l174 198h-134z" />
    <glyph glyph-name="thorn" unicode="&#xfe;" horiz-adv-x="629" 
d="M323 94c-44.667 0 -79.667 15.5 -105 46.5s-38 72.5 -38 124.5v49c0 50 13.167 90.833 39.5 122.5s61.833 47.5 106.5 47.5c41.333 0 74.833 -15 100.5 -45s38.5 -72.667 38.5 -128v-49c0 -54 -12.333 -95.5 -37 -124.5s-59.667 -43.5 -105 -43.5zM361 -11
c68 0 123.334 22.832 166.001 68.499s64 113.5 64 203.5v51c0 92 -21 160.833 -63 206.5s-96.667 68.834 -164 69.501c-44 0 -81.333 -10.5 -112 -31.5s-53.667 -49.167 -69 -84.5v265h-120v-933h120v292c15.333 -32.667 37.666 -58.667 66.999 -78s66.333 -29 111 -29z" />
    <glyph glyph-name="ydieresis" unicode="&#xff;" horiz-adv-x="562" 
d="M94 -206c36 0 65.833 2 89.5 6s43.5 12 59.5 24s30.667 29.333 44 52s27.333 53 42 91l234 608h-129l-140 -390l-9 -34l-5 34l-144 390h-131l222 -561l-10 -27c-10 -23.333 -19.833 -41 -29.5 -53s-21.5 -20.333 -35.5 -25c-7.33301 -2 -15.833 -3.5 -25.5 -4.5
s-20.5 -1.5 -32.5 -1.5h-63v-109h63zM382 643c24 0 41.999 5.66699 53.999 17s18 30 18 56s-6.16699 44.333 -18.5 55s-30.166 16 -53.499 16c-24 0 -41.833 -5.33301 -53.5 -16s-17.5 -29 -17.5 -55c0 -27.333 5.33301 -46.333 16 -57s29 -16 55 -16zM186.999 643
c24.667 0 42.833 5.66699 54.5 17s17.5 30 17.5 56s-6 44.333 -18 55s-30 16 -54 16c-23.333 0 -41 -5.33301 -53 -16s-18 -29 -18 -55c0 -27.333 5.5 -46.333 16.5 -57s29.167 -16 54.5 -16z" />
    <glyph glyph-name="Amacron" unicode="&#x100;" horiz-adv-x="634" 
d="M307 546l8 49l7 -49l93 -285h-197zM500 0h125l-247 713h-127l-241 -713h126l49 155h264zM159 792h310v92h-310v-92z" />
    <glyph glyph-name="amacron" unicode="&#x101;" horiz-adv-x="600" 
d="M256 83c-28.667 0 -50.333 5.99902 -65 17.999s-22 30 -22 54v2c0 13.333 2.66699 25.166 8 35.499s13 19.5 23 27.5c12 8.66699 26.333 15.667 43 21s41.334 11 74.001 17c25.333 5.33301 47 10.833 65 16.5s32.333 12.834 43 21.501v-47
c0 -27.333 -7 -53.666 -21 -78.999s-33.667 -46.333 -59 -63c-12.667 -8 -26.334 -14 -41.001 -18s-30.667 -6 -48 -6zM443.001 -0.000976562l100.002 -0.000976562v394c0 59.333 -18 106.5 -54 141.5s-97.333 52.5 -184 52.5c-77.333 0 -137.833 -18.833 -181.5 -56.5
s-67.167 -87.167 -70.5 -148.5v-13h126v12c1.33301 34.667 12.666 61.5 33.999 80.5s53.666 28.5 96.999 28.5c41.333 0 70.666 -7 87.999 -21s26 -33.333 26 -58v-1c0 -22.667 -10.167 -39 -30.5 -49s-55.166 -19.333 -104.499 -28c-33.333 -6 -60.833 -11.333 -82.5 -16
s-40.167 -10 -55.5 -16c-8 -2.66699 -15.833 -6 -23.5 -10s-15.167 -8.66699 -22.5 -14c-22 -14.667 -39.167 -33.167 -51.5 -55.5s-18.5 -49.166 -18.5 -80.499v-4c0 -46.667 15 -83.5 45 -110.5s74.333 -40.5 133 -40.5c54 0 99 11.5 135 34.5s63 52.167 81 87.5z
M153.003 666.998h310v92h-310v-92z" />
    <glyph glyph-name="Abreve" unicode="&#x102;" horiz-adv-x="634" 
d="M307 546l8 49l7 -49l93 -285h-197zM500 0h125l-247 713h-127l-241 -713h126l49 155h264zM312 789c68 0 117.002 18.332 147.002 54.999s45 86.334 45 149.001h-92c0 -39.333 -7.83301 -68.833 -23.5 -88.5s-40.834 -29.834 -75.501 -30.501
c-35.333 0.666992 -60.833 10.834 -76.5 30.501s-23.5 49.167 -23.5 88.5h-90c0 -42 5.5 -78.333 16.5 -109s30.167 -54 57.5 -70c13.333 -8.66699 29.666 -15 48.999 -19s41.333 -6 66 -6z" />
    <glyph glyph-name="abreve" unicode="&#x103;" horiz-adv-x="600" 
d="M256 83c-28.667 0 -50.333 5.99902 -65 17.999s-22 30 -22 54v2c0 13.333 2.66699 25.166 8 35.499s13 19.5 23 27.5c12 8.66699 26.333 15.667 43 21s41.334 11 74.001 17c25.333 5.33301 47 10.833 65 16.5s32.333 12.834 43 21.501v-47
c0 -27.333 -7 -53.666 -21 -78.999s-33.667 -46.333 -59 -63c-12.667 -8 -26.334 -14 -41.001 -18s-30.667 -6 -48 -6zM443.001 -0.000976562l100.002 -0.000976562v394c0 59.333 -18 106.5 -54 141.5s-97.333 52.5 -184 52.5c-77.333 0 -137.833 -18.833 -181.5 -56.5
s-67.167 -87.167 -70.5 -148.5v-13h126v12c1.33301 34.667 12.666 61.5 33.999 80.5s53.666 28.5 96.999 28.5c41.333 0 70.666 -7 87.999 -21s26 -33.333 26 -58v-1c0 -22.667 -10.167 -39 -30.5 -49s-55.166 -19.333 -104.499 -28c-33.333 -6 -60.833 -11.333 -82.5 -16
s-40.167 -10 -55.5 -16c-8 -2.66699 -15.833 -6 -23.5 -10s-15.167 -8.66699 -22.5 -14c-22 -14.667 -39.167 -33.167 -51.5 -55.5s-18.5 -49.166 -18.5 -80.499v-4c0 -46.667 15 -83.5 45 -110.5s74.333 -40.5 133 -40.5c54 0 99 11.5 135 34.5s63 52.167 81 87.5z
M304.003 663.998c68 0 117.002 18.332 147.002 54.999s45 86.334 45 149.001h-92c0 -39.333 -7.83301 -68.833 -23.5 -88.5s-40.834 -29.834 -75.501 -30.501c-35.333 0.666992 -60.833 10.834 -76.5 30.501s-23.5 49.167 -23.5 88.5h-90c0 -42 5.5 -78.333 16.5 -109
s30.167 -54 57.5 -70c13.333 -8.66699 29.666 -15 48.999 -19s41.333 -6 66 -6z" />
    <glyph glyph-name="Aogonek" unicode="&#x104;" horiz-adv-x="634" 
d="M307 546l8 49l7 -49l93 -285h-197zM725 -120l-110 0.00195312c-4.66699 -12 -12.167 -22 -22.5 -30s-22.833 -12 -37.5 -12c-16.667 0 -29.834 3.66699 -39.501 11s-14.5 17.666 -14.5 30.999c0 12 3.5 23.167 10.5 33.5s19.5 22.166 37.5 35.499
c8.66699 6.66699 19.334 14.167 32.001 22.5l43 28.5h1l-247 713h-127l-241 -713h126l49 155h264l47 -144c-38 -25.333 -63 -49.333 -75 -72s-18 -45.334 -18 -68.001c0 -37.333 13 -65.166 39 -83.499s61.333 -27.5 106 -27.5s81.667 10 111 30s51.333 50 66 90z" />
    <glyph glyph-name="aogonek" unicode="&#x105;" horiz-adv-x="600" 
d="M256 83c-28.667 0 -50.333 5.99902 -65 17.999s-22 30 -22 54v2c0 13.333 2.66699 25.166 8 35.499s13 19.5 23 27.5c12 8.66699 26.333 15.667 43 21s41.334 11 74.001 17c25.333 5.33301 47 10.833 65 16.5s32.333 12.834 43 21.501v-47
c0 -27.333 -7 -53.666 -21 -78.999s-33.667 -46.333 -59 -63c-12.667 -8 -26.334 -14 -41.001 -18s-30.667 -6 -48 -6zM643.001 -120.001h-109.997c-4.66699 -12 -12.167 -22 -22.5 -30s-22.833 -12 -37.5 -12c-16.667 0 -29.834 3.66699 -39.501 11
s-14.5 17.666 -14.5 30.999c0 12 3.5 23.167 10.5 33.5s19.5 22.166 37.5 35.499c8.66699 6.66699 19.334 14.167 32.001 22.5l43 28.5h1v394c0 59.333 -18 106.5 -54 141.5s-97.333 52.5 -184 52.5c-77.333 0 -137.833 -18.833 -181.5 -56.5s-67.167 -87.167 -70.5 -148.5
v-13h126v12c1.33301 34.667 12.666 61.5 33.999 80.5s53.666 28.5 96.999 28.5c41.333 0 70.666 -7 87.999 -21s26 -33.333 26 -58v-1c0 -22.667 -10.167 -39 -30.5 -49s-55.166 -19.333 -104.499 -28c-33.333 -6 -60.833 -11.333 -82.5 -16s-40.167 -10 -55.5 -16
c-8 -2.66699 -15.833 -6 -23.5 -10s-15.167 -8.66699 -22.5 -14c-22 -14.667 -39.167 -33.167 -51.5 -55.5s-18.5 -49.166 -18.5 -80.499v-4c0 -46.667 15 -83.5 45 -110.5s74.333 -40.5 133 -40.5c54 0 99 11.5 135 34.5s63 52.167 81 87.5l11 -83
c-32.667 -18.667 -57.667 -36.667 -75 -54s-29 -34.333 -35 -51c-2.66699 -8 -4.83398 -16.333 -6.50098 -25s-2.5 -17 -2.5 -25c0 -37.333 13 -65.166 39 -83.499s61.333 -27.5 106 -27.5s81.667 10 111 30s51.333 50 66 90z" />
    <glyph glyph-name="Cacute" unicode="&#x106;" horiz-adv-x="648" 
d="M329 -14c93.333 0 162.669 23.667 208.002 71s71.333 113.666 78 198.999v16h-132v-15c-4 -49.333 -17.5 -87.166 -40.5 -113.499s-59.167 -39.5 -108.5 -39.5c-54 0 -94.667 17.333 -122 52s-41 84.334 -41 149.001v96c0 71.333 13.5 124.666 40.5 159.999
s67.5 53 121.5 53c49.333 0 85.666 -12.5 108.999 -37.5s37 -62.167 41 -111.5v-10h129v11c-7.33301 86.667 -34.333 151.5 -81 194.5s-112.667 64.5 -198 64.5c-90.667 0 -161.334 -27.167 -212.001 -81.5s-76 -132.833 -76 -235.5v-109
c0 -102.667 24.667 -180.5 74 -233.5s119.333 -79.5 210 -79.5zM286.003 803h96l174 198h-134z" />
    <glyph glyph-name="cacute" unicode="&#x107;" horiz-adv-x="599" 
d="M306 -14c75.333 0 136.831 18.998 184.498 56.998s73.834 97.333 78.501 178v14h-129v-12c-4.66699 -42.667 -18.167 -74.667 -40.5 -96s-53.166 -32 -92.499 -32c-44.667 0 -79.334 14.5 -104.001 43.5s-37 69.833 -37 122.5v48c0 57.333 13 100.5 39 129.5
s60.333 43.5 103 43.5c38.667 0 69 -10.167 91 -30.5s35.333 -52.166 40 -95.499v-11h130v10c-6 79.333 -32.167 138 -78.5 176s-107.166 57 -182.499 57c-52 0 -98.333 -10.667 -139 -32s-72.667 -52.666 -96 -93.999c-12 -20.667 -20.833 -43.667 -26.5 -69
s-8.5 -53.333 -8.5 -84v-50c0 -88 23.167 -155.5 69.5 -202.5s112.5 -70.5 198.5 -70.5zM260.998 665.998h96l174 198h-134z" />
    <glyph glyph-name="Ccircumflex" unicode="&#x108;" horiz-adv-x="648" 
d="M329 -14c93.333 0 162.669 23.667 208.002 71s71.333 113.666 78 198.999v16h-132v-15c-4 -49.333 -17.5 -87.166 -40.5 -113.499s-59.167 -39.5 -108.5 -39.5c-54 0 -94.667 17.333 -122 52s-41 84.334 -41 149.001v96c0 71.333 13.5 124.666 40.5 159.999
s67.5 53 121.5 53c49.333 0 85.666 -12.5 108.999 -37.5s37 -62.167 41 -111.5v-10h129v11c-7.33301 86.667 -34.333 151.5 -81 194.5s-112.667 64.5 -198 64.5c-90.667 0 -161.334 -27.167 -212.001 -81.5s-76 -132.833 -76 -235.5v-109
c0 -102.667 24.667 -180.5 74 -233.5s119.333 -79.5 210 -79.5zM411.003 803h108l-141 198h-88l-140 -198h108l77 113z" />
    <glyph glyph-name="ccircumflex" unicode="&#x109;" horiz-adv-x="599" 
d="M306 -14c75.333 0 136.831 18.998 184.498 56.998s73.834 97.333 78.501 178v14h-129v-12c-4.66699 -42.667 -18.167 -74.667 -40.5 -96s-53.166 -32 -92.499 -32c-44.667 0 -79.334 14.5 -104.001 43.5s-37 69.833 -37 122.5v48c0 57.333 13 100.5 39 129.5
s60.333 43.5 103 43.5c38.667 0 69 -10.167 91 -30.5s35.333 -52.166 40 -95.499v-11h130v10c-6 79.333 -32.167 138 -78.5 176s-107.166 57 -182.499 57c-52 0 -98.333 -10.667 -139 -32s-72.667 -52.666 -96 -93.999c-12 -20.667 -20.833 -43.667 -26.5 -69
s-8.5 -53.333 -8.5 -84v-50c0 -88 23.167 -155.5 69.5 -202.5s112.5 -70.5 198.5 -70.5zM384.998 665.998h108l-141 198h-88l-140 -198h108l77 113z" />
    <glyph glyph-name="Cdotaccent" unicode="&#x10a;" horiz-adv-x="648" 
d="M329 -14c93.333 0 162.669 23.667 208.002 71s71.333 113.666 78 198.999v16h-132v-15c-4 -49.333 -17.5 -87.166 -40.5 -113.499s-59.167 -39.5 -108.5 -39.5c-54 0 -94.667 17.333 -122 52s-41 84.334 -41 149.001v96c0 71.333 13.5 124.666 40.5 159.999
s67.5 53 121.5 53c49.333 0 85.666 -12.5 108.999 -37.5s37 -62.167 41 -111.5v-10h129v11c-7.33301 86.667 -34.333 151.5 -81 194.5s-112.667 64.5 -198 64.5c-90.667 0 -161.334 -27.167 -212.001 -81.5s-76 -132.833 -76 -235.5v-109
c0 -102.667 24.667 -180.5 74 -233.5s119.333 -79.5 210 -79.5zM334.003 800c26.667 0 46.5 6.16699 59.5 18.5s19.5 32.833 19.5 61.5c0 29.333 -6.66699 50 -20 62s-33 18 -59 18c-26.667 0 -46.667 -6 -60 -18s-20 -32.667 -20 -62c0 -30 6.16699 -50.833 18.5 -62.5
s32.833 -17.5 61.5 -17.5z" />
    <glyph glyph-name="cdotaccent" unicode="&#x10b;" horiz-adv-x="599" 
d="M306 -14c75.333 0 136.831 18.998 184.498 56.998s73.834 97.333 78.501 178v14h-129v-12c-4.66699 -42.667 -18.167 -74.667 -40.5 -96s-53.166 -32 -92.499 -32c-44.667 0 -79.334 14.5 -104.001 43.5s-37 69.833 -37 122.5v48c0 57.333 13 100.5 39 129.5
s60.333 43.5 103 43.5c38.667 0 69 -10.167 91 -30.5s35.333 -52.166 40 -95.499v-11h130v10c-6 79.333 -32.167 138 -78.5 176s-107.166 57 -182.499 57c-52 0 -98.333 -10.667 -139 -32s-72.667 -52.666 -96 -93.999c-12 -20.667 -20.833 -43.667 -26.5 -69
s-8.5 -53.333 -8.5 -84v-50c0 -88 23.167 -155.5 69.5 -202.5s112.5 -70.5 198.5 -70.5zM307.998 662.998c26.667 0 46.5 6.16699 59.5 18.5s19.5 32.833 19.5 61.5c0 29.333 -6.66699 50 -20 62s-33 18 -59 18c-26.667 0 -46.667 -6 -60 -18s-20 -32.667 -20 -62
c0 -30 6.16699 -50.833 18.5 -62.5s32.833 -17.5 61.5 -17.5z" />
    <glyph glyph-name="Ccaron" unicode="&#x10c;" horiz-adv-x="648" 
d="M329 -14c93.333 0 162.669 23.667 208.002 71s71.333 113.666 78 198.999v16h-132v-15c-4 -49.333 -17.5 -87.166 -40.5 -113.499s-59.167 -39.5 -108.5 -39.5c-54 0 -94.667 17.333 -122 52s-41 84.334 -41 149.001v96c0 71.333 13.5 124.666 40.5 159.999
s67.5 53 121.5 53c49.333 0 85.666 -12.5 108.999 -37.5s37 -62.167 41 -111.5v-10h129v11c-7.33301 86.667 -34.333 151.5 -81 194.5s-112.667 64.5 -198 64.5c-90.667 0 -161.334 -27.167 -212.001 -81.5s-76 -132.833 -76 -235.5v-109
c0 -102.667 24.667 -180.5 74 -233.5s119.333 -79.5 210 -79.5zM377.003 803l139 198h-106l-78 -111l-76 111h-108l140 -198h89z" />
    <glyph glyph-name="ccaron" unicode="&#x10d;" horiz-adv-x="599" 
d="M306 -14c75.333 0 136.831 18.998 184.498 56.998s73.834 97.333 78.501 178v14h-129v-12c-4.66699 -42.667 -18.167 -74.667 -40.5 -96s-53.166 -32 -92.499 -32c-44.667 0 -79.334 14.5 -104.001 43.5s-37 69.833 -37 122.5v48c0 57.333 13 100.5 39 129.5
s60.333 43.5 103 43.5c38.667 0 69 -10.167 91 -30.5s35.333 -52.166 40 -95.499v-11h130v10c-6 79.333 -32.167 138 -78.5 176s-107.166 57 -182.499 57c-52 0 -98.333 -10.667 -139 -32s-72.667 -52.666 -96 -93.999c-12 -20.667 -20.833 -43.667 -26.5 -69
s-8.5 -53.333 -8.5 -84v-50c0 -88 23.167 -155.5 69.5 -202.5s112.5 -70.5 198.5 -70.5zM350.998 665.998l139 198h-106l-78 -111l-76 111h-108l140 -198h89z" />
    <glyph glyph-name="Dcaron" unicode="&#x10e;" horiz-adv-x="641" 
d="M67 0l238.001 0.000976562c56 0 106 11.167 150 33.5s78.333 55.833 103 100.5c12.667 22.667 22.167 48.167 28.5 76.5s9.5 59.5 9.5 93.5v104c0 70 -13.333 127.5 -40 172.5s-62.334 78.167 -107.001 99.5c-22 11.333 -45.333 19.666 -70 24.999s-50.667 8 -78 8h-234
v-713zM295.001 606.001c52.667 0 95.166 -17 127.499 -51s48.5 -86 48.5 -156v-84c0 -70 -15.667 -121.833 -47 -155.5s-72.666 -50.5 -123.999 -50.5h-110v497h105zM372 791.001l139 198h-106l-78 -111l-76 111h-108l140 -198h89z" />
    <glyph glyph-name="dcaron" unicode="&#x10f;" horiz-adv-x="630" 
d="M304 96c-40.667 0 -74 14.668 -100 44.001s-39 73.333 -39 132v39c0 54.667 12.333 97.167 37 127.5s60 45.5 106 45.5c44 0 78.667 -15.667 104 -47s38 -73 38 -125v-42c0 -52.667 -13 -94.834 -39 -126.501s-61.667 -47.5 -107 -47.5zM465 0.000976562
l101.999 -0.000976562v763h-120v-282c-15.333 33.333 -37.833 59.333 -67.5 78s-66.167 28 -109.5 28c-68.667 0 -124.5 -23.167 -167.5 -69.5s-64.5 -114.166 -64.5 -203.499v-44c0 -92.667 20.833 -162.667 62.5 -210s96.834 -71 165.501 -71c48 0 87.5 11.833 118.5 35.5
s53.167 54.167 66.5 91.5zM627.999 671h81l64 183h-107z" />
    <glyph glyph-name="Dcroat" unicode="&#x110;" horiz-adv-x="658" 
d="M323 0c56 0 105.834 11.168 149.501 33.501s78.167 55.833 103.5 100.5c12.667 22.667 22.167 48.167 28.5 76.5s9.5 59.5 9.5 93.5v104c0 70 -13.333 127.5 -40 172.5s-62.334 78.167 -107.001 99.5c-22 11.333 -45.333 19.666 -70 24.999s-50.667 8 -78 8h-234v-305
h-86v-111h86v-297h238zM345.001 297.001v111h-137v198h105c52.667 0 95.167 -17 127.5 -51s48.5 -86 48.5 -156v-84c0 -70 -15.833 -121.833 -47.5 -155.5s-73.167 -50.5 -124.5 -50.5h-109v188h137z" />
    <glyph glyph-name="dcroat" unicode="&#x111;" horiz-adv-x="630" 
d="M304 96c-40.667 0 -74 14.668 -100 44.001s-39 73.333 -39 132v39c0 54.667 12.333 97.167 37 127.5s60 45.5 106 45.5c44 0 78.667 -15.667 104 -47s38 -73 38 -125v-42c0 -52.667 -13 -94.834 -39 -126.501s-61.667 -47.5 -107 -47.5zM451 116.001l13.999 -116.001h102
v614h73v66h-73v83h-120v-83h-75v-66h75v-133c-15.333 33.333 -37.833 59.333 -67.5 78s-66.167 28 -109.5 28c-68.667 0 -124.5 -23.167 -167.5 -69.5s-64.5 -114.166 -64.5 -203.499v-44c0 -92.667 20.833 -162.667 62.5 -210s96.834 -71 165.501 -71
c48 0 87.5 11.833 118.5 35.5s53.167 54.167 66.5 91.5z" />
    <glyph glyph-name="Emacron" unicode="&#x112;" horiz-adv-x="571" 
d="M538 111h-350v195h285v109h-285v191h335v107h-456v-713h471v111zM149 794h310v92h-310v-92z" />
    <glyph glyph-name="emacron" unicode="&#x113;" horiz-adv-x="608" 
d="M311 488c45.333 0 79.333 -13.167 102 -39.5s35 -62.166 37 -107.499h-290c4 47.333 19 83.666 45 108.999s61.333 38 106 38zM565 172l0.00292969 2.00098h-131v-4c-8 -24.667 -21.833 -44.334 -41.5 -59.001s-46.834 -22 -81.501 -22
c-47.333 0 -83.833 13.333 -109.5 40s-39.834 64.667 -42.501 114h413v75c0 46.667 -9 90.5 -27 131.5s-46 74.167 -84 99.5c-19.333 13.333 -41.5 23.166 -66.5 29.499s-52.833 9.5 -83.5 9.5c-55.333 0 -103.5 -11.5 -144.5 -34.5s-72.833 -55.5 -95.5 -97.5
c-10.667 -20.667 -18.834 -43.5 -24.501 -68.5s-8.5 -51.833 -8.5 -80.5v-49c0 -84 22.167 -150.333 66.5 -199s111.833 -73 202.5 -73c75.333 0 133.833 16.833 175.5 50.5s69.167 78.834 82.5 135.501zM160.003 666.001h310v92h-310v-92z" />
    <glyph glyph-name="Ebreve" unicode="&#x114;" horiz-adv-x="571" 
d="M538 111h-350v195h285v109h-285v191h335v107h-456v-713h471v111zM300 789c68 0 117.002 18.332 147.002 54.999s45 86.334 45 149.001h-92c0 -39.333 -7.83301 -68.833 -23.5 -88.5s-40.834 -29.834 -75.501 -30.501c-35.333 0.666992 -60.833 10.834 -76.5 30.501
s-23.5 49.167 -23.5 88.5h-90c0 -42 5.5 -78.333 16.5 -109s30.167 -54 57.5 -70c13.333 -8.66699 29.666 -15 48.999 -19s41.333 -6 66 -6z" />
    <glyph glyph-name="ebreve" unicode="&#x115;" horiz-adv-x="608" 
d="M311 488c45.333 0 79.333 -13.167 102 -39.5s35 -62.166 37 -107.499h-290c4 47.333 19 83.666 45 108.999s61.333 38 106 38zM565 172l0.00292969 2.00098h-131v-4c-8 -24.667 -21.833 -44.334 -41.5 -59.001s-46.834 -22 -81.501 -22
c-47.333 0 -83.833 13.333 -109.5 40s-39.834 64.667 -42.501 114h413v75c0 46.667 -9 90.5 -27 131.5s-46 74.167 -84 99.5c-19.333 13.333 -41.5 23.166 -66.5 29.499s-52.833 9.5 -83.5 9.5c-55.333 0 -103.5 -11.5 -144.5 -34.5s-72.833 -55.5 -95.5 -97.5
c-10.667 -20.667 -18.834 -43.5 -24.501 -68.5s-8.5 -51.833 -8.5 -80.5v-49c0 -84 22.167 -150.333 66.5 -199s111.833 -73 202.5 -73c75.333 0 133.833 16.833 175.5 50.5s69.167 78.834 82.5 135.501zM312.003 663.001c68 0 117.002 18.332 147.002 54.999
s45 86.334 45 149.001h-92c0 -39.333 -7.83301 -68.833 -23.5 -88.5s-40.834 -29.834 -75.501 -30.501c-35.333 0.666992 -60.833 10.834 -76.5 30.501s-23.5 49.167 -23.5 88.5h-90c0 -42 5.5 -78.333 16.5 -109s30.167 -54 57.5 -70
c13.333 -8.66699 29.666 -15 48.999 -19s41.333 -6 66 -6z" />
    <glyph glyph-name="Edotaccent" unicode="&#x116;" horiz-adv-x="571" 
d="M538 111h-350v195h285v109h-285v191h335v107h-456v-713h471v111zM301 788c26.667 0 46.5 6.16699 59.5 18.5s19.5 32.833 19.5 61.5c0 29.333 -6.66699 50 -20 62s-33 18 -59 18c-26.667 0 -46.667 -6 -60 -18s-20 -32.667 -20 -62c0 -30 6.16699 -50.833 18.5 -62.5
s32.833 -17.5 61.5 -17.5z" />
    <glyph glyph-name="edotaccent" unicode="&#x117;" horiz-adv-x="608" 
d="M311 488c45.333 0 79.333 -13.167 102 -39.5s35 -62.166 37 -107.499h-290c4 47.333 19 83.666 45 108.999s61.333 38 106 38zM565 172l0.00292969 2.00098h-131v-4c-8 -24.667 -21.833 -44.334 -41.5 -59.001s-46.834 -22 -81.501 -22
c-47.333 0 -83.833 13.333 -109.5 40s-39.834 64.667 -42.501 114h413v75c0 46.667 -9 90.5 -27 131.5s-46 74.167 -84 99.5c-19.333 13.333 -41.5 23.166 -66.5 29.499s-52.833 9.5 -83.5 9.5c-55.333 0 -103.5 -11.5 -144.5 -34.5s-72.833 -55.5 -95.5 -97.5
c-10.667 -20.667 -18.834 -43.5 -24.501 -68.5s-8.5 -51.833 -8.5 -80.5v-49c0 -84 22.167 -150.333 66.5 -199s111.833 -73 202.5 -73c75.333 0 133.833 16.833 175.5 50.5s69.167 78.834 82.5 135.501zM312.003 662.001c26.667 0 46.5 6.16699 59.5 18.5
s19.5 32.833 19.5 61.5c0 29.333 -6.66699 50 -20 62s-33 18 -59 18c-26.667 0 -46.667 -6 -60 -18s-20 -32.667 -20 -62c0 -30 6.16699 -50.833 18.5 -62.5s32.833 -17.5 61.5 -17.5z" />
    <glyph glyph-name="Eogonek" unicode="&#x118;" horiz-adv-x="571" 
d="M639 -120l-110 0.000976562c-4.66699 -12 -12.167 -22 -22.5 -30s-22.833 -12 -37.5 -12c-16.667 0 -29.834 3.66699 -39.501 11s-14.5 17.666 -14.5 30.999c0 12 3.5 23.167 10.5 33.5s19.5 22.166 37.5 35.499c8.66699 6.66699 19.334 14.167 32.001 22.5l43 28.5v111
h-350v195h285v109h-285v191h335v107h-456v-713h327c-31.333 -22.667 -52 -44.667 -62 -66s-15 -42.333 -15 -63c0 -37.333 13 -65.166 39 -83.499s61.333 -27.5 106 -27.5s81.667 10 111 30s51.333 50 66 90z" />
    <glyph glyph-name="eogonek" unicode="&#x119;" horiz-adv-x="608" 
d="M371 -224c44.667 0 81.668 10.0059 111.001 30.0059s51.333 50 66 90h-110c-4.66699 -12 -12.167 -22 -22.5 -30s-22.833 -12 -37.5 -12c-16.667 0 -29.834 3.66699 -39.501 11s-14.5 17.666 -14.5 30.999c0 11.333 3.33301 22.166 10 32.499s18.334 21.833 35.001 34.5
c8.66699 6.66699 18.834 14 30.501 22l40.5 27c33.333 15.333 60.333 36.666 81 63.999s35.334 59.333 44.001 96v2h-131v-4c-8 -24.667 -21.833 -44.334 -41.5 -59.001s-46.834 -22 -81.501 -22c-47.333 0 -83.833 13.333 -109.5 40s-39.834 64.667 -42.501 114h413v75
c0 46.667 -9 90.5 -27 131.5s-46 74.167 -84 99.5c-19.333 13.333 -41.5 23.166 -66.5 29.499s-52.833 9.5 -83.5 9.5c-55.333 0 -103.5 -11.5 -144.5 -34.5s-72.833 -55.5 -95.5 -97.5c-10.667 -20.667 -18.834 -43.5 -24.501 -68.5s-8.5 -51.833 -8.5 -80.5v-49
c0 -78 19.167 -140.833 57.5 -188.5s96.5 -74.834 174.5 -81.501c-17.333 -17.333 -29 -34.333 -35 -51s-9 -33.334 -9 -50.001c0 -37.333 13 -65.166 39 -83.499s61.333 -27.5 106 -27.5zM311.001 488.006c45.333 0 79.333 -13.167 102 -39.5s35 -62.166 37 -107.499h-290
c4 47.333 19 83.666 45 108.999s61.333 38 106 38z" />
    <glyph glyph-name="Ecaron" unicode="&#x11a;" horiz-adv-x="571" 
d="M538 111h-350v195h285v109h-285v191h335v107h-456v-713h471v111zM344 791l139 198h-106l-78 -111l-76 111h-108l140 -198h89z" />
    <glyph glyph-name="ecaron" unicode="&#x11b;" horiz-adv-x="608" 
d="M311 488c45.333 0 79.333 -13.167 102 -39.5s35 -62.166 37 -107.499h-290c4 47.333 19 83.666 45 108.999s61.333 38 106 38zM565 172l0.00292969 2.00098h-131v-4c-8 -24.667 -21.833 -44.334 -41.5 -59.001s-46.834 -22 -81.501 -22
c-47.333 0 -83.833 13.333 -109.5 40s-39.834 64.667 -42.501 114h413v75c0 46.667 -9 90.5 -27 131.5s-46 74.167 -84 99.5c-19.333 13.333 -41.5 23.166 -66.5 29.499s-52.833 9.5 -83.5 9.5c-55.333 0 -103.5 -11.5 -144.5 -34.5s-72.833 -55.5 -95.5 -97.5
c-10.667 -20.667 -18.834 -43.5 -24.501 -68.5s-8.5 -51.833 -8.5 -80.5v-49c0 -84 22.167 -150.333 66.5 -199s111.833 -73 202.5 -73c75.333 0 133.833 16.833 175.5 50.5s69.167 78.834 82.5 135.501zM355.003 665.001l139 198h-106l-78 -111l-76 111h-108l140 -198h89z
" />
    <glyph glyph-name="Gcircumflex" unicode="&#x11c;" horiz-adv-x="660" 
d="M514 0h90.9971v373h-290v-107h161v-11c0 -27.333 -4.83301 -53 -14.5 -77s-25.167 -43.333 -46.5 -58c-10.667 -7.33301 -23 -12.833 -37 -16.5s-30 -5.5 -48 -5.5c-54 0 -94.167 16.167 -120.5 48.5s-39.166 83.833 -38.499 154.5v103c0 70.667 13.333 123.5 40 158.5
s67.667 52.5 123 52.5c34 0 60.833 -6.16699 80.5 -18.5s33.834 -28.5 42.501 -48.5c4.66699 -10 8.33398 -20.667 11.001 -32s4.33398 -23 5.00098 -35v-16h130v16c-3.33301 77.333 -27.833 137.333 -73.5 180s-110.167 64 -193.5 64
c-90.667 0 -161.834 -26.333 -213.501 -79s-77.5 -131.667 -77.5 -237v-113c0 -106 21.5 -184.167 64.5 -234.5s104.833 -75.5 185.5 -75.5c62.667 0 110.667 16.333 144 49s54.333 73.667 63 123zM411.997 803h108l-141 198h-88l-140 -198h108l77 113z" />
    <glyph glyph-name="gcircumflex" unicode="&#x11d;" horiz-adv-x="577" 
d="M287 -248c96 0 167.165 18 213.498 54s69.5 82.333 69.5 139v1c0 48.667 -17.333 87.167 -52 115.5s-89.667 42.5 -165 42.5h-113c-32.667 -0.666992 -56 2.16602 -70 8.49902s-21 15.833 -21 28.5c0 8.66699 3.5 16 10.5 22s20.167 10.667 39.5 14
c9.33301 2 21 3.33301 35 4s30.333 1 49 1h10c75.333 0 134.833 16.667 178.5 50s65.5 79.333 65.5 138v27c0 41.333 -13 76.833 -39 106.5s-63.333 47.834 -112 54.501h-3c55.333 1.33301 94.333 8.83301 117 22.5s34 39.167 34 76.5v10h-142v-13
c0 -20.667 -2.5 -35.334 -7.5 -44.001s-15.167 -14.334 -30.5 -17.001c-7.33301 -1.33301 -16.666 -2.83301 -27.999 -4.5s-24.666 -3.5 -39.999 -5.5l-27 -4c-69.333 -8 -121.166 -28.833 -155.499 -62.5s-51.5 -75.5 -51.5 -125.5v-25c0 -37.333 8.83301 -68.333 26.5 -93
s44.167 -43 79.5 -55c-36.667 -8.66699 -65.334 -22.5 -86.001 -41.5s-31 -42.167 -31 -69.5c0 -28 8.83301 -51 26.5 -69s45.167 -29.667 82.5 -35c-42.667 -10 -74 -25.5 -94 -46.5s-30 -46.167 -30 -75.5c0 -25.333 7 -47.666 21 -66.999s39 -34.666 75 -45.999
c18 -5.33301 39.667 -9.33301 65 -12s54.333 -4 87 -4h13zM292.998 271c-36.667 0 -65.167 8.16992 -85.5 24.5029s-30.5 40.833 -30.5 73.5v25c0 33.333 10.667 58.666 32 75.999s48 26.666 80 27.999c1.33301 0 2.5 0.166992 3.5 0.5s1.83301 0.5 2.5 0.5
c34 0 62.167 -8 84.5 -24s33.5 -42.667 33.5 -80v-25c0 -32.667 -10 -57.334 -30 -74.001s-50 -25 -90 -25zM264.998 -145.997c-40.667 0 -70.5 6.99902 -89.5 20.999s-28.5 29.667 -28.5 47v2c0 19.333 8.5 36 25.5 50s41.833 22.667 74.5 26h100
c39.333 0 67 -5.5 83 -16.5s24 -25.833 24 -44.5v-1c0 -23.333 -13.167 -43.166 -39.5 -59.499s-67.5 -24.5 -123.5 -24.5h-26zM359.998 711.002h108l-141 198h-88l-140 -198h108l77 113z" />
    <glyph glyph-name="Gbreve" unicode="&#x11e;" horiz-adv-x="660" 
d="M514 0h90.9971v373h-290v-107h161v-11c0 -27.333 -4.83301 -53 -14.5 -77s-25.167 -43.333 -46.5 -58c-10.667 -7.33301 -23 -12.833 -37 -16.5s-30 -5.5 -48 -5.5c-54 0 -94.167 16.167 -120.5 48.5s-39.166 83.833 -38.499 154.5v103c0 70.667 13.333 123.5 40 158.5
s67.667 52.5 123 52.5c34 0 60.833 -6.16699 80.5 -18.5s33.834 -28.5 42.501 -48.5c4.66699 -10 8.33398 -20.667 11.001 -32s4.33398 -23 5.00098 -35v-16h130v16c-3.33301 77.333 -27.833 137.333 -73.5 180s-110.167 64 -193.5 64
c-90.667 0 -161.834 -26.333 -213.501 -79s-77.5 -131.667 -77.5 -237v-113c0 -106 21.5 -184.167 64.5 -234.5s104.833 -75.5 185.5 -75.5c62.667 0 110.667 16.333 144 49s54.333 73.667 63 123zM333.997 801c68 0 117.002 18.332 147.002 54.999s45 86.334 45 149.001
h-92c0 -39.333 -7.83301 -68.833 -23.5 -88.5s-40.834 -29.834 -75.501 -30.501c-35.333 0.666992 -60.833 10.834 -76.5 30.501s-23.5 49.167 -23.5 88.5h-90c0 -42 5.5 -78.333 16.5 -109s30.167 -54 57.5 -70c13.333 -8.66699 29.666 -15 48.999 -19s41.333 -6 66 -6z
" />
    <glyph glyph-name="gbreve" unicode="&#x11f;" horiz-adv-x="577" 
d="M287 -248c96 0 167.165 18 213.498 54s69.5 82.333 69.5 139v1c0 48.667 -17.333 87.167 -52 115.5s-89.667 42.5 -165 42.5h-113c-32.667 -0.666992 -56 2.16602 -70 8.49902s-21 15.833 -21 28.5c0 8.66699 3.5 16 10.5 22s20.167 10.667 39.5 14
c9.33301 2 21 3.33301 35 4s30.333 1 49 1h10c75.333 0 134.833 16.667 178.5 50s65.5 79.333 65.5 138v27c0 41.333 -13 76.833 -39 106.5s-63.333 47.834 -112 54.501h-3c55.333 1.33301 94.333 8.83301 117 22.5s34 39.167 34 76.5v10h-142v-13
c0 -20.667 -2.5 -35.334 -7.5 -44.001s-15.167 -14.334 -30.5 -17.001c-7.33301 -1.33301 -16.666 -2.83301 -27.999 -4.5s-24.666 -3.5 -39.999 -5.5l-27 -4c-69.333 -8 -121.166 -28.833 -155.499 -62.5s-51.5 -75.5 -51.5 -125.5v-25c0 -37.333 8.83301 -68.333 26.5 -93
s44.167 -43 79.5 -55c-36.667 -8.66699 -65.334 -22.5 -86.001 -41.5s-31 -42.167 -31 -69.5c0 -28 8.83301 -51 26.5 -69s45.167 -29.667 82.5 -35c-42.667 -10 -74 -25.5 -94 -46.5s-30 -46.167 -30 -75.5c0 -25.333 7 -47.666 21 -66.999s39 -34.666 75 -45.999
c18 -5.33301 39.667 -9.33301 65 -12s54.333 -4 87 -4h13zM292.998 271c-36.667 0 -65.167 8.16992 -85.5 24.5029s-30.5 40.833 -30.5 73.5v25c0 33.333 10.667 58.666 32 75.999s48 26.666 80 27.999c1.33301 0 2.5 0.166992 3.5 0.5s1.83301 0.5 2.5 0.5
c34 0 62.167 -8 84.5 -24s33.5 -42.667 33.5 -80v-25c0 -32.667 -10 -57.334 -30 -74.001s-50 -25 -90 -25zM264.998 -145.997c-40.667 0 -70.5 6.99902 -89.5 20.999s-28.5 29.667 -28.5 47v2c0 19.333 8.5 36 25.5 50s41.833 22.667 74.5 26h100
c39.333 0 67 -5.5 83 -16.5s24 -25.833 24 -44.5v-1c0 -23.333 -13.167 -43.166 -39.5 -59.499s-67.5 -24.5 -123.5 -24.5h-26zM279.998 683.002c68 0 117.002 18.332 147.002 54.999s45 86.334 45 149.001h-92c0 -39.333 -7.83301 -68.833 -23.5 -88.5
s-40.834 -29.834 -75.501 -30.501c-35.333 0.666992 -60.833 10.834 -76.5 30.501s-23.5 49.167 -23.5 88.5h-90c0 -42 5.5 -78.333 16.5 -109s30.167 -54 57.5 -70c13.333 -8.66699 29.666 -15 48.999 -19s41.333 -6 66 -6z" />
    <glyph glyph-name="Gdotaccent" unicode="&#x120;" horiz-adv-x="660" 
d="M514 0h90.9971v373h-290v-107h161v-11c0 -27.333 -4.83301 -53 -14.5 -77s-25.167 -43.333 -46.5 -58c-10.667 -7.33301 -23 -12.833 -37 -16.5s-30 -5.5 -48 -5.5c-54 0 -94.167 16.167 -120.5 48.5s-39.166 83.833 -38.499 154.5v103c0 70.667 13.333 123.5 40 158.5
s67.667 52.5 123 52.5c34 0 60.833 -6.16699 80.5 -18.5s33.834 -28.5 42.501 -48.5c4.66699 -10 8.33398 -20.667 11.001 -32s4.33398 -23 5.00098 -35v-16h130v16c-3.33301 77.333 -27.833 137.333 -73.5 180s-110.167 64 -193.5 64
c-90.667 0 -161.834 -26.333 -213.501 -79s-77.5 -131.667 -77.5 -237v-113c0 -106 21.5 -184.167 64.5 -234.5s104.833 -75.5 185.5 -75.5c62.667 0 110.667 16.333 144 49s54.333 73.667 63 123zM334.997 800c26.667 0 46.5 6.16699 59.5 18.5s19.5 32.833 19.5 61.5
c0 29.333 -6.66699 50 -20 62s-33 18 -59 18c-26.667 0 -46.667 -6 -60 -18s-20 -32.667 -20 -62c0 -30 6.16699 -50.833 18.5 -62.5s32.833 -17.5 61.5 -17.5z" />
    <glyph glyph-name="gdotaccent" unicode="&#x121;" horiz-adv-x="577" 
d="M287 -248c96 0 167.165 18 213.498 54s69.5 82.333 69.5 139v1c0 48.667 -17.333 87.167 -52 115.5s-89.667 42.5 -165 42.5h-113c-32.667 -0.666992 -56 2.16602 -70 8.49902s-21 15.833 -21 28.5c0 8.66699 3.5 16 10.5 22s20.167 10.667 39.5 14
c9.33301 2 21 3.33301 35 4s30.333 1 49 1h10c75.333 0 134.833 16.667 178.5 50s65.5 79.333 65.5 138v27c0 41.333 -13 76.833 -39 106.5s-63.333 47.834 -112 54.501h-3c55.333 1.33301 94.333 8.83301 117 22.5s34 39.167 34 76.5v10h-142v-13
c0 -20.667 -2.5 -35.334 -7.5 -44.001s-15.167 -14.334 -30.5 -17.001c-7.33301 -1.33301 -16.666 -2.83301 -27.999 -4.5s-24.666 -3.5 -39.999 -5.5l-27 -4c-69.333 -8 -121.166 -28.833 -155.499 -62.5s-51.5 -75.5 -51.5 -125.5v-25c0 -37.333 8.83301 -68.333 26.5 -93
s44.167 -43 79.5 -55c-36.667 -8.66699 -65.334 -22.5 -86.001 -41.5s-31 -42.167 -31 -69.5c0 -28 8.83301 -51 26.5 -69s45.167 -29.667 82.5 -35c-42.667 -10 -74 -25.5 -94 -46.5s-30 -46.167 -30 -75.5c0 -25.333 7 -47.666 21 -66.999s39 -34.666 75 -45.999
c18 -5.33301 39.667 -9.33301 65 -12s54.333 -4 87 -4h13zM292.998 271c-36.667 0 -65.167 8.16992 -85.5 24.5029s-30.5 40.833 -30.5 73.5v25c0 33.333 10.667 58.666 32 75.999s48 26.666 80 27.999c1.33301 0 2.5 0.166992 3.5 0.5s1.83301 0.5 2.5 0.5
c34 0 62.167 -8 84.5 -24s33.5 -42.667 33.5 -80v-25c0 -32.667 -10 -57.334 -30 -74.001s-50 -25 -90 -25zM264.998 -145.997c-40.667 0 -70.5 6.99902 -89.5 20.999s-28.5 29.667 -28.5 47v2c0 19.333 8.5 36 25.5 50s41.833 22.667 74.5 26h100
c39.333 0 67 -5.5 83 -16.5s24 -25.833 24 -44.5v-1c0 -23.333 -13.167 -43.166 -39.5 -59.499s-67.5 -24.5 -123.5 -24.5h-26zM266.998 681.002c26.667 0 46.5 6.16699 59.5 18.5s19.5 32.833 19.5 61.5c0 29.333 -6.66699 50 -20 62s-33 18 -59 18
c-26.667 0 -46.667 -6 -60 -18s-20 -32.667 -20 -62c0 -30 6.16699 -50.833 18.5 -62.5s32.833 -17.5 61.5 -17.5z" />
    <glyph glyph-name="uni0122" unicode="&#x122;" horiz-adv-x="660" 
d="M514 0h90.9971v373h-290v-107h161v-11c0 -27.333 -4.83301 -53 -14.5 -77s-25.167 -43.333 -46.5 -58c-10.667 -7.33301 -23 -12.833 -37 -16.5s-30 -5.5 -48 -5.5c-54 0 -94.167 16.167 -120.5 48.5s-39.166 83.833 -38.499 154.5v103c0 70.667 13.333 123.5 40 158.5
s67.667 52.5 123 52.5c34 0 60.833 -6.16699 80.5 -18.5s33.834 -28.5 42.501 -48.5c4.66699 -10 8.33398 -20.667 11.001 -32s4.33398 -23 5.00098 -35v-16h130v16c-3.33301 77.333 -27.833 137.333 -73.5 180s-110.167 64 -193.5 64
c-90.667 0 -161.834 -26.333 -213.501 -79s-77.5 -131.667 -77.5 -237v-113c0 -106 21.5 -184.167 64.5 -234.5s104.833 -75.5 185.5 -75.5c62.667 0 110.667 16.333 144 49s54.333 73.667 63 123zM267.997 -334c45.333 6 78.833 24.668 100.5 56.001
s32.5 69.666 32.5 114.999c0 34.667 -5.5 59.167 -16.5 73.5s-29.833 21.5 -56.5 21.5c-25.333 0 -43.833 -5.16699 -55.5 -15.5s-17.5 -28.5 -17.5 -54.5c0 -27.333 4.83301 -45 14.5 -53s25.167 -12 46.5 -12h5c2 0 3.66699 0.333008 5 1c-2 -19.333 -7.5 -35 -16.5 -47
s-22.833 -19.333 -41.5 -22v-63z" />
    <glyph glyph-name="uni0123" unicode="&#x123;" horiz-adv-x="577" 
d="M287 -248c96 0 167.165 18 213.498 54s69.5 82.333 69.5 139v1c0 48.667 -17.333 87.167 -52 115.5s-89.667 42.5 -165 42.5h-113c-32.667 -0.666992 -56 2.16602 -70 8.49902s-21 15.833 -21 28.5c0 8.66699 3.5 16 10.5 22s20.167 10.667 39.5 14
c9.33301 2 21 3.33301 35 4s30.333 1 49 1h10c75.333 0 134.833 16.667 178.5 50s65.5 79.333 65.5 138v27c0 41.333 -13 76.833 -39 106.5s-63.333 47.834 -112 54.501h-3c55.333 1.33301 94.333 8.83301 117 22.5s34 39.167 34 76.5v10h-142v-13
c0 -20.667 -2.5 -35.334 -7.5 -44.001s-15.167 -14.334 -30.5 -17.001c-7.33301 -1.33301 -16.666 -2.83301 -27.999 -4.5s-24.666 -3.5 -39.999 -5.5l-27 -4c-69.333 -8 -121.166 -28.833 -155.499 -62.5s-51.5 -75.5 -51.5 -125.5v-25c0 -37.333 8.83301 -68.333 26.5 -93
s44.167 -43 79.5 -55c-36.667 -8.66699 -65.334 -22.5 -86.001 -41.5s-31 -42.167 -31 -69.5c0 -28 8.83301 -51 26.5 -69s45.167 -29.667 82.5 -35c-42.667 -10 -74 -25.5 -94 -46.5s-30 -46.167 -30 -75.5c0 -25.333 7 -47.666 21 -66.999s39 -34.666 75 -45.999
c18 -5.33301 39.667 -9.33301 65 -12s54.333 -4 87 -4h13zM292.998 271c-36.667 0 -65.167 8.16992 -85.5 24.5029s-30.5 40.833 -30.5 73.5v25c0 33.333 10.667 58.666 32 75.999s48 26.666 80 27.999c1.33301 0 2.5 0.166992 3.5 0.5s1.83301 0.5 2.5 0.5
c34 0 62.167 -8 84.5 -24s33.5 -42.667 33.5 -80v-25c0 -32.667 -10 -57.334 -30 -74.001s-50 -25 -90 -25zM264.998 -145.997c-40.667 0 -70.5 6.99902 -89.5 20.999s-28.5 29.667 -28.5 47v2c0 19.333 8.5 36 25.5 50s41.833 22.667 74.5 26h100
c39.333 0 67 -5.5 83 -16.5s24 -25.833 24 -44.5v-1c0 -23.333 -13.167 -43.166 -39.5 -59.499s-67.5 -24.5 -123.5 -24.5h-26zM276.998 669.002c25.333 0 43.666 5.16602 54.999 15.499s17 28.5 17 54.5c0 27.333 -4.66699 45 -14 53s-24.666 12 -45.999 12h-6
c-2 0 -3.66699 -0.333008 -5 -1c2.66699 19.333 8.5 35 17.5 47s22.833 19.333 41.5 22v63c-45.333 -6 -78.833 -24.667 -100.5 -56s-32.5 -69.666 -32.5 -114.999c0 -35.333 5.5 -60 16.5 -74s29.833 -21 56.5 -21z" />
    <glyph glyph-name="Hcircumflex" unicode="&#x124;" horiz-adv-x="663" 
d="M473 0h123v713h-123v-297h-282v297h-124v-713h124v298h282v-298zM409 776h108l-141 198h-88l-140 -198h108l77 113z" />
    <glyph glyph-name="hcircumflex" unicode="&#x125;" horiz-adv-x="613" 
d="M182 316c0 49.333 11.167 88.999 33.5 118.999s54.833 45 97.5 45c43.333 0 73.666 -13.167 90.999 -39.5s26 -61.166 26 -104.499v-336h125v367c0 69.333 -16.167 123.5 -48.5 162.5s-81.166 58.5 -146.499 58.5c-42.667 0 -79 -10 -109 -30s-53 -46.667 -69 -80v285
h-119v-763h119v316zM198 814.999h108l-141 198h-88l-140 -198h108l77 113z" />
    <glyph glyph-name="Hbar" unicode="&#x126;" horiz-adv-x="699" 
d="M491 368h-282v105h282v-105zM491 0h122v473h87v102h-87v138h-122v-138h-282v138h-124v-138h-86v-102h86v-473h124v262h282v-262z" />
    <glyph glyph-name="hbar" unicode="&#x127;" horiz-adv-x="613" 
d="M182 316c0 49.333 11.167 88.999 33.5 118.999s54.833 45 97.5 45c43.333 0 73.666 -13.167 90.999 -39.5s26 -61.166 26 -104.499v-336h125v367c0 69.333 -16.167 123.5 -48.5 162.5s-81.166 58.5 -146.499 58.5c-42.667 0 -79 -10 -109 -30s-53 -46.667 -69 -80v136h83
v66h-83v83h-119v-83h-73v-66h73v-614h119v316z" />
    <glyph glyph-name="Itilde" unicode="&#x128;" horiz-adv-x="443" 
d="M404 0v115h-123v487h123v111h-365v-111h124v-487h-124v-115h365zM19 791l83.001 -0.00195312c0.666992 21.333 3.83398 36.833 9.50098 46.5s14.834 14.5 27.501 14.5c12 0 23.5 -3.33301 34.5 -10s22.5 -14.334 34.5 -23.001s25.5 -16.334 40.5 -23.001
s32.5 -10 52.5 -10c47.333 0 79.5 13.833 96.5 41.5s25.5 64.834 25.5 111.501h-83c-0.666992 -22.667 -3.83398 -38.5 -9.50098 -47.5s-15.834 -13.5 -30.501 -13.5c-11.333 0 -22.666 3.33301 -33.999 10s-23 14.334 -35 23.001
c-12.667 8.66699 -26.334 16.334 -41.001 23.001s-31.667 10 -51 10c-44.667 0 -75.834 -14.167 -93.501 -42.5s-26.5 -65.166 -26.5 -110.499z" />
    <glyph glyph-name="itilde" unicode="&#x129;" horiz-adv-x="251" 
d="M188 0v575h-125v-575h125zM-75 653l83.001 -0.00195312c0.666992 21.333 3.83398 36.833 9.50098 46.5s14.834 14.5 27.501 14.5c12 0 23.5 -3.33301 34.5 -10s22.5 -14.334 34.5 -23.001s25.5 -16.334 40.5 -23.001s32.5 -10 52.5 -10c47.333 0 79.5 13.833 96.5 41.5
s25.5 64.834 25.5 111.501h-83c-0.666992 -22.667 -3.83398 -38.5 -9.50098 -47.5s-15.834 -13.5 -30.501 -13.5c-11.333 0 -22.666 3.33301 -33.999 10s-23 14.334 -35 23.001c-12.667 8.66699 -26.334 16.334 -41.001 23.001s-31.667 10 -51 10
c-44.667 0 -75.834 -14.167 -93.501 -42.5s-26.5 -65.166 -26.5 -110.499z" />
    <glyph glyph-name="Imacron" unicode="&#x12a;" horiz-adv-x="443" 
d="M404 0v115h-123v487h123v111h-365v-111h124v-487h-124v-115h365zM70 794h310v92h-310v-92z" />
    <glyph glyph-name="imacron" unicode="&#x12b;" horiz-adv-x="251" 
d="M188 0v575h-125v-575h125zM-26 654h310v92h-310v-92z" />
    <glyph glyph-name="Ibreve" unicode="&#x12c;" horiz-adv-x="443" 
d="M404 0v115h-123v487h123v111h-365v-111h124v-487h-124v-115h365zM221 789c68 0 117.002 18.332 147.002 54.999s45 86.334 45 149.001h-92c0 -39.333 -7.83301 -68.833 -23.5 -88.5s-40.834 -29.834 -75.501 -30.501c-35.333 0.666992 -60.833 10.834 -76.5 30.501
s-23.5 49.167 -23.5 88.5h-90c0 -42 5.5 -78.333 16.5 -109s30.167 -54 57.5 -70c13.333 -8.66699 29.666 -15 48.999 -19s41.333 -6 66 -6z" />
    <glyph glyph-name="ibreve" unicode="&#x12d;" horiz-adv-x="251" 
d="M188 0v575h-125v-575h125zM126 651c68 0 117.002 18.332 147.002 54.999s45 86.334 45 149.001h-92c0 -39.333 -7.83301 -68.833 -23.5 -88.5s-40.834 -29.834 -75.501 -30.501c-35.333 0.666992 -60.833 10.834 -76.5 30.501s-23.5 49.167 -23.5 88.5h-90
c0 -42 5.5 -78.333 16.5 -109s30.167 -54 57.5 -70c13.333 -8.66699 29.666 -15 48.999 -19s41.333 -6 66 -6z" />
    <glyph glyph-name="Iogonek" unicode="&#x12e;" horiz-adv-x="443" 
d="M505 -120l-110 0.000976562c-4.66699 -12 -12.167 -22 -22.5 -30s-22.833 -12 -37.5 -12c-16.667 0 -29.834 3.66699 -39.501 11s-14.5 17.666 -14.5 30.999c0 12 3.5 23.167 10.5 33.5s19.5 22.166 37.5 35.499c8.66699 6.66699 19.334 14.167 32.001 22.5l43 28.5v115
h-123v487h123v111h-365v-111h124v-487h-124v-115h221c-31.333 -22.667 -52 -44.667 -62 -66s-15 -42.333 -15 -63c0 -37.333 13 -65.166 39 -83.499s61.333 -27.5 106 -27.5s81.667 10 111 30s51.333 50 66 90z" />
    <glyph glyph-name="iogonek" unicode="&#x12f;" horiz-adv-x="251" 
d="M128 635c27.333 0 47.666 6.33301 60.999 19s20 34 20 64c0 30.667 -6.66699 52 -20 64s-33.666 18 -60.999 18c-26.667 0 -47 -6 -61 -18s-21 -33.333 -21 -64s6.16699 -52.167 18.5 -64.5s33.5 -18.5 63.5 -18.5zM289 -120l-110.001 0.000976562
c-4.66699 -12 -12.167 -22 -22.5 -30s-22.833 -12 -37.5 -12c-16.667 0 -29.834 3.66699 -39.501 11s-14.5 17.666 -14.5 30.999c0 12 3.5 23.167 10.5 33.5s19.5 22.166 37.5 35.499c8.66699 6.66699 19.334 14.167 32.001 22.5l43 28.5v575h-125v-563
c-39.333 -25.333 -65.166 -49.5 -77.499 -72.5s-18.5 -45.833 -18.5 -68.5c0 -37.333 13 -65.166 39 -83.499s61.333 -27.5 106 -27.5s81.667 10 111 30s51.333 50 66 90z" />
    <glyph glyph-name="Idotaccent" unicode="&#x130;" horiz-adv-x="443" 
d="M404 0v115h-123v487h123v111h-365v-111h124v-487h-124v-115h365zM222 788c26.667 0 46.5 6.16699 59.5 18.5s19.5 32.833 19.5 61.5c0 29.333 -6.66699 50 -20 62s-33 18 -59 18c-26.667 0 -46.667 -6 -60 -18s-20 -32.667 -20 -62c0 -30 6.16699 -50.833 18.5 -62.5
s32.833 -17.5 61.5 -17.5z" />
    <glyph glyph-name="dotlessi" unicode="&#x131;" horiz-adv-x="251" 
d="M188 0v575h-125v-575h125z" />
    <glyph glyph-name="IJ" unicode="&#x132;" horiz-adv-x="752" 
d="M472 0l9.99707 -0.000976562c45.333 0 81.833 2.66699 109.5 8s48.834 15.333 63.501 30c14 14.667 23.667 36.334 29 65.001s8 66 8 112v498h-128v-493c0 -31.333 -1.5 -54.5 -4.5 -69.5s-10.167 -24.833 -21.5 -29.5c-5.33301 -2 -12.666 -3.5 -21.999 -4.5
s-20.666 -1.5 -33.999 -1.5h-10v-115zM411.997 -0.000976562v115h-131v487h123v111h-365v-111h123v-487h-123v-115h373z" />
    <glyph glyph-name="ij" unicode="&#x133;" horiz-adv-x="523" 
d="M126 635c27.333 0 47.833 6.33301 61.5 19s20.5 34 20.5 64c0 30.667 -6.83301 52 -20.5 64s-34.167 18 -61.5 18c-26.667 0 -47 -6 -61 -18s-21 -33.333 -21 -64s6.33301 -52.167 19 -64.5s33.667 -18.5 63 -18.5zM397 635c27.333 0 47.835 6.33301 61.502 19
s20.5 34 20.5 64c0 30.667 -6.83301 52 -20.5 64s-34.167 18 -61.5 18c-26.667 0 -46.834 -6 -60.501 -18s-20.5 -33.333 -20.5 -64s6.16699 -52.167 18.5 -64.5s33.166 -18.5 62.499 -18.5zM187.002 0v575h-125v-575h125zM263.002 -224
c53.333 0 93.8311 5.50098 121.498 16.501s46.834 30.5 57.501 58.5c4.66699 14 8.33398 31.167 11.001 51.5s4 43.5 4 69.5v603h-121v-588c0 -28.667 -2 -49.834 -6 -63.501s-12.333 -22.5 -25 -26.5c-6 -2 -13.5 -3.5 -22.5 -4.5s-19.5 -1.5 -31.5 -1.5h-70v-115h82z" />
    <glyph glyph-name="Jcircumflex" unicode="&#x134;" horiz-adv-x="557" 
d="M260 -14c75.333 0 133.668 21.167 175.001 63.5s62 109.5 62 201.5v462h-128v-457c0 -56.667 -8.33301 -96 -25 -118s-44.667 -33 -84 -33c-36.667 0 -63.334 9.83301 -80.001 29.5s-26 47.5 -28 83.5v24h-128v-23c2 -78 23.5 -136.333 64.5 -175s98.167 -58 171.5 -58z
M511.002 791h108l-141 198h-88l-140 -198h108l77 113z" />
    <glyph glyph-name="jcircumflex" unicode="&#x135;" horiz-adv-x="249" 
d="M-48 -226h40.9971c52.667 0 92.834 5.5 120.501 16.5s46.834 30.5 57.501 58.5c4.66699 14.667 8.33398 32 11.001 52s4 43.333 4 70v604h-121v-589c0 -29.333 -2 -50.833 -6 -64.5s-12 -22.5 -24 -26.5c-6 -2 -13.5 -3.5 -22.5 -4.5s-19.5 -1.5 -31.5 -1.5h-29v-115z
M202.997 653h108l-141 198h-88l-140 -198h108l77 113z" />
    <glyph glyph-name="uni0136" unicode="&#x136;" horiz-adv-x="627" 
d="M304 369l187 -369h138l-237 451l221 262h-151l-272 -328v328h-123v-713h123v236l113 135zM275 -310c45.333 6 78.833 24.668 100.5 56.001s32.5 69.666 32.5 114.999c0 34.667 -5.5 59.167 -16.5 73.5s-29.833 21.5 -56.5 21.5c-25.333 0 -43.833 -5.16699 -55.5 -15.5
s-17.5 -28.5 -17.5 -54.5c0 -27.333 4.83301 -45 14.5 -53s25.167 -12 46.5 -12h5c2 0 3.66699 0.333008 5 1c-2 -19.333 -7.5 -35 -16.5 -47s-22.833 -19.333 -41.5 -22v-63z" />
    <glyph glyph-name="uni0137" unicode="&#x137;" horiz-adv-x="583" 
d="M442 0h139l-203 354l197 221h-151l-222 -253l-20 -27v468h-119v-763h119v167l104 118zM250 -313c45.333 6 78.833 24.668 100.5 56.001s32.5 69.666 32.5 114.999c0 34.667 -5.5 59.167 -16.5 73.5s-29.833 21.5 -56.5 21.5c-25.333 0 -43.833 -5.16699 -55.5 -15.5
s-17.5 -28.5 -17.5 -54.5c0 -27.333 4.83301 -45 14.5 -53s25.167 -12 46.5 -12h5c2 0 3.66699 0.333008 5 1c-2 -19.333 -7.5 -35 -16.5 -47s-22.833 -19.333 -41.5 -22v-63z" />
    <glyph glyph-name="kgreenlandic" unicode="&#x138;" horiz-adv-x="583" 
d="M442 0h139l-203 354l197 221h-151l-222 -253l-20 -27v280h-119v-575h119v167l104 118z" />
    <glyph glyph-name="Lacute" unicode="&#x139;" horiz-adv-x="535" 
d="M510 0v116h-318v597h-125v-713h443zM83 791h96l174 198h-134z" />
    <glyph glyph-name="lacute" unicode="&#x13a;" horiz-adv-x="250" 
d="M187 0v763h-124v-763h124zM78 832h96l174 198h-134z" />
    <glyph glyph-name="uni013B" unicode="&#x13b;" horiz-adv-x="535" 
d="M510 0v116h-318v597h-125v-713h443zM237 -321c45.333 6 78.833 24.668 100.5 56.001s32.5 69.666 32.5 114.999c0 34.667 -5.5 59.167 -16.5 73.5s-29.833 21.5 -56.5 21.5c-25.333 0 -43.833 -5.16699 -55.5 -15.5s-17.5 -28.5 -17.5 -54.5
c0 -27.333 4.83301 -45 14.5 -53s25.167 -12 46.5 -12h5c2 0 3.66699 0.333008 5 1c-2 -19.333 -7.5 -35 -16.5 -47s-22.833 -19.333 -41.5 -22v-63z" />
    <glyph glyph-name="uni013C" unicode="&#x13c;" horiz-adv-x="250" 
d="M187 0v763h-124v-763h124zM69 -323c45.333 6 78.833 24.668 100.5 56.001s32.5 69.666 32.5 114.999c0 34.667 -5.5 59.167 -16.5 73.5s-29.833 21.5 -56.5 21.5c-25.333 0 -43.833 -5.16699 -55.5 -15.5s-17.5 -28.5 -17.5 -54.5c0 -27.333 4.83301 -45 14.5 -53
s25.167 -12 46.5 -12h5c2 0 3.66699 0.333008 5 1c-2 -19.333 -7.5 -35 -16.5 -47s-22.833 -19.333 -41.5 -22v-63z" />
    <glyph glyph-name="Lcaron" unicode="&#x13d;" horiz-adv-x="535" 
d="M510 0v116h-318v597h-125v-713h443zM404 654h81l64 183h-107z" />
    <glyph glyph-name="lcaron" unicode="&#x13e;" horiz-adv-x="250" 
d="M187 0v763h-124v-763h124zM249 671h81l64 183h-107z" />
    <glyph glyph-name="Ldot" unicode="&#x13f;" horiz-adv-x="535" 
d="M510 0v116h-318v597h-125v-713h443zM439 267c26.667 0 46.5 6.16699 59.5 18.5s19.5 32.833 19.5 61.5c0 29.333 -6.66699 50 -20 62s-33 18 -59 18c-26.667 0 -46.667 -6 -60 -18s-20 -32.667 -20 -62c0 -30 6.16699 -50.833 18.5 -62.5s32.833 -17.5 61.5 -17.5z" />
    <glyph glyph-name="ldot" unicode="&#x140;" horiz-adv-x="270" 
d="M187 0v763h-124v-763h124zM340 219c26.667 0 46.5 6.16699 59.5 18.5s19.5 32.833 19.5 61.5c0 29.333 -6.66699 50 -20 62s-33 18 -59 18c-26.667 0 -46.667 -6 -60 -18s-20 -32.667 -20 -62c0 -30 6.16699 -50.833 18.5 -62.5s32.833 -17.5 61.5 -17.5z" />
    <glyph glyph-name="Lslash" unicode="&#x141;" horiz-adv-x="553" 
d="M529 0v116h-318v229l177 59l-30 99l-147 -50v260h-125v-302l-102 -34l30 -98l72 24v-303h443z" />
    <glyph glyph-name="lslash" unicode="&#x142;" horiz-adv-x="269" 
d="M197 0v301l82 22l-17 66l-65 -17v391h-124v-424l-82 -22l17 -66l65 17v-268h124z" />
    <glyph glyph-name="Nacute" unicode="&#x143;" horiz-adv-x="670" 
d="M184 478l-7 67l24 -62l289 -483h113v713h-117v-472l6 -65l-24 60l-284 477h-117v-713h117v478zM303 774h96l174 198h-134z" />
    <glyph glyph-name="nacute" unicode="&#x144;" 
d="M186 315c0 50.667 11 90.832 33 120.499s55.333 44.5 100 44.5c43.333 0 73.333 -13 90 -39s25 -61 25 -105v-336h124v364c0 68.667 -16.833 123.167 -50.5 163.5s-83.167 60.5 -148.5 60.5c-46 0 -84.167 -11.167 -114.5 -33.5s-52.5 -52.166 -66.5 -89.499l-12 110
h-104v-575h124v315zM260 658.998h96l174 198h-134z" />
    <glyph glyph-name="uni0145" unicode="&#x145;" horiz-adv-x="670" 
d="M184 478l-7 67l24 -62l289 -483h113v713h-117v-472l6 -65l-24 60l-284 477h-117v-713h117v478zM275 -309c45.333 6 78.833 24.668 100.5 56.001s32.5 69.666 32.5 114.999c0 34.667 -5.5 59.167 -16.5 73.5s-29.833 21.5 -56.5 21.5
c-25.333 0 -43.833 -5.16699 -55.5 -15.5s-17.5 -28.5 -17.5 -54.5c0 -27.333 4.83301 -45 14.5 -53s25.167 -12 46.5 -12h5c2 0 3.66699 0.333008 5 1c-2 -19.333 -7.5 -35 -16.5 -47s-22.833 -19.333 -41.5 -22v-63z" />
    <glyph glyph-name="uni0146" unicode="&#x146;" 
d="M186 315c0 50.667 11 90.832 33 120.499s55.333 44.5 100 44.5c43.333 0 73.333 -13 90 -39s25 -61 25 -105v-336h124v364c0 68.667 -16.833 123.167 -50.5 163.5s-83.167 60.5 -148.5 60.5c-46 0 -84.167 -11.167 -114.5 -33.5s-52.5 -52.166 -66.5 -89.499l-12 110
h-104v-575h124v315zM252 -316.002c45.333 6 78.833 24.668 100.5 56.001s32.5 69.666 32.5 114.999c0 34.667 -5.5 59.167 -16.5 73.5s-29.833 21.5 -56.5 21.5c-25.333 0 -43.833 -5.16699 -55.5 -15.5s-17.5 -28.5 -17.5 -54.5c0 -27.333 4.83301 -45 14.5 -53
s25.167 -12 46.5 -12h5c2 0 3.66699 0.333008 5 1c-2 -19.333 -7.5 -35 -16.5 -47s-22.833 -19.333 -41.5 -22v-63z" />
    <glyph glyph-name="Ncaron" unicode="&#x147;" horiz-adv-x="670" 
d="M184 478l-7 67l24 -62l289 -483h113v713h-117v-472l6 -65l-24 60l-284 477h-117v-713h117v478zM393 774l139 198h-106l-78 -111l-76 111h-108l140 -198h89z" />
    <glyph glyph-name="ncaron" unicode="&#x148;" 
d="M186 315c0 50.667 11 90.832 33 120.499s55.333 44.5 100 44.5c43.333 0 73.333 -13 90 -39s25 -61 25 -105v-336h124v364c0 68.667 -16.833 123.167 -50.5 163.5s-83.167 60.5 -148.5 60.5c-46 0 -84.167 -11.167 -114.5 -33.5s-52.5 -52.166 -66.5 -89.499l-12 110
h-104v-575h124v315zM351 658.998l139 198h-106l-78 -111l-76 111h-108l140 -198h89z" />
    <glyph glyph-name="Eng" unicode="&#x14a;" horiz-adv-x="686" 
d="M426 -226c52.667 0 92.833 5.5 120.5 16.5s46.5 30.833 56.5 59.5c5.33301 14 9.33301 31.167 12 51.5s4 43.5 4 69.5v742h-117v-472l6 -51l-20 42l-304 481h-117v-713h117v478l-6 52l20 -43l301 -476v-25c0 -29.333 -2.16699 -50.833 -6.5 -64.5
s-12.5 -22.5 -24.5 -26.5c-6.66699 -2 -14.5 -3.5 -23.5 -4.5s-19.5 -1.5 -31.5 -1.5h-28v-115h41z" />
    <glyph glyph-name="eng" unicode="&#x14b;" horiz-adv-x="615" 
d="M361 -226c53.333 0 93.999 5.49805 121.999 16.498s47.333 30.5 58 58.5c5.33301 14.667 9.33301 32 12 52s4 43.333 4 70v393c0 68.667 -16.667 123.167 -50 163.5s-82.666 60.5 -147.999 60.5c-46 0 -84.167 -11.167 -114.5 -33.5s-52.5 -52.166 -66.5 -89.499l-12 110
h-104v-575h124v315c0 50.667 11 90.834 33 120.501s55.333 44.5 100 44.5c43.333 0 73.333 -13 90 -39s25 -61 25 -105v-350c0 -29.333 -2 -50.833 -6 -64.5s-12.333 -22.5 -25 -26.5c-6 -2 -13.5 -3.5 -22.5 -4.5s-19.5 -1.5 -31.5 -1.5h-28v-115h40z" />
    <glyph glyph-name="Omacron" unicode="&#x14c;" horiz-adv-x="662" 
d="M330 -14c88 0 157.832 25.832 209.499 77.499s77.5 130.834 77.5 237.501v106c0 69.333 -11.833 127.666 -35.5 174.999s-57.167 83 -100.5 107c-21.333 12 -44.5 21 -69.5 27s-51.833 9 -80.5 9c-58 0 -108.333 -12.167 -151 -36.5s-76 -60.166 -100 -107.499
c-11.333 -23.333 -20 -49.5 -26 -78.5s-9 -60.833 -9 -95.5v-106c0 -108 24.833 -187.5 74.5 -238.5s119.834 -76.5 210.501 -76.5zM330.999 99.999c-54 0 -93.832 17.499 -119.499 52.499s-38.5 86.167 -38.5 153.5v96c0 67.333 12.833 119.5 38.5 156.5
s65.167 55.5 118.5 55.5s93.166 -18.167 119.499 -54.5s39.5 -89.166 39.5 -158.499v-95c0 -67.333 -13 -118.5 -39 -153.5s-65.667 -52.5 -119 -52.5zM178 803.998h310v92h-310v-92z" />
    <glyph glyph-name="omacron" unicode="&#x14d;" 
d="M308 -14c54 0 101.167 10.499 141.5 31.499s71.5 51.833 93.5 92.5c11.333 20.667 19.833 43.334 25.5 68.001s8.5 51.667 8.5 81v50c0 60 -11.333 110.667 -34 152s-54.334 73 -95.001 95c-20 10.667 -41.667 18.667 -65 24s-48.333 8 -75 8
c-52 0 -98.333 -10.667 -139 -32s-72.667 -52.666 -96 -93.999c-11.333 -20.667 -20 -43.834 -26 -69.501s-9 -53.5 -9 -83.5v-50c0 -88 23.333 -155.5 70 -202.5s113.334 -70.5 200.001 -70.5zM308 94.999c-44.667 0 -79.667 14.5 -105 43.5s-38 69.833 -38 122.5v48
c0 56.667 13.167 99.667 39.5 129s61.166 44 104.499 44s78 -15.167 104 -45.5s39 -72.833 39 -127.5v-48c0 -53.333 -12.667 -94.333 -38 -123s-60.666 -43 -105.999 -43zM155 666.999h310v92h-310v-92z" />
    <glyph glyph-name="Obreve" unicode="&#x14e;" horiz-adv-x="662" 
d="M330 -14c88 0 157.832 25.832 209.499 77.499s77.5 130.834 77.5 237.501v106c0 69.333 -11.833 127.666 -35.5 174.999s-57.167 83 -100.5 107c-21.333 12 -44.5 21 -69.5 27s-51.833 9 -80.5 9c-58 0 -108.333 -12.167 -151 -36.5s-76 -60.166 -100 -107.499
c-11.333 -23.333 -20 -49.5 -26 -78.5s-9 -60.833 -9 -95.5v-106c0 -108 24.833 -187.5 74.5 -238.5s119.834 -76.5 210.501 -76.5zM330.999 99.999c-54 0 -93.832 17.499 -119.499 52.499s-38.5 86.167 -38.5 153.5v96c0 67.333 12.833 119.5 38.5 156.5
s65.167 55.5 118.5 55.5s93.166 -18.167 119.499 -54.5s39.5 -89.166 39.5 -158.499v-95c0 -67.333 -13 -118.5 -39 -153.5s-65.667 -52.5 -119 -52.5zM329 800.998c68 0 117.002 18.332 147.002 54.999s45 86.334 45 149.001h-92c0 -39.333 -7.83301 -68.833 -23.5 -88.5
s-40.834 -29.834 -75.501 -30.501c-35.333 0.666992 -60.833 10.834 -76.5 30.501s-23.5 49.167 -23.5 88.5h-90c0 -42 5.5 -78.333 16.5 -109s30.167 -54 57.5 -70c13.333 -8.66699 29.666 -15 48.999 -19s41.333 -6 66 -6z" />
    <glyph glyph-name="obreve" unicode="&#x14f;" 
d="M308 -14c54 0 101.167 10.499 141.5 31.499s71.5 51.833 93.5 92.5c11.333 20.667 19.833 43.334 25.5 68.001s8.5 51.667 8.5 81v50c0 60 -11.333 110.667 -34 152s-54.334 73 -95.001 95c-20 10.667 -41.667 18.667 -65 24s-48.333 8 -75 8
c-52 0 -98.333 -10.667 -139 -32s-72.667 -52.666 -96 -93.999c-11.333 -20.667 -20 -43.834 -26 -69.501s-9 -53.5 -9 -83.5v-50c0 -88 23.333 -155.5 70 -202.5s113.334 -70.5 200.001 -70.5zM308 94.999c-44.667 0 -79.667 14.5 -105 43.5s-38 69.833 -38 122.5v48
c0 56.667 13.167 99.667 39.5 129s61.166 44 104.499 44s78 -15.167 104 -45.5s39 -72.833 39 -127.5v-48c0 -53.333 -12.667 -94.333 -38 -123s-60.666 -43 -105.999 -43zM307 663.999c68 0 117.002 18.332 147.002 54.999s45 86.334 45 149.001h-92
c0 -39.333 -7.83301 -68.833 -23.5 -88.5s-40.834 -29.834 -75.501 -30.501c-35.333 0.666992 -60.833 10.834 -76.5 30.501s-23.5 49.167 -23.5 88.5h-90c0 -42 5.5 -78.333 16.5 -109s30.167 -54 57.5 -70c13.333 -8.66699 29.666 -15 48.999 -19s41.333 -6 66 -6z" />
    <glyph glyph-name="Ohungarumlaut" unicode="&#x150;" horiz-adv-x="662" 
d="M330 -14c88 0 157.832 25.832 209.499 77.499s77.5 130.834 77.5 237.501v106c0 69.333 -11.833 127.666 -35.5 174.999s-57.167 83 -100.5 107c-21.333 12 -44.5 21 -69.5 27s-51.833 9 -80.5 9c-58 0 -108.333 -12.167 -151 -36.5s-76 -60.166 -100 -107.499
c-11.333 -23.333 -20 -49.5 -26 -78.5s-9 -60.833 -9 -95.5v-106c0 -108 24.833 -187.5 74.5 -238.5s119.834 -76.5 210.501 -76.5zM330.999 99.999c-54 0 -93.832 17.499 -119.499 52.499s-38.5 86.167 -38.5 153.5v96c0 67.333 12.833 119.5 38.5 156.5
s65.167 55.5 118.5 55.5s93.166 -18.167 119.499 -54.5s39.5 -89.166 39.5 -158.499v-95c0 -67.333 -13 -118.5 -39 -153.5s-65.667 -52.5 -119 -52.5zM458 1001h-127l-134 -198h89zM640 1001h-127l-134 -198h89z" />
    <glyph glyph-name="ohungarumlaut" unicode="&#x151;" 
d="M308 -14c54 0 101.167 10.499 141.5 31.499s71.5 51.833 93.5 92.5c11.333 20.667 19.833 43.334 25.5 68.001s8.5 51.667 8.5 81v50c0 60 -11.333 110.667 -34 152s-54.334 73 -95.001 95c-20 10.667 -41.667 18.667 -65 24s-48.333 8 -75 8
c-52 0 -98.333 -10.667 -139 -32s-72.667 -52.666 -96 -93.999c-11.333 -20.667 -20 -43.834 -26 -69.501s-9 -53.5 -9 -83.5v-50c0 -88 23.333 -155.5 70 -202.5s113.334 -70.5 200.001 -70.5zM308 94.999c-44.667 0 -79.667 14.5 -105 43.5s-38 69.833 -38 122.5v48
c0 56.667 13.167 99.667 39.5 129s61.166 44 104.499 44s78 -15.167 104 -45.5s39 -72.833 39 -127.5v-48c0 -53.333 -12.667 -94.333 -38 -123s-60.666 -43 -105.999 -43zM435 863.999h-127l-134 -198h89zM617 863.999h-127l-134 -198h89z" />
    <glyph glyph-name="OE" unicode="&#x152;" horiz-adv-x="990" 
d="M331 100c-54 0 -93.832 17.668 -119.499 53.001s-38.5 86.666 -38.5 153.999v94c0 67.333 12.833 119.666 38.5 156.999s65.167 56 118.5 56s93.166 -18.333 119.499 -55s39.5 -89.667 39.5 -159v-93c0 -67.333 -13 -118.666 -39 -153.999s-65.667 -53 -119 -53z
M487.001 0.000976562l470 0.000976562v111h-350v195h285v109h-285v191h335v107h-455v-58c-16.667 23.333 -39.167 40.833 -67.5 52.5s-62.5 17.5 -102.5 17.5c-53.333 0 -100.5 -12.333 -141.5 -37s-72.833 -60.667 -95.5 -108c-12 -24 -20.833 -50.5 -26.5 -79.5
s-8.5 -60.833 -8.5 -95.5v-103c0 -72 11.333 -131.333 34 -178s54.667 -81.334 96 -104.001c20.667 -11.333 43 -19.833 67 -25.5s49.667 -8.5 77 -8.5c40.667 0 74.667 5.66699 102 17s49.333 28.333 66 51v-54z" />
    <glyph glyph-name="oe" unicode="&#x153;" horiz-adv-x="1022" 
d="M725 488c45.333 0 79.333 -13.167 102 -39.5s35 -62.5 37 -108.5h-291c4 47.333 19.167 83.833 45.5 109.5s61.833 38.5 106.5 38.5zM308 95c-44.667 0 -79.667 14.5 -105 43.5s-38 69.833 -38 122.5v48c0 56.667 13.167 99.667 39.5 129s61.166 44 104.499 44
s78 -15.167 104 -45.5s39 -72.833 39 -127.5v-48c0 -53.333 -12.667 -94.333 -38 -123s-60.666 -43 -105.999 -43zM979 171l-0.00292969 3.00098h-131v-4c-8 -24.667 -22 -44.334 -42 -59.001s-47.333 -22 -82 -22c-46.667 0 -83 13.333 -109 40s-40.333 64.334 -43 113.001
h414v76c0 46.667 -9 90.5 -27 131.5s-46 74.167 -84 99.5c-19.333 13.333 -41.5 23.166 -66.5 29.499s-52.833 9.5 -83.5 9.5c-48.667 0 -91 -8.83301 -127 -26.5s-64.667 -43.167 -86 -76.5c-20.667 34.667 -48 60.5 -82 77.5s-75 25.5 -123 25.5
c-52 0 -98.167 -10.667 -138.5 -32s-72.166 -52.666 -95.499 -93.999c-12 -20.667 -20.833 -43.834 -26.5 -69.501s-8.5 -53.5 -8.5 -83.5v-50c0 -88 23.333 -155.5 70 -202.5s112.667 -70.5 198 -70.5c48 0 89 8.16699 123 24.5s61 40.833 81 73.5
c18.667 -31.333 45.334 -55.5 80.001 -72.5s78.334 -25.5 131.001 -25.5c73.333 0 131.333 16.667 174 50s70.667 78.333 84 135z" />
    <glyph glyph-name="Racute" unicode="&#x154;" horiz-adv-x="628" 
d="M323 607c46 0 79.5 -9.33105 100.5 -27.998s31.5 -45.334 31.5 -80.001v-13c0 -36.667 -11.5 -64.834 -34.5 -84.501s-55.833 -29.5 -98.5 -29.5h-132v235h133zM317 265.002c45.333 0 76.833 -8.66602 94.5 -25.999s26.5 -45.666 26.5 -84.999v-113
c0 -8.66699 1.16699 -16.834 3.5 -24.501s5.83301 -13.167 10.5 -16.5h132c-5.33301 4 -9.5 9.33301 -12.5 16s-4.5 14.334 -4.5 23.001v118c0 47.333 -8 84 -24 110s-41.333 44.333 -76 55c37.333 13.333 65.833 33.666 85.5 60.999s29.5 63.666 29.5 108.999v16
c0 63.333 -20 113.333 -60 150s-105.333 55 -196 55h-259v-713h123v265h127zM262 791.003h96l174 198h-134z" />
    <glyph glyph-name="racute" unicode="&#x155;" horiz-adv-x="406" 
d="M183 0l0.000976562 281c0 42 4.16699 75.667 12.5 101s23.833 43.333 46.5 54c11.333 6 25.166 10.333 41.499 13s34.833 4 55.5 4h52v127h-35c-51.333 0 -91.5 -10.833 -120.5 -32.5s-48.5 -55.5 -58.5 -101.5l-16 129h-99v-575h121zM172.001 643h96l174 198h-134z" />
    <glyph glyph-name="uni0156" unicode="&#x156;" horiz-adv-x="628" 
d="M323 607c46 0 79.5 -9.33105 100.5 -27.998s31.5 -45.334 31.5 -80.001v-13c0 -36.667 -11.5 -64.834 -34.5 -84.501s-55.833 -29.5 -98.5 -29.5h-132v235h133zM317 265.002c45.333 0 76.833 -8.66602 94.5 -25.999s26.5 -45.666 26.5 -84.999v-113
c0 -8.66699 1.16699 -16.834 3.5 -24.501s5.83301 -13.167 10.5 -16.5h132c-5.33301 4 -9.5 9.33301 -12.5 16s-4.5 14.334 -4.5 23.001v118c0 47.333 -8 84 -24 110s-41.333 44.333 -76 55c37.333 13.333 65.833 33.666 85.5 60.999s29.5 63.666 29.5 108.999v16
c0 63.333 -20 113.333 -60 150s-105.333 55 -196 55h-259v-713h123v265h127zM260 -311.997c45.333 6 78.833 24.668 100.5 56.001s32.5 69.666 32.5 114.999c0 34.667 -5.5 59.167 -16.5 73.5s-29.833 21.5 -56.5 21.5c-25.333 0 -43.833 -5.16699 -55.5 -15.5
s-17.5 -28.5 -17.5 -54.5c0 -27.333 4.83301 -45 14.5 -53s25.167 -12 46.5 -12h5c2 0 3.66699 0.333008 5 1c-2 -19.333 -7.5 -35 -16.5 -47s-22.833 -19.333 -41.5 -22v-63z" />
    <glyph glyph-name="uni0157" unicode="&#x157;" horiz-adv-x="406" 
d="M183 0l0.000976562 281c0 42 4.16699 75.667 12.5 101s23.833 43.333 46.5 54c11.333 6 25.166 10.333 41.499 13s34.833 4 55.5 4h52v127h-35c-51.333 0 -91.5 -10.833 -120.5 -32.5s-48.5 -55.5 -58.5 -101.5l-16 129h-99v-575h121zM64.001 -323
c45.333 6 78.833 24.668 100.5 56.001s32.5 69.666 32.5 114.999c0 34.667 -5.5 59.167 -16.5 73.5s-29.833 21.5 -56.5 21.5c-25.333 0 -43.833 -5.16699 -55.5 -15.5s-17.5 -28.5 -17.5 -54.5c0 -27.333 4.83301 -45 14.5 -53s25.167 -12 46.5 -12h5
c2 0 3.66699 0.333008 5 1c-2 -19.333 -7.5 -35 -16.5 -47s-22.833 -19.333 -41.5 -22v-63z" />
    <glyph glyph-name="Rcaron" unicode="&#x158;" horiz-adv-x="628" 
d="M323 607c46 0 79.5 -9.33105 100.5 -27.998s31.5 -45.334 31.5 -80.001v-13c0 -36.667 -11.5 -64.834 -34.5 -84.501s-55.833 -29.5 -98.5 -29.5h-132v235h133zM317 265.002c45.333 0 76.833 -8.66602 94.5 -25.999s26.5 -45.666 26.5 -84.999v-113
c0 -8.66699 1.16699 -16.834 3.5 -24.501s5.83301 -13.167 10.5 -16.5h132c-5.33301 4 -9.5 9.33301 -12.5 16s-4.5 14.334 -4.5 23.001v118c0 47.333 -8 84 -24 110s-41.333 44.333 -76 55c37.333 13.333 65.833 33.666 85.5 60.999s29.5 63.666 29.5 108.999v16
c0 63.333 -20 113.333 -60 150s-105.333 55 -196 55h-259v-713h123v265h127zM352 791.003l139 198h-106l-78 -111l-76 111h-108l140 -198h89z" />
    <glyph glyph-name="rcaron" unicode="&#x159;" horiz-adv-x="406" 
d="M183 0l0.000976562 281c0 42 4.16699 75.667 12.5 101s23.833 43.333 46.5 54c11.333 6 25.166 10.333 41.499 13s34.833 4 55.5 4h52v127h-35c-51.333 0 -91.5 -10.833 -120.5 -32.5s-48.5 -55.5 -58.5 -101.5l-16 129h-99v-575h121zM263.001 643l139 198h-106l-78 -111
l-76 111h-108l140 -198h89z" />
    <glyph glyph-name="Sacute" unicode="&#x15a;" horiz-adv-x="582" 
d="M300 -14c55.333 0 101.83 9.66992 139.497 29.0029s66.167 45 85.5 77c9.33301 16.667 16.333 34 21 52s7 36.667 7 56v8c0 37.333 -6.33301 68 -19 92s-29.667 43 -51 57c-21.333 14.667 -45 26.334 -71 35.001s-52.667 16.334 -80 23.001l-81 23
c-25.333 7.33301 -45.666 17.666 -60.999 30.999c-7.33301 6.66699 -13 14.667 -17 24s-6 20 -6 32v3c0 25.333 8.66699 47.166 26 65.499s46.333 27.5 87 27.5c45.333 0 78 -9.5 98 -28.5s31.333 -47.5 34 -85.5v-15h127v16c-2 66.667 -23.333 119.5 -64 158.5
s-105 58.5 -193 58.5c-54.667 0 -99.667 -9.16699 -135 -27.5s-61.666 -42.5 -78.999 -72.5c-8.66699 -14.667 -15.167 -30.167 -19.5 -46.5s-6.5 -33.5 -6.5 -51.5v-5c0 -36.667 6.33301 -66.834 19 -90.501s29.667 -42.5 51 -56.5c20.667 -14.667 44 -26.167 70 -34.5
s52 -15.833 78 -22.5c29.333 -6.66699 57 -14 83 -22s47 -19 63 -33c8 -7.33301 14 -15.833 18 -25.5s6 -20.834 6 -33.501v-6c0 -28 -10.333 -52.167 -31 -72.5s-53.334 -30.5 -98.001 -30.5c-51.333 0 -88.666 11.5 -111.999 34.5s-35.666 57.5 -36.999 103.5v18h-132v-18
c1.33301 -52.667 11.333 -97.334 30 -134.001s48 -64.667 88 -84c20.667 -10 44.5 -17.333 71.5 -22s57.167 -7 90.5 -7zM232.997 803.003h96l174 198h-134z" />
    <glyph glyph-name="sacute" unicode="&#x15b;" horiz-adv-x="543" 
d="M279 -14c79.333 0 138.5 17.3311 177.5 51.998s58.5 79.334 58.5 134.001v4c0 31.333 -6 56.666 -18 75.999s-28 35 -48 47c-20 11.333 -42 20.166 -66 26.499s-48 11.5 -72 15.5c-26 4.66699 -50.167 9.5 -72.5 14.5s-40.5 12.167 -54.5 21.5
c-7.33301 4.66699 -12.666 10.334 -15.999 17.001s-5 14.334 -5 23.001v2c0 20 7.5 36.5 22.5 49.5s41.167 19.5 78.5 19.5c36 0 63.167 -6.33301 81.5 -19s29.166 -32.667 32.499 -60v-9h126v9c-6.66699 55.333 -28.834 99 -66.501 131s-95.167 48 -172.5 48
c-74 0 -129.667 -16.5 -167 -49.5s-56 -75.167 -56 -126.5v-3c0 -30.667 6 -55.667 18 -75s27.667 -34.666 47 -45.999s41 -20.166 65 -26.499s48 -11.833 72 -16.5c26 -4.66699 50.333 -9.5 73 -14.5s40.667 -12.167 54 -21.5
c7.33301 -4.66699 12.666 -10.334 15.999 -17.001s5 -14.667 5 -24v-3c0 -22.667 -8.5 -40.667 -25.5 -54s-45.167 -20 -84.5 -20c-38.667 0 -68.667 7.16699 -90 21.5s-34.666 37.833 -39.999 70.5v11h-133v-12c7.33301 -64 31.833 -112.667 73.5 -146
s103.834 -50 186.501 -50zM218 665.998h96l174 198h-134z" />
    <glyph glyph-name="Scircumflex" unicode="&#x15c;" horiz-adv-x="582" 
d="M300 -14c55.333 0 101.83 9.66992 139.497 29.0029s66.167 45 85.5 77c9.33301 16.667 16.333 34 21 52s7 36.667 7 56v8c0 37.333 -6.33301 68 -19 92s-29.667 43 -51 57c-21.333 14.667 -45 26.334 -71 35.001s-52.667 16.334 -80 23.001l-81 23
c-25.333 7.33301 -45.666 17.666 -60.999 30.999c-7.33301 6.66699 -13 14.667 -17 24s-6 20 -6 32v3c0 25.333 8.66699 47.166 26 65.499s46.333 27.5 87 27.5c45.333 0 78 -9.5 98 -28.5s31.333 -47.5 34 -85.5v-15h127v16c-2 66.667 -23.333 119.5 -64 158.5
s-105 58.5 -193 58.5c-54.667 0 -99.667 -9.16699 -135 -27.5s-61.666 -42.5 -78.999 -72.5c-8.66699 -14.667 -15.167 -30.167 -19.5 -46.5s-6.5 -33.5 -6.5 -51.5v-5c0 -36.667 6.33301 -66.834 19 -90.501s29.667 -42.5 51 -56.5c20.667 -14.667 44 -26.167 70 -34.5
s52 -15.833 78 -22.5c29.333 -6.66699 57 -14 83 -22s47 -19 63 -33c8 -7.33301 14 -15.833 18 -25.5s6 -20.834 6 -33.501v-6c0 -28 -10.333 -52.167 -31 -72.5s-53.334 -30.5 -98.001 -30.5c-51.333 0 -88.666 11.5 -111.999 34.5s-35.666 57.5 -36.999 103.5v18h-132v-18
c1.33301 -52.667 11.333 -97.334 30 -134.001s48 -64.667 88 -84c20.667 -10 44.5 -17.333 71.5 -22s57.167 -7 90.5 -7zM358.997 803.003h108l-141 198h-88l-140 -198h108l77 113z" />
    <glyph glyph-name="scircumflex" unicode="&#x15d;" horiz-adv-x="543" 
d="M279 -14c79.333 0 138.5 17.3311 177.5 51.998s58.5 79.334 58.5 134.001v4c0 31.333 -6 56.666 -18 75.999s-28 35 -48 47c-20 11.333 -42 20.166 -66 26.499s-48 11.5 -72 15.5c-26 4.66699 -50.167 9.5 -72.5 14.5s-40.5 12.167 -54.5 21.5
c-7.33301 4.66699 -12.666 10.334 -15.999 17.001s-5 14.334 -5 23.001v2c0 20 7.5 36.5 22.5 49.5s41.167 19.5 78.5 19.5c36 0 63.167 -6.33301 81.5 -19s29.166 -32.667 32.499 -60v-9h126v9c-6.66699 55.333 -28.834 99 -66.501 131s-95.167 48 -172.5 48
c-74 0 -129.667 -16.5 -167 -49.5s-56 -75.167 -56 -126.5v-3c0 -30.667 6 -55.667 18 -75s27.667 -34.666 47 -45.999s41 -20.166 65 -26.499s48 -11.833 72 -16.5c26 -4.66699 50.333 -9.5 73 -14.5s40.667 -12.167 54 -21.5
c7.33301 -4.66699 12.666 -10.334 15.999 -17.001s5 -14.667 5 -24v-3c0 -22.667 -8.5 -40.667 -25.5 -54s-45.167 -20 -84.5 -20c-38.667 0 -68.667 7.16699 -90 21.5s-34.666 37.833 -39.999 70.5v11h-133v-12c7.33301 -64 31.833 -112.667 73.5 -146
s103.834 -50 186.501 -50zM342 665.998h108l-141 198h-88l-140 -198h108l77 113z" />
    <glyph glyph-name="uni015E" unicode="&#x15e;" horiz-adv-x="582" 
d="M314 -304c53.333 0 94.334 11.1699 123.001 33.5029s43 53.5 43 93.5c0 31.333 -11.5 56.833 -34.5 76.5s-57.5 29.834 -103.5 30.501v57h-13c49.333 3.33301 90.666 14.833 123.999 34.5s58.333 45.167 75 76.5c8.66699 15.333 15 31.5 19 48.5s6 34.833 6 53.5v8
c0 37.333 -6.33301 68 -19 92s-29.667 43 -51 57c-21.333 14.667 -45 26.334 -71 35.001s-52.667 16.334 -80 23.001l-81 23c-25.333 7.33301 -45.666 17.666 -60.999 30.999c-7.33301 6.66699 -13 14.667 -17 24s-6 20 -6 32v3c0 25.333 8.66699 47.166 26 65.499
s46.333 27.5 87 27.5c45.333 0 78 -9.5 98 -28.5s31.333 -47.5 34 -85.5v-15h127v16c-2 66.667 -23.333 119.5 -64 158.5s-105 58.5 -193 58.5c-54.667 0 -99.667 -9.16699 -135 -27.5s-61.666 -42.5 -78.999 -72.5c-8.66699 -14.667 -15.167 -30.167 -19.5 -46.5
s-6.5 -33.5 -6.5 -51.5v-5c0 -36.667 6.33301 -66.834 19 -90.501s29.667 -42.5 51 -56.5c20.667 -14.667 44 -26.167 70 -34.5s52 -15.833 78 -22.5c29.333 -6.66699 57 -14 83 -22s47 -19 63 -33c8 -7.33301 14 -15.833 18 -25.5s6 -20.834 6 -33.501v-6
c0 -28 -10.333 -52.167 -31 -72.5s-53.334 -30.5 -98.001 -30.5c-51.333 0 -88.666 11.5 -111.999 34.5s-35.666 57.5 -36.999 103.5v18h-132v-18c2 -74 21.333 -132.333 58 -175s98.667 -66.334 186 -71.001h-10v-125h54c27.333 0 46.666 -3.83301 57.999 -11.5
s17 -17.834 17 -30.501c0 -16 -5.83301 -28 -17.5 -36s-29.167 -12 -52.5 -12c-22 0 -39.833 4.83301 -53.5 14.5s-21.5 23.167 -23.5 40.5h-110c7.33301 -40.667 24.666 -72.667 51.999 -96s72.666 -35 135.999 -35z" />
    <glyph glyph-name="uni015F" unicode="&#x15f;" horiz-adv-x="543" 
d="M297 -304c53.333 0 94.3359 11.166 123.003 33.499s43 53.5 43 93.5c0 31.333 -11.5 56.833 -34.5 76.5s-57.5 29.834 -103.5 30.501v57h-16c69.333 4.66699 121 24 155 58s51 76.333 51 127v4c0 31.333 -6 56.666 -18 75.999s-28 35 -48 47
c-20 11.333 -42 20.166 -66 26.499s-48 11.5 -72 15.5c-26 4.66699 -50.167 9.5 -72.5 14.5s-40.5 12.167 -54.5 21.5c-7.33301 4.66699 -12.666 10.334 -15.999 17.001s-5 14.334 -5 23.001v2c0 20 7.5 36.5 22.5 49.5s41.167 19.5 78.5 19.5
c36 0 63.167 -6.33301 81.5 -19s29.166 -32.667 32.499 -60v-9h126v9c-6.66699 55.333 -28.834 99 -66.501 131s-95.167 48 -172.5 48c-74 0 -129.667 -16.5 -167 -49.5s-56 -75.167 -56 -126.5v-3c0 -30.667 6 -55.667 18 -75s27.667 -34.666 47 -45.999
s41 -20.166 65 -26.499s48 -11.833 72 -16.5c26 -4.66699 50.333 -9.5 73 -14.5s40.667 -12.167 54 -21.5c7.33301 -4.66699 12.666 -10.334 15.999 -17.001s5 -14.667 5 -24v-3c0 -22.667 -8.5 -40.667 -25.5 -54s-45.167 -20 -84.5 -20
c-38.667 0 -68.667 7.16699 -90 21.5s-34.666 37.833 -39.999 70.5v11h-133v-12c6.66699 -59.333 28.334 -105.5 65.001 -138.5s90.667 -51.833 162 -56.5h-9v-125h54c27.333 0 46.666 -3.83301 57.999 -11.5s17 -17.834 17 -30.501c0 -16 -5.83301 -28 -17.5 -36
s-29.167 -12 -52.5 -12c-22 0 -39.833 4.83301 -53.5 14.5s-21.5 23.167 -23.5 40.5h-110c7.33301 -40.667 24.666 -72.667 51.999 -96s72.666 -35 135.999 -35z" />
    <glyph glyph-name="Scaron" unicode="&#x160;" horiz-adv-x="582" 
d="M300 -14c55.333 0 101.83 9.66992 139.497 29.0029s66.167 45 85.5 77c9.33301 16.667 16.333 34 21 52s7 36.667 7 56v8c0 37.333 -6.33301 68 -19 92s-29.667 43 -51 57c-21.333 14.667 -45 26.334 -71 35.001s-52.667 16.334 -80 23.001l-81 23
c-25.333 7.33301 -45.666 17.666 -60.999 30.999c-7.33301 6.66699 -13 14.667 -17 24s-6 20 -6 32v3c0 25.333 8.66699 47.166 26 65.499s46.333 27.5 87 27.5c45.333 0 78 -9.5 98 -28.5s31.333 -47.5 34 -85.5v-15h127v16c-2 66.667 -23.333 119.5 -64 158.5
s-105 58.5 -193 58.5c-54.667 0 -99.667 -9.16699 -135 -27.5s-61.666 -42.5 -78.999 -72.5c-8.66699 -14.667 -15.167 -30.167 -19.5 -46.5s-6.5 -33.5 -6.5 -51.5v-5c0 -36.667 6.33301 -66.834 19 -90.501s29.667 -42.5 51 -56.5c20.667 -14.667 44 -26.167 70 -34.5
s52 -15.833 78 -22.5c29.333 -6.66699 57 -14 83 -22s47 -19 63 -33c8 -7.33301 14 -15.833 18 -25.5s6 -20.834 6 -33.501v-6c0 -28 -10.333 -52.167 -31 -72.5s-53.334 -30.5 -98.001 -30.5c-51.333 0 -88.666 11.5 -111.999 34.5s-35.666 57.5 -36.999 103.5v18h-132v-18
c1.33301 -52.667 11.333 -97.334 30 -134.001s48 -64.667 88 -84c20.667 -10 44.5 -17.333 71.5 -22s57.167 -7 90.5 -7zM324.997 803.003l139 198h-106l-78 -111l-76 111h-108l140 -198h89z" />
    <glyph glyph-name="scaron" unicode="&#x161;" horiz-adv-x="543" 
d="M279 -14c79.333 0 138.5 17.3311 177.5 51.998s58.5 79.334 58.5 134.001v4c0 31.333 -6 56.666 -18 75.999s-28 35 -48 47c-20 11.333 -42 20.166 -66 26.499s-48 11.5 -72 15.5c-26 4.66699 -50.167 9.5 -72.5 14.5s-40.5 12.167 -54.5 21.5
c-7.33301 4.66699 -12.666 10.334 -15.999 17.001s-5 14.334 -5 23.001v2c0 20 7.5 36.5 22.5 49.5s41.167 19.5 78.5 19.5c36 0 63.167 -6.33301 81.5 -19s29.166 -32.667 32.499 -60v-9h126v9c-6.66699 55.333 -28.834 99 -66.501 131s-95.167 48 -172.5 48
c-74 0 -129.667 -16.5 -167 -49.5s-56 -75.167 -56 -126.5v-3c0 -30.667 6 -55.667 18 -75s27.667 -34.666 47 -45.999s41 -20.166 65 -26.499s48 -11.833 72 -16.5c26 -4.66699 50.333 -9.5 73 -14.5s40.667 -12.167 54 -21.5
c7.33301 -4.66699 12.666 -10.334 15.999 -17.001s5 -14.667 5 -24v-3c0 -22.667 -8.5 -40.667 -25.5 -54s-45.167 -20 -84.5 -20c-38.667 0 -68.667 7.16699 -90 21.5s-34.666 37.833 -39.999 70.5v11h-133v-12c7.33301 -64 31.833 -112.667 73.5 -146
s103.834 -50 186.501 -50zM308 665.998l139 198h-106l-78 -111l-76 111h-108l140 -198h89z" />
    <glyph glyph-name="uni0162" unicode="&#x162;" horiz-adv-x="548" 
d="M523 603v110h-497v-110h182v-603h126v603h189zM216 -321c45.333 6 78.833 24.668 100.5 56.001s32.5 69.666 32.5 114.999c0 34.667 -5.5 59.167 -16.5 73.5s-29.833 21.5 -56.5 21.5c-25.333 0 -43.833 -5.16699 -55.5 -15.5s-17.5 -28.5 -17.5 -54.5
c0 -27.333 4.83301 -45 14.5 -53s25.167 -12 46.5 -12h5c2 0 3.66699 0.333008 5 1c-2 -19.333 -7.5 -35 -16.5 -47s-22.833 -19.333 -41.5 -22v-63z" />
    <glyph glyph-name="uni0163" unicode="&#x163;" horiz-adv-x="396" 
d="M369 116h-37.9971c-30 0 -52.5 2.83301 -67.5 8.5s-24.833 17.167 -29.5 34.5c-2.66699 8.66699 -4.66699 19.667 -6 33s-2 29 -2 47v226h143v110h-143v147h-103c-0.666992 -10 -1.16699 -22 -1.5 -36s-1.16602 -27.333 -2.49902 -40
c-2.66699 -30 -7.83398 -49.667 -15.501 -59s-23.167 -14.333 -46.5 -15c-10.667 -0.666992 -19.334 -1.16699 -26.001 -1.5s-14.667 -0.5 -24 -0.5v-105h104v-246c0 -55.333 5.16699 -99 15.5 -131s29.166 -54.667 56.499 -68c14 -6.66699 30.667 -11.667 50 -15
s41.666 -5 66.999 -5h69v116zM181.003 -323c45.333 6 78.833 24.668 100.5 56.001s32.5 69.666 32.5 114.999c0 34.667 -5.5 59.167 -16.5 73.5s-29.833 21.5 -56.5 21.5c-25.333 0 -43.833 -5.16699 -55.5 -15.5s-17.5 -28.5 -17.5 -54.5c0 -27.333 4.83301 -45 14.5 -53
s25.167 -12 46.5 -12h5c2 0 3.66699 0.333008 5 1c-2 -19.333 -7.5 -35 -16.5 -47s-22.833 -19.333 -41.5 -22v-63z" />
    <glyph glyph-name="Tcaron" unicode="&#x164;" horiz-adv-x="548" 
d="M523 603v110h-497v-110h182v-603h126v603h189zM314 791l139 198h-106l-78 -111l-76 111h-108l140 -198h89z" />
    <glyph glyph-name="tcaron" unicode="&#x165;" horiz-adv-x="395" 
d="M369 116h-37.9971c-30 0 -52.5 2.83301 -67.5 8.5s-24.833 17.167 -29.5 34.5c-2.66699 8.66699 -4.66699 19.667 -6 33s-2 29 -2 47v226h143v110h-143v147h-103c-0.666992 -10 -1.16699 -22 -1.5 -36s-1.16602 -27.333 -2.49902 -40
c-2.66699 -30 -7.83398 -49.667 -15.501 -59s-23.167 -14.333 -46.5 -15c-10.667 -0.666992 -19.334 -1.16699 -26.001 -1.5s-14.667 -0.5 -24 -0.5v-105h104v-246c0 -55.333 5.16699 -99 15.5 -131s29.166 -54.667 56.499 -68c14 -6.66699 30.667 -11.667 50 -15
s41.666 -5 66.999 -5h69v116zM325.003 671h81l64 183h-107z" />
    <glyph glyph-name="Tbar" unicode="&#x166;" horiz-adv-x="548" 
d="M441 308v103h-107v192h189v110h-497v-110h182v-192h-107v-103h107v-308h126v308h107z" />
    <glyph glyph-name="tbar" unicode="&#x167;" horiz-adv-x="395" 
d="M369 116h-37.9971c-30 0 -52.5 2.83301 -67.5 8.5s-24.833 17.167 -29.5 34.5c-2.66699 8.66699 -4.66699 19.667 -6 33s-2 29 -2 47v6h84v98h-84v122h143v110h-143v147h-103c-0.666992 -10 -1.16699 -22 -1.5 -36s-1.16602 -27.333 -2.49902 -40
c-2.66699 -30 -7.83398 -49.667 -15.501 -59s-23.167 -14.333 -46.5 -15c-10.667 -0.666992 -19.334 -1.16699 -26.001 -1.5s-14.667 -0.5 -24 -0.5v-105h104v-122h-75v-98h75v-26c0 -55.333 5.16699 -99 15.5 -131s29.166 -54.667 56.499 -68
c14 -6.66699 30.667 -11.667 50 -15s41.666 -5 66.999 -5h69v116z" />
    <glyph glyph-name="Utilde" unicode="&#x168;" horiz-adv-x="641" 
d="M321 -14c84.667 0 149.166 24.333 193.499 73s66.5 125 66.5 229v425h-129v-420c0 -66 -10 -113.667 -30 -143s-53.333 -44 -100 -44s-80.667 14.833 -102 44.5s-32 77.167 -32 142.5v420h-128v-425c0 -104 21.333 -180.333 64 -229s108.334 -73 197.001 -73z
M120.999 784l83.001 -0.00195312c0.666992 21.333 3.83398 36.833 9.50098 46.5s14.834 14.5 27.501 14.5c12 0 23.5 -3.33301 34.5 -10s22.5 -14.334 34.5 -23.001s25.5 -16.334 40.5 -23.001s32.5 -10 52.5 -10c47.333 0 79.5 13.833 96.5 41.5s25.5 64.834 25.5 111.501
h-83c-0.666992 -22.667 -3.83398 -38.5 -9.50098 -47.5s-15.834 -13.5 -30.501 -13.5c-11.333 0 -22.666 3.33301 -33.999 10s-23 14.334 -35 23.001c-12.667 8.66699 -26.334 16.334 -41.001 23.001s-31.667 10 -51 10c-44.667 0 -75.834 -14.167 -93.501 -42.5
s-26.5 -65.166 -26.5 -110.499z" />
    <glyph glyph-name="utilde" unicode="&#x169;" horiz-adv-x="598" 
d="M433 0l103 -0.000976562v575h-124v-314c0 -48.667 -10.167 -88.167 -30.5 -118.5s-50.833 -45.5 -91.5 -45.5s-69 13.333 -85 40s-24 61.334 -24 104.001v334h-123v-366c0 -68.667 15.5 -122.5 46.5 -161.5s78.833 -58.5 143.5 -58.5c44 0 80.5 10.5 109.5 31.5
s50.167 49.5 63.5 85.5zM94 643.999l83.001 -0.00195312c0.666992 21.333 3.83398 36.833 9.50098 46.5s14.834 14.5 27.501 14.5c12 0 23.5 -3.33301 34.5 -10s22.5 -14.334 34.5 -23.001s25.5 -16.334 40.5 -23.001s32.5 -10 52.5 -10c47.333 0 79.5 13.833 96.5 41.5
s25.5 64.834 25.5 111.501h-83c-0.666992 -22.667 -3.83398 -38.5 -9.50098 -47.5s-15.834 -13.5 -30.501 -13.5c-11.333 0 -22.666 3.33301 -33.999 10s-23 14.334 -35 23.001c-12.667 8.66699 -26.334 16.334 -41.001 23.001s-31.667 10 -51 10
c-44.667 0 -75.834 -14.167 -93.501 -42.5s-26.5 -65.166 -26.5 -110.499z" />
    <glyph glyph-name="Umacron" unicode="&#x16a;" horiz-adv-x="641" 
d="M321 -14c84.667 0 149.166 24.333 193.499 73s66.5 125 66.5 229v425h-129v-420c0 -66 -10 -113.667 -30 -143s-53.333 -44 -100 -44s-80.667 14.833 -102 44.5s-32 77.167 -32 142.5v420h-128v-425c0 -104 21.333 -180.333 64 -229s108.334 -73 197.001 -73z
M170.999 785h310v92h-310v-92z" />
    <glyph glyph-name="umacron" unicode="&#x16b;" horiz-adv-x="598" 
d="M433 0l103 -0.000976562v575h-124v-314c0 -48.667 -10.167 -88.167 -30.5 -118.5s-50.833 -45.5 -91.5 -45.5s-69 13.333 -85 40s-24 61.334 -24 104.001v334h-123v-366c0 -68.667 15.5 -122.5 46.5 -161.5s78.833 -58.5 143.5 -58.5c44 0 80.5 10.5 109.5 31.5
s50.167 49.5 63.5 85.5zM142 643.999h310v92h-310v-92z" />
    <glyph glyph-name="Ubreve" unicode="&#x16c;" horiz-adv-x="641" 
d="M321 -14c84.667 0 149.166 24.333 193.499 73s66.5 125 66.5 229v425h-129v-420c0 -66 -10 -113.667 -30 -143s-53.333 -44 -100 -44s-80.667 14.833 -102 44.5s-32 77.167 -32 142.5v420h-128v-425c0 -104 21.333 -180.333 64 -229s108.334 -73 197.001 -73z
M321.999 782c68 0 117.002 18.332 147.002 54.999s45 86.334 45 149.001h-92c0 -39.333 -7.83301 -68.833 -23.5 -88.5s-40.834 -29.834 -75.501 -30.501c-35.333 0.666992 -60.833 10.834 -76.5 30.501s-23.5 49.167 -23.5 88.5h-90c0 -42 5.5 -78.333 16.5 -109
s30.167 -54 57.5 -70c13.333 -8.66699 29.666 -15 48.999 -19s41.333 -6 66 -6z" />
    <glyph glyph-name="ubreve" unicode="&#x16d;" horiz-adv-x="598" 
d="M433 0l103 -0.000976562v575h-124v-314c0 -48.667 -10.167 -88.167 -30.5 -118.5s-50.833 -45.5 -91.5 -45.5s-69 13.333 -85 40s-24 61.334 -24 104.001v334h-123v-366c0 -68.667 15.5 -122.5 46.5 -161.5s78.833 -58.5 143.5 -58.5c44 0 80.5 10.5 109.5 31.5
s50.167 49.5 63.5 85.5zM295 640.999c68 0 117.002 18.332 147.002 54.999s45 86.334 45 149.001h-92c0 -39.333 -7.83301 -68.833 -23.5 -88.5s-40.834 -29.834 -75.501 -30.501c-35.333 0.666992 -60.833 10.834 -76.5 30.501s-23.5 49.167 -23.5 88.5h-90
c0 -42 5.5 -78.333 16.5 -109s30.167 -54 57.5 -70c13.333 -8.66699 29.666 -15 48.999 -19s41.333 -6 66 -6z" />
    <glyph glyph-name="Uring" unicode="&#x16e;" horiz-adv-x="641" 
d="M321 -14c84.667 0 149.166 24.333 193.499 73s66.5 125 66.5 229v425h-129v-420c0 -66 -10 -113.667 -30 -143s-53.333 -44 -100 -44s-80.667 14.833 -102 44.5s-32 77.167 -32 142.5v420h-128v-425c0 -104 21.333 -180.333 64 -229s108.334 -73 197.001 -73z
M320.999 778c42 0 75.334 12 100.001 36s37 56.333 37 97c0 43.333 -12.333 76.666 -37 99.999s-58 35 -100 35c-40.667 0 -73.334 -12.167 -98.001 -36.5s-37 -57.166 -37 -98.499c0 -42.667 12 -75.5 36 -98.5s57 -34.5 99 -34.5zM321 860
c-17.333 0 -30.333 4.33301 -39 13s-13 21.334 -13 38.001c0 17.333 4.83301 30.666 14.5 39.999s22.167 14 37.5 14c16 0 28.833 -4.66699 38.5 -14s14.5 -22.666 14.5 -39.999c0 -16.667 -5.83301 -29.334 -17.5 -38.001s-23.5 -13 -35.5 -13z" />
    <glyph glyph-name="uring" unicode="&#x16f;" horiz-adv-x="598" 
d="M433 0l103 -0.000976562v575h-124v-314c0 -48.667 -10.167 -88.167 -30.5 -118.5s-50.833 -45.5 -91.5 -45.5s-69 13.333 -85 40s-24 61.334 -24 104.001v334h-123v-366c0 -68.667 15.5 -122.5 46.5 -161.5s78.833 -58.5 143.5 -58.5c44 0 80.5 10.5 109.5 31.5
s50.167 49.5 63.5 85.5zM293 641.999c42 0 75.334 12 100.001 36s37 56.333 37 97c0 43.333 -12.333 76.666 -37 99.999s-58 35 -100 35c-40.667 0 -73.334 -12.167 -98.001 -36.5s-37 -57.166 -37 -98.499c0 -42.667 12 -75.5 36 -98.5s57 -34.5 99 -34.5zM293.001 723.999
c-17.333 0 -30.333 4.33301 -39 13s-13 21.334 -13 38.001c0 17.333 4.83301 30.666 14.5 39.999s22.167 14 37.5 14c16 0 28.833 -4.66699 38.5 -14s14.5 -22.666 14.5 -39.999c0 -16.667 -5.83301 -29.334 -17.5 -38.001s-23.5 -13 -35.5 -13z" />
    <glyph glyph-name="Uhungarumlaut" unicode="&#x170;" horiz-adv-x="641" 
d="M321 -14c84.667 0 149.166 24.333 193.499 73s66.5 125 66.5 229v425h-129v-420c0 -66 -10 -113.667 -30 -143s-53.333 -44 -100 -44s-80.667 14.833 -102 44.5s-32 77.167 -32 142.5v420h-128v-425c0 -104 21.333 -180.333 64 -229s108.334 -73 197.001 -73z
M450.999 982h-127l-134 -198h89zM632.999 982h-127l-134 -198h89z" />
    <glyph glyph-name="uhungarumlaut" unicode="&#x171;" horiz-adv-x="598" 
d="M433 0l103 -0.000976562v575h-124v-314c0 -48.667 -10.167 -88.167 -30.5 -118.5s-50.833 -45.5 -91.5 -45.5s-69 13.333 -85 40s-24 61.334 -24 104.001v334h-123v-366c0 -68.667 15.5 -122.5 46.5 -161.5s78.833 -58.5 143.5 -58.5c44 0 80.5 10.5 109.5 31.5
s50.167 49.5 63.5 85.5zM422 840.999h-127l-134 -198h89zM604 840.999h-127l-134 -198h89z" />
    <glyph glyph-name="Uogonek" unicode="&#x172;" horiz-adv-x="641" 
d="M369 -230c44.667 0 81.6689 10.0039 111.002 30.0039s51.333 50 66 90h-110c-4.66699 -12 -12.167 -22 -22.5 -30s-22.833 -12 -37.5 -12c-16.667 0 -29.834 3.66699 -39.501 11s-14.5 17.666 -14.5 30.999c0 11.333 3.33301 22.166 10 32.499s18.667 22.166 36 35.499
l31 21.5l41 27.5c46 18.667 81 51.167 105 97.5s36 107.5 36 183.5v425h-129v-420c0 -66 -10 -113.667 -30 -143s-53.333 -44 -100 -44s-80.667 14.833 -102 44.5s-32 77.167 -32 142.5v420h-128v-425c0 -94.667 17.667 -166.334 53 -215.001s89.333 -77 162 -85
c-20.667 -18.667 -34.334 -36.834 -41.001 -54.501s-10 -35.167 -10 -52.5c0 -37.333 13 -65.166 39 -83.499s61.333 -27.5 106 -27.5z" />
    <glyph glyph-name="uogonek" unicode="&#x173;" horiz-adv-x="598" 
d="M637 -120h-110.001c-4.66699 -12 -12.167 -22 -22.5 -30s-22.833 -12 -37.5 -12c-16.667 0 -29.834 3.66699 -39.501 11s-14.5 17.666 -14.5 30.999c0 12 3.5 23.167 10.5 33.5s19.5 22.166 37.5 35.499c8.66699 6.66699 19.334 14.167 32.001 22.5l43 28.5v575h-124
v-314c0 -48.667 -10.167 -88.167 -30.5 -118.5s-50.833 -45.5 -91.5 -45.5s-69 13.333 -85 40s-24 61.334 -24 104.001v334h-123v-366c0 -68.667 15.5 -122.5 46.5 -161.5s78.833 -58.5 143.5 -58.5c44 0 80.5 10.5 109.5 31.5s50.167 49.5 63.5 85.5l9 -82
c-31.333 -18 -55.333 -35.667 -72 -53s-28 -34.333 -34 -51c-3.33301 -8 -5.66602 -16.167 -6.99902 -24.5s-2 -16.5 -2 -24.5c0 -37.333 13 -65.166 39 -83.499s61.333 -27.5 106 -27.5s81.667 10 111 30s51.333 50 66 90z" />
    <glyph glyph-name="Wcircumflex" unicode="&#x174;" horiz-adv-x="925" 
d="M610 0h117l179 713h-122l-125 -518l-157 518h-93l-158 -506l-110 506h-123l162 -713h115l160 502zM534 791h108l-141 198h-88l-140 -198h108l77 113z" />
    <glyph glyph-name="wcircumflex" unicode="&#x175;" horiz-adv-x="822" 
d="M534 0h111l169 575h-120l-114 -408l-132 408h-80l-142 -409l-96 409h-122l145 -575h114l139 384zM484 653h108l-141 198h-88l-140 -198h108l77 113z" />
    <glyph glyph-name="Ycircumflex" unicode="&#x176;" horiz-adv-x="594" 
d="M356 0v278l232 435h-135l-159 -310l-152 310h-135l221 -435v-278h128zM371 783h108l-141 198h-88l-140 -198h108l77 113z" />
    <glyph glyph-name="ycircumflex" unicode="&#x177;" horiz-adv-x="562" 
d="M94 -206c36 0 65.833 2 89.5 6s43.5 12 59.5 24s30.667 29.333 44 52s27.333 53 42 91l234 608h-129l-140 -390l-9 -34l-5 34l-144 390h-131l222 -561l-10 -27c-10 -23.333 -19.833 -41 -29.5 -53s-21.5 -20.333 -35.5 -25c-7.33301 -2 -15.833 -3.5 -25.5 -4.5
s-20.5 -1.5 -32.5 -1.5h-63v-109h63zM360 646h108l-141 198h-88l-140 -198h108l77 113z" />
    <glyph glyph-name="Ydieresis" unicode="&#x178;" horiz-adv-x="594" 
d="M356 0v278l232 435h-135l-159 -310l-152 310h-135l221 -435v-278h128zM393 780c24 0 41.999 5.66699 53.999 17s18 30 18 56s-6.16699 44.333 -18.5 55s-30.166 16 -53.499 16c-24 0 -41.833 -5.33301 -53.5 -16s-17.5 -29 -17.5 -55c0 -27.333 5.33301 -46.333 16 -57
s29 -16 55 -16zM197.999 780c24.667 0 42.833 5.66699 54.5 17s17.5 30 17.5 56s-6 44.333 -18 55s-30 16 -54 16c-23.333 0 -41 -5.33301 -53 -16s-18 -29 -18 -55c0 -27.333 5.5 -46.333 16.5 -57s29.167 -16 54.5 -16z" />
    <glyph glyph-name="Zacute" unicode="&#x179;" horiz-adv-x="576" 
d="M540 0v117h-348l346 484v112h-481v-112h336l-359 -497v-104h506zM248 791h96l174 198h-134z" />
    <glyph glyph-name="zacute" unicode="&#x17a;" horiz-adv-x="525" 
d="M498 0v106h-314l312 371v98h-448v-104h301l-321 -377v-94h470zM223 653h96l174 198h-134z" />
    <glyph glyph-name="Zdotaccent" unicode="&#x17b;" horiz-adv-x="576" 
d="M540 0v117h-348l346 484v112h-481v-112h336l-359 -497v-104h506zM295 788c26.667 0 46.5 6.16699 59.5 18.5s19.5 32.833 19.5 61.5c0 29.333 -6.66699 50 -20 62s-33 18 -59 18c-26.667 0 -46.667 -6 -60 -18s-20 -32.667 -20 -62c0 -30 6.16699 -50.833 18.5 -62.5
s32.833 -17.5 61.5 -17.5z" />
    <glyph glyph-name="zdotaccent" unicode="&#x17c;" horiz-adv-x="525" 
d="M498 0v106h-314l312 371v98h-448v-104h301l-321 -377v-94h470zM271 650c26.667 0 46.5 6.16699 59.5 18.5s19.5 32.833 19.5 61.5c0 29.333 -6.66699 50 -20 62s-33 18 -59 18c-26.667 0 -46.667 -6 -60 -18s-20 -32.667 -20 -62c0 -30 6.16699 -50.833 18.5 -62.5
s32.833 -17.5 61.5 -17.5z" />
    <glyph glyph-name="Zcaron" unicode="&#x17d;" horiz-adv-x="576" 
d="M540 0v117h-348l346 484v112h-481v-112h336l-359 -497v-104h506zM338 791l139 198h-106l-78 -111l-76 111h-108l140 -198h89z" />
    <glyph glyph-name="zcaron" unicode="&#x17e;" horiz-adv-x="525" 
d="M498 0v106h-314l312 371v98h-448v-104h301l-321 -377v-94h470zM313 653l139 198h-106l-78 -111l-76 111h-108l140 -198h89z" />
    <glyph glyph-name="uni0192" unicode="&#x192;" horiz-adv-x="387" 
d="M250 41l-0.000976562 277h127v108h-126v196c0 30 1.83301 52.5 5.5 67.5s11.5 24.833 23.5 29.5c5.33301 2.66699 12.5 4.66699 21.5 6s19.167 2 30.5 2h46v103h-63c-64.667 0 -111.5 -14.667 -140.5 -44s-43.5 -79 -43.5 -149v-211h-122v-108h122v-261
c0 -28.667 -2.16699 -50 -6.5 -64s-12.5 -23 -24.5 -27c-6 -2 -13.5 -3.5 -22.5 -4.5s-19.5 -1.5 -31.5 -1.5h-55v-116h68c52.667 0 92.667 5.5 120 16.5s46 30.833 56 59.5c4.66699 14 8.33398 31.167 11.001 51.5s4 43.5 4 69.5z" />
    <glyph glyph-name="Aringacute" unicode="&#x1fa;" horiz-adv-x="634" 
d="M269 960h96l174 198h-134zM317 713c-17.333 0 -30.333 4.33301 -39 13s-13 21.334 -13 38.001c0 17.333 4.83301 30.666 14.5 39.999s22.167 14 37.5 14c16 0 28.833 -4.66699 38.5 -14s14.5 -22.666 14.5 -39.999c0 -16.667 -5.83301 -29.334 -17.5 -38.001
s-23.5 -13 -35.5 -13zM307 546l8 49l7 -49l93 -285h-197zM185 155l264.001 -0.000976562l51 -155h125l-226 653c18.667 11.333 32.5 26.333 41.5 45s13.5 40.667 13.5 66c0 43.333 -12.333 76.666 -37 99.999s-58 35 -100 35c-40.667 0 -73.334 -12.167 -98.001 -36.5
s-37 -57.166 -37 -98.499c0 -24.667 4.16699 -46.167 12.5 -64.5s20.5 -33.166 36.5 -44.499l-221 -655h126z" />
    <glyph glyph-name="aringacute" unicode="&#x1fb;" horiz-adv-x="601" 
d="M256 83c-28.667 0 -50.333 5.99902 -65 17.999s-22 30 -22 54v2c0 13.333 2.66699 25.166 8 35.499s13 19.5 23 27.5c12 8.66699 26.333 15.667 43 21s41.334 11 74.001 17c25.333 5.33301 47 10.833 65 16.5s32.333 12.834 43 21.501v-47
c0 -27.333 -7 -53.666 -21 -78.999s-33.667 -46.333 -59 -63c-12.667 -8 -26.334 -14 -41.001 -18s-30.667 -6 -48 -6zM443.001 -0.000976562l100.002 -0.000976562v394c0 59.333 -18 106.5 -54 141.5s-97.333 52.5 -184 52.5c-77.333 0 -137.833 -18.833 -181.5 -56.5
s-67.167 -87.167 -70.5 -148.5v-13h126v12c1.33301 34.667 12.666 61.5 33.999 80.5s53.666 28.5 96.999 28.5c41.333 0 70.666 -7 87.999 -21s26 -33.333 26 -58v-1c0 -22.667 -10.167 -39 -30.5 -49s-55.166 -19.333 -104.499 -28c-33.333 -6 -60.833 -11.333 -82.5 -16
s-40.167 -10 -55.5 -16c-8 -2.66699 -15.833 -6 -23.5 -10s-15.167 -8.66699 -22.5 -14c-22 -14.667 -39.167 -33.167 -51.5 -55.5s-18.5 -49.166 -18.5 -80.499v-4c0 -46.667 15 -83.5 45 -110.5s74.333 -40.5 133 -40.5c54 0 99 11.5 135 34.5s63 52.167 81 87.5z
M309.003 649.998c42 0 75.334 12 100.001 36s37 56.333 37 97c0 43.333 -12.333 76.666 -37 99.999s-58 35 -100 35c-40.667 0 -73.334 -12.167 -98.001 -36.5s-37 -57.166 -37 -98.499c0 -42.667 12 -75.5 36 -98.5s57 -34.5 99 -34.5zM309.004 731.998
c-17.333 0 -30.333 4.33301 -39 13s-13 21.334 -13 38.001c0 17.333 4.83301 30.666 14.5 39.999s22.167 14 37.5 14c16 0 28.833 -4.66699 38.5 -14s14.5 -22.666 14.5 -39.999c0 -16.667 -5.83301 -29.334 -17.5 -38.001s-23.5 -13 -35.5 -13zM260.004 968.998h96l174 198
h-134z" />
    <glyph glyph-name="AEacute" unicode="&#x1fc;" horiz-adv-x="950" 
d="M388 543l15 49v-49l45 -283h-197zM489 0h428v111h-329l-31 195h294v109h-312l-30 191h392v107h-549l-359 -713h133l75 155h263zM378 791h96l174 198h-134z" />
    <glyph glyph-name="aeacute" unicode="&#x1fd;" horiz-adv-x="996" 
d="M699 488c45.333 0 79.5 -13.167 102.5 -39.5s35.5 -62.5 37.5 -108.5h-291c4 47.333 19 83.833 45 109.5s61.333 38.5 106 38.5zM256 83c-29.333 0 -51.332 5.99707 -65.999 17.9971s-22 30 -22 54v2c0 14 2.33301 25.833 7 35.5s12.667 18.834 24 27.501
c12 8.66699 26.5 15.167 43.5 19.5s41.833 9.5 74.5 15.5c25.333 5.33301 47 10.833 65 16.5s32.333 12.834 43 21.501v-44c0 -27.333 -7 -53.666 -21 -78.999s-33.667 -46.333 -59 -63c-12.667 -8 -26.334 -14 -41.001 -18s-30.667 -6 -48 -6zM954.001 170.997
l0.00292969 3.00293h-132v-4c-8 -24.667 -22 -44.334 -42 -59.001s-47.333 -22 -82 -22c-46.667 0 -82.834 13.333 -108.501 40s-39.834 64.334 -42.501 113.001h413v76c0 46.667 -9 90.5 -27 131.5s-46 74.5 -84 100.5c-19.333 12.667 -41.5 22.167 -66.5 28.5
s-52.833 9.5 -83.5 9.5c-44.667 0 -83.834 -7.5 -117.501 -22.5s-61.834 -36.167 -84.501 -63.5c-14.667 27.333 -37.5 48.5 -68.5 63.5s-72.167 22.5 -123.5 22.5c-80.667 0 -142 -18.833 -184 -56.5s-64.667 -87.167 -68 -148.5v-13h124v12
c1.33301 31.333 13 57.666 35 78.999s53.333 32 94 32c39.333 0 68.833 -7.83301 88.5 -23.5s29.5 -36.834 29.5 -63.501v-2c0 -22 -11.167 -37 -33.5 -45s-56.166 -16.333 -101.499 -25c-33.333 -6 -61 -11.333 -83 -16s-40.667 -10 -56 -16
c-7.33301 -2.66699 -14.833 -6 -22.5 -10s-15.167 -8.66699 -22.5 -14c-22.667 -14.667 -40 -32.834 -52 -54.501s-18 -48.167 -18 -79.5v-4c0 -46.667 15.667 -84 47 -112s78.666 -42 141.999 -42c56 0 103.833 12.333 143.5 37s68.5 57 86.5 97
c18.667 -42.667 47.834 -75.667 87.501 -99s90.5 -35 152.5 -35c74 0 132.333 16.667 175 50s71 78.333 85 135zM451.004 627h96l174 198h-134z" />
    <glyph glyph-name="Oslashacute" unicode="&#x1fe;" horiz-adv-x="664" 
d="M173 306v94c0 67.333 13 119.833 39 157.5s65.667 56.5 119 56.5c11.333 0 22 -0.833008 32 -2.5s19.333 -4.16699 28 -7.5l-182 -448c-12 17.333 -21 38.5 -27 63.5s-9 53.833 -9 86.5zM331 99c-8.66699 0 -16.833 0.499023 -24.5 1.49902s-15.167 2.5 -22.5 4.5
l177 438c10 -18 17.5 -39 22.5 -63s7.5 -51 7.5 -81v-93c0 -67.333 -13.333 -118.666 -40 -153.999s-66.667 -53 -120 -53zM331.001 -14.001c88 0 158.001 25.8311 210.001 77.498s78 130.834 78 237.501v104c0 60 -9 112 -27 156s-43.333 79.333 -76 106l54 126h-98
l-36 -83c-15.333 5.33301 -31.833 9.33301 -49.5 12s-36.167 4 -55.5 4c-58 0 -108.333 -12.5 -151 -37.5s-76 -61.167 -100 -108.5c-11.333 -24 -20 -50.5 -26 -79.5s-9 -60.833 -9 -95.5v-104c0 -65.333 9.66699 -120.166 29 -164.499s46.666 -78.833 81.999 -103.5
l-55 -123h100l37 87c14.667 -3.33301 29.667 -6 45 -8s31.333 -3 48 -3zM283.002 808.997h96l174 198h-134z" />
    <glyph glyph-name="oslashacute" unicode="&#x1ff;" 
d="M164 261v47.999c0 56.667 13.333 99.667 40 129s61.667 44 105 44c5.33301 0 10.5 -0.166992 15.5 -0.5s9.83301 -1.16602 14.5 -2.49902l-140 -337c-11.333 14.667 -20 32 -26 52s-9 42.333 -9 67zM308 94.999c-5.33301 0 -10.668 0.333008 -16.001 1l-16 2l140 335
c12 -15.333 21 -33.333 27 -54s9 -44 9 -70v-48c0 -53.333 -12.667 -94.333 -38 -123s-60.666 -43 -105.999 -43zM307.998 -14.001c54 0 101.165 10.499 141.498 31.499s71.5 51.833 93.5 92.5c11.333 20.667 19.833 43.334 25.5 68.001s8.5 51.667 8.5 81v50
c0 56 -10.167 104 -30.5 144s-48.166 71.333 -83.499 94l49 113h-97l-34 -80c-11.333 2.66699 -23 4.66699 -35 6s-24.667 2 -38 2c-52 0 -98.333 -10.667 -139 -32s-72.667 -52.666 -96 -93.999c-11.333 -20.667 -20 -43.834 -26 -69.501s-9 -53.5 -9 -83.5v-50
c0 -56 9.33301 -103.5 28 -142.5s46.334 -69.833 83.001 -92.5l-48 -114h97l35 83c11.333 -2.66699 23.333 -4.5 36 -5.5s25.667 -1.5 39 -1.5zM259.996 671.998h96l174 198h-134z" />
    <glyph glyph-name="uni0218" unicode="&#x218;" horiz-adv-x="582" 
d="M300 -14c55.333 0 101.83 9.66992 139.497 29.0029s66.167 45 85.5 77c9.33301 16.667 16.333 34 21 52s7 36.667 7 56v8c0 37.333 -6.33301 68 -19 92s-29.667 43 -51 57c-21.333 14.667 -45 26.334 -71 35.001s-52.667 16.334 -80 23.001l-81 23
c-25.333 7.33301 -45.666 17.666 -60.999 30.999c-7.33301 6.66699 -13 14.667 -17 24s-6 20 -6 32v3c0 25.333 8.66699 47.166 26 65.499s46.333 27.5 87 27.5c45.333 0 78 -9.5 98 -28.5s31.333 -47.5 34 -85.5v-15h127v16c-2 66.667 -23.333 119.5 -64 158.5
s-105 58.5 -193 58.5c-54.667 0 -99.667 -9.16699 -135 -27.5s-61.666 -42.5 -78.999 -72.5c-8.66699 -14.667 -15.167 -30.167 -19.5 -46.5s-6.5 -33.5 -6.5 -51.5v-5c0 -36.667 6.33301 -66.834 19 -90.501s29.667 -42.5 51 -56.5c20.667 -14.667 44 -26.167 70 -34.5
s52 -15.833 78 -22.5c29.333 -6.66699 57 -14 83 -22s47 -19 63 -33c8 -7.33301 14 -15.833 18 -25.5s6 -20.834 6 -33.501v-6c0 -28 -10.333 -52.167 -31 -72.5s-53.334 -30.5 -98.001 -30.5c-51.333 0 -88.666 11.5 -111.999 34.5s-35.666 57.5 -36.999 103.5v18h-132v-18
c1.33301 -52.667 11.333 -97.334 30 -134.001s48 -64.667 88 -84c20.667 -10 44.5 -17.333 71.5 -22s57.167 -7 90.5 -7zM239.997 -334.997c45.333 6 78.833 24.668 100.5 56.001s32.5 69.666 32.5 114.999c0 34.667 -5.5 59.167 -16.5 73.5s-29.833 21.5 -56.5 21.5
c-25.333 0 -43.833 -5.16699 -55.5 -15.5s-17.5 -28.5 -17.5 -54.5c0 -27.333 4.83301 -45 14.5 -53s25.167 -12 46.5 -12h5c2 0 3.66699 0.333008 5 1c-2 -19.333 -7.5 -35 -16.5 -47s-22.833 -19.333 -41.5 -22v-63z" />
    <glyph glyph-name="uni0219" unicode="&#x219;" horiz-adv-x="543" 
d="M279 -14c79.333 0 138.5 17.3311 177.5 51.998s58.5 79.334 58.5 134.001v4c0 31.333 -6 56.666 -18 75.999s-28 35 -48 47c-20 11.333 -42 20.166 -66 26.499s-48 11.5 -72 15.5c-26 4.66699 -50.167 9.5 -72.5 14.5s-40.5 12.167 -54.5 21.5
c-7.33301 4.66699 -12.666 10.334 -15.999 17.001s-5 14.334 -5 23.001v2c0 20 7.5 36.5 22.5 49.5s41.167 19.5 78.5 19.5c36 0 63.167 -6.33301 81.5 -19s29.166 -32.667 32.499 -60v-9h126v9c-6.66699 55.333 -28.834 99 -66.501 131s-95.167 48 -172.5 48
c-74 0 -129.667 -16.5 -167 -49.5s-56 -75.167 -56 -126.5v-3c0 -30.667 6 -55.667 18 -75s27.667 -34.666 47 -45.999s41 -20.166 65 -26.499s48 -11.833 72 -16.5c26 -4.66699 50.333 -9.5 73 -14.5s40.667 -12.167 54 -21.5
c7.33301 -4.66699 12.666 -10.334 15.999 -17.001s5 -14.667 5 -24v-3c0 -22.667 -8.5 -40.667 -25.5 -54s-45.167 -20 -84.5 -20c-38.667 0 -68.667 7.16699 -90 21.5s-34.666 37.833 -39.999 70.5v11h-133v-12c7.33301 -64 31.833 -112.667 73.5 -146
s103.834 -50 186.501 -50zM221 -336.002c45.333 6 78.833 24.668 100.5 56.001s32.5 69.666 32.5 114.999c0 34.667 -5.5 59.167 -16.5 73.5s-29.833 21.5 -56.5 21.5c-25.333 0 -43.833 -5.16699 -55.5 -15.5s-17.5 -28.5 -17.5 -54.5c0 -27.333 4.83301 -45 14.5 -53
s25.167 -12 46.5 -12h5c2 0 3.66699 0.333008 5 1c-2 -19.333 -7.5 -35 -16.5 -47s-22.833 -19.333 -41.5 -22v-63z" />
    <glyph glyph-name="uni0237" unicode="&#x237;" horiz-adv-x="249" 
d="M-48 -226h40.9971c52.667 0 92.834 5.5 120.501 16.5s46.834 30.5 57.501 58.5c4.66699 14.667 8.33398 32 11.001 52s4 43.333 4 70v604h-121v-589c0 -29.333 -2 -50.833 -6 -64.5s-12 -22.5 -24 -26.5c-6 -2 -13.5 -3.5 -22.5 -4.5s-19.5 -1.5 -31.5 -1.5h-29v-115z
" />
    <glyph glyph-name="uni0245" unicode="&#x245;" horiz-adv-x="634" 
d="M308 546l7 47l6 -47l178 -546h126l-247 713h-127l-241 -713h127z" />
    <glyph glyph-name="circumflex" unicode="&#x2c6;" horiz-adv-x="549" 
d="M351 653h108l-141 198h-88l-140 -198h108l77 113z" />
    <glyph glyph-name="caron" unicode="&#x2c7;" horiz-adv-x="549" 
d="M318 653l139 198h-106l-78 -111l-76 111h-108l140 -198h89z" />
    <glyph glyph-name="breve" unicode="&#x2d8;" horiz-adv-x="549" 
d="M272 651c68 0 117.002 18.332 147.002 54.999s45 86.334 45 149.001h-92c0 -39.333 -7.83301 -68.833 -23.5 -88.5s-40.834 -29.834 -75.501 -30.501c-35.333 0.666992 -60.833 10.834 -76.5 30.501s-23.5 49.167 -23.5 88.5h-90c0 -42 5.5 -78.333 16.5 -109
s30.167 -54 57.5 -70c13.333 -8.66699 29.666 -15 48.999 -19s41.333 -6 66 -6z" />
    <glyph glyph-name="dotaccent" unicode="&#x2d9;" horiz-adv-x="553" 
d="M266 650c26.667 0 46.5 6.16699 59.5 18.5s19.5 32.833 19.5 61.5c0 29.333 -6.66699 50 -20 62s-33 18 -59 18c-26.667 0 -46.667 -6 -60 -18s-20 -32.667 -20 -62c0 -30 6.16699 -50.833 18.5 -62.5s32.833 -17.5 61.5 -17.5z" />
    <glyph glyph-name="ring" unicode="&#x2da;" horiz-adv-x="549" 
d="M272 652c42 0 75.334 12 100.001 36s37 56.333 37 97c0 43.333 -12.333 76.666 -37 99.999s-58 35 -100 35c-40.667 0 -73.334 -12.167 -98.001 -36.5s-37 -57.166 -37 -98.499c0 -42.667 12 -75.5 36 -98.5s57 -34.5 99 -34.5zM272.001 734
c-17.333 0 -30.333 4.33301 -39 13s-13 21.334 -13 38.001c0 17.333 4.83301 30.666 14.5 39.999s22.167 14 37.5 14c16 0 28.833 -4.66699 38.5 -14s14.5 -22.666 14.5 -39.999c0 -16.667 -5.83301 -29.334 -17.5 -38.001s-23.5 -13 -35.5 -13z" />
    <glyph glyph-name="ogonek" unicode="&#x2db;" horiz-adv-x="549" 
d="M269 -240c44.667 0 81.667 10.001 111 30.001s51.333 50 66 90h-110c-4.66699 -12 -12.167 -22 -22.5 -30s-22.833 -12 -37.5 -12c-16.667 0 -29.834 3.66699 -39.501 11s-14.5 17.666 -14.5 30.999c0 12 3.5 23.167 10.5 33.5s19.5 22.166 37.5 35.499
c8.66699 6.66699 19.334 14.167 32.001 22.5l43 28.5l-76 40c-40 -20 -70.5 -39.5 -91.5 -58.5s-35.167 -37.833 -42.5 -56.5c-3.33301 -8.66699 -6 -17.667 -8 -27s-3 -18.333 -3 -27c0 -37.333 13 -65.166 39 -83.499s61.333 -27.5 106 -27.5z" />
    <glyph glyph-name="tilde" unicode="&#x2dc;" horiz-adv-x="549" 
d="M71 653l83.001 -0.00195312c0.666992 21.333 3.83398 36.833 9.50098 46.5s14.834 14.5 27.501 14.5c12 0 23.5 -3.33301 34.5 -10s22.5 -14.334 34.5 -23.001s25.5 -16.334 40.5 -23.001s32.5 -10 52.5 -10c47.333 0 79.5 13.833 96.5 41.5s25.5 64.834 25.5 111.501
h-83c-0.666992 -22.667 -3.83398 -38.5 -9.50098 -47.5s-15.834 -13.5 -30.501 -13.5c-11.333 0 -22.666 3.33301 -33.999 10s-23 14.334 -35 23.001c-12.667 8.66699 -26.334 16.334 -41.001 23.001s-31.667 10 -51 10c-44.667 0 -75.834 -14.167 -93.501 -42.5
s-26.5 -65.166 -26.5 -110.499z" />
    <glyph glyph-name="hungarumlaut" unicode="&#x2dd;" horiz-adv-x="549" 
d="M314 851h-127l-134 -198h89zM496 851h-127l-134 -198h89z" />
    <glyph glyph-name="uni03BC" unicode="&#x3bc;" horiz-adv-x="599" 
d="M276 -11c41.333 0 73.502 9.33301 96.502 28s39.833 44 50.5 76l11 -93h103v575h-124v-314c0 -48.667 -10.167 -88.167 -30.5 -118.5s-50.833 -45.5 -91.5 -45.5c-41.333 0 -69.833 13.333 -85.5 40s-23.5 61.334 -23.5 104.001v334h-124v-771h120v230
c11.333 -14.667 25.166 -25.834 41.499 -33.501s35.166 -11.5 56.499 -11.5z" />
    <glyph glyph-name="pi" unicode="&#x3c0;" horiz-adv-x="715" 
d="M436 196c0 -52.667 5.99902 -92.999 17.999 -120.999s33 -47.667 63 -59c14.667 -5.33301 32.334 -9.33301 53.001 -12s44 -4 70 -4h41v114h-29c-23.333 0 -41.833 2.16699 -55.5 6.5s-23.167 13.166 -28.5 26.499c-2.66699 7.33301 -4.66699 16.333 -6 27s-2 23 -2 37
v386h132v116h-669v-116h124v-597h124v597h165v-401z" />
    <glyph glyph-name="uni0E3F" unicode="&#xe3f;" horiz-adv-x="641" 
d="M369 -117l-0.000976562 116.999c82.667 2 143.334 20 182.001 54s58 81.333 58 142v14c0 42 -9.5 75.333 -28.5 100s-46.5 43 -82.5 55c32.667 12.667 57.167 31.834 73.5 57.501s24.5 59.5 24.5 101.5v11c0 53.333 -17.833 95.5 -53.5 126.5s-93.5 48.167 -173.5 51.5
v122h-92v-122h-210v-713h210v-117h92zM187.999 414.999v197h89v-197h-89zM473.999 521.999v-8.99805c0 -30.667 -8.66699 -53.834 -26 -69.501s-43.666 -24.834 -78.999 -27.501v195c37.333 -2 64.166 -10.333 80.499 -25s24.5 -36 24.5 -64zM187.999 106.001v208h89v-208
h-89zM481.999 217.001v-11.001c0 -30 -8.5 -53.167 -25.5 -69.5s-46.167 -26.166 -87.5 -29.499v206c38.667 -2.66699 67.167 -11.667 85.5 -27s27.5 -38.333 27.5 -69z" />
    <glyph glyph-name="Wgrave" unicode="&#x1e80;" horiz-adv-x="925" 
d="M610 0h117l179 713h-122l-125 -518l-157 518h-93l-158 -506l-110 506h-123l162 -713h115l160 502zM412 791h96l-134 198h-134z" />
    <glyph glyph-name="wgrave" unicode="&#x1e81;" horiz-adv-x="822" 
d="M534 0h111l169 575h-120l-114 -408l-132 408h-80l-142 -409l-96 409h-122l145 -575h114l139 384zM362 653h96l-134 198h-134z" />
    <glyph glyph-name="Wacute" unicode="&#x1e82;" horiz-adv-x="925" 
d="M610 0h117l179 713h-122l-125 -518l-157 518h-93l-158 -506l-110 506h-123l162 -713h115l160 502zM410 791h96l174 198h-134z" />
    <glyph glyph-name="wacute" unicode="&#x1e83;" horiz-adv-x="822" 
d="M534 0h111l169 575h-120l-114 -408l-132 408h-80l-142 -409l-96 409h-122l145 -575h114l139 384zM360 653h96l174 198h-134z" />
    <glyph glyph-name="Wdieresis" unicode="&#x1e84;" horiz-adv-x="925" 
d="M610 0h117l179 713h-122l-125 -518l-157 518h-93l-158 -506l-110 506h-123l162 -713h115l160 502zM556 788c24 0 41.999 5.66699 53.999 17s18 30 18 56s-6.16699 44.333 -18.5 55s-30.166 16 -53.499 16c-24 0 -41.833 -5.33301 -53.5 -16s-17.5 -29 -17.5 -55
c0 -27.333 5.33301 -46.333 16 -57s29 -16 55 -16zM360.999 788c24.667 0 42.833 5.66699 54.5 17s17.5 30 17.5 56s-6 44.333 -18 55s-30 16 -54 16c-23.333 0 -41 -5.33301 -53 -16s-18 -29 -18 -55c0 -27.333 5.5 -46.333 16.5 -57s29.167 -16 54.5 -16z" />
    <glyph glyph-name="wdieresis" unicode="&#x1e85;" horiz-adv-x="822" 
d="M534 0h111l169 575h-120l-114 -408l-132 408h-80l-142 -409l-96 409h-122l145 -575h114l139 384zM506 650c24 0 41.999 5.66699 53.999 17s18 30 18 56s-6.16699 44.333 -18.5 55s-30.166 16 -53.499 16c-24 0 -41.833 -5.33301 -53.5 -16s-17.5 -29 -17.5 -55
c0 -27.333 5.33301 -46.333 16 -57s29 -16 55 -16zM310.999 650c24.667 0 42.833 5.66699 54.5 17s17.5 30 17.5 56s-6 44.333 -18 55s-30 16 -54 16c-23.333 0 -41 -5.33301 -53 -16s-18 -29 -18 -55c0 -27.333 5.5 -46.333 16.5 -57s29.167 -16 54.5 -16z" />
    <glyph glyph-name="Ygrave" unicode="&#x1ef2;" horiz-adv-x="594" 
d="M356 0v278l232 435h-135l-159 -310l-152 310h-135l221 -435v-278h128zM249 783h96l-134 198h-134z" />
    <glyph glyph-name="ygrave" unicode="&#x1ef3;" horiz-adv-x="562" 
d="M94 -206c36 0 65.833 2 89.5 6s43.5 12 59.5 24s30.667 29.333 44 52s27.333 53 42 91l234 608h-129l-140 -390l-9 -34l-5 34l-144 390h-131l222 -561l-10 -27c-10 -23.333 -19.833 -41 -29.5 -53s-21.5 -20.333 -35.5 -25c-7.33301 -2 -15.833 -3.5 -25.5 -4.5
s-20.5 -1.5 -32.5 -1.5h-63v-109h63zM238 646h96l-134 198h-134z" />
    <glyph glyph-name="figuredash" unicode="&#x2012;" horiz-adv-x="627" 
d="M576 370h-525v-124h525v124z" />
    <glyph glyph-name="endash" unicode="&#x2013;" horiz-adv-x="478" 
d="M427 370h-376v-124h376v124z" />
    <glyph glyph-name="emdash" unicode="&#x2014;" horiz-adv-x="664" 
d="M613 370h-562v-124h562v124z" />
    <glyph glyph-name="uni2015" unicode="&#x2015;" horiz-adv-x="932" 
d="M881 370h-830v-124h830v124z" />
    <glyph glyph-name="uni2016" unicode="&#x2016;" horiz-adv-x="530" 
d="M458 -63v844h-124v-844h124zM196 -63v844h-124v-844h124z" />
    <glyph glyph-name="underscoredbl" unicode="&#x2017;" horiz-adv-x="615" 
d="M585 88h-556v-88h556v88zM585 -57h-556v-88h556v88z" />
    <glyph glyph-name="quoteleft" unicode="&#x2018;" horiz-adv-x="271" 
d="M139 453c25.333 0 43.333 5.16699 54 15.5s16 28.833 16 55.5c0 27.333 -4.83301 45.333 -14.5 54s-25.167 13 -46.5 13h-6c-2 0 -4 -0.333008 -6 -1c2 24 8.16699 42.5 18.5 55.5s24.833 20.5 43.5 22.5l-7 54c-42.667 -6 -74.167 -23.5 -94.5 -52.5
s-30.5 -68.167 -30.5 -117.5c0 -38 5.5 -64 16.5 -78s29.833 -21 56.5 -21z" />
    <glyph glyph-name="quoteright" unicode="&#x2019;" horiz-adv-x="271" 
d="M81 452c43.333 6 75.333 23.667 96 53s31 68.333 31 117c0 38 -5.5 64 -16.5 78s-29.833 21 -56.5 21c-24.667 0 -42.5 -5 -53.5 -15s-16.5 -28.667 -16.5 -56s4.83301 -45.333 14.5 -54s25.167 -13 46.5 -13h6c2 0 4 0.333008 6 1c-2 -24 -8.33301 -42.5 -19 -55.5
s-25.667 -20.5 -45 -22.5z" />
    </font>
</defs>
</svg>
