<?xml version="1.0" standalone="no"?>
<!DOCTYPE svg PUBLIC "-//W3C//DTD SVG 1.1//EN" "http://www.w3.org/Graphics/SVG/1.1/DTD/svg11.dtd" >
<svg xmlns="http://www.w3.org/2000/svg" xmlns:xlink="http://www.w3.org/1999/xlink" version="1.1">
<metadata>
Created by FontForge 20170731 at Thu Mar 10 07:23:57 2022
 By Aleksey,,,
Copyright (c) 2017 by Matthieu Salvaggio C Adele Type. All rights reserved.
</metadata>
<defs>
<font id="ATSurt-DemiBold" horiz-adv-x="548" >
  <font-face 
    font-family="AT Surt DemiBold"
    font-weight="600"
    font-stretch="normal"
    units-per-em="2048"
    panose-1="2 0 0 3 0 0 0 0 0 0"
    ascent="1556"
    descent="-492"
    x-height="1075"
    cap-height="1556"
    bbox="-1520 -1004 2867 2071"
    underline-thickness="102"
    underline-position="-307"
    unicode-range="U+0020-25CA"
  />
<missing-glyph horiz-adv-x="1411" 
d="M162 0v1538h1087v-1538h-1087zM301 227l725 1172h-725v-1172zM383 139h727v1172z" />
    <glyph glyph-name=".notdef" horiz-adv-x="1411" 
d="M162 0v1538h1087v-1538h-1087zM301 227l725 1172h-725v-1172zM383 139h727v1172z" />
    <glyph glyph-name=".null" horiz-adv-x="0" 
 />
    <glyph glyph-name="nonmarkingreturn" horiz-adv-x="682" 
 />
    <glyph glyph-name="space" unicode=" " horiz-adv-x="534" 
 />
    <glyph glyph-name="exclam" unicode="!" horiz-adv-x="581" 
d="M170 432v1124h242v-1124h-242zM152 0v266h278v-266h-278z" />
    <glyph glyph-name="quotedbl" unicode="&#x22;" horiz-adv-x="974" 
d="M248 870l-47 392v276h219v-276l-47 -392h-125zM602 870l-45 392v276h217v-276l-45 -392h-127z" />
    <glyph glyph-name="numbersign" unicode="#" horiz-adv-x="1622" 
d="M233 0l105 444h-246v168h287l72 314h-236v166h277l110 464h213l-110 -464h335l111 464h213l-111 -464h273v-166h-314l-71 -314h282v-168h-323l-105 -444h-213l105 444h-336l-105 -444h-213zM592 612h336l71 314h-335z" />
    <glyph glyph-name="dollar" unicode="$" horiz-adv-x="1417" 
d="M1356 420q0 -198 -138 -306t-389 -120v-281h-241v291q-130 20 -230.5 70t-162 120.5t-94.5 151t-40 170.5h234q19 -84 46.5 -138t79.5 -96t134.5 -60.5t204.5 -18.5q64 0 115 5t99.5 19t80.5 36.5t51.5 58.5t19.5 84q0 38 -11 67.5t-38 52.5t-55.5 39t-81.5 31.5
t-96.5 25.5t-118.5 25q-247 53 -340 85q-191 68 -256 188q-41 76 -41 182q0 104 39.5 184t110 129.5t157.5 77.5t193 37v217h241v-223q108 -14 193 -52t140.5 -90t93 -121t54.5 -141.5t21 -156.5h-231q-12 106 -42.5 175.5t-84.5 110.5t-125.5 57.5t-175.5 16.5
q-54 0 -99.5 -4.5t-94.5 -18t-82 -36t-55 -62t-22 -92.5q0 -98 87 -147q66 -37 257 -76q21 -4 66 -13h1l1 -1h1h1h1h1l1 -1h1h1h1h1l1 -1h1h1h1h1l1 -1h1h1h1h1l1 -1h1h1h1h1l1 -1h1h1q83 -17 138.5 -30t124.5 -34.5t113 -43.5t90 -55.5t72.5 -73t43 -93t16.5 -118.5z" />
    <glyph glyph-name="percent" unicode="%" horiz-adv-x="2037" 
d="M403 696q-90 0 -161.5 34.5t-117 95.5t-69.5 141.5t-24 175.5q0 197 97 321.5t275 124.5q176 0 273.5 -125t97.5 -321q0 -127 -41.5 -227t-127 -160t-202.5 -60zM414 -33l944 1622h180l-944 -1622h-180zM401 840q96 0 149.5 85t53.5 218q0 134 -53 218.5t-150 84.5
q-95 0 -147.5 -84.5t-52.5 -218.5q0 -133 52.5 -218t147.5 -85zM1567 -18q-93 0 -166 36t-117 98t-67 141.5t-23 170.5t23 170.5t67 141.5t117 98t166 36q94 0 166.5 -36t116.5 -98.5t66.5 -141.5t22.5 -170t-22.5 -170t-66.5 -141.5t-116.5 -98.5t-166.5 -36zM1567 131
q52 0 92 25.5t63 68.5t34 94t11 109t-11 109t-34 94t-63 68.5t-92 25.5q-69 0 -116 -45t-66 -109.5t-19 -142.5t19 -142.5t66 -109.5t116 -45z" />
    <glyph glyph-name="ampersand" unicode="&#x26;" horiz-adv-x="1423" 
d="M1362 0h-246l-84 117q-69 -53 -174 -85t-219 -32q-256 0 -417 148t-161 374q0 166 87 294t229 190l-187 260v290h947v-213h-731l190 -266q141 31 324 31h98v-203h-98q-100 0 -191 -12l297 -422q36 122 39 279h219q-2 -137 -33 -270t-80 -212zM649 207q73 0 138.5 24
t107.5 66l-383 532q-96 -40 -155.5 -120t-59.5 -185q0 -136 99 -226.5t253 -90.5z" />
    <glyph glyph-name="quotesingle" unicode="'" horiz-adv-x="620" 
d="M248 870l-47 392v276h219v-276l-47 -392h-125z" />
    <glyph glyph-name="parenleft" unicode="(" horiz-adv-x="628" 
d="M369 -238q-522 844 0 1688h202q-460 -844 0 -1688h-202z" />
    <glyph glyph-name="parenright" unicode=")" horiz-adv-x="628" 
d="M260 -238h-203q460 844 0 1688h203q522 -844 0 -1688z" />
    <glyph glyph-name="asterisk" unicode="*" horiz-adv-x="1091" 
d="M299 680l-123 100l270 291l-342 139l68 144l311 -164l-16 366h158l-19 -366l314 164l67 -144l-340 -139l268 -291l-120 -100l-248 321z" />
    <glyph glyph-name="plus" unicode="+" horiz-adv-x="1134" 
d="M1038 612v-166h-389v-389h-166v389h-387v166h387v387h166v-387h389z" />
    <glyph glyph-name="comma" unicode="," horiz-adv-x="471" 
d="M106 -266l101 266h-111v266h279v-266l-127 -266h-142z" />
    <glyph glyph-name="hyphen" unicode="-" horiz-adv-x="1058" 
d="M940 432h-819v209h819v-209z" />
    <glyph glyph-name="period" unicode="." horiz-adv-x="471" 
d="M96 0v266h279v-266h-279z" />
    <glyph glyph-name="slash" unicode="/" horiz-adv-x="817" 
d="M14 -238l568 1794h221l-567 -1794h-222z" />
    <glyph glyph-name="zero" unicode="0" horiz-adv-x="1529" 
d="M766 -33q-132 0 -241.5 42t-186 116t-129.5 176.5t-78 222.5t-25 254t25 254t78 222.5t129.5 176.5t186 116t241.5 42t241 -42t185.5 -116t129 -176.5t77 -222t24.5 -254.5t-24.5 -254.5t-77 -222t-129 -176.5t-185.5 -116t-241 -42zM764 188q101 0 179.5 45.5t128 126.5
t74.5 187t25 231t-25 231t-74.5 187t-128 126.5t-179.5 45.5t-179.5 -45.5t-127.5 -126.5t-74 -187t-25 -231t25 -231t74 -187t127.5 -126.5t179.5 -45.5z" />
    <glyph glyph-name="one" unicode="1" horiz-adv-x="788" 
d="M365 0v1315h-310v241h551v-1556h-241z" />
    <glyph glyph-name="two" unicode="2" horiz-adv-x="1460" 
d="M180 -2v242q477 301 639 438q136 115 197 212.5t61 199.5q0 132 -89 206t-245 74q-176 0 -281.5 -96t-105.5 -264q0 -46 19 -123h-250q-19 80 -19 131q0 263 165 417t472 154q284 0 437 -132t153 -359q0 -152 -73.5 -281.5t-231.5 -265.5q-148 -128 -450 -311h776v-242
h-1174z" />
    <glyph glyph-name="three" unicode="3" horiz-adv-x="1482" 
d="M729 -33q-257 0 -419.5 103t-203.5 297h259q60 -183 374 -183q394 0 394 293q0 153 -109 228t-356 75h-172v211l479 332h-764v233h1051v-262l-474 -321l25 -2q260 0 410.5 -129t150.5 -363q1 -83 -18.5 -155t-67 -139t-120 -114.5t-185 -75.5t-254.5 -28z" />
    <glyph glyph-name="four" unicode="4" horiz-adv-x="1447" 
d="M1341 563v-241h-299v-322h-241v322h-695v262l562 972h270l-561 -993h424v371h241v-371h299z" />
    <glyph glyph-name="five" unicode="5" horiz-adv-x="1464" 
d="M715 -33q-166 0 -301.5 48.5t-217 137.5t-90.5 203h263q6 -75 104 -123.5t234 -48.5q187 0 297 93t110 247q0 152 -106 248t-267 96q-124 0 -212 -57t-123 -149h-273l229 894h863v-233h-688l-95 -362q55 55 149.5 86.5t207.5 31.5q249 0 404 -154.5t155 -398.5
q0 -254 -174 -406.5t-469 -152.5z" />
    <glyph glyph-name="six" unicode="6" horiz-adv-x="1409" 
d="M705 -31q-151 0 -266 51.5t-187.5 148.5t-109 232t-36.5 306q0 258 77.5 456.5t222.5 310t337 111.5q198 0 329 -105t153 -282h-254q-17 84 -85 133t-157 49q-157 0 -257.5 -152t-117.5 -407q64 107 176.5 167.5t257.5 60.5q229 0 370.5 -145t141.5 -380
q0 -252 -162.5 -403.5t-432.5 -151.5zM711 184q148 0 239.5 89.5t91.5 238.5t-90.5 238.5t-240.5 89.5t-242 -89.5t-92 -238.5q0 -148 91.5 -238t242.5 -90z" />
    <glyph glyph-name="seven" unicode="7" horiz-adv-x="1230" 
d="M207 0l653 1315h-754v241h1018v-241l-647 -1315h-270z" />
    <glyph glyph-name="eight" unicode="8" horiz-adv-x="1476" 
d="M739 -37q-136 0 -245.5 29t-180.5 76t-119 110t-68 129t-20 135q0 139 76.5 242t216.5 147q-110 56 -164.5 141t-54.5 183q0 64 19.5 124.5t63.5 116.5t107.5 97.5t158.5 66.5t210 25q118 0 213.5 -25t158.5 -65.5t105.5 -96t61 -114t18.5 -121.5q0 -101 -55 -188
t-162 -144q137 -44 213 -146t76 -243q0 -57 -14 -112t-43.5 -110t-80 -100.5t-118 -81t-163 -55.5t-210.5 -20zM737 930q152 0 226.5 63t74.5 160t-75 162t-226 65q-152 0 -228.5 -65.5t-76.5 -161.5q0 -97 76.5 -160t228.5 -63zM737 180q99 0 174 23.5t117 62.5t62 83.5
t20 92.5q0 51 -19 95.5t-60 84t-116.5 62.5t-177.5 23q-195 0 -283.5 -74.5t-88.5 -190.5q0 -48 19.5 -92.5t61 -83.5t116.5 -62.5t175 -23.5z" />
    <glyph glyph-name="nine" unicode="9" horiz-adv-x="1441" 
d="M690 -33q-241 0 -398 105t-179 272h262q14 -77 99 -123.5t212 -46.5q181 0 292.5 142.5t111.5 357.5v39q-67 -90 -190 -144.5t-257 -54.5q-245 0 -388.5 147.5t-143.5 380.5q0 116 40.5 216t116 173.5t189.5 115.5t254 42q300 0 462 -188.5t162 -575.5
q0 -253 -76.5 -446.5t-223.5 -302.5t-345 -109zM709 725q164 0 264 86.5t100 228.5q0 151 -100 241.5t-264 90.5t-263.5 -90.5t-99.5 -241.5q0 -143 99.5 -229t263.5 -86z" />
    <glyph glyph-name="colon" unicode=":" horiz-adv-x="471" 
d="M96 788v267h279v-267h-279zM96 0v266h279v-266h-279z" />
    <glyph glyph-name="semicolon" unicode=";" horiz-adv-x="471" 
d="M96 788v267h279v-267h-279zM106 -266l101 266h-111v266h279v-266l-127 -266h-142z" />
    <glyph glyph-name="less" unicode="&#x3c;" horiz-adv-x="1079" 
d="M942 0l-831 563v205l831 557v-199l-694 -460l694 -461v-205z" />
    <glyph glyph-name="equal" unicode="=" horiz-adv-x="1404" 
d="M231 698v168h943v-168h-943zM231 250v168h943v-168h-943z" />
    <glyph glyph-name="greater" unicode="&#x3e;" horiz-adv-x="1079" 
d="M135 0v205l692 461l-692 460v199l830 -557v-205z" />
    <glyph glyph-name="question" unicode="?" horiz-adv-x="1212" 
d="M451 389v31q0 129 40 219t136 178q20 18 66.5 59t67.5 62.5t50 57t41 71.5t12 78q0 100 -71 162.5t-185 62.5q-138 0 -212 -92.5t-62 -247.5h-238q-17 251 124 405t394 154q222 0 359 -119.5t137 -314.5q0 -60 -15 -113.5t-35.5 -91t-56.5 -78.5t-63.5 -64.5t-72 -61.5
t-66.5 -58q-54 -50 -80 -95.5t-37 -105.5q-8 -41 -8 -98h-225zM422 0v266h278v-266h-278z" />
    <glyph glyph-name="at" unicode="@" horiz-adv-x="2232" 
d="M1270 -326q-252 0 -463.5 72t-358.5 200.5t-229 312.5t-82 403q0 202 70 371.5t196 287.5t306.5 184t396.5 66q220 0 404 -69t313 -192.5t200.5 -302t71.5 -391.5q0 -283 -119.5 -457.5t-314.5 -174.5q-152 0 -251 106.5t-99 286.5q-73 -180 -277 -180q-174 0 -283.5 125
t-109.5 329q0 203 103.5 327t273.5 124q176 0 274 -129v100h201v-635q0 -131 48.5 -208.5t127.5 -77.5q97 0 158 122.5t61 313.5q0 239 -97.5 420.5t-275.5 279.5t-411 98q-224 0 -396 -88.5t-267 -252.5t-95 -379q0 -236 114 -415.5t323.5 -277.5t484.5 -98h176v-201h-174z
M1069 348q99 0 157 76.5t58 200.5v45q0 126 -58.5 201t-158.5 75t-162.5 -81t-62.5 -214q0 -136 63 -219.5t164 -83.5z" />
    <glyph glyph-name="A" unicode="A" horiz-adv-x="1595" 
d="M51 0l617 1556h260l616 -1556h-270l-156 416h-641l-155 -416h-271zM561 649h473l-235 619z" />
    <glyph glyph-name="B" unicode="B" horiz-adv-x="1454" 
d="M184 0v1556h559q158 0 275.5 -43t186.5 -136.5t69 -229.5q0 -112 -62 -197t-157 -110q128 -19 214.5 -127.5t86.5 -263.5q0 -209 -136.5 -329t-385.5 -120h-650zM428 922h274q154 0 238 50t84 148q0 102 -73.5 159.5t-219.5 57.5h-303v-415zM428 219h338
q155 0 247.5 63.5t92.5 190.5q0 117 -93 182.5t-261 65.5h-324v-502z" />
    <glyph glyph-name="C" unicode="C" horiz-adv-x="1673" 
d="M856 -33q-172 0 -313.5 59.5t-237 166t-147.5 254.5t-52 323q0 240 91.5 425t264.5 289.5t402 104.5q194 0 350 -80t248.5 -218t114.5 -312h-258q-31 169 -158 276t-311 107q-221 0 -351 -162t-130 -422q0 -261 130.5 -422t354.5 -161q183 0 309 108t156 277h258
q-35 -270 -230 -441.5t-491 -171.5z" />
    <glyph glyph-name="D" unicode="D" horiz-adv-x="1589" 
d="M801 -2l-617 2v1556h596q342 0 526.5 -190.5t184.5 -591.5q0 -382 -172.5 -579.5t-517.5 -196.5zM430 227h330q228 0 349.5 131.5t121.5 421.5q0 274 -116 411.5t-355 137.5h-330v-1102z" />
    <glyph glyph-name="E" unicode="E" horiz-adv-x="1468" 
d="M428 240h858v-240h-1102v1556h1067v-239h-823v-391h746v-232h-746v-454z" />
    <glyph glyph-name="F" unicode="F" horiz-adv-x="1267" 
d="M1231 1317h-801v-391h711v-232h-711v-694h-246v1556h1047v-239z" />
    <glyph glyph-name="G" unicode="G" horiz-adv-x="1710" 
d="M922 -33q-372 0 -594 222.5t-222 590.5q0 367 208 588t546 221q285 0 482.5 -153.5t234.5 -401.5h-258q-36 148 -160 238t-301 90q-223 0 -356 -158.5t-133 -425.5q0 -266 149.5 -424.5t405.5 -158.5q125 0 240 45t177 122v228h-530v225h766v-536q-91 -141 -271 -226.5
t-384 -85.5z" />
    <glyph glyph-name="H" unicode="H" horiz-adv-x="1579" 
d="M1149 1556h246v-1556h-246v690h-719v-690h-246v1556h246v-630h719v630z" />
    <glyph glyph-name="I" unicode="I" 
d="M152 0v1556h245v-1556h-245z" />
    <glyph glyph-name="J" unicode="J" horiz-adv-x="1261" 
d="M592 -33q-260 0 -402 130.5t-159 383.5h254q17 -146 87.5 -216t207.5 -70q67 0 114.5 15t78 53t48.5 78t26.5 117.5t10.5 141.5t2 178v778h250v-823q0 -104 -5 -185.5t-19 -164t-38 -143t-63.5 -114t-93.5 -87t-129 -53t-170 -19.5z" />
    <glyph glyph-name="K" unicode="K" horiz-adv-x="1394" 
d="M1343 0h-305l-608 698v-698h-246v1556h246v-682l576 682h305l-658 -763z" />
    <glyph glyph-name="L" unicode="L" horiz-adv-x="1261" 
d="M428 240h803v-240h-1047v1556h244v-1316z" />
    <glyph glyph-name="M" unicode="M" horiz-adv-x="1828" 
d="M184 0v1556h271l458 -1273l461 1273h271v-1556h-246v1038l-359 -1038h-252l-360 1038v-1038h-244z" />
    <glyph glyph-name="N" unicode="N" horiz-adv-x="1579" 
d="M184 0v1556h240l725 -1163v1163h246v-1556h-250l-715 1118v-1118h-246z" />
    <glyph glyph-name="O" unicode="O" horiz-adv-x="1740" 
d="M872 -33q-232 0 -406.5 103.5t-267 287t-92.5 420.5t92.5 420.5t267 287t406.5 103.5q231 0 404.5 -103.5t265.5 -287t92 -420.5t-92 -420.5t-265.5 -287t-404.5 -103.5zM870 195q153 0 268 76.5t174.5 208t59.5 298.5t-59.5 298.5t-174.5 208.5t-268 77q-152 0 -267 -77
t-174.5 -209t-59.5 -298t59.5 -298t174.5 -208.5t267 -76.5z" />
    <glyph glyph-name="P" unicode="P" horiz-adv-x="1372" 
d="M184 0v1556h590q231 0 365.5 -115t134.5 -335q0 -212 -132.5 -329.5t-377.5 -117.5h-336v-659h-244zM428 877h295q140 0 220.5 56.5t80.5 170.5q0 110 -77.5 171.5t-223.5 61.5h-295v-460z" />
    <glyph glyph-name="Q" unicode="Q" horiz-adv-x="1740" 
d="M1634 778q0 -209 -72.5 -377.5t-207.5 -275.5l280 -260h-303l-164 153q-136 -51 -295 -51q-232 0 -406.5 103.5t-267 287t-92.5 420.5t92.5 420.5t267 287t406.5 103.5q231 0 404.5 -103.5t265.5 -287t92 -420.5zM870 195q56 0 97 8l-250 233h303l151 -141q97 78 150 204
t53 279q0 166 -60 298t-175.5 209t-268.5 77t-268 -77t-174 -208.5t-59 -298.5q0 -124 34.5 -231t98 -185t158.5 -122.5t210 -44.5z" />
    <glyph glyph-name="R" unicode="R" horiz-adv-x="1378" 
d="M184 0v1556h559q251 0 391 -108.5t140 -321.5q0 -110 -41 -190t-118 -127.5t-174.5 -71t-223.5 -28.5l631 -709h-304l-616 700v-700h-244zM428 909h317q115 0 196 54t81 157t-77 160t-224 57h-293v-428z" />
    <glyph glyph-name="S" unicode="S" horiz-adv-x="1378" 
d="M748 -33q-166 0 -295 41.5t-210 115.5t-126.5 169.5t-55.5 210.5h261q41 -174 154 -246t296 -72q141 0 221 54.5t80 156.5q0 43 -17 79t-40.5 59.5t-61.5 43.5t-67 31t-70 23q-9 3 -140.5 39t-209.5 65q-77 29 -131.5 60.5t-101 77.5t-70 109t-23.5 144q0 98 34 178
t89.5 131.5t130 86.5t153 50t161.5 15q267 0 415 -142t156 -378h-260q-6 71 -29 125.5t-55.5 86.5t-76.5 52.5t-85 27.5t-88 7q-32 0 -64.5 -4t-74 -18t-72.5 -36t-52.5 -62.5t-21.5 -94.5q0 -75 43.5 -120.5t141.5 -82.5q32 -12 65 -22t58 -17t73.5 -20t85.5 -23
q129 -34 188 -60q261 -115 261 -388q0 -231 -143 -342t-426 -111z" />
    <glyph glyph-name="T" unicode="T" horiz-adv-x="1296" 
d="M1245 1317h-473v-1317h-246v1317h-475v239h1192z" />
    <glyph glyph-name="U" unicode="U" horiz-adv-x="1527" 
d="M791 -33q-109 0 -197 20t-151 55t-109.5 89t-74.5 114t-45.5 138t-23.5 153.5t-6 168.5v851h246v-800q0 -79 2.5 -133.5t10.5 -118t23 -105.5t42 -84t64.5 -66t92.5 -39t126 -15q62 0 111.5 10.5t85.5 32.5t63 49t44.5 68.5t28.5 81t16 96.5t7 106t2 117v800h246v-851
q0 -94 -6 -170.5t-23 -155t-45.5 -138t-74.5 -113t-108.5 -87.5t-150 -54t-196.5 -20z" />
    <glyph glyph-name="V" unicode="V" horiz-adv-x="1554" 
d="M647 0l-616 1556h274l473 -1267l471 1267h275l-617 -1556h-260z" />
    <glyph glyph-name="W" unicode="W" horiz-adv-x="2258" 
d="M459 0l-428 1556h274l293 -1267l377 1267h309l377 -1267l293 1267h274l-428 -1556h-270l-402 1300l-399 -1300h-270z" />
    <glyph glyph-name="X" unicode="X" horiz-adv-x="1441" 
d="M1391 0h-293l-377 594l-379 -594h-291l520 784l-487 772h291l346 -571l344 571h293l-490 -772z" />
    <glyph glyph-name="Y" unicode="Y" horiz-adv-x="1421" 
d="M586 0v541l-541 1015h279l387 -790l387 790h278l-542 -1015v-541h-248z" />
    <glyph glyph-name="Z" unicode="Z" horiz-adv-x="1384" 
d="M395 240h910v-240h-1211v240l830 1077h-809v239h1110l2 -239z" />
    <glyph glyph-name="bracketleft" unicode="[" horiz-adv-x="796" 
d="M721 1253h-311v-1294h311v-197h-537v1688h537v-197z" />
    <glyph glyph-name="backslash" unicode="\" horiz-adv-x="817" 
d="M803 -238h-221l-568 1794h222z" />
    <glyph glyph-name="bracketright" unicode="]" horiz-adv-x="796" 
d="M74 -238v197h313v1294h-313v197h538v-1688h-538z" />
    <glyph glyph-name="asciicircum" unicode="^" horiz-adv-x="1001" 
d="M694 778l-192 561l-191 -561h-192l266 670h236l262 -670h-189z" />
    <glyph glyph-name="underscore" unicode="_" horiz-adv-x="1658" 
d="M215 -317v174h1229v-174h-1229z" />
    <glyph glyph-name="grave" unicode="`" horiz-adv-x="614" 
d="M-6 1556h311l221 -358h-194z" />
    <glyph glyph-name="a" unicode="a" horiz-adv-x="1157" 
d="M436 -23q-96 0 -169.5 28t-115 75.5t-61.5 103t-20 117.5q0 155 123 246q73 54 198.5 81t341.5 27h60v58q0 200 -211 200q-115 0 -167.5 -46.5t-56.5 -110.5h-233q1 52 14 99t46 94t83 81t131.5 55t186.5 21q108 0 187.5 -23.5t140 -76t91.5 -144t31 -221.5v-377v-129
v-135h-231v150h-4q-52 -83 -147 -128t-218 -45zM510 158q131 0 208 65.5t77 130.5v150h-58q-94 0 -166 -9t-133.5 -30t-94 -61t-32.5 -97q0 -71 52 -110t147 -39z" />
    <glyph glyph-name="b" unicode="b" horiz-adv-x="1243" 
d="M700 1108q217 0 349.5 -156t132.5 -411q0 -258 -131 -416t-346 -158q-101 0 -199 45.5t-152 118.5v-131h-233v1556h241v-620q61 79 151.5 125.5t186.5 46.5zM655 168q129 0 208 101.5t79 265.5q0 169 -79 270.5t-210 101.5q-132 0 -211.5 -88.5t-79.5 -236.5v-107
q0 -137 80.5 -222t212.5 -85z" />
    <glyph glyph-name="c" unicode="c" horiz-adv-x="1148" 
d="M580 -33q-123 0 -222.5 43.5t-163.5 120.5t-98.5 181t-34.5 227q0 255 137.5 412t379.5 157q210 0 345.5 -117.5t147.5 -308.5h-237q-37 225 -252 225q-135 0 -208 -98t-73 -270q0 -173 73 -272t208 -99q100 0 167 57.5t85 149.5h239q-8 -79 -43.5 -151t-96 -130
t-152 -92.5t-201.5 -34.5z" />
    <glyph glyph-name="d" unicode="d" horiz-adv-x="1259" 
d="M905 1556h242v-1556h-236v131q-54 -73 -151 -118.5t-197 -45.5q-215 0 -346 158t-131 416q0 255 132.5 411t350.5 156q95 0 185.5 -46.5t150.5 -125.5v620zM905 496v104q0 138 -79.5 222.5t-211.5 84.5q-130 0 -209 -100t-79 -264q0 -169 80 -272t212 -103q129 0 208 90
t79 238z" />
    <glyph glyph-name="e" unicode="e" horiz-adv-x="1148" 
d="M580 -33q-123 0 -222 43.5t-163.5 120.5t-99 181.5t-34.5 228.5q0 253 137 410t373 157q219 0 359.5 -134t140.5 -358v-151l-766 -2q12 -138 84.5 -216.5t194.5 -78.5q96 0 163.5 49t86.5 113h239q-8 -63 -44 -125.5t-95.5 -116.5t-152 -87.5t-201.5 -33.5zM307 633h527
q0 133 -73.5 203.5t-187.5 70.5q-117 0 -191.5 -70t-74.5 -204z" />
    <glyph glyph-name="f" unicode="f" horiz-adv-x="679" 
d="M186 0v864h-137v211h137v150q0 175 76 269.5t252 94.5q71 0 143 -12v-197q-30 6 -63 6q-88 0 -127 -35.5t-39 -109.5v-166h217v-211h-217v-864h-242z" />
    <glyph glyph-name="g" unicode="g" horiz-adv-x="1241" 
d="M881 1075h241v-975q0 -169 -33.5 -285.5t-100.5 -183t-155 -95t-208 -28.5q-449 0 -523 373h238q23 -88 94.5 -132t177.5 -44q147 0 207 87t62 284v69q-118 -178 -342 -178q-222 0 -350 161t-128 419q0 118 29 219t85.5 178t146.5 120.5t204 43.5q239 0 355 -186v153z
M881 496v104q0 142 -83 224.5t-212 82.5q-139 0 -217 -97t-78 -267q0 -173 79.5 -274t219.5 -101q131 0 211 86.5t80 241.5z" />
    <glyph glyph-name="h" unicode="h" horiz-adv-x="1224" 
d="M121 0v1556h241v-643q41 69 103 114.5t124 63t130 17.5q183 0 288 -118t105 -318v-672h-242v590q0 155 -59.5 236t-167.5 81q-119 0 -200 -93.5t-81 -248.5v-565h-241z" />
    <glyph glyph-name="i" unicode="i" horiz-adv-x="499" 
d="M121 1313v243h258v-243h-258zM129 0v1075h242v-1075h-242z" />
    <glyph glyph-name="j" unicode="j" horiz-adv-x="524" 
d="M145 1313v243h258v-243h-258zM74 -492q-40 0 -77.5 3t-54.5 7l-18 3v194q23 -6 66 -6q164 0 164 152v1214h241v-1231q0 -160 -78 -248t-243 -88z" />
    <glyph glyph-name="k" unicode="k" horiz-adv-x="1007" 
d="M985 0h-262l-361 446v-446h-241v1556h241v-950l328 469h262l-383 -536z" />
    <glyph glyph-name="l" unicode="l" horiz-adv-x="481" 
d="M121 0v1556h241v-1556h-241z" />
    <glyph glyph-name="m" unicode="m" horiz-adv-x="1992" 
d="M1477 1108q186 0 285.5 -115t99.5 -342v-651h-242v606q0 301 -217 301q-130 0 -210.5 -92.5t-80.5 -249.5v-565h-242v606q0 301 -217 301q-130 0 -210.5 -92.5t-80.5 -249.5v-565h-241v1075h241v-162q119 195 365 195q259 0 344 -217q149 217 406 217z" />
    <glyph glyph-name="n" unicode="n" horiz-adv-x="1243" 
d="M121 0v1075h241v-162q41 69 103 114.5t124 63t130 17.5q182 0 287.5 -120.5t105.5 -319.5v-668h-242v590q0 155 -59.5 236t-167.5 81q-119 0 -200 -93.5t-81 -248.5v-565h-241z" />
    <glyph glyph-name="o" unicode="o" horiz-adv-x="1183" 
d="M594 -33q-239 0 -386 162t-147 410q0 251 146 410t387 159q239 0 383.5 -158.5t144.5 -410.5q0 -163 -64 -292.5t-185 -204.5t-279 -75zM592 168q136 0 213.5 99.5t77.5 271.5q0 171 -77.5 269.5t-213.5 98.5t-213.5 -98.5t-77.5 -269.5q0 -172 77.5 -271.5t213.5 -99.5z
" />
    <glyph glyph-name="p" unicode="p" horiz-adv-x="1243" 
d="M700 1108q217 0 349.5 -156t132.5 -411q0 -258 -131 -416t-346 -158q-100 0 -194.5 45t-148.5 119v-623h-241v1567h235v-139q60 78 153.5 125t190.5 47zM655 168q129 0 208 101.5t79 265.5q0 169 -79 270.5t-210 101.5q-132 0 -211.5 -88.5t-79.5 -236.5v-107
q0 -137 80.5 -222t212.5 -85z" />
    <glyph glyph-name="q" unicode="q" horiz-adv-x="1275" 
d="M887 1075h235v-1567h-241v623q-54 -73 -149 -118.5t-193 -45.5q-215 0 -346.5 158t-131.5 416q0 255 132.5 411t347.5 156q96 0 190 -47t156 -125v139zM881 496v104q0 138 -81.5 222.5t-213.5 84.5q-128 0 -206.5 -100t-78.5 -264q0 -169 79.5 -272t209.5 -103
q131 0 211 90t80 238z" />
    <glyph glyph-name="r" unicode="r" horiz-adv-x="753" 
d="M121 0v1075h231v-203q72 141 189 195q76 35 200 35v-248h-39q-154 0 -247 -100t-93 -267v-487h-241z" />
    <glyph glyph-name="s" unicode="s" horiz-adv-x="1095" 
d="M596 -33q-129 0 -228 29t-162 81.5t-97 121.5t-41 153h231q23 -106 95.5 -150t205.5 -44q86 0 134 32.5t48 98.5q0 27 -14.5 49.5t-32.5 37t-53 28.5t-56.5 20.5t-62.5 17.5q-75 19 -123 33.5t-104.5 36.5t-91 46t-65.5 57t-45.5 76t-14.5 97q-1 84 33.5 147t97.5 100
t142.5 55t174.5 18q200 0 310 -97t118 -263h-233q-5 49 -25 84t-50.5 53.5t-63.5 26.5t-70 8q-209 0 -209 -125q0 -23 8 -41t29.5 -33.5t43 -26.5t63.5 -23.5t75 -21t94 -22.5q45 -11 74 -19t71 -23t68.5 -30.5t57 -40t48 -53.5t29 -69.5t11.5 -88.5q0 -169 -108 -252.5
t-312 -83.5z" />
    <glyph glyph-name="t" unicode="t" horiz-adv-x="737" 
d="M524 -20q-186 0 -264 79.5t-78 243.5v561h-137v189q88 0 119 40t31 136v123h229v-277h227v-211h-227v-499q0 -98 39.5 -134t136.5 -36q43 0 70 2v-209q-65 -8 -146 -8z" />
    <glyph glyph-name="u" unicode="u" horiz-adv-x="1208" 
d="M483 -33q-186 0 -285.5 115t-99.5 342v651h242v-606q0 -301 217 -301q129 0 210 93t81 251v563h242v-1075h-242v178q-115 -211 -365 -211z" />
    <glyph glyph-name="v" unicode="v" horiz-adv-x="1097" 
d="M430 0l-407 1075h258l227 -690l41 -115h4l39 115l225 690h258l-407 -1075h-238z" />
    <glyph glyph-name="w" unicode="w" horiz-adv-x="1828" 
d="M430 0l-407 1075h258l268 -805h4l242 805h239l244 -805h4l266 805h258l-409 -1075h-236l-243 819h-5l-245 -819h-238z" />
    <glyph glyph-name="x" unicode="x" horiz-adv-x="1005" 
d="M983 1075l-332 -536l332 -539h-256l-223 377l-225 -377h-256l331 539l-331 536h256l219 -385l229 385h256z" />
    <glyph glyph-name="y" unicode="y" horiz-adv-x="1097" 
d="M258 -492l172 492l-407 1075h258l231 -706l37 -103h4l35 103l229 706h258l-379 -989l-200 -578h-238z" />
    <glyph glyph-name="z" unicode="z" horiz-adv-x="1128" 
d="M344 201h725v-201h-997v201l680 673h-668v201h940l2 -201z" />
    <glyph glyph-name="braceleft" unicode="{" horiz-adv-x="722" 
d="M551 -238q-65 0 -116 12t-87.5 32t-62.5 52.5t-42 68t-25.5 83.5t-13 93t-3.5 104q-2 197 -19.5 238.5t-107.5 41.5v236q90 0 107.5 41.5t19.5 236.5q0 59 3.5 104t13 93t25.5 83.5t42 68t62.5 52.5t87.5 32t116 12h100v-182h-63q-41 0 -72.5 -12t-52.5 -29t-36 -49.5
t-23 -58t-13 -72t-6 -73.5t-2 -79.5t-2 -75.5q-3 -94 -27 -136t-98 -61v-28q75 -19 98.5 -61t26.5 -136q1 -22 2 -62t1.5 -64t3 -60.5t6 -60t11 -54t17.5 -49.5t25.5 -39.5t35 -32t46.5 -19t59 -7.5h63v-183h-100z" />
    <glyph glyph-name="bar" unicode="|" horiz-adv-x="704" 
d="M231 -492v2048h242v-2048h-242z" />
    <glyph glyph-name="braceright" unicode="}" horiz-adv-x="722" 
d="M174 -238h-102v183h63q32 0 59 7.5t46.5 19t35 32t25.5 39.5t17.5 49.5t11 54t6 60t3 60.5t1.5 64t2 62q5 95 27.5 136.5t97.5 60.5v28q-74 19 -97 60.5t-28 136.5q-1 23 -2 75.5t-2 79.5t-6 73.5t-13 72t-23 58t-36 49.5t-52.5 29t-72.5 12h-63v182h102q89 0 153 -23.5
t101 -60.5t58.5 -97.5t28 -120t7.5 -143.5q2 -195 19.5 -236.5t107.5 -41.5v-236q-90 0 -107.5 -41.5t-19.5 -238.5q-1 -84 -7.5 -143.5t-28 -120t-58.5 -97.5t-101 -60.5t-153 -23.5z" />
    <glyph glyph-name="asciitilde" unicode="~" horiz-adv-x="1413" 
d="M922 612q-57 0 -107.5 19.5t-86.5 48t-68.5 56.5t-68 47.5t-71.5 19.5q-49 0 -87 -35t-38 -115v-30h-164v30q0 123 75.5 210t205.5 87q58 0 108.5 -19t86.5 -46t68 -54t68 -46t72 -19q103 0 103 135v25h164v-21q0 -55 -15 -105.5t-45 -93.5t-81.5 -68.5t-118.5 -25.5z
" />
    <glyph glyph-name="exclamdown" unicode="&#xa1;" horiz-adv-x="581" 
d="M152 1290v266h278v-266h-278zM170 0v1124h242v-1124h-242z" />
    <glyph glyph-name="cent" unicode="&#xa2;" horiz-adv-x="1054" 
d="M381 0v225q-154 45 -237 178.5t-83 319.5q0 188 83.5 319t236.5 175v229h266v-221q143 -29 232.5 -129t99.5 -244h-217q-34 205 -230 205q-121 0 -187 -89t-66 -245q0 -158 65 -248t188 -90q91 0 152 51.5t80 136.5h215q-13 -127 -99.5 -227t-232.5 -129v-217h-266z" />
    <glyph glyph-name="sterling" unicode="&#xa3;" horiz-adv-x="1148" 
d="M61 -2v209q46 4 102.5 32t108 71.5t88.5 105.5t41 125q8 52 -8 108h-330v172h226q-39 48 -56 70t-44 66.5t-38.5 87t-11.5 90.5q0 51 13.5 98.5t53 99.5t101.5 90t167.5 63t242.5 25q171 0 297 -49v-200q-139 57 -285 57q-63 0 -122.5 -11t-114.5 -34.5t-88 -66.5
t-33 -101q0 -33 16 -72t32.5 -64.5t53 -75.5t51.5 -73h414v-172h-336q16 -70 10 -139q-6 -116 -73 -202.5t-148 -100.5v-4h727v-205h-1057z" />
    <glyph glyph-name="currency" unicode="&#xa4;" horiz-adv-x="1333" 
d="M250 117l-189 188l166 166q-57 111 -57 252q0 145 55 252l-164 164l189 190l158 -158q103 70 245 70q157 0 262 -84l168 172l189 -190l-182 -185q45 -106 45 -231t-45 -234l180 -184l-187 -188l-165 166q-114 -84 -265 -84q-146 0 -247 73zM651 385q124 0 195.5 90.5
t71.5 247.5q0 154 -71.5 244t-195.5 90q-123 0 -193.5 -90t-70.5 -244q0 -157 70.5 -247.5t193.5 -90.5z" />
    <glyph glyph-name="yen" unicode="&#xa5;" horiz-adv-x="1505" 
d="M1462 1483l-514 -838h205v-160h-285v-102h285v-160h-285v-223h-229v223h-285v160h285v102h-285v160h205l-514 838h256l453 -760l452 760h256z" />
    <glyph glyph-name="brokenbar" unicode="&#xa6;" horiz-adv-x="704" 
d="M231 727v836h242v-836h-242zM231 -492v912h242v-912h-242z" />
    <glyph glyph-name="section" unicode="&#xa7;" horiz-adv-x="1136" 
d="M891 406q79 -32 122.5 -96t43.5 -144q0 -143 -126.5 -231.5t-336.5 -88.5q-225 0 -369 104.5t-157 280.5h235q21 -88 98 -141t197 -53q97 0 161 33t64 88q0 27 -19.5 51t-45 40t-71.5 32.5t-75.5 25t-81.5 21.5q-49 13 -81.5 22.5t-82 27t-83 34.5t-71.5 43.5t-60.5 56
t-38 69.5t-15.5 85q0 79 42.5 145.5t117.5 99.5q-76 31 -118 93t-42 145q0 141 122 229t321 88q221 0 351.5 -111.5t141.5 -299.5h-237q-15 105 -85.5 164t-179.5 59q-89 0 -144.5 -36t-55.5 -85q0 -34 26 -61.5t75.5 -48t91.5 -33t103 -27.5q11 -3 17 -4l62 -15.5t72.5 -22
t80 -32t73 -43t65 -56t42.5 -70.5t17 -87q0 -80 -44.5 -148t-121.5 -103zM332 694q0 -68 75.5 -118t196.5 -62q107 -10 163 19.5t56 87.5q0 67 -75.5 116.5t-184.5 61.5q-106 13 -168.5 -16.5t-62.5 -88.5z" />
    <glyph glyph-name="dieresis" unicode="&#xa8;" horiz-adv-x="935" 
d="M188 1350v206h199v-206h-199zM543 1350v206h198v-206h-198z" />
    <glyph glyph-name="copyright" unicode="&#xa9;" horiz-adv-x="1554" 
d="M776 254q-301 0 -485.5 184.5t-184.5 485.5t184.5 485t485.5 184t485.5 -184t184.5 -485t-184.5 -485.5t-485.5 -184.5zM776 352q258 0 415 157.5t157 414.5q0 258 -157 414.5t-415 156.5q-256 0 -412.5 -156.5t-156.5 -414.5q0 -256 157 -414t412 -158zM797 559
q-154 0 -245 100t-91 265q0 164 89.5 265t237.5 101q129 0 215 -74t93 -194h-131q-10 70 -59.5 112t-117.5 42q-89 0 -142.5 -69t-53.5 -183t54.5 -182t146.5 -68q68 0 116.5 36.5t57.5 96.5h129q-1 -109 -85.5 -178.5t-213.5 -69.5z" />
    <glyph glyph-name="guillemotleft" unicode="&#xab;" horiz-adv-x="1230" 
d="M684 997l-369 -454l369 -455h-256l-369 455l369 454h256zM1174 997l-369 -454l369 -455h-256l-369 455l369 454h256z" />
    <glyph glyph-name="logicalnot" unicode="&#xac;" horiz-adv-x="1134" 
d="M870 61v388h-774v167h942v-555h-168z" />
    <glyph glyph-name="registered" unicode="&#xae;" horiz-adv-x="1085" 
d="M543 733q-197 0 -317 120t-120 316q0 198 120 318.5t317 120.5q195 0 314.5 -120.5t119.5 -318.5q0 -196 -119.5 -316t-314.5 -120zM543 813q161 0 260.5 98t99.5 258q0 162 -99 260.5t-261 98.5t-261.5 -98.5t-99.5 -260.5q0 -160 100 -258t261 -98zM403 961v423h154
q63 0 104 -31.5t41 -97.5q0 -111 -133 -120l158 -174h-96l-152 172v-172h-76zM479 1200h70q74 0 74 55q0 60 -74 60h-70v-115z" />
    <glyph glyph-name="macron" unicode="&#xaf;" horiz-adv-x="993" 
d="M770 1290h-686v185h686v-185z" />
    <glyph glyph-name="degree" unicode="&#xb0;" horiz-adv-x="858" 
d="M430 1100q-110 0 -178 67t-68 176q0 110 68 178t178 68q109 0 175.5 -68t66.5 -178q0 -109 -66.5 -176t-175.5 -67zM430 1208q56 0 89.5 37t33.5 98t-33.5 98.5t-89.5 37.5q-57 0 -91 -37t-34 -99t34 -98.5t91 -36.5z" />
    <glyph glyph-name="plusminus" unicode="&#xb1;" horiz-adv-x="1134" 
d="M98 0v168h385v278h-387v166h387v387h166v-387h389v-166h-389v-278h391v-168h-942z" />
    <glyph glyph-name="uni00B2" unicode="&#xb2;" horiz-adv-x="804" 
d="M88 694v164q253 159 348 238q133 108 133 200q0 61 -44.5 96t-118.5 35q-81 0 -133 -45t-52 -135q0 -29 10 -92h-168q-8 36 -8 92q0 150 90 237t265 87q161 0 245 -72t84 -196q0 -76 -36 -142t-111 -135q-79 -71 -246 -168h404v-164h-662z" />
    <glyph glyph-name="uni00B3" unicode="&#xb3;" horiz-adv-x="827" 
d="M410 678q-151 0 -243 61t-112 176h170q32 -96 187 -96q103 0 150.5 40t47.5 108q0 70 -53.5 106.5t-173.5 36.5h-115v129l260 164h-419v149h606v-172l-244 -151h10q133 0 212.5 -70.5t80.5 -195.5q0 -125 -89.5 -205t-274.5 -80z" />
    <glyph glyph-name="acute" unicode="&#xb4;" horiz-adv-x="614" 
d="M385 1556l-338 -358h-194l221 358h311z" />
    <glyph glyph-name="paragraph" unicode="&#xb6;" horiz-adv-x="1585" 
d="M1030 0h-225v666h-225q-62 0 -118.5 9.5t-120.5 38t-109.5 75.5t-76 129t-30.5 190q0 109 30.5 191.5t77 130t111 77.5t122.5 39.5t122 9.5h442v-1556zM1188 0v1556h248v-1556h-248z" />
    <glyph glyph-name="periodcentered" unicode="&#xb7;" horiz-adv-x="471" 
d="M96 403v267h279v-267h-279z" />
    <glyph glyph-name="cedilla" unicode="&#xb8;" 
d="M246 -104h33q77 0 124.5 -38.5t47.5 -99.5q0 -73 -59.5 -116t-166.5 -43h-116v104h108q42 0 67 14t25 39q0 22 -25 34.5t-67 12.5h-88v93l145 159h134z" />
    <glyph glyph-name="uni00B9" unicode="&#xb9;" horiz-adv-x="458" 
d="M201 696v695h-170v161h329v-856h-159z" />
    <glyph glyph-name="guillemotright" unicode="&#xbb;" horiz-adv-x="1230" 
d="M57 88l369 455l-369 454h256l369 -454l-369 -455h-256zM547 88l368 455l-368 454h256l368 -454l-368 -455h-256z" />
    <glyph glyph-name="onequarter" unicode="&#xbc;" horiz-adv-x="1687" 
d="M199 -33l944 1622h182l-944 -1622h-182zM201 700v693h-170v163h334v-856h-164zM1589 324v-162h-149v-162h-160v162h-387v174l297 520h182l-299 -532h207v190h160v-190h149z" />
    <glyph glyph-name="onehalf" unicode="&#xbd;" horiz-adv-x="1726" 
d="M199 -33l944 1622h182l-944 -1622h-182zM201 700v693h-170v163h334v-856h-164zM967 -2v164q258 163 348 237q133 107 133 199q0 62 -44.5 97.5t-117.5 35.5q-81 0 -133.5 -44.5t-52.5 -131.5q0 -14 4.5 -35.5t5.5 -32.5h-168q-8 41 -8 70q0 145 89.5 231t266.5 86
q160 0 244 -73t84 -195q0 -76 -36 -141t-112 -135q-80 -72 -245 -168h403v-164h-661z" />
    <glyph glyph-name="threequarters" unicode="&#xbe;" horiz-adv-x="1904" 
d="M461 -33l944 1622h182l-944 -1622h-182zM410 680q-151 0 -243 61.5t-112 176.5h170q32 -97 187 -97q103 0 150.5 40t47.5 108q0 70 -53.5 106.5t-173.5 36.5h-115v129l260 164h-419v149h606v-172l-244 -151h10q133 0 212.5 -70.5t80.5 -195.5q0 -125 -89.5 -205
t-274.5 -80zM1851 324v-162h-149v-162h-162v162h-387v174l297 520h182l-297 -532h205v190h162v-190h149z" />
    <glyph glyph-name="questiondown" unicode="&#xbf;" horiz-adv-x="1212" 
d="M788 1556v-266h-276v266h276zM762 1167v-30q0 -129 -40 -219.5t-136 -178.5q-21 -19 -56.5 -50t-56.5 -50t-47.5 -48t-41.5 -53.5t-25.5 -57.5t-10.5 -68q0 -100 71.5 -163t186.5 -63q137 0 211 92.5t62 247.5h237q17 -251 -124 -405t-394 -154q-222 0 -359 119.5
t-137 314.5q0 60 15 113.5t35.5 91t57 78t64 64.5t72 61.5t66.5 58.5q54 50 79.5 95.5t36.5 105.5q9 47 9 98h225z" />
    <glyph glyph-name="Agrave" unicode="&#xc0;" horiz-adv-x="1595" 
d="M530 2038h312l221 -359h-195zM51 0l617 1556h260l616 -1556h-270l-156 416h-641l-155 -416h-271zM561 649h473l-235 619z" />
    <glyph glyph-name="Aacute" unicode="&#xc1;" horiz-adv-x="1595" 
d="M1063 2038l-338 -359h-195l222 359h311zM51 0l617 1556h260l616 -1556h-270l-156 416h-641l-155 -416h-271zM561 649h473l-235 619z" />
    <glyph glyph-name="Acircumflex" unicode="&#xc2;" horiz-adv-x="1595" 
d="M1174 1679h-187l-188 228l-193 -228h-186l242 359h270zM51 0l617 1556h260l616 -1556h-270l-156 416h-641l-155 -416h-271zM561 649h473l-235 619z" />
    <glyph glyph-name="Atilde" unicode="&#xc3;" horiz-adv-x="1595" 
d="M662 2001q41 0 79.5 -18.5t62 -41t52 -41t53.5 -18.5q34 0 54 29t20 80h164q0 -131 -60 -203t-157 -72q-46 0 -85.5 19t-62.5 41.5t-50 41.5t-50 19q-34 0 -53 -30t-19 -81h-164q0 120 60.5 197.5t155.5 77.5zM51 0l617 1556h260l616 -1556h-270l-156 416h-641l-155 -416
h-271zM561 649h473l-235 619z" />
    <glyph glyph-name="Adieresis" unicode="&#xc4;" horiz-adv-x="1595" 
d="M522 1831v207h199v-207h-199zM877 1831v207h198v-207h-198zM51 0l617 1556h260l616 -1556h-270l-156 416h-641l-155 -416h-271zM561 649h473l-235 619z" />
    <glyph glyph-name="Aring" unicode="&#xc5;" horiz-adv-x="1595" 
d="M799 1702q-85 0 -135 50t-50 134q0 80 50.5 129t134.5 49q83 0 133.5 -49t50.5 -129q0 -83 -50.5 -133.5t-133.5 -50.5zM799 1810q32 0 51.5 20.5t19.5 53.5q0 32 -19.5 52t-51.5 20q-34 0 -54 -20t-20 -52q0 -33 20.5 -53.5t53.5 -20.5zM51 0l617 1556h260l616 -1556
h-270l-156 416h-641l-155 -416h-271zM561 649h473l-235 619z" />
    <glyph glyph-name="AE" unicode="&#xc6;" horiz-adv-x="2377" 
d="M1341 250h854v-250h-1101v408h-576l-192 -408h-275l740 1556h1370v-249h-820v-371h742v-250h-742v-436zM934 1307l-301 -648h461v648h-160z" />
    <glyph glyph-name="Ccedilla" unicode="&#xc7;" horiz-adv-x="1673" 
d="M854 195q183 0 309 108t156 277h258q-23 -174 -113 -310t-242 -217t-343 -86l-74 -71h33q77 0 124.5 -38.5t47.5 -99.5q0 -73 -59.5 -116t-166.5 -43h-116v104h108q42 0 67 14t25 39q0 22 -25 34.5t-67 12.5h-88v93l70 77q-201 21 -349 128t-225.5 279t-77.5 390
q0 240 91.5 425t264.5 289.5t402 104.5q194 0 350 -80t248.5 -218t114.5 -312h-258q-31 169 -158 276t-311 107q-221 0 -351 -162t-130 -422q0 -261 130.5 -422t354.5 -161z" />
    <glyph glyph-name="Egrave" unicode="&#xc8;" horiz-adv-x="1468" 
d="M467 2038h311l221 -359h-194zM428 240h858v-240h-1102v1556h1067v-239h-823v-391h746v-232h-746v-454z" />
    <glyph glyph-name="Eacute" unicode="&#xc9;" horiz-adv-x="1468" 
d="M999 2038l-337 -359h-195l221 359h311zM428 240h858v-240h-1102v1556h1067v-239h-823v-391h746v-232h-746v-454z" />
    <glyph glyph-name="Ecircumflex" unicode="&#xca;" horiz-adv-x="1468" 
d="M1110 1679h-186l-189 228l-192 -228h-187l242 359h270zM428 240h858v-240h-1102v1556h1067v-239h-823v-391h746v-232h-746v-454z" />
    <glyph glyph-name="Edieresis" unicode="&#xcb;" horiz-adv-x="1468" 
d="M459 1831v207h198v-207h-198zM813 1831v207h199v-207h-199zM428 240h858v-240h-1102v1556h1067v-239h-823v-391h746v-232h-746v-454z" />
    <glyph glyph-name="Igrave" unicode="&#xcc;" 
d="M6 2038h311l222 -359h-195zM152 0v1556h245v-1556h-245z" />
    <glyph glyph-name="Iacute" unicode="&#xcd;" 
d="M539 2038l-338 -359h-195l221 359h312zM152 0v1556h245v-1556h-245z" />
    <glyph glyph-name="Icircumflex" unicode="&#xce;" 
d="M649 1679h-186l-191 228l-190 -228h-186l241 359h271zM152 0v1556h245v-1556h-245z" />
    <glyph glyph-name="Idieresis" unicode="&#xcf;" 
d="M-4 1831v207h199v-207h-199zM350 1831v207h199v-207h-199zM152 0v1556h245v-1556h-245z" />
    <glyph glyph-name="Eth" unicode="&#xd0;" horiz-adv-x="1589" 
d="M780 1556q342 0 526.5 -190.5t184.5 -591.5q0 -382 -172.5 -579.5t-517.5 -196.5l-617 2v684h-131v186h131v686h596zM760 227q228 0 349.5 131.5t121.5 421.5q0 274 -116 411.5t-355 137.5h-330v-459h309v-186h-309v-457h330z" />
    <glyph glyph-name="Ntilde" unicode="&#xd1;" horiz-adv-x="1579" 
d="M649 2001q41 0 79.5 -18.5t62 -41t52.5 -41t54 -18.5q34 0 54 29t20 80h164q0 -131 -60 -203t-157 -72q-46 0 -85.5 19t-62.5 41.5t-50 41.5t-50 19q-34 0 -53 -30t-19 -81h-164q0 120 60 197.5t155 77.5zM184 0v1556h240l725 -1163v1163h246v-1556h-250l-715 1118v-1118
h-246z" />
    <glyph glyph-name="Ograve" unicode="&#xd2;" horiz-adv-x="1740" 
d="M604 2038h311l222 -359h-195zM872 -33q-232 0 -406.5 103.5t-267 287t-92.5 420.5t92.5 420.5t267 287t406.5 103.5q231 0 404.5 -103.5t265.5 -287t92 -420.5t-92 -420.5t-265.5 -287t-404.5 -103.5zM870 195q153 0 268 76.5t174.5 208t59.5 298.5t-59.5 298.5
t-174.5 208.5t-268 77q-152 0 -267 -77t-174.5 -209t-59.5 -298t59.5 -298t174.5 -208.5t267 -76.5z" />
    <glyph glyph-name="Oacute" unicode="&#xd3;" horiz-adv-x="1740" 
d="M1137 2038l-338 -359h-195l221 359h312zM872 -33q-232 0 -406.5 103.5t-267 287t-92.5 420.5t92.5 420.5t267 287t406.5 103.5q231 0 404.5 -103.5t265.5 -287t92 -420.5t-92 -420.5t-265.5 -287t-404.5 -103.5zM870 195q153 0 268 76.5t174.5 208t59.5 298.5
t-59.5 298.5t-174.5 208.5t-268 77q-152 0 -267 -77t-174.5 -209t-59.5 -298t59.5 -298t174.5 -208.5t267 -76.5z" />
    <glyph glyph-name="Ocircumflex" unicode="&#xd4;" horiz-adv-x="1740" 
d="M1247 1679h-186l-191 228l-190 -228h-186l241 359h271zM872 -33q-232 0 -406.5 103.5t-267 287t-92.5 420.5t92.5 420.5t267 287t406.5 103.5q231 0 404.5 -103.5t265.5 -287t92 -420.5t-92 -420.5t-265.5 -287t-404.5 -103.5zM870 195q153 0 268 76.5t174.5 208
t59.5 298.5t-59.5 298.5t-174.5 208.5t-268 77q-152 0 -267 -77t-174.5 -209t-59.5 -298t59.5 -298t174.5 -208.5t267 -76.5z" />
    <glyph glyph-name="Otilde" unicode="&#xd5;" horiz-adv-x="1740" 
d="M733 2001q41 0 80 -18.5t63 -41t53 -41t54 -18.5q33 0 53.5 29.5t20.5 79.5h164q0 -131 -60 -203t-157 -72q-46 0 -86.5 19t-63.5 41.5t-50 41.5t-50 19q-32 0 -52 -30t-20 -81h-162q0 120 59.5 197.5t153.5 77.5zM872 -33q-232 0 -406.5 103.5t-267 287t-92.5 420.5
t92.5 420.5t267 287t406.5 103.5q231 0 404.5 -103.5t265.5 -287t92 -420.5t-92 -420.5t-265.5 -287t-404.5 -103.5zM870 195q153 0 268 76.5t174.5 208t59.5 298.5t-59.5 298.5t-174.5 208.5t-268 77q-152 0 -267 -77t-174.5 -209t-59.5 -298t59.5 -298t174.5 -208.5
t267 -76.5z" />
    <glyph glyph-name="Odieresis" unicode="&#xd6;" horiz-adv-x="1740" 
d="M594 1831v207h199v-207h-199zM948 1831v207h199v-207h-199zM872 -33q-232 0 -406.5 103.5t-267 287t-92.5 420.5t92.5 420.5t267 287t406.5 103.5q231 0 404.5 -103.5t265.5 -287t92 -420.5t-92 -420.5t-265.5 -287t-404.5 -103.5zM870 195q153 0 268 76.5t174.5 208
t59.5 298.5t-59.5 298.5t-174.5 208.5t-268 77q-152 0 -267 -77t-174.5 -209t-59.5 -298t59.5 -298t174.5 -208.5t267 -76.5z" />
    <glyph glyph-name="multiply" unicode="&#xd7;" horiz-adv-x="976" 
d="M881 254l-117 -119l-277 277l-274 -277l-117 119l275 274l-275 275l119 117l272 -273l275 273l117 -117l-273 -275z" />
    <glyph glyph-name="Oslash" unicode="&#xd8;" horiz-adv-x="1740" 
d="M1382 1409q122 -109 187 -271.5t65 -359.5q0 -237 -92 -420.5t-265.5 -287t-404.5 -103.5q-200 0 -356 78l-104 -164h-222l170 266q-122 109 -188 271.5t-66 359.5q0 237 92.5 420.5t267 287t406.5 103.5q199 0 355 -78l104 164h221zM369 778q0 -249 131 -411l598 942
q-100 53 -228 53q-152 0 -267 -77t-174.5 -209t-59.5 -298zM870 195q153 0 268 76.5t174.5 208t59.5 298.5q0 252 -129 412l-598 -942q100 -53 225 -53z" />
    <glyph glyph-name="Ugrave" unicode="&#xd9;" horiz-adv-x="1527" 
d="M518 2038h311l222 -359h-195zM791 -33q-109 0 -197 20t-151 55t-109.5 89t-74.5 114t-45.5 138t-23.5 153.5t-6 168.5v851h246v-800q0 -79 2.5 -133.5t10.5 -118t23 -105.5t42 -84t64.5 -66t92.5 -39t126 -15q62 0 111.5 10.5t85.5 32.5t63 49t44.5 68.5t28.5 81t16 96.5
t7 106t2 117v800h246v-851q0 -94 -6 -170.5t-23 -155t-45.5 -138t-74.5 -113t-108.5 -87.5t-150 -54t-196.5 -20z" />
    <glyph glyph-name="Uacute" unicode="&#xda;" horiz-adv-x="1527" 
d="M1051 2038l-338 -359h-195l221 359h312zM791 -33q-109 0 -197 20t-151 55t-109.5 89t-74.5 114t-45.5 138t-23.5 153.5t-6 168.5v851h246v-800q0 -79 2.5 -133.5t10.5 -118t23 -105.5t42 -84t64.5 -66t92.5 -39t126 -15q62 0 111.5 10.5t85.5 32.5t63 49t44.5 68.5
t28.5 81t16 96.5t7 106t2 117v800h246v-851q0 -94 -6 -170.5t-23 -155t-45.5 -138t-74.5 -113t-108.5 -87.5t-150 -54t-196.5 -20z" />
    <glyph glyph-name="Ucircumflex" unicode="&#xdb;" horiz-adv-x="1527" 
d="M1161 1679h-186l-189 228l-192 -228h-186l241 359h271zM791 -33q-109 0 -197 20t-151 55t-109.5 89t-74.5 114t-45.5 138t-23.5 153.5t-6 168.5v851h246v-800q0 -79 2.5 -133.5t10.5 -118t23 -105.5t42 -84t64.5 -66t92.5 -39t126 -15q62 0 111.5 10.5t85.5 32.5t63 49
t44.5 68.5t28.5 81t16 96.5t7 106t2 117v800h246v-851q0 -94 -6 -170.5t-23 -155t-45.5 -138t-74.5 -113t-108.5 -87.5t-150 -54t-196.5 -20z" />
    <glyph glyph-name="Udieresis" unicode="&#xdc;" horiz-adv-x="1527" 
d="M510 1831v207h199v-207h-199zM864 1831v207h199v-207h-199zM791 -33q-109 0 -197 20t-151 55t-109.5 89t-74.5 114t-45.5 138t-23.5 153.5t-6 168.5v851h246v-800q0 -79 2.5 -133.5t10.5 -118t23 -105.5t42 -84t64.5 -66t92.5 -39t126 -15q62 0 111.5 10.5t85.5 32.5
t63 49t44.5 68.5t28.5 81t16 96.5t7 106t2 117v800h246v-851q0 -94 -6 -170.5t-23 -155t-45.5 -138t-74.5 -113t-108.5 -87.5t-150 -54t-196.5 -20z" />
    <glyph glyph-name="Yacute" unicode="&#xdd;" horiz-adv-x="1421" 
d="M977 2038l-338 -359h-195l222 359h311zM586 0v541l-541 1015h279l387 -790l387 790h278l-542 -1015v-541h-248z" />
    <glyph glyph-name="Thorn" unicode="&#xde;" horiz-adv-x="1372" 
d="M729 1249q90 0 163.5 -10.5t147 -40.5t123 -78.5t80.5 -131t31 -191.5t-31 -190.5t-81 -129.5t-123 -77.5t-145.5 -39.5t-160.5 -10h-299v-350h-250v1556h250v-307h295zM709 586q33 0 55 1t52.5 3.5t51.5 8.5t45.5 16t40 26t29.5 37.5t20.5 51.5t6.5 67q0 50 -12 87
t-36 60t-49.5 37.5t-64.5 20.5t-68 8t-71 2h-275v-426h275z" />
    <glyph glyph-name="germandbls" unicode="&#xdf;" horiz-adv-x="1388" 
d="M1049 668q133 -71 196.5 -145.5t63.5 -196.5q0 -158 -103 -258.5t-295 -100.5q-104 0 -186 31t-133.5 85.5t-80.5 122.5t-34 148h232q17 -93 71 -146.5t133 -53.5q73 0 114.5 46.5t41.5 114.5q0 43 -15.5 76t-49.5 58.5t-65.5 42.5t-86.5 42q-11 5 -16 7
q-63 29 -102.5 52.5t-78.5 55.5t-57 71t-18 87q0 52 23 99t56 82.5t65.5 70.5t55.5 77t23 87q0 72 -57 119t-162 47q-59 0 -102 -17t-65.5 -40.5t-35.5 -59t-16 -62.5t-3 -61v-1149h-241v1159q0 88 25.5 162.5t78 136t145 96.5t216.5 35q209 0 336 -96t127 -254
q0 -63 -22 -121t-53.5 -99t-62.5 -75.5t-53 -65t-22 -53.5q0 -9 2.5 -17t9.5 -16.5t13.5 -15t20 -16t23.5 -15.5t30 -17t33 -18t39 -20.5t42 -21.5z" />
    <glyph glyph-name="agrave" unicode="&#xe0;" horiz-adv-x="1243" 
d="M332 1556h311l221 -358h-194zM440 -23q-96 0 -169.5 28t-115 75.5t-61.5 103t-20 117.5q0 155 123 246q73 54 198.5 81t341.5 27h60v58q0 200 -211 200q-115 0 -167.5 -46.5t-56.5 -110.5h-233q1 52 14 99t46 94t83 81t131.5 55t186.5 21q108 0 187.5 -23.5t140 -76
t91.5 -144t31 -221.5v-377q0 -66 17 -94t67 -35v-147h-116q-79 9 -131.5 53t-61.5 109h-2q-55 -78 -152 -125.5t-221 -47.5zM514 158q69 0 126 20t90 51t51 63.5t18 61.5v146h-70q-72 0 -129 -4.5t-112.5 -17.5t-92 -34t-58.5 -55.5t-22 -81.5q0 -71 52 -110t147 -39z" />
    <glyph glyph-name="aacute" unicode="&#xe1;" horiz-adv-x="1243" 
d="M864 1556l-338 -358h-194l221 358h311zM440 -23q-96 0 -169.5 28t-115 75.5t-61.5 103t-20 117.5q0 155 123 246q73 54 198.5 81t341.5 27h60v58q0 200 -211 200q-115 0 -167.5 -46.5t-56.5 -110.5h-233q1 52 14 99t46 94t83 81t131.5 55t186.5 21q108 0 187.5 -23.5
t140 -76t91.5 -144t31 -221.5v-377q0 -66 17 -94t67 -35v-147h-116q-79 9 -131.5 53t-61.5 109h-2q-55 -78 -152 -125.5t-221 -47.5zM514 158q69 0 126 20t90 51t51 63.5t18 61.5v146h-70q-72 0 -129 -4.5t-112.5 -17.5t-92 -34t-58.5 -55.5t-22 -81.5q0 -71 52 -110
t147 -39z" />
    <glyph glyph-name="acircumflex" unicode="&#xe2;" horiz-adv-x="1243" 
d="M975 1198h-187l-190 227l-190 -227h-187l242 358h270zM440 -23q-96 0 -169.5 28t-115 75.5t-61.5 103t-20 117.5q0 155 123 246q73 54 198.5 81t341.5 27h60v58q0 200 -211 200q-115 0 -167.5 -46.5t-56.5 -110.5h-233q1 52 14 99t46 94t83 81t131.5 55t186.5 21
q108 0 187.5 -23.5t140 -76t91.5 -144t31 -221.5v-377q0 -66 17 -94t67 -35v-147h-116q-79 9 -131.5 53t-61.5 109h-2q-55 -78 -152 -125.5t-221 -47.5zM514 158q69 0 126 20t90 51t51 63.5t18 61.5v146h-70q-72 0 -129 -4.5t-112.5 -17.5t-92 -34t-58.5 -55.5t-22 -81.5
q0 -71 52 -110t147 -39z" />
    <glyph glyph-name="atilde" unicode="&#xe3;" horiz-adv-x="1243" 
d="M463 1520q41 0 79 -18.5t62 -41t53 -41t54 -18.5q33 0 53 29t20 79h164q0 -131 -60 -202.5t-157 -71.5q-46 0 -86.5 19t-63.5 41.5t-50 41.5t-50 19q-32 0 -50.5 -30t-18.5 -81h-164q0 120 60 197.5t155 77.5zM440 -23q-96 0 -169.5 28t-115 75.5t-61.5 103t-20 117.5
q0 155 123 246q73 54 198.5 81t341.5 27h60v58q0 200 -211 200q-115 0 -167.5 -46.5t-56.5 -110.5h-233q1 52 14 99t46 94t83 81t131.5 55t186.5 21q108 0 187.5 -23.5t140 -76t91.5 -144t31 -221.5v-377q0 -66 17 -94t67 -35v-147h-116q-79 9 -131.5 53t-61.5 109h-2
q-55 -78 -152 -125.5t-221 -47.5zM514 158q69 0 126 20t90 51t51 63.5t18 61.5v146h-70q-72 0 -129 -4.5t-112.5 -17.5t-92 -34t-58.5 -55.5t-22 -81.5q0 -71 52 -110t147 -39z" />
    <glyph glyph-name="adieresis" unicode="&#xe4;" horiz-adv-x="1157" 
d="M285 1350v206h198v-206h-198zM639 1350v206h199v-206h-199zM436 -23q-96 0 -169.5 28t-115 75.5t-61.5 103t-20 117.5q0 155 123 246q73 54 198.5 81t341.5 27h60v58q0 200 -211 200q-115 0 -167.5 -46.5t-56.5 -110.5h-233q1 52 14 99t46 94t83 81t131.5 55t186.5 21
q108 0 187.5 -23.5t140 -76t91.5 -144t31 -221.5v-377v-129v-135h-231v150h-4q-52 -83 -147 -128t-218 -45zM510 158q131 0 208 65.5t77 130.5v150h-58q-94 0 -166 -9t-133.5 -30t-94 -61t-32.5 -97q0 -71 52 -110t147 -39z" />
    <glyph glyph-name="aring" unicode="&#xe5;" horiz-adv-x="1243" 
d="M598 1221q-83 0 -133.5 50.5t-50.5 133.5q0 80 50.5 129t133.5 49q84 0 134 -49t50 -129q0 -84 -50 -134t-134 -50zM598 1329q33 0 53.5 20.5t20.5 53.5q0 32 -20 52t-54 20q-32 0 -52 -20t-20 -52t20 -53t52 -21zM440 -23q-96 0 -169.5 28t-115 75.5t-61.5 103
t-20 117.5q0 155 123 246q73 54 198.5 81t341.5 27h60v58q0 200 -211 200q-115 0 -167.5 -46.5t-56.5 -110.5h-233q1 52 14 99t46 94t83 81t131.5 55t186.5 21q108 0 187.5 -23.5t140 -76t91.5 -144t31 -221.5v-377q0 -66 17 -94t67 -35v-147h-116q-79 9 -131.5 53
t-61.5 109h-2q-55 -78 -152 -125.5t-221 -47.5zM514 158q69 0 126 20t90 51t51 63.5t18 61.5v146h-70q-72 0 -129 -4.5t-112.5 -17.5t-92 -34t-58.5 -55.5t-22 -81.5q0 -71 52 -110t147 -39z" />
    <glyph glyph-name="ae" unicode="&#xe6;" horiz-adv-x="1904" 
d="M489 -33q-96 0 -170.5 21t-119.5 54t-74 78t-40 88.5t-11 90.5q0 52 12.5 98.5t50 97t98 86.5t165 59.5t241.5 23.5h172q0 45 -4.5 79t-18.5 67.5t-38.5 55t-65.5 34.5t-98 13q-116 0 -170.5 -49t-57.5 -125h-239q2 57 16.5 107.5t48.5 99.5t86.5 84t135 56.5t188.5 21.5
q270 0 375 -150q131 150 364 150q217 0 350 -134t142 -390v-115l-2 -4l-764 -2q14 -138 85.5 -216.5t194.5 -78.5q104 0 171.5 55t78.5 137h238q-2 -72 -37.5 -142t-97 -126t-154 -90.5t-199.5 -34.5q-137 0 -244 55.5t-163 141.5q-67 -103 -185.5 -150t-259.5 -47z
M1063 645h526q-32 262 -254 262q-115 0 -186 -70.5t-86 -191.5zM526 158q138 0 213.5 59.5t75.5 155.5v125h-182q-322 0 -322 -189q0 -151 215 -151z" />
    <glyph glyph-name="ccedilla" unicode="&#xe7;" horiz-adv-x="1148" 
d="M1073 375q-8 -77 -42 -147.5t-91 -128t-144 -93t-192 -39.5l-74 -71h33q77 0 124.5 -38.5t47.5 -99.5q0 -73 -59 -116t-166 -43h-117v104h109q42 0 67 14t25 39q0 22 -25 34.5t-67 12.5h-88v93l71 77q-135 21 -232 100.5t-144.5 198.5t-47.5 267q0 255 137.5 412
t379.5 157q210 0 345.5 -117.5t147.5 -308.5h-237q-37 225 -252 225q-135 0 -208 -98t-73 -270q0 -173 73 -272t208 -99q100 0 167 57.5t85 149.5h239z" />
    <glyph glyph-name="egrave" unicode="&#xe8;" horiz-adv-x="1148" 
d="M297 1556h311l221 -358h-194zM580 -33q-123 0 -222 43.5t-163.5 120.5t-99 181.5t-34.5 228.5q0 253 137 410t373 157q219 0 359.5 -134t140.5 -358v-151l-766 -2q12 -138 84.5 -216.5t194.5 -78.5q96 0 163.5 49t86.5 113h239q-8 -63 -44 -125.5t-95.5 -116.5
t-152 -87.5t-201.5 -33.5zM307 633h527q0 133 -73.5 203.5t-187.5 70.5q-117 0 -191.5 -70t-74.5 -204z" />
    <glyph glyph-name="eacute" unicode="&#xe9;" horiz-adv-x="1148" 
d="M829 1556l-337 -358h-195l221 358h311zM580 -33q-123 0 -222 43.5t-163.5 120.5t-99 181.5t-34.5 228.5q0 253 137 410t373 157q219 0 359.5 -134t140.5 -358v-151l-766 -2q12 -138 84.5 -216.5t194.5 -78.5q96 0 163.5 49t86.5 113h239q-8 -63 -44 -125.5t-95.5 -116.5
t-152 -87.5t-201.5 -33.5zM307 633h527q0 133 -73.5 203.5t-187.5 70.5q-117 0 -191.5 -70t-74.5 -204z" />
    <glyph glyph-name="ecircumflex" unicode="&#xea;" horiz-adv-x="1148" 
d="M940 1198h-186l-189 227l-192 -227h-187l242 358h270zM580 -33q-123 0 -222 43.5t-163.5 120.5t-99 181.5t-34.5 228.5q0 253 137 410t373 157q219 0 359.5 -134t140.5 -358v-151l-766 -2q12 -138 84.5 -216.5t194.5 -78.5q96 0 163.5 49t86.5 113h239q-8 -63 -44 -125.5
t-95.5 -116.5t-152 -87.5t-201.5 -33.5zM307 633h527q0 133 -73.5 203.5t-187.5 70.5q-117 0 -191.5 -70t-74.5 -204z" />
    <glyph glyph-name="edieresis" unicode="&#xeb;" horiz-adv-x="1148" 
d="M287 1350v206h198v-206h-198zM641 1350v206h199v-206h-199zM580 -33q-123 0 -222 43.5t-163.5 120.5t-99 181.5t-34.5 228.5q0 253 137 410t373 157q219 0 359.5 -134t140.5 -358v-151l-766 -2q12 -138 84.5 -216.5t194.5 -78.5q96 0 163.5 49t86.5 113h239
q-8 -63 -44 -125.5t-95.5 -116.5t-152 -87.5t-201.5 -33.5zM307 633h527q0 133 -73.5 203.5t-187.5 70.5q-117 0 -191.5 -70t-74.5 -204z" />
    <glyph glyph-name="igrave" unicode="&#xec;" 
d="M8 1556h311l222 -358h-195zM154 0v1075h241v-1075h-241z" />
    <glyph glyph-name="iacute" unicode="&#xed;" 
d="M541 1556l-338 -358h-195l221 358h312zM154 0v1075h241v-1075h-241z" />
    <glyph glyph-name="icircumflex" unicode="&#xee;" 
d="M651 1198h-186l-189 227l-192 -227h-186l241 358h271zM154 0v1075h241v-1075h-241z" />
    <glyph glyph-name="idieresis" unicode="&#xef;" 
d="M-2 1350v206h199v-206h-199zM352 1350v206h199v-206h-199zM154 0v1075h241v-1075h-241z" />
    <glyph glyph-name="eth" unicode="&#xf0;" horiz-adv-x="1187" 
d="M840 1348q138 -151 212 -342t74 -404q0 -298 -137.5 -466.5t-382.5 -168.5q-158 0 -277.5 74t-181 200t-61.5 285q0 243 138 404.5t335 161.5q187 0 277 -93q-54 121 -185 258l-252 -120l-88 135l217 102q-97 87 -233 182h287q81 -50 135 -94l203 94l84 -131zM596 164
q133 0 212 99t79 265q0 167 -78.5 265t-212.5 98q-131 0 -202.5 -97.5t-71.5 -265.5q0 -169 71.5 -266.5t202.5 -97.5z" />
    <glyph glyph-name="ntilde" unicode="&#xf1;" horiz-adv-x="1243" 
d="M477 1520q41 0 80 -18.5t63 -41t53 -41t54 -18.5q33 0 53.5 29t20.5 79h162q0 -131 -59 -202.5t-156 -71.5q-46 0 -86.5 19t-63.5 41.5t-50 41.5t-50 19q-32 0 -52 -30t-20 -81h-162q0 120 59.5 197.5t153.5 77.5zM121 0v1075h241v-162q41 69 103 114.5t124 63t130 17.5
q182 0 287.5 -120.5t105.5 -319.5v-668h-242v590q0 155 -59.5 236t-167.5 81q-119 0 -200 -93.5t-81 -248.5v-565h-241z" />
    <glyph glyph-name="ograve" unicode="&#xf2;" horiz-adv-x="1183" 
d="M324 1556h311l221 -358h-194zM594 -33q-239 0 -386 162t-147 410q0 251 146 410t387 159q239 0 383.5 -158.5t144.5 -410.5q0 -163 -64 -292.5t-185 -204.5t-279 -75zM592 168q136 0 213.5 99.5t77.5 271.5q0 171 -77.5 269.5t-213.5 98.5t-213.5 -98.5t-77.5 -269.5
q0 -172 77.5 -271.5t213.5 -99.5z" />
    <glyph glyph-name="oacute" unicode="&#xf3;" horiz-adv-x="1183" 
d="M856 1556l-338 -358h-194l221 358h311zM594 -33q-239 0 -386 162t-147 410q0 251 146 410t387 159q239 0 383.5 -158.5t144.5 -410.5q0 -163 -64 -292.5t-185 -204.5t-279 -75zM592 168q136 0 213.5 99.5t77.5 271.5q0 171 -77.5 269.5t-213.5 98.5t-213.5 -98.5
t-77.5 -269.5q0 -172 77.5 -271.5t213.5 -99.5z" />
    <glyph glyph-name="ocircumflex" unicode="&#xf4;" horiz-adv-x="1183" 
d="M967 1198h-185l-190 227l-193 -227h-186l242 358h270zM594 -33q-239 0 -386 162t-147 410q0 251 146 410t387 159q239 0 383.5 -158.5t144.5 -410.5q0 -163 -64 -292.5t-185 -204.5t-279 -75zM592 168q136 0 213.5 99.5t77.5 271.5q0 171 -77.5 269.5t-213.5 98.5
t-213.5 -98.5t-77.5 -269.5q0 -172 77.5 -271.5t213.5 -99.5z" />
    <glyph glyph-name="otilde" unicode="&#xf5;" horiz-adv-x="1183" 
d="M455 1520q41 0 80 -18.5t63 -41t53 -41t54 -18.5q33 0 53 29t20 79h162q0 -131 -59 -202.5t-156 -71.5q-46 0 -86.5 19t-63.5 41.5t-50 41.5t-50 19q-32 0 -52 -30t-20 -81h-161q0 120 59.5 197.5t153.5 77.5zM594 -33q-239 0 -386 162t-147 410q0 251 146 410t387 159
q239 0 383.5 -158.5t144.5 -410.5q0 -163 -64 -292.5t-185 -204.5t-279 -75zM592 168q136 0 213.5 99.5t77.5 271.5q0 171 -77.5 269.5t-213.5 98.5t-213.5 -98.5t-77.5 -269.5q0 -172 77.5 -271.5t213.5 -99.5z" />
    <glyph glyph-name="odieresis" unicode="&#xf6;" horiz-adv-x="1183" 
d="M313 1350v206h199v-206h-199zM668 1350v206h198v-206h-198zM594 -33q-239 0 -386 162t-147 410q0 251 146 410t387 159q239 0 383.5 -158.5t144.5 -410.5q0 -163 -64 -292.5t-185 -204.5t-279 -75zM592 168q136 0 213.5 99.5t77.5 271.5q0 171 -77.5 269.5t-213.5 98.5
t-213.5 -98.5t-77.5 -269.5q0 -172 77.5 -271.5t213.5 -99.5z" />
    <glyph glyph-name="divide" unicode="&#xf7;" horiz-adv-x="1183" 
d="M449 797v258h278v-258h-278zM1059 455l-942 2v143h942v-145zM449 0v258h278v-258h-278z" />
    <glyph glyph-name="oslash" unicode="&#xf8;" horiz-adv-x="1253" 
d="M1192 1264l-195 -310q150 -156 150 -415q0 -163 -64.5 -292.5t-185.5 -204.5t-279 -75q-124 0 -217 43l-151 -239h-189l205 325q-86 77 -133 192t-47 251q0 165 65 294t186.5 202t280.5 73q139 0 250 -57l136 213h188zM326 539q0 -155 61 -250l369 583q-59 35 -140 35
q-136 0 -213 -98.5t-77 -269.5zM907 539q0 122 -41 209l-354 -562q46 -18 104 -18q136 0 213.5 99.5t77.5 271.5z" />
    <glyph glyph-name="ugrave" unicode="&#xf9;" horiz-adv-x="1208" 
d="M328 1556h311l221 -358h-194zM483 -33q-186 0 -285.5 115t-99.5 342v651h242v-606q0 -301 217 -301q129 0 210 93t81 251v563h242v-1075h-242v178q-115 -211 -365 -211z" />
    <glyph glyph-name="uacute" unicode="&#xfa;" horiz-adv-x="1208" 
d="M860 1556l-338 -358h-194l221 358h311zM483 -33q-186 0 -285.5 115t-99.5 342v651h242v-606q0 -301 217 -301q129 0 210 93t81 251v563h242v-1075h-242v178q-115 -211 -365 -211z" />
    <glyph glyph-name="ucircumflex" unicode="&#xfb;" horiz-adv-x="1208" 
d="M971 1198h-187l-190 227l-191 -227h-186l242 358h270zM483 -33q-186 0 -285.5 115t-99.5 342v651h242v-606q0 -301 217 -301q129 0 210 93t81 251v563h242v-1075h-242v178q-115 -211 -365 -211z" />
    <glyph glyph-name="udieresis" unicode="&#xfc;" horiz-adv-x="1208" 
d="M315 1350v206h199v-206h-199zM670 1350v206h198v-206h-198zM483 -33q-186 0 -285.5 115t-99.5 342v651h242v-606q0 -301 217 -301q129 0 210 93t81 251v563h242v-1075h-242v178q-115 -211 -365 -211z" />
    <glyph glyph-name="yacute" unicode="&#xfd;" horiz-adv-x="1097" 
d="M815 1556l-338 -358h-194l221 358h311zM258 -492l172 492l-407 1075h258l231 -706l37 -103h4l35 103l229 706h258l-379 -989l-200 -578h-238z" />
    <glyph glyph-name="thorn" unicode="&#xfe;" horiz-adv-x="1243" 
d="M700 1108q217 0 349.5 -156t132.5 -411q0 -258 -131 -416t-346 -158q-100 0 -194.5 45t-148.5 119v-623h-241v2048h235v-620q60 78 153.5 125t190.5 47zM655 168q129 0 208 101.5t79 265.5q0 169 -79 270.5t-210 101.5q-132 0 -211.5 -88.5t-79.5 -236.5v-107
q0 -137 80.5 -222t212.5 -85z" />
    <glyph glyph-name="ydieresis" unicode="&#xff;" horiz-adv-x="1097" 
d="M272 1350v206h199v-206h-199zM627 1350v206h198v-206h-198zM258 -492l172 492l-407 1075h258l231 -706l37 -103h4l35 103l229 706h258l-379 -989l-200 -578h-238z" />
    <glyph glyph-name="Amacron" unicode="&#x100;" horiz-adv-x="1595" 
d="M1141 1772h-686v184h686v-184zM51 0l617 1556h260l616 -1556h-270l-156 416h-641l-155 -416h-271zM561 649h473l-235 619z" />
    <glyph glyph-name="amacron" unicode="&#x101;" horiz-adv-x="1243" 
d="M942 1290h-686v185h686v-185zM440 -23q-96 0 -169.5 28t-115 75.5t-61.5 103t-20 117.5q0 155 123 246q73 54 198.5 81t341.5 27h60v58q0 200 -211 200q-115 0 -167.5 -46.5t-56.5 -110.5h-233q1 52 14 99t46 94t83 81t131.5 55t186.5 21q108 0 187.5 -23.5t140 -76
t91.5 -144t31 -221.5v-377q0 -66 17 -94t67 -35v-147h-116q-79 9 -131.5 53t-61.5 109h-2q-55 -78 -152 -125.5t-221 -47.5zM514 158q69 0 126 20t90 51t51 63.5t18 61.5v146h-70q-72 0 -129 -4.5t-112.5 -17.5t-92 -34t-58.5 -55.5t-22 -81.5q0 -71 52 -110t147 -39z" />
    <glyph glyph-name="Abreve" unicode="&#x102;" horiz-adv-x="1595" 
d="M995 2038h191q0 -161 -107 -260t-280 -99q-175 0 -283 99t-108 260h190q0 -89 55 -143t146 -54q89 0 142.5 54t53.5 143zM51 0l617 1556h260l616 -1556h-270l-156 416h-641l-155 -416h-271zM561 649h473l-235 619z" />
    <glyph glyph-name="abreve" unicode="&#x103;" horiz-adv-x="1243" 
d="M797 1556h190q0 -161 -107 -259.5t-282 -98.5q-174 0 -281.5 98.5t-107.5 259.5h190q0 -89 54.5 -142.5t144.5 -53.5t144.5 53.5t54.5 142.5zM440 -23q-96 0 -169.5 28t-115 75.5t-61.5 103t-20 117.5q0 155 123 246q73 54 198.5 81t341.5 27h60v58q0 200 -211 200
q-115 0 -167.5 -46.5t-56.5 -110.5h-233q1 52 14 99t46 94t83 81t131.5 55t186.5 21q108 0 187.5 -23.5t140 -76t91.5 -144t31 -221.5v-377q0 -66 17 -94t67 -35v-147h-116q-79 9 -131.5 53t-61.5 109h-2q-55 -78 -152 -125.5t-221 -47.5zM514 158q69 0 126 20t90 51
t51 63.5t18 61.5v146h-70q-72 0 -129 -4.5t-112.5 -17.5t-92 -34t-58.5 -55.5t-22 -81.5q0 -71 52 -110t147 -39z" />
    <glyph glyph-name="Aogonek" unicode="&#x104;" horiz-adv-x="1595" 
d="M1255 -197q0 -86 136 -86q34 0 61 4v-133q-40 -6 -96 -6q-124 0 -184 54.5t-60 130.5q0 40 16.5 77t47 68.5t51 48t51.5 39.5h-4l-156 416h-641l-155 -416h-271l617 1556h260l616 -1556h-155q-134 -113 -134 -197zM561 649h473l-235 619z" />
    <glyph glyph-name="aogonek" unicode="&#x105;" horiz-adv-x="1243" 
d="M1016 -12q-121 -105 -121 -187q0 -86 135 -86q35 0 62 4v-133q-40 -6 -97 -6q-124 0 -183.5 54.5t-59.5 132.5q0 41 17 78.5t50.5 70.5t53 48.5t52.5 38.5q5 3 7 5q-105 45 -117 142h-2q-55 -78 -152 -125.5t-221 -47.5q-96 0 -169.5 28t-115 75.5t-61.5 103t-20 117.5
q0 155 123 246q73 54 198.5 81t341.5 27h60v58q0 200 -211 200q-115 0 -167.5 -46.5t-56.5 -110.5h-233q1 52 14 99t46 94t83 81t131.5 55t186.5 21q108 0 187.5 -23.5t140 -76t91.5 -144t31 -221.5v-377q0 -66 17 -94t67 -35v-147h-108zM799 354v146h-70q-72 0 -129 -4.5
t-112.5 -17.5t-92 -34t-58.5 -55.5t-22 -81.5q0 -71 52 -110t147 -39q69 0 126 20t90 51t51 63.5t18 61.5z" />
    <glyph glyph-name="Cacute" unicode="&#x106;" horiz-adv-x="1673" 
d="M1104 2038l-338 -359h-195l222 359h311zM856 -33q-172 0 -313.5 59.5t-237 166t-147.5 254.5t-52 323q0 240 91.5 425t264.5 289.5t402 104.5q194 0 350 -80t248.5 -218t114.5 -312h-258q-31 169 -158 276t-311 107q-221 0 -351 -162t-130 -422q0 -261 130.5 -422
t354.5 -161q183 0 309 108t156 277h258q-35 -270 -230 -441.5t-491 -171.5z" />
    <glyph glyph-name="cacute" unicode="&#x107;" horiz-adv-x="1148" 
d="M829 1556l-337 -358h-195l221 358h311zM580 -33q-123 0 -222.5 43.5t-163.5 120.5t-98.5 181t-34.5 227q0 255 137.5 412t379.5 157q210 0 345.5 -117.5t147.5 -308.5h-237q-37 225 -252 225q-135 0 -208 -98t-73 -270q0 -173 73 -272t208 -99q100 0 167 57.5t85 149.5
h239q-8 -79 -43.5 -151t-96 -130t-152 -92.5t-201.5 -34.5z" />
    <glyph glyph-name="Cdotaccent" unicode="&#x10a;" horiz-adv-x="1673" 
d="M838 1761q-65 0 -110.5 45.5t-45.5 112.5q0 63 45.5 107.5t110.5 44.5t111 -44.5t46 -107.5q0 -67 -46 -112.5t-111 -45.5zM856 -33q-172 0 -313.5 59.5t-237 166t-147.5 254.5t-52 323q0 240 91.5 425t264.5 289.5t402 104.5q194 0 350 -80t248.5 -218t114.5 -312h-258
q-31 169 -158 276t-311 107q-221 0 -351 -162t-130 -422q0 -261 130.5 -422t354.5 -161q183 0 309 108t156 277h258q-35 -270 -230 -441.5t-491 -171.5z" />
    <glyph glyph-name="cdotaccent" unicode="&#x10b;" horiz-adv-x="1148" 
d="M565 1280q-65 0 -111 45.5t-46 112.5q0 63 46 107t111 44q63 0 109.5 -44t46.5 -107q0 -67 -46 -112.5t-110 -45.5zM580 -33q-123 0 -222.5 43.5t-163.5 120.5t-98.5 181t-34.5 227q0 255 137.5 412t379.5 157q210 0 345.5 -117.5t147.5 -308.5h-237q-37 225 -252 225
q-135 0 -208 -98t-73 -270q0 -173 73 -272t208 -99q100 0 167 57.5t85 149.5h239q-8 -79 -43.5 -151t-96 -130t-152 -92.5t-201.5 -34.5z" />
    <glyph glyph-name="Ccaron" unicode="&#x10c;" horiz-adv-x="1673" 
d="M1214 2038l-241 -359h-271l-241 359h186l191 -228l190 228h186zM856 -33q-172 0 -313.5 59.5t-237 166t-147.5 254.5t-52 323q0 240 91.5 425t264.5 289.5t402 104.5q194 0 350 -80t248.5 -218t114.5 -312h-258q-31 169 -158 276t-311 107q-221 0 -351 -162t-130 -422
q0 -261 130.5 -422t354.5 -161q183 0 309 108t156 277h258q-35 -270 -230 -441.5t-491 -171.5z" />
    <glyph glyph-name="ccaron" unicode="&#x10d;" horiz-adv-x="1148" 
d="M940 1556l-242 -358h-270l-242 358h187l192 -227l189 227h186zM580 -33q-123 0 -222.5 43.5t-163.5 120.5t-98.5 181t-34.5 227q0 255 137.5 412t379.5 157q210 0 345.5 -117.5t147.5 -308.5h-237q-37 225 -252 225q-135 0 -208 -98t-73 -270q0 -173 73 -272t208 -99
q100 0 167 57.5t85 149.5h239q-8 -79 -43.5 -151t-96 -130t-152 -92.5t-201.5 -34.5z" />
    <glyph glyph-name="Dcaron" unicode="&#x10e;" horiz-adv-x="1589" 
d="M1163 2038l-241 -359h-271l-241 359h186l190 -228l191 228h186zM801 -2l-617 2v1556h596q342 0 526.5 -190.5t184.5 -591.5q0 -382 -172.5 -579.5t-517.5 -196.5zM430 227h330q228 0 349.5 131.5t121.5 421.5q0 274 -116 411.5t-355 137.5h-330v-1102z" />
    <glyph glyph-name="dcaron" unicode="&#x10f;" horiz-adv-x="1265" 
d="M907 1556h242v-1556h-236v131q-54 -73 -151.5 -118.5t-196.5 -45.5q-215 0 -346 158t-131 416q0 255 132 411t349 156q96 0 186 -46.5t152 -125.5v620zM1597 1556l-215 -358h-161l98 358h278zM907 496v104q0 138 -80 222.5t-211 84.5q-130 0 -209 -100t-79 -264
q0 -169 80.5 -272t212.5 -103q129 0 207.5 90t78.5 238z" />
    <glyph glyph-name="Dcroat" unicode="&#x110;" horiz-adv-x="1589" 
d="M780 1556q342 0 526.5 -190.5t184.5 -591.5q0 -382 -172.5 -579.5t-517.5 -196.5l-617 2v684h-131v186h131v686h596zM760 227q228 0 349.5 131.5t121.5 421.5q0 274 -116 411.5t-355 137.5h-330v-459h309v-186h-309v-457h330z" />
    <glyph glyph-name="dcroat" unicode="&#x111;" horiz-adv-x="1259" 
d="M1370 1356v-187h-223v-1169h-236v131q-54 -73 -151 -118.5t-197 -45.5q-215 0 -346 158t-131 416q0 255 132.5 411t350.5 156q95 0 185.5 -46.5t150.5 -125.5v233h-221v187h221v200h242v-200h223zM905 496v104q0 138 -79.5 222.5t-211.5 84.5q-130 0 -209 -100t-79 -264
q0 -169 80 -272t212 -103q129 0 208 90t79 238z" />
    <glyph glyph-name="Emacron" unicode="&#x112;" horiz-adv-x="1468" 
d="M1077 1772h-686v184h686v-184zM428 240h858v-240h-1102v1556h1067v-239h-823v-391h746v-232h-746v-454z" />
    <glyph glyph-name="emacron" unicode="&#x113;" horiz-adv-x="1148" 
d="M907 1290h-686v185h686v-185zM580 -33q-123 0 -222 43.5t-163.5 120.5t-99 181.5t-34.5 228.5q0 253 137 410t373 157q219 0 359.5 -134t140.5 -358v-151l-766 -2q12 -138 84.5 -216.5t194.5 -78.5q96 0 163.5 49t86.5 113h239q-8 -63 -44 -125.5t-95.5 -116.5
t-152 -87.5t-201.5 -33.5zM307 633h527q0 133 -73.5 203.5t-187.5 70.5q-117 0 -191.5 -70t-74.5 -204z" />
    <glyph glyph-name="Edotaccent" unicode="&#x116;" horiz-adv-x="1468" 
d="M735 1761q-65 0 -111 45.5t-46 112.5q0 63 46 107.5t111 44.5q63 0 109.5 -44.5t46.5 -107.5q0 -67 -46 -112.5t-110 -45.5zM428 240h858v-240h-1102v1556h1067v-239h-823v-391h746v-232h-746v-454z" />
    <glyph glyph-name="edotaccent" unicode="&#x117;" horiz-adv-x="1148" 
d="M565 1280q-65 0 -111 45.5t-46 112.5q0 63 46 107t111 44q63 0 109.5 -44t46.5 -107q0 -67 -46 -112.5t-110 -45.5zM580 -33q-123 0 -222 43.5t-163.5 120.5t-99 181.5t-34.5 228.5q0 253 137 410t373 157q219 0 359.5 -134t140.5 -358v-151l-766 -2q12 -138 84.5 -216.5
t194.5 -78.5q96 0 163.5 49t86.5 113h239q-8 -63 -44 -125.5t-95.5 -116.5t-152 -87.5t-201.5 -33.5zM307 633h527q0 133 -73.5 203.5t-187.5 70.5q-117 0 -191.5 -70t-74.5 -204z" />
    <glyph glyph-name="Eogonek" unicode="&#x118;" horiz-adv-x="1468" 
d="M1251 -283q35 0 62 4v-133q-41 -6 -96 -6q-124 0 -184 54.5t-60 130.5q0 40 16.5 77t47 68.5t51 48t51.5 39.5h-955v1556h1067v-239h-823v-391h746v-232h-746v-454h858v-240h-37q-133 -112 -133 -197q0 -86 135 -86z" />
    <glyph glyph-name="eogonek" unicode="&#x119;" horiz-adv-x="1185" 
d="M639 -31q-98 -90 -98 -166q0 -86 135 -86q34 0 61 4v-133q-40 -6 -96 -6q-124 0 -184 54.5t-60 130.5q0 103 125 202q-219 20 -340 177t-121 395q0 253 137 410t373 157q219 0 359.5 -134t140.5 -358v-151l-766 -2q12 -138 84.5 -216.5t194.5 -78.5q96 0 163.5 49
t86.5 113h239q-15 -126 -131.5 -234.5t-302.5 -126.5zM573 907q-117 0 -191.5 -70t-74.5 -204h527q0 133 -73.5 203.5t-187.5 70.5z" />
    <glyph glyph-name="Ecaron" unicode="&#x11a;" horiz-adv-x="1468" 
d="M1110 2038l-242 -359h-270l-242 359h187l192 -228l189 228h186zM428 240h858v-240h-1102v1556h1067v-239h-823v-391h746v-232h-746v-454z" />
    <glyph glyph-name="ecaron" unicode="&#x11b;" horiz-adv-x="1148" 
d="M940 1556l-242 -358h-270l-242 358h187l192 -227l189 227h186zM580 -33q-123 0 -222 43.5t-163.5 120.5t-99 181.5t-34.5 228.5q0 253 137 410t373 157q219 0 359.5 -134t140.5 -358v-151l-766 -2q12 -138 84.5 -216.5t194.5 -78.5q96 0 163.5 49t86.5 113h239
q-8 -63 -44 -125.5t-95.5 -116.5t-152 -87.5t-201.5 -33.5zM307 633h527q0 133 -73.5 203.5t-187.5 70.5q-117 0 -191.5 -70t-74.5 -204z" />
    <glyph glyph-name="Gbreve" unicode="&#x11e;" horiz-adv-x="1710" 
d="M1073 2038h191q0 -161 -106 -260t-281 -99t-282.5 99t-107.5 260h191q0 -89 55 -143t144 -54t142.5 54t53.5 143zM922 -33q-372 0 -594 222.5t-222 590.5q0 367 208 588t546 221q285 0 482.5 -153.5t234.5 -401.5h-258q-36 148 -160 238t-301 90q-223 0 -356 -158.5
t-133 -425.5q0 -266 149.5 -424.5t405.5 -158.5q125 0 240 45t177 122v228h-530v225h766v-536q-91 -141 -271 -226.5t-384 -85.5z" />
    <glyph glyph-name="gbreve" unicode="&#x11f;" horiz-adv-x="1241" 
d="M809 1556h190q0 -161 -107 -259.5t-282 -98.5q-174 0 -281.5 98.5t-107.5 259.5h191q0 -89 54.5 -142.5t143.5 -53.5q91 0 145 53.5t54 142.5zM881 1075h241v-975q0 -169 -33.5 -285.5t-100.5 -183t-155 -95t-208 -28.5q-449 0 -523 373h238q23 -88 94.5 -132t177.5 -44
q147 0 207 87t62 284v69q-118 -178 -342 -178q-222 0 -350 161t-128 419q0 118 29 219t85.5 178t146.5 120.5t204 43.5q239 0 355 -186v153zM881 496v104q0 142 -83 224.5t-212 82.5q-139 0 -217 -97t-78 -267q0 -173 79.5 -274t219.5 -101q131 0 211 86.5t80 241.5z" />
    <glyph glyph-name="Gdotaccent" unicode="&#x120;" horiz-adv-x="1710" 
d="M877 1761q-65 0 -111.5 45.5t-46.5 112.5q0 63 46.5 107.5t111.5 44.5q63 0 110 -44.5t47 -107.5q0 -67 -46.5 -112.5t-110.5 -45.5zM922 -33q-372 0 -594 222.5t-222 590.5q0 367 208 588t546 221q285 0 482.5 -153.5t234.5 -401.5h-258q-36 148 -160 238t-301 90
q-223 0 -356 -158.5t-133 -425.5q0 -266 149.5 -424.5t405.5 -158.5q125 0 240 45t177 122v228h-530v225h766v-536q-91 -141 -271 -226.5t-384 -85.5z" />
    <glyph glyph-name="gdotaccent" unicode="&#x121;" horiz-adv-x="1241" 
d="M610 1280q-65 0 -110 45.5t-45 112.5q0 63 45 107t110 44t111.5 -44t46.5 -107q0 -67 -46.5 -112.5t-111.5 -45.5zM881 1075h241v-975q0 -169 -33.5 -285.5t-100.5 -183t-155 -95t-208 -28.5q-449 0 -523 373h238q23 -88 94.5 -132t177.5 -44q147 0 207 87t62 284v69
q-118 -178 -342 -178q-222 0 -350 161t-128 419q0 118 29 219t85.5 178t146.5 120.5t204 43.5q239 0 355 -186v153zM881 496v104q0 142 -83 224.5t-212 82.5q-139 0 -217 -97t-78 -267q0 -173 79.5 -274t219.5 -101q131 0 211 86.5t80 241.5z" />
    <glyph glyph-name="Gcommaaccent" unicode="&#x122;" horiz-adv-x="1710" 
d="M922 -33q-372 0 -594 222.5t-222 590.5q0 367 208 588t546 221q285 0 482.5 -153.5t234.5 -401.5h-258q-36 148 -160 238t-301 90q-223 0 -356 -158.5t-133 -425.5q0 -266 149.5 -424.5t405.5 -158.5q125 0 240 45t177 122v228h-530v225h766v-536q-91 -141 -271 -226.5
t-384 -85.5zM731 -492l70 349h223l-129 -349h-164z" />
    <glyph glyph-name="gcommaaccent" unicode="&#x123;" horiz-adv-x="1241" 
d="M739 1731l-100 -267h111v-266h-279v266l129 267h139zM881 1075h241v-975q0 -169 -33.5 -285.5t-100.5 -183t-155 -95t-208 -28.5q-449 0 -523 373h238q23 -88 94.5 -132t177.5 -44q147 0 207 87t62 284v69q-118 -178 -342 -178q-222 0 -350 161t-128 419q0 118 29 219
t85.5 178t146.5 120.5t204 43.5q239 0 355 -186v153zM881 496v104q0 142 -83 224.5t-212 82.5q-139 0 -217 -97t-78 -267q0 -173 79.5 -274t219.5 -101q131 0 211 86.5t80 241.5z" />
    <glyph glyph-name="Hbar" unicode="&#x126;" horiz-adv-x="1579" 
d="M1473 1276v-186h-78v-1090h-246v690h-719v-690h-246v1090h-78v186h78v280h246v-280h719v280h246v-280h78zM1149 926v164h-719v-164h719z" />
    <glyph glyph-name="hbar" unicode="&#x127;" horiz-adv-x="1224" 
d="M719 1108q183 0 288 -118t105 -318v-672h-242v590q0 155 -59.5 236t-167.5 81q-119 0 -200 -93.5t-81 -248.5v-565h-241v1188h-125v186h125v182h241v-182h320v-186h-320v-275q41 69 103 114.5t124 63t130 17.5z" />
    <glyph glyph-name="Imacron" unicode="&#x12a;" 
d="M616 1772h-686v184h686v-184zM152 0v1556h245v-1556h-245z" />
    <glyph glyph-name="imacron" unicode="&#x12b;" 
d="M618 1290h-686v185h686v-185zM154 0v1075h241v-1075h-241z" />
    <glyph glyph-name="Iogonek" unicode="&#x12e;" 
d="M379 -283q34 0 61 4v-133q-41 -6 -96 -6q-124 0 -184 54.5t-60 130.5q0 40 16.5 77t47 68.5t51 48t51.5 39.5h-114v1556h245v-1556h-20q-133 -114 -133 -197q0 -86 135 -86z" />
    <glyph glyph-name="iogonek" unicode="&#x12f;" horiz-adv-x="608" 
d="M227 1556h260v-243h-260v243zM238 0v1075h241v-1075h-82q-133 -112 -133 -197q0 -86 135 -86q35 0 62 4v-133q-40 -6 -96 -6q-124 0 -184 54.5t-60 130.5q0 40 16.5 77t47 68.5t51 48t51.5 39.5h-49z" />
    <glyph glyph-name="Idotaccent" unicode="&#x130;" 
d="M272 1761q-65 0 -110 45.5t-45 112.5q0 63 45.5 107.5t109.5 44.5q65 0 111.5 -44.5t46.5 -107.5q0 -67 -46.5 -112.5t-111.5 -45.5zM152 0v1556h245v-1556h-245z" />
    <glyph glyph-name="dotlessi" unicode="&#x131;" 
d="M154 0v1075h241v-1075h-241z" />
    <glyph glyph-name="Kcommaaccent" unicode="&#x136;" horiz-adv-x="1394" 
d="M653 793l690 -793h-305l-608 698v-698h-246v1556h246v-682l576 682h305zM526 -492l70 349h223l-129 -349h-164z" />
    <glyph glyph-name="kcommaaccent" unicode="&#x137;" horiz-adv-x="1007" 
d="M569 539l416 -539h-262l-361 446v-446h-241v1556h241v-950l328 469h262zM338 -492l70 349h223l-129 -349h-164z" />
    <glyph glyph-name="Lacute" unicode="&#x139;" horiz-adv-x="1261" 
d="M891 2038l-338 -359h-195l222 359h311zM428 240h803v-240h-1047v1556h244v-1316z" />
    <glyph glyph-name="lacute" unicode="&#x13a;" horiz-adv-x="481" 
d="M508 1995l-338 -359h-195l222 359h311zM121 0v1556h241v-1556h-241z" />
    <glyph glyph-name="Lcommaaccent" unicode="&#x13b;" horiz-adv-x="1261" 
d="M428 240h803v-240h-1047v1556h244v-1316zM479 -492l70 349h223l-129 -349h-164z" />
    <glyph glyph-name="lcommaaccent" unicode="&#x13c;" horiz-adv-x="481" 
d="M121 0v1556h241v-1556h-241zM90 -492l70 349h223l-129 -349h-164z" />
    <glyph glyph-name="Lcaron" unicode="&#x13d;" horiz-adv-x="1312" 
d="M428 240h803v-240h-1047v1556h244v-1316zM1282 1556l-215 -358h-162l99 358h278z" />
    <glyph glyph-name="lcaron" unicode="&#x13e;" horiz-adv-x="614" 
d="M141 0v1556h242v-1556h-242zM881 1556l-215 -358h-162l98 358h279z" />
    <glyph glyph-name="Lslash" unicode="&#x141;" horiz-adv-x="1261" 
d="M428 240h803v-240h-1047v705l-188 -127v262l188 127v589h244v-428l211 142v-262l-211 -142v-626z" />
    <glyph glyph-name="lslash" unicode="&#x142;" horiz-adv-x="481" 
d="M569 1112v-262l-207 -139v-711h-241v551l-195 -131v262l195 131v743h241v-583z" />
    <glyph glyph-name="Nacute" unicode="&#x143;" horiz-adv-x="1579" 
d="M1051 2038l-338 -359h-195l221 359h312zM184 0v1556h240l725 -1163v1163h246v-1556h-250l-715 1118v-1118h-246z" />
    <glyph glyph-name="nacute" unicode="&#x144;" horiz-adv-x="1243" 
d="M879 1556l-338 -358h-195l221 358h312zM121 0v1075h241v-162q41 69 103 114.5t124 63t130 17.5q182 0 287.5 -120.5t105.5 -319.5v-668h-242v590q0 155 -59.5 236t-167.5 81q-119 0 -200 -93.5t-81 -248.5v-565h-241z" />
    <glyph glyph-name="Ncommaaccent" unicode="&#x145;" horiz-adv-x="1579" 
d="M184 0v1556h240l725 -1163v1163h246v-1556h-250l-715 1118v-1118h-246zM639 -492l70 349h223l-129 -349h-164z" />
    <glyph glyph-name="ncommaaccent" unicode="&#x146;" horiz-adv-x="1243" 
d="M121 0v1075h241v-162q41 69 103 114.5t124 63t130 17.5q182 0 287.5 -120.5t105.5 -319.5v-668h-242v590q0 155 -59.5 236t-167.5 81q-119 0 -200 -93.5t-81 -248.5v-565h-241zM467 -492l70 349h223l-129 -349h-164z" />
    <glyph glyph-name="Ncaron" unicode="&#x147;" horiz-adv-x="1579" 
d="M1161 2038l-241 -359h-271l-241 359h186l192 -228l189 228h186zM184 0v1556h240l725 -1163v1163h246v-1556h-250l-715 1118v-1118h-246z" />
    <glyph glyph-name="ncaron" unicode="&#x148;" horiz-adv-x="1243" 
d="M989 1556l-241 -358h-271l-241 358h186l192 -227l191 227h184zM121 0v1075h241v-162q41 69 103 114.5t124 63t130 17.5q182 0 287.5 -120.5t105.5 -319.5v-668h-242v590q0 155 -59.5 236t-167.5 81q-119 0 -200 -93.5t-81 -248.5v-565h-241z" />
    <glyph glyph-name="Eng" unicode="&#x14a;" horiz-adv-x="1579" 
d="M987 -492q-100 0 -178.5 27t-124.5 67t-77 94.5t-43 102t-15 97.5h252q1 -20 3.5 -37t13 -45.5t28 -48.5t51.5 -35t80 -15q45 0 76.5 15.5t49.5 38.5t28 62t13.5 72t4.5 83l-715 1132v-1118h-250v1556h246l715 -1163v1163h250v-1556q0 -80 -7 -141t-32 -130.5t-67.5 -115
t-119.5 -75.5t-182 -30z" />
    <glyph glyph-name="eng" unicode="&#x14b;" horiz-adv-x="1243" 
d="M791 -492q-40 0 -77.5 3t-55.5 7l-17 3v194q23 -6 66 -6q86 0 124.5 33.5t38.5 103.5v760q0 301 -217 301q-130 0 -210.5 -92.5t-80.5 -249.5v-565h-241v1075h241v-162q119 195 365 195q184 0 284 -115t101 -342v-815q0 -162 -74 -245t-247 -83z" />
    <glyph glyph-name="Omacron" unicode="&#x14c;" horiz-adv-x="1740" 
d="M1214 1772h-686v184h686v-184zM872 -33q-232 0 -406.5 103.5t-267 287t-92.5 420.5t92.5 420.5t267 287t406.5 103.5q231 0 404.5 -103.5t265.5 -287t92 -420.5t-92 -420.5t-265.5 -287t-404.5 -103.5zM870 195q153 0 268 76.5t174.5 208t59.5 298.5t-59.5 298.5
t-174.5 208.5t-268 77q-152 0 -267 -77t-174.5 -209t-59.5 -298t59.5 -298t174.5 -208.5t267 -76.5z" />
    <glyph glyph-name="omacron" unicode="&#x14d;" horiz-adv-x="1183" 
d="M934 1290h-684v185h684v-185zM594 -33q-239 0 -386 162t-147 410q0 251 146 410t387 159q239 0 383.5 -158.5t144.5 -410.5q0 -163 -64 -292.5t-185 -204.5t-279 -75zM592 168q136 0 213.5 99.5t77.5 271.5q0 171 -77.5 269.5t-213.5 98.5t-213.5 -98.5t-77.5 -269.5
q0 -172 77.5 -271.5t213.5 -99.5z" />
    <glyph glyph-name="Ohungarumlaut" unicode="&#x150;" horiz-adv-x="1740" 
d="M895 2038l-338 -359h-195l222 359h311zM1376 2038l-338 -359h-194l221 359h311zM872 -33q-232 0 -406.5 103.5t-267 287t-92.5 420.5t92.5 420.5t267 287t406.5 103.5q231 0 404.5 -103.5t265.5 -287t92 -420.5t-92 -420.5t-265.5 -287t-404.5 -103.5zM870 195
q153 0 268 76.5t174.5 208t59.5 298.5t-59.5 298.5t-174.5 208.5t-268 77q-152 0 -267 -77t-174.5 -209t-59.5 -298t59.5 -298t174.5 -208.5t267 -76.5z" />
    <glyph glyph-name="ohungarumlaut" unicode="&#x151;" horiz-adv-x="1183" 
d="M616 1556l-337 -358h-195l221 358h311zM1098 1556l-338 -358h-195l221 358h312zM594 -33q-239 0 -386 162t-147 410q0 251 146 410t387 159q239 0 383.5 -158.5t144.5 -410.5q0 -163 -64 -292.5t-185 -204.5t-279 -75zM592 168q136 0 213.5 99.5t77.5 271.5
q0 171 -77.5 269.5t-213.5 98.5t-213.5 -98.5t-77.5 -269.5q0 -172 77.5 -271.5t213.5 -99.5z" />
    <glyph glyph-name="OE" unicode="&#x152;" horiz-adv-x="2662" 
d="M870 -33q-232 0 -406 103.5t-266 287t-92 420.5t92 420.5t266 287t406 103.5q314 0 508 -200v172h1067v-242h-819v-385h741v-242h-741v-448h854v-240h-1102v166q-194 -203 -508 -203zM868 195q153 0 268 76.5t174.5 208t59.5 298.5t-59.5 298.5t-174.5 208.5t-268 77
q-227 0 -363 -165t-136 -419t136 -418.5t363 -164.5z" />
    <glyph glyph-name="oe" unicode="&#x153;" horiz-adv-x="2002" 
d="M608 -33q-165 0 -290.5 75t-191 204.5t-65.5 292.5q0 166 65.5 294.5t191 201.5t292.5 73q135 0 242.5 -49.5t177.5 -140.5q66 91 168.5 140.5t233.5 49.5q218 0 351 -133.5t142 -390.5v-115l-2 -4l-764 -2q14 -138 86 -216.5t195 -78.5q104 0 170.5 54.5t79.5 137.5h237
q-2 -73 -37.5 -143t-97 -126t-155 -90t-203.5 -34q-265 0 -404 195q-71 -92 -179 -143.5t-243 -51.5zM608 168q148 0 227.5 98.5t79.5 272.5q0 172 -79.5 270t-227.5 98t-227.5 -98t-79.5 -270q0 -174 79.5 -272.5t227.5 -98.5zM1161 641h527q-32 266 -252 266
q-118 0 -189 -71t-86 -195z" />
    <glyph glyph-name="Racute" unicode="&#x154;" horiz-adv-x="1378" 
d="M950 2038l-338 -359h-194l221 359h311zM184 0v1556h559q251 0 391 -108.5t140 -321.5q0 -177 -122.5 -291.5t-332.5 -123.5q-35 -2 -102 -2l631 -709h-304l-616 700v-700h-244zM428 909h317q115 0 196 54t81 157t-77 160t-224 57h-293v-428z" />
    <glyph glyph-name="racute" unicode="&#x155;" horiz-adv-x="753" 
d="M635 1556l-338 -358h-195l222 358h311zM121 0v1075h231v-192q65 127 189 184q76 35 200 35v-248h-39q-154 0 -247 -100t-93 -267v-487h-241z" />
    <glyph glyph-name="Rcommaaccent" unicode="&#x156;" horiz-adv-x="1378" 
d="M184 0v1556h559q251 0 391 -108.5t140 -321.5q0 -177 -122.5 -291.5t-332.5 -123.5q-35 -2 -102 -2l631 -709h-304l-616 700v-700h-244zM428 909h317q115 0 196 54t81 157t-77 160t-224 57h-293v-428zM539 -492l69 349h223l-129 -349h-163z" />
    <glyph glyph-name="rcommaaccent" unicode="&#x157;" horiz-adv-x="753" 
d="M121 0v1075h231v-192q65 127 189 184q76 35 200 35v-248h-39q-154 0 -247 -100t-93 -267v-487h-241zM236 -492l69 349h223l-129 -349h-163z" />
    <glyph glyph-name="Rcaron" unicode="&#x158;" horiz-adv-x="1378" 
d="M1061 2038l-242 -359h-270l-242 359h187l192 -228l188 228h187zM184 0v1556h559q251 0 391 -108.5t140 -321.5q0 -177 -122.5 -291.5t-332.5 -123.5q-35 -2 -102 -2l631 -709h-304l-616 700v-700h-244zM428 909h317q115 0 196 54t81 157t-77 160t-224 57h-293v-428z" />
    <glyph glyph-name="rcaron" unicode="&#x159;" horiz-adv-x="753" 
d="M745 1556l-241 -358h-271l-241 358h186l193 -227l190 227h184zM121 0v1075h231v-192q65 127 189 184q76 35 200 35v-248h-39q-154 0 -247 -100t-93 -267v-487h-241z" />
    <glyph glyph-name="Sacute" unicode="&#x15a;" horiz-adv-x="1378" 
d="M952 2019l-338 -358h-194l221 358h311zM748 -33q-166 0 -295 41.5t-210 115.5t-126.5 169.5t-55.5 210.5h261q41 -174 154 -246t296 -72q141 0 221 54.5t80 156.5q0 43 -17 79t-40.5 59.5t-61.5 43.5t-67 31t-70 23q-9 3 -140.5 39t-209.5 65q-77 29 -131.5 60.5
t-101 77.5t-70 109t-23.5 144q0 98 34 178t89.5 131.5t130 86.5t153 50t161.5 15q267 0 415 -142t156 -378h-260q-6 71 -29 125.5t-55.5 86.5t-76.5 52.5t-85 27.5t-88 7q-32 0 -64.5 -4t-74 -18t-72.5 -36t-52.5 -62.5t-21.5 -94.5q0 -75 43.5 -120.5t141.5 -82.5
q32 -12 65 -22t58 -17t73.5 -20t85.5 -23q129 -34 188 -60q261 -115 261 -388q0 -231 -143 -342t-426 -111z" />
    <glyph glyph-name="sacute" unicode="&#x15b;" horiz-adv-x="1095" 
d="M829 1556l-337 -358h-195l221 358h311zM596 -33q-129 0 -228 29t-162 81.5t-97 121.5t-41 153h231q23 -106 95.5 -150t205.5 -44q86 0 134 32.5t48 98.5q0 27 -14.5 49.5t-32.5 37t-53 28.5t-56.5 20.5t-62.5 17.5q-75 19 -123 33.5t-104.5 36.5t-91 46t-65.5 57
t-45.5 76t-14.5 97q-1 84 33.5 147t97.5 100t142.5 55t174.5 18q200 0 310 -97t118 -263h-233q-5 49 -25 84t-50.5 53.5t-63.5 26.5t-70 8q-209 0 -209 -125q0 -23 8 -41t29.5 -33.5t43 -26.5t63.5 -23.5t75 -21t94 -22.5q45 -11 74 -19t71 -23t68.5 -30.5t57 -40t48 -53.5
t29 -69.5t11.5 -88.5q0 -169 -108 -252.5t-312 -83.5z" />
    <glyph glyph-name="Scedilla" unicode="&#x15e;" horiz-adv-x="1378" 
d="M748 -33h-23l-74 -71h33q78 0 126 -38t48 -100q0 -73 -59 -116t-166 -43h-117v104h109q42 0 67 14t25 39q0 22 -25 34.5t-67 12.5h-88v93l71 79q-131 16 -232.5 63.5t-166.5 118.5t-101.5 158t-46.5 189h261q41 -174 154 -246t296 -72q141 0 221 54.5t80 156.5
q0 43 -17 79t-40.5 59.5t-61.5 43.5t-67 31t-70 23q-9 3 -140.5 39t-209.5 65q-77 29 -131.5 60.5t-101 77.5t-70 109t-23.5 144q0 98 34 178t89.5 131.5t130 86.5t153 50t161.5 15q267 0 415 -142t156 -378h-260q-6 71 -29 125.5t-55.5 86.5t-76.5 52.5t-85 27.5t-88 7
q-32 0 -64.5 -4t-74 -18t-72.5 -36t-52.5 -62.5t-21.5 -94.5q0 -75 43.5 -120.5t141.5 -82.5q32 -12 65 -22t58 -17t73.5 -20t85.5 -23q129 -34 188 -60q261 -115 261 -388q0 -231 -143 -342t-426 -111z" />
    <glyph glyph-name="scedilla" unicode="&#x15f;" horiz-adv-x="1095" 
d="M1016 303q0 -168 -106.5 -251t-307.5 -85l-74 -71h33q78 0 126 -38t48 -100q0 -73 -59 -116t-166 -43h-117v104h109q42 0 67 14t25 39q0 22 -25 34.5t-67 12.5h-88v93l69 77q-197 24 -299.5 124.5t-115.5 254.5h231q23 -106 95.5 -150t205.5 -44q86 0 134 32.5t48 98.5
q0 27 -14.5 49.5t-32.5 37t-53 28.5t-56.5 20.5t-62.5 17.5q-75 19 -123 33.5t-104.5 36.5t-91 46t-65.5 57t-45.5 76t-14.5 97q-1 84 33.5 147t97.5 100t142.5 55t174.5 18q200 0 310 -97t118 -263h-233q-5 49 -25 84t-50.5 53.5t-63.5 26.5t-70 8q-209 0 -209 -125
q0 -23 8 -41t29.5 -33.5t43 -26.5t63.5 -23.5t75 -21t94 -22.5q45 -11 74 -19t71 -23t68.5 -30.5t57 -40t48 -53.5t29 -69.5t11.5 -88.5z" />
    <glyph glyph-name="Scaron" unicode="&#x160;" horiz-adv-x="1378" 
d="M1063 2019l-242 -358h-270l-242 358h187l190 -227l191 227h186zM748 -33q-166 0 -295 41.5t-210 115.5t-126.5 169.5t-55.5 210.5h261q41 -174 154 -246t296 -72q141 0 221 54.5t80 156.5q0 43 -17 79t-40.5 59.5t-61.5 43.5t-67 31t-70 23q-9 3 -140.5 39t-209.5 65
q-77 29 -131.5 60.5t-101 77.5t-70 109t-23.5 144q0 98 34 178t89.5 131.5t130 86.5t153 50t161.5 15q267 0 415 -142t156 -378h-260q-6 71 -29 125.5t-55.5 86.5t-76.5 52.5t-85 27.5t-88 7q-32 0 -64.5 -4t-74 -18t-72.5 -36t-52.5 -62.5t-21.5 -94.5q0 -75 43.5 -120.5
t141.5 -82.5q32 -12 65 -22t58 -17t73.5 -20t85.5 -23q129 -34 188 -60q261 -115 261 -388q0 -231 -143 -342t-426 -111z" />
    <glyph glyph-name="scaron" unicode="&#x161;" horiz-adv-x="1095" 
d="M940 1556l-242 -358h-270l-242 358h187l190 -227l191 227h186zM596 -33q-129 0 -228 29t-162 81.5t-97 121.5t-41 153h231q23 -106 95.5 -150t205.5 -44q86 0 134 32.5t48 98.5q0 27 -14.5 49.5t-32.5 37t-53 28.5t-56.5 20.5t-62.5 17.5q-75 19 -123 33.5t-104.5 36.5
t-91 46t-65.5 57t-45.5 76t-14.5 97q-1 84 33.5 147t97.5 100t142.5 55t174.5 18q200 0 310 -97t118 -263h-233q-5 49 -25 84t-50.5 53.5t-63.5 26.5t-70 8q-209 0 -209 -125q0 -23 8 -41t29.5 -33.5t43 -26.5t63.5 -23.5t75 -21t94 -22.5q45 -11 74 -19t71 -23t68.5 -30.5
t57 -40t48 -53.5t29 -69.5t11.5 -88.5q0 -169 -108 -252.5t-312 -83.5z" />
    <glyph glyph-name="uni0162" unicode="&#x162;" horiz-adv-x="1296" 
d="M647 -104q78 0 125 -38t47 -100q0 -73 -58.5 -116t-164.5 -43h-117v104h109q42 0 67 14t25 39q0 22 -25 34.5t-67 12.5h-88v93l94 104h-68v1317h-475v239h1192l2 -239h-473v-1262h6l-6 -6v-49h-51l-107 -104h33z" />
    <glyph glyph-name="uni0163" unicode="&#x163;" horiz-adv-x="737" 
d="M524 -20q-52 0 -96 6l-92 -90h33q78 0 125 -38t47 -100q0 -73 -59 -116t-165 -43h-116v104h108q42 0 67 14t25 39q0 22 -25 34.5t-67 12.5h-88v93l107 118q-146 65 -146 289v561h-137v189q88 0 119 40t31 136v123h229v-277h227v-211h-227v-499q0 -98 39.5 -134t136.5 -36
q43 0 70 2v-209q-65 -8 -146 -8z" />
    <glyph glyph-name="Tcaron" unicode="&#x164;" horiz-adv-x="1296" 
d="M1024 2038l-242 -359h-270l-242 359h187l192 -228l191 228h184zM1245 1317h-473v-1317h-246v1317h-475v239h1192z" />
    <glyph glyph-name="tcaron" unicode="&#x165;" horiz-adv-x="737" 
d="M950 1556l-215 -358h-162l99 358h278zM518 -20q-187 0 -265.5 79.5t-78.5 243.5v561h-137v189q88 0 118.5 40t30.5 136v123h230v-277h227v-211h-227v-499q0 -99 40 -134.5t138 -35.5q41 0 68 2v-209q-65 -8 -144 -8z" />
    <glyph glyph-name="Tbar" unicode="&#x166;" horiz-adv-x="1296" 
d="M772 1317v-447h219v-186h-219v-684h-246v684h-219v186h219v447h-475v239h1192l2 -239h-473z" />
    <glyph glyph-name="tbar" unicode="&#x167;" horiz-adv-x="858" 
d="M645 182q91 0 103 6v-196q-1 0 -11.5 -1t-28 -3t-39.5 -4t-50.5 -3t-55.5 -1q-178 0 -254 78t-76 233v153h-137v187h137v252h-137v182q78 0 114 47.5t36 147.5v92h229v-277h230v-192h-230v-252h230v-187h-230v-94q0 -93 38.5 -130.5t131.5 -37.5z" />
    <glyph glyph-name="Umacron" unicode="&#x16a;" horiz-adv-x="1527" 
d="M1128 1772h-686v184h686v-184zM791 -33q-109 0 -197 20t-151 55t-109.5 89t-74.5 114t-45.5 138t-23.5 153.5t-6 168.5v851h246v-800q0 -79 2.5 -133.5t10.5 -118t23 -105.5t42 -84t64.5 -66t92.5 -39t126 -15q62 0 111.5 10.5t85.5 32.5t63 49t44.5 68.5t28.5 81
t16 96.5t7 106t2 117v800h246v-851q0 -94 -6 -170.5t-23 -155t-45.5 -138t-74.5 -113t-108.5 -87.5t-150 -54t-196.5 -20z" />
    <glyph glyph-name="umacron" unicode="&#x16b;" horiz-adv-x="1208" 
d="M938 1290h-686v185h686v-185zM483 -33q-186 0 -285.5 115t-99.5 342v651h242v-606q0 -301 217 -301q129 0 210 93t81 251v563h242v-1075h-242v178q-115 -211 -365 -211z" />
    <glyph glyph-name="Uring" unicode="&#x16e;" horiz-adv-x="1527" 
d="M786 1702q-84 0 -134 50t-50 134q0 80 50 129t134 49q83 0 134 -49t51 -129q0 -83 -51 -133.5t-134 -50.5zM786 1810q32 0 52 21t20 53t-20 52t-52 20q-34 0 -53.5 -20t-19.5 -52q0 -33 20 -53.5t53 -20.5zM791 -33q-109 0 -197 20t-151 55t-109.5 89t-74.5 114
t-45.5 138t-23.5 153.5t-6 168.5v851h246v-800q0 -79 2.5 -133.5t10.5 -118t23 -105.5t42 -84t64.5 -66t92.5 -39t126 -15q62 0 111.5 10.5t85.5 32.5t63 49t44.5 68.5t28.5 81t16 96.5t7 106t2 117v800h246v-851q0 -94 -6 -170.5t-23 -155t-45.5 -138t-74.5 -113
t-108.5 -87.5t-150 -54t-196.5 -20z" />
    <glyph glyph-name="uring" unicode="&#x16f;" horiz-adv-x="1208" 
d="M594 1221q-83 0 -133.5 50.5t-50.5 133.5q0 80 50.5 129t133.5 49q84 0 134 -49t50 -129q0 -84 -50 -134t-134 -50zM594 1329q33 0 53.5 20.5t20.5 53.5q0 32 -20 52t-54 20q-32 0 -52 -20t-20 -52t20 -53t52 -21zM483 -33q-186 0 -285.5 115t-99.5 342v651h242v-606
q0 -301 217 -301q129 0 210 93t81 251v563h242v-1075h-242v178q-115 -211 -365 -211z" />
    <glyph glyph-name="Uhungarumlaut" unicode="&#x170;" horiz-adv-x="1527" 
d="M811 2038l-338 -359h-194l221 359h311zM1290 2038l-338 -359h-194l221 359h311zM791 -33q-109 0 -197 20t-151 55t-109.5 89t-74.5 114t-45.5 138t-23.5 153.5t-6 168.5v851h246v-800q0 -79 2.5 -133.5t10.5 -118t23 -105.5t42 -84t64.5 -66t92.5 -39t126 -15
q62 0 111.5 10.5t85.5 32.5t63 49t44.5 68.5t28.5 81t16 96.5t7 106t2 117v800h246v-851q0 -94 -6 -170.5t-23 -155t-45.5 -138t-74.5 -113t-108.5 -87.5t-150 -54t-196.5 -20z" />
    <glyph glyph-name="uhungarumlaut" unicode="&#x171;" horiz-adv-x="1208" 
d="M621 1556l-338 -358h-195l221 358h312zM1100 1556l-338 -358h-195l221 358h312zM483 -33q-186 0 -285.5 115t-99.5 342v651h242v-606q0 -301 217 -301q129 0 210 93t81 251v563h242v-1075h-242v178q-115 -211 -365 -211z" />
    <glyph glyph-name="Uogonek" unicode="&#x172;" horiz-adv-x="1527" 
d="M1149 1556h246v-851q0 -91 -6 -165.5t-21.5 -151t-42 -135.5t-69.5 -112.5t-100.5 -89t-138.5 -58t-181 -26.5q-99 -94 -99 -164q0 -86 135 -86q35 0 62 4v-133q-41 -6 -96 -6q-124 0 -184 54.5t-60 130.5q0 103 125 202q-96 7 -173.5 31t-132.5 60.5t-96 90.5t-66.5 112
t-40.5 133.5t-20.5 148t-5.5 160.5v851h246v-800q0 -79 2.5 -133.5t10.5 -118t23 -105.5t42 -84t64.5 -66t92.5 -39t126 -15q62 0 111.5 10.5t85.5 32.5t63 49t44.5 68.5t28.5 81t16 96.5t7 106t2 117v800z" />
    <glyph glyph-name="uogonek" unicode="&#x173;" horiz-adv-x="1208" 
d="M1026 0q-133 -114 -133 -197q0 -86 135 -86q35 0 62 4v-133q-40 -6 -97 -6q-124 0 -183.5 54.5t-59.5 130.5q0 32 12.5 64t28.5 54.5t42 47.5t42 37.5t40 29.5h-67v178q-115 -211 -365 -211q-186 0 -285.5 115t-99.5 342v651h242v-606q0 -301 217 -301q129 0 210 93
t81 251v563h242v-1075h-64z" />
    <glyph glyph-name="Wcircumflex" unicode="&#x174;" horiz-adv-x="2258" 
d="M1505 1679h-186l-189 228l-192 -228h-186l241 359h271zM459 0l-428 1556h274l293 -1267l377 1267h309l377 -1267l293 1267h274l-428 -1556h-270l-402 1300l-399 -1300h-270z" />
    <glyph glyph-name="wcircumflex" unicode="&#x175;" horiz-adv-x="1828" 
d="M1290 1198h-184l-191 227l-192 -227h-186l241 358h271zM430 0l-407 1075h258l268 -805h4l242 805h239l244 -805h4l266 805h258l-409 -1075h-236l-243 819h-5l-245 -819h-238z" />
    <glyph glyph-name="Ycircumflex" unicode="&#x176;" horiz-adv-x="1421" 
d="M1087 1679h-186l-190 228l-191 -228h-186l241 359h271zM586 0v541l-541 1015h279l387 -790l387 790h278l-542 -1015v-541h-248z" />
    <glyph glyph-name="ycircumflex" unicode="&#x177;" horiz-adv-x="1097" 
d="M926 1198h-187l-188 227l-193 -227h-186l242 358h270zM258 -492l172 492l-407 1075h258l231 -706l37 -103h4l35 103l229 706h258l-379 -989l-200 -578h-238z" />
    <glyph glyph-name="Ydieresis" unicode="&#x178;" horiz-adv-x="1421" 
d="M434 1831v207h199v-207h-199zM788 1831v207h199v-207h-199zM586 0v541l-541 1015h279l387 -790l387 790h278l-542 -1015v-541h-248z" />
    <glyph glyph-name="Zacute" unicode="&#x179;" horiz-adv-x="1384" 
d="M963 2038l-338 -359h-195l221 359h312zM395 240h910v-240h-1211v240l830 1077h-809v239h1110l2 -239z" />
    <glyph glyph-name="zacute" unicode="&#x17a;" horiz-adv-x="1128" 
d="M836 1556l-338 -358h-195l221 358h312zM344 201h725v-201h-997v201l680 673h-668v201h940l2 -201z" />
    <glyph glyph-name="Zdotaccent" unicode="&#x17b;" horiz-adv-x="1384" 
d="M698 1761q-65 0 -111 45.5t-46 112.5q0 63 46 107.5t111 44.5q63 0 109.5 -44.5t46.5 -107.5q0 -67 -46 -112.5t-110 -45.5zM395 240h910v-240h-1211v240l830 1077h-809v239h1110l2 -239z" />
    <glyph glyph-name="zdotaccent" unicode="&#x17c;" horiz-adv-x="1128" 
d="M571 1280q-65 0 -111 45.5t-46 112.5q0 63 46 107t111 44q63 0 109.5 -44t46.5 -107q0 -67 -46 -112.5t-110 -45.5zM344 201h725v-201h-997v201l680 673h-668v201h940l2 -201z" />
    <glyph glyph-name="Zcaron" unicode="&#x17d;" horiz-adv-x="1384" 
d="M1073 2038l-242 -359h-270l-242 359h187l192 -228l189 228h186zM395 240h910v-240h-1211v240l830 1077h-809v239h1110l2 -239z" />
    <glyph glyph-name="zcaron" unicode="&#x17e;" horiz-adv-x="1128" 
d="M946 1556l-241 -358h-271l-241 358h186l192 -227l191 227h184zM344 201h725v-201h-997v201l680 673h-668v201h940l2 -201z" />
    <glyph glyph-name="AEacute" unicode="&#x1fc;" horiz-adv-x="2377" 
d="M1468 2038l-338 -359h-194l221 359h311zM1341 250h854v-250h-1101v408h-576l-192 -408h-275l740 1556h1370v-249h-820v-371h742v-250h-742v-436zM934 1307l-301 -648h461v648h-160z" />
    <glyph glyph-name="aeacute" unicode="&#x1fd;" horiz-adv-x="1904" 
d="M1214 1556l-337 -358h-195l221 358h311zM489 -33q-96 0 -170.5 21t-119.5 54t-74 78t-40 88.5t-11 90.5q0 52 12.5 98.5t50 97t98 86.5t165 59.5t241.5 23.5h172q0 45 -4.5 79t-18.5 67.5t-38.5 55t-65.5 34.5t-98 13q-116 0 -170.5 -49t-57.5 -125h-239q2 57 16.5 107.5
t48.5 99.5t86.5 84t135 56.5t188.5 21.5q270 0 375 -150q131 150 364 150q217 0 350 -134t142 -390v-115l-2 -4l-764 -2q14 -138 85.5 -216.5t194.5 -78.5q104 0 171.5 55t78.5 137h238q-2 -72 -37.5 -142t-97 -126t-154 -90.5t-199.5 -34.5q-137 0 -244 55.5t-163 141.5
q-67 -103 -185.5 -150t-259.5 -47zM1063 645h526q-32 262 -254 262q-115 0 -186 -70.5t-86 -191.5zM526 158q138 0 213.5 59.5t75.5 155.5v125h-182q-322 0 -322 -189q0 -151 215 -151z" />
    <glyph glyph-name="Scommaaccent" unicode="&#x218;" horiz-adv-x="1378" 
d="M748 -33q-166 0 -295 41.5t-210 115.5t-126.5 169.5t-55.5 210.5h261q41 -174 154 -246t296 -72q141 0 221 54.5t80 156.5q0 43 -17 79t-40.5 59.5t-61.5 43.5t-67 31t-70 23q-9 3 -140.5 39t-209.5 65q-77 29 -131.5 60.5t-101 77.5t-70 109t-23.5 144q0 98 34 178
t89.5 131.5t130 86.5t153 50t161.5 15q267 0 415 -142t156 -378h-260q-6 71 -29 125.5t-55.5 86.5t-76.5 52.5t-85 27.5t-88 7q-32 0 -64.5 -4t-74 -18t-72.5 -36t-52.5 -62.5t-21.5 -94.5q0 -75 43.5 -120.5t141.5 -82.5q32 -12 65 -22t58 -17t73.5 -20t85.5 -23
q129 -34 188 -60q261 -115 261 -388q0 -231 -143 -342t-426 -111zM541 -492l69 349h224l-129 -349h-164z" />
    <glyph glyph-name="scommaaccent" unicode="&#x219;" horiz-adv-x="1095" 
d="M596 -33q-129 0 -228 29t-162 81.5t-97 121.5t-41 153h231q23 -106 95.5 -150t205.5 -44q86 0 134 32.5t48 98.5q0 27 -14.5 49.5t-32.5 37t-53 28.5t-56.5 20.5t-62.5 17.5q-75 19 -123 33.5t-104.5 36.5t-91 46t-65.5 57t-45.5 76t-14.5 97q-1 84 33.5 147t97.5 100
t142.5 55t174.5 18q200 0 310 -97t118 -263h-233q-5 49 -25 84t-50.5 53.5t-63.5 26.5t-70 8q-209 0 -209 -125q0 -23 8 -41t29.5 -33.5t43 -26.5t63.5 -23.5t75 -21t94 -22.5q45 -11 74 -19t71 -23t68.5 -30.5t57 -40t48 -53.5t29 -69.5t11.5 -88.5q0 -169 -108 -252.5
t-312 -83.5zM418 -492l69 349h224l-129 -349h-164z" />
    <glyph glyph-name="uni021A" unicode="&#x21a;" horiz-adv-x="1296" 
d="M1245 1317h-473v-1317h-246v1317h-475v239h1192zM502 -492l69 349h224l-129 -349h-164z" />
    <glyph glyph-name="uni021B" unicode="&#x21b;" horiz-adv-x="737" 
d="M524 -20q-186 0 -264 79.5t-78 243.5v561h-137v189q88 0 119 40t31 136v123h229v-277h227v-211h-227v-499q0 -98 39.5 -134t136.5 -36q43 0 70 2v-209q-65 -8 -146 -8zM223 -492l70 349h223l-129 -349h-164z" />
    <glyph glyph-name="circumflex" unicode="&#x2c6;" horiz-adv-x="950" 
d="M698 1198h-186l-190 227l-191 -227h-186l241 358h271z" />
    <glyph glyph-name="caron" unicode="&#x2c7;" horiz-adv-x="950" 
d="M637 1556l-242 -358h-270l-242 358h187l190 -227l191 227h186z" />
    <glyph glyph-name="breve" unicode="&#x2d8;" horiz-adv-x="956" 
d="M522 1556h191q0 -161 -106 -259.5t-281 -98.5t-282 98.5t-107 259.5h190q0 -89 54.5 -142.5t144.5 -53.5q89 0 142.5 53.5t53.5 142.5z" />
    <glyph glyph-name="dotaccent" unicode="&#x2d9;" horiz-adv-x="557" 
d="M16 1280q-65 0 -111 45.5t-46 112.5q0 63 46 107t111 44q63 0 109.5 -44t46.5 -107q0 -67 -46 -112.5t-110 -45.5z" />
    <glyph glyph-name="ring" unicode="&#x2da;" horiz-adv-x="606" 
d="M119 1221q-85 0 -135 50.5t-50 133.5q0 80 50.5 129t134.5 49q83 0 133.5 -49t50.5 -129q0 -83 -50.5 -133.5t-133.5 -50.5zM119 1329q32 0 53 21t21 53t-21 52t-53 20q-34 0 -54 -20t-20 -52q0 -33 20.5 -53.5t53.5 -20.5z" />
    <glyph glyph-name="ogonek" unicode="&#x2db;" horiz-adv-x="530" 
d="M348 -418q-125 0 -185.5 54.5t-60.5 130.5q0 27 7.5 53t23.5 49t30 41t37.5 37t35.5 28.5t33.5 24.5t23.5 16h108q-153 -120 -153 -213q0 -86 135 -86q34 0 61 4v-133q-40 -6 -96 -6z" />
    <glyph glyph-name="tilde" unicode="&#x2dc;" horiz-adv-x="927" 
d="M227 1520q41 0 79 -18.5t62 -41t53 -41t54 -18.5q33 0 53.5 29t20.5 79h164q0 -131 -60 -202.5t-157 -71.5q-46 0 -86.5 19t-63 41.5t-49 41.5t-49.5 19q-34 0 -53 -30t-19 -81h-164q0 120 60 197.5t155 77.5z" />
    <glyph glyph-name="hungarumlaut" unicode="&#x2dd;" horiz-adv-x="1093" 
d="M584 1556l-338 -358h-195l221 358h312zM1063 1556l-338 -358h-195l222 358h311z" />
    <glyph glyph-name="gravecomb" unicode="&#x300;" horiz-adv-x="0" 
d="M-584 1556h312l221 -358h-195z" />
    <glyph glyph-name="acutecomb" unicode="&#x301;" horiz-adv-x="0" 
d="M-31 1556l-338 -358h-194l221 358h311z" />
    <glyph glyph-name="uni0302" unicode="&#x302;" horiz-adv-x="0" 
d="M-98 1198h-187l-190 227l-191 -227h-186l242 358h270z" />
    <glyph glyph-name="tildecomb" unicode="&#x303;" horiz-adv-x="0" 
d="M-600 1520q41 0 79 -18.5t62 -41t53 -41t54 -18.5q33 0 53 29t20 79h164q0 -131 -60 -202.5t-157 -71.5q-46 0 -86.5 19t-63 41.5t-49 41.5t-49.5 19q-33 0 -52 -30t-19 -81h-164q0 120 60 197.5t155 77.5z" />
    <glyph glyph-name="uni0304" unicode="&#x304;" horiz-adv-x="0" 
d="M-154 1290h-686v185h686v-185z" />
    <glyph glyph-name="uni0306" unicode="&#x306;" horiz-adv-x="0" 
d="M-281 1556h191q0 -161 -106.5 -259.5t-280.5 -98.5q-175 0 -283 98.5t-108 259.5h190q0 -89 55 -142.5t146 -53.5q89 0 142.5 53.5t53.5 142.5z" />
    <glyph glyph-name="uni0307" unicode="&#x307;" horiz-adv-x="0" 
d="M-279 1280q-65 0 -111 45.5t-46 112.5q0 63 46 107t111 44q64 0 111 -44.5t47 -106.5q0 -66 -47 -112t-111 -46z" />
    <glyph glyph-name="uni0308" unicode="&#x308;" horiz-adv-x="0" 
d="M-649 1350v206h198v-206h-198zM-295 1350v206h199v-206h-199z" />
    <glyph glyph-name="uni030A" unicode="&#x30a;" horiz-adv-x="0" 
d="M-303 1221q-83 0 -133.5 50.5t-50.5 133.5q0 80 50.5 129t133.5 49t133.5 -49t50.5 -129q0 -83 -50.5 -133.5t-133.5 -50.5zM-303 1329q32 0 53 21t21 53t-21 52t-53 20q-34 0 -54 -20t-20 -52q0 -33 20.5 -53.5t53.5 -20.5z" />
    <glyph glyph-name="uni030B" unicode="&#x30b;" horiz-adv-x="0" 
d="M-510 1556l-338 -358h-194l221 358h311zM-31 1556l-338 -358h-194l221 358h311z" />
    <glyph glyph-name="uni030C" unicode="&#x30c;" horiz-adv-x="0" 
d="M-98 1556l-242 -358h-270l-242 358h186l191 -227l190 227h187z" />
    <glyph glyph-name="uni0312" unicode="&#x312;" horiz-adv-x="0" 
d="M-139 1731l-103 -267h113v-266h-279v266l127 267h142z" />
    <glyph glyph-name="uni0326" unicode="&#x326;" horiz-adv-x="0" 
d="M-381 -492l70 349h223l-129 -349h-164z" />
    <glyph glyph-name="uni0327" unicode="&#x327;" horiz-adv-x="0" 
d="M-303 -104h33q77 0 124.5 -38.5t47.5 -99.5q0 -73 -59.5 -116t-166.5 -43h-116v104h108q42 0 67 14t25 39q0 22 -25 34.5t-67 12.5h-88v93l146 159h133z" />
    <glyph glyph-name="uni0328" unicode="&#x328;" horiz-adv-x="0" 
d="M-182 -418q-125 0 -185.5 54.5t-60.5 130.5q0 27 7.5 53t23.5 49t30 40.5t37 37t34.5 29t34 24.5t23.5 16h109q-154 -121 -154 -213q0 -86 136 -86q34 0 61 4v-133q-41 -6 -96 -6z" />
    <glyph glyph-name="uni0335" unicode="&#x335;" horiz-adv-x="0" 
d="M-154 453h-686v188h686v-188z" />
    <glyph glyph-name="uni0336" unicode="&#x336;" horiz-adv-x="0" 
d="M-154 641v-188h-1366v188h1366z" />
    <glyph glyph-name="uni0337" unicode="&#x337;" horiz-adv-x="0" 
d="M-713 754l643 428v-262l-643 -428v262z" />
    <glyph glyph-name="uni0338" unicode="&#x338;" horiz-adv-x="0" 
d="M-1366 -238l1141 1794h221l-1141 -1794h-221z" />
    <glyph glyph-name="Wgrave" unicode="&#x1e80;" horiz-adv-x="2258" 
d="M862 2038h312l221 -359h-195zM459 0l-428 1556h274l293 -1267l377 1267h309l377 -1267l293 1267h274l-428 -1556h-270l-402 1300l-399 -1300h-270z" />
    <glyph glyph-name="wgrave" unicode="&#x1e81;" horiz-adv-x="1828" 
d="M647 1556h311l222 -358h-195zM430 0l-407 1075h258l268 -805h4l242 805h239l244 -805h4l266 805h258l-409 -1075h-236l-243 819h-5l-245 -819h-238z" />
    <glyph glyph-name="Wacute" unicode="&#x1e82;" horiz-adv-x="2258" 
d="M1395 2038l-338 -359h-195l221 359h312zM459 0l-428 1556h274l293 -1267l377 1267h309l377 -1267l293 1267h274l-428 -1556h-270l-402 1300l-399 -1300h-270z" />
    <glyph glyph-name="wacute" unicode="&#x1e83;" horiz-adv-x="1828" 
d="M1180 1556l-338 -358h-195l221 358h312zM430 0l-407 1075h258l268 -805h4l242 805h239l244 -805h4l266 805h258l-409 -1075h-236l-243 819h-5l-245 -819h-238z" />
    <glyph glyph-name="Wdieresis" unicode="&#x1e84;" horiz-adv-x="2258" 
d="M854 1831v207h199v-207h-199zM1208 1831v207h199v-207h-199zM459 0l-428 1556h274l293 -1267l377 1267h309l377 -1267l293 1267h274l-428 -1556h-270l-402 1300l-399 -1300h-270z" />
    <glyph glyph-name="wdieresis" unicode="&#x1e85;" horiz-adv-x="1828" 
d="M637 1350v206h199v-206h-199zM991 1350v206h199v-206h-199zM430 0l-407 1075h258l268 -805h4l242 805h239l244 -805h4l266 805h258l-409 -1075h-236l-243 819h-5l-245 -819h-238z" />
    <glyph glyph-name="Ygrave" unicode="&#x1ef2;" horiz-adv-x="1421" 
d="M444 2038h312l221 -359h-195zM586 0v541l-541 1015h279l387 -790l387 790h278l-542 -1015v-541h-248z" />
    <glyph glyph-name="ygrave" unicode="&#x1ef3;" horiz-adv-x="1097" 
d="M283 1556h311l221 -358h-194zM258 -492l172 492l-407 1075h258l231 -706l37 -103h4l35 103l229 706h258l-379 -989l-200 -578h-238z" />
    <glyph glyph-name="uni2009" unicode="&#x2009;" horiz-adv-x="401" 
 />
    <glyph glyph-name="endash" unicode="&#x2013;" horiz-adv-x="1361" 
d="M154 432v209h1054v-209h-1054z" />
    <glyph glyph-name="emdash" unicode="&#x2014;" horiz-adv-x="2355" 
d="M154 641h2048v-209h-2048v209z" />
    <glyph glyph-name="quoteleft" unicode="&#x2018;" horiz-adv-x="458" 
d="M354 1540l-98 -256h106v-254h-266v254l123 256h135z" />
    <glyph glyph-name="quoteright" unicode="&#x2019;" horiz-adv-x="458" 
d="M106 1028l97 254h-107v256h266v-256l-120 -254h-136z" />
    <glyph glyph-name="quotesinglbase" unicode="&#x201a;" horiz-adv-x="458" 
d="M106 -256l97 256h-107v256h266v-256l-120 -256h-136z" />
    <glyph glyph-name="quotedblleft" unicode="&#x201c;" horiz-adv-x="845" 
d="M96 1030v254l123 256h135l-98 -256h106v-254h-266zM483 1030v254l121 256h135l-96 -256h107v-254h-267z" />
    <glyph glyph-name="quotedblright" unicode="&#x201d;" horiz-adv-x="845" 
d="M106 1028l97 254h-107v256h266v-256l-120 -254h-136zM494 1028l96 254h-107v256h267v-256l-123 -254h-133z" />
    <glyph glyph-name="quotedblbase" unicode="&#x201e;" horiz-adv-x="845" 
d="M106 -256l97 256h-107v256h266v-256l-120 -256h-136zM494 -256l96 256h-107v256h267v-256l-123 -256h-133z" />
    <glyph glyph-name="dagger" unicode="&#x2020;" horiz-adv-x="1130" 
d="M444 -492v674h-350v168h350v1206h242v-1206h350v-168h-350v-674h-242z" />
    <glyph glyph-name="daggerdbl" unicode="&#x2021;" horiz-adv-x="1179" 
d="M1061 604h-348v-254h348v-168h-348v-674h-242v674h-352v168h352v254h-352v168h352v784h242v-784h348v-168z" />
    <glyph glyph-name="bullet" unicode="&#x2022;" horiz-adv-x="645" 
d="M324 322q-95 0 -161.5 65.5t-66.5 161.5q0 92 67 156.5t161 64.5q91 0 158 -64.5t67 -156.5q0 -96 -66.5 -161.5t-158.5 -65.5z" />
    <glyph glyph-name="ellipsis" unicode="&#x2026;" horiz-adv-x="1320" 
d="M96 0v266h279v-266h-279zM522 0v266h279v-266h-279zM948 0v266h279v-266h-279z" />
    <glyph glyph-name="perthousand" unicode="&#x2030;" horiz-adv-x="2963" 
d="M403 696q-93 0 -165.5 36t-117 98.5t-67 142t-22.5 170.5t22.5 170.5t67 141.5t117 98t165.5 36q94 0 167 -36t117 -98.5t66.5 -141.5t22.5 -170t-22.5 -170.5t-66.5 -142t-117 -98.5t-167 -36zM434 -33l944 1622h183l-945 -1622h-182zM403 846q69 0 116 45t66 109.5
t19 142.5t-19 142.5t-66 109.5t-116 45q-52 0 -92 -25.5t-63 -68.5t-34 -94t-11 -109t11 -109t34 -94t63 -68.5t92 -25.5zM1567 -18q-93 0 -166 36t-117 98t-67 141.5t-23 170.5t23 170.5t67 141.5t117 98t166 36q94 0 166.5 -36t116.5 -98.5t66.5 -141.5t22.5 -170
t-22.5 -170t-66.5 -141.5t-116.5 -98.5t-166.5 -36zM2494 -18q-94 0 -166.5 36t-116.5 98.5t-66.5 141.5t-22.5 170t22.5 170t66.5 141.5t116.5 98.5t166.5 36t167 -36t117 -98.5t66.5 -141.5t22.5 -170t-22.5 -170t-66.5 -141.5t-117 -98.5t-167 -36zM1567 131
q52 0 92 25.5t63 68.5t34 94t11 109t-11 109t-34 94t-63 68.5t-92 25.5q-69 0 -116 -45t-66 -109.5t-19 -142.5t19 -142.5t66 -109.5t116 -45zM2494 131q68 0 115 44.5t66.5 109.5t19.5 143t-19.5 143t-66.5 109.5t-115 44.5q-52 0 -92 -25.5t-63 -68.5t-34 -94t-11 -109
t11 -109t34 -94t63 -68.5t92 -25.5z" />
    <glyph glyph-name="guilsinglleft" unicode="&#x2039;" horiz-adv-x="741" 
d="M684 997l-369 -454l369 -455h-256l-369 455l369 454h256z" />
    <glyph glyph-name="guilsinglright" unicode="&#x203a;" horiz-adv-x="741" 
d="M57 997h256l369 -454l-369 -455h-256l369 455z" />
    <glyph glyph-name="fraction" unicode="&#x2044;" horiz-adv-x="499" 
d="M-311 -33l944 1622h178l-944 -1622h-178z" />
    <glyph glyph-name="uni2070" unicode="&#x2070;" horiz-adv-x="851" 
d="M426 678q-118 0 -203.5 60t-126.5 159.5t-41 226.5t41 227t126.5 160t203.5 60t203.5 -60t126.5 -160t41 -227t-41 -226.5t-126.5 -159.5t-203.5 -60zM426 821q96 0 148.5 84.5t52.5 218.5t-52.5 218.5t-148.5 84.5q-97 0 -150 -84.5t-53 -218.5t53 -218.5t150 -84.5z
" />
    <glyph glyph-name="uni2074" unicode="&#x2074;" horiz-adv-x="806" 
d="M752 1020v-162h-150v-162h-160v162h-387v174l297 520h183l-299 -532h206v190h160v-190h150z" />
    <glyph glyph-name="uni2075" unicode="&#x2075;" horiz-adv-x="815" 
d="M403 678q-146 0 -243.5 65t-104.5 170h172q4 -41 53 -67.5t117 -26.5q93 0 148 46t55 122q0 74 -52.5 122t-131.5 48q-60 0 -106 -29.5t-64 -76.5h-176l127 501h493v-149h-377l-47 -178q68 65 193 65q134 0 218.5 -85t84.5 -218q0 -141 -97.5 -225t-261.5 -84z" />
    <glyph glyph-name="uni2076" unicode="&#x2076;" horiz-adv-x="794" 
d="M401 680q-169 0 -257.5 108t-88.5 302q0 213 99.5 346t265.5 133q115 0 189 -60.5t89 -165.5h-168q-10 44 -44.5 68.5t-77.5 24.5q-80 0 -131.5 -78t-55.5 -207q33 56 95.5 89.5t140.5 33.5q126 0 204 -79.5t78 -207.5q0 -139 -93.5 -223t-244.5 -84zM399 819
q72 0 117 44.5t45 117.5q0 72 -45 116t-117 44t-117.5 -44t-45.5 -116q0 -73 44.5 -117.5t118.5 -44.5z" />
    <glyph glyph-name="uni2077" unicode="&#x2077;" horiz-adv-x="694" 
d="M111 696l350 695h-406v161h584v-161l-348 -695h-180z" />
    <glyph glyph-name="uni2078" unicode="&#x2078;" horiz-adv-x="860" 
d="M432 676q-97 0 -169.5 23.5t-112.5 63t-59 84t-19 93.5q0 80 45.5 137t118.5 76q-57 27 -90 74t-33 106q0 45 18 85.5t54.5 75t100 55t146.5 20.5t146 -20t99 -54t53.5 -74t17.5 -84q0 -61 -32.5 -109t-90.5 -75q72 -19 116.5 -75.5t44.5 -137.5q0 -49 -18 -93.5t-57 -84
t-110.5 -63t-168.5 -23.5zM430 1221q72 0 110 30t38 76q0 49 -38 81t-110 32t-110.5 -32t-38.5 -81q0 -45 38.5 -75.5t110.5 -30.5zM430 817q91 0 135.5 37.5t44.5 89.5q0 54 -43.5 91.5t-136.5 37.5t-137.5 -36.5t-44.5 -92.5q0 -52 45.5 -89.5t136.5 -37.5z" />
    <glyph glyph-name="uni2079" unicode="&#x2079;" horiz-adv-x="796" 
d="M383 678q-141 0 -229 61t-99 156h174q7 -38 49.5 -61t102.5 -23q91 0 142.5 72t51.5 170v22q-32 -45 -93 -71.5t-132 -26.5q-140 0 -216.5 82t-76.5 209q0 128 86.5 215.5t247.5 87.5q172 0 261 -105.5t89 -316.5q0 -212 -93 -341.5t-265 -129.5zM391 1110q78 0 126 43.5
t48 112.5q0 74 -48 119t-126 45t-126 -45t-48 -119q0 -69 48 -112.5t126 -43.5z" />
    <glyph glyph-name="Euro" unicode="&#x20ac;" horiz-adv-x="1480" 
d="M1137 -33q-282 0 -458 126.5t-243 348.5h-330l44 160h253q-10 75 -10 137q0 36 2 52h-221l41 159h199q26 125 82 225.5t143.5 176.5t214 117.5t283.5 41.5q140 0 247 -24v-207q-131 23 -235 23q-200 0 -322.5 -95t-167.5 -258h467l-39 -159h-454q-2 -16 -2 -56
q0 -69 12 -133h422l-43 -160h-332q56 -125 170.5 -195.5t288.5 -70.5q104 0 235 23v-207q-111 -25 -247 -25z" />
    <glyph glyph-name="trademark" unicode="&#x2122;" horiz-adv-x="911" 
d="M365 1556v-67h-119v-322h-68v322h-119v67h306zM717 1556h76v-389h-68v246l-86 -246h-70l-86 246v-246h-67v389h76l110 -311z" />
    <glyph glyph-name="oneeighth" unicode="&#x215b;" horiz-adv-x="1751" 
d="M190 -33l945 1622h182l-944 -1622h-183zM201 700v693h-170v163h334v-856h-164zM1298 -20q-97 0 -169.5 23.5t-112.5 63t-59 84t-19 93.5q0 80 45.5 137t118.5 76q-57 27 -90 74t-33 106q0 97 79 166t240 69q83 0 146 -20t99 -53.5t53.5 -73.5t17.5 -84q0 -61 -32.5 -109
t-90.5 -75q72 -19 117 -75.5t45 -137.5q0 -49 -18.5 -93.5t-57 -84t-110.5 -63t-169 -23.5zM1296 524q71 0 109.5 30.5t38.5 76.5q0 49 -38 80.5t-110 31.5t-110.5 -32t-38.5 -80q0 -46 39 -76.5t110 -30.5zM1296 121q91 0 136 37.5t45 89.5q0 54 -43.5 91.5t-137.5 37.5
q-93 0 -137.5 -36.5t-44.5 -92.5q0 -52 45.5 -89.5t136.5 -37.5z" />
    <glyph glyph-name="threeeighths" unicode="&#x215c;" horiz-adv-x="1929" 
d="M412 -33l944 1622h182l-944 -1622h-182zM420 682q-158 0 -258.5 68.5t-106.5 167.5h176q3 -31 33.5 -52.5t70.5 -30t85 -8.5q98 0 141 39.5t43 100.5q0 147 -246 147h-94v129l260 158h-420v155h631v-174l-264 -151l6 -4q123 0 208 -68.5t85 -187.5q0 -42 -10.5 -81.5
t-36.5 -77.5t-65 -66.5t-100.5 -46t-137.5 -17.5zM1520 -20q-97 0 -169.5 23.5t-113 63t-59.5 84t-19 93.5q0 80 45.5 137t118.5 76q-57 27 -90 74t-33 106q0 97 79.5 166t240.5 69q83 0 146 -20t98.5 -53.5t53 -73.5t17.5 -84q0 -61 -32.5 -109t-90.5 -75q72 -19 117 -75.5
t45 -137.5q0 -49 -18 -93.5t-57 -84t-110.5 -63t-168.5 -23.5zM1518 524q71 0 109 30.5t38 76.5q0 49 -37.5 80.5t-109.5 31.5t-111 -32t-39 -80q0 -45 39 -76t111 -31zM1518 121q90 0 135 37.5t45 89.5q0 54 -43.5 91.5t-136.5 37.5q-94 0 -138.5 -36.5t-44.5 -92.5
q0 -52 46 -89.5t137 -37.5z" />
    <glyph glyph-name="fiveeighths" unicode="&#x215d;" horiz-adv-x="2058" 
d="M541 -33l944 1622h182l-944 -1622h-182zM403 682q-146 0 -243.5 65.5t-104.5 170.5h172q4 -41 53 -68t117 -27q93 0 148 46t55 122q0 74 -52.5 122t-131.5 48q-60 0 -106 -29.5t-64 -76.5h-176l127 501h493v-149h-377l-47 -178q68 65 193 65q134 0 218.5 -85t84.5 -218
q0 -141 -97.5 -225t-261.5 -84zM1649 -20q-97 0 -169.5 23.5t-112 63t-58.5 84t-19 93.5q0 80 45 137t119 76q-58 27 -90.5 74t-32.5 106q0 97 78.5 166t239.5 69q83 0 146.5 -20t99.5 -53.5t53.5 -73.5t17.5 -84q0 -60 -33 -108.5t-90 -75.5q72 -19 117 -75.5t45 -137.5
q0 -49 -18.5 -93.5t-57.5 -84t-111 -63t-169 -23.5zM1647 524q71 0 109 30.5t38 76.5q0 49 -37.5 80.5t-109.5 31.5t-111 -32t-39 -80q0 -45 39 -76t111 -31zM1647 121q91 0 136.5 37.5t45.5 89.5q0 54 -43.5 91.5t-138.5 37.5q-93 0 -137 -36.5t-44 -92.5q0 -51 45.5 -89
t135.5 -38z" />
    <glyph glyph-name="seveneighths" unicode="&#x215e;" horiz-adv-x="1732" 
d="M213 -33l944 1622h184l-944 -1622h-184zM111 700l366 693h-422v163h602v-174l-362 -682h-184zM1323 -20q-97 0 -169.5 23.5t-112.5 63t-59 84t-19 93.5q0 80 45.5 137t117.5 76q-57 27 -89.5 74t-32.5 106q0 97 79 166t240 69q83 0 146 -20t98.5 -53.5t53 -73.5t17.5 -84
q0 -61 -32.5 -109.5t-89.5 -74.5q72 -19 116.5 -75.5t44.5 -137.5q0 -49 -18 -93.5t-57 -84t-110.5 -63t-168.5 -23.5zM1321 524q70 0 108.5 31t38.5 76q0 48 -38.5 80t-108.5 32q-72 0 -111 -32t-39 -80q0 -45 39 -76t111 -31zM1321 121q90 0 135 37.5t45 89.5
q0 54 -43.5 91.5t-136.5 37.5t-137.5 -36.5t-44.5 -92.5q0 -52 45.5 -89.5t136.5 -37.5z" />
    <glyph glyph-name="arrowleft" unicode="&#x2190;" horiz-adv-x="1859" 
d="M1708 688v-172h-1186l226 -274l-596 360l596 363l-226 -277h1186z" />
    <glyph glyph-name="arrowup" unicode="&#x2191;" horiz-adv-x="1026" 
d="M428 0v1186l-276 -225l360 595l362 -595l-276 225v-1186h-170z" />
    <glyph glyph-name="arrowright" unicode="&#x2192;" horiz-adv-x="1859" 
d="M152 688h1185l-225 277l596 -363l-596 -360l225 274h-1185v172z" />
    <glyph glyph-name="arrowdown" unicode="&#x2193;" horiz-adv-x="1026" 
d="M428 1556h170v-1185l276 225l-362 -596l-360 596l276 -225v1185z" />
    <glyph glyph-name="arrowboth" unicode="&#x2194;" horiz-adv-x="2496" 
d="M2345 602l-596 -360l225 274h-1452l226 -274l-596 360l596 363l-226 -277h1452l-225 277z" />
    <glyph glyph-name="arrowupdn" unicode="&#x2195;" horiz-adv-x="1026" 
d="M512 0l-360 596l276 -217v799l-276 -217l360 595l362 -595l-276 217v-799l276 217z" />
    <glyph glyph-name="uni2196" unicode="&#x2196;" horiz-adv-x="1847" 
d="M1577 0l-1227 1235l-35 -354l-163 675l673 -165l-350 -39l1221 -1231z" />
    <glyph glyph-name="uni2197" unicode="&#x2197;" horiz-adv-x="1847" 
d="M270 0l-118 121l1222 1231l-352 39l674 165l-162 -675l-37 354z" />
    <glyph glyph-name="uni2198" unicode="&#x2198;" horiz-adv-x="1847" 
d="M270 1556l1227 -1234l37 354l162 -676l-674 166l352 39l-1222 1231z" />
    <glyph glyph-name="uni2199" unicode="&#x2199;" horiz-adv-x="1847" 
d="M1577 1556l119 -120l-1221 -1231l350 -39l-673 -166l163 676l35 -354z" />
    <glyph glyph-name="partialdiff" unicode="&#x2202;" horiz-adv-x="1335" 
d="M635 -33q-227 0 -359.5 134t-132.5 360q0 122 40.5 225.5t111 174t166.5 110t205 39.5q259 0 372 -217q9 290 -87.5 438.5t-295.5 148.5q-67 0 -124 -15.5t-107.5 -49.5t-83.5 -95.5t-41 -144.5h-193q29 221 182.5 351t381.5 130q270 0 414.5 -200t144.5 -572
q0 -208 -44 -366.5t-124.5 -256t-187.5 -146t-238 -48.5zM649 147q155 0 242.5 108t87.5 263q0 140 -75 224.5t-216 84.5q-148 0 -239 -95t-91 -261q0 -149 77 -236.5t214 -87.5z" />
    <glyph glyph-name="emptyset" unicode="&#x2205;" horiz-adv-x="1460" 
d="M1096 1034q107 -77 165 -199.5t58 -277.5q0 -265 -162 -427.5t-426 -162.5q-132 0 -233 39l-152 -260h-178l194 334q-106 78 -163.5 200t-57.5 277q0 265 162.5 427.5t427.5 162.5q132 0 230 -39l151 260h180zM301 557q0 -217 145 -334l433 742q-71 22 -148 22
q-193 0 -311.5 -118.5t-118.5 -311.5zM731 127q192 0 310 118.5t118 311.5q0 217 -145 334l-432 -741q74 -23 149 -23z" />
    <glyph glyph-name="product" unicode="&#x220f;" horiz-adv-x="1568" 
d="M184 -238v1794h1202v-1794h-225v1569h-751v-1569h-226z" />
    <glyph glyph-name="summation" unicode="&#x2211;" horiz-adv-x="1568" 
d="M1366 1331h-956l448 -631l-448 -712h976v-226h-1202v246l422 692l-422 611v245h1182v-225z" />
    <glyph glyph-name="minus" unicode="&#x2212;" horiz-adv-x="1134" 
d="M1038 453h-942v168h942v-168z" />
    <glyph glyph-name="radical" unicode="&#x221a;" horiz-adv-x="1605" 
d="M1511 1556v-210h-399l-551 -1579h-237l-301 784h243l135 -408l41 -114h4l39 114l471 1413h555z" />
    <glyph glyph-name="infinity" unicode="&#x221e;" horiz-adv-x="1818" 
d="M481 172q-183 0 -301.5 115t-118.5 301q0 184 118 297.5t302 113.5q134 0 246 -64t182 -175q70 111 181.5 175t244.5 64q184 0 303 -113.5t119 -297.5q0 -185 -119 -300.5t-301 -115.5q-132 0 -244.5 65.5t-183.5 176.5q-72 -112 -184 -177t-244 -65zM500 332
q108 0 191.5 68.5t125.5 185.5q-45 121 -126 187.5t-187 66.5q-111 0 -187.5 -70.5t-76.5 -183.5q0 -112 74.5 -183t185.5 -71zM1321 332q111 0 184.5 70t73.5 184q0 113 -76 183.5t-186 70.5q-103 0 -183 -66.5t-126 -187.5q44 -118 125 -186t188 -68z" />
    <glyph glyph-name="integral" unicode="&#x222b;" horiz-adv-x="1218" 
d="M995 1589q31 0 63.5 -2.5t50.5 -5.5t21 -4l-34 -195h-4q-3 1 -8.5 2.5t-13 2.5t-18.5 1.5t-22 0.5q-166 0 -188 -138l-219 -1249q-31 -176 -124.5 -270t-275.5 -94q-31 0 -63.5 2.5t-50.5 5.5t-21 4l35 196h3q4 -1 9.5 -2t12.5 -2t18 -1.5t22 -0.5q87 0 132 34.5
t57 102.5l219 1248q31 177 123.5 270.5t275.5 93.5z" />
    <glyph glyph-name="approxequal" unicode="&#x2248;" horiz-adv-x="1413" 
d="M922 612q-57 0 -107.5 19.5t-86.5 48t-68.5 56.5t-68 47.5t-71.5 19.5q-49 0 -87 -35t-38 -115v-30h-164v30q0 123 75.5 210t205.5 87q58 0 108.5 -19t86.5 -46t68 -54t68 -46t72 -19q103 0 103 135v25h164v-21q0 -55 -15 -105.5t-45 -93.5t-81.5 -68.5t-118.5 -25.5z
M922 207q-57 0 -107.5 19.5t-86.5 47.5t-68.5 56t-68 47.5t-71.5 19.5q-49 0 -87 -34.5t-38 -114.5v-31h-164v31q0 123 75.5 210t205.5 87q58 0 108.5 -19t86.5 -46.5t68 -54.5t68 -46t72 -19q103 0 103 136v24h164v-20q0 -55 -15 -105.5t-45 -93.5t-81.5 -68.5
t-118.5 -25.5z" />
    <glyph glyph-name="notequal" unicode="&#x2260;" horiz-adv-x="1269" 
d="M1106 698h-311l-90 -280h401v-168h-455l-80 -250h-213l80 250h-274v168h328l90 280h-418v168h469l65 209h213l-65 -209h260v-168z" />
    <glyph glyph-name="lessequal" unicode="&#x2264;" horiz-adv-x="1191" 
d="M877 168l-725 387v213l860 481v-180l-717 -407l758 -408v-254h-942v168h766z" />
    <glyph glyph-name="greaterequal" unicode="&#x2265;" horiz-adv-x="1189" 
d="M311 168h766v-168h-942v254l758 408l-717 407v180l860 -481v-213z" />
    <glyph glyph-name="lozenge" unicode="&#x25ca;" horiz-adv-x="1013" 
d="M391 -33l-368 670l368 670h236l364 -670l-364 -670h-236zM508 78l295 559l-295 561l-293 -561z" />
    <glyph glyph-name="I.ss01" horiz-adv-x="1497" 
d="M152 0v240h475v1077h-475v239h1191l3 -239h-474v-1077h474l-3 -240h-1191z" />
    <glyph glyph-name="Iacute.ss01" horiz-adv-x="1497" 
d="M1014 2038l-338 -359h-195l221 359h312zM152 0v240h475v1077h-475v239h1191l3 -239h-474v-1077h474l-3 -240h-1191z" />
    <glyph glyph-name="Icircumflex.ss01" horiz-adv-x="1497" 
d="M1124 1679h-184l-190 228l-193 -228h-186l241 359h271zM152 0v240h475v1077h-475v239h1191l3 -239h-474v-1077h474l-3 -240h-1191z" />
    <glyph glyph-name="Idieresis.ss01" horiz-adv-x="1497" 
d="M582 1806q-50 0 -85.5 35t-35.5 88q0 47 35.5 81t85.5 34q52 0 86 -33.5t34 -81.5q0 -53 -35 -88t-85 -35zM905 1806q-50 0 -85.5 35t-35.5 88q0 47 35.5 81t85.5 34q52 0 86.5 -33.5t34.5 -81.5q0 -53 -35.5 -88t-85.5 -35zM152 0v240h475v1077h-475v239h1191l3 -239
h-474v-1077h474l-3 -240h-1191z" />
    <glyph glyph-name="Idotaccent.ss01" horiz-adv-x="1497" 
d="M750 1761q-65 0 -111.5 45.5t-46.5 112.5q0 63 46.5 107.5t111.5 44.5q63 0 109 -44.5t46 -107.5q0 -67 -45.5 -112.5t-109.5 -45.5zM152 0v240h475v1077h-475v239h1191l3 -239h-474v-1077h474l-3 -240h-1191z" />
    <glyph glyph-name="Igrave.ss01" horiz-adv-x="1497" 
d="M481 2038h312l221 -359h-195zM152 0v240h475v1077h-475v239h1191l3 -239h-474v-1077h474l-3 -240h-1191z" />
    <glyph glyph-name="Imacron.ss01" horiz-adv-x="1497" 
d="M1092 1772h-684v184h684v-184zM152 0v240h475v1077h-475v239h1191l3 -239h-474v-1077h474l-3 -240h-1191z" />
    <glyph glyph-name="Iogonek.ss01" horiz-adv-x="1497" 
d="M872 1317v-1077h474l-3 -240h-536q-133 -112 -133 -197q0 -86 135 -86q34 0 61 4v-133q-40 -6 -96 -6q-124 0 -184 54.5t-60 130.5q0 40 16.5 77t47 68.5t51 48t51.5 39.5h-544v240h475v1077h-475v239h1191l3 -239h-474z" />
    <glyph glyph-name="J.ss01" horiz-adv-x="1261" 
d="M592 -33q-260 0 -402 130.5t-159 383.5h254q17 -146 87.5 -216t207.5 -70q68 0 117 15t80 53t49.5 78t27 117.5t10.5 141.5t2 178v539h-719v239h963v-823q0 -104 -5 -185.5t-19 -164t-38 -143t-63.5 -114t-93.5 -87t-129 -53t-170 -19.5z" />
    <glyph glyph-name="K.ss01" horiz-adv-x="1435" 
d="M920 807l466 -807h-290l-324 553l-328 -553l-14 2v-2h-246v1556h246v-1126l633 1126h291z" />
    <glyph glyph-name="Kcommaaccent.ss01" horiz-adv-x="1435" 
d="M920 807l466 -807h-290l-324 553l-328 -553l-14 2v-2h-246v1556h246v-1126l633 1126h291zM561 -492l70 349h223l-129 -349h-164z" />
    <glyph glyph-name="M.ss01" horiz-adv-x="1828" 
d="M184 0v1556h277l452 -1005l455 1005h277v-1556h-246v1155l-359 -813h-252l-360 813v-1155h-244z" />
    <glyph glyph-name="Q.ss01" horiz-adv-x="1740" 
d="M872 -33q-32 0 -90 4l-90 -139h637v-203h-880v203l120 188q-218 85 -340.5 285.5t-122.5 472.5q0 237 92.5 420.5t267 287t406.5 103.5q231 0 404.5 -103.5t265.5 -287t92 -420.5t-92 -420.5t-265.5 -287t-404.5 -103.5zM369 778q0 -166 59.5 -298t174.5 -208.5
t267 -76.5q153 0 268 76.5t174.5 208t59.5 298.5t-59.5 298.5t-174.5 208.5t-268 77q-152 0 -267 -77t-174.5 -209t-59.5 -298z" />
    <glyph glyph-name="R.ss01" horiz-adv-x="1398" 
d="M184 0v1556h559q252 0 391.5 -109.5t139.5 -324.5q0 -179 -112 -288.5t-328 -124.5l514 -709h-285l-518 698h-117v-698h-244zM428 909h317q115 0 196 53t81 158q0 103 -77 160t-224 57h-293v-428z" />
    <glyph glyph-name="Racute.ss01" horiz-adv-x="1378" 
d="M1032 2038l-338 -359h-194l221 359h311zM184 0v1556h559q252 0 391.5 -109.5t139.5 -324.5q0 -179 -112 -288.5t-328 -124.5l514 -709h-285l-518 698h-117v-698h-244zM428 909h317q115 0 196 53t81 158q0 103 -77 160t-224 57h-293v-428z" />
    <glyph glyph-name="Rcaron.ss01" horiz-adv-x="1378" 
d="M1143 2038l-242 -359h-270l-242 359h186l191 -228l190 228h187zM184 0v1556h559q252 0 391.5 -109.5t139.5 -324.5q0 -179 -112 -288.5t-328 -124.5l514 -709h-285l-518 698h-117v-698h-244zM428 909h317q115 0 196 53t81 158q0 103 -77 160t-224 57h-293v-428z" />
    <glyph glyph-name="Rcommaaccent.ss01" horiz-adv-x="1378" 
d="M184 0v1556h559q252 0 391.5 -109.5t139.5 -324.5q0 -179 -112 -288.5t-328 -124.5l514 -709h-285l-518 698h-117v-698h-244zM428 909h317q115 0 196 53t81 158q0 103 -77 160t-224 57h-293v-428zM621 -492l69 349h223l-129 -349h-163z" />
    <glyph glyph-name="U.ss01" horiz-adv-x="1527" 
d="M766 -33q-146 0 -251.5 37t-168.5 98.5t-100 158.5t-49.5 198t-12.5 237v860h246v-808q0 -61 1.5 -105.5t5.5 -95.5t12 -87.5t21 -76t32 -66t46 -51.5t62 -39.5t80.5 -23t100.5 -8.5t100 8.5t79.5 23t61.5 39.5t45.5 51.5t32 66t21 76t11.5 88t5.5 95.5t1.5 105v808h246
v-1556h-246v139q-56 -94 -146 -133t-237 -39z" />
    <glyph glyph-name="Uacute.ss01" horiz-adv-x="1527" 
d="M1065 2038l-338 -359h-195l222 359h311zM766 -33q-146 0 -251.5 37t-168.5 98.5t-100 158.5t-49.5 198t-12.5 237v860h246v-808q0 -61 1.5 -105.5t5.5 -95.5t12 -87.5t21 -76t32 -66t46 -51.5t62 -39.5t80.5 -23t100.5 -8.5t100 8.5t79.5 23t61.5 39.5t45.5 51.5t32 66
t21 76t11.5 88t5.5 95.5t1.5 105v808h246v-1556h-246v139q-56 -94 -146 -133t-237 -39z" />
    <glyph glyph-name="Ucircumflex.ss01" horiz-adv-x="1538" 
d="M1176 1679h-187l-188 228l-193 -228h-186l242 359h270zM766 -33q-146 0 -251.5 37t-168.5 98.5t-100 158.5t-49.5 198t-12.5 237v860h248v-808q0 -79 2.5 -134t10.5 -117.5t23 -103.5t41.5 -82t64 -64t92.5 -37.5t125 -14.5q71 0 126 14.5t92.5 37.5t64 64t41.5 82
t23.5 104t10.5 117t2 134v808h246v-1556h-246v139q-56 -94 -146 -133t-239 -39z" />
    <glyph glyph-name="Udieresis.ss01" horiz-adv-x="1527" 
d="M524 1831v207h199v-207h-199zM879 1831v207h198v-207h-198zM766 -33q-146 0 -251.5 37t-168.5 98.5t-100 158.5t-49.5 198t-12.5 237v860h246v-808q0 -61 1.5 -105.5t5.5 -95.5t12 -87.5t21 -76t32 -66t46 -51.5t62 -39.5t80.5 -23t100.5 -8.5t100 8.5t79.5 23t61.5 39.5
t45.5 51.5t32 66t21 76t11.5 88t5.5 95.5t1.5 105v808h246v-1556h-246v139q-56 -94 -146 -133t-237 -39z" />
    <glyph glyph-name="Ugrave.ss01" horiz-adv-x="1527" 
d="M532 2038h312l221 -359h-195zM766 -33q-146 0 -251.5 37t-168.5 98.5t-100 158.5t-49.5 198t-12.5 237v860h246v-808q0 -61 1.5 -105.5t5.5 -95.5t12 -87.5t21 -76t32 -66t46 -51.5t62 -39.5t80.5 -23t100.5 -8.5t100 8.5t79.5 23t61.5 39.5t45.5 51.5t32 66t21 76
t11.5 88t5.5 95.5t1.5 105v808h246v-1556h-246v139q-56 -94 -146 -133t-237 -39z" />
    <glyph glyph-name="Uhungarumlaut.ss01" horiz-adv-x="1531" 
d="M823 2038l-338 -359h-194l221 359h311zM1305 2038l-338 -359h-195l221 359h312zM766 -33q-146 0 -251.5 37t-168.5 98.5t-100 158.5t-49.5 198t-12.5 237v860h246v-808q0 -61 1.5 -105.5t5.5 -95.5t12 -87.5t21 -76t32 -66t46 -51.5t62 -39.5t80.5 -23t100.5 -8.5
t100 8.5t79.5 23t61.5 39.5t45.5 51.5t32 66t21 76t11.5 88t5.5 95.5t1.5 105v808h246v-1556h-246v139q-56 -94 -146 -133t-237 -39z" />
    <glyph glyph-name="Umacron.ss01" horiz-adv-x="1527" 
d="M1141 1772h-686v184h686v-184zM766 -33q-146 0 -251.5 37t-168.5 98.5t-100 158.5t-49.5 198t-12.5 237v860h246v-808q0 -61 1.5 -105.5t5.5 -95.5t12 -87.5t21 -76t32 -66t46 -51.5t62 -39.5t80.5 -23t100.5 -8.5t100 8.5t79.5 23t61.5 39.5t45.5 51.5t32 66t21 76
t11.5 88t5.5 95.5t1.5 105v808h246v-1556h-246v139q-56 -94 -146 -133t-237 -39z" />
    <glyph glyph-name="Uogonek.ss01" horiz-adv-x="1527" 
d="M1149 1556h246v-1556h-246v139q-45 -78 -114.5 -117.5t-172.5 -50.5q-102 -94 -102 -168q0 -86 135 -86q34 0 61 4v-133q-41 -6 -96 -6q-124 0 -184 54.5t-60 130.5q0 103 123 200q-100 3 -180 23.5t-137 54.5t-99.5 86t-69 110t-42 134.5t-21.5 152t-6 168.5v860h246
v-808q0 -61 1.5 -105.5t5.5 -95.5t12 -87.5t21 -76t32 -66t46 -51.5t62 -39.5t80.5 -23t100.5 -8.5t100 8.5t79.5 23t61.5 39.5t45.5 51.5t32 66t21 76t11.5 88t5.5 95.5t1.5 105v808z" />
    <glyph glyph-name="Uring.ss01" horiz-adv-x="1527" 
d="M799 1702q-85 0 -135 50t-50 134q0 80 50.5 129t134.5 49q83 0 133.5 -49t50.5 -129q0 -83 -50.5 -133.5t-133.5 -50.5zM799 1810q32 0 52.5 21t20.5 53t-20.5 52t-52.5 20q-34 0 -54 -20t-20 -52q0 -33 20.5 -53.5t53.5 -20.5zM766 -33q-146 0 -251.5 37t-168.5 98.5
t-100 158.5t-49.5 198t-12.5 237v860h246v-808q0 -61 1.5 -105.5t5.5 -95.5t12 -87.5t21 -76t32 -66t46 -51.5t62 -39.5t80.5 -23t100.5 -8.5t100 8.5t79.5 23t61.5 39.5t45.5 51.5t32 66t21 76t11.5 88t5.5 95.5t1.5 105v808h246v-1556h-246v139q-56 -94 -146 -133
t-237 -39z" />
    <glyph glyph-name="X.ss01" horiz-adv-x="1523" 
d="M51 0l520 784l-487 772h291l387 -638l385 638h293l-490 -772l523 -784h-293l-418 657l-420 -657h-291z" />
    <glyph glyph-name="i.loclTRK" 
d="M274 1280q-64 0 -109.5 45.5t-45.5 112.5q0 63 46 107t109 44q65 0 111.5 -44t46.5 -107q0 -67 -46.5 -112.5t-111.5 -45.5zM154 0v1075h241v-1075h-241z" />
    <glyph glyph-name="a.ss01" horiz-adv-x="1255" 
d="M553 -33q-147 0 -257 75.5t-166 204.5t-56 294q0 162 54 288.5t165.5 202.5t265.5 76q112 0 193.5 -43.5t140.5 -140.5v151h242v-1075h-242v147q-108 -180 -340 -180zM602 168q131 0 211 87.5t80 240.5v104q0 140 -81.5 223.5t-211.5 83.5q-139 0 -218 -97.5t-79 -266.5
q0 -173 80 -274t219 -101z" />
    <glyph glyph-name="aacute.ss01" horiz-adv-x="1255" 
d="M872 1554l-337 -358h-195l221 358h311zM553 -33q-147 0 -257 75.5t-166 204.5t-56 294q0 162 54 288.5t165.5 202.5t265.5 76q112 0 193.5 -43.5t140.5 -140.5v151h242v-1075h-242v147q-108 -180 -340 -180zM602 168q131 0 211 87.5t80 240.5v104q0 140 -81.5 223.5
t-211.5 83.5q-139 0 -218 -97.5t-79 -266.5q0 -173 80 -274t219 -101z" />
    <glyph glyph-name="abreve.ss01" horiz-adv-x="1255" 
d="M805 1554h190q0 -161 -107 -259.5t-282 -98.5q-174 0 -281.5 98.5t-107.5 259.5h191q0 -89 54.5 -142.5t143.5 -53.5q90 0 144.5 53.5t54.5 142.5zM553 -33q-147 0 -257 75.5t-166 204.5t-56 294q0 162 54 288.5t165.5 202.5t265.5 76q112 0 193.5 -43.5t140.5 -140.5
v151h242v-1075h-242v147q-108 -180 -340 -180zM602 168q131 0 211 87.5t80 240.5v104q0 140 -81.5 223.5t-211.5 83.5q-139 0 -218 -97.5t-79 -266.5q0 -173 80 -274t219 -101z" />
    <glyph glyph-name="acircumflex.ss01" horiz-adv-x="1255" 
d="M983 1196h-186l-191 227l-190 -227h-187l242 358h270zM553 -33q-147 0 -257 75.5t-166 204.5t-56 294q0 162 54 288.5t165.5 202.5t265.5 76q112 0 193.5 -43.5t140.5 -140.5v151h242v-1075h-242v147q-108 -180 -340 -180zM602 168q131 0 211 87.5t80 240.5v104
q0 140 -81.5 223.5t-211.5 83.5q-139 0 -218 -97.5t-79 -266.5q0 -173 80 -274t219 -101z" />
    <glyph glyph-name="adieresis.ss01" horiz-adv-x="1255" 
d="M451 1325q-49 0 -85 35t-36 88q0 47 36.5 81t84.5 34q53 0 86.5 -33.5t33.5 -81.5q0 -53 -35 -88t-85 -35zM776 1325q-52 0 -86.5 34.5t-34.5 88.5q0 48 35 81.5t86 33.5t86 -33.5t35 -81.5q0 -53 -36 -88t-85 -35zM553 -33q-147 0 -257 75.5t-166 204.5t-56 294
q0 162 54 288.5t165.5 202.5t265.5 76q112 0 193.5 -43.5t140.5 -140.5v151h242v-1075h-242v147q-108 -180 -340 -180zM602 168q131 0 211 87.5t80 240.5v104q0 140 -81.5 223.5t-211.5 83.5q-139 0 -218 -97.5t-79 -266.5q0 -173 80 -274t219 -101z" />
    <glyph glyph-name="agrave.ss01" horiz-adv-x="1255" 
d="M340 1554h311l221 -358h-194zM553 -33q-147 0 -257 75.5t-166 204.5t-56 294q0 162 54 288.5t165.5 202.5t265.5 76q112 0 193.5 -43.5t140.5 -140.5v151h242v-1075h-242v147q-108 -180 -340 -180zM602 168q131 0 211 87.5t80 240.5v104q0 140 -81.5 223.5t-211.5 83.5
q-139 0 -218 -97.5t-79 -266.5q0 -173 80 -274t219 -101z" />
    <glyph glyph-name="amacron.ss01" horiz-adv-x="1255" 
d="M948 1288h-686v185h686v-185zM553 -33q-147 0 -257 75.5t-166 204.5t-56 294q0 162 54 288.5t165.5 202.5t265.5 76q112 0 193.5 -43.5t140.5 -140.5v151h242v-1075h-242v147q-108 -180 -340 -180zM602 168q131 0 211 87.5t80 240.5v104q0 140 -81.5 223.5t-211.5 83.5
q-139 0 -218 -97.5t-79 -266.5q0 -173 80 -274t219 -101z" />
    <glyph glyph-name="aogonek.ss01" horiz-adv-x="1255" 
d="M1022 0q-133 -112 -133 -199q0 -86 135 -86q34 0 61 4v-133q-40 -6 -96 -6q-125 0 -185.5 54.5t-60.5 132.5q0 117 170 233h-20v147q-108 -180 -340 -180q-147 0 -257 75.5t-166 204.5t-56 294q0 162 54 288.5t165.5 202.5t265.5 76q112 0 193.5 -43.5t140.5 -140.5v151
h242v-1075h-113zM893 496v104q0 140 -81.5 223.5t-211.5 83.5q-139 0 -218 -97.5t-79 -266.5q0 -173 80 -274t219 -101q131 0 211 87.5t80 240.5z" />
    <glyph glyph-name="aring.ss01" horiz-adv-x="1255" 
d="M604 1219q-83 0 -133.5 50.5t-50.5 133.5q0 80 50.5 129t133.5 49q84 0 134 -49t50 -129q0 -84 -50 -134t-134 -50zM604 1327q33 0 53.5 20.5t20.5 53.5q0 32 -20 52t-54 20q-32 0 -52 -20t-20 -52t20 -53t52 -21zM553 -33q-147 0 -257 75.5t-166 204.5t-56 294
q0 162 54 288.5t165.5 202.5t265.5 76q112 0 193.5 -43.5t140.5 -140.5v151h242v-1075h-242v147q-108 -180 -340 -180zM602 168q131 0 211 87.5t80 240.5v104q0 140 -81.5 223.5t-211.5 83.5q-139 0 -218 -97.5t-79 -266.5q0 -173 80 -274t219 -101z" />
    <glyph glyph-name="atilde.ss01" horiz-adv-x="1255" 
d="M471 1518q41 0 79 -18.5t62 -41t53 -41t54 -18.5q33 0 53.5 29t20.5 79h163q0 -131 -60 -202.5t-157 -71.5q-46 0 -86.5 19t-63.5 41.5t-50 41.5t-50 19q-32 0 -51.5 -30t-19.5 -81h-162q0 120 60 197.5t155 77.5zM553 -33q-147 0 -257 75.5t-166 204.5t-56 294
q0 162 54 288.5t165.5 202.5t265.5 76q112 0 193.5 -43.5t140.5 -140.5v151h242v-1075h-242v147q-108 -180 -340 -180zM602 168q131 0 211 87.5t80 240.5v104q0 140 -81.5 223.5t-211.5 83.5q-139 0 -218 -97.5t-79 -266.5q0 -173 80 -274t219 -101z" />
    <glyph glyph-name="d.ss01" horiz-adv-x="1275" 
d="M541 -33q-216 0 -348 160t-132 420q0 253 133.5 407t352.5 154q97 0 189 -46.5t145 -121.5v616h241v-1556h-159l-82 131q-49 -73 -143 -118.5t-197 -45.5zM590 168q131 0 211 90t80 238v104q0 138 -81.5 222.5t-213.5 84.5q-128 0 -206.5 -100t-78.5 -264
q0 -169 79.5 -272t209.5 -103z" />
    <glyph glyph-name="i.ss01" horiz-adv-x="540" 
d="M270 1268q-62 0 -105.5 43t-43.5 106q0 61 43.5 103.5t105.5 42.5q64 0 107 -42.5t43 -103.5q0 -62 -44.5 -105.5t-105.5 -43.5zM150 0v1075h241v-1075h-241z" />
    <glyph glyph-name="idieresis.ss01" 
d="M109 1325q-50 0 -85.5 35t-35.5 88q0 47 35.5 81t85.5 34q52 0 86 -33.5t34 -81.5q0 -53 -35 -88t-85 -35zM432 1325q-50 0 -85.5 35t-35.5 88q0 47 35.5 81t85.5 34q52 0 86.5 -33.5t34.5 -81.5q0 -53 -36 -88t-85 -35zM154 0v1075h241v-1075h-241z" />
    <glyph glyph-name="j.ss01" horiz-adv-x="544" 
d="M274 1268q-62 0 -105.5 43t-43.5 106q0 61 43.5 103.5t105.5 42.5q61 0 105.5 -42.5t44.5 -103.5q0 -62 -44.5 -105.5t-105.5 -43.5zM74 -492q-40 0 -77.5 3t-54.5 7l-18 3v194q23 -6 66 -6q164 0 164 152v1214h241v-1231q0 -160 -78 -248t-243 -88z" />
    <glyph glyph-name="k.ss01" horiz-adv-x="1120" 
d="M1098 0h-260l-228 375l-248 -375h-241v1556h241v-1179l445 698h264l-328 -495z" />
    <glyph glyph-name="kcommaaccent.ss01" horiz-adv-x="1120" 
d="M1098 0h-260l-228 375l-248 -375h-241v1556h241v-1179l445 698h264l-328 -495zM487 -492l70 349h223l-129 -349h-164z" />
    <glyph glyph-name="l.ss01" horiz-adv-x="481" 
d="M121 0v1556h180l61 -481v-1075h-241z" />
    <glyph glyph-name="lacute.ss01" horiz-adv-x="555" 
d="M698 1995l-338 -359h-194l221 359h311zM129 0v1556h180l62 -481v-1075h-242z" />
    <glyph glyph-name="lcaron.ss01" 
d="M129 0v1556h180l62 -481v-1075h-242zM868 1556l-215 -358h-161l98 358h278z" />
    <glyph glyph-name="lcommaaccent.ss01" 
d="M129 0v1556h180l62 -481v-1075h-242zM90 -492l70 349h223l-129 -349h-164z" />
    <glyph glyph-name="lslash.ss01" horiz-adv-x="481" 
d="M569 1112v-262l-225 -152v-698h-242v539l-176 -119v262l176 119v755h181l61 -481v-114z" />
    <glyph glyph-name="n.ss01" horiz-adv-x="1243" 
d="M121 0v1075h991v-1075h-242v836h-508v-836h-241z" />
    <glyph glyph-name="nacute.ss01" horiz-adv-x="1243" 
d="M915 1556l-337 -358h-195l221 358h311zM121 0v1075h991v-1075h-242v836h-508v-836h-241z" />
    <glyph glyph-name="ncaron.ss01" horiz-adv-x="1243" 
d="M1026 1556l-242 -358h-270l-242 358h187l190 -227l191 227h186zM121 0v1075h991v-1075h-242v836h-508v-836h-241z" />
    <glyph glyph-name="ncommaaccent.ss01" horiz-adv-x="1243" 
d="M121 0v1075h991v-1075h-242v836h-508v-836h-241zM504 -492l69 349h224l-129 -349h-164z" />
    <glyph glyph-name="ntilde.ss01" horiz-adv-x="1243" 
d="M514 1520q41 0 79.5 -18.5t62 -41t52.5 -41t54 -18.5q34 0 55 29t21 79h161q0 -131 -60 -202.5t-157 -71.5q-46 0 -85.5 19t-62 41.5t-49.5 41.5t-50 19q-32 0 -52 -30t-20 -81h-164q0 120 60 197.5t155 77.5zM121 0v1075h991v-1075h-242v836h-508v-836h-241z" />
    <glyph glyph-name="q.ss01" horiz-adv-x="1275" 
d="M881 -492v623q-49 -73 -143 -118.5t-197 -45.5q-217 0 -348.5 158t-131.5 416q0 255 133.5 411t350.5 156q98 0 190.5 -46.5t145.5 -121.5l82 135h159v-1567h-241zM590 168q131 0 211 90t80 238v104q0 138 -81.5 222.5t-213.5 84.5q-128 0 -206.5 -100t-78.5 -264
q0 -169 79.5 -272t209.5 -103z" />
    <glyph glyph-name="r.ss01" horiz-adv-x="780" 
d="M121 0v1075h620v-239h-379v-836h-241z" />
    <glyph glyph-name="racute.ss01" horiz-adv-x="815" 
d="M731 1556l-338 -358h-194l221 358h311zM123 0v1075h620v-239h-378v-836h-242z" />
    <glyph glyph-name="rcaron.ss01" horiz-adv-x="813" 
d="M842 1556l-242 -358h-270l-242 358h186l191 -227l190 227h187zM123 0v1075h620v-239h-378v-836h-242z" />
    <glyph glyph-name="rcommaaccent.ss01" horiz-adv-x="813" 
d="M147 0v1075h621v-239h-379v-836h-242zM96 -492l70 349h223l-129 -349h-164z" />
    <glyph glyph-name="germandbls.ss01" horiz-adv-x="1574" 
d="M973 -33q-111 0 -204.5 34.5t-155 91.5t-96 130t-36.5 152h238q11 -83 78.5 -140t169.5 -57q70 0 125 28t88 75.5t50 108t17 128.5q0 143 -69.5 229.5t-194.5 86.5q-80 0 -135.5 -38t-99.5 -112l-39 -72l-222 29l344 674h-469v-1315h-241v1556h936v-241l-203 -354h12
q89 65 193 65q191 0 314.5 -146t123.5 -364q0 -87 -20.5 -167.5t-63.5 -150t-104 -121t-147.5 -81t-188.5 -29.5z" />
    <glyph glyph-name="t.ss01" horiz-adv-x="720" 
d="M182 0v866h-137v209h137v277h242v-277h227v-209h-227v-866h-242z" />
    <glyph glyph-name="tbar.ss01" horiz-adv-x="802" 
d="M725 866h-229v-256h229v-188h-229v-422h-242v422h-137v188h137v256h-137v209h137v277h242v-277h229v-209z" />
    <glyph glyph-name="tcaron.ss01" horiz-adv-x="921" 
d="M979 1556l-215 -358h-162l98 358h279zM190 0v866h-139v209h139v277h242v-277h227v-209h-227v-866h-242z" />
    <glyph glyph-name="uni0163.ss01" horiz-adv-x="718" 
d="M422 0h-66l-106 -104h33q78 0 126 -38t48 -100q0 -73 -59.5 -116t-166.5 -43h-116v104h108q42 0 67 14t25 39q0 22 -25 34.5t-67 12.5h-88v93l94 104h-49v866h-137v209h137v277h242v-277h227v-209h-227v-866z" />
    <glyph glyph-name="uni021B.ss01" horiz-adv-x="720" 
d="M184 0v866h-139v209h139v277h242v-277h227v-209h-227v-866h-242zM121 -492l69 349h224l-129 -349h-164z" />
    <glyph glyph-name="u.ss01" horiz-adv-x="1298" 
d="M154 0v1075h241v-835h508v835h242v-1075h-991z" />
    <glyph glyph-name="uacute.ss01" horiz-adv-x="1208" 
d="M862 1556l-338 -358h-194l221 358h311zM98 0v1075h242v-835h508v835h242v-1075h-992z" />
    <glyph glyph-name="ucircumflex.ss01" horiz-adv-x="1208" 
d="M973 1198h-187l-190 227l-193 -227h-184l242 358h270zM98 0v1075h242v-835h508v835h242v-1075h-992z" />
    <glyph glyph-name="udieresis.ss01" horiz-adv-x="1208" 
d="M330 1350v206h198v-206h-198zM684 1350v206h199v-206h-199zM98 0v1075h242v-835h508v835h242v-1075h-992z" />
    <glyph glyph-name="ugrave.ss01" horiz-adv-x="1208" 
d="M330 1556h311l221 -358h-194zM98 0v1075h242v-835h508v835h242v-1075h-992z" />
    <glyph glyph-name="uhungarumlaut.ss01" horiz-adv-x="1243" 
d="M639 1556l-338 -358h-195l222 358h311zM1118 1556l-338 -358h-194l221 358h311zM115 0v1075h241v-835h508v835h242v-1075h-991z" />
    <glyph glyph-name="umacron.ss01" horiz-adv-x="1208" 
d="M938 1290h-686v185h686v-185zM98 0v1075h242v-835h508v835h242v-1075h-992z" />
    <glyph glyph-name="uogonek.ss01" horiz-adv-x="1208" 
d="M700 0q-133 -114 -133 -197q0 -86 135 -86q35 0 62 4v-133q-40 -6 -96 -6q-124 0 -184 54.5t-60 130.5q0 40 16.5 77t47 68.5t51 48t51.5 39.5h-492v1075h242v-835h508v835h242v-1075h-390z" />
    <glyph glyph-name="uring.ss01" horiz-adv-x="1208" 
d="M594 1221q-83 0 -133.5 50.5t-50.5 133.5q0 80 50.5 129t133.5 49q84 0 134 -49t50 -129q0 -84 -50 -134t-134 -50zM594 1329q33 0 53.5 20.5t20.5 53.5q0 32 -20 52t-54 20q-32 0 -52 -20t-20 -52t20 -53t52 -21zM98 0v1075h242v-835h508v835h242v-1075h-992z" />
    <glyph glyph-name="y.ss01" horiz-adv-x="1101" 
d="M430 -492v492l-407 1075h258l233 -708l35 -101h4l37 101l231 708h258l-409 -1075v-492h-240z" />
    <glyph glyph-name="yacute.ss01" horiz-adv-x="1101" 
d="M817 1556l-338 -358h-194l221 358h311zM430 -492v492l-407 1075h258l233 -708l33 -101h6l37 101l231 708h258l-409 -1075v-492h-240z" />
    <glyph glyph-name="ycircumflex.ss01" horiz-adv-x="1101" 
d="M928 1198h-187l-190 227l-191 -227h-186l242 358h270zM430 -492v492l-407 1075h258l233 -708l33 -101h6l37 101l231 708h258l-409 -1075v-492h-240z" />
    <glyph glyph-name="ydieresis.ss01" horiz-adv-x="1101" 
d="M274 1350v206h199v-206h-199zM629 1350v206h198v-206h-198zM430 -492v492l-407 1075h258l233 -708l35 -101h4l37 101l231 708h258l-409 -1075v-492h-240z" />
    <glyph glyph-name="ygrave.ss01" horiz-adv-x="1101" 
d="M236 1556h311l221 -358h-195zM430 -492v492l-407 1075h258l233 -708l35 -101h4l37 101l231 708h258l-409 -1075v-492h-240z" />
    <glyph glyph-name="A.smcp" horiz-adv-x="1488" 
d="M63 0l555 1323h254l553 -1323h-264l-133 328h-565l-135 -328h-265zM543 551h403l-201 493z" />
    <glyph glyph-name="Aacute.smcp" horiz-adv-x="1488" 
d="M1010 1804l-338 -358h-195l221 358h312zM63 0l555 1323h254l553 -1323h-264l-133 328h-565l-135 -328h-265zM543 551h403l-201 493z" />
    <glyph glyph-name="Abreve.smcp" horiz-adv-x="1488" 
d="M942 1804h191q0 -161 -106.5 -259.5t-281.5 -98.5t-283 98.5t-108 259.5h191q0 -89 54.5 -142.5t145.5 -53.5q89 0 143 53.5t54 142.5zM63 0l555 1323h254l553 -1323h-264l-133 328h-565l-135 -328h-265zM543 551h403l-201 493z" />
    <glyph glyph-name="Acircumflex.smcp" horiz-adv-x="1488" 
d="M1120 1446h-186l-189 227l-192 -227h-186l241 358h271zM63 0l555 1323h254l553 -1323h-264l-133 328h-565l-135 -328h-265zM543 551h403l-201 493z" />
    <glyph glyph-name="Adieresis.smcp" horiz-adv-x="1488" 
d="M469 1597v207h199v-207h-199zM823 1597v207h199v-207h-199zM63 0l555 1323h254l553 -1323h-264l-133 328h-565l-135 -328h-265zM543 551h403l-201 493z" />
    <glyph glyph-name="Agrave.smcp" horiz-adv-x="1488" 
d="M477 1804h311l222 -358h-195zM63 0l555 1323h254l553 -1323h-264l-133 328h-565l-135 -328h-265zM543 551h403l-201 493z" />
    <glyph glyph-name="Amacron.smcp" horiz-adv-x="1488" 
d="M1087 1538h-686v184h686v-184zM63 0l555 1323h254l553 -1323h-264l-133 328h-565l-135 -328h-265zM543 551h403l-201 493z" />
    <glyph glyph-name="Aogonek.smcp" horiz-adv-x="1488" 
d="M1139 -199q0 -86 135 -86q34 0 61 4v-133q-40 -6 -96 -6q-124 0 -184 54t-60 130q0 120 170 236h-4l-133 328h-565l-135 -328h-265l555 1323h254l553 -1323h-151q-135 -111 -135 -199zM543 551h403l-201 493z" />
    <glyph glyph-name="Aring.smcp" horiz-adv-x="1488" 
d="M745 1468q-84 0 -134 50.5t-50 134.5q0 80 50 129t134 49q83 0 134 -49t51 -129q0 -83 -51 -134t-134 -51zM745 1577q32 0 52 21t20 53t-20 51.5t-52 19.5q-34 0 -53.5 -19.5t-19.5 -51.5q0 -33 20 -53.5t53 -20.5zM63 0l555 1323h254l553 -1323h-264l-133 328h-565
l-135 -328h-265zM543 551h403l-201 493z" />
    <glyph glyph-name="Atilde.smcp" horiz-adv-x="1488" 
d="M608 1767q42 0 80.5 -18.5t62 -40.5t52.5 -40.5t53 -18.5q34 0 55 29t21 79h162q0 -131 -60 -202.5t-157 -71.5q-46 0 -85.5 19t-62.5 41.5t-50 41.5t-50 19q-32 0 -52 -30t-20 -81h-164q0 120 60 197t155 77zM63 0l555 1323h254l553 -1323h-264l-133 328h-565l-135 -328
h-265zM543 551h403l-201 493z" />
    <glyph glyph-name="AE.smcp" horiz-adv-x="2177" 
d="M1239 248h760v-248h-1006v315h-504l-153 -315h-273l648 1323h1257v-248h-729v-270h662v-246h-662v-311zM852 1075l-246 -512h387v512h-141z" />
    <glyph glyph-name="AEacute.smcp" horiz-adv-x="2177" 
d="M1368 1804l-338 -358h-194l221 358h311zM1239 248h760v-248h-1006v315h-504l-153 -315h-273l648 1323h1257v-248h-729v-270h662v-246h-662v-311zM852 1075l-246 -512h387v512h-141z" />
    <glyph glyph-name="B.smcp" horiz-adv-x="1351" 
d="M178 0v1323h512q220 0 350.5 -86.5t130.5 -257.5q0 -96 -54.5 -169t-141.5 -93q117 -19 193.5 -111t76.5 -221q0 -182 -126 -283.5t-353 -101.5h-588zM420 786h231q131 0 202 39.5t71 116.5q0 81 -63 125.5t-187 44.5h-254v-326zM420 211h285q133 0 212.5 49t79.5 148
q0 94 -80.5 145t-224.5 51h-272v-393z" />
    <glyph glyph-name="C.smcp" horiz-adv-x="1560" 
d="M795 -29q-159 0 -288 51.5t-214.5 143t-131.5 216t-46 271.5q0 152 48 280.5t135.5 221.5t217 145t285.5 52q136 0 252.5 -42t199 -115t134.5 -170t67 -208h-254q-29 137 -139 227.5t-270 90.5q-195 0 -307.5 -132.5t-112.5 -340.5q0 -136 49 -242.5t145.5 -169
t225.5 -62.5q162 0 271 91.5t138 228.5h254q-30 -232 -207.5 -384.5t-451.5 -152.5z" />
    <glyph glyph-name="Cacute.smcp" horiz-adv-x="1560" 
d="M1047 1804l-338 -358h-195l221 358h312zM795 -29q-159 0 -288 51.5t-214.5 143t-131.5 216t-46 271.5q0 152 48 280.5t135.5 221.5t217 145t285.5 52q136 0 252.5 -42t199 -115t134.5 -170t67 -208h-254q-29 137 -139 227.5t-270 90.5q-195 0 -307.5 -132.5
t-112.5 -340.5q0 -136 49 -242.5t145.5 -169t225.5 -62.5q162 0 271 91.5t138 228.5h254q-30 -232 -207.5 -384.5t-451.5 -152.5z" />
    <glyph glyph-name="Ccaron.smcp" horiz-adv-x="1560" 
d="M1157 1804l-242 -358h-270l-242 358h185l192 -227l191 227h186zM795 -29q-159 0 -288 51.5t-214.5 143t-131.5 216t-46 271.5q0 152 48 280.5t135.5 221.5t217 145t285.5 52q136 0 252.5 -42t199 -115t134.5 -170t67 -208h-254q-29 137 -139 227.5t-270 90.5
q-195 0 -307.5 -132.5t-112.5 -340.5q0 -136 49 -242.5t145.5 -169t225.5 -62.5q162 0 271 91.5t138 228.5h254q-30 -232 -207.5 -384.5t-451.5 -152.5z" />
    <glyph glyph-name="Ccedilla.smcp" horiz-adv-x="1560" 
d="M791 188q162 0 271 91.5t138 228.5h254q-30 -226 -199.5 -377t-431.5 -160l-78 -75h33q78 0 125 -38t47 -100q0 -73 -58 -116t-165 -43h-117v104h109q42 0 67 14t25 39q0 22 -25 34.5t-67 12.5h-88v93l71 79q-276 29 -431.5 215t-155.5 463q0 152 48 280.5t135.5 221.5
t217 145t285.5 52q136 0 252.5 -42t199 -115t134.5 -170t67 -208h-254q-29 137 -139 227.5t-270 90.5q-195 0 -307.5 -132.5t-112.5 -340.5q0 -136 49 -242.5t145.5 -169t225.5 -62.5z" />
    <glyph glyph-name="Cdotaccent.smcp" horiz-adv-x="1560" 
d="M780 1528q-65 0 -111 45.5t-46 112.5q0 63 46 107t111 44q64 0 111 -44.5t47 -106.5q0 -66 -47 -112t-111 -46zM795 -29q-159 0 -288 51.5t-214.5 143t-131.5 216t-46 271.5q0 152 48 280.5t135.5 221.5t217 145t285.5 52q136 0 252.5 -42t199 -115t134.5 -170t67 -208
h-254q-29 137 -139 227.5t-270 90.5q-195 0 -307.5 -132.5t-112.5 -340.5q0 -136 49 -242.5t145.5 -169t225.5 -62.5q162 0 271 91.5t138 228.5h254q-30 -232 -207.5 -384.5t-451.5 -152.5z" />
    <glyph glyph-name="D.smcp" horiz-adv-x="1478" 
d="M741 -2l-563 2l2 1323h551q313 0 477 -157.5t164 -503.5q0 -340 -156 -503t-475 -161zM422 217h280q101 0 175 22.5t129 73t82.5 138.5t27.5 213q0 233 -99.5 337.5t-314.5 104.5h-280v-889z" />
    <glyph glyph-name="Eth.smcp" horiz-adv-x="1478" 
d="M731 1323q313 0 477 -157.5t164 -503.5q0 -340 -156 -503t-475 -161l-563 2v567h-139v187h141v569h551zM702 217q101 0 175 22.5t129 73t82.5 138.5t27.5 213q0 233 -99.5 337.5t-314.5 104.5h-280v-352h301v-187h-301v-350h280z" />
    <glyph glyph-name="Dcaron.smcp" horiz-adv-x="1478" 
d="M1108 1804l-242 -358h-270l-242 358h185l192 -227l191 227h186zM741 -2l-563 2l2 1323h551q313 0 477 -157.5t164 -503.5q0 -340 -156 -503t-475 -161zM422 217h280q101 0 175 22.5t129 73t82.5 138.5t27.5 213q0 233 -99.5 337.5t-314.5 104.5h-280v-889z" />
    <glyph glyph-name="Dcroat.smcp" horiz-adv-x="1478" 
d="M731 1323q313 0 477 -157.5t164 -503.5q0 -340 -156 -503t-475 -161l-563 2v567h-139v187h141v569h551zM702 217q101 0 175 22.5t129 73t82.5 138.5t27.5 213q0 233 -99.5 337.5t-314.5 104.5h-280v-352h301v-187h-301v-350h280z" />
    <glyph glyph-name="E.smcp" horiz-adv-x="1359" 
d="M418 236h764v-236h-1004v1323h973v-236h-733v-292h665v-224h-665v-335z" />
    <glyph glyph-name="Eacute.smcp" horiz-adv-x="1359" 
d="M946 1804l-338 -358h-194l221 358h311zM418 236h764v-236h-1004v1323h973v-236h-733v-292h665v-224h-665v-335z" />
    <glyph glyph-name="Ecaron.smcp" horiz-adv-x="1359" 
d="M1057 1804l-242 -358h-270l-242 358h186l193 -227l188 227h187zM418 236h764v-236h-1004v1323h973v-236h-733v-292h665v-224h-665v-335z" />
    <glyph glyph-name="Ecircumflex.smcp" horiz-adv-x="1359" 
d="M1057 1446h-187l-188 227l-193 -227h-186l242 358h270zM418 236h764v-236h-1004v1323h973v-236h-733v-292h665v-224h-665v-335z" />
    <glyph glyph-name="Edieresis.smcp" horiz-adv-x="1359" 
d="M410 1597v207h198v-207h-198zM764 1597v207h199v-207h-199zM418 236h764v-236h-1004v1323h973v-236h-733v-292h665v-224h-665v-335z" />
    <glyph glyph-name="Edotaccent.smcp" horiz-adv-x="1359" 
d="M682 1528q-65 0 -111.5 45.5t-46.5 112.5q0 63 46.5 107t111.5 44q63 0 109.5 -44t46.5 -107q0 -67 -46 -112.5t-110 -45.5zM418 236h764v-236h-1004v1323h973v-236h-733v-292h665v-224h-665v-335z" />
    <glyph glyph-name="Egrave.smcp" horiz-adv-x="1359" 
d="M414 1804h311l221 -358h-194zM418 236h764v-236h-1004v1323h973v-236h-733v-292h665v-224h-665v-335z" />
    <glyph glyph-name="Emacron.smcp" horiz-adv-x="1359" 
d="M1024 1538h-686v184h686v-184zM418 236h764v-236h-1004v1323h973v-236h-733v-292h665v-224h-665v-335z" />
    <glyph glyph-name="Eogonek.smcp" horiz-adv-x="1359" 
d="M1143 -285q34 0 61 4v-133q-41 -6 -96 -6q-125 0 -185.5 54t-60.5 130q0 120 170 236h-854v1323h973v-236h-733v-292h665v-224h-665v-335h764v-236h-41q-133 -112 -133 -199q0 -86 135 -86z" />
    <glyph glyph-name="F.smcp" horiz-adv-x="1183" 
d="M1133 1087h-715v-292h637v-224h-637v-571h-240v1323h955v-236z" />
    <glyph glyph-name="G.smcp" horiz-adv-x="1591" 
d="M854 -29q-340 0 -539.5 189t-199.5 504q0 314 188 501t496 187q261 0 442 -134t213 -346h-254q-33 118 -140.5 190.5t-262.5 72.5q-194 0 -310 -127t-116 -344q0 -219 129 -347.5t356 -128.5q110 0 212.5 36t154.5 100v170h-471v213h702v-461q-83 -124 -247.5 -199.5
t-352.5 -75.5z" />
    <glyph glyph-name="Gbreve.smcp" horiz-adv-x="1591" 
d="M1012 1804h190q0 -161 -106.5 -259.5t-280.5 -98.5q-175 0 -283 98.5t-108 259.5h190q0 -89 55 -142.5t146 -53.5q89 0 143 53.5t54 142.5zM854 -29q-340 0 -539.5 189t-199.5 504q0 314 188 501t496 187q261 0 442 -134t213 -346h-254q-33 118 -140.5 190.5t-262.5 72.5
q-194 0 -310 -127t-116 -344q0 -219 129 -347.5t356 -128.5q110 0 212.5 36t154.5 100v170h-471v213h702v-461q-83 -124 -247.5 -199.5t-352.5 -75.5z" />
    <glyph glyph-name="Gcommaaccent.smcp" horiz-adv-x="1591" 
d="M854 -29q-340 0 -539.5 189t-199.5 504q0 314 188 501t496 187q261 0 442 -134t213 -346h-254q-33 118 -140.5 190.5t-262.5 72.5q-194 0 -310 -127t-116 -344q0 -219 129 -347.5t356 -128.5q110 0 212.5 36t154.5 100v170h-471v213h702v-461q-83 -124 -247.5 -199.5
t-352.5 -75.5zM668 -492l69 349h224l-130 -349h-163z" />
    <glyph glyph-name="Gdotaccent.smcp" horiz-adv-x="1591" 
d="M813 1528q-64 0 -110 45.5t-46 112.5q0 63 46.5 107t109.5 44q65 0 111.5 -44t46.5 -107q0 -67 -46.5 -112.5t-111.5 -45.5zM854 -29q-340 0 -539.5 189t-199.5 504q0 314 188 501t496 187q261 0 442 -134t213 -346h-254q-33 118 -140.5 190.5t-262.5 72.5
q-194 0 -310 -127t-116 -344q0 -219 129 -347.5t356 -128.5q110 0 212.5 36t154.5 100v170h-471v213h702v-461q-83 -124 -247.5 -199.5t-352.5 -75.5z" />
    <glyph glyph-name="H.smcp" horiz-adv-x="1468" 
d="M1049 1323h239v-1323h-239v563h-629v-563h-242v1323h242v-528h629v528z" />
    <glyph glyph-name="Hbar.smcp" horiz-adv-x="1468" 
d="M1415 1098v-187h-127v-911h-239v563h-629v-563h-242v911h-127v187h127v225h242v-225h629v225h239v-225h127zM1049 795v116h-629v-116h629z" />
    <glyph glyph-name="I.smcp" 
d="M154 0v1323h241v-1323h-241z" />
    <glyph glyph-name="Iacute.smcp" 
d="M539 1804l-338 -358h-195l221 358h312zM154 0v1323h241v-1323h-241z" />
    <glyph glyph-name="Icircumflex.smcp" 
d="M649 1446h-186l-189 227l-192 -227h-186l241 358h271zM154 0v1323h241v-1323h-241z" />
    <glyph glyph-name="Idieresis.smcp" 
d="M-6 1597v207h199v-207h-199zM348 1597v207h199v-207h-199zM152 0v1323h239v-1323h-239z" />
    <glyph glyph-name="Idotaccent.smcp" 
d="M272 1528q-64 0 -109.5 45.5t-45.5 112.5q0 63 46 107t109 44q65 0 111.5 -44t46.5 -107q0 -67 -46.5 -112.5t-111.5 -45.5zM154 0v1323h241v-1323h-241z" />
    <glyph glyph-name="Igrave.smcp" 
d="M6 1804h311l222 -358h-195zM154 0v1323h241v-1323h-241z" />
    <glyph glyph-name="Imacron.smcp" 
d="M616 1538h-686v184h686v-184zM154 0v1323h241v-1323h-241z" />
    <glyph glyph-name="Iogonek.smcp" 
d="M373 -285q34 0 61 4v-133q-40 -6 -96 -6q-124 0 -184 54t-60 130q0 40 17 78t48 70t52 49.5t51 38.5h-108v1323h241v-1323h-22q-135 -111 -135 -199q0 -86 135 -86z" />
    <glyph glyph-name="J.smcp" horiz-adv-x="1200" 
d="M561 -29q-242 0 -371.5 115t-144.5 338h250q15 -121 76 -178.5t182 -57.5q40 0 72.5 6.5t57 17t43 31.5t31.5 40.5t21.5 54.5t13.5 63.5t7.5 76.5t3 85.5t0.5 98.5v661h244v-731q0 -121 -11.5 -210.5t-43 -170.5t-85 -131t-140.5 -79.5t-206 -29.5z" />
    <glyph glyph-name="K.smcp" horiz-adv-x="1308" 
d="M1245 0h-297l-528 582v-582h-242v1323h242v-567l498 567h296l-581 -651z" />
    <glyph glyph-name="Kcommaaccent.smcp" horiz-adv-x="1308" 
d="M633 672l612 -672h-297l-528 582v-582h-242v1323h242v-567l498 567h296zM483 -492l70 349h223l-129 -349h-164z" />
    <glyph glyph-name="L.smcp" horiz-adv-x="1177" 
d="M418 236h715v-236h-955v1323h240v-1087z" />
    <glyph glyph-name="Lacute.smcp" horiz-adv-x="1177" 
d="M848 1804l-338 -358h-195l222 358h311zM418 236h715v-236h-955v1323h240v-1087z" />
    <glyph glyph-name="Lcaron.smcp" horiz-adv-x="1232" 
d="M438 236h715v-236h-954v1323h239v-1087zM1188 1323l-195 -305h-170l88 305h277z" />
    <glyph glyph-name="Lcommaaccent.smcp" horiz-adv-x="1177" 
d="M418 236h715v-236h-955v1323h240v-1087zM436 -492l70 349h223l-129 -349h-164z" />
    <glyph glyph-name="Lslash.smcp" horiz-adv-x="1177" 
d="M418 236h715v-236h-955v600l-188 -127v262l188 127v461h240v-301l215 143v-262l-215 -143v-524z" />
    <glyph glyph-name="M.smcp" horiz-adv-x="1722" 
d="M190 0v1323h265l411 -1049l410 1049h266v-1323h-239v829l-314 -829h-244l-313 829v-829h-242z" />
    <glyph glyph-name="N.smcp" horiz-adv-x="1478" 
d="M178 0v1323h236l635 -934v934h239v-1323h-244l-624 899v-899h-242z" />
    <glyph glyph-name="Nacute.smcp" horiz-adv-x="1478" 
d="M995 1804l-338 -358h-194l221 358h311zM178 0v1323h236l635 -934v934h239v-1323h-244l-624 899v-899h-242z" />
    <glyph glyph-name="Ncaron.smcp" horiz-adv-x="1478" 
d="M1106 1804l-242 -358h-270l-242 358h185l192 -227l191 227h186zM178 0v1323h236l635 -934v934h239v-1323h-244l-624 899v-899h-242z" />
    <glyph glyph-name="Ncommaaccent.smcp" horiz-adv-x="1478" 
d="M178 0v1323h236l635 -934v934h239v-1323h-244l-624 899v-899h-242zM584 -492l69 349h224l-129 -349h-164z" />
    <glyph glyph-name="Eng.smcp" horiz-adv-x="1478" 
d="M913 -418q-76 0 -138 15t-103.5 41.5t-72.5 59t-49 72t-27 75t-13 73.5h248q0 -22 5 -42.5t18 -46t44.5 -41t77.5 -15.5q38 0 65 12t42.5 30t24 49t11 59t3.5 69l-627 907v-899h-244v1323h240l626 -934v934h244v-1323q0 -70 -7 -124.5t-30.5 -112t-63.5 -95.5t-109.5 -62
t-164.5 -24z" />
    <glyph glyph-name="Ntilde.smcp" horiz-adv-x="1478" 
d="M592 1767q41 0 80 -18.5t63 -40.5t53 -40.5t54 -18.5q33 0 53 29t20 79h164q0 -131 -60 -202.5t-157 -71.5q-46 0 -86.5 19t-63.5 41.5t-50 41.5t-50 19q-32 0 -51.5 -30t-19.5 -81h-162q0 120 59.5 197t153.5 77zM178 0v1323h236l635 -934v934h239v-1323h-244l-624 899
v-899h-242z" />
    <glyph glyph-name="O.smcp" horiz-adv-x="1615" 
d="M809 -29q-211 0 -370 90.5t-241.5 246.5t-82.5 354t82.5 353.5t241.5 246t370 90.5t369.5 -90.5t240.5 -246t82 -353.5t-82 -354t-240.5 -246.5t-369.5 -90.5zM809 188q133 0 233 65t150.5 172t50.5 237t-50.5 236.5t-150.5 171.5t-233 65q-134 0 -235 -65t-152 -171.5
t-51 -236.5t51 -237t152 -172t235 -65z" />
    <glyph glyph-name="Oacute.smcp" horiz-adv-x="1615" 
d="M1073 1804l-338 -358h-194l221 358h311zM809 -29q-211 0 -370 90.5t-241.5 246.5t-82.5 354t82.5 353.5t241.5 246t370 90.5t369.5 -90.5t240.5 -246t82 -353.5t-82 -354t-240.5 -246.5t-369.5 -90.5zM809 188q133 0 233 65t150.5 172t50.5 237t-50.5 236.5t-150.5 171.5
t-233 65q-134 0 -235 -65t-152 -171.5t-51 -236.5t51 -237t152 -172t235 -65z" />
    <glyph glyph-name="Ocircumflex.smcp" horiz-adv-x="1615" 
d="M1184 1446h-187l-188 227l-193 -227h-186l242 358h270zM809 -29q-211 0 -370 90.5t-241.5 246.5t-82.5 354t82.5 353.5t241.5 246t370 90.5t369.5 -90.5t240.5 -246t82 -353.5t-82 -354t-240.5 -246.5t-369.5 -90.5zM809 188q133 0 233 65t150.5 172t50.5 237
t-50.5 236.5t-150.5 171.5t-233 65q-134 0 -235 -65t-152 -171.5t-51 -236.5t51 -237t152 -172t235 -65z" />
    <glyph glyph-name="Odieresis.smcp" horiz-adv-x="1615" 
d="M532 1597v207h199v-207h-199zM887 1597v207h198v-207h-198zM809 -29q-211 0 -370 90.5t-241.5 246.5t-82.5 354t82.5 353.5t241.5 246t370 90.5t369.5 -90.5t240.5 -246t82 -353.5t-82 -354t-240.5 -246.5t-369.5 -90.5zM809 188q133 0 233.5 65t151.5 172t51 237
t-51 236.5t-151.5 171.5t-233.5 65q-200 0 -318 -136t-118 -337t118 -337.5t318 -136.5z" />
    <glyph glyph-name="Ograve.smcp" horiz-adv-x="1615" 
d="M541 1804h311l221 -358h-194zM809 -29q-211 0 -370 90.5t-241.5 246.5t-82.5 354t82.5 353.5t241.5 246t370 90.5t369.5 -90.5t240.5 -246t82 -353.5t-82 -354t-240.5 -246.5t-369.5 -90.5zM809 188q133 0 233 65t150.5 172t50.5 237t-50.5 236.5t-150.5 171.5t-233 65
q-134 0 -235 -65t-152 -171.5t-51 -236.5t51 -237t152 -172t235 -65z" />
    <glyph glyph-name="Ohungarumlaut.smcp" horiz-adv-x="1615" 
d="M834 1804l-338 -358h-195l221 358h312zM1315 1804l-338 -358h-195l222 358h311zM809 -29q-211 0 -370 90.5t-241.5 246.5t-82.5 354t82.5 353.5t241.5 246t370 90.5t369.5 -90.5t240.5 -246t82 -353.5t-82 -354t-240.5 -246.5t-369.5 -90.5zM809 188q133 0 233 65
t150.5 172t50.5 237t-50.5 236.5t-150.5 171.5t-233 65q-134 0 -235 -65t-152 -171.5t-51 -236.5t51 -237t152 -172t235 -65z" />
    <glyph glyph-name="Omacron.smcp" horiz-adv-x="1615" 
d="M1151 1538h-686v184h686v-184zM809 -29q-211 0 -370 90.5t-241.5 246.5t-82.5 354t82.5 353.5t241.5 246t370 90.5t369.5 -90.5t240.5 -246t82 -353.5t-82 -354t-240.5 -246.5t-369.5 -90.5zM809 188q133 0 233 65t150.5 172t50.5 237t-50.5 236.5t-150.5 171.5t-233 65
q-134 0 -235 -65t-152 -171.5t-51 -236.5t51 -237t152 -172t235 -65z" />
    <glyph glyph-name="Oslash.smcp" horiz-adv-x="1615" 
d="M1264 1204q115 -94 176 -233.5t61 -308.5q0 -198 -82 -354t-240.5 -246.5t-369.5 -90.5q-162 0 -295 54l-166 -261h-221l225 355q-114 94 -175.5 234.5t-61.5 308.5q0 198 82.5 353.5t241.5 246t370 90.5q160 0 293 -54l166 261h221zM371 662q0 -202 114 -334l494 776
q-79 31 -170 31q-134 0 -235 -65t-152 -171.5t-51 -236.5zM809 188q133 0 233 65t150.5 172t50.5 237q0 200 -113 331l-493 -774q79 -31 172 -31z" />
    <glyph glyph-name="Otilde.smcp" horiz-adv-x="1615" 
d="M672 1767q42 0 80.5 -18.5t62 -40.5t52.5 -40.5t53 -18.5q34 0 54.5 29t20.5 79h162q0 -131 -60 -202.5t-157 -71.5q-46 0 -85.5 19t-62.5 41.5t-50 41.5t-50 19q-32 0 -51.5 -30t-19.5 -81h-164q0 120 60 197t155 77zM809 -29q-211 0 -370 90.5t-241.5 246.5t-82.5 354
t82.5 353.5t241.5 246t370 90.5t369.5 -90.5t240.5 -246t82 -353.5t-82 -354t-240.5 -246.5t-369.5 -90.5zM809 188q133 0 233 65t150.5 172t50.5 237t-50.5 236.5t-150.5 171.5t-233 65q-134 0 -235 -65t-152 -171.5t-51 -236.5t51 -237t152 -172t235 -65z" />
    <glyph glyph-name="OE.smcp" horiz-adv-x="2433" 
d="M809 -29q-212 0 -371 90.5t-241 246.5t-82 354t82 353.5t241 246t371 90.5q273 0 442 -156v129h971v-238h-729v-284h661v-236h-661v-327h762v-238h-1004v127q-168 -158 -442 -158zM807 188q133 0 233.5 65t151.5 172t51 237t-51 236.5t-151.5 171.5t-233.5 65t-233.5 -65
t-151.5 -171.5t-51 -236.5t51 -237t151.5 -172t233.5 -65z" />
    <glyph glyph-name="P.smcp" horiz-adv-x="1277" 
d="M178 0v1323h537q210 0 333 -101t123 -294q0 -188 -124 -290.5t-345 -102.5h-282v-535h-242zM420 745h244q122 0 191 44t69 137q0 90 -67.5 138t-192.5 48h-244v-367z" />
    <glyph glyph-name="Thorn.smcp" horiz-adv-x="1277" 
d="M680 1073q81 0 149.5 -11t133.5 -39t109.5 -71.5t71.5 -113.5t27 -160q0 -393 -493 -393h-256v-285h-244v1323h244v-250h258zM651 506q45 0 76.5 2.5t69.5 12t61 27t39 50t16 78.5q0 56 -22.5 93t-64.5 53.5t-81.5 22t-93.5 5.5h-229v-344h229z" />
    <glyph glyph-name="Q.smcp" horiz-adv-x="1615" 
d="M1501 662q0 -172 -64 -314.5t-182 -234.5l246 -228h-289l-139 129q-116 -43 -264 -43q-211 0 -370 90.5t-241.5 246.5t-82.5 354t82.5 353.5t241.5 246t370 90.5t369.5 -90.5t240.5 -246t82 -353.5zM809 188q9 0 72 5l-219 202h288l127 -119q81 66 124.5 166.5
t43.5 219.5q0 201 -118 337t-318 136q-202 0 -320 -136t-118 -337q0 -131 50.5 -237.5t151.5 -171.5t236 -65z" />
    <glyph glyph-name="R.smcp" horiz-adv-x="1290" 
d="M178 0v1323h512q226 0 353.5 -97t127.5 -282q0 -146 -105.5 -245.5t-285.5 -116.5q-31 -4 -84 -4l547 -578h-297l-526 563v-563h-242zM420 766h262q102 0 171 42.5t69 127.5q0 86 -66.5 131t-191.5 45h-244v-346z" />
    <glyph glyph-name="Racute.smcp" horiz-adv-x="1290" 
d="M905 1804l-338 -358h-194l221 358h311zM178 0v1323h512q226 0 353.5 -97t127.5 -282q0 -146 -105.5 -245.5t-285.5 -116.5q-31 -4 -84 -4l547 -578h-297l-526 563v-563h-242zM420 766h262q102 0 171 42.5t69 127.5q0 86 -66.5 131t-191.5 45h-244v-346z" />
    <glyph glyph-name="Rcaron.smcp" horiz-adv-x="1290" 
d="M1016 1804l-242 -358h-270l-242 358h184l193 -227l190 227h187zM178 0v1323h512q226 0 353.5 -97t127.5 -282q0 -146 -105.5 -245.5t-285.5 -116.5q-31 -4 -84 -4l547 -578h-297l-526 563v-563h-242zM420 766h262q102 0 171 42.5t69 127.5q0 86 -66.5 131t-191.5 45h-244
v-346z" />
    <glyph glyph-name="Rcommaaccent.smcp" horiz-adv-x="1290" 
d="M178 0v1323h512q226 0 353.5 -97t127.5 -282q0 -146 -105.5 -245.5t-285.5 -116.5q-31 -4 -84 -4l547 -578h-297l-526 563v-563h-242zM420 766h262q102 0 171 42.5t69 127.5q0 86 -66.5 131t-191.5 45h-244v-346zM494 -492l69 349h223l-129 -349h-163z" />
    <glyph glyph-name="S.smcp" horiz-adv-x="1335" 
d="M711 -41q-149 0 -265.5 36.5t-190.5 101.5t-115 148.5t-50 182.5h242q35 -144 135.5 -204t259.5 -60q264 0 264 180q0 23 -5.5 43.5t-19 37t-26.5 29.5t-37.5 25.5t-41 20.5t-48.5 18.5t-49.5 15.5l-52.5 15q-220 60 -297 92q-168 69 -221 182q-28 59 -29 135
q-2 83 27 150t78.5 111t117 73.5t139 42.5t148.5 13q243 0 378.5 -120t143.5 -319h-242q-7 68 -36.5 116.5t-74 73.5t-90.5 35.5t-98 10.5q-38 0 -76 -7t-81 -23.5t-70 -53t-27 -88.5q0 -30 8.5 -53.5t30 -43t44.5 -33.5t66.5 -29.5t81 -26t101.5 -27.5q172 -45 218 -62
q185 -66 244 -186q32 -66 32 -152q0 -401 -516 -401z" />
    <glyph glyph-name="Sacute.smcp" horiz-adv-x="1335" 
d="M924 1788l-338 -358h-195l221 358h312zM711 -41q-149 0 -265.5 36.5t-190.5 101.5t-115 148.5t-50 182.5h242q35 -144 135.5 -204t259.5 -60q264 0 264 180q0 23 -5.5 43.5t-19 37t-26.5 29.5t-37.5 25.5t-41 20.5t-48.5 18.5t-49.5 15.5l-52.5 15q-220 60 -297 92
q-168 69 -221 182q-28 59 -29 135q-2 83 27 150t78.5 111t117 73.5t139 42.5t148.5 13q243 0 378.5 -120t143.5 -319h-242q-7 68 -36.5 116.5t-74 73.5t-90.5 35.5t-98 10.5q-38 0 -76 -7t-81 -23.5t-70 -53t-27 -88.5q0 -30 8.5 -53.5t30 -43t44.5 -33.5t66.5 -29.5t81 -26
t101.5 -27.5q172 -45 218 -62q185 -66 244 -186q32 -66 32 -152q0 -401 -516 -401z" />
    <glyph glyph-name="Scaron.smcp" horiz-adv-x="1335" 
d="M1034 1788l-241 -358h-271l-241 358h186l190 -227l191 227h186zM711 -41q-149 0 -265.5 36.5t-190.5 101.5t-115 148.5t-50 182.5h242q35 -144 135.5 -204t259.5 -60q264 0 264 180q0 23 -5.5 43.5t-19 37t-26.5 29.5t-37.5 25.5t-41 20.5t-48.5 18.5t-49.5 15.5
l-52.5 15q-220 60 -297 92q-168 69 -221 182q-28 59 -29 135q-2 83 27 150t78.5 111t117 73.5t139 42.5t148.5 13q243 0 378.5 -120t143.5 -319h-242q-7 68 -36.5 116.5t-74 73.5t-90.5 35.5t-98 10.5q-38 0 -76 -7t-81 -23.5t-70 -53t-27 -88.5q0 -30 8.5 -53.5t30 -43
t44.5 -33.5t66.5 -29.5t81 -26t101.5 -27.5q172 -45 218 -62q185 -66 244 -186q32 -66 32 -152q0 -401 -516 -401z" />
    <glyph glyph-name="Scedilla.smcp" horiz-adv-x="1335" 
d="M711 -41h-23l-65 -63h32q78 0 126 -38t48 -100q0 -73 -59 -116t-166 -43h-117v104h109q42 0 67 14t25 39q0 22 -25 34.5t-67 12.5h-88v93l65 71q-225 31 -346 156t-137 305h242q35 -144 135.5 -204t259.5 -60q264 0 264 180q0 23 -5.5 43.5t-19 37t-26.5 29.5t-37.5 25.5
t-41 20.5t-48.5 18.5t-49.5 15.5l-52.5 15q-220 60 -297 92q-168 69 -221 182q-28 59 -29 135q-2 83 27 150t78.5 111t117 73.5t139 42.5t148.5 13q243 0 378.5 -120t143.5 -319h-242q-7 68 -36.5 116.5t-74 73.5t-90.5 35.5t-98 10.5q-38 0 -76 -7t-81 -23.5t-70 -53
t-27 -88.5q0 -30 8.5 -53.5t30 -43t44.5 -33.5t66.5 -29.5t81 -26t101.5 -27.5q172 -45 218 -62q185 -66 244 -186q32 -66 32 -152q0 -401 -516 -401z" />
    <glyph glyph-name="Scommaaccent.smcp" horiz-adv-x="1335" 
d="M711 -41q-149 0 -265.5 36.5t-190.5 101.5t-115 148.5t-50 182.5h242q35 -144 135.5 -204t259.5 -60q264 0 264 180q0 23 -5.5 43.5t-19 37t-26.5 29.5t-37.5 25.5t-41 20.5t-48.5 18.5t-49.5 15.5l-52.5 15q-220 60 -297 92q-168 69 -221 182q-28 59 -29 135
q-2 83 27 150t78.5 111t117 73.5t139 42.5t148.5 13q243 0 378.5 -120t143.5 -319h-242q-7 68 -36.5 116.5t-74 73.5t-90.5 35.5t-98 10.5q-38 0 -76 -7t-81 -23.5t-70 -53t-27 -88.5q0 -30 8.5 -53.5t30 -43t44.5 -33.5t66.5 -29.5t81 -26t101.5 -27.5q172 -45 218 -62
q185 -66 244 -186q32 -66 32 -152q0 -401 -516 -401zM512 -492l70 349h223l-129 -349h-164z" />
    <glyph glyph-name="T.smcp" horiz-adv-x="1218" 
d="M1155 1087h-424v-1087h-242v1087h-426v236h1090z" />
    <glyph glyph-name="Tbar.smcp" horiz-adv-x="1218" 
d="M731 1087v-333h223v-187h-223v-567h-242v567h-221v187h221v333h-426v236h1090l2 -236h-424z" />
    <glyph glyph-name="Tcaron.smcp" horiz-adv-x="1218" 
d="M987 1804l-242 -358h-270l-242 358h187l190 -227l191 227h186zM1155 1087h-424v-1087h-242v1087h-426v236h1090z" />
    <glyph glyph-name="uni0162.smcp" horiz-adv-x="1218" 
d="M608 -104q78 0 126 -38t48 -100q0 -73 -59 -116t-166 -43h-117v104h109q42 0 67 14t25 39q0 22 -25 34.5t-67 12.5h-88v93l94 104h-66v1087h-426v236h1090l2 -236h-424v-1032h8l-8 -8v-47h-49l-107 -104h33z" />
    <glyph glyph-name="uni021A.smcp" horiz-adv-x="1218" 
d="M1155 1087h-424v-1087h-242v1087h-426v236h1090zM465 -492l70 349h223l-129 -349h-164z" />
    <glyph glyph-name="U.smcp" horiz-adv-x="1425" 
d="M733 -29q-97 0 -176 15.5t-136 43.5t-100 70.5t-70 91.5t-43.5 112.5t-23 127.5t-6.5 141v750h242v-676q0 -65 2 -109.5t9 -97t20 -86.5t36 -68.5t56 -54t80.5 -31.5t109.5 -12q54 0 97.5 8.5t75.5 26.5t55.5 39.5t39 55.5t25.5 66.5t15 79t6.5 87t1.5 96.5v676h239v-750
q0 -112 -13.5 -197.5t-50 -164.5t-97.5 -129.5t-160 -80.5t-234 -30z" />
    <glyph glyph-name="Uacute.smcp" horiz-adv-x="1425" 
d="M995 1804l-338 -358h-194l221 358h311zM733 -29q-97 0 -176 15.5t-136 43.5t-100 70.5t-70 91.5t-43.5 112.5t-23 127.5t-6.5 141v750h242v-676q0 -65 2 -109.5t9 -97t20 -86.5t36 -68.5t56 -54t80.5 -31.5t109.5 -12q54 0 97.5 8.5t75.5 26.5t55.5 39.5t39 55.5
t25.5 66.5t15 79t6.5 87t1.5 96.5v676h239v-750q0 -112 -13.5 -197.5t-50 -164.5t-97.5 -129.5t-160 -80.5t-234 -30z" />
    <glyph glyph-name="Ucircumflex.smcp" horiz-adv-x="1425" 
d="M1106 1446h-186l-191 227l-192 -227h-185l242 358h270zM733 -29q-97 0 -176 15.5t-136 43.5t-100 70.5t-70 91.5t-43.5 112.5t-23 127.5t-6.5 141v750h242v-676q0 -65 2 -109.5t9 -97t20 -86.5t36 -68.5t56 -54t80.5 -31.5t109.5 -12q54 0 97.5 8.5t75.5 26.5t55.5 39.5
t39 55.5t25.5 66.5t15 79t6.5 87t1.5 96.5v676h239v-750q0 -112 -13.5 -197.5t-50 -164.5t-97.5 -129.5t-160 -80.5t-234 -30z" />
    <glyph glyph-name="Udieresis.smcp" horiz-adv-x="1425" 
d="M457 1597v207h198v-207h-198zM811 1597v207h199v-207h-199zM733 -29q-97 0 -176 15.5t-136 43.5t-100 70.5t-70 91.5t-43.5 112.5t-23 127.5t-6.5 141v750h242v-676q0 -65 2 -109.5t9 -97t20 -86.5t36 -68.5t56 -54t80.5 -31.5t109.5 -12q54 0 97.5 8.5t75.5 26.5
t55.5 39.5t39 55.5t25.5 66.5t15 79t6.5 87t1.5 96.5v676h239v-750q0 -112 -13.5 -197.5t-50 -164.5t-97.5 -129.5t-160 -80.5t-234 -30z" />
    <glyph glyph-name="Ugrave.smcp" horiz-adv-x="1425" 
d="M463 1804h311l221 -358h-194zM733 -29q-97 0 -176 15.5t-136 43.5t-100 70.5t-70 91.5t-43.5 112.5t-23 127.5t-6.5 141v750h242v-676q0 -65 2 -109.5t9 -97t20 -86.5t36 -68.5t56 -54t80.5 -31.5t109.5 -12q54 0 97.5 8.5t75.5 26.5t55.5 39.5t39 55.5t25.5 66.5t15 79
t6.5 87t1.5 96.5v676h239v-750q0 -112 -13.5 -197.5t-50 -164.5t-97.5 -129.5t-160 -80.5t-234 -30z" />
    <glyph glyph-name="Uhungarumlaut.smcp" horiz-adv-x="1425" 
d="M754 1804l-338 -358h-195l221 358h312zM1235 1804l-338 -358h-195l222 358h311zM733 -29q-97 0 -176 15.5t-136 43.5t-100 70.5t-70 91.5t-43.5 112.5t-23 127.5t-6.5 141v750h242v-676q0 -65 2 -109.5t9 -97t20 -86.5t36 -68.5t56 -54t80.5 -31.5t109.5 -12
q54 0 97.5 8.5t75.5 26.5t55.5 39.5t39 55.5t25.5 66.5t15 79t6.5 87t1.5 96.5v676h239v-750q0 -112 -13.5 -197.5t-50 -164.5t-97.5 -129.5t-160 -80.5t-234 -30z" />
    <glyph glyph-name="Umacron.smcp" horiz-adv-x="1425" 
d="M1073 1538h-686v184h686v-184zM733 -29q-97 0 -176 15.5t-136 43.5t-100 70.5t-70 91.5t-43.5 112.5t-23 127.5t-6.5 141v750h242v-676q0 -65 2 -109.5t9 -97t20 -86.5t36 -68.5t56 -54t80.5 -31.5t109.5 -12q54 0 97.5 8.5t75.5 26.5t55.5 39.5t39 55.5t25.5 66.5t15 79
t6.5 87t1.5 96.5v676h239v-750q0 -112 -13.5 -197.5t-50 -164.5t-97.5 -129.5t-160 -80.5t-234 -30z" />
    <glyph glyph-name="Uogonek.smcp" horiz-adv-x="1425" 
d="M1049 1323h239v-750q0 -90 -9 -162t-30 -141.5t-59.5 -120.5t-94.5 -91t-137.5 -62t-185.5 -25q-104 -93 -104 -170q0 -86 135 -86q34 0 61 4v-133q-40 -6 -96 -6q-124 0 -184 54t-60 130q0 108 133 209q-116 8 -201.5 43t-138 87t-84.5 128.5t-43.5 157.5t-11.5 184v750
h242v-676q0 -65 2 -109.5t9 -97t20 -86.5t36 -68.5t56 -54t80.5 -31.5t109.5 -12q54 0 97.5 8.5t75.5 26.5t55.5 39.5t39 55.5t25.5 66.5t15 79t6.5 87t1.5 96.5v676z" />
    <glyph glyph-name="Uring.smcp" horiz-adv-x="1425" 
d="M729 1468q-83 0 -133.5 51t-50.5 134q0 80 50.5 129t133.5 49t133.5 -49t50.5 -129q0 -83 -50.5 -134t-133.5 -51zM729 1577q33 0 53.5 20.5t20.5 53.5q0 32 -20 51.5t-54 19.5q-33 0 -53.5 -19.5t-20.5 -51.5t21 -53t53 -21zM733 -29q-97 0 -176 15.5t-136 43.5
t-100 70.5t-70 91.5t-43.5 112.5t-23 127.5t-6.5 141v750h242v-676q0 -65 2 -109.5t9 -97t20 -86.5t36 -68.5t56 -54t80.5 -31.5t109.5 -12q54 0 97.5 8.5t75.5 26.5t55.5 39.5t39 55.5t25.5 66.5t15 79t6.5 87t1.5 96.5v676h239v-750q0 -112 -13.5 -197.5t-50 -164.5
t-97.5 -129.5t-160 -80.5t-234 -30z" />
    <glyph glyph-name="V.smcp" horiz-adv-x="1452" 
d="M600 0l-555 1323h268l414 -1044l412 1044h268l-553 -1323h-254z" />
    <glyph glyph-name="W.smcp" horiz-adv-x="2084" 
d="M428 0l-383 1323h268l254 -1044l326 1044h301l326 -1044l254 1044h266l-381 -1323h-266l-349 1073l-350 -1073h-266z" />
    <glyph glyph-name="Wacute.smcp" horiz-adv-x="2084" 
d="M1309 1804l-338 -358h-195l221 358h312zM428 0l-383 1323h268l254 -1044l326 1044h301l326 -1044l254 1044h266l-381 -1323h-266l-349 1073l-350 -1073h-266z" />
    <glyph glyph-name="Wcircumflex.smcp" horiz-adv-x="2084" 
d="M1419 1446h-186l-189 227l-192 -227h-186l241 358h271zM428 0l-383 1323h268l254 -1044l326 1044h301l326 -1044l254 1044h266l-381 -1323h-266l-349 1073l-350 -1073h-266z" />
    <glyph glyph-name="Wdieresis.smcp" horiz-adv-x="2084" 
d="M772 1597v207h199v-207h-199zM1126 1597v207h199v-207h-199zM428 0l-383 1323h268l254 -1044l326 1044h301l326 -1044l254 1044h266l-381 -1323h-266l-349 1073l-350 -1073h-266z" />
    <glyph glyph-name="Wgrave.smcp" horiz-adv-x="2084" 
d="M776 1804h311l222 -358h-195zM428 0l-383 1323h268l254 -1044l326 1044h301l326 -1044l254 1044h266l-381 -1323h-266l-349 1073l-350 -1073h-266z" />
    <glyph glyph-name="X.smcp" horiz-adv-x="1361" 
d="M1298 0h-284l-332 487l-336 -487h-283l472 668l-441 655h283l305 -467l301 467h285l-441 -655z" />
    <glyph glyph-name="Y.smcp" horiz-adv-x="1335" 
d="M547 0v461l-488 862h271l340 -645l336 645h270l-488 -862v-461h-241z" />
    <glyph glyph-name="Yacute.smcp" horiz-adv-x="1335" 
d="M934 1804l-338 -358h-195l222 358h311zM547 0v461l-488 862h271l340 -645l336 645h270l-488 -862v-461h-241z" />
    <glyph glyph-name="Ycircumflex.smcp" horiz-adv-x="1335" 
d="M1044 1446h-186l-188 227l-193 -227h-186l241 358h271zM547 0v461l-488 862h271l340 -645l336 645h270l-488 -862v-461h-241z" />
    <glyph glyph-name="Ydieresis.smcp" horiz-adv-x="1335" 
d="M391 1597v207h199v-207h-199zM745 1597v207h199v-207h-199zM547 0v461l-488 862h271l340 -645l336 645h270l-488 -862v-461h-241z" />
    <glyph glyph-name="Ygrave.smcp" horiz-adv-x="1335" 
d="M401 1804h312l221 -358h-195zM547 0v461l-488 862h271l340 -645l336 645h270l-488 -862v-461h-241z" />
    <glyph glyph-name="Z.smcp" horiz-adv-x="1306" 
d="M406 236h808v-236h-1108v236l740 851h-721v236h1020l2 -236z" />
    <glyph glyph-name="Zacute.smcp" horiz-adv-x="1306" 
d="M924 1804l-338 -358h-195l221 358h312zM406 236h808v-236h-1108v236l740 851h-721v236h1020l2 -236z" />
    <glyph glyph-name="Zcaron.smcp" horiz-adv-x="1306" 
d="M1034 1804l-241 -358h-271l-241 358h186l192 -227l189 227h186zM406 236h808v-236h-1108v236l740 851h-721v236h1020l2 -236z" />
    <glyph glyph-name="Zdotaccent.smcp" horiz-adv-x="1306" 
d="M659 1528q-65 0 -111 45.5t-46 112.5q0 63 46 107t111 44q63 0 109.5 -44t46.5 -107q0 -67 -46 -112.5t-110 -45.5zM406 236h808v-236h-1108v236l740 851h-721v236h1020l2 -236z" />
    <glyph glyph-name="a.dnom" horiz-adv-x="942" 
d="M340 -633q-75 0 -132.5 21.5t-90 58.5t-48.5 81t-16 93q0 125 97 197q117 84 421 84h47v45q0 74 -36.5 113.5t-120.5 39.5q-87 0 -126.5 -35.5t-41.5 -84.5h-199q1 42 12 79.5t37.5 75t66.5 64.5t105 44t148 17q179 0 270.5 -84t91.5 -285v-294v-105v-115h-192v127h-2
q-42 -62 -116.5 -99.5t-174.5 -37.5zM408 -485q99 0 156 50t57 101v111h-56q-67 0 -118.5 -6.5t-96 -22t-68.5 -45.5t-24 -74q0 -55 39 -84.5t111 -29.5z" />
    <glyph glyph-name="b.dnom" horiz-adv-x="999" 
d="M561 260q168 0 271.5 -122.5t103.5 -323.5q0 -204 -103 -329.5t-272 -125.5q-78 0 -153.5 35.5t-116.5 93.5v-102h-199v1228h205v-489q47 63 117.5 99t146.5 36zM518 -473q98 0 157.5 77t59.5 203q0 129 -60 208t-159 79t-159 -68t-60 -182v-80q0 -106 61 -171.5
t160 -65.5z" />
    <glyph glyph-name="c.dnom" horiz-adv-x="927" 
d="M473 -641q-193 0 -301.5 126.5t-108.5 326.5q0 202 109 325t301 123q168 0 276 -93.5t119 -246.5h-200q-13 87 -63 130.5t-130 43.5q-100 0 -155.5 -75t-55.5 -207q0 -133 55.5 -210t155.5 -77q76 0 127.5 45.5t65.5 118.5h200q-11 -137 -117 -233.5t-278 -96.5z" />
    <glyph glyph-name="d.dnom" horiz-adv-x="999" 
d="M707 614h204v-1228h-198v102q-41 -58 -117 -93.5t-154 -35.5q-168 0 -271 125.5t-103 329.5q0 201 103.5 323.5t272.5 122.5q77 0 147 -36t116 -99v489zM707 -221v78q0 107 -60 172t-160 65q-99 0 -159 -77t-60 -203q0 -129 61.5 -208t162.5 -79q97 0 156 69t59 183z" />
    <glyph glyph-name="e.dnom" horiz-adv-x="927" 
d="M473 -641q-193 0 -301.5 126t-108.5 327t109 324.5t297 123.5q174 0 286.5 -106t112.5 -287v-115l-600 -2q11 -105 65 -165t146 -60q71 0 122.5 38t66.5 87h200q-5 -51 -34.5 -101.5t-78 -93.5t-122.5 -69.5t-160 -26.5zM270 -113h398q-1 100 -56 153.5t-141 53.5
q-88 0 -144.5 -53.5t-56.5 -153.5z" />
    <glyph glyph-name="f.dnom" 
d="M147 -614v669h-108v181h106v112q0 139 62 216t207 77q76 0 116 -10v-164q-24 6 -49 6q-131 0 -131 -117v-120h170v-181h-170v-669h-203z" />
    <glyph glyph-name="g.dnom" horiz-adv-x="983" 
d="M709 236h204v-762q0 -134 -26 -227t-78.5 -148t-123.5 -79t-169 -24q-357 0 -414 299h199q17 -67 71.5 -101t133.5 -34q111 0 157 66.5t46 216.5v55q-92 -139 -265 -139q-172 0 -273 127.5t-101 331.5q0 126 39.5 224t123.5 158t201 60q186 0 275 -143v119zM709 -221v78
q0 110 -62.5 173.5t-159.5 63.5q-105 0 -165 -74.5t-60 -205.5q0 -133 61 -210t166 -77q98 0 159 66t61 186z" />
    <glyph glyph-name="h.dnom" horiz-adv-x="974" 
d="M92 -614v1228h205v-508q92 154 281 154q147 0 229 -92t82 -252v-530h-205v456q0 126 -45 189t-129 63q-91 0 -152 -73t-61 -195v-440h-205z" />
    <glyph glyph-name="i.dnom" horiz-adv-x="401" 
d="M92 414v200h217v-200h-217zM100 -614v850h203v-850h-203z" />
    <glyph glyph-name="j.dnom" horiz-adv-x="450" 
d="M113 414v200h217v-200h-217zM63 -1004q-35 0 -66 3t-45 5l-13 3v159q18 -4 51 -4q129 0 129 123v951h203v-969q0 -127 -63.5 -199t-195.5 -72z" />
    <glyph glyph-name="k.dnom" horiz-adv-x="798" 
d="M782 -614h-215l-270 344v-344h-205v1228h205v-749l248 371h215l-291 -424z" />
    <glyph glyph-name="l.dnom" horiz-adv-x="389" 
d="M92 -614v1228h205v-1228h-205z" />
    <glyph glyph-name="m.dnom" horiz-adv-x="1595" 
d="M1186 260q148 0 226.5 -90.5t78.5 -269.5v-514h-203v469q0 239 -166 239q-99 0 -161 -72t-62 -196v-440h-203v469q0 239 -168 239q-97 0 -159 -72t-62 -196v-440h-203v850h203v-130q93 154 287 154q207 0 274 -170q115 170 318 170z" />
    <glyph glyph-name="n.dnom" horiz-adv-x="1003" 
d="M104 -614v850h203v-130q92 154 283 154q146 0 227.5 -94t81.5 -256v-524h-203v456q0 125 -45.5 188.5t-128.5 63.5q-92 0 -153.5 -72.5t-61.5 -195.5v-440h-203z" />
    <glyph glyph-name="o.dnom" horiz-adv-x="970" 
d="M487 -641q-191 0 -307.5 128t-116.5 325q0 198 116 323t308 125q190 0 305 -125t115 -323q0 -197 -115.5 -325t-304.5 -128zM485 -475q103 0 162.5 77t59.5 210q0 132 -59.5 207t-162.5 75t-162 -75t-59 -207q0 -133 59 -210t162 -77z" />
    <glyph glyph-name="p.dnom" horiz-adv-x="1011" 
d="M571 260q169 0 273 -122.5t104 -323.5q0 -204 -104 -329.5t-271 -125.5q-77 0 -150 35.5t-116 93.5v-492h-203v1240h199v-111q47 62 119.5 98.5t148.5 36.5zM530 -473q97 0 157.5 77t60.5 203q0 129 -61 208t-159 79q-99 0 -160 -68.5t-61 -181.5v-80q0 -106 61.5 -171.5
t161.5 -65.5z" />
    <glyph glyph-name="q.dnom" horiz-adv-x="1028" 
d="M709 236h198v-1240h-205v492q-41 -58 -114 -93.5t-150 -35.5q-169 0 -272 125.5t-103 329.5q0 201 104 323.5t273 122.5q76 0 149 -36.5t120 -98.5v111zM702 -221v78q0 107 -60.5 172t-160.5 65q-98 0 -157.5 -77t-59.5 -203q0 -129 60 -208t159 -79q100 0 159.5 69
t59.5 183z" />
    <glyph glyph-name="r.dnom" horiz-adv-x="612" 
d="M98 -614v850h197v-154q54 104 147 147q63 27 160 27v-209h-29q-124 0 -197 -78.5t-73 -210.5v-372h-205z" />
    <glyph glyph-name="s.dnom" horiz-adv-x="827" 
d="M438 -641q-177 0 -275.5 83.5t-111.5 221.5h193q35 -147 196 -147q129 0 129 100q0 20 -9.5 37t-21.5 27t-37 21t-40 16t-47 14q-61 18 -101.5 32t-86 38t-72 50.5t-44 66.5t-18.5 89q-1 127 92 189.5t230 62.5q157 0 244 -76.5t92 -208.5h-195q-7 70 -49 99.5t-100 29.5
q-21 0 -41 -4t-40.5 -13.5t-33 -28.5t-12.5 -46q0 -25 13 -43.5t41 -32.5t62.5 -26t85.5 -27q5 -1 8 -2q120 -38 162 -61q115 -63 115 -195q0 -133 -85.5 -199.5t-242.5 -66.5z" />
    <glyph glyph-name="t.dnom" horiz-adv-x="595" 
d="M418 -631q-149 0 -212 64.5t-63 197.5v424h-106v160q67 0 92 32t25 107v99h194v-217h176v-181h-176v-370q0 -76 31.5 -103.5t107.5 -27.5h54v-179q-59 -6 -123 -6z" />
    <glyph glyph-name="u.dnom" horiz-adv-x="993" 
d="M383 -641q-147 0 -226 91t-79 271v515h203v-469q0 -242 168 -242q98 0 159.5 73t61.5 197v441h202v-850h-202v139q-92 -166 -287 -166z" />
    <glyph glyph-name="v.dnom" horiz-adv-x="878" 
d="M340 -614l-324 850h215l177 -537l30 -90h2l31 90l174 537h217l-323 -850h-199z" />
    <glyph glyph-name="w.dnom" horiz-adv-x="1454" 
d="M340 -614l-324 850h215l207 -627h2l189 627h196l189 -627h2l207 627h215l-322 -850h-201l-186 639h-4l-186 -639h-199z" />
    <glyph glyph-name="x.dnom" horiz-adv-x="804" 
d="M788 236l-262 -424l262 -426h-215l-170 295l-174 -295h-213l260 426l-260 424h213l168 -299l176 299h215z" />
    <glyph glyph-name="y.dnom" horiz-adv-x="878" 
d="M199 -1004l141 390l-324 850h215l179 -549l28 -82h2l29 82l176 549h217l-301 -785l-158 -455h-204z" />
    <glyph glyph-name="z.dnom" horiz-adv-x="899" 
d="M287 -446h563v-168h-793v168l529 514h-518v168h745l2 -168z" />
    <glyph glyph-name="a.numr" horiz-adv-x="942" 
d="M340 688q-75 0 -132.5 21.5t-90 58.5t-48.5 81t-16 93q0 125 97 197q117 84 421 84h47v45q0 74 -36.5 113.5t-120.5 39.5q-87 0 -126.5 -36t-41.5 -85h-199q1 42 12 79.5t37.5 75.5t66.5 65t105 44t148 17q179 0 270.5 -84t91.5 -285v-294v-105v-115h-192v127h-2
q-42 -62 -116.5 -99.5t-174.5 -37.5zM408 836q99 0 156 50t57 101v111h-56q-67 0 -118.5 -6.5t-96 -22t-68.5 -45.5t-24 -74q0 -55 39 -84.5t111 -29.5z" />
    <glyph glyph-name="b.numr" horiz-adv-x="999" 
d="M561 1581q168 0 271.5 -122.5t103.5 -323.5q0 -204 -103 -329.5t-272 -125.5q-78 0 -153.5 35.5t-116.5 93.5v-102h-199v1228h205v-489q47 63 117.5 99t146.5 36zM518 848q98 0 157.5 77t59.5 203q0 129 -60 208t-159 79t-159 -68t-60 -182v-80q0 -106 61 -171.5
t160 -65.5z" />
    <glyph glyph-name="c.numr" horiz-adv-x="927" 
d="M473 680q-193 0 -301.5 126.5t-108.5 326.5q0 202 109 325t301 123q168 0 276 -93.5t119 -246.5h-200q-13 87 -63 130.5t-130 43.5q-100 0 -155.5 -75t-55.5 -207q0 -133 55.5 -210t155.5 -77q76 0 127.5 45.5t65.5 118.5h200q-11 -137 -117 -233.5t-278 -96.5z" />
    <glyph glyph-name="d.numr" horiz-adv-x="999" 
d="M707 1935h204v-1228h-198v102q-41 -58 -117 -93.5t-154 -35.5q-168 0 -271 125.5t-103 329.5q0 201 103.5 323.5t272.5 122.5q77 0 147 -36t116 -99v489zM707 1100v78q0 107 -60 172t-160 65q-99 0 -159 -77t-60 -203q0 -129 61.5 -208t162.5 -79q97 0 156 69t59 183z
" />
    <glyph glyph-name="e.numr" horiz-adv-x="927" 
d="M473 680q-193 0 -301.5 126t-108.5 327t109 324.5t297 123.5q174 0 286.5 -106t112.5 -287v-115l-600 -2q11 -105 65 -165t146 -60q71 0 122.5 38t66.5 87h200q-5 -51 -34.5 -101.5t-78 -93.5t-122.5 -69.5t-160 -26.5zM270 1208h398q-1 100 -56 153.5t-141 53.5
q-88 0 -144.5 -53.5t-56.5 -153.5z" />
    <glyph glyph-name="f.numr" 
d="M147 707v669h-108v180h106v113q0 139 62 216t207 77q76 0 116 -10v-164q-24 6 -49 6q-131 0 -131 -117v-121h170v-180h-170v-669h-203z" />
    <glyph glyph-name="g.numr" horiz-adv-x="983" 
d="M709 1556h204v-761q0 -134 -26 -227t-78.5 -148t-123.5 -79t-169 -24q-357 0 -414 299h199q17 -67 71.5 -101t133.5 -34q111 0 157 66.5t46 216.5v55q-92 -139 -265 -139q-172 0 -273 127.5t-101 331.5q0 126 39.5 224t123.5 158t201 60q186 0 275 -143v118zM709 1100v78
q0 110 -62.5 173.5t-159.5 63.5q-105 0 -165 -74.5t-60 -205.5q0 -133 61 -210t166 -77q98 0 159 66t61 186z" />
    <glyph glyph-name="h.numr" horiz-adv-x="974" 
d="M92 707v1228h205v-508q92 154 281 154q147 0 229 -92t82 -252v-530h-205v456q0 126 -45 189t-129 63q-91 0 -152 -73t-61 -195v-440h-205z" />
    <glyph glyph-name="i.numr" horiz-adv-x="401" 
d="M92 1735v200h217v-200h-217zM100 707v849h203v-849h-203z" />
    <glyph glyph-name="j.numr" horiz-adv-x="421" 
d="M113 1735v200h217v-200h-217zM63 317q-35 0 -66 2.5t-45 5.5l-13 3v159q18 -4 51 -4q129 0 129 123v950h203v-968q0 -127 -63.5 -199t-195.5 -72z" />
    <glyph glyph-name="k.numr" horiz-adv-x="798" 
d="M782 707h-215l-270 344v-344h-205v1228h205v-749l248 370h215l-291 -423z" />
    <glyph glyph-name="l.numr" horiz-adv-x="389" 
d="M92 707v1228h205v-1228h-205z" />
    <glyph glyph-name="m.numr" horiz-adv-x="1595" 
d="M1186 1581q148 0 226.5 -90.5t78.5 -269.5v-514h-203v469q0 239 -166 239q-99 0 -161 -72t-62 -196v-440h-203v469q0 239 -168 239q-97 0 -159 -72t-62 -196v-440h-203v849h203v-129q93 154 287 154q207 0 274 -170q115 170 318 170z" />
    <glyph glyph-name="n.numr" horiz-adv-x="1003" 
d="M104 707v849h203v-129q92 154 283 154q146 0 227.5 -94t81.5 -256v-524h-203v456q0 125 -45.5 188.5t-128.5 63.5q-92 0 -153.5 -72.5t-61.5 -195.5v-440h-203z" />
    <glyph glyph-name="o.numr" horiz-adv-x="970" 
d="M487 680q-191 0 -307.5 128t-116.5 325q0 198 116 323t308 125q190 0 305 -125t115 -323q0 -197 -115.5 -325t-304.5 -128zM485 846q103 0 162.5 77t59.5 210q0 132 -59.5 207t-162.5 75t-162 -75t-59 -207q0 -133 59 -210t162 -77z" />
    <glyph glyph-name="p.numr" horiz-adv-x="1011" 
d="M571 1581q169 0 273 -122.5t104 -323.5q0 -204 -104 -329.5t-271 -125.5q-77 0 -150 35.5t-116 93.5v-492h-203v1239h199v-110q47 62 119.5 98.5t148.5 36.5zM530 848q97 0 157.5 77t60.5 203q0 129 -61 208t-159 79q-99 0 -160 -68.5t-61 -181.5v-80q0 -106 61.5 -171.5
t161.5 -65.5z" />
    <glyph glyph-name="q.numr" horiz-adv-x="1028" 
d="M709 1556h198v-1239h-205v492q-41 -58 -114 -93.5t-150 -35.5q-169 0 -272 125.5t-103 329.5q0 201 104 323.5t273 122.5q76 0 149 -36.5t120 -98.5v110zM702 1100v78q0 107 -60.5 172t-160.5 65q-98 0 -157.5 -77t-59.5 -203q0 -129 60 -208t159 -79q100 0 159.5 69
t59.5 183z" />
    <glyph glyph-name="r.numr" horiz-adv-x="612" 
d="M98 707v849h197v-153q54 104 147 147q63 27 160 27v-209h-29q-124 0 -197 -78.5t-73 -210.5v-372h-205z" />
    <glyph glyph-name="s.numr" horiz-adv-x="827" 
d="M438 680q-177 0 -275.5 83.5t-111.5 221.5h193q35 -147 196 -147q129 0 129 100q0 20 -9.5 37t-21.5 27t-37 21t-40 16t-47 14q-61 18 -101.5 32t-86 38t-72 50.5t-44 66.5t-18.5 89q-1 127 92 189.5t230 62.5q157 0 244 -76.5t92 -208.5h-195q-7 70 -49 99.5t-100 29.5
q-21 0 -41 -4t-40.5 -13.5t-33 -28.5t-12.5 -46q0 -51 67 -82q33 -16 143 -49q120 -38 162 -61q115 -63 115 -195t-85.5 -199t-242.5 -67z" />
    <glyph glyph-name="t.numr" horiz-adv-x="595" 
d="M418 690q-149 0 -212 64.5t-63 197.5v424h-106v160q67 0 92 32t25 107v99h194v-218h176v-180h-176v-370q0 -76 31.5 -104t107.5 -28h54v-178q-59 -6 -123 -6z" />
    <glyph glyph-name="u.numr" horiz-adv-x="993" 
d="M383 680q-147 0 -226 91t-79 271v514h203v-469q0 -241 168 -241q98 0 159.5 73t61.5 197v440h202v-849h-202v139q-92 -166 -287 -166z" />
    <glyph glyph-name="v.numr" horiz-adv-x="878" 
d="M340 707l-324 849h215l177 -536l30 -90h2l31 90l174 536h217l-323 -849h-199z" />
    <glyph glyph-name="w.numr" horiz-adv-x="1454" 
d="M340 707l-324 849h215l207 -626h2l189 626h196l189 -626h2l207 626h215l-322 -849h-201l-186 639h-4l-186 -639h-199z" />
    <glyph glyph-name="x.numr" horiz-adv-x="804" 
d="M788 1556l-262 -423l262 -426h-215l-170 294l-174 -294h-213l260 426l-260 423h213l168 -299l176 299h215z" />
    <glyph glyph-name="y.numr" horiz-adv-x="878" 
d="M199 317l141 390l-324 849h215l179 -548l28 -82h2l29 82l176 548h217l-301 -784l-158 -455h-204z" />
    <glyph glyph-name="z.numr" horiz-adv-x="899" 
d="M287 874h563v-167h-793v167l529 515h-518v167h745l2 -167z" />
    <glyph glyph-name="a.subs" horiz-adv-x="942" 
d="M340 -633q-75 0 -132.5 21.5t-90 58.5t-48.5 81t-16 93q0 125 97 197q117 84 421 84h47v45q0 74 -36.5 113.5t-120.5 39.5q-87 0 -126.5 -35.5t-41.5 -84.5h-199q1 42 12 79.5t37.5 75t66.5 64.5t105 44t148 17q179 0 270.5 -84t91.5 -285v-294v-105v-115h-192v127h-2
q-42 -62 -116.5 -99.5t-174.5 -37.5zM408 -485q99 0 156 50t57 101v111h-56q-67 0 -118.5 -6.5t-96 -22t-68.5 -45.5t-24 -74q0 -55 39 -84.5t111 -29.5z" />
    <glyph glyph-name="b.subs" horiz-adv-x="999" 
d="M561 260q168 0 271.5 -122.5t103.5 -323.5q0 -204 -103 -329.5t-272 -125.5q-78 0 -153.5 35.5t-116.5 93.5v-102h-199v1228h205v-489q47 63 117.5 99t146.5 36zM518 -473q98 0 157.5 77t59.5 203q0 129 -60 208t-159 79t-159 -68t-60 -182v-80q0 -106 61 -171.5
t160 -65.5z" />
    <glyph glyph-name="c.subs" horiz-adv-x="927" 
d="M473 -641q-193 0 -301.5 126.5t-108.5 326.5q0 202 109 325t301 123q168 0 276 -93.5t119 -246.5h-200q-13 87 -63 130.5t-130 43.5q-100 0 -155.5 -75t-55.5 -207q0 -133 55.5 -210t155.5 -77q76 0 127.5 45.5t65.5 118.5h200q-11 -137 -117 -233.5t-278 -96.5z" />
    <glyph glyph-name="d.subs" horiz-adv-x="999" 
d="M707 614h204v-1228h-198v102q-41 -58 -117 -93.5t-154 -35.5q-168 0 -271 125.5t-103 329.5q0 201 103.5 323.5t272.5 122.5q77 0 147 -36t116 -99v489zM707 -221v78q0 107 -60 172t-160 65q-99 0 -159 -77t-60 -203q0 -129 61.5 -208t162.5 -79q97 0 156 69t59 183z" />
    <glyph glyph-name="e.subs" horiz-adv-x="927" 
d="M473 -641q-193 0 -301.5 126t-108.5 327t109 324.5t297 123.5q174 0 286.5 -106t112.5 -287v-115l-600 -2q11 -105 65 -165t146 -60q71 0 122.5 38t66.5 87h200q-5 -51 -34.5 -101.5t-78 -93.5t-122.5 -69.5t-160 -26.5zM270 -113h398q-1 100 -56 153.5t-141 53.5
q-88 0 -144.5 -53.5t-56.5 -153.5z" />
    <glyph glyph-name="f.subs" 
d="M147 -614v669h-108v181h106v112q0 139 62 216t207 77q76 0 116 -10v-164q-24 6 -49 6q-131 0 -131 -117v-120h170v-181h-170v-669h-203z" />
    <glyph glyph-name="g.subs" horiz-adv-x="983" 
d="M709 236h204v-762q0 -134 -26 -227t-78.5 -148t-123.5 -79t-169 -24q-357 0 -414 299h199q17 -67 71.5 -101t133.5 -34q111 0 157 66.5t46 216.5v55q-92 -139 -265 -139q-172 0 -273 127.5t-101 331.5q0 126 39.5 224t123.5 158t201 60q186 0 275 -143v119zM709 -221v78
q0 110 -62.5 173.5t-159.5 63.5q-105 0 -165 -74.5t-60 -205.5q0 -133 61 -210t166 -77q98 0 159 66t61 186z" />
    <glyph glyph-name="h.subs" horiz-adv-x="974" 
d="M92 -614v1228h205v-508q92 154 281 154q147 0 229 -92t82 -252v-530h-205v456q0 126 -45 189t-129 63q-91 0 -152 -73t-61 -195v-440h-205z" />
    <glyph glyph-name="i.subs" horiz-adv-x="401" 
d="M92 414v200h217v-200h-217zM100 -614v850h203v-850h-203z" />
    <glyph glyph-name="j.subs" horiz-adv-x="421" 
d="M113 414v200h217v-200h-217zM63 -1004q-35 0 -66 3t-45 5l-13 3v159q18 -4 51 -4q129 0 129 123v951h203v-969q0 -127 -63.5 -199t-195.5 -72z" />
    <glyph glyph-name="k.subs" horiz-adv-x="798" 
d="M782 -614h-215l-270 344v-344h-205v1228h205v-749l248 371h215l-291 -424z" />
    <glyph glyph-name="l.subs" horiz-adv-x="389" 
d="M92 -614v1228h205v-1228h-205z" />
    <glyph glyph-name="m.subs" horiz-adv-x="1595" 
d="M1186 260q148 0 226.5 -90.5t78.5 -269.5v-514h-203v469q0 239 -166 239q-99 0 -161 -72t-62 -196v-440h-203v469q0 239 -168 239q-97 0 -159 -72t-62 -196v-440h-203v850h203v-130q93 154 287 154q207 0 274 -170q115 170 318 170z" />
    <glyph glyph-name="n.subs" horiz-adv-x="1003" 
d="M104 -614v850h203v-130q92 154 283 154q146 0 227.5 -94t81.5 -256v-524h-203v456q0 125 -45.5 188.5t-128.5 63.5q-92 0 -153.5 -72.5t-61.5 -195.5v-440h-203z" />
    <glyph glyph-name="o.subs" horiz-adv-x="970" 
d="M487 -641q-191 0 -307.5 128t-116.5 325q0 198 116 323t308 125q190 0 305 -125t115 -323q0 -197 -115.5 -325t-304.5 -128zM485 -475q103 0 162.5 77t59.5 210q0 132 -59.5 207t-162.5 75t-162 -75t-59 -207q0 -133 59 -210t162 -77z" />
    <glyph glyph-name="p.subs" horiz-adv-x="1011" 
d="M571 260q169 0 273 -122.5t104 -323.5q0 -204 -104 -329.5t-271 -125.5q-77 0 -150 35.5t-116 93.5v-492h-203v1240h199v-111q47 62 119.5 98.5t148.5 36.5zM530 -473q97 0 157.5 77t60.5 203q0 129 -61 208t-159 79q-99 0 -160 -68.5t-61 -181.5v-80q0 -106 61.5 -171.5
t161.5 -65.5z" />
    <glyph glyph-name="q.subs" horiz-adv-x="1028" 
d="M709 236h198v-1240h-205v492q-41 -58 -114 -93.5t-150 -35.5q-169 0 -272 125.5t-103 329.5q0 201 104 323.5t273 122.5q76 0 149 -36.5t120 -98.5v111zM702 -221v78q0 107 -60.5 172t-160.5 65q-98 0 -157.5 -77t-59.5 -203q0 -129 60 -208t159 -79q100 0 159.5 69
t59.5 183z" />
    <glyph glyph-name="r.subs" horiz-adv-x="612" 
d="M98 -614v850h197v-154q54 104 147 147q63 27 160 27v-209h-29q-124 0 -197 -78.5t-73 -210.5v-372h-205z" />
    <glyph glyph-name="s.subs" horiz-adv-x="827" 
d="M438 -641q-177 0 -275.5 83.5t-111.5 221.5h193q35 -147 196 -147q129 0 129 100q0 20 -9.5 37t-21.5 27t-37 21t-40 16t-47 14q-61 18 -101.5 32t-86 38t-72 50.5t-44 66.5t-18.5 89q-1 127 92 189.5t230 62.5q157 0 244 -76.5t92 -208.5h-195q-7 70 -49 99.5t-100 29.5
q-21 0 -41 -4t-40.5 -13.5t-33 -28.5t-12.5 -46q0 -25 13 -43.5t41 -32.5t62.5 -26t85.5 -27q5 -1 8 -2q120 -38 162 -61q115 -63 115 -195q0 -133 -85.5 -199.5t-242.5 -66.5z" />
    <glyph glyph-name="t.subs" horiz-adv-x="595" 
d="M418 -631q-149 0 -212 64.5t-63 197.5v424h-106v160q67 0 92 32t25 107v99h194v-217h176v-181h-176v-370q0 -76 31.5 -103.5t107.5 -27.5h54v-179q-59 -6 -123 -6z" />
    <glyph glyph-name="u.subs" horiz-adv-x="993" 
d="M383 -641q-147 0 -226 91t-79 271v515h203v-469q0 -242 168 -242q98 0 159.5 73t61.5 197v441h202v-850h-202v139q-92 -166 -287 -166z" />
    <glyph glyph-name="v.subs" horiz-adv-x="878" 
d="M340 -614l-324 850h215l177 -537l30 -90h2l31 90l174 537h217l-323 -850h-199z" />
    <glyph glyph-name="w.subs" horiz-adv-x="1454" 
d="M340 -614l-324 850h215l207 -627h2l189 627h196l189 -627h2l207 627h215l-322 -850h-201l-186 639h-4l-186 -639h-199z" />
    <glyph glyph-name="x.subs" horiz-adv-x="804" 
d="M788 236l-262 -424l262 -426h-215l-170 295l-174 -295h-213l260 426l-260 424h213l168 -299l176 299h215z" />
    <glyph glyph-name="y.subs" horiz-adv-x="878" 
d="M199 -1004l141 390l-324 850h215l179 -549l28 -82h2l29 82l176 549h217l-301 -785l-158 -455h-204z" />
    <glyph glyph-name="z.subs" horiz-adv-x="899" 
d="M287 -446h563v-168h-793v168l529 514h-518v168h745l2 -168z" />
    <glyph glyph-name="a.sups" horiz-adv-x="942" 
d="M340 688q-75 0 -132.5 21.5t-90 58.5t-48.5 81t-16 93q0 125 97 197q117 84 421 84h47v45q0 74 -36.5 113.5t-120.5 39.5q-87 0 -126.5 -36t-41.5 -85h-199q1 42 12 79.5t37.5 75.5t66.5 65t105 44t148 17q179 0 270.5 -84t91.5 -285v-294v-105v-115h-192v127h-2
q-42 -62 -116.5 -99.5t-174.5 -37.5zM408 836q99 0 156 50t57 101v111h-56q-67 0 -118.5 -6.5t-96 -22t-68.5 -45.5t-24 -74q0 -55 39 -84.5t111 -29.5z" />
    <glyph glyph-name="b.sups" horiz-adv-x="999" 
d="M561 1581q168 0 271.5 -122.5t103.5 -323.5q0 -204 -103 -329.5t-272 -125.5q-78 0 -153.5 35.5t-116.5 93.5v-102h-199v1228h205v-489q47 63 117.5 99t146.5 36zM518 848q98 0 157.5 77t59.5 203q0 129 -60 208t-159 79t-159 -68t-60 -182v-80q0 -106 61 -171.5
t160 -65.5z" />
    <glyph glyph-name="c.sups" horiz-adv-x="927" 
d="M473 680q-193 0 -301.5 126.5t-108.5 326.5q0 202 109 325t301 123q168 0 276 -93.5t119 -246.5h-200q-13 87 -63 130.5t-130 43.5q-100 0 -155.5 -75t-55.5 -207q0 -133 55.5 -210t155.5 -77q76 0 127.5 45.5t65.5 118.5h200q-11 -137 -117 -233.5t-278 -96.5z" />
    <glyph glyph-name="d.sups" horiz-adv-x="999" 
d="M707 1935h204v-1228h-198v102q-41 -58 -117 -93.5t-154 -35.5q-168 0 -271 125.5t-103 329.5q0 201 103.5 323.5t272.5 122.5q77 0 147 -36t116 -99v489zM707 1100v78q0 107 -60 172t-160 65q-99 0 -159 -77t-60 -203q0 -129 61.5 -208t162.5 -79q97 0 156 69t59 183z
" />
    <glyph glyph-name="e.sups" horiz-adv-x="927" 
d="M473 680q-193 0 -301.5 126t-108.5 327t109 324.5t297 123.5q174 0 286.5 -106t112.5 -287v-115l-600 -2q11 -105 65 -165t146 -60q71 0 122.5 38t66.5 87h200q-5 -51 -34.5 -101.5t-78 -93.5t-122.5 -69.5t-160 -26.5zM270 1208h398q-1 100 -56 153.5t-141 53.5
q-88 0 -144.5 -53.5t-56.5 -153.5z" />
    <glyph glyph-name="f.sups" 
d="M147 707v669h-108v180h106v113q0 139 62 216t207 77q76 0 116 -10v-164q-24 6 -49 6q-131 0 -131 -117v-121h170v-180h-170v-669h-203z" />
    <glyph glyph-name="g.sups" horiz-adv-x="983" 
d="M709 1556h204v-761q0 -134 -26 -227t-78.5 -148t-123.5 -79t-169 -24q-357 0 -414 299h199q17 -67 71.5 -101t133.5 -34q111 0 157 66.5t46 216.5v55q-92 -139 -265 -139q-172 0 -273 127.5t-101 331.5q0 126 39.5 224t123.5 158t201 60q186 0 275 -143v118zM709 1100v78
q0 110 -62.5 173.5t-159.5 63.5q-105 0 -165 -74.5t-60 -205.5q0 -133 61 -210t166 -77q98 0 159 66t61 186z" />
    <glyph glyph-name="h.sups" horiz-adv-x="974" 
d="M92 707v1228h205v-508q92 154 281 154q147 0 229 -92t82 -252v-530h-205v456q0 126 -45 189t-129 63q-91 0 -152 -73t-61 -195v-440h-205z" />
    <glyph glyph-name="i.sups" horiz-adv-x="401" 
d="M92 1735v200h217v-200h-217zM100 707v849h203v-849h-203z" />
    <glyph glyph-name="j.sups" horiz-adv-x="421" 
d="M113 1735v200h217v-200h-217zM63 317q-35 0 -66 2.5t-45 5.5l-13 3v159q18 -4 51 -4q129 0 129 123v950h203v-968q0 -127 -63.5 -199t-195.5 -72z" />
    <glyph glyph-name="k.sups" horiz-adv-x="798" 
d="M782 707h-215l-270 344v-344h-205v1228h205v-749l248 370h215l-291 -423z" />
    <glyph glyph-name="l.sups" horiz-adv-x="389" 
d="M92 707v1228h205v-1228h-205z" />
    <glyph glyph-name="m.sups" horiz-adv-x="1595" 
d="M1186 1581q148 0 226.5 -90.5t78.5 -269.5v-514h-203v469q0 239 -166 239q-99 0 -161 -72t-62 -196v-440h-203v469q0 239 -168 239q-97 0 -159 -72t-62 -196v-440h-203v849h203v-129q93 154 287 154q207 0 274 -170q115 170 318 170z" />
    <glyph glyph-name="n.sups" horiz-adv-x="1003" 
d="M104 707v849h203v-129q92 154 283 154q146 0 227.5 -94t81.5 -256v-524h-203v456q0 125 -45.5 188.5t-128.5 63.5q-92 0 -153.5 -72.5t-61.5 -195.5v-440h-203z" />
    <glyph glyph-name="o.sups" horiz-adv-x="970" 
d="M487 680q-191 0 -307.5 128t-116.5 325q0 198 116 323t308 125q190 0 305 -125t115 -323q0 -197 -115.5 -325t-304.5 -128zM485 846q103 0 162.5 77t59.5 210q0 132 -59.5 207t-162.5 75t-162 -75t-59 -207q0 -133 59 -210t162 -77z" />
    <glyph glyph-name="p.sups" horiz-adv-x="1011" 
d="M571 1581q169 0 273 -122.5t104 -323.5q0 -204 -104 -329.5t-271 -125.5q-77 0 -150 35.5t-116 93.5v-492h-203v1239h199v-110q47 62 119.5 98.5t148.5 36.5zM530 848q97 0 157.5 77t60.5 203q0 129 -61 208t-159 79q-99 0 -160 -68.5t-61 -181.5v-80q0 -106 61.5 -171.5
t161.5 -65.5z" />
    <glyph glyph-name="q.sups" horiz-adv-x="1028" 
d="M709 1556h198v-1239h-205v492q-41 -58 -114 -93.5t-150 -35.5q-169 0 -272 125.5t-103 329.5q0 201 104 323.5t273 122.5q76 0 149 -36.5t120 -98.5v110zM702 1100v78q0 107 -60.5 172t-160.5 65q-98 0 -157.5 -77t-59.5 -203q0 -129 60 -208t159 -79q100 0 159.5 69
t59.5 183z" />
    <glyph glyph-name="r.sups" horiz-adv-x="612" 
d="M98 707v849h197v-153q54 104 147 147q63 27 160 27v-209h-29q-124 0 -197 -78.5t-73 -210.5v-372h-205z" />
    <glyph glyph-name="s.sups" horiz-adv-x="827" 
d="M438 680q-177 0 -275.5 83.5t-111.5 221.5h193q35 -147 196 -147q129 0 129 100q0 20 -9.5 37t-21.5 27t-37 21t-40 16t-47 14q-61 18 -101.5 32t-86 38t-72 50.5t-44 66.5t-18.5 89q-1 127 92 189.5t230 62.5q157 0 244 -76.5t92 -208.5h-195q-7 70 -49 99.5t-100 29.5
q-21 0 -41 -4t-40.5 -13.5t-33 -28.5t-12.5 -46q0 -51 67 -82q33 -16 143 -49q120 -38 162 -61q115 -63 115 -195t-85.5 -199t-242.5 -67z" />
    <glyph glyph-name="t.sups" horiz-adv-x="595" 
d="M418 690q-149 0 -212 64.5t-63 197.5v424h-106v160q67 0 92 32t25 107v99h194v-218h176v-180h-176v-370q0 -76 31.5 -104t107.5 -28h54v-178q-59 -6 -123 -6z" />
    <glyph glyph-name="u.sups" horiz-adv-x="993" 
d="M383 680q-147 0 -226 91t-79 271v514h203v-469q0 -241 168 -241q98 0 159.5 73t61.5 197v440h202v-849h-202v139q-92 -166 -287 -166z" />
    <glyph glyph-name="v.sups" horiz-adv-x="878" 
d="M340 707l-324 849h215l177 -536l30 -90h2l31 90l174 536h217l-323 -849h-199z" />
    <glyph glyph-name="w.sups" horiz-adv-x="1454" 
d="M340 707l-324 849h215l207 -626h2l189 626h196l189 -626h2l207 626h215l-322 -849h-201l-186 639h-4l-186 -639h-199z" />
    <glyph glyph-name="x.sups" horiz-adv-x="804" 
d="M788 1556l-262 -423l262 -426h-215l-170 294l-174 -294h-213l260 426l-260 423h213l168 -299l176 299h215z" />
    <glyph glyph-name="y.sups" horiz-adv-x="878" 
d="M199 317l141 390l-324 849h215l179 -548l28 -82h2l29 82l176 548h217l-301 -784l-158 -455h-204z" />
    <glyph glyph-name="z.sups" horiz-adv-x="899" 
d="M287 874h563v-167h-793v167l529 515h-518v167h745l2 -167z" />
    <glyph glyph-name="zero.lf" horiz-adv-x="1529" 
d="M766 -33q-132 0 -241.5 42t-186 116t-129.5 176.5t-78 222.5t-25 254t25 254t78 222.5t129.5 176.5t186 116t241.5 42t241 -42t185.5 -116t129 -176.5t77 -222t24.5 -254.5t-24.5 -254.5t-77 -222t-129 -176.5t-185.5 -116t-241 -42zM764 188q101 0 179.5 45.5t128 126.5
t74.5 187t25 231t-25 231t-74.5 187t-128 126.5t-179.5 45.5t-179.5 -45.5t-127.5 -126.5t-74 -187t-25 -231t25 -231t74 -187t127.5 -126.5t179.5 -45.5z" />
    <glyph glyph-name="one.lf" horiz-adv-x="1529" 
d="M887 242h536v-242h-1317v242h539v1073h-471v241h713v-1314z" />
    <glyph glyph-name="two.lf" horiz-adv-x="1529" 
d="M180 -2v242q209 132 286 181t179 118.5t174 126.5q73 58 119.5 101t91 96.5t65.5 110t21 118.5q0 126 -92.5 202t-269.5 76q-197 0 -297.5 -102t-100.5 -273q0 -84 19 -166h-250q-19 89 -19 172q0 126 36.5 230t112 185.5t204.5 127t301 45.5q155 0 272 -36.5t189 -103.5
t107.5 -155.5t35.5 -197.5q0 -149 -80.5 -286.5t-286.5 -297.5q-162 -126 -419 -272h845v-242h-1243z" />
    <glyph glyph-name="three.lf" horiz-adv-x="1554" 
d="M696 -33q-269 0 -434.5 102.5t-206.5 297.5h256q63 -183 385 -183q97 0 173 16t124 42.5t79 65t43.5 80t12.5 89.5q0 152 -131 227.5t-415 75.5h-166v199l571 344h-809v233h1118v-262l-559 -336h13q284 0 452 -125t168 -346q0 -76 -20.5 -146.5t-70 -140t-124.5 -120
t-193 -82t-266 -31.5z" />
    <glyph glyph-name="four.lf" horiz-adv-x="1554" 
d="M1370 563v-241h-317v-322h-242v322h-756v262l598 972h271l-598 -993h485v371h242v-371h317z" />
    <glyph glyph-name="five.lf" horiz-adv-x="1554" 
d="M692 -33q-284 0 -453 108.5t-184 280.5h260q10 -81 116.5 -126.5t252.5 -45.5q116 0 204 30.5t138.5 82t75 113.5t24.5 133t-24.5 133t-72.5 111.5t-126.5 78.5t-177.5 29q-148 0 -244 -58.5t-143 -148.5h-272l237 868h887v-233h-721l-102 -371q120 152 391 152
q125 0 227.5 -29.5t173 -81t119 -123t70.5 -154.5t22 -177q0 -93 -22 -175t-73 -156t-128 -126.5t-193 -83.5t-262 -31z" />
    <glyph glyph-name="six.lf" horiz-adv-x="1554" 
d="M725 -33q-151 0 -274 49t-211.5 143.5t-136.5 241t-48 334.5q0 183 45.5 338.5t131.5 270.5t217.5 180t295.5 65q223 0 371 -107.5t170 -281.5h-256q-14 80 -94 130t-197 50q-189 0 -294 -133t-126 -362q71 97 197.5 156t278.5 59q252 0 413.5 -154t161.5 -403
q0 -259 -177 -417.5t-468 -158.5zM723 184q176 0 283.5 98t107.5 257q0 158 -107 254t-284 96q-174 0 -279.5 -95.5t-105.5 -254.5t106 -257t279 -98z" />
    <glyph glyph-name="seven.lf" horiz-adv-x="1554" 
d="M336 0l745 1315h-1026v241h1315v-245l-758 -1311h-276z" />
    <glyph glyph-name="eight.lf" horiz-adv-x="1554" 
d="M715 -33q-145 0 -260 28.5t-188.5 74.5t-122.5 109t-69 128t-20 135q0 136 77 241.5t212 150.5q-107 51 -161 136.5t-54 192.5q0 67 19.5 127.5t64 116t111 95.5t167 63.5t224.5 23.5q155 0 271.5 -35.5t182.5 -96.5t97.5 -134t31.5 -158q0 -108 -54 -194t-161 -137
q133 -46 210 -149t77 -241q0 -72 -19.5 -137.5t-68 -128.5t-121.5 -109t-187.5 -74t-258.5 -28zM713 932q168 0 247.5 65.5t79.5 161.5t-79.5 160.5t-247.5 64.5q-167 0 -247.5 -64.5t-80.5 -160.5t81 -161.5t247 -65.5zM713 180q88 0 158 16.5t114.5 43t73.5 62.5t41 72.5
t12 76.5q0 50 -19.5 92.5t-63 81t-124.5 60.5t-192 22q-89 0 -159.5 -15t-115 -39.5t-73.5 -58.5t-40.5 -69t-11.5 -74q0 -50 20.5 -95.5t64.5 -86.5t125 -65t190 -24z" />
    <glyph glyph-name="nine.lf" horiz-adv-x="1554" 
d="M662 -33q-249 0 -407.5 105t-182.5 276h256q13 -75 112 -123.5t226 -48.5q209 0 325.5 134t122.5 362q-65 -93 -196.5 -150t-284.5 -57q-250 0 -410 153.5t-160 399.5q0 257 173.5 414t455.5 157q312 0 495 -201t183 -571q0 -253 -87 -445.5t-247.5 -298.5t-373.5 -106z
M696 676q178 0 289 96t111 252t-110 252t-288 96q-176 0 -281.5 -95.5t-105.5 -252.5t105.5 -252.5t279.5 -95.5z" />
    <glyph glyph-name="zero.osf" horiz-adv-x="1335" 
d="M672 -33q-255 0 -410.5 166t-155.5 440q0 291 155 469.5t407 178.5t406.5 -178t154.5 -470q0 -273 -153 -439.5t-404 -166.5zM666 182q143 0 230 108t87 285q0 194 -87 313.5t-228 119.5t-228.5 -120t-87.5 -313q0 -177 86.5 -285t227.5 -108z" />
    <glyph glyph-name="one.osf" horiz-adv-x="968" 
d="M623 242h280v-242h-797v242h283v704l-248 -151v260l248 164h234v-977z" />
    <glyph glyph-name="two.osf" horiz-adv-x="1257" 
d="M166 0v225q48 28 146.5 84.5t153 88.5t124.5 77t119 82q172 129 172 258q0 81 -61.5 140t-192.5 59q-65 0 -115 -16t-80.5 -43t-50.5 -65t-27.5 -77.5t-7.5 -85.5h-235q0 221 135 357.5t383 136.5q227 0 356 -113.5t129 -282.5q0 -203 -215 -374q-111 -89 -362 -226h618
v-225h-989z" />
    <glyph glyph-name="three.osf" horiz-adv-x="1167" 
d="M117 -367v207h164q271 0 406.5 74.5t135.5 235.5q0 142 -110 209t-336 67h-131v178l479 400h-666v217h949v-222l-469 -391v-4q114 0 210 -28.5t168 -84.5t112 -144.5t40 -201.5q0 -512 -739 -512h-213z" />
    <glyph glyph-name="four.osf" horiz-adv-x="1239" 
d="M1167 240v-240h-155v-362h-240v362h-700v229l671 992h269v-981h155zM328 240h444v647z" />
    <glyph glyph-name="five.osf" horiz-adv-x="1327" 
d="M645 -369q-239 0 -399.5 106t-173.5 273h258q6 -52 55.5 -91.5t117 -58t138.5 -18.5q84 0 152.5 29.5t110.5 79.5t64.5 112t22.5 130q0 144 -91 239.5t-238 95.5q-107 0 -187.5 -55t-118.5 -154h-256l226 902h772v-238h-602l-99 -358q54 53 140 85.5t190 32.5
q153 0 270 -74t177.5 -198.5t60.5 -277.5q0 -88 -20.5 -168t-66.5 -152.5t-113.5 -126t-167.5 -84.5t-222 -31z" />
    <glyph glyph-name="six.osf" horiz-adv-x="1435" 
d="M745 -33q-206 0 -346 95t-206 263.5t-66 403.5q0 139 23.5 264t74.5 235t126.5 189.5t185 125.5t243.5 46q107 0 196.5 -34.5t146.5 -91t90.5 -123t41.5 -136.5h-256q-13 83 -79 129.5t-158 46.5q-110 0 -194.5 -71t-132.5 -188t-64 -269q67 111 188.5 163t253.5 52
q124 0 224.5 -44t164.5 -118.5t98.5 -170t34.5 -202.5q0 -86 -21.5 -166.5t-68 -153.5t-114.5 -127t-167 -86t-219 -32zM745 184q79 0 144.5 30t108 79t66 110.5t23.5 126.5q0 134 -91.5 230t-250.5 96q-158 0 -251 -96t-93 -230q0 -65 23.5 -126.5t66 -110.5t109 -79
t145.5 -30z" />
    <glyph glyph-name="seven.osf" horiz-adv-x="1114" 
d="M164 -334l608 1315h-709v242h973v-242l-600 -1315h-272z" />
    <glyph glyph-name="eight.osf" horiz-adv-x="1466" 
d="M692 -37q-136 0 -246 29t-181 76t-118.5 110.5t-67.5 129t-20 134.5q0 139 76.5 242t214.5 147q-109 57 -163 141.5t-54 182.5q0 64 19.5 124.5t63.5 116.5t107.5 97.5t158.5 66.5t210 25q117 0 212.5 -24.5t158.5 -66t105.5 -96.5t61.5 -114t19 -121q0 -102 -55 -188.5
t-164 -143.5q138 -44 214.5 -146t76.5 -243q0 -57 -14 -112t-43.5 -110t-80 -100.5t-118 -81t-163 -55.5t-210.5 -20zM690 930q151 0 226 63t75 160q0 96 -75.5 161.5t-225.5 65.5q-152 0 -229.5 -65.5t-77.5 -161.5t77 -159.5t230 -63.5zM690 180q99 0 173.5 23.5t116 62.5
t61.5 83.5t20 92.5q0 51 -19 95.5t-59.5 84t-115.5 62.5t-177 23q-196 0 -285.5 -74.5t-89.5 -190.5q0 -48 20 -92.5t62 -83.5t117.5 -62.5t175.5 -23.5z" />
    <glyph glyph-name="nine.osf" horiz-adv-x="1417" 
d="M670 -369q-103 0 -190 23t-147.5 60.5t-104 88t-66.5 104t-29 109.5h256q13 -81 98.5 -128.5t198.5 -47.5q159 0 251.5 120.5t98.5 338.5q-161 -203 -418 -203q-120 0 -218 46t-160 123.5t-95.5 176.5t-33.5 209q0 113 35.5 213.5t104.5 181t183 128t258 47.5
q300 0 448 -199.5t148 -577.5q0 -127 -17 -238t-61 -219t-112 -185t-177.5 -124t-250.5 -47zM684 307q153 0 244.5 102t91.5 246t-91.5 246.5t-244.5 102.5q-149 0 -237.5 -102.5t-88.5 -246.5t88.5 -246t237.5 -102z" />
    <glyph glyph-name="zero.ss01" horiz-adv-x="1529" 
d="M766 -33q-135 0 -245.5 43t-186.5 118.5t-128 178.5t-76 221t-24 250t24 250t76 221t128 178.5t186.5 118.5t245.5 43t245.5 -43t186 -118t127 -179t75 -221.5t23.5 -249.5t-23.5 -249.5t-75 -221.5t-127 -179t-186 -118t-245.5 -43zM764 197q85 0 154.5 31.5t116.5 85.5
t79.5 128.5t47 158.5t14.5 177t-14.5 177t-47 158.5t-79.5 129t-116.5 86t-154.5 31.5q-84 0 -153 -31.5t-116 -86t-79.5 -129t-47 -158.5t-14.5 -177q0 -117 24 -219t72 -184.5t128.5 -130t185.5 -47.5z" />
    <glyph glyph-name="one.ss01" horiz-adv-x="794" 
d="M446 0v1270l-340 -291v291l340 286h242v-1556h-242z" />
    <glyph glyph-name="two.ss01" horiz-adv-x="1480" 
d="M121 -2v242l389 237q-217 37 -336 186.5t-119 362.5q0 90 21.5 171t69.5 153.5t119 125t176.5 83t234.5 30.5q131 0 236.5 -31t175.5 -84t117.5 -126.5t68 -155t20.5 -172.5q0 -167 -84 -299t-292 -248l-414 -233h792v-242h-1175zM678 668q91 0 162.5 28.5t116 77.5
t67.5 111.5t23 132.5q0 71 -23 133.5t-67 113t-116.5 80t-164.5 29.5q-93 0 -166 -29.5t-117 -79.5t-67 -112t-23 -131q0 -54 14 -104.5t44 -96t73 -79.5t106 -54t138 -20z" />
    <glyph glyph-name="three.ss01" horiz-adv-x="1468" 
d="M731 -33q-166 0 -289 45.5t-195 127.5t-106.5 186t-34.5 231q0 189 85 327t290 236l393 195h-768v241h1170v-241l-385 -219q113 0 203.5 -44t148.5 -119.5t88.5 -175t30.5 -212.5q0 -96 -21.5 -180t-69.5 -158t-120 -126.5t-179.5 -83t-240.5 -30.5zM733 188
q93 0 165.5 29t117 80t67.5 116.5t23 141.5q0 161 -94.5 263t-278.5 102q-182 0 -276.5 -102t-94.5 -263q0 -159 95 -263t276 -104z" />
    <glyph glyph-name="four.ss01" horiz-adv-x="1406" 
d="M1298 563v-241h-153v-322h-240v322h-799v262l779 972h260v-993h153zM377 563h528v666z" />
    <glyph glyph-name="five.ss01" horiz-adv-x="1464" 
d="M733 -33q-161 0 -284 46.5t-196.5 128.5t-110 186t-36.5 227q0 106 33 258l162 743h873v-241h-682l-74 -336q120 127 360 127q144 0 256 -43.5t182 -121t106 -179t36 -221.5q0 -119 -36 -220t-108.5 -181.5t-195.5 -126.5t-285 -46zM733 188q181 0 277 103t96 252
q0 71 -23 133t-67 111.5t-117 78.5t-166 29q-92 0 -164.5 -29t-116.5 -78.5t-67 -111.5t-23 -133t23 -133.5t67 -112.5t116.5 -79.5t164.5 -29.5z" />
    <glyph glyph-name="six.ss01" horiz-adv-x="1460" 
d="M737 -33q-294 0 -462.5 157.5t-168.5 428.5q0 119 43.5 236t151 285.5t324.5 457.5l18 24h277l-394 -526q107 72 279 72q113 0 211.5 -36t174 -104t118.5 -174.5t43 -238.5q0 -120 -36.5 -223.5t-109.5 -184.5t-193 -127.5t-276 -46.5zM725 188q93 0 166 29.5t118 79.5
t68 112.5t23 133.5q0 70 -23.5 132.5t-68 112t-116.5 78.5t-163 29q-170 0 -271.5 -95.5t-101.5 -254.5q0 -72 22.5 -135t66.5 -113t116 -79.5t164 -29.5z" />
    <glyph glyph-name="seven.ss01" horiz-adv-x="1222" 
d="M291 0q66 589 571 1315h-756v241h1010v-274q-113 -170 -194.5 -306.5t-166 -304.5t-136.5 -337t-70 -334h-258z" />
    <glyph glyph-name="nine.ss01" horiz-adv-x="1464" 
d="M209 0v231h764l74 336q-68 -68 -152 -94.5t-190 -26.5q-150 0 -266 44t-188 122t-108.5 180t-36.5 222q0 95 22 178.5t71 157t120.5 126t177 83t234.5 30.5q162 0 285.5 -47t196.5 -129t109 -185t36 -224q0 -99 -27 -234l-164 -770h-958zM729 664q93 0 166 29t117 78
t67 111t23 132q0 71 -23 134t-67 113.5t-117 79.5t-166 29q-180 0 -275.5 -103t-95.5 -253q0 -147 95.5 -248.5t275.5 -101.5z" />
    <glyph glyph-name="zero.tf" horiz-adv-x="1523" 
d="M764 -33q-132 0 -241.5 42t-186 116t-129.5 176.5t-78 222.5t-25 254t25 254t78 222.5t129.5 176.5t186 116t241.5 42q164 0 291.5 -64t206 -176.5t118 -257t39.5 -313.5t-39.5 -313.5t-118 -257t-206 -176.5t-291.5 -64zM762 188q101 0 179.5 45.5t128 126.5t74.5 187
t25 231t-25 231t-74.5 187t-128 126.5t-179.5 45.5q-133 0 -227 -80t-137.5 -211t-43.5 -299t43.5 -299t137.5 -211t227 -80z" />
    <glyph glyph-name="one.tf" horiz-adv-x="1523" 
d="M883 242h536v-242h-1315v242h539v1073h-473v241h713v-1314z" />
    <glyph glyph-name="two.tf" horiz-adv-x="1523" 
d="M178 -2v242q280 176 407 260t230 166q73 58 120.5 101t92 96.5t65.5 110t21 118.5q0 126 -93 202t-269 76q-197 0 -298.5 -102t-101.5 -273q0 -84 19 -166h-248q-19 74 -19 172q0 126 36.5 230t112 185.5t204.5 127t301 45.5q154 0 271 -36.5t189 -103.5t108 -155.5
t36 -197.5q0 -149 -80.5 -287t-288.5 -297q-157 -121 -418 -272h844v-242h-1241z" />
    <glyph glyph-name="three.tf" horiz-adv-x="1523" 
d="M745 -33q-269 0 -434.5 102.5t-206.5 297.5h256q60 -183 385 -183q97 0 173 16t124 42.5t79.5 65t44 80t12.5 89.5q0 152 -131.5 227.5t-415.5 75.5h-166v199l571 344h-809v233h1119v-262l-560 -336h11q285 0 453.5 -124.5t168.5 -346.5q0 -76 -20.5 -146.5t-70 -140
t-124.5 -120t-193 -82t-266 -31.5z" />
    <glyph glyph-name="four.tf" horiz-adv-x="1523" 
d="M1419 563v-241h-317v-322h-242v322h-756v262l596 972h273l-598 -993h485v371h242v-371h317z" />
    <glyph glyph-name="five.tf" horiz-adv-x="1523" 
d="M741 -33q-284 0 -453 108.5t-184 280.5h261q9 -81 114.5 -126.5t253.5 -45.5q116 0 204 30.5t139 82t75.5 114t24.5 132.5q0 71 -25 133t-73 111.5t-126.5 78.5t-177.5 29q-148 0 -244 -58.5t-143 -148.5h-272l237 868h885v-233h-721l-100 -371q117 152 391 152
q125 0 227.5 -29.5t173 -81t119 -123t70.5 -154.5t22 -177q0 -93 -22 -175t-73 -156t-128 -126.5t-193 -83.5t-262 -31z" />
    <glyph glyph-name="six.tf" horiz-adv-x="1523" 
d="M774 -33q-151 0 -274 49t-211.5 143.5t-136.5 241t-48 334.5q0 183 46 338.5t132 270.5t217.5 180t295.5 65q223 0 370.5 -107.5t169.5 -281.5h-256q-14 80 -95 130t-196 50q-189 0 -293.5 -133t-125.5 -362q71 98 196.5 156.5t278.5 58.5q252 0 413.5 -154t161.5 -403
q0 -258 -177.5 -417t-467.5 -159zM772 184q175 0 283 98.5t108 256.5t-108 254t-283 96q-174 0 -279.5 -95.5t-105.5 -254.5t106 -257t279 -98z" />
    <glyph glyph-name="seven.tf" horiz-adv-x="1523" 
d="M383 0l747 1315h-1026v241h1315v-245l-757 -1311h-279z" />
    <glyph glyph-name="eight.tf" horiz-adv-x="1523" 
d="M764 -33q-145 0 -260 28.5t-188.5 74.5t-122.5 109t-69 128t-20 135q0 136 77 241.5t212 150.5q-107 51 -161 136.5t-54 192.5q0 67 19.5 127.5t64 116t111 95.5t167 63.5t224.5 23.5q125 0 225.5 -23.5t166.5 -63.5t110 -95t63 -115t19 -127q0 -108 -54 -194t-161 -137
q133 -46 209.5 -149t76.5 -241q0 -72 -19.5 -137.5t-68 -128.5t-121.5 -109t-187.5 -74t-258.5 -28zM762 932q168 0 248 65.5t80 161.5t-80 160.5t-248 64.5t-248 -64.5t-80 -160.5t80 -161.5t248 -65.5zM762 180q88 0 158 16.5t114.5 43t73.5 62.5t41 72.5t12 76.5
q0 50 -19.5 92.5t-63 81t-124.5 60.5t-192 22q-89 0 -159.5 -15t-115 -39.5t-73.5 -58.5t-40.5 -69t-11.5 -74q0 -50 20.5 -95.5t64.5 -86.5t125 -65t190 -24z" />
    </font>
</defs>
</svg>
