<?xml version="1.0" standalone="no"?>
<!DOCTYPE svg PUBLIC "-//W3C//DTD SVG 1.1//EN" "http://www.w3.org/Graphics/SVG/1.1/DTD/svg11.dtd" >
<svg xmlns="http://www.w3.org/2000/svg" xmlns:xlink="http://www.w3.org/1999/xlink" version="1.1">
<metadata>
Created by FontForge 20170731 at Fri Jan 21 08:37:54 2022
 By Aleksey,,,
Copyright (c) 2017 by Matthieu Salvaggio C Adele Type. All rights reserved.
</metadata>
<defs>
<font id="ATSurt-Bold" horiz-adv-x="0" >
  <font-face 
    font-family="AT Surt Bold"
    font-weight="700"
    font-stretch="normal"
    units-per-em="2048"
    panose-1="2 0 0 3 0 0 0 0 0 0"
    ascent="1556"
    descent="-492"
    x-height="1075"
    cap-height="1556"
    bbox="-1597 -1004 2935 2071"
    underline-thickness="102"
    underline-position="-307"
    unicode-range="U+0020-25CA"
  />
<missing-glyph horiz-adv-x="1421" 
d="M168 0v1538h1087v-1538h-1087zM369 338l571 999h-571v-999zM481 201h574v999z" />
    <glyph glyph-name=".notdef" horiz-adv-x="1421" 
d="M168 0v1538h1087v-1538h-1087zM369 338l571 999h-571v-999zM481 201h574v999z" />
    <glyph glyph-name=".null" 
 />
    <glyph glyph-name="nonmarkingreturn" horiz-adv-x="682" 
 />
    <glyph glyph-name="space" unicode=" " horiz-adv-x="522" 
 />
    <glyph glyph-name="exclam" unicode="!" horiz-adv-x="620" 
d="M160 473v1083h303v-1083h-303zM145 0v315h330v-315h-330z" />
    <glyph glyph-name="quotedbl" unicode="&#x22;" horiz-adv-x="1073" 
d="M246 870l-51 385v283h270v-283l-51 -385h-168zM659 870l-51 385v283h271v-283l-52 -385h-168z" />
    <glyph glyph-name="numbersign" unicode="#" horiz-adv-x="1746" 
d="M240 0l96 416h-246v209h297l66 282h-240v209h291l104 440h277l-105 -440h326l104 440h279l-105 -440h267v-209h-318l-65 -282h280v-209h-331l-97 -416h-278l98 416h-326l-98 -416h-276zM666 625h325l64 282h-324z" />
    <glyph glyph-name="dollar" unicode="$" horiz-adv-x="1441" 
d="M1382 432q0 -196 -133.5 -306.5t-376.5 -129.5v-264h-303v278q-242 41 -369 178.5t-143 327.5h301q13 -54 31 -94t49 -75t74.5 -56t106 -33t145.5 -12q321 0 321 170q0 31 -10.5 55.5t-35.5 44.5t-52.5 34.5t-76.5 29.5t-91.5 25.5t-113.5 25.5q-68 16 -112 26.5
t-103.5 27.5t-98 32t-85.5 37t-76.5 45.5t-60 55t-47.5 67.5t-27.5 81t-10.5 97q0 101 37 179.5t105 128.5t153 79.5t190 40.5v217h303v-225q461 -71 482 -557h-299q-24 179 -111 248t-264 69q-297 0 -297 -176q0 -39 16 -67.5t46.5 -49t75.5 -36t102.5 -28.5t127.5 -28
q39 -8 60 -12q79 -18 134 -32t119.5 -36t107.5 -45t86 -56.5t68 -73t40.5 -92.5t15.5 -116z" />
    <glyph glyph-name="percent" unicode="%" horiz-adv-x="2091" 
d="M414 698q-177 0 -280 124t-103 323t103 322.5t280 123.5t280 -123.5t103 -322.5t-103 -323t-280 -124zM424 -33l944 1620h217l-944 -1620h-217zM414 868q82 0 129 76.5t47 200.5t-47 200t-129 76t-129 -76t-47 -200t47 -200.5t129 -76.5zM1614 -18q-95 0 -169.5 35.5
t-120 97.5t-69.5 141.5t-24 171.5t24 171.5t69.5 141.5t120 97.5t169.5 35.5t169.5 -35.5t120 -97.5t69.5 -141.5t24 -171.5t-24 -171.5t-69.5 -141.5t-120 -97.5t-169.5 -35.5zM1614 154q61 0 102 43.5t56.5 102.5t15.5 128t-15.5 128t-56.5 102.5t-102 43.5t-102 -43.5
t-56.5 -102.5t-15.5 -128t15.5 -128t56.5 -102.5t102 -43.5z" />
    <glyph glyph-name="ampersand" unicode="&#x26;" horiz-adv-x="1495" 
d="M1438 0h-314l-71 96q-67 -43 -169.5 -69.5t-209.5 -26.5q-273 0 -445 147.5t-172 376.5q0 154 80 277.5t209 185.5l-156 207v362h992v-260h-723l159 -217q142 29 334 29h111v-246h-111q-53 0 -155 -8l262 -358q36 106 39 241h270q-6 -135 -41.5 -265.5t-87.5 -209.5z
M692 254q110 0 182 59l-350 457q-73 -37 -117.5 -102t-44.5 -146q0 -116 93 -192t237 -76z" />
    <glyph glyph-name="quotesingle" unicode="'" horiz-adv-x="659" 
d="M246 870l-51 385v283h270v-283l-51 -385h-168z" />
    <glyph glyph-name="parenleft" unicode="(" horiz-adv-x="679" 
d="M362 -238q-522 844 0 1688h267q-460 -844 0 -1688h-267z" />
    <glyph glyph-name="parenright" unicode=")" horiz-adv-x="679" 
d="M317 -238h-266q460 844 0 1688h266q522 -844 0 -1688z" />
    <glyph glyph-name="asterisk" unicode="*" horiz-adv-x="1107" 
d="M313 666l-143 118l262 281l-334 133l80 170l301 -160l-18 348l186 3l-18 -351l301 160l78 -170l-330 -133l262 -281l-143 -118l-242 321z" />
    <glyph glyph-name="plus" unicode="+" horiz-adv-x="1116" 
d="M1028 635v-211h-366v-367h-209v367h-367v211h367v364h209v-364h366z" />
    <glyph glyph-name="comma" unicode="," horiz-adv-x="503" 
d="M106 -315l119 315h-139v315h332v-315l-152 -315h-160z" />
    <glyph glyph-name="hyphen" unicode="-" horiz-adv-x="1040" 
d="M930 416h-819v250h819v-250z" />
    <glyph glyph-name="period" unicode="." horiz-adv-x="503" 
d="M86 0v315h332v-315h-332z" />
    <glyph glyph-name="slash" unicode="/" horiz-adv-x="866" 
d="M8 -238l567 1794h283l-567 -1794h-283z" />
    <glyph glyph-name="zero" unicode="0" horiz-adv-x="1554" 
d="M778 -33q-162 0 -292 62t-214.5 171.5t-129 257t-44.5 320.5t44.5 320.5t129 257t214.5 171.5t292 62t292 -62t213.5 -171.5t128 -257t44.5 -320.5t-44.5 -320.5t-128 -257t-213.5 -171.5t-292 -62zM778 236q115 0 197 71.5t122 192.5t40 278q0 241 -94 392t-265 151
q-115 0 -197.5 -72t-122.5 -193t-40 -278t40 -278t122.5 -192.5t197.5 -71.5z" />
    <glyph glyph-name="one" unicode="1" horiz-adv-x="843" 
d="M365 0v1253h-310v303h611v-1556h-301z" />
    <glyph glyph-name="two" unicode="2" horiz-adv-x="1468" 
d="M160 -2v305q187 122 273.5 178.5t188 127.5t166.5 124q124 102 182 188t58 171q0 106 -78.5 167.5t-208.5 61.5q-68 0 -125.5 -18.5t-103 -55.5t-71 -98t-25.5 -141q0 -29 18 -121h-319q-17 75 -17 127q0 127 40.5 231t119.5 181.5t205 120t289 42.5q148 0 263 -36
t187.5 -101t110 -153t37.5 -195q0 -138 -64 -255.5t-199 -238.5q-137 -122 -442 -307h725v-305h-1210z" />
    <glyph glyph-name="three" unicode="3" horiz-adv-x="1509" 
d="M748 -33q-276 0 -444 112t-206 322h326q49 -170 328 -170q182 0 269 71.5t87 189.5q0 126 -94.5 192t-306.5 66h-218v235l469 289h-761v282h1112v-323l-439 -264l17 -2q240 0 382 -128t142 -352q1 -110 -36.5 -202t-114.5 -164.5t-208 -113t-304 -40.5z" />
    <glyph glyph-name="four" unicode="4" horiz-adv-x="1472" 
d="M1374 594v-303h-266v-291h-301v291h-709v323l537 942h344l-535 -962h363v340h301v-340h266z" />
    <glyph glyph-name="five" unicode="5" horiz-adv-x="1490" 
d="M739 -33q-174 0 -316.5 53.5t-229 153t-95.5 227.5h326q6 -74 93.5 -122t211.5 -48q164 0 262.5 82.5t98.5 216.5q0 133 -94 216t-234 83q-109 0 -190.5 -51.5t-112.5 -136.5h-334l233 915h902v-282h-682l-82 -316q122 119 346 119q246 0 398.5 -152.5t152.5 -394.5
q0 -256 -177.5 -409.5t-476.5 -153.5z" />
    <glyph glyph-name="six" unicode="6" horiz-adv-x="1454" 
d="M735 -33q-308 0 -472.5 198.5t-164.5 551.5q0 254 82 451t235 308t353 111q212 0 349 -111t163 -302h-315q-19 79 -80 121t-140 42q-144 0 -233 -138.5t-98 -371.5q58 103 171 163.5t257 60.5q228 0 370 -144t142 -375q0 -256 -170.5 -410.5t-448.5 -154.5zM731 231
q128 0 207.5 77.5t79.5 207.5q0 129 -79 208t-208 79t-209 -79t-80 -208t79 -207t210 -78z" />
    <glyph glyph-name="seven" unicode="7" horiz-adv-x="1271" 
d="M199 0l635 1253h-736v303h1073v-303l-626 -1253h-346z" />
    <glyph glyph-name="eight" unicode="8" horiz-adv-x="1507" 
d="M756 -35q-143 0 -257.5 28.5t-188 75t-122.5 109.5t-69.5 128.5t-20.5 135.5q0 147 83.5 253t213.5 139q-101 42 -162 128.5t-61 196.5q0 65 19.5 125t64.5 116t111 97t166 65.5t223 24.5q153 0 269 -36.5t181.5 -98.5t97 -134t31.5 -153q0 -113 -61 -201t-162 -130
q129 -34 212 -138t83 -254q0 -70 -19.5 -135.5t-67.5 -128.5t-120 -109.5t-186.5 -75t-257.5 -28.5zM754 954q126 0 193 56t67 139q0 84 -67.5 140.5t-192.5 56.5q-126 0 -195.5 -57t-69.5 -140t69.5 -139t195.5 -56zM754 229q159 0 240 66t81 160q0 95 -77.5 161t-243.5 66
q-167 0 -245.5 -64t-78.5 -163q0 -94 81.5 -160t242.5 -66z" />
    <glyph glyph-name="nine" unicode="9" horiz-adv-x="1456" 
d="M700 -33q-256 0 -417.5 113.5t-180.5 286.5h326q15 -69 90 -111.5t180 -42.5q67 0 123.5 24.5t96.5 66t68.5 97t42 117t13.5 125.5v41q-59 -80 -167 -127t-238 -47q-128 0 -230.5 41.5t-168 113.5t-100 166.5t-34.5 202.5q0 88 23 168t71.5 151t119.5 123.5t173 82.5
t224 30q316 0 478.5 -193.5t162.5 -576.5q0 -148 -26 -277.5t-79.5 -235t-131 -181t-184.5 -117t-235 -41.5zM717 758q138 0 222.5 76t84.5 200q0 132 -83.5 211.5t-221.5 79.5q-139 0 -223 -79.5t-84 -211.5q0 -125 83.5 -200.5t221.5 -75.5z" />
    <glyph glyph-name="colon" unicode=":" horiz-adv-x="503" 
d="M86 739v316h332v-316h-332zM86 0v315h332v-315h-332z" />
    <glyph glyph-name="semicolon" unicode=";" horiz-adv-x="503" 
d="M86 739v316h332v-316h-332zM106 -315l119 315h-139v315h332v-315l-152 -315h-160z" />
    <glyph glyph-name="less" unicode="&#x3c;" horiz-adv-x="1101" 
d="M961 0l-859 582v200l859 576v-246l-650 -430l650 -426v-256z" />
    <glyph glyph-name="equal" unicode="=" horiz-adv-x="1392" 
d="M225 682v209h942v-209h-942zM225 233v209h942v-209h-942z" />
    <glyph glyph-name="greater" unicode="&#x3e;" horiz-adv-x="1103" 
d="M139 0v256l649 426l-649 430v246l858 -576v-200z" />
    <glyph glyph-name="question" unicode="?" horiz-adv-x="1273" 
d="M471 424v27q0 123 43 210t133 173q22 21 58.5 54t54.5 50t41.5 43t34.5 45.5t19.5 45.5t8.5 54q0 86 -63 140.5t-162 54.5q-126 0 -192 -87t-54 -228h-303q-15 262 133.5 422.5t421.5 160.5q236 0 385.5 -121.5t149.5 -316.5q0 -48 -9 -91.5t-28.5 -81t-39.5 -67t-52 -62
t-54.5 -53t-60 -52t-55.5 -48.5q-94 -87 -119 -182q-12 -44 -12 -90h-279zM444 0v315h330v-315h-330z" />
    <glyph glyph-name="at" unicode="@" horiz-adv-x="2234" 
d="M1272 -330q-337 0 -595.5 123t-400 348t-141.5 518q0 270 121 477t342 321t510 114q220 0 404.5 -69t313.5 -192.5t201 -301.5t72 -390q0 -284 -121 -459t-317 -175q-153 0 -253.5 106t-100.5 285q-72 -178 -275 -178q-174 0 -283.5 125t-109.5 331q0 201 104 325
t273 124q173 0 272 -127v98h207v-633q0 -129 48 -206.5t124 -77.5q96 0 156.5 121t60.5 311q0 178 -56 325.5t-157.5 250.5t-246.5 159.5t-318 56.5q-336 0 -545 -197t-209 -519q0 -175 66 -322t185 -249t290.5 -159t376.5 -57h176v-207h-174zM1071 354q96 0 152.5 74.5
t56.5 196.5v45q0 124 -56.5 197t-154.5 73q-99 0 -161 -79t-62 -210q0 -134 62.5 -215.5t162.5 -81.5z" />
    <glyph glyph-name="A" unicode="A" horiz-adv-x="1638" 
d="M45 0l617 1556h317l614 -1556h-336l-133 367h-608l-135 -367h-336zM614 649h410l-205 555z" />
    <glyph glyph-name="B" unicode="B" horiz-adv-x="1464" 
d="M166 0v1556h584q121 0 219 -24.5t170.5 -73t112.5 -126.5t40 -179q0 -115 -60 -199.5t-159 -107.5q135 -25 218 -132.5t83 -258.5q0 -214 -149.5 -334.5t-401.5 -120.5h-657zM471 930h231q130 0 200.5 43t70.5 129q0 89 -65 138.5t-187 49.5h-250v-360zM471 266h279
q138 0 221.5 54.5t83.5 164.5q0 106 -84.5 163t-229.5 57h-270v-439z" />
    <glyph glyph-name="C" unicode="C" horiz-adv-x="1712" 
d="M864 -33q-182 0 -328.5 61.5t-241 169.5t-144.5 253.5t-50 316.5q0 177 53.5 328t151 260t244.5 171t325 62q160 0 295.5 -51.5t228.5 -139.5t150.5 -203t71.5 -245h-326q-29 158 -143.5 262.5t-288.5 104.5q-138 0 -238.5 -72.5t-149 -193t-48.5 -275.5
q0 -154 49 -273.5t149.5 -191t239.5 -71.5q175 0 287.5 105t142.5 263h326q-15 -133 -72 -248.5t-150.5 -203.5t-231 -138.5t-302.5 -50.5z" />
    <glyph glyph-name="D" unicode="D" horiz-adv-x="1609" 
d="M799 0h-633v1556h637q177 0 307 -42t223.5 -133t140 -240.5t46.5 -358.5q0 -409 -178 -596.5t-543 -185.5zM471 272h285q111 0 189 24t136 80.5t85.5 156t27.5 245.5q0 275 -103.5 390.5t-334.5 115.5h-285v-1012z" />
    <glyph glyph-name="E" unicode="E" horiz-adv-x="1466" 
d="M469 303h834v-303h-1137v1556h1102v-303h-799v-313h727v-283h-727v-354z" />
    <glyph glyph-name="F" unicode="F" horiz-adv-x="1277" 
d="M1247 1253h-778v-313h698v-283h-698v-657h-303v1556h1081v-303z" />
    <glyph glyph-name="G" unicode="G" horiz-adv-x="1746" 
d="M936 -33q-386 0 -611 221.5t-225 593.5q0 184 56.5 335.5t157.5 255t244.5 160t315.5 56.5q199 0 361.5 -72.5t263 -201t121.5 -293.5h-326q-36 133 -146 214t-271 81q-207 0 -329 -143t-122 -392q0 -251 134 -396.5t378 -145.5q117 0 227 40t166 113v185h-514v262h803
v-541q-92 -150 -279.5 -241t-404.5 -91z" />
    <glyph glyph-name="H" unicode="H" horiz-adv-x="1599" 
d="M1128 1556h308v-1556h-308v647h-657v-647h-305v1556h305v-616h657v616z" />
    <glyph glyph-name="I" unicode="I" horiz-adv-x="595" 
d="M145 0v1556h306v-1556h-306z" />
    <glyph glyph-name="J" unicode="J" horiz-adv-x="1339" 
d="M621 -33q-565 0 -596 541h319q15 -139 77.5 -203.5t192.5 -64.5q43 0 77.5 7.5t61.5 19.5t47 35.5t34 46t23.5 61.5t15 72.5t8.5 87t3.5 97t0.5 111.5v778h309v-882q0 -171 -27.5 -295.5t-92 -220t-177.5 -143.5t-276 -48z" />
    <glyph glyph-name="K" unicode="K" horiz-adv-x="1435" 
d="M1393 0h-375l-547 664v-664h-305v1556h305v-645l512 645h373l-629 -768z" />
    <glyph glyph-name="L" unicode="L" horiz-adv-x="1271" 
d="M469 303h778v-303h-1081v1556h303v-1253z" />
    <glyph glyph-name="M" unicode="M" horiz-adv-x="1906" 
d="M166 0v1556h336l452 -1208l451 1208h336v-1556h-305v938l-334 -938h-297l-334 938v-938h-305z" />
    <glyph glyph-name="N" unicode="N" horiz-adv-x="1599" 
d="M166 0v1556h295l667 -1056v1056h308v-1556h-306l-659 1020v-1020h-305z" />
    <glyph glyph-name="O" unicode="O" horiz-adv-x="1765" 
d="M885 -33q-183 0 -332 62t-247.5 171.5t-152 257.5t-53.5 320t53.5 320t152 257.5t247.5 171.5t332 62q182 0 331 -62t247 -171.5t151 -257.5t53 -320t-53 -320t-151 -257.5t-247 -171.5t-331 -62zM883 240q107 0 194.5 44t143.5 119t86 171.5t30 203.5t-30 203.5t-86 172
t-143.5 119.5t-194.5 44q-86 0 -160 -29t-127.5 -79.5t-92 -118.5t-57 -147.5t-18.5 -164.5q0 -107 30 -203.5t86 -171.5t144 -119t195 -44z" />
    <glyph glyph-name="P" unicode="P" horiz-adv-x="1382" 
d="M166 0v1556h602q240 0 382 -122t142 -351q0 -228 -147 -350.5t-400 -122.5h-274v-610h-305zM471 879h231q124 0 197.5 48.5t73.5 151.5q0 102 -73 156.5t-198 54.5h-231v-411z" />
    <glyph glyph-name="Q" unicode="Q" horiz-adv-x="1765" 
d="M1667 778q0 -199 -69.5 -365t-200.5 -274l270 -274h-352l-146 147q-130 -45 -284 -45q-183 0 -332 62t-247.5 171.5t-152 257.5t-53.5 320t53.5 320t152 257.5t247.5 171.5t332 62q182 0 331 -62t247 -171.5t151 -257.5t53 -320zM883 240q19 0 59 4l-235 237h352
l123 -125q77 75 117 185.5t40 236.5q0 145 -50.5 265.5t-156 197t-249.5 76.5q-109 0 -197 -44t-144 -119.5t-86 -172t-30 -203.5t30 -203.5t86 -171.5t144 -119t197 -44z" />
    <glyph glyph-name="R" unicode="R" horiz-adv-x="1406" 
d="M166 0v1556h584q251 0 396.5 -116.5t145.5 -335.5q0 -199 -128 -310.5t-351 -134.5l567 -659h-372l-537 637v-637h-305zM471 897h246q107 0 180.5 48t73.5 145t-72.5 148.5t-196.5 51.5h-231v-393z" />
    <glyph glyph-name="S" unicode="S" horiz-adv-x="1390" 
d="M752 -33q-165 0 -294 40t-212.5 112.5t-130.5 169t-58 215.5h330q35 -148 129.5 -211.5t249.5 -63.5q119 0 185.5 46t66.5 133q0 35 -15.5 64.5t-38 50t-58 39t-64.5 29t-70 23.5q-28 9 -97 30t-122 39t-104 38q-59 25 -104.5 50.5t-88.5 61.5t-70.5 77t-44 96t-16.5 120
q0 98 34 177.5t91 132t133.5 87.5t158.5 50.5t169 15.5q273 0 425.5 -141t161.5 -379h-329q-6 75 -33 128t-68 80t-84 38.5t-94 11.5q-37 0 -72 -7t-74 -24.5t-63 -55t-24 -91.5q0 -65 41 -105t133 -75q62 -22 280 -88q122 -36 174 -60q247 -118 248 -395
q0 -230 -149 -344.5t-432 -114.5z" />
    <glyph glyph-name="T" unicode="T" horiz-adv-x="1337" 
d="M1292 1253h-471v-1253h-305v1253h-471v303h1245z" />
    <glyph glyph-name="U" unicode="U" horiz-adv-x="1560" 
d="M801 -33q-146 0 -257 33.5t-182 92t-115.5 147t-62.5 189t-18 226.5v901h305v-792q0 -76 2 -127t9.5 -111t21 -98.5t38 -77.5t59 -61t85 -35.5t115.5 -13.5q51 0 92.5 8.5t73.5 22t56.5 37.5t41 48.5t28.5 62.5t19 71.5t10.5 83t4.5 90.5t1 100v792h308v-901
q0 -129 -18.5 -231t-63.5 -189.5t-116.5 -145t-181.5 -90t-255 -32.5z" />
    <glyph glyph-name="V" unicode="V" horiz-adv-x="1597" 
d="M641 0l-616 1556h337l437 -1204l436 1204h338l-615 -1556h-317z" />
    <glyph glyph-name="W" unicode="W" horiz-adv-x="2301" 
d="M446 0l-421 1556h337l265 -1204l336 1204h376l338 -1204l262 1204h338l-419 -1556h-340l-367 1241l-367 -1241h-338z" />
    <glyph glyph-name="X" unicode="X" horiz-adv-x="1515" 
d="M1473 0h-359l-356 557l-357 -557h-358l530 784l-493 772h358l320 -532l321 532h357l-492 -772z" />
    <glyph glyph-name="Y" unicode="Y" horiz-adv-x="1464" 
d="M580 0v543l-541 1013h340l354 -739l352 739h340l-540 -1013v-543h-305z" />
    <glyph glyph-name="Z" unicode="Z" horiz-adv-x="1452" 
d="M489 303h879v-303h-1270v303l807 950h-786v303h1175l2 -303z" />
    <glyph glyph-name="bracketleft" unicode="[" horiz-adv-x="849" 
d="M772 1198h-313v-1184h313v-252h-606v1688h606v-252z" />
    <glyph glyph-name="backslash" unicode="\" horiz-adv-x="866" 
d="M858 -238h-283l-567 1794h283z" />
    <glyph glyph-name="bracketright" unicode="]" horiz-adv-x="849" 
d="M80 -238v252h313v1184h-313v252h606v-1688h-606z" />
    <glyph glyph-name="asciicircum" unicode="^" horiz-adv-x="1026" 
d="M688 778l-174 531l-172 -531h-229l266 670h272l262 -670h-225z" />
    <glyph glyph-name="underscore" unicode="_" horiz-adv-x="1646" 
d="M209 -360v217h1229v-217h-1229z" />
    <glyph glyph-name="grave" unicode="`" horiz-adv-x="663" 
d="M-61 1556h372l221 -358h-256z" />
    <glyph glyph-name="a" unicode="a" horiz-adv-x="1177" 
d="M418 -23q-92 0 -162.5 26.5t-112.5 72t-63 101.5t-21 120q0 157 125 248q144 104 512 104h66v56q0 87 -41 132.5t-133 45.5q-96 0 -139.5 -42.5t-47.5 -101.5h-290q2 59 16 109.5t48.5 99.5t87.5 83.5t137 55.5t192 21q236 0 355.5 -109t119.5 -364v-367v-139v-129h-293
v143h-6q-48 -76 -138 -121t-212 -45zM532 182q57 0 103.5 17.5t73 44t41 55t14.5 53.5v140h-45q-104 0 -181 -17.5t-125 -58.5t-48 -103q0 -65 44.5 -98t122.5 -33z" />
    <glyph glyph-name="b" unicode="b" horiz-adv-x="1255" 
d="M733 1108q211 0 339 -156t128 -411q0 -258 -129 -416t-340 -158q-92 0 -182.5 43t-142.5 113v-123h-295v1556h303v-614q59 77 144 121.5t175 44.5zM659 209q110 0 177 90t67 238q0 150 -67 240.5t-179 90.5q-109 0 -176 -80.5t-67 -212.5v-86q0 -127 67 -203.5t178 -76.5
z" />
    <glyph glyph-name="c" unicode="c" horiz-adv-x="1169" 
d="M582 -33q-246 0 -386.5 159t-140.5 413q0 257 140.5 413t386.5 156q217 0 358.5 -122.5t155.5 -319.5h-297q-13 99 -68.5 150.5t-142.5 51.5q-110 0 -173 -86t-63 -243t63 -244.5t173 -87.5q84 0 141.5 54t71.5 145h297q-7 -89 -45.5 -168t-103.5 -139.5t-160 -96
t-207 -35.5z" />
    <glyph glyph-name="d" unicode="d" horiz-adv-x="1277" 
d="M868 1556h303v-1556h-297v123q-52 -70 -142 -113t-181 -43q-211 0 -340 158t-129 416q0 255 128.5 411t340.5 156q90 0 174 -44.5t143 -121.5v614zM868 502v86q0 126 -66.5 202t-176.5 76q-111 0 -178.5 -89t-67.5 -236q0 -151 67.5 -241.5t180.5 -90.5q109 0 175 80
t66 213z" />
    <glyph glyph-name="e" unicode="e" horiz-adv-x="1169" 
d="M582 -33q-164 0 -284.5 74t-181.5 202.5t-61 295.5q0 256 139.5 412.5t380.5 156.5q110 0 205 -35.5t165.5 -100.5t110.5 -164.5t40 -221.5v-129h-740q12 -117 73.5 -183.5t162.5 -66.5q82 0 138.5 43t70.5 104h297q-7 -70 -46 -138t-103 -124t-160 -90.5t-207 -34.5z
M358 643h439q0 106 -60.5 165.5t-154.5 59.5q-99 0 -161.5 -59t-62.5 -166z" />
    <glyph glyph-name="f" unicode="f" horiz-adv-x="737" 
d="M184 0v807h-129v268h129v125q0 389 369 389q122 0 164 -12v-242q-30 6 -64 6q-166 0 -166 -143v-123h213v-268h-213v-807h-303z" />
    <glyph glyph-name="g" unicode="g" horiz-adv-x="1255" 
d="M842 1075h303v-932q0 -342 -123 -488.5t-387 -146.5q-230 0 -367.5 98t-171.5 288h293q19 -74 79 -115t150 -41q118 0 169.5 74t54.5 245v76q-116 -166 -318 -166q-212 0 -340.5 160.5t-128.5 417.5q0 161 52.5 287.5t157.5 201t247 74.5q218 0 330 -174v141zM842 502v86
q0 132 -69.5 205t-176.5 73q-115 0 -182.5 -85t-67.5 -240q0 -158 68.5 -245t183.5 -87q108 0 176 76t68 217z" />
    <glyph glyph-name="h" unicode="h" horiz-adv-x="1269" 
d="M111 0v1556h303v-643q117 195 354 195q188 0 291.5 -115.5t103.5 -326.5v-666h-303v547q0 163 -53.5 242t-149.5 79q-105 0 -174 -91t-69 -242v-535h-303z" />
    <glyph glyph-name="i" unicode="i" horiz-adv-x="538" 
d="M111 1268v288h317v-288h-317zM117 0v1075h303v-1075h-303z" />
    <glyph glyph-name="j" unicode="j" horiz-adv-x="567" 
d="M139 1268v288h318v-288h-318zM98 -492q-54 0 -99 3t-63 7l-18 3v225q23 -6 66 -6q163 0 163 170v1165h304v-1218q0 -160 -89.5 -254.5t-263.5 -94.5z" />
    <glyph glyph-name="k" unicode="k" horiz-adv-x="1028" 
d="M1012 2h-307l-291 399v-401h-303v1556h303v-942l270 461h307l-327 -536z" />
    <glyph glyph-name="l" unicode="l" horiz-adv-x="524" 
d="M111 0v1556h303v-1556h-303z" />
    <glyph glyph-name="m" unicode="m" horiz-adv-x="2037" 
d="M1522 1108q189 0 290 -117.5t101 -345.5v-645h-303v557q0 311 -197 311q-110 0 -180 -90.5t-70 -242.5v-535h-303v557q0 311 -196 311q-110 0 -180 -90.5t-70 -242.5v-535h-303v1075h303v-162q119 195 358 195q261 0 350 -219q146 219 400 219z" />
    <glyph glyph-name="n" unicode="n" horiz-adv-x="1288" 
d="M111 0v1075h303v-162q117 195 354 195q187 0 291 -120.5t104 -332.5v-655h-303v547q0 163 -53.5 242t-149.5 79q-105 0 -174 -91t-69 -242v-535h-303z" />
    <glyph glyph-name="o" unicode="o" horiz-adv-x="1200" 
d="M602 -33q-248 0 -397.5 160.5t-149.5 411.5q0 253 149 411t398 158q248 0 395.5 -158t147.5 -411q0 -251 -148 -411.5t-395 -160.5zM600 207q112 0 180 87.5t68 244.5q0 155 -68 242t-180 87t-180 -87t-68 -242q0 -157 68 -244.5t180 -87.5z" />
    <glyph glyph-name="p" unicode="p" horiz-adv-x="1255" 
d="M733 1108q211 0 339 -156t128 -411q0 -258 -129 -416t-340 -158q-91 0 -178 43t-139 113v-615h-303v1567h297v-133q58 76 146 121t179 45zM659 209q110 0 177 90t67 238q0 150 -67 240.5t-179 90.5q-109 0 -176 -80.5t-67 -212.5v-86q0 -127 67 -203.5t178 -76.5z" />
    <glyph glyph-name="q" unicode="q" horiz-adv-x="1292" 
d="M848 1075h297v-1567h-303v615q-52 -70 -139.5 -113t-178.5 -43q-211 0 -340 158t-129 416q0 255 128 411t339 156q92 0 179.5 -44.5t146.5 -121.5v133zM842 502v86q0 126 -67.5 202t-178.5 76q-109 0 -176.5 -89t-67.5 -236q0 -150 67.5 -241t178.5 -91q110 0 177 80
t67 213z" />
    <glyph glyph-name="r" unicode="r" horiz-adv-x="804" 
d="M111 0v1075h292v-203q75 147 183 195q76 35 207 35v-305h-33q-167 0 -256.5 -101t-89.5 -272v-424h-303z" />
    <glyph glyph-name="s" unicode="s" horiz-adv-x="1118" 
d="M600 -33q-252 0 -386.5 103t-150.5 282h281q19 -84 79 -121.5t171 -37.5q74 0 116 26.5t42 79.5q0 16 -6.5 30t-22.5 25.5t-29 20t-40.5 17.5t-41 13.5t-45.5 13t-41 11.5q-101 28 -168.5 54.5t-128 67.5t-90 99t-30.5 135q-1 163 125.5 242.5t334.5 79.5
q216 0 332 -95.5t127 -264.5h-287q-8 75 -59.5 107t-124.5 32q-76 0 -126 -23.5t-50 -75.5q0 -13 5 -25t16.5 -22.5t23.5 -18.5t33.5 -17t39 -15t47.5 -14.5t50.5 -14t57 -15t59.5 -15.5q43 -12 72.5 -21.5t67 -25t62.5 -32t51.5 -40.5t42 -52.5t25.5 -67t10 -83.5
q0 -169 -115.5 -255.5t-328.5 -86.5z" />
    <glyph glyph-name="t" unicode="t" horiz-adv-x="794" 
d="M541 -20q-196 1 -279.5 87.5t-83.5 260.5v479h-129v242q81 0 112.5 39t31.5 131v133h288v-277h213v-268h-213v-391q0 -91 40.5 -123.5t133.5 -32.5h66v-270q-82 -10 -180 -10z" />
    <glyph glyph-name="u" unicode="u" horiz-adv-x="1259" 
d="M489 -33q-191 0 -292 117.5t-101 345.5v645h303v-557q0 -311 197 -311q112 0 181 91t69 245v532h303v-1075h-303v172q-116 -205 -357 -205z" />
    <glyph glyph-name="v" unicode="v" horiz-adv-x="1148" 
d="M424 0l-408 1075h314l207 -653l36 -111h5l34 111l207 653h314l-408 -1075h-301z" />
    <glyph glyph-name="w" unicode="w" horiz-adv-x="1880" 
d="M424 0l-408 1075h314l243 -764h5l227 764h270l228 -764h4l243 764h312l-406 -1075h-303l-211 774h-4l-213 -774h-301z" />
    <glyph glyph-name="x" unicode="x" horiz-adv-x="1052" 
d="M1036 1075l-319 -536l319 -537h-305l-205 356l-204 -356h-306l322 537l-322 536h306l200 -362l209 362h305z" />
    <glyph glyph-name="y" unicode="y" horiz-adv-x="1148" 
d="M244 -492l180 494l-408 1073h314l209 -663l34 -105h5l32 105l209 663h314l-381 -1001l-203 -566h-305z" />
    <glyph glyph-name="z" unicode="z" horiz-adv-x="1157" 
d="M412 244h680v-244h-1016v244l635 587h-619v244h952l3 -244z" />
    <glyph glyph-name="braceleft" unicode="{" horiz-adv-x="786" 
d="M592 -238q-99 0 -170.5 23t-113.5 60.5t-67 97.5t-33 120.5t-9 143.5q0 41 -0.5 62t-2 50t-2.5 42t-5 31t-8 24.5t-11.5 16.5t-16 12.5t-21.5 6.5t-26.5 4.5t-33.5 0.5v297q20 0 33.5 0.5t26.5 4t21.5 6t16 12.5t11.5 16.5t8 24.5t5 31t2.5 41t2 49.5t0.5 61.5
q1 83 9 143.5t33 120.5t67 97.5t113.5 60.5t170.5 23h119v-232h-64q-33 0 -60 -7t-47 -17.5t-35.5 -30.5t-25.5 -36.5t-17.5 -45.5t-11 -48.5t-6 -54t-3 -53t-1 -55t-0.5 -51.5q-3 -89 -27 -130t-98 -60v-41q75 -19 98.5 -60.5t26.5 -130.5q0 -14 0.5 -53t1 -56t3 -53
t6.5 -54t11.5 -48t17.5 -45.5t25.5 -35.5t35.5 -30t47 -17t59 -7h64v-232h-119z" />
    <glyph glyph-name="bar" unicode="|" horiz-adv-x="753" 
d="M225 -492v2048h303v-2048h-303z" />
    <glyph glyph-name="braceright" unicode="}" horiz-adv-x="786" 
d="M195 -238h-119v232h63q32 0 59 7t46.5 17.5t35.5 29.5t26 36t17 45t11 48t6.5 53.5t3 53.5t1 56t1.5 53q3 89 26.5 130.5t98.5 60.5v41q-74 19 -98 60t-27 130q0 15 -0.5 51.5t-1 55t-3 53t-6 54t-11 48.5t-17.5 45.5t-25.5 36.5t-35.5 30.5t-47 17.5t-60 7h-63v232h119
q99 0 170.5 -23t113.5 -60.5t67 -97.5t33 -120.5t9 -143.5q0 -40 0.5 -61.5t2 -49.5t2.5 -41t5 -31t8 -24.5t11.5 -16.5t16 -12.5t21.5 -6t26.5 -4t33.5 -0.5v-297q-20 0 -33.5 -0.5t-26.5 -4.5t-21.5 -6.5t-16 -12.5t-11.5 -16.5t-8 -24.5t-5 -31t-2.5 -42t-2 -50t-0.5 -62
q-1 -83 -9 -143.5t-33 -120.5t-67 -97.5t-113.5 -60.5t-170.5 -23z" />
    <glyph glyph-name="asciitilde" unicode="~" horiz-adv-x="1449" 
d="M942 612q-58 0 -109.5 19t-87.5 46t-68 54.5t-66.5 46.5t-67.5 19q-49 0 -83 -35t-34 -113v-26h-201v30q0 132 80 227t223 95q60 0 111 -17.5t86 -43t66.5 -51t65 -43t67.5 -17.5q43 0 71.5 29.5t28.5 99.5v24h201v-20q0 -61 -15.5 -116t-47.5 -103t-89 -76.5t-131 -28.5
z" />
    <glyph glyph-name="exclamdown" unicode="&#xa1;" horiz-adv-x="620" 
d="M145 1241v315h330v-315h-330zM160 0v1083h303v-1083h-303z" />
    <glyph glyph-name="cent" unicode="&#xa2;" horiz-adv-x="1073" 
d="M348 0v238q-141 52 -217 180.5t-76 304.5t76.5 303t216.5 178v244h334v-231q137 -35 222.5 -137t94.5 -244h-270q-12 90 -62 137t-128 47q-99 0 -156 -78t-57 -219q0 -144 56.5 -222.5t156.5 -78.5q76 0 128 48t66 130h268q-11 -133 -95 -236t-224 -139v-225h-334z" />
    <glyph glyph-name="sterling" unicode="&#xa3;" horiz-adv-x="1138" 
d="M57 -2v254q80 7 177 89t120 185q16 59 13 111h-308v197h205q-33 41 -50 63.5t-40.5 62.5t-34 81.5t-10.5 88.5q0 56 15.5 107.5t57 102.5t105 88t167.5 60t237 23q173 0 299 -49v-252q-141 58 -279 58q-81 0 -149 -17.5t-116 -61t-48 -106.5q0 -29 13.5 -62.5t28.5 -57
t45 -65t44 -64.5h385v-197h-309q6 -77 -11 -145q-13 -93 -69.5 -160.5t-124.5 -79.5v-4h694v-250h-1057z" />
    <glyph glyph-name="currency" unicode="&#xa4;" horiz-adv-x="1370" 
d="M291 94l-236 236l168 168q-43 93 -43 217q0 128 47 231l-172 170l236 238l170 -172q88 55 215 55q139 0 225 -63l176 180l238 -238l-182 -182q38 -100 38 -219q0 -117 -36 -205l178 -180l-236 -236l-162 164q-101 -70 -239 -70q-136 0 -227 62zM676 414q102 0 163.5 79
t61.5 222q0 142 -61.5 220.5t-163.5 78.5t-163.5 -78.5t-61.5 -220.5q0 -143 61.5 -222t163.5 -79z" />
    <glyph glyph-name="yen" unicode="&#xa5;" horiz-adv-x="1548" 
d="M1509 1483l-493 -809h178v-199h-274v-84h274v-201h-274v-190h-289v190h-275v201h275v84h-275v199h179l-496 809h317l418 -709l418 709h317z" />
    <glyph glyph-name="brokenbar" unicode="&#xa6;" horiz-adv-x="753" 
d="M225 727v834h303v-834h-303zM225 -492v912h303v-912h-303z" />
    <glyph glyph-name="section" unicode="&#xa7;" horiz-adv-x="1159" 
d="M926 408q79 -31 119 -93.5t40 -142.5q0 -150 -132 -238t-351 -88q-237 0 -380.5 102t-158.5 283h295q14 -71 79 -115t167 -44q81 0 135 27.5t54 72.5q0 25 -18.5 45.5t-57 37t-73.5 27t-93 26.5q-27 7 -41 11q-68 18 -119.5 35t-110 46.5t-96.5 64t-63 86t-25 113.5
q0 78 39 145.5t117 103.5q-76 31 -116 94t-40 140q0 147 125.5 233t335.5 86q230 0 360.5 -107t141.5 -300h-297q-17 92 -73 139t-144 47q-71 0 -113.5 -28.5t-42.5 -69.5q0 -20 9 -36.5t29 -29.5t40.5 -23.5t54 -20.5t59 -17t66.5 -17.5t66 -17.5q55 -16 94 -29.5t96 -42
t93 -60t62.5 -81t26.5 -108.5q0 -80 -40.5 -149.5t-118.5 -106.5zM389 684q0 -61 62.5 -103t162.5 -51q89 -9 134 19.5t45 77.5q0 60 -60 101t-145 52q-93 13 -146 -14.5t-53 -81.5z" />
    <glyph glyph-name="dieresis" unicode="&#xa8;" horiz-adv-x="1011" 
d="M178 1317v239h242v-239h-242zM578 1317v239h241v-239h-241z" />
    <glyph glyph-name="copyright" unicode="&#xa9;" horiz-adv-x="1540" 
d="M770 254q-301 0 -485.5 184.5t-184.5 485.5t184.5 485t485.5 184t485.5 -184t184.5 -485t-184.5 -485.5t-485.5 -184.5zM770 381q244 0 392.5 149.5t148.5 393.5q0 245 -148.5 393.5t-392.5 148.5q-243 0 -393 -149t-150 -393q0 -243 150 -393t393 -150zM780 559
q-156 0 -249 100t-93 265t92.5 265.5t245.5 100.5q136 0 227.5 -78.5t98.5 -205.5h-189q-9 60 -46 95.5t-91 35.5q-67 0 -108 -58.5t-41 -154.5t41 -153.5t110 -57.5q54 0 91.5 34.5t45.5 90.5h189q-3 -123 -94.5 -201t-229.5 -78z" />
    <glyph glyph-name="guillemotleft" unicode="&#xab;" horiz-adv-x="1335" 
d="M739 997l-368 -454l368 -455h-317l-369 455l369 454h317zM1284 997l-369 -454l369 -455h-317l-369 455l369 454h317z" />
    <glyph glyph-name="logicalnot" unicode="&#xac;" horiz-adv-x="1116" 
d="M819 59v367h-733v211h942v-578h-209z" />
    <glyph glyph-name="registered" unicode="&#xae;" horiz-adv-x="1071" 
d="M537 733q-197 0 -317 120t-120 316q0 198 120 318.5t317 120.5q195 0 314.5 -120.5t119.5 -318.5q0 -196 -119.5 -316t-314.5 -120zM537 827q153 0 247.5 94.5t94.5 247.5q0 155 -94 249.5t-248 94.5q-155 0 -249.5 -94.5t-94.5 -249.5q0 -153 94.5 -247.5t249.5 -94.5z
M393 961v423h160q67 0 108 -34t41 -101q0 -110 -114 -125l143 -163h-115l-131 157v-157h-92zM485 1200h54q67 0 67 49q0 29 -19 42.5t-48 13.5h-54v-105z" />
    <glyph glyph-name="macron" unicode="&#xaf;" horiz-adv-x="1024" 
d="M834 1253h-730v222h730v-222z" />
    <glyph glyph-name="degree" unicode="&#xb0;" horiz-adv-x="845" 
d="M424 1100q-110 0 -178 67t-68 176q0 110 68 178t178 68q109 0 175.5 -68t66.5 -178q0 -109 -66.5 -176t-175.5 -67zM424 1225q48 0 77 32t29 86t-29.5 86.5t-76.5 32.5q-49 0 -79 -32.5t-30 -86.5t29.5 -86t79.5 -32z" />
    <glyph glyph-name="plusminus" unicode="&#xb1;" horiz-adv-x="1116" 
d="M88 0v211h365v213h-367v211h367v364h209v-364h366v-211h-366v-213h368v-211h-942z" />
    <glyph glyph-name="uni00B2" unicode="&#xb2;" horiz-adv-x="808" 
d="M78 694v197q284 189 342 235q123 97 123 168q0 50 -37.5 78.5t-97.5 28.5q-63 0 -107.5 -36t-44.5 -116q0 -52 10 -90h-209q-8 54 -8 90q0 146 91.5 234t275.5 88q166 0 250 -72.5t84 -191.5q0 -133 -125 -246q-72 -67 -242 -170h377v-197h-682z" />
    <glyph glyph-name="uni00B3" unicode="&#xb3;" horiz-adv-x="843" 
d="M420 678q-162 0 -256.5 66t-114.5 190h211q22 -88 160 -88q87 0 132.5 34.5t45.5 92.5q0 121 -195 121h-139v143l254 139h-416v176h639v-206l-225 -119l4 -2q123 0 197.5 -69t75.5 -187q2 -131 -93.5 -211t-279.5 -80z" />
    <glyph glyph-name="acute" unicode="&#xb4;" horiz-adv-x="663" 
d="M516 1556l-338 -358h-256l221 358h373z" />
    <glyph glyph-name="paragraph" unicode="&#xb6;" horiz-adv-x="1636" 
d="M1038 0h-262v614h-176q-67 0 -130.5 13t-128.5 46.5t-113 85t-78.5 135.5t-30.5 191q0 104 29 187t75.5 135t109 86.5t126 48.5t131.5 14h448v-1556zM1186 0v1556h305v-1556h-305z" />
    <glyph glyph-name="periodcentered" unicode="&#xb7;" horiz-adv-x="503" 
d="M86 381v315h332v-315h-332z" />
    <glyph glyph-name="cedilla" unicode="&#xb8;" horiz-adv-x="575" 
d="M264 -104h39q83 0 133.5 -39.5t50.5 -104.5q0 -78 -66.5 -122t-201.5 -44h-117v117h117q42 0 67 12.5t25 34.5q0 19 -25.5 30t-66.5 11h-96v105l153 167h158z" />
    <glyph glyph-name="uni00B9" unicode="&#xb9;" horiz-adv-x="489" 
d="M201 696v662h-170v194h364v-856h-194z" />
    <glyph glyph-name="guillemotright" unicode="&#xbb;" horiz-adv-x="1335" 
d="M51 88l369 455l-369 454h318l368 -454l-368 -455h-318zM596 88l369 455l-369 454h317l369 -454l-369 -455h-317z" />
    <glyph glyph-name="onequarter" unicode="&#xbc;" horiz-adv-x="1775" 
d="M231 -33l945 1620h227l-944 -1620h-228zM201 700v660h-170v196h366v-856h-196zM1681 340v-195h-133v-145h-192v145h-395v207l284 504h223l-284 -516h172v174h192v-174h133z" />
    <glyph glyph-name="onehalf" unicode="&#xbd;" horiz-adv-x="1828" 
d="M231 -33l945 1620h227l-944 -1620h-228zM201 700v660h-170v196h366v-856h-196zM1053 -2v197q284 189 342 235q123 94 123 170q0 48 -38 76.5t-98 28.5q-63 0 -107 -36t-44 -116q0 -24 10 -66h-209q-6 44 -6 68q0 144 90.5 231.5t274.5 87.5q166 0 249.5 -72.5
t83.5 -191.5q0 -132 -125 -245q-80 -74 -241 -170h377v-197h-682z" />
    <glyph glyph-name="threequarters" unicode="&#xbe;" horiz-adv-x="1990" 
d="M492 -33l944 1620h227l-944 -1620h-227zM420 680q-162 0 -256.5 66t-114.5 190h211q22 -88 160 -88q87 0 132.5 34.5t45.5 92.5q0 121 -195 121h-139v143l254 139h-416v176h639v-204l-225 -121l4 -2q123 0 197.5 -69t75.5 -187q2 -131 -93.5 -211t-279.5 -80zM1939 340
v-195h-131v-145h-194v145h-393v207l282 504h223l-284 -516h172v174h194v-174h131z" />
    <glyph glyph-name="questiondown" unicode="&#xbf;" horiz-adv-x="1273" 
d="M829 1556v-315h-331v315h331zM803 1133v-27q0 -123 -43 -210t-133 -173q-21 -20 -68.5 -63t-64 -60.5t-42 -49t-34 -59.5t-8.5 -61q0 -86 63.5 -140t163.5 -54q125 0 190.5 87t53.5 228h303q15 -262 -133.5 -423t-421.5 -161q-236 0 -385.5 121.5t-149.5 317.5
q0 56 14.5 107.5t33 87t55.5 77.5t60.5 64t70.5 62t65 56q94 87 119 182q12 44 12 91h279z" />
    <glyph glyph-name="Agrave" unicode="&#xc0;" horiz-adv-x="1638" 
d="M522 2038h373l221 -359h-256zM45 0l617 1556h317l614 -1556h-336l-133 367h-608l-135 -367h-336zM614 649h410l-205 555z" />
    <glyph glyph-name="Aacute" unicode="&#xc1;" horiz-adv-x="1638" 
d="M1116 2038l-338 -359h-256l221 359h373zM45 0l617 1556h317l614 -1556h-336l-133 367h-608l-135 -367h-336zM614 649h410l-205 555z" />
    <glyph glyph-name="Acircumflex" unicode="&#xc2;" horiz-adv-x="1638" 
d="M1227 1679h-236l-172 215l-172 -215h-235l241 359h332zM45 0l617 1556h317l614 -1556h-336l-133 367h-608l-135 -367h-336zM614 649h410l-205 555z" />
    <glyph glyph-name="Atilde" unicode="&#xc3;" horiz-adv-x="1638" 
d="M680 2007q54 0 101 -27.5t83.5 -54.5t65.5 -27q32 0 50.5 26t18.5 73h195q0 -134 -67.5 -210.5t-176.5 -76.5q-46 0 -85.5 17t-61.5 37.5t-48 37.5t-48 17q-31 0 -50.5 -27t-19.5 -72h-193q0 127 65.5 207t170.5 80zM45 0l617 1556h317l614 -1556h-336l-133 367h-608
l-135 -367h-336zM614 649h410l-205 555z" />
    <glyph glyph-name="Adieresis" unicode="&#xc4;" horiz-adv-x="1638" 
d="M498 1798v240h241v-240h-241zM897 1798v240h242v-240h-242zM45 0l617 1556h317l614 -1556h-336l-133 367h-608l-135 -367h-336zM614 649h410l-205 555z" />
    <glyph glyph-name="Aring" unicode="&#xc5;" horiz-adv-x="1638" 
d="M819 1679q-88 0 -141 53.5t-53 141.5q0 86 53 138t141 52q89 0 143 -52t54 -138q0 -88 -54 -141.5t-143 -53.5zM819 1802q32 0 51 19.5t19 50.5t-19 49t-51 18q-31 0 -50 -18t-19 -49t19 -50.5t50 -19.5zM45 0l617 1556h317l614 -1556h-336l-133 367h-608l-135 -367h-336
zM614 649h410l-205 555z" />
    <glyph glyph-name="AE" unicode="&#xc6;" horiz-adv-x="2367" 
d="M1370 307h832v-307h-1137v356h-530l-152 -356h-338l692 1556h1430v-307h-797v-297h727v-307h-727v-338zM911 1249l-245 -583h399v583h-154z" />
    <glyph glyph-name="Ccedilla" unicode="&#xc7;" horiz-adv-x="1712" 
d="M864 240q175 0 287.5 105t142.5 263h326q-15 -130 -70 -243.5t-144.5 -200.5t-220.5 -139.5t-288 -57.5l-74 -71h39q83 0 134 -39.5t51 -104.5q0 -78 -67 -122t-202 -44h-116v117h116q42 0 67 12.5t25 34.5q0 19 -25.5 30t-66.5 11h-96v105l72 77q-208 24 -357.5 134.5
t-223 280t-73.5 380.5q0 177 53.5 328t151 260t244.5 171t325 62q160 0 295.5 -51.5t228.5 -139.5t150.5 -203t71.5 -245h-326q-29 158 -143.5 262.5t-288.5 104.5q-138 0 -238.5 -72.5t-149 -193t-48.5 -275.5q0 -154 49 -273.5t149.5 -191t239.5 -71.5z" />
    <glyph glyph-name="Egrave" unicode="&#xc8;" horiz-adv-x="1466" 
d="M436 2038h373l221 -359h-256zM469 303h834v-303h-1137v1556h1102v-303h-799v-313h727v-283h-727v-354z" />
    <glyph glyph-name="Eacute" unicode="&#xc9;" horiz-adv-x="1466" 
d="M1030 2038l-338 -359h-256l221 359h373zM469 303h834v-303h-1137v1556h1102v-303h-799v-313h727v-283h-727v-354z" />
    <glyph glyph-name="Ecircumflex" unicode="&#xca;" horiz-adv-x="1466" 
d="M1141 1679h-236l-172 215l-172 -215h-235l241 359h332zM469 303h834v-303h-1137v1556h1102v-303h-799v-313h727v-283h-727v-354z" />
    <glyph glyph-name="Edieresis" unicode="&#xcb;" horiz-adv-x="1466" 
d="M412 1798v240h241v-240h-241zM811 1798v240h242v-240h-242zM469 303h834v-303h-1137v1556h1102v-303h-799v-313h727v-283h-727v-354z" />
    <glyph glyph-name="Igrave" unicode="&#xcc;" horiz-adv-x="595" 
d="M0 2038h373l221 -359h-256zM145 0v1556h306v-1556h-306z" />
    <glyph glyph-name="Iacute" unicode="&#xcd;" horiz-adv-x="595" 
d="M594 2038l-338 -359h-256l221 359h373zM145 0v1556h306v-1556h-306z" />
    <glyph glyph-name="Icircumflex" unicode="&#xce;" horiz-adv-x="595" 
d="M705 1679h-236l-172 215l-172 -215h-236l242 359h332zM145 0v1556h306v-1556h-306z" />
    <glyph glyph-name="Idieresis" unicode="&#xcf;" horiz-adv-x="595" 
d="M-25 1798v240h242v-240h-242zM375 1798v240h241v-240h-241zM145 0v1556h306v-1556h-306z" />
    <glyph glyph-name="Eth" unicode="&#xd0;" horiz-adv-x="1609" 
d="M803 1556q177 0 307 -42t223.5 -133t140 -240.5t46.5 -358.5q0 -409 -178 -596.5t-543 -185.5h-633v662h-121v231h121v663h637zM756 272q111 0 189 24t136 80.5t85.5 156t27.5 245.5q0 275 -103.5 390.5t-334.5 115.5h-285v-391h303v-231h-303v-390h285z" />
    <glyph glyph-name="Ntilde" unicode="&#xd1;" horiz-adv-x="1599" 
d="M657 2007q54 0 101 -27.5t83.5 -54.5t65.5 -27q31 0 50.5 26.5t19.5 72.5h192q0 -134 -66.5 -210.5t-174.5 -76.5q-46 0 -85.5 17t-62 37.5t-49 37.5t-49.5 17q-31 0 -49.5 -26.5t-18.5 -72.5h-194q0 127 65.5 207t171.5 80zM166 0v1556h295l667 -1056v1056h308v-1556
h-306l-659 1020v-1020h-305z" />
    <glyph glyph-name="Ograve" unicode="&#xd2;" horiz-adv-x="1765" 
d="M586 2038h372l222 -359h-256zM885 -33q-183 0 -332 62t-247.5 171.5t-152 257.5t-53.5 320t53.5 320t152 257.5t247.5 171.5t332 62q182 0 331 -62t247 -171.5t151 -257.5t53 -320t-53 -320t-151 -257.5t-247 -171.5t-331 -62zM883 240q107 0 194.5 44t143.5 119
t86 171.5t30 203.5t-30 203.5t-86 172t-143.5 119.5t-194.5 44q-86 0 -160 -29t-127.5 -79.5t-92 -118.5t-57 -147.5t-18.5 -164.5q0 -107 30 -203.5t86 -171.5t144 -119t195 -44z" />
    <glyph glyph-name="Oacute" unicode="&#xd3;" horiz-adv-x="1765" 
d="M1180 2038l-338 -359h-256l221 359h373zM885 -33q-183 0 -332 62t-247.5 171.5t-152 257.5t-53.5 320t53.5 320t152 257.5t247.5 171.5t332 62q182 0 331 -62t247 -171.5t151 -257.5t53 -320t-53 -320t-151 -257.5t-247 -171.5t-331 -62zM883 240q107 0 194.5 44
t143.5 119t86 171.5t30 203.5t-30 203.5t-86 172t-143.5 119.5t-194.5 44q-86 0 -160 -29t-127.5 -79.5t-92 -118.5t-57 -147.5t-18.5 -164.5q0 -107 30 -203.5t86 -171.5t144 -119t195 -44z" />
    <glyph glyph-name="Ocircumflex" unicode="&#xd4;" horiz-adv-x="1765" 
d="M1290 1679h-235l-172 215l-172 -215h-236l242 359h332zM885 -33q-183 0 -332 62t-247.5 171.5t-152 257.5t-53.5 320t53.5 320t152 257.5t247.5 171.5t332 62q182 0 331 -62t247 -171.5t151 -257.5t53 -320t-53 -320t-151 -257.5t-247 -171.5t-331 -62zM883 240
q107 0 194.5 44t143.5 119t86 171.5t30 203.5t-30 203.5t-86 172t-143.5 119.5t-194.5 44q-86 0 -160 -29t-127.5 -79.5t-92 -118.5t-57 -147.5t-18.5 -164.5q0 -107 30 -203.5t86 -171.5t144 -119t195 -44z" />
    <glyph glyph-name="Otilde" unicode="&#xd5;" horiz-adv-x="1765" 
d="M743 2007q54 0 101 -27.5t83.5 -54.5t65.5 -27q33 0 51.5 26t18.5 73h194q0 -134 -67 -210.5t-176 -76.5q-46 0 -85.5 17t-62 37.5t-48.5 37.5t-48 17q-31 0 -50.5 -27t-19.5 -72h-192q0 127 65 207t170 80zM885 -33q-183 0 -332 62t-247.5 171.5t-152 257.5t-53.5 320
t53.5 320t152 257.5t247.5 171.5t332 62q182 0 331 -62t247 -171.5t151 -257.5t53 -320t-53 -320t-151 -257.5t-247 -171.5t-331 -62zM883 240q107 0 194.5 44t143.5 119t86 171.5t30 203.5t-30 203.5t-86 172t-143.5 119.5t-194.5 44q-86 0 -160 -29t-127.5 -79.5
t-92 -118.5t-57 -147.5t-18.5 -164.5q0 -107 30 -203.5t86 -171.5t144 -119t195 -44z" />
    <glyph glyph-name="Odieresis" unicode="&#xd6;" horiz-adv-x="1765" 
d="M561 1798v240h242v-240h-242zM961 1798v240h241v-240h-241zM885 -33q-183 0 -332 62t-247.5 171.5t-152 257.5t-53.5 320t53.5 320t152 257.5t247.5 171.5t332 62q182 0 331 -62t247 -171.5t151 -257.5t53 -320t-53 -320t-151 -257.5t-247 -171.5t-331 -62zM883 240
q107 0 194.5 44t143.5 119t86 171.5t30 203.5t-30 203.5t-86 172t-143.5 119.5t-194.5 44q-86 0 -160 -29t-127.5 -79.5t-92 -118.5t-57 -147.5t-18.5 -164.5q0 -107 30 -203.5t86 -171.5t144 -119t195 -44z" />
    <glyph glyph-name="multiply" unicode="&#xd7;" horiz-adv-x="989" 
d="M903 270l-149 -149l-260 260l-258 -260l-150 149l260 258l-258 258l150 150l256 -258l258 258l149 -150l-258 -258z" />
    <glyph glyph-name="Oslash" unicode="&#xd8;" horiz-adv-x="1765" 
d="M1419 1399q121 -110 184.5 -270.5t63.5 -350.5q0 -172 -53 -320t-151 -257.5t-247 -171.5t-331 -62q-183 0 -336 64l-94 -150h-283l176 277q-121 110 -184.5 270t-63.5 350q0 172 53.5 320t152 257.5t247.5 171.5t332 62t334 -63l94 149h282zM428 778q0 -199 94 -344
l539 846q-75 37 -178 37q-86 0 -160 -29t-127.5 -79.5t-92 -118.5t-57 -147.5t-18.5 -164.5zM883 240q107 0 194.5 44t143.5 119t86 171.5t30 203.5q0 196 -94 344l-538 -846q76 -36 178 -36z" />
    <glyph glyph-name="Ugrave" unicode="&#xd9;" horiz-adv-x="1560" 
d="M498 2038h372l222 -359h-256zM801 -33q-146 0 -257 33.5t-182 92t-115.5 147t-62.5 189t-18 226.5v901h305v-792q0 -76 2 -127t9.5 -111t21 -98.5t38 -77.5t59 -61t85 -35.5t115.5 -13.5q51 0 92.5 8.5t73.5 22t56.5 37.5t41 48.5t28.5 62.5t19 71.5t10.5 83t4.5 90.5
t1 100v792h308v-901q0 -129 -18.5 -231t-63.5 -189.5t-116.5 -145t-181.5 -90t-255 -32.5z" />
    <glyph glyph-name="Uacute" unicode="&#xda;" horiz-adv-x="1560" 
d="M1092 2038l-338 -359h-256l221 359h373zM801 -33q-146 0 -257 33.5t-182 92t-115.5 147t-62.5 189t-18 226.5v901h305v-792q0 -76 2 -127t9.5 -111t21 -98.5t38 -77.5t59 -61t85 -35.5t115.5 -13.5q51 0 92.5 8.5t73.5 22t56.5 37.5t41 48.5t28.5 62.5t19 71.5t10.5 83
t4.5 90.5t1 100v792h308v-901q0 -129 -18.5 -231t-63.5 -189.5t-116.5 -145t-181.5 -90t-255 -32.5z" />
    <glyph glyph-name="Ucircumflex" unicode="&#xdb;" horiz-adv-x="1560" 
d="M1202 1679h-235l-170 215l-174 -215h-236l242 359h332zM801 -33q-146 0 -257 33.5t-182 92t-115.5 147t-62.5 189t-18 226.5v901h305v-792q0 -76 2 -127t9.5 -111t21 -98.5t38 -77.5t59 -61t85 -35.5t115.5 -13.5q51 0 92.5 8.5t73.5 22t56.5 37.5t41 48.5t28.5 62.5
t19 71.5t10.5 83t4.5 90.5t1 100v792h308v-901q0 -129 -18.5 -231t-63.5 -189.5t-116.5 -145t-181.5 -90t-255 -32.5z" />
    <glyph glyph-name="Udieresis" unicode="&#xdc;" horiz-adv-x="1560" 
d="M475 1798v240h242v-240h-242zM874 1798v240h242v-240h-242zM801 -33q-146 0 -257 33.5t-182 92t-115.5 147t-62.5 189t-18 226.5v901h305v-792q0 -76 2 -127t9.5 -111t21 -98.5t38 -77.5t59 -61t85 -35.5t115.5 -13.5q51 0 92.5 8.5t73.5 22t56.5 37.5t41 48.5t28.5 62.5
t19 71.5t10.5 83t4.5 90.5t1 100v792h308v-901q0 -129 -18.5 -231t-63.5 -189.5t-116.5 -145t-181.5 -90t-255 -32.5z" />
    <glyph glyph-name="Yacute" unicode="&#xdd;" horiz-adv-x="1464" 
d="M1028 2038l-338 -359h-256l221 359h373zM580 0v543l-541 1013h340l354 -739l352 739h340l-540 -1013v-543h-305z" />
    <glyph glyph-name="Thorn" unicode="&#xde;" horiz-adv-x="1382" 
d="M739 1270q93 0 172.5 -14.5t151 -48.5t121.5 -87t79 -135t29 -186q0 -108 -31 -191.5t-83 -135.5t-126 -86t-153 -47t-172 -13h-254v-326h-307v1556h307v-286h266zM694 602q45 0 79 3t72.5 14.5t62.5 31.5t40.5 56t16.5 86q0 43 -11 76t-32 54t-45.5 35.5t-57 22
t-61.5 10t-64 2.5h-221v-391h221z" />
    <glyph glyph-name="germandbls" unicode="&#xdf;" horiz-adv-x="1476" 
d="M1149 666q134 -72 195 -147t61 -191q0 -164 -110.5 -262.5t-323.5 -98.5q-117 0 -206 30t-143.5 84.5t-83.5 124t-34 154.5h280q14 -85 60 -132.5t117 -47.5q68 0 101.5 40t33.5 102q0 20 -3 37t-11.5 32t-15 26t-23 24t-26.5 20t-34 19.5t-35.5 18t-42.5 20t-45 20.5
q-59 29 -95.5 50.5t-73 52.5t-53.5 68.5t-17 84.5q0 51 21.5 94.5t52 76t61 64.5t52 74t21.5 90q0 72 -50 118t-152 46q-58 0 -100 -17t-63 -40t-33 -59.5t-14.5 -62.5t-2.5 -61v-1118h-303v1128q0 71 15.5 134.5t53.5 124.5t96 105t149 70.5t206 26.5q228 0 370 -97.5
t142 -266.5q0 -62 -20.5 -118.5t-50.5 -96.5t-59.5 -74t-50 -64t-20.5 -53q0 -30 34.5 -55.5t130.5 -75.5q27 -14 42 -22z" />
    <glyph glyph-name="agrave" unicode="&#xe0;" horiz-adv-x="1239" 
d="M313 1556h373l221 -358h-256zM428 -23q-92 0 -162.5 26.5t-112 72t-62.5 101.5t-21 120q0 157 125 248q74 53 196 78.5t318 25.5h63v56q0 87 -41 132.5t-133 45.5q-96 0 -139 -42t-47 -102h-291q2 59 16 109.5t48.5 99.5t87.5 83.5t137 55.5t192 21q237 0 356 -108.5
t119 -364.5v-367q0 -58 10.5 -88.5t40.5 -50.5v-135h-223q-50 19 -82.5 61t-36.5 97h-4q-109 -175 -354 -175zM543 182q57 0 103 17.5t73 44t41 55t14 53.5v129h-74q-325 0 -325 -168q0 -64 44.5 -97.5t123.5 -33.5z" />
    <glyph glyph-name="aacute" unicode="&#xe1;" horiz-adv-x="1239" 
d="M907 1556l-338 -358h-256l222 358h372zM428 -23q-92 0 -162.5 26.5t-112 72t-62.5 101.5t-21 120q0 157 125 248q74 53 196 78.5t318 25.5h63v56q0 87 -41 132.5t-133 45.5q-96 0 -139 -42t-47 -102h-291q2 59 16 109.5t48.5 99.5t87.5 83.5t137 55.5t192 21
q237 0 356 -108.5t119 -364.5v-367q0 -58 10.5 -88.5t40.5 -50.5v-135h-223q-50 19 -82.5 61t-36.5 97h-4q-109 -175 -354 -175zM543 182q57 0 103 17.5t73 44t41 55t14 53.5v129h-74q-325 0 -325 -168q0 -64 44.5 -97.5t123.5 -33.5z" />
    <glyph glyph-name="acircumflex" unicode="&#xe2;" horiz-adv-x="1239" 
d="M1018 1198h-236l-170 215l-174 -215h-235l241 358h332zM428 -23q-92 0 -162.5 26.5t-112 72t-62.5 101.5t-21 120q0 157 125 248q74 53 196 78.5t318 25.5h63v56q0 87 -41 132.5t-133 45.5q-96 0 -139 -42t-47 -102h-291q2 59 16 109.5t48.5 99.5t87.5 83.5t137 55.5
t192 21q237 0 356 -108.5t119 -364.5v-367q0 -58 10.5 -88.5t40.5 -50.5v-135h-223q-50 19 -82.5 61t-36.5 97h-4q-109 -175 -354 -175zM543 182q57 0 103 17.5t73 44t41 55t14 53.5v129h-74q-325 0 -325 -168q0 -64 44.5 -97.5t123.5 -33.5z" />
    <glyph glyph-name="atilde" unicode="&#xe3;" horiz-adv-x="1239" 
d="M473 1526q42 0 81.5 -17t63.5 -37.5t53 -37.5t52 -17q31 0 50.5 26.5t19.5 72.5h192q0 -134 -67 -210.5t-175 -76.5q-46 0 -85.5 17t-62 37t-48.5 37t-49 17q-31 0 -49.5 -26.5t-18.5 -71.5h-194q0 127 65.5 207t171.5 80zM428 -23q-92 0 -162.5 26.5t-112 72
t-62.5 101.5t-21 120q0 157 125 248q74 53 196 78.5t318 25.5h63v56q0 87 -41 132.5t-133 45.5q-96 0 -139 -42t-47 -102h-291q2 59 16 109.5t48.5 99.5t87.5 83.5t137 55.5t192 21q237 0 356 -108.5t119 -364.5v-367q0 -58 10.5 -88.5t40.5 -50.5v-135h-223
q-50 19 -82.5 61t-36.5 97h-4q-109 -175 -354 -175zM543 182q57 0 103 17.5t73 44t41 55t14 53.5v129h-74q-325 0 -325 -168q0 -64 44.5 -97.5t123.5 -33.5z" />
    <glyph glyph-name="adieresis" unicode="&#xe4;" horiz-adv-x="1177" 
d="M250 1317v239h242v-239h-242zM649 1317v239h242v-239h-242zM418 -23q-92 0 -162.5 26.5t-112.5 72t-63 101.5t-21 120q0 157 125 248q144 104 512 104h66v56q0 87 -41 132.5t-133 45.5q-96 0 -139.5 -42.5t-47.5 -101.5h-290q2 59 16 109.5t48.5 99.5t87.5 83.5t137 55.5
t192 21q236 0 355.5 -109t119.5 -364v-367v-139v-129h-293v143h-6q-48 -76 -138 -121t-212 -45zM532 182q57 0 103.5 17.5t73 44t41 55t14.5 53.5v140h-45q-104 0 -181 -17.5t-125 -58.5t-48 -103q0 -65 44.5 -98t122.5 -33z" />
    <glyph glyph-name="aring" unicode="&#xe5;" horiz-adv-x="1239" 
d="M612 1198q-89 0 -142.5 53.5t-53.5 141.5q0 86 53.5 138t142.5 52q88 0 141.5 -52t53.5 -138q0 -88 -53.5 -141.5t-141.5 -53.5zM612 1321q31 0 50.5 19.5t19.5 50.5q0 30 -19.5 48.5t-50.5 18.5q-32 0 -50.5 -18t-18.5 -49t18.5 -50.5t50.5 -19.5zM428 -23
q-92 0 -162.5 26.5t-112 72t-62.5 101.5t-21 120q0 157 125 248q74 53 196 78.5t318 25.5h63v56q0 87 -41 132.5t-133 45.5q-96 0 -139 -42t-47 -102h-291q2 59 16 109.5t48.5 99.5t87.5 83.5t137 55.5t192 21q237 0 356 -108.5t119 -364.5v-367q0 -58 10.5 -88.5
t40.5 -50.5v-135h-223q-50 19 -82.5 61t-36.5 97h-4q-109 -175 -354 -175zM543 182q57 0 103 17.5t73 44t41 55t14 53.5v129h-74q-325 0 -325 -168q0 -64 44.5 -97.5t123.5 -33.5z" />
    <glyph glyph-name="ae" unicode="&#xe6;" horiz-adv-x="1902" 
d="M487 -33q-96 0 -170.5 21t-120 54t-75 78t-40.5 89.5t-11 91.5q0 35 6 68t23.5 70t44.5 68.5t72 61t103.5 50t142.5 33t185 12.5h135q0 51 -7 87t-25.5 68t-56.5 48t-95 16q-95 0 -139 -44t-47 -112h-295q2 62 16.5 114.5t49 103t88 85.5t139 56.5t196.5 21.5
q258 0 367 -133q121 133 344 133q224 0 365 -140t147 -403v-104l-2 -4h-737q12 -117 73 -183.5t162 -66.5q87 0 143.5 47t65.5 121h297q-3 -76 -41.5 -149t-103.5 -131t-161 -93t-206 -35q-130 0 -233.5 47.5t-167.5 124.5q-62 -86 -176 -129t-255 -43zM1092 657h440
q-12 104 -69 157.5t-146 53.5q-96 0 -155 -58t-70 -153zM547 182q114 0 175.5 53t61.5 130v114h-145q-83 0 -140.5 -15.5t-84.5 -42t-38 -52t-11 -54.5q0 -67 48.5 -100t133.5 -33z" />
    <glyph glyph-name="ccedilla" unicode="&#xe7;" horiz-adv-x="1169" 
d="M1098 406q-14 -178 -144.5 -303.5t-339.5 -135.5l-73 -71h39q83 0 133.5 -39.5t50.5 -104.5q0 -78 -66 -122t-200 -44h-117v117h115q42 0 67 12.5t25 34.5q0 19 -25.5 30t-66.5 11h-95v105l74 79q-199 35 -309.5 187.5t-110.5 376.5q0 257 140.5 413t386.5 156
q217 0 358.5 -122.5t155.5 -319.5h-297q-13 99 -68.5 150.5t-142.5 51.5q-110 0 -173 -86t-63 -243t63 -244.5t173 -87.5q84 0 141.5 54t71.5 145h297z" />
    <glyph glyph-name="egrave" unicode="&#xe8;" horiz-adv-x="1169" 
d="M274 1556h373l221 -358h-256zM582 -33q-164 0 -284.5 74t-181.5 202.5t-61 295.5q0 256 139.5 412.5t380.5 156.5q110 0 205 -35.5t165.5 -100.5t110.5 -164.5t40 -221.5v-129h-740q12 -117 73.5 -183.5t162.5 -66.5q82 0 138.5 43t70.5 104h297q-7 -70 -46 -138
t-103 -124t-160 -90.5t-207 -34.5zM358 643h439q0 106 -60.5 165.5t-154.5 59.5q-99 0 -161.5 -59t-62.5 -166z" />
    <glyph glyph-name="eacute" unicode="&#xe9;" horiz-adv-x="1169" 
d="M868 1556l-338 -358h-256l222 358h372zM582 -33q-164 0 -284.5 74t-181.5 202.5t-61 295.5q0 256 139.5 412.5t380.5 156.5q110 0 205 -35.5t165.5 -100.5t110.5 -164.5t40 -221.5v-129h-740q12 -117 73.5 -183.5t162.5 -66.5q82 0 138.5 43t70.5 104h297
q-7 -70 -46 -138t-103 -124t-160 -90.5t-207 -34.5zM358 643h439q0 106 -60.5 165.5t-154.5 59.5q-99 0 -161.5 -59t-62.5 -166z" />
    <glyph glyph-name="ecircumflex" unicode="&#xea;" horiz-adv-x="1169" 
d="M979 1198h-236l-170 215l-174 -215h-235l242 358h331zM582 -33q-164 0 -284.5 74t-181.5 202.5t-61 295.5q0 256 139.5 412.5t380.5 156.5q110 0 205 -35.5t165.5 -100.5t110.5 -164.5t40 -221.5v-129h-740q12 -117 73.5 -183.5t162.5 -66.5q82 0 138.5 43t70.5 104h297
q-7 -70 -46 -138t-103 -124t-160 -90.5t-207 -34.5zM358 643h439q0 106 -60.5 165.5t-154.5 59.5q-99 0 -161.5 -59t-62.5 -166z" />
    <glyph glyph-name="edieresis" unicode="&#xeb;" horiz-adv-x="1169" 
d="M252 1317v239h242v-239h-242zM651 1317v239h242v-239h-242zM582 -33q-164 0 -284.5 74t-181.5 202.5t-61 295.5q0 256 139.5 412.5t380.5 156.5q110 0 205 -35.5t165.5 -100.5t110.5 -164.5t40 -221.5v-129h-740q12 -117 73.5 -183.5t162.5 -66.5q82 0 138.5 43t70.5 104
h297q-7 -70 -46 -138t-103 -124t-160 -90.5t-207 -34.5zM358 643h439q0 106 -60.5 165.5t-154.5 59.5q-99 0 -161.5 -59t-62.5 -166z" />
    <glyph glyph-name="igrave" unicode="&#xec;" horiz-adv-x="598" 
d="M2 1556h373l221 -358h-256zM147 0v1075h304v-1075h-304z" />
    <glyph glyph-name="iacute" unicode="&#xed;" horiz-adv-x="598" 
d="M596 1556l-338 -358h-256l221 358h373zM147 0v1075h304v-1075h-304z" />
    <glyph glyph-name="icircumflex" unicode="&#xee;" horiz-adv-x="598" 
d="M707 1198h-234l-172 215l-174 -215h-236l242 358h332zM147 0v1075h304v-1075h-304z" />
    <glyph glyph-name="idieresis" unicode="&#xef;" horiz-adv-x="598" 
d="M-20 1317v239h241v-239h-241zM379 1317v239h242v-239h-242zM147 0v1075h304v-1075h-304z" />
    <glyph glyph-name="eth" unicode="&#xf0;" horiz-adv-x="1193" 
d="M877 1350q128 -146 195 -331t67 -392q0 -318 -137.5 -489t-393.5 -171q-160 0 -280 73t-183 199.5t-63 288.5q0 246 136 405t335 159q180 0 264 -84q-52 114 -162 235l-239 -115l-97 146l203 94q-96 83 -250 188h349q58 -32 122 -83l185 86l92 -142zM600 205
q108 0 176 87t68 240t-67.5 239.5t-176.5 86.5q-107 0 -167 -87t-60 -239t60 -239.5t167 -87.5z" />
    <glyph glyph-name="ntilde" unicode="&#xf1;" horiz-adv-x="1288" 
d="M498 1526q42 0 81.5 -17t63.5 -37.5t53 -37.5t52 -17q32 0 50.5 26t18.5 73h195q0 -134 -67.5 -210.5t-176.5 -76.5q-46 0 -85.5 17t-62 37t-48.5 37t-48 17q-31 0 -50 -26.5t-19 -71.5h-193q0 127 65.5 207t170.5 80zM111 0v1075h303v-162q117 195 354 195
q187 0 291 -120.5t104 -332.5v-655h-303v547q0 163 -53.5 242t-149.5 79q-105 0 -174 -91t-69 -242v-535h-303z" />
    <glyph glyph-name="ograve" unicode="&#xf2;" horiz-adv-x="1200" 
d="M303 1556h373l221 -358h-256zM602 -33q-248 0 -397.5 160.5t-149.5 411.5q0 253 149 411t398 158q248 0 395.5 -158t147.5 -411q0 -251 -148 -411.5t-395 -160.5zM600 207q112 0 180 87.5t68 244.5q0 155 -68 242t-180 87t-180 -87t-68 -242q0 -157 68 -244.5t180 -87.5z
" />
    <glyph glyph-name="oacute" unicode="&#xf3;" horiz-adv-x="1200" 
d="M897 1556l-338 -358h-256l221 358h373zM602 -33q-248 0 -397.5 160.5t-149.5 411.5q0 253 149 411t398 158q248 0 395.5 -158t147.5 -411q0 -251 -148 -411.5t-395 -160.5zM600 207q112 0 180 87.5t68 244.5q0 155 -68 242t-180 87t-180 -87t-68 -242q0 -157 68 -244.5
t180 -87.5z" />
    <glyph glyph-name="ocircumflex" unicode="&#xf4;" horiz-adv-x="1200" 
d="M1008 1198h-236l-172 215l-174 -215h-233l241 358h332zM602 -33q-248 0 -397.5 160.5t-149.5 411.5q0 253 149 411t398 158q248 0 395.5 -158t147.5 -411q0 -251 -148 -411.5t-395 -160.5zM600 207q112 0 180 87.5t68 244.5q0 155 -68 242t-180 87t-180 -87t-68 -242
q0 -157 68 -244.5t180 -87.5z" />
    <glyph glyph-name="otilde" unicode="&#xf5;" horiz-adv-x="1200" 
d="M461 1526q42 0 81.5 -17t63.5 -37.5t53 -37.5t52 -17q32 0 50.5 26t18.5 73h195q0 -134 -67.5 -210.5t-176.5 -76.5q-46 0 -85.5 17t-62 37t-48.5 37t-48 17q-31 0 -50 -26.5t-19 -71.5h-193q0 127 65.5 207t170.5 80zM602 -33q-248 0 -397.5 160.5t-149.5 411.5
q0 253 149 411t398 158q248 0 395.5 -158t147.5 -411q0 -251 -148 -411.5t-395 -160.5zM600 207q112 0 180 87.5t68 244.5q0 155 -68 242t-180 87t-180 -87t-68 -242q0 -157 68 -244.5t180 -87.5z" />
    <glyph glyph-name="odieresis" unicode="&#xf6;" horiz-adv-x="1200" 
d="M279 1317v239h241v-239h-241zM678 1317v239h242v-239h-242zM602 -33q-248 0 -397.5 160.5t-149.5 411.5q0 253 149 411t398 158q248 0 395.5 -158t147.5 -411q0 -251 -148 -411.5t-395 -160.5zM600 207q112 0 180 87.5t68 244.5q0 155 -68 242t-180 87t-180 -87t-68 -242
q0 -157 68 -244.5t180 -87.5z" />
    <glyph glyph-name="divide" unicode="&#xf7;" horiz-adv-x="1169" 
d="M418 760v295h330v-295h-330zM1053 451h-942v153h942v-153zM418 0v295h330v-295h-330z" />
    <glyph glyph-name="oslash" unicode="&#xf8;" horiz-adv-x="1245" 
d="M1001 963q160 -160 160 -424q0 -251 -148 -411.5t-395 -160.5q-119 0 -212 37l-146 -233h-205l201 323q-88 77 -136 192.5t-48 252.5q0 253 148.5 411t397.5 158q134 0 240 -47l127 203h205zM369 539q0 -121 41 -201l313 506q-47 24 -107 24q-112 0 -179.5 -86.5
t-67.5 -242.5zM616 207q112 0 180 87.5t68 244.5q0 93 -24 161l-301 -481q37 -12 77 -12z" />
    <glyph glyph-name="ugrave" unicode="&#xf9;" horiz-adv-x="1259" 
d="M326 1556h372l222 -358h-256zM489 -33q-191 0 -292 117.5t-101 345.5v645h303v-557q0 -311 197 -311q112 0 181 91t69 245v532h303v-1075h-303v172q-116 -205 -357 -205z" />
    <glyph glyph-name="uacute" unicode="&#xfa;" horiz-adv-x="1259" 
d="M920 1556l-338 -358h-256l221 358h373zM489 -33q-191 0 -292 117.5t-101 345.5v645h303v-557q0 -311 197 -311q112 0 181 91t69 245v532h303v-1075h-303v172q-116 -205 -357 -205z" />
    <glyph glyph-name="ucircumflex" unicode="&#xfb;" horiz-adv-x="1259" 
d="M1030 1198h-233l-172 215l-174 -215h-236l242 358h331zM489 -33q-191 0 -292 117.5t-101 345.5v645h303v-557q0 -311 197 -311q112 0 181 91t69 245v532h303v-1075h-303v172q-116 -205 -357 -205z" />
    <glyph glyph-name="udieresis" unicode="&#xfc;" horiz-adv-x="1259" 
d="M303 1317v239h242v-239h-242zM702 1317v239h242v-239h-242zM489 -33q-191 0 -292 117.5t-101 345.5v645h303v-557q0 -311 197 -311q112 0 181 91t69 245v532h303v-1075h-303v172q-116 -205 -357 -205z" />
    <glyph glyph-name="yacute" unicode="&#xfd;" horiz-adv-x="1148" 
d="M870 1556l-338 -358h-256l222 358h372zM244 -492l180 494l-408 1073h314l209 -663l34 -105h5l32 105l209 663h314l-381 -1001l-203 -566h-305z" />
    <glyph glyph-name="thorn" unicode="&#xfe;" horiz-adv-x="1255" 
d="M733 1108q211 0 339 -156t128 -411q0 -258 -129 -416t-340 -158q-91 0 -178 43t-139 113v-615h-303v2048h297v-614q58 76 146 121t179 45zM659 209q110 0 177 90t67 238q0 150 -67 240.5t-179 90.5q-109 0 -176 -80.5t-67 -212.5v-86q0 -127 67 -203.5t178 -76.5z" />
    <glyph glyph-name="ydieresis" unicode="&#xff;" horiz-adv-x="1148" 
d="M254 1317v239h242v-239h-242zM653 1317v239h242v-239h-242zM244 -492l180 494l-408 1073h314l209 -663l34 -105h5l32 105l209 663h314l-381 -1001l-203 -566h-305z" />
    <glyph glyph-name="Amacron" unicode="&#x100;" horiz-adv-x="1638" 
d="M1184 1735h-727v221h727v-221zM45 0l617 1556h317l614 -1556h-336l-133 367h-608l-135 -367h-336zM614 649h410l-205 555z" />
    <glyph glyph-name="amacron" unicode="&#x101;" horiz-adv-x="1239" 
d="M977 1253h-729v222h729v-222zM428 -23q-92 0 -162.5 26.5t-112 72t-62.5 101.5t-21 120q0 157 125 248q74 53 196 78.5t318 25.5h63v56q0 87 -41 132.5t-133 45.5q-96 0 -139 -42t-47 -102h-291q2 59 16 109.5t48.5 99.5t87.5 83.5t137 55.5t192 21q237 0 356 -108.5
t119 -364.5v-367q0 -58 10.5 -88.5t40.5 -50.5v-135h-223q-50 19 -82.5 61t-36.5 97h-4q-109 -175 -354 -175zM543 182q57 0 103 17.5t73 44t41 55t14 53.5v129h-74q-325 0 -325 -168q0 -64 44.5 -97.5t123.5 -33.5z" />
    <glyph glyph-name="Abreve" unicode="&#x102;" horiz-adv-x="1638" 
d="M1004 2038h223q0 -162 -112 -260.5t-296 -98.5q-183 0 -295 99t-112 260h223q0 -82 50.5 -131t133.5 -49t134 49t51 131zM45 0l617 1556h317l614 -1556h-336l-133 367h-608l-135 -367h-336zM614 649h410l-205 555z" />
    <glyph glyph-name="abreve" unicode="&#x103;" horiz-adv-x="1239" 
d="M795 1556h223q0 -161 -111.5 -259.5t-294.5 -98.5t-296 98.5t-113 259.5h223q0 -82 50.5 -131t135.5 -49q83 0 133 49t50 131zM428 -23q-92 0 -162.5 26.5t-112 72t-62.5 101.5t-21 120q0 157 125 248q74 53 196 78.5t318 25.5h63v56q0 87 -41 132.5t-133 45.5
q-96 0 -139 -42t-47 -102h-291q2 59 16 109.5t48.5 99.5t87.5 83.5t137 55.5t192 21q237 0 356 -108.5t119 -364.5v-367q0 -58 10.5 -88.5t40.5 -50.5v-135h-223q-50 19 -82.5 61t-36.5 97h-4q-109 -175 -354 -175zM543 182q57 0 103 17.5t73 44t41 55t14 53.5v129h-74
q-325 0 -325 -168q0 -64 44.5 -97.5t123.5 -33.5z" />
    <glyph glyph-name="Aogonek" unicode="&#x104;" horiz-adv-x="1638" 
d="M1280 -195q0 -81 135 -81q35 0 62 4v-146q-41 -6 -97 -6q-133 0 -194.5 53.5t-61.5 134.5q0 39 16 76.5t45 68.5t51 50t52 41h-31l-133 367h-608l-135 -367h-336l617 1556h317l614 -1556h-182q-131 -112 -131 -195zM614 649h410l-205 555z" />
    <glyph glyph-name="aogonek" unicode="&#x105;" horiz-adv-x="1239" 
d="M1032 -6q-125 -109 -125 -191q0 -79 135 -79q35 0 62 4v-148q-40 -6 -96 -6q-132 0 -194 54.5t-62 135.5q0 110 157 230h-4q-50 19 -82.5 61t-36.5 97h-4q-109 -175 -354 -175q-92 0 -162.5 26.5t-112 72t-62.5 101.5t-21 120q0 157 125 248q74 53 196 78.5t318 25.5h63
v56q0 87 -41 132.5t-133 45.5q-96 0 -139 -42t-47 -102h-291q2 59 16 109.5t48.5 99.5t87.5 83.5t137 55.5t192 21q237 0 356 -108.5t119 -364.5v-367q0 -58 10.5 -88.5t40.5 -50.5v-135h-96zM774 352v129h-74q-325 0 -325 -168q0 -64 44.5 -97.5t123.5 -33.5q57 0 103 17.5
t73 44t41 55t14 53.5z" />
    <glyph glyph-name="Cacute" unicode="&#x106;" horiz-adv-x="1712" 
d="M1151 2038l-338 -359h-256l221 359h373zM864 -33q-182 0 -328.5 61.5t-241 169.5t-144.5 253.5t-50 316.5q0 177 53.5 328t151 260t244.5 171t325 62q160 0 295.5 -51.5t228.5 -139.5t150.5 -203t71.5 -245h-326q-29 158 -143.5 262.5t-288.5 104.5q-138 0 -238.5 -72.5
t-149 -193t-48.5 -275.5q0 -154 49 -273.5t149.5 -191t239.5 -71.5q175 0 287.5 105t142.5 263h326q-15 -133 -72 -248.5t-150.5 -203.5t-231 -138.5t-302.5 -50.5z" />
    <glyph glyph-name="cacute" unicode="&#x107;" horiz-adv-x="1169" 
d="M868 1556l-338 -358h-256l222 358h372zM582 -33q-246 0 -386.5 159t-140.5 413q0 257 140.5 413t386.5 156q217 0 358.5 -122.5t155.5 -319.5h-297q-13 99 -68.5 150.5t-142.5 51.5q-110 0 -173 -86t-63 -243t63 -244.5t173 -87.5q84 0 141.5 54t71.5 145h297
q-7 -89 -45.5 -168t-103.5 -139.5t-160 -96t-207 -35.5z" />
    <glyph glyph-name="Cdotaccent" unicode="&#x10a;" horiz-adv-x="1712" 
d="M854 1716q-73 0 -126.5 52.5t-53.5 127.5q0 72 54 123.5t126 51.5t126 -51.5t54 -123.5q0 -75 -53.5 -127.5t-126.5 -52.5zM864 -33q-182 0 -328.5 61.5t-241 169.5t-144.5 253.5t-50 316.5q0 177 53.5 328t151 260t244.5 171t325 62q160 0 295.5 -51.5t228.5 -139.5
t150.5 -203t71.5 -245h-326q-29 158 -143.5 262.5t-288.5 104.5q-138 0 -238.5 -72.5t-149 -193t-48.5 -275.5q0 -154 49 -273.5t149.5 -191t239.5 -71.5q175 0 287.5 105t142.5 263h326q-15 -133 -72 -248.5t-150.5 -203.5t-231 -138.5t-302.5 -50.5z" />
    <glyph glyph-name="cdotaccent" unicode="&#x10b;" horiz-adv-x="1169" 
d="M571 1235q-73 0 -125.5 52t-52.5 128q0 72 53 123t125 51q74 0 127.5 -51t53.5 -123q0 -76 -53.5 -128t-127.5 -52zM582 -33q-246 0 -386.5 159t-140.5 413q0 257 140.5 413t386.5 156q217 0 358.5 -122.5t155.5 -319.5h-297q-13 99 -68.5 150.5t-142.5 51.5
q-110 0 -173 -86t-63 -243t63 -244.5t173 -87.5q84 0 141.5 54t71.5 145h297q-7 -89 -45.5 -168t-103.5 -139.5t-160 -96t-207 -35.5z" />
    <glyph glyph-name="Ccaron" unicode="&#x10c;" horiz-adv-x="1712" 
d="M1262 2038l-242 -359h-332l-242 359h236l172 -215l172 215h236zM864 -33q-182 0 -328.5 61.5t-241 169.5t-144.5 253.5t-50 316.5q0 177 53.5 328t151 260t244.5 171t325 62q160 0 295.5 -51.5t228.5 -139.5t150.5 -203t71.5 -245h-326q-29 158 -143.5 262.5
t-288.5 104.5q-138 0 -238.5 -72.5t-149 -193t-48.5 -275.5q0 -154 49 -273.5t149.5 -191t239.5 -71.5q175 0 287.5 105t142.5 263h326q-15 -133 -72 -248.5t-150.5 -203.5t-231 -138.5t-302.5 -50.5z" />
    <glyph glyph-name="ccaron" unicode="&#x10d;" horiz-adv-x="1169" 
d="M979 1556l-242 -358h-331l-242 358h235l174 -215l170 215h236zM582 -33q-246 0 -386.5 159t-140.5 413q0 257 140.5 413t386.5 156q217 0 358.5 -122.5t155.5 -319.5h-297q-13 99 -68.5 150.5t-142.5 51.5q-110 0 -173 -86t-63 -243t63 -244.5t173 -87.5q84 0 141.5 54
t71.5 145h297q-7 -89 -45.5 -168t-103.5 -139.5t-160 -96t-207 -35.5z" />
    <glyph glyph-name="Dcaron" unicode="&#x10e;" horiz-adv-x="1609" 
d="M1200 2038l-242 -359h-331l-242 359h236l174 -215l170 215h235zM799 0h-633v1556h637q177 0 307 -42t223.5 -133t140 -240.5t46.5 -358.5q0 -409 -178 -596.5t-543 -185.5zM471 272h285q111 0 189 24t136 80.5t85.5 156t27.5 245.5q0 275 -103.5 390.5t-334.5 115.5h-285
v-1012z" />
    <glyph glyph-name="dcaron" unicode="&#x10f;" horiz-adv-x="1320" 
d="M874 1556h304v-1556h-297v123q-50 -70 -141 -113t-183 -43q-211 0 -340 158t-129 416q0 255 128.5 411t340.5 156q90 0 175 -44.5t142 -121.5v614zM1690 1556l-215 -358h-236l98 358h353zM874 502v86q0 126 -66.5 202t-176.5 76q-111 0 -178.5 -89t-67.5 -236
q0 -151 67.5 -241.5t180.5 -90.5q109 0 175 80t66 213z" />
    <glyph glyph-name="Dcroat" unicode="&#x110;" horiz-adv-x="1609" 
d="M803 1556q177 0 307 -42t223.5 -133t140 -240.5t46.5 -358.5q0 -409 -178 -596.5t-543 -185.5h-633v662h-121v231h121v663h637zM756 272q111 0 189 24t136 80.5t85.5 156t27.5 245.5q0 275 -103.5 390.5t-334.5 115.5h-285v-391h303v-231h-303v-390h285z" />
    <glyph glyph-name="dcroat" unicode="&#x111;" horiz-adv-x="1277" 
d="M1391 1378v-231h-220v-1147h-297v123q-52 -70 -142 -113t-181 -43q-211 0 -340 158t-129 416q0 255 128.5 411t340.5 156q90 0 174 -44.5t143 -121.5v205h-206v231h206v178h303v-178h220zM868 502v86q0 126 -66.5 202t-176.5 76q-111 0 -178.5 -89t-67.5 -236
q0 -151 67.5 -241.5t180.5 -90.5q109 0 175 80t66 213z" />
    <glyph glyph-name="Emacron" unicode="&#x112;" horiz-adv-x="1466" 
d="M1098 1735h-727v221h727v-221zM469 303h834v-303h-1137v1556h1102v-303h-799v-313h727v-283h-727v-354z" />
    <glyph glyph-name="emacron" unicode="&#x113;" horiz-adv-x="1169" 
d="M936 1253h-727v222h727v-222zM582 -33q-164 0 -284.5 74t-181.5 202.5t-61 295.5q0 256 139.5 412.5t380.5 156.5q110 0 205 -35.5t165.5 -100.5t110.5 -164.5t40 -221.5v-129h-740q12 -117 73.5 -183.5t162.5 -66.5q82 0 138.5 43t70.5 104h297q-7 -70 -46 -138
t-103 -124t-160 -90.5t-207 -34.5zM358 643h439q0 106 -60.5 165.5t-154.5 59.5q-99 0 -161.5 -59t-62.5 -166z" />
    <glyph glyph-name="Edotaccent" unicode="&#x116;" horiz-adv-x="1466" 
d="M733 1716q-73 0 -125.5 52t-52.5 128q0 72 53 123.5t125 51.5q74 0 127 -51.5t53 -123.5q0 -76 -53 -128t-127 -52zM469 303h834v-303h-1137v1556h1102v-303h-799v-313h727v-283h-727v-354z" />
    <glyph glyph-name="edotaccent" unicode="&#x117;" horiz-adv-x="1169" 
d="M571 1235q-73 0 -125.5 52t-52.5 128q0 72 53 123t125 51q74 0 127.5 -51t53.5 -123q0 -76 -53.5 -128t-127.5 -52zM582 -33q-164 0 -284.5 74t-181.5 202.5t-61 295.5q0 256 139.5 412.5t380.5 156.5q110 0 205 -35.5t165.5 -100.5t110.5 -164.5t40 -221.5v-129h-740
q12 -117 73.5 -183.5t162.5 -66.5q82 0 138.5 43t70.5 104h297q-7 -70 -46 -138t-103 -124t-160 -90.5t-207 -34.5zM358 643h439q0 106 -60.5 165.5t-154.5 59.5q-99 0 -161.5 -59t-62.5 -166z" />
    <glyph glyph-name="Eogonek" unicode="&#x118;" horiz-adv-x="1466" 
d="M1260 -276q34 0 61 4v-146q-41 -6 -96 -6q-134 0 -196 53.5t-62 134.5q0 117 163 236h-964v1556h1102v-303h-799v-313h727v-283h-727v-354h834v-303h-48q-131 -112 -131 -195q0 -81 136 -81z" />
    <glyph glyph-name="eogonek" unicode="&#x119;" horiz-adv-x="1202" 
d="M645 -31q-98 -93 -98 -164q0 -81 135 -81q34 0 61 4v-146q-41 -6 -96 -6q-134 0 -196 53.5t-62 134.5q0 106 127 207q-217 21 -339 176.5t-122 391.5q0 256 139.5 412.5t380.5 156.5q110 0 205 -35.5t165.5 -100.5t110.5 -164.5t40 -221.5v-129h-740q12 -117 73.5 -183.5
t162.5 -66.5q82 0 138.5 43t70.5 104h297q-6 -65 -40 -129t-90.5 -117.5t-140.5 -91t-182 -47.5zM582 868q-99 0 -161.5 -59t-62.5 -166h439q0 106 -60.5 165.5t-154.5 59.5z" />
    <glyph glyph-name="Ecaron" unicode="&#x11a;" horiz-adv-x="1466" 
d="M1141 2038l-242 -359h-332l-241 359h235l172 -215l172 215h236zM469 303h834v-303h-1137v1556h1102v-303h-799v-313h727v-283h-727v-354z" />
    <glyph glyph-name="ecaron" unicode="&#x11b;" horiz-adv-x="1169" 
d="M979 1556l-242 -358h-331l-242 358h235l174 -215l170 215h236zM582 -33q-164 0 -284.5 74t-181.5 202.5t-61 295.5q0 256 139.5 412.5t380.5 156.5q110 0 205 -35.5t165.5 -100.5t110.5 -164.5t40 -221.5v-129h-740q12 -117 73.5 -183.5t162.5 -66.5q82 0 138.5 43
t70.5 104h297q-7 -70 -46 -138t-103 -124t-160 -90.5t-207 -34.5zM358 643h439q0 106 -60.5 165.5t-154.5 59.5q-99 0 -161.5 -59t-62.5 -166z" />
    <glyph glyph-name="Gbreve" unicode="&#x11e;" horiz-adv-x="1746" 
d="M1075 2038h223q0 -161 -112 -260t-295 -99t-295.5 99t-112.5 260h222q0 -81 51 -130.5t135 -49.5q83 0 133.5 49t50.5 131zM936 -33q-386 0 -611 221.5t-225 593.5q0 184 56.5 335.5t157.5 255t244.5 160t315.5 56.5q199 0 361.5 -72.5t263 -201t121.5 -293.5h-326
q-36 133 -146 214t-271 81q-207 0 -329 -143t-122 -392q0 -251 134 -396.5t378 -145.5q117 0 227 40t166 113v185h-514v262h803v-541q-92 -150 -279.5 -241t-404.5 -91z" />
    <glyph glyph-name="gbreve" unicode="&#x11f;" horiz-adv-x="1255" 
d="M799 1556h223q0 -161 -111.5 -259.5t-294.5 -98.5q-184 0 -296.5 98.5t-112.5 259.5h223q0 -82 50.5 -131t135.5 -49q82 0 132.5 49.5t50.5 130.5zM842 1075h303v-932q0 -342 -123 -488.5t-387 -146.5q-230 0 -367.5 98t-171.5 288h293q19 -74 79 -115t150 -41
q118 0 169.5 74t54.5 245v76q-116 -166 -318 -166q-212 0 -340.5 160.5t-128.5 417.5q0 161 52.5 287.5t157.5 201t247 74.5q218 0 330 -174v141zM842 502v86q0 132 -69.5 205t-176.5 73q-115 0 -182.5 -85t-67.5 -240q0 -158 68.5 -245t183.5 -87q108 0 176 76t68 217z" />
    <glyph glyph-name="Gdotaccent" unicode="&#x120;" horiz-adv-x="1746" 
d="M891 1716q-73 0 -126.5 52.5t-53.5 127.5q0 72 54 123.5t126 51.5t126 -51.5t54 -123.5q0 -75 -53.5 -127.5t-126.5 -52.5zM936 -33q-386 0 -611 221.5t-225 593.5q0 184 56.5 335.5t157.5 255t244.5 160t315.5 56.5q199 0 361.5 -72.5t263 -201t121.5 -293.5h-326
q-36 133 -146 214t-271 81q-207 0 -329 -143t-122 -392q0 -251 134 -396.5t378 -145.5q117 0 227 40t166 113v185h-514v262h803v-541q-92 -150 -279.5 -241t-404.5 -91z" />
    <glyph glyph-name="gdotaccent" unicode="&#x121;" horiz-adv-x="1255" 
d="M614 1235q-73 0 -125.5 52t-52.5 128q0 72 53 123t125 51q74 0 127.5 -51t53.5 -123q0 -76 -53.5 -128t-127.5 -52zM842 1075h303v-932q0 -342 -123 -488.5t-387 -146.5q-230 0 -367.5 98t-171.5 288h293q19 -74 79 -115t150 -41q118 0 169.5 74t54.5 245v76
q-116 -166 -318 -166q-212 0 -340.5 160.5t-128.5 417.5q0 161 52.5 287.5t157.5 201t247 74.5q218 0 330 -174v141zM842 502v86q0 132 -69.5 205t-176.5 73q-115 0 -182.5 -85t-67.5 -240q0 -158 68.5 -245t183.5 -87q108 0 176 76t68 217z" />
    <glyph glyph-name="Gcommaaccent" unicode="&#x122;" horiz-adv-x="1746" 
d="M936 -33q-386 0 -611 221.5t-225 593.5q0 184 56.5 335.5t157.5 255t244.5 160t315.5 56.5q199 0 361.5 -72.5t263 -201t121.5 -293.5h-326q-36 133 -146 214t-271 81q-207 0 -329 -143t-122 -392q0 -251 134 -396.5t378 -145.5q117 0 227 40t166 113v185h-514v262h803
v-541q-92 -150 -279.5 -241t-404.5 -91zM715 -492l69 349h285l-129 -349h-225z" />
    <glyph glyph-name="gcommaaccent" unicode="&#x123;" horiz-adv-x="1255" 
d="M760 1829l-119 -316h139v-313h-329v313l151 316h158zM842 1075h303v-932q0 -342 -123 -488.5t-387 -146.5q-230 0 -367.5 98t-171.5 288h293q19 -74 79 -115t150 -41q118 0 169.5 74t54.5 245v76q-116 -166 -318 -166q-212 0 -340.5 160.5t-128.5 417.5q0 161 52.5 287.5
t157.5 201t247 74.5q218 0 330 -174v141zM842 502v86q0 132 -69.5 205t-176.5 73q-115 0 -182.5 -85t-67.5 -240q0 -158 68.5 -245t183.5 -87q108 0 176 76t68 217z" />
    <glyph glyph-name="Hbar" unicode="&#x126;" horiz-adv-x="1599" 
d="M1524 1298v-231h-88v-1067h-308v647h-657v-647h-305v1067h-92v231h92v258h305v-258h657v258h308v-258h88zM1128 940v127h-657v-127h657z" />
    <glyph glyph-name="hbar" unicode="&#x127;" horiz-adv-x="1269" 
d="M768 1108q188 0 291.5 -115.5t103.5 -326.5v-666h-303v547q0 163 -53.5 242t-149.5 79q-105 0 -174 -91t-69 -242v-535h-303v1165h-113v232h113v159h303v-159h313v-232h-313v-252q117 195 354 195z" />
    <glyph glyph-name="Imacron" unicode="&#x12a;" horiz-adv-x="595" 
d="M662 1735h-728v221h728v-221zM145 0v1556h306v-1556h-306z" />
    <glyph glyph-name="imacron" unicode="&#x12b;" horiz-adv-x="598" 
d="M666 1253h-729v222h729v-222zM147 0v1075h304v-1075h-304z" />
    <glyph glyph-name="Iogonek" unicode="&#x12e;" horiz-adv-x="595" 
d="M430 -276q35 0 62 4v-146q-40 -6 -97 -6q-133 0 -194.5 53.5t-61.5 134.5q0 39 16 76.5t45 68.5t51 50t52 41h-158v1556h306v-1556h-25q-131 -112 -131 -195q0 -81 135 -81z" />
    <glyph glyph-name="iogonek" unicode="&#x12f;" horiz-adv-x="636" 
d="M209 1556h317v-288h-317v288zM217 0v1075h303v-1075h-123q-131 -112 -131 -195q0 -81 135 -81q35 0 62 4v-146q-40 -6 -96 -6q-133 0 -194.5 53.5t-61.5 134.5q0 117 163 236h-57z" />
    <glyph glyph-name="Idotaccent" unicode="&#x130;" horiz-adv-x="595" 
d="M297 1716q-73 0 -125.5 52t-52.5 128q0 72 53 123.5t125 51.5q74 0 127 -51.5t53 -123.5q0 -76 -53 -128t-127 -52zM145 0v1556h306v-1556h-306z" />
    <glyph glyph-name="dotlessi" unicode="&#x131;" horiz-adv-x="598" 
d="M147 0v1075h304v-1075h-304z" />
    <glyph glyph-name="Kcommaaccent" unicode="&#x136;" horiz-adv-x="1435" 
d="M727 788l666 -788h-375l-547 664v-664h-305v1556h305v-645l512 645h373zM510 -492l70 349h284l-129 -349h-225z" />
    <glyph glyph-name="kcommaaccent" unicode="&#x137;" horiz-adv-x="1028" 
d="M664 539l348 -537h-307l-291 399v-401h-303v1556h303v-942l270 461h307zM315 -492l70 349h285l-129 -349h-226z" />
    <glyph glyph-name="Lacute" unicode="&#x139;" horiz-adv-x="1271" 
d="M926 2038l-338 -359h-256l221 359h373zM469 303h778v-303h-1081v1556h303v-1253z" />
    <glyph glyph-name="lacute" unicode="&#x13a;" horiz-adv-x="524" 
d="M559 1995l-338 -359h-256l221 359h373zM111 0v1556h303v-1556h-303z" />
    <glyph glyph-name="Lcommaaccent" unicode="&#x13b;" horiz-adv-x="1271" 
d="M469 303h778v-303h-1081v1556h303v-1253zM453 -492l69 349h285l-129 -349h-225z" />
    <glyph glyph-name="lcommaaccent" unicode="&#x13c;" horiz-adv-x="524" 
d="M111 0v1556h303v-1556h-303zM82 -492l70 349h284l-129 -349h-225z" />
    <glyph glyph-name="Lcaron" unicode="&#x13d;" horiz-adv-x="1347" 
d="M469 303h778v-303h-1081v1556h303v-1253zM1323 1556l-215 -358h-238l99 358h354z" />
    <glyph glyph-name="lcaron" unicode="&#x13e;" horiz-adv-x="669" 
d="M139 0v1556h303v-1556h-303zM997 1556l-215 -358h-235l98 358h352z" />
    <glyph glyph-name="Lslash" unicode="&#x141;" horiz-adv-x="1271" 
d="M469 303h778v-303h-1081v655l-182 -120v323l182 121v577h303v-374l209 139v-324l-209 -139v-555z" />
    <glyph glyph-name="lslash" unicode="&#x142;" horiz-adv-x="524" 
d="M618 1163v-323l-204 -138v-702h-303v500l-185 -123v323l185 123v733h303v-530z" />
    <glyph glyph-name="Nacute" unicode="&#x143;" horiz-adv-x="1599" 
d="M1092 2038l-338 -359h-256l221 359h373zM166 0v1556h295l667 -1056v1056h308v-1556h-306l-659 1020v-1020h-305z" />
    <glyph glyph-name="nacute" unicode="&#x144;" horiz-adv-x="1288" 
d="M934 1556l-338 -358h-256l221 358h373zM111 0v1075h303v-162q117 195 354 195q187 0 291 -120.5t104 -332.5v-655h-303v547q0 163 -53.5 242t-149.5 79q-105 0 -174 -91t-69 -242v-535h-303z" />
    <glyph glyph-name="Ncommaaccent" unicode="&#x145;" horiz-adv-x="1599" 
d="M166 0v1556h295l667 -1056v1056h308v-1556h-306l-659 1020v-1020h-305zM618 -492l70 349h285l-129 -349h-226z" />
    <glyph glyph-name="ncommaaccent" unicode="&#x146;" horiz-adv-x="1288" 
d="M111 0v1075h303v-162q117 195 354 195q187 0 291 -120.5t104 -332.5v-655h-303v547q0 163 -53.5 242t-149.5 79q-105 0 -174 -91t-69 -242v-535h-303zM461 -492l69 349h285l-129 -349h-225z" />
    <glyph glyph-name="Ncaron" unicode="&#x147;" horiz-adv-x="1599" 
d="M1202 2038l-241 -359h-332l-242 359h236l174 -215l170 215h235zM166 0v1556h295l667 -1056v1056h308v-1556h-306l-659 1020v-1020h-305z" />
    <glyph glyph-name="ncaron" unicode="&#x148;" horiz-adv-x="1288" 
d="M1044 1556l-241 -358h-332l-242 358h236l172 -215l172 215h235zM111 0v1075h303v-162q117 195 354 195q187 0 291 -120.5t104 -332.5v-655h-303v547q0 163 -53.5 242t-149.5 79q-105 0 -174 -91t-69 -242v-535h-303z" />
    <glyph glyph-name="Eng" unicode="&#x14a;" horiz-adv-x="1599" 
d="M1008 -492q-101 0 -181.5 25.5t-129.5 65t-83.5 95t-50 106.5t-22.5 108h309q1 -26 6.5 -49.5t19 -52t44 -45.5t73.5 -17q36 0 62.5 13.5t41 34.5t23.5 55.5t11.5 67t3.5 77.5l-662 1028v-1020h-307v1556h297l663 -1056v1056h310v-1556q0 -83 -10 -149.5t-38 -132.5
t-74.5 -110.5t-124 -72t-181.5 -27.5z" />
    <glyph glyph-name="eng" unicode="&#x14b;" horiz-adv-x="1288" 
d="M811 -492q-54 0 -99 3t-63 7l-18 3v225q22 -6 65 -6q86 0 125 33.5t39 103.5v680q0 311 -196 311q-110 0 -180 -90.5t-70 -242.5v-535h-303v1075h303v-162q119 195 358 195q188 0 289 -117t102 -344v-811q0 -80 -17.5 -138.5t-57 -102t-109 -65.5t-168.5 -22z" />
    <glyph glyph-name="Omacron" unicode="&#x14c;" horiz-adv-x="1765" 
d="M1247 1735h-729v221h729v-221zM885 -33q-183 0 -332 62t-247.5 171.5t-152 257.5t-53.5 320t53.5 320t152 257.5t247.5 171.5t332 62q182 0 331 -62t247 -171.5t151 -257.5t53 -320t-53 -320t-151 -257.5t-247 -171.5t-331 -62zM883 240q107 0 194.5 44t143.5 119
t86 171.5t30 203.5t-30 203.5t-86 172t-143.5 119.5t-194.5 44q-86 0 -160 -29t-127.5 -79.5t-92 -118.5t-57 -147.5t-18.5 -164.5q0 -107 30 -203.5t86 -171.5t144 -119t195 -44z" />
    <glyph glyph-name="omacron" unicode="&#x14d;" horiz-adv-x="1200" 
d="M965 1253h-729v222h729v-222zM602 -33q-248 0 -397.5 160.5t-149.5 411.5q0 253 149 411t398 158q248 0 395.5 -158t147.5 -411q0 -251 -148 -411.5t-395 -160.5zM600 207q112 0 180 87.5t68 244.5q0 155 -68 242t-180 87t-180 -87t-68 -242q0 -157 68 -244.5t180 -87.5z
" />
    <glyph glyph-name="Ohungarumlaut" unicode="&#x150;" horiz-adv-x="1765" 
d="M911 2038l-338 -359h-256l222 359h372zM1446 2038l-338 -359h-256l221 359h373zM885 -33q-183 0 -332 62t-247.5 171.5t-152 257.5t-53.5 320t53.5 320t152 257.5t247.5 171.5t332 62q182 0 331 -62t247 -171.5t151 -257.5t53 -320t-53 -320t-151 -257.5t-247 -171.5
t-331 -62zM883 240q107 0 194.5 44t143.5 119t86 171.5t30 203.5t-30 203.5t-86 172t-143.5 119.5t-194.5 44q-86 0 -160 -29t-127.5 -79.5t-92 -118.5t-57 -147.5t-18.5 -164.5q0 -107 30 -203.5t86 -171.5t144 -119t195 -44z" />
    <glyph glyph-name="ohungarumlaut" unicode="&#x151;" horiz-adv-x="1200" 
d="M629 1556l-338 -358h-256l221 358h373zM1163 1556l-338 -358h-256l222 358h372zM602 -33q-248 0 -397.5 160.5t-149.5 411.5q0 253 149 411t398 158q248 0 395.5 -158t147.5 -411q0 -251 -148 -411.5t-395 -160.5zM600 207q112 0 180 87.5t68 244.5q0 155 -68 242
t-180 87t-180 -87t-68 -242q0 -157 68 -244.5t180 -87.5z" />
    <glyph glyph-name="OE" unicode="&#x152;" horiz-adv-x="2650" 
d="M883 -33q-183 0 -332 62t-247 171.5t-151 257.5t-53 320t53 320t151 257.5t247 171.5t332 62q287 0 465 -172v142h1101v-304h-796v-303h727v-303h-727v-346h831v-301h-1136v139q-177 -174 -465 -174zM883 240q107 0 194.5 44t143 119t85 171.5t29.5 203.5
q0 85 -18.5 164.5t-56 147.5t-90.5 118.5t-127 79.5t-160 29t-160 -29t-127.5 -79.5t-92 -118.5t-57 -147.5t-18.5 -164.5q0 -107 30 -203.5t86 -171.5t144 -119t195 -44z" />
    <glyph glyph-name="oe" unicode="&#x153;" horiz-adv-x="1982" 
d="M610 -33q-169 0 -296 74.5t-193 203.5t-66 294q0 254 150.5 411.5t406.5 157.5q254 0 400 -162q140 162 381 162q109 0 201.5 -34.5t162 -101t109.5 -170.5t43 -237v-104l-2 -4h-738q14 -118 74.5 -184t161.5 -66q88 0 144 47t65 121h297q-3 -77 -41.5 -150t-104 -130.5
t-162.5 -92.5t-208 -35q-242 0 -383 164q-148 -164 -402 -164zM610 207q120 0 189 87t69 245q0 157 -69 243t-189 86t-189 -86t-69 -243q0 -158 69 -245t189 -87zM1174 647h438q-12 110 -68 165.5t-145 55.5q-98 0 -157 -59.5t-68 -161.5z" />
    <glyph glyph-name="Racute" unicode="&#x154;" horiz-adv-x="1406" 
d="M991 2038l-338 -359h-256l221 359h373zM166 0v1556h584q251 0 396.5 -116.5t145.5 -335.5q0 -172 -108.5 -293.5t-290.5 -144.5q-58 -7 -80 -7l567 -659h-372l-537 637v-637h-305zM471 897h246q107 0 180.5 48t73.5 145t-72.5 148.5t-196.5 51.5h-231v-393z" />
    <glyph glyph-name="racute" unicode="&#x155;" horiz-adv-x="804" 
d="M692 1556l-338 -358h-256l221 358h373zM111 0v1075h292v-192q68 132 183 184q76 35 207 35v-305h-33q-167 0 -256.5 -101t-89.5 -272v-424h-303z" />
    <glyph glyph-name="Rcommaaccent" unicode="&#x156;" horiz-adv-x="1406" 
d="M166 0v1556h584q251 0 396.5 -116.5t145.5 -335.5q0 -172 -108.5 -293.5t-290.5 -144.5q-58 -7 -80 -7l567 -659h-372l-537 637v-637h-305zM471 897h246q107 0 180.5 48t73.5 145t-72.5 148.5t-196.5 51.5h-231v-393zM518 -492l70 349h284l-129 -349h-225z" />
    <glyph glyph-name="rcommaaccent" unicode="&#x157;" horiz-adv-x="804" 
d="M111 0v1075h292v-192q68 132 183 184q76 35 207 35v-305h-33q-167 0 -256.5 -101t-89.5 -272v-424h-303zM229 -492l70 349h285l-129 -349h-226z" />
    <glyph glyph-name="Rcaron" unicode="&#x158;" horiz-adv-x="1406" 
d="M1102 2038l-242 -359h-332l-241 359h235l174 -215l170 215h236zM166 0v1556h584q251 0 396.5 -116.5t145.5 -335.5q0 -172 -108.5 -293.5t-290.5 -144.5q-58 -7 -80 -7l567 -659h-372l-537 637v-637h-305zM471 897h246q107 0 180.5 48t73.5 145t-72.5 148.5t-196.5 51.5
h-231v-393z" />
    <glyph glyph-name="rcaron" unicode="&#x159;" horiz-adv-x="804" 
d="M803 1556l-242 -358h-332l-241 358h235l172 -215l172 215h236zM111 0v1075h292v-192q68 132 183 184q76 35 207 35v-305h-33q-167 0 -256.5 -101t-89.5 -272v-424h-303z" />
    <glyph glyph-name="Sacute" unicode="&#x15a;" horiz-adv-x="1390" 
d="M995 2019l-338 -358h-256l222 358h372zM752 -33q-165 0 -294 40t-212.5 112.5t-130.5 169t-58 215.5h330q35 -148 129.5 -211.5t249.5 -63.5q119 0 185.5 46t66.5 133q0 35 -15.5 64.5t-38 50t-58 39t-64.5 29t-70 23.5q-28 9 -97 30t-122 39t-104 38q-59 25 -104.5 50.5
t-88.5 61.5t-70.5 77t-44 96t-16.5 120q0 98 34 177.5t91 132t133.5 87.5t158.5 50.5t169 15.5q273 0 425.5 -141t161.5 -379h-329q-6 75 -33 128t-68 80t-84 38.5t-94 11.5q-37 0 -72 -7t-74 -24.5t-63 -55t-24 -91.5q0 -65 41 -105t133 -75q62 -22 280 -88
q122 -36 174 -60q247 -118 248 -395q0 -230 -149 -344.5t-432 -114.5z" />
    <glyph glyph-name="sacute" unicode="&#x15b;" horiz-adv-x="1118" 
d="M872 1556l-337 -358h-256l221 358h372zM600 -33q-252 0 -386.5 103t-150.5 282h281q19 -84 79 -121.5t171 -37.5q74 0 116 26.5t42 79.5q0 16 -6.5 30t-22.5 25.5t-29 20t-40.5 17.5t-41 13.5t-45.5 13t-41 11.5q-101 28 -168.5 54.5t-128 67.5t-90 99t-30.5 135
q-1 163 125.5 242.5t334.5 79.5q216 0 332 -95.5t127 -264.5h-287q-8 75 -59.5 107t-124.5 32q-76 0 -126 -23.5t-50 -75.5q0 -13 5 -25t16.5 -22.5t23.5 -18.5t33.5 -17t39 -15t47.5 -14.5t50.5 -14t57 -15t59.5 -15.5q43 -12 72.5 -21.5t67 -25t62.5 -32t51.5 -40.5
t42 -52.5t25.5 -67t10 -83.5q0 -169 -115.5 -255.5t-328.5 -86.5z" />
    <glyph glyph-name="Scedilla" unicode="&#x15e;" horiz-adv-x="1390" 
d="M752 -33h-13l-71 -71h39q83 0 133.5 -39.5t50.5 -104.5q0 -78 -66.5 -122t-201.5 -44h-117v117h115q42 0 67 12.5t25 34.5q0 19 -25.5 30t-66.5 11h-95v105l74 81q-252 33 -387.5 172.5t-155.5 354.5h330q35 -148 129.5 -211.5t249.5 -63.5q119 0 185.5 46t66.5 133
q0 35 -15.5 64.5t-38 50t-58 39t-64.5 29t-70 23.5q-28 9 -97 30t-122 39t-104 38q-59 25 -104.5 50.5t-88.5 61.5t-70.5 77t-44 96t-16.5 120q0 98 34 177.5t91 132t133.5 87.5t158.5 50.5t169 15.5q273 0 425.5 -141t161.5 -379h-329q-6 75 -33 128t-68 80t-84 38.5
t-94 11.5q-37 0 -72 -7t-74 -24.5t-63 -55t-24 -91.5q0 -65 41 -105t133 -75q62 -22 280 -88q122 -36 174 -60q247 -118 248 -395q0 -230 -149 -344.5t-432 -114.5z" />
    <glyph glyph-name="scedilla" unicode="&#x15f;" horiz-adv-x="1118" 
d="M1044 309q0 -166 -111.5 -252.5t-314.5 -89.5l-73 -71h39q83 0 133.5 -39.5t50.5 -104.5q0 -78 -66.5 -122t-201.5 -44h-117v117h115q42 0 67 12.5t25 34.5q0 19 -25.5 30t-66.5 11h-95v105l72 79q-193 24 -295.5 122.5t-116.5 254.5h281q19 -84 79 -121.5t171 -37.5
q74 0 116 26.5t42 79.5q0 16 -6.5 30t-22.5 25.5t-29 20t-40.5 17.5t-41 13.5t-45.5 13t-41 11.5q-101 28 -168.5 54.5t-128 67.5t-90 99t-30.5 135q-1 163 125.5 242.5t334.5 79.5q216 0 332 -95.5t127 -264.5h-287q-8 75 -59.5 107t-124.5 32q-76 0 -126 -23.5t-50 -75.5
q0 -13 5 -25t16.5 -22.5t23.5 -18.5t33.5 -17t39 -15t47.5 -14.5t50.5 -14t57 -15t59.5 -15.5q43 -12 72.5 -21.5t67 -25t62.5 -32t51.5 -40.5t42 -52.5t25.5 -67t10 -83.5z" />
    <glyph glyph-name="Scaron" unicode="&#x160;" horiz-adv-x="1390" 
d="M1106 2019l-242 -358h-332l-241 358h235l172 -215l172 215h236zM752 -33q-165 0 -294 40t-212.5 112.5t-130.5 169t-58 215.5h330q35 -148 129.5 -211.5t249.5 -63.5q119 0 185.5 46t66.5 133q0 35 -15.5 64.5t-38 50t-58 39t-64.5 29t-70 23.5q-28 9 -97 30t-122 39
t-104 38q-59 25 -104.5 50.5t-88.5 61.5t-70.5 77t-44 96t-16.5 120q0 98 34 177.5t91 132t133.5 87.5t158.5 50.5t169 15.5q273 0 425.5 -141t161.5 -379h-329q-6 75 -33 128t-68 80t-84 38.5t-94 11.5q-37 0 -72 -7t-74 -24.5t-63 -55t-24 -91.5q0 -65 41 -105t133 -75
q62 -22 280 -88q122 -36 174 -60q247 -118 248 -395q0 -230 -149 -344.5t-432 -114.5z" />
    <glyph glyph-name="scaron" unicode="&#x161;" horiz-adv-x="1118" 
d="M983 1556l-242 -358h-331l-242 358h235l172 -215l173 215h235zM600 -33q-252 0 -386.5 103t-150.5 282h281q19 -84 79 -121.5t171 -37.5q74 0 116 26.5t42 79.5q0 16 -6.5 30t-22.5 25.5t-29 20t-40.5 17.5t-41 13.5t-45.5 13t-41 11.5q-101 28 -168.5 54.5t-128 67.5
t-90 99t-30.5 135q-1 163 125.5 242.5t334.5 79.5q216 0 332 -95.5t127 -264.5h-287q-8 75 -59.5 107t-124.5 32q-76 0 -126 -23.5t-50 -75.5q0 -13 5 -25t16.5 -22.5t23.5 -18.5t33.5 -17t39 -15t47.5 -14.5t50.5 -14t57 -15t59.5 -15.5q43 -12 72.5 -21.5t67 -25t62.5 -32
t51.5 -40.5t42 -52.5t25.5 -67t10 -83.5q0 -169 -115.5 -255.5t-328.5 -86.5z" />
    <glyph glyph-name="uni0162" unicode="&#x162;" horiz-adv-x="1337" 
d="M676 -104q84 0 135 -39.5t51 -104.5q0 -78 -66.5 -122t-201.5 -44h-117v117h115q42 0 67 12.5t25 34.5q0 19 -25.5 30t-66.5 11h-94v105l94 104h-76v1253h-471v303h1245l2 -303h-471v-1253h-78l-106 -104h39z" />
    <glyph glyph-name="uni0163" unicode="&#x163;" horiz-adv-x="794" 
d="M541 -20q-45 0 -86 6l-93 -90h39q83 0 134 -39.5t51 -104.5q0 -78 -66.5 -122t-200.5 -44h-116v117h114q42 0 67.5 12.5t25.5 34.5q0 19 -25.5 30t-67.5 11h-94v105l111 122q-156 70 -156 310v479h-129v242q81 0 112.5 39t31.5 131v133h288v-277h213v-268h-213v-391
q0 -91 40.5 -123.5t133.5 -32.5h66v-270q-82 -10 -180 -10z" />
    <glyph glyph-name="Tcaron" unicode="&#x164;" horiz-adv-x="1337" 
d="M1075 2038l-241 -359h-332l-242 359h236l174 -215l172 215h233zM1292 1253h-471v-1253h-305v1253h-471v303h1245z" />
    <glyph glyph-name="tcaron" unicode="&#x165;" horiz-adv-x="794" 
d="M1055 1556l-215 -358h-236l98 358h353zM537 -20q-196 1 -280.5 87.5t-84.5 260.5v479h-127v242q81 0 112 39t31 131v133h287v-277h213v-268h-213v-391q0 -91 41 -123.5t133 -32.5h66v-270q-82 -10 -178 -10z" />
    <glyph glyph-name="Tbar" unicode="&#x166;" horiz-adv-x="1337" 
d="M821 1253v-360h213v-231h-213v-662h-305v662h-211v231h211v360h-471v303h1245l2 -303h-471z" />
    <glyph glyph-name="tbar" unicode="&#x167;" horiz-adv-x="907" 
d="M705 213q70 0 88 6v-227q-4 -1 -26 -4t-72 -5.5t-107 -2.5q-195 1 -275 80t-80 237v125h-129v231h129v195h-129v217q77 0 111.5 46t34.5 151v90h287v-277h213v-227h-213v-195h213v-231h-213v-53q0 -85 38.5 -120.5t129.5 -35.5z" />
    <glyph glyph-name="Umacron" unicode="&#x16a;" horiz-adv-x="1560" 
d="M1161 1735h-729v221h729v-221zM801 -33q-146 0 -257 33.5t-182 92t-115.5 147t-62.5 189t-18 226.5v901h305v-792q0 -76 2 -127t9.5 -111t21 -98.5t38 -77.5t59 -61t85 -35.5t115.5 -13.5q51 0 92.5 8.5t73.5 22t56.5 37.5t41 48.5t28.5 62.5t19 71.5t10.5 83t4.5 90.5
t1 100v792h308v-901q0 -129 -18.5 -231t-63.5 -189.5t-116.5 -145t-181.5 -90t-255 -32.5z" />
    <glyph glyph-name="umacron" unicode="&#x16b;" horiz-adv-x="1259" 
d="M989 1253h-729v222h729v-222zM489 -33q-191 0 -292 117.5t-101 345.5v645h303v-557q0 -311 197 -311q112 0 181 91t69 245v532h303v-1075h-303v172q-116 -205 -357 -205z" />
    <glyph glyph-name="Uring" unicode="&#x16e;" horiz-adv-x="1560" 
d="M797 1679q-89 0 -143 53.5t-54 141.5q0 86 54 138t143 52q88 0 141 -52t53 -138q0 -88 -53 -141.5t-141 -53.5zM797 1802q31 0 50 19.5t19 50.5t-19 49t-50 18q-32 0 -51 -18t-19 -49t19 -50.5t51 -19.5zM801 -33q-146 0 -257 33.5t-182 92t-115.5 147t-62.5 189
t-18 226.5v901h305v-792q0 -76 2 -127t9.5 -111t21 -98.5t38 -77.5t59 -61t85 -35.5t115.5 -13.5q51 0 92.5 8.5t73.5 22t56.5 37.5t41 48.5t28.5 62.5t19 71.5t10.5 83t4.5 90.5t1 100v792h308v-901q0 -129 -18.5 -231t-63.5 -189.5t-116.5 -145t-181.5 -90t-255 -32.5z
" />
    <glyph glyph-name="uring" unicode="&#x16f;" horiz-adv-x="1259" 
d="M625 1198q-89 0 -143 53.5t-54 141.5q0 86 54 138t143 52t142.5 -52t53.5 -138q0 -88 -53.5 -141.5t-142.5 -53.5zM625 1321q31 0 50 19.5t19 50.5t-19 49t-50 18t-50.5 -18.5t-19.5 -48.5q0 -31 19.5 -50.5t50.5 -19.5zM489 -33q-191 0 -292 117.5t-101 345.5v645h303
v-557q0 -311 197 -311q112 0 181 91t69 245v532h303v-1075h-303v172q-116 -205 -357 -205z" />
    <glyph glyph-name="Uhungarumlaut" unicode="&#x170;" horiz-adv-x="1560" 
d="M825 2038l-338 -359h-256l222 359h372zM1360 2038l-338 -359h-256l221 359h373zM801 -33q-146 0 -257 33.5t-182 92t-115.5 147t-62.5 189t-18 226.5v901h305v-792q0 -76 2 -127t9.5 -111t21 -98.5t38 -77.5t59 -61t85 -35.5t115.5 -13.5q51 0 92.5 8.5t73.5 22
t56.5 37.5t41 48.5t28.5 62.5t19 71.5t10.5 83t4.5 90.5t1 100v792h308v-901q0 -129 -18.5 -231t-63.5 -189.5t-116.5 -145t-181.5 -90t-255 -32.5z" />
    <glyph glyph-name="uhungarumlaut" unicode="&#x171;" horiz-adv-x="1259" 
d="M653 1556l-338 -358h-256l222 358h372zM1188 1556l-338 -358h-256l221 358h373zM489 -33q-191 0 -292 117.5t-101 345.5v645h303v-557q0 -311 197 -311q112 0 181 91t69 245v532h303v-1075h-303v172q-116 -205 -357 -205z" />
    <glyph glyph-name="Uogonek" unicode="&#x172;" horiz-adv-x="1560" 
d="M1128 1556h308v-901q0 -157 -28.5 -274.5t-94 -210.5t-181 -144.5t-280.5 -58.5q-96 -91 -96 -162q0 -81 135 -81q34 0 61 4v-146q-40 -6 -96 -6q-133 0 -194.5 53.5t-61.5 134.5q0 102 125 205q-128 9 -225 46.5t-160 96.5t-102.5 145t-55.5 182t-16 216v901h305v-792
q0 -76 2 -127t9.5 -111t21 -98.5t38 -77.5t59 -61t85 -35.5t115.5 -13.5q51 0 92.5 8.5t73.5 22t56.5 37.5t41 48.5t28.5 62.5t19 71.5t10.5 83t4.5 90.5t1 100v792z" />
    <glyph glyph-name="uogonek" unicode="&#x173;" horiz-adv-x="1259" 
d="M1067 0q-131 -112 -131 -195q0 -81 135 -81q35 0 62 4v-146q-41 -6 -97 -6q-133 0 -194.5 53.5t-61.5 134.5q0 39 16 76.5t45 68.5t51 50t52 41h-98v172q-116 -205 -357 -205q-191 0 -292 117.5t-101 345.5v645h303v-557q0 -311 197 -311q112 0 181 91t69 245v532h303
v-1075h-82z" />
    <glyph glyph-name="Wcircumflex" unicode="&#x174;" horiz-adv-x="2301" 
d="M1559 1679h-236l-172 215l-172 -215h-236l242 359h332zM446 0l-421 1556h337l265 -1204l336 1204h376l338 -1204l262 1204h338l-419 -1556h-340l-367 1241l-367 -1241h-338z" />
    <glyph glyph-name="wcircumflex" unicode="&#x175;" horiz-adv-x="1880" 
d="M1348 1198h-236l-172 215l-172 -215h-236l242 358h332zM424 0l-408 1075h314l243 -764h5l227 764h270l228 -764h4l243 764h312l-406 -1075h-303l-211 774h-4l-213 -774h-301z" />
    <glyph glyph-name="Ycircumflex" unicode="&#x176;" horiz-adv-x="1464" 
d="M1139 1679h-234l-172 215l-174 -215h-235l241 359h332zM580 0v543l-541 1013h340l354 -739l352 739h340l-540 -1013v-543h-305z" />
    <glyph glyph-name="ycircumflex" unicode="&#x177;" horiz-adv-x="1148" 
d="M981 1198h-233l-173 215l-174 -215h-235l242 358h331zM244 -492l180 494l-408 1073h314l209 -663l34 -105h5l32 105l209 663h314l-381 -1001l-203 -566h-305z" />
    <glyph glyph-name="Ydieresis" unicode="&#x178;" horiz-adv-x="1464" 
d="M412 1798v240h241v-240h-241zM811 1798v240h242v-240h-242zM580 0v543l-541 1013h340l354 -739l352 739h340l-540 -1013v-543h-305z" />
    <glyph glyph-name="Zacute" unicode="&#x179;" horiz-adv-x="1452" 
d="M1028 2038l-338 -359h-256l221 359h373zM489 303h879v-303h-1270v303l807 950h-786v303h1175l2 -303z" />
    <glyph glyph-name="zacute" unicode="&#x17a;" horiz-adv-x="1157" 
d="M881 1556l-338 -358h-256l221 358h373zM412 244h680v-244h-1016v244l635 587h-619v244h952l3 -244z" />
    <glyph glyph-name="Zdotaccent" unicode="&#x17b;" horiz-adv-x="1452" 
d="M731 1716q-73 0 -125.5 52t-52.5 128q0 72 53 123.5t125 51.5q74 0 127 -51.5t53 -123.5q0 -76 -53 -128t-127 -52zM489 303h879v-303h-1270v303l807 950h-786v303h1175l2 -303z" />
    <glyph glyph-name="zdotaccent" unicode="&#x17c;" horiz-adv-x="1157" 
d="M584 1235q-73 0 -125.5 52t-52.5 128q0 72 53 123t125 51q74 0 127 -51t53 -123q0 -76 -53 -128t-127 -52zM412 244h680v-244h-1016v244l635 587h-619v244h952l3 -244z" />
    <glyph glyph-name="Zcaron" unicode="&#x17d;" horiz-adv-x="1452" 
d="M1139 2038l-242 -359h-332l-241 359h235l174 -215l170 215h236zM489 303h879v-303h-1270v303l807 950h-786v303h1175l2 -303z" />
    <glyph glyph-name="zcaron" unicode="&#x17e;" horiz-adv-x="1157" 
d="M991 1556l-241 -358h-332l-242 358h236l174 -215l170 215h235zM412 244h680v-244h-1016v244l635 587h-619v244h952l3 -244z" />
    <glyph glyph-name="AEacute" unicode="&#x1fc;" horiz-adv-x="2367" 
d="M1497 2038l-338 -359h-256l221 359h373zM1370 307h832v-307h-1137v356h-530l-152 -356h-338l692 1556h1430v-307h-797v-297h727v-307h-727v-338zM911 1249l-245 -583h399v583h-154z" />
    <glyph glyph-name="aeacute" unicode="&#x1fd;" horiz-adv-x="1902" 
d="M1237 1556l-338 -358h-256l221 358h373zM487 -33q-96 0 -170.5 21t-120 54t-75 78t-40.5 89.5t-11 91.5q0 35 6 68t23.5 70t44.5 68.5t72 61t103.5 50t142.5 33t185 12.5h135q0 51 -7 87t-25.5 68t-56.5 48t-95 16q-95 0 -139 -44t-47 -112h-295q2 62 16.5 114.5t49 103
t88 85.5t139 56.5t196.5 21.5q258 0 367 -133q121 133 344 133q224 0 365 -140t147 -403v-104l-2 -4h-737q12 -117 73 -183.5t162 -66.5q87 0 143.5 47t65.5 121h297q-3 -76 -41.5 -149t-103.5 -131t-161 -93t-206 -35q-130 0 -233.5 47.5t-167.5 124.5q-62 -86 -176 -129
t-255 -43zM1092 657h440q-12 104 -69 157.5t-146 53.5q-96 0 -155 -58t-70 -153zM547 182q114 0 175.5 53t61.5 130v114h-145q-83 0 -140.5 -15.5t-84.5 -42t-38 -52t-11 -54.5q0 -67 48.5 -100t133.5 -33z" />
    <glyph glyph-name="Scommaaccent" unicode="&#x218;" horiz-adv-x="1390" 
d="M752 -33q-165 0 -294 40t-212.5 112.5t-130.5 169t-58 215.5h330q35 -148 129.5 -211.5t249.5 -63.5q119 0 185.5 46t66.5 133q0 35 -15.5 64.5t-38 50t-58 39t-64.5 29t-70 23.5q-28 9 -97 30t-122 39t-104 38q-59 25 -104.5 50.5t-88.5 61.5t-70.5 77t-44 96t-16.5 120
q0 98 34 177.5t91 132t133.5 87.5t158.5 50.5t169 15.5q273 0 425.5 -141t161.5 -379h-329q-6 75 -33 128t-68 80t-84 38.5t-94 11.5q-37 0 -72 -7t-74 -24.5t-63 -55t-24 -91.5q0 -65 41 -105t133 -75q62 -22 280 -88q122 -36 174 -60q247 -118 248 -395
q0 -230 -149 -344.5t-432 -114.5zM522 -492l70 349h285l-129 -349h-226z" />
    <glyph glyph-name="scommaaccent" unicode="&#x219;" horiz-adv-x="1118" 
d="M600 -33q-252 0 -386.5 103t-150.5 282h281q19 -84 79 -121.5t171 -37.5q74 0 116 26.5t42 79.5q0 16 -6.5 30t-22.5 25.5t-29 20t-40.5 17.5t-41 13.5t-45.5 13t-41 11.5q-101 28 -168.5 54.5t-128 67.5t-90 99t-30.5 135q-1 163 125.5 242.5t334.5 79.5
q216 0 332 -95.5t127 -264.5h-287q-8 75 -59.5 107t-124.5 32q-76 0 -126 -23.5t-50 -75.5q0 -13 5 -25t16.5 -22.5t23.5 -18.5t33.5 -17t39 -15t47.5 -14.5t50.5 -14t57 -15t59.5 -15.5q43 -12 72.5 -21.5t67 -25t62.5 -32t51.5 -40.5t42 -52.5t25.5 -67t10 -83.5
q0 -169 -115.5 -255.5t-328.5 -86.5zM399 -492l70 349h285l-129 -349h-226z" />
    <glyph glyph-name="uni021A" unicode="&#x21a;" horiz-adv-x="1337" 
d="M1292 1253h-471v-1253h-305v1253h-471v303h1245zM492 -492l69 349h285l-129 -349h-225z" />
    <glyph glyph-name="uni021B" unicode="&#x21b;" horiz-adv-x="794" 
d="M541 -20q-196 1 -279.5 87.5t-83.5 260.5v479h-129v242q81 0 112.5 39t31.5 131v133h288v-277h213v-268h-213v-391q0 -91 40.5 -123.5t133.5 -32.5h66v-270q-82 -10 -180 -10zM217 -492l70 349h284l-129 -349h-225z" />
    <glyph glyph-name="circumflex" unicode="&#x2c6;" horiz-adv-x="999" 
d="M811 1198h-233l-172 215l-175 -215h-235l242 358h331z" />
    <glyph glyph-name="caron" unicode="&#x2c7;" horiz-adv-x="999" 
d="M692 1556l-241 -358h-332l-242 358h236l172 -215l172 215h235z" />
    <glyph glyph-name="breve" unicode="&#x2d8;" horiz-adv-x="976" 
d="M518 1556h221q0 -161 -111 -259.5t-294 -98.5t-295.5 98.5t-112.5 259.5h221q0 -81 51.5 -130.5t135.5 -49.5q83 0 133.5 49t50.5 131z" />
    <glyph glyph-name="dotaccent" unicode="&#x2d9;" horiz-adv-x="581" 
d="M23 1235q-73 0 -126 52t-53 128q0 72 53.5 123t125.5 51q74 0 127 -51t53 -123q0 -76 -53 -128t-127 -52z" />
    <glyph glyph-name="ring" unicode="&#x2da;" horiz-adv-x="610" 
d="M117 1198q-88 0 -141.5 53.5t-53.5 141.5q0 86 53.5 138t141.5 52q89 0 142.5 -52t53.5 -138q0 -88 -53.5 -141.5t-142.5 -53.5zM117 1321q32 0 50.5 19.5t18.5 50.5t-18.5 49t-50.5 18q-31 0 -49.5 -18t-18.5 -49t18.5 -50.5t49.5 -19.5z" />
    <glyph glyph-name="ogonek" unicode="&#x2db;" horiz-adv-x="532" 
d="M352 -424q-133 0 -194.5 53.5t-61.5 134.5q0 31 12 62.5t27 54t41.5 48t42 38t41.5 32t29 21.5h119q-156 -125 -156 -215q0 -81 135 -81q35 0 62 4v-146q-40 -6 -97 -6z" />
    <glyph glyph-name="tilde" unicode="&#x2dc;" horiz-adv-x="958" 
d="M279 1526q42 0 81 -17t63.5 -37.5t53 -37.5t51.5 -17q31 0 50.5 26.5t19.5 72.5h193q0 -134 -66.5 -210.5t-175.5 -76.5q-46 0 -85.5 17t-62 37t-49 37t-49.5 17q-31 0 -49 -26t-18 -72h-195q0 126 66.5 206.5t171.5 80.5z" />
    <glyph glyph-name="hungarumlaut" unicode="&#x2dd;" horiz-adv-x="1198" 
d="M639 1556l-338 -358h-256l221 358h373zM1174 1556l-338 -358h-256l221 358h373z" />
    <glyph glyph-name="gravecomb" unicode="&#x300;" 
d="M-639 1556h373l221 -358h-256z" />
    <glyph glyph-name="acutecomb" unicode="&#x301;" 
d="M-25 1556l-337 -358h-256l221 358h372z" />
    <glyph glyph-name="uni0302" unicode="&#x302;" 
d="M-92 1198h-236l-172 215l-172 -215h-235l241 358h332z" />
    <glyph glyph-name="tildecomb" unicode="&#x303;" 
d="M-618 1526q42 0 81 -17t63.5 -37.5t53 -37.5t51.5 -17q33 0 51.5 26t18.5 73h195q0 -134 -67.5 -210.5t-176.5 -76.5q-46 0 -85.5 17t-62 37t-48.5 37t-48 17q-31 0 -50.5 -26.5t-19.5 -71.5h-192q0 127 65.5 207t170.5 80z" />
    <glyph glyph-name="uni0304" unicode="&#x304;" 
d="M-147 1253h-730v222h730v-222z" />
    <glyph glyph-name="uni0306" unicode="&#x306;" 
d="M-305 1556h223q0 -161 -111 -259.5t-294 -98.5q-185 0 -297.5 98.5t-112.5 259.5h223q0 -82 51 -131t136 -49q83 0 132.5 49t49.5 131z" />
    <glyph glyph-name="uni0307" unicode="&#x307;" 
d="M-291 1235q-73 0 -126.5 52.5t-53.5 127.5q0 71 53.5 122.5t126.5 51.5t126.5 -51.5t53.5 -122.5q0 -75 -53.5 -127.5t-126.5 -52.5z" />
    <glyph glyph-name="uni0308" unicode="&#x308;" 
d="M-729 1317v239h242v-239h-242zM-330 1317v239h242v-239h-242z" />
    <glyph glyph-name="uni030A" unicode="&#x30a;" 
d="M-305 1198q-89 0 -143 53.5t-54 141.5q0 86 54 138t143 52t142.5 -52t53.5 -138q0 -88 -53.5 -141.5t-142.5 -53.5zM-305 1321q32 0 50.5 19.5t18.5 50.5t-18.5 49t-50.5 18q-31 0 -50.5 -18.5t-19.5 -48.5q0 -31 19.5 -50.5t50.5 -19.5z" />
    <glyph glyph-name="uni030B" unicode="&#x30b;" 
d="M-559 1556l-338 -358h-256l221 358h373zM-25 1556l-337 -358h-256l221 358h372z" />
    <glyph glyph-name="uni030C" unicode="&#x30c;" 
d="M-92 1556l-242 -358h-332l-241 358h235l172 -215l172 215h236z" />
    <glyph glyph-name="uni0312" unicode="&#x312;" 
d="M-137 1829l-119 -316h139v-313h-332v313l152 316h160z" />
    <glyph glyph-name="uni0326" unicode="&#x326;" 
d="M-436 -492l69 349h285l-129 -349h-225z" />
    <glyph glyph-name="uni0327" unicode="&#x327;" 
d="M-311 -104h39q83 0 133.5 -39.5t50.5 -104.5q0 -78 -66.5 -122t-201.5 -44h-117v117h117q42 0 67 12.5t25 34.5q0 19 -25.5 30t-66.5 11h-97v105l154 167h158z" />
    <glyph glyph-name="uni0328" unicode="&#x328;" 
d="M-180 -424q-133 0 -194.5 53.5t-61.5 134.5q0 31 12 62.5t27 54t41 48t41 38t42 32t29 21.5h119q-156 -125 -156 -215q0 -81 136 -81q34 0 61 4v-146q-41 -6 -96 -6z" />
    <glyph glyph-name="uni0335" unicode="&#x335;" 
d="M-147 436h-730v230h730v-230z" />
    <glyph glyph-name="uni0336" unicode="&#x336;" 
d="M-147 666v-230h-1450v230h1450z" />
    <glyph glyph-name="uni0337" unicode="&#x337;" 
d="M-760 768l694 463v-324l-694 -463v324z" />
    <glyph glyph-name="uni0338" unicode="&#x338;" 
d="M-1421 -238l1140 1794h283l-1141 -1794h-282z" />
    <glyph glyph-name="Wgrave" unicode="&#x1e80;" horiz-adv-x="2301" 
d="M854 2038h373l221 -359h-256zM446 0l-421 1556h337l265 -1204l336 1204h376l338 -1204l262 1204h338l-419 -1556h-340l-367 1241l-367 -1241h-338z" />
    <glyph glyph-name="wgrave" unicode="&#x1e81;" horiz-adv-x="1880" 
d="M643 1556h373l221 -358h-256zM424 0l-408 1075h314l243 -764h5l227 764h270l228 -764h4l243 764h312l-406 -1075h-303l-211 774h-4l-213 -774h-301z" />
    <glyph glyph-name="Wacute" unicode="&#x1e82;" horiz-adv-x="2301" 
d="M1448 2038l-338 -359h-256l221 359h373zM446 0l-421 1556h337l265 -1204l336 1204h376l338 -1204l262 1204h338l-419 -1556h-340l-367 1241l-367 -1241h-338z" />
    <glyph glyph-name="wacute" unicode="&#x1e83;" horiz-adv-x="1880" 
d="M1237 1556l-338 -358h-256l221 358h373zM424 0l-408 1075h314l243 -764h5l227 764h270l228 -764h4l243 764h312l-406 -1075h-303l-211 774h-4l-213 -774h-301z" />
    <glyph glyph-name="Wdieresis" unicode="&#x1e84;" horiz-adv-x="2301" 
d="M829 1798v240h242v-240h-242zM1229 1798v240h241v-240h-241zM446 0l-421 1556h337l265 -1204l336 1204h376l338 -1204l262 1204h338l-419 -1556h-340l-367 1241l-367 -1241h-338z" />
    <glyph glyph-name="wdieresis" unicode="&#x1e85;" horiz-adv-x="1880" 
d="M618 1317v239h242v-239h-242zM1018 1317v239h242v-239h-242zM424 0l-408 1075h314l243 -764h5l227 764h270l228 -764h4l243 764h312l-406 -1075h-303l-211 774h-4l-213 -774h-301z" />
    <glyph glyph-name="Ygrave" unicode="&#x1ef2;" horiz-adv-x="1464" 
d="M434 2038h373l221 -359h-256zM580 0v543l-541 1013h340l354 -739l352 739h340l-540 -1013v-543h-305z" />
    <glyph glyph-name="ygrave" unicode="&#x1ef3;" horiz-adv-x="1148" 
d="M276 1556h373l221 -358h-256zM244 -492l180 494l-408 1073h314l209 -663l34 -105h5l32 105l209 663h314l-381 -1001l-203 -566h-305z" />
    <glyph glyph-name="uni2009" unicode="&#x2009;" horiz-adv-x="389" 
 />
    <glyph glyph-name="endash" unicode="&#x2013;" horiz-adv-x="1349" 
d="M147 416v250h1055v-250h-1055z" />
    <glyph glyph-name="emdash" unicode="&#x2014;" horiz-adv-x="2342" 
d="M147 666h2048v-250h-2048v250z" />
    <glyph glyph-name="quoteleft" unicode="&#x2018;" horiz-adv-x="477" 
d="M373 1538l-111 -289h127v-288h-303v288l139 289h148z" />
    <glyph glyph-name="quoteright" unicode="&#x2019;" horiz-adv-x="477" 
d="M104 961l111 288h-129v289h303v-289l-137 -288h-148z" />
    <glyph glyph-name="quotesinglbase" unicode="&#x201a;" horiz-adv-x="477" 
d="M104 -289l111 289h-129v289h303v-289l-137 -289h-148z" />
    <glyph glyph-name="quotedblleft" unicode="&#x201c;" horiz-adv-x="894" 
d="M86 961v288l139 289h148l-111 -289h127v-288h-303zM506 961v288l139 289h146l-109 -289h127v-288h-303z" />
    <glyph glyph-name="quotedblright" unicode="&#x201d;" horiz-adv-x="894" 
d="M104 961l111 288h-129v289h303v-289l-137 -288h-148zM524 961l109 288h-127v289h303v-289l-139 -288h-146z" />
    <glyph glyph-name="quotedblbase" unicode="&#x201e;" horiz-adv-x="894" 
d="M104 -289l111 289h-129v289h303v-289l-137 -289h-148zM524 -289l109 289h-127v289h303v-289l-139 -289h-146z" />
    <glyph glyph-name="dagger" unicode="&#x2020;" horiz-adv-x="1124" 
d="M412 -492v658h-322v209h322v1181h303v-1181h317v-209h-317v-658h-303z" />
    <glyph glyph-name="daggerdbl" unicode="&#x2021;" horiz-adv-x="1179" 
d="M1061 588h-318v-213h318v-209h-318v-658h-303v658h-321v209h321v213h-321v209h321v759h303v-759h318v-209z" />
    <glyph glyph-name="bullet" unicode="&#x2022;" horiz-adv-x="684" 
d="M342 299q-105 0 -180.5 74t-75.5 182q0 102 75.5 175t180.5 73t180.5 -73t75.5 -175q0 -108 -75.5 -182t-180.5 -74z" />
    <glyph glyph-name="ellipsis" unicode="&#x2026;" horiz-adv-x="1472" 
d="M86 0v315h332v-315h-332zM571 0v315h330v-315h-330zM1055 0v315h331v-315h-331z" />
    <glyph glyph-name="perthousand" unicode="&#x2030;" horiz-adv-x="3031" 
d="M414 696q-125 0 -213.5 62.5t-129 161.5t-40.5 223q0 92 24 171.5t69.5 141.5t120 97.5t169.5 35.5t169.5 -35.5t120.5 -97.5t69.5 -141.5t23.5 -171.5t-23.5 -171.5t-69.5 -141.5t-120.5 -98t-169.5 -36zM438 -33l944 1620h228l-944 -1620h-228zM414 868q61 0 102 43.5
t56.5 103t15.5 128.5t-15.5 128t-56.5 102.5t-102 43.5t-102 -43.5t-56.5 -102.5t-15.5 -128t15.5 -128.5t56.5 -103t102 -43.5zM1614 -18q-95 0 -169.5 35.5t-120 97.5t-69.5 141.5t-24 171.5t24 171.5t69.5 141.5t120 97.5t169.5 35.5t169.5 -35.5t120 -97.5t69.5 -141.5
t24 -171.5t-24 -171.5t-69.5 -141.5t-120 -97.5t-169.5 -35.5zM2552 -18q-95 0 -169.5 35.5t-120 97.5t-69.5 141.5t-24 171.5t24 171.5t69.5 141.5t120 97.5t169.5 35.5t169.5 -35.5t120 -97.5t69.5 -141.5t24 -171.5t-24 -171.5t-69.5 -141.5t-120 -97.5t-169.5 -35.5z
M1614 154q61 0 102 43.5t56.5 102.5t15.5 128t-15.5 128t-56.5 102.5t-102 43.5t-102 -43.5t-56.5 -102.5t-15.5 -128t15.5 -128t56.5 -102.5t102 -43.5zM2552 154q61 0 102 43.5t56.5 102.5t15.5 128t-15.5 128t-56.5 102.5t-102 43.5t-102 -43.5t-56.5 -102.5t-15.5 -128
t15.5 -128t56.5 -102.5t102 -43.5z" />
    <glyph glyph-name="guilsinglleft" unicode="&#x2039;" horiz-adv-x="790" 
d="M739 997l-368 -454l368 -455h-317l-369 455l369 454h317z" />
    <glyph glyph-name="guilsinglright" unicode="&#x203a;" horiz-adv-x="790" 
d="M51 997h318l368 -454l-368 -455h-318l369 455z" />
    <glyph glyph-name="fraction" unicode="&#x2044;" horiz-adv-x="526" 
d="M-317 -33l944 1620h217l-944 -1620h-217z" />
    <glyph glyph-name="uni2070" unicode="&#x2070;" horiz-adv-x="866" 
d="M434 678q-177 0 -281 124t-104 322t104 322.5t281 124.5q176 0 278.5 -124.5t102.5 -322.5t-102.5 -322t-278.5 -124zM432 848q82 0 129 76t47 200t-47 200.5t-129 76.5t-128 -76.5t-46 -200.5t46 -200t128 -76z" />
    <glyph glyph-name="uni2074" unicode="&#x2074;" horiz-adv-x="821" 
d="M770 1036v-194h-131v-146h-195v146h-395v207l285 503h223l-285 -516h172v174h195v-174h131z" />
    <glyph glyph-name="uni2075" unicode="&#x2075;" horiz-adv-x="831" 
d="M418 678q-153 0 -257.5 72t-111.5 188h211q3 -40 46 -66t106 -26q78 0 126 39.5t48 105.5q0 64 -45.5 105t-112.5 41q-53 0 -95 -27t-59 -72h-211l132 514h514v-176h-375l-39 -153q68 65 186 65q133 0 216 -83t83 -214q0 -143 -98 -228t-264 -85z" />
    <glyph glyph-name="uni2076" unicode="&#x2076;" horiz-adv-x="819" 
d="M418 678q-173 0 -271 110.5t-98 305.5q0 210 106 343.5t277 133.5q123 0 201 -65t96 -175h-201q-11 41 -41.5 61.5t-68.5 20.5q-74 0 -119 -70t-45 -188q28 54 91 86.5t142 32.5q126 0 203.5 -78.5t77.5 -204.5q0 -140 -97 -226.5t-253 -86.5zM410 844q62 0 99.5 38
t37.5 101q0 61 -37.5 99t-99.5 38t-100 -38t-38 -99q0 -63 38 -101t100 -38z" />
    <glyph glyph-name="uni2077" unicode="&#x2077;" horiz-adv-x="714" 
d="M104 696l342 662h-397v194h617v-194l-338 -662h-224z" />
    <glyph glyph-name="uni2078" unicode="&#x2078;" horiz-adv-x="858" 
d="M430 678q-101 0 -176.5 23t-116 62.5t-59.5 83.5t-19 93q0 85 49 143.5t117 71.5q-53 16 -89 64.5t-36 117.5q0 46 17.5 85.5t54.5 74t103.5 54.5t154.5 20q170 0 250 -67.5t80 -164.5q0 -68 -37 -118t-88 -66q65 -13 114.5 -71.5t49.5 -143.5q0 -50 -18.5 -93.5
t-58.5 -83t-115 -62.5t-177 -23zM428 1233q58 0 92.5 26t34.5 66q0 41 -34.5 68.5t-92.5 27.5q-57 0 -91 -27.5t-34 -68.5q0 -39 34 -65.5t91 -26.5zM428 844q75 0 115.5 30.5t40.5 77.5q0 45 -38.5 77t-117.5 32q-77 0 -115.5 -31.5t-38.5 -77.5q0 -47 40.5 -77.5
t113.5 -30.5z" />
    <glyph glyph-name="uni2079" unicode="&#x2079;" horiz-adv-x="804" 
d="M389 678q-148 0 -238.5 65.5t-99.5 163.5h209q9 -34 45.5 -55t83.5 -21q56 0 94.5 35t53 79t14.5 91v23q-26 -40 -80 -62t-123 -22q-143 0 -218 83.5t-75 203.5q0 58 18.5 110.5t57 98.5t106.5 73t158 27q179 0 269 -110t90 -318q0 -135 -37.5 -237.5t-121 -165
t-206.5 -62.5zM397 1128q64 0 104 37.5t40 96.5q0 64 -39.5 103.5t-104.5 39.5t-104 -39.5t-39 -103.5q0 -59 39.5 -96.5t103.5 -37.5z" />
    <glyph glyph-name="Euro" unicode="&#x20ac;" horiz-adv-x="1482" 
d="M1143 -33q-283 0 -466.5 126.5t-252.5 355.5h-324l45 172h244q-6 58 -6 118v49h-207l45 175h185q57 257 244.5 402.5t492.5 145.5q149 0 250 -26v-248q-110 20 -222 20q-182 0 -292.5 -78t-153.5 -216h430l-43 -175h-420q-2 -16 -2 -51q0 -38 8 -116h385l-45 -172h-288
q112 -228 419 -228q109 0 224 21v-248q-105 -27 -250 -27z" />
    <glyph glyph-name="trademark" unicode="&#x2122;" horiz-adv-x="999" 
d="M395 1556v-98h-116v-291h-99v291h-117v98h332zM772 1556h111v-389h-99v213l-82 -213h-75l-82 213v-213h-99v389h111l107 -276z" />
    <glyph glyph-name="oneeighth" unicode="&#x215b;" horiz-adv-x="1828" 
d="M209 -33l944 1620h229l-944 -1620h-229zM201 700v660h-170v196h366v-856h-196zM1366 -18q-102 0 -177.5 23t-116.5 62.5t-60 83.5t-19 93q0 85 49.5 143.5t116.5 71.5q-51 16 -88 65t-37 117q0 46 17.5 85.5t54.5 73.5t104 54t156 20q168 0 248 -67t80 -164
q0 -69 -36 -118.5t-89 -65.5q66 -13 115 -71t49 -144q0 -50 -18.5 -93.5t-58 -83t-114.5 -62.5t-176 -23zM1364 537q57 0 91 26.5t34 65.5q0 41 -34 68.5t-91 27.5q-58 0 -92.5 -27.5t-34.5 -68.5q0 -40 34.5 -66t92.5 -26zM1364 147q73 0 113.5 31t40.5 78q0 45 -38.5 77
t-115.5 32q-78 0 -116 -31.5t-38 -77.5q0 -47 40.5 -78t113.5 -31z" />
    <glyph glyph-name="threeeighths" unicode="&#x215c;" horiz-adv-x="2017" 
d="M444 -33l945 1620h227l-944 -1620h-228zM438 682q-172 0 -277.5 76t-111.5 184h213q3 -34 32.5 -55t64.5 -28t75 -7q87 0 123.5 34.5t36.5 86.5q0 125 -213 125h-119v143l256 137h-420v178h666v-208l-246 -119l2 -2q112 0 191.5 -67t79.5 -185q0 -54 -17.5 -102.5
t-56 -93t-110.5 -71t-169 -26.5zM1599 -18q-82 0 -147 15.5t-106 41t-68 60.5t-38 70.5t-11 74.5q0 85 49 143.5t117 71.5q-53 16 -89 64.5t-36 117.5q0 46 17.5 85.5t54 73.5t102.5 54t155 20q170 0 250 -67t80 -164q0 -68 -37 -118t-88 -66q65 -13 114.5 -71.5
t49.5 -143.5q0 -50 -18.5 -93.5t-58.5 -83t-115 -62.5t-177 -23zM1597 537q58 0 91.5 26t33.5 66q0 41 -33.5 68.5t-91.5 27.5q-57 0 -90.5 -27.5t-33.5 -68.5q0 -40 33.5 -66t90.5 -26zM1597 147q74 0 114 31t40 78q0 45 -38 77t-116 32q-76 0 -114.5 -31.5t-38.5 -77.5
q0 -47 40 -78t113 -31z" />
    <glyph glyph-name="fiveeighths" unicode="&#x215d;" horiz-adv-x="2123" 
d="M549 -33l944 1620h227l-944 -1620h-227zM418 682q-153 0 -257.5 72t-111.5 188h211q3 -40 46 -66t106 -26q78 0 126 39.5t48 105.5q0 64 -45.5 105t-112.5 41q-53 0 -95 -27t-59 -72h-211l132 514h514v-176h-375l-39 -153q68 65 186 65q133 0 216 -83t83 -214
q0 -143 -98 -228t-264 -85zM1704 -18q-101 0 -176.5 23t-116 62.5t-59.5 83.5t-19 93q0 85 49 143.5t117 71.5q-53 16 -89 64.5t-36 117.5q0 45 17.5 85t54.5 74t103 54t155 20q170 0 250 -67t80 -164q0 -68 -37 -118t-88 -66q65 -13 114.5 -71.5t49.5 -143.5
q0 -50 -18.5 -93.5t-58.5 -83t-115 -62.5t-177 -23zM1702 537q58 0 92.5 26t34.5 66q0 41 -34.5 68.5t-92.5 27.5q-57 0 -91 -27.5t-34 -68.5q0 -39 34 -65.5t91 -26.5zM1702 147q74 0 113.5 31t39.5 78q0 45 -37.5 77t-115.5 32q-77 0 -115.5 -31.5t-38.5 -77.5
q0 -47 40.5 -78t113.5 -31z" />
    <glyph glyph-name="seveneighths" unicode="&#x215e;" horiz-adv-x="1812" 
d="M238 -33l944 1620h229l-944 -1620h-229zM104 700l367 660h-422v196h645v-208l-362 -648h-228zM1395 -18q-102 0 -177.5 23t-116.5 62.5t-60 83.5t-19 93q0 85 49.5 143.5t116.5 71.5q-51 16 -88 65t-37 117q0 46 17.5 85.5t54.5 73.5t104 54t156 20q168 0 247.5 -67
t79.5 -164q0 -69 -36 -118.5t-89 -65.5q66 -13 115 -71t49 -144q0 -50 -18 -93.5t-58 -83t-114.5 -62.5t-175.5 -23zM1393 537q57 0 91 26.5t34 65.5q0 41 -34 68.5t-91 27.5q-58 0 -92.5 -27.5t-34.5 -68.5q0 -40 34.5 -66t92.5 -26zM1393 147q73 0 113 31t40 78
q0 45 -38 77t-115 32q-78 0 -116 -31.5t-38 -77.5q0 -47 40.5 -78t113.5 -31z" />
    <glyph glyph-name="arrowleft" unicode="&#x2190;" horiz-adv-x="1847" 
d="M1702 727v-250h-1139l178 -266l-596 391l596 393l-178 -268h1139z" />
    <glyph glyph-name="arrowup" unicode="&#x2191;" horiz-adv-x="1075" 
d="M412 0v1139l-267 -178l392 595l393 -595l-266 178v-1139h-252z" />
    <glyph glyph-name="arrowright" unicode="&#x2192;" horiz-adv-x="1847" 
d="M145 727h1139l-178 268l596 -393l-596 -391l178 266h-1139v250z" />
    <glyph glyph-name="arrowdown" unicode="&#x2193;" horiz-adv-x="1075" 
d="M412 1556h252v-1138l266 178l-393 -596l-392 596l267 -178v1138z" />
    <glyph glyph-name="arrowboth" unicode="&#x2194;" horiz-adv-x="2582" 
d="M2437 602l-596 -391l178 266h-1456l178 -266l-596 391l596 393l-178 -268h1456l-178 268z" />
    <glyph glyph-name="arrowupdn" unicode="&#x2195;" horiz-adv-x="1075" 
d="M537 0l-392 596l267 -158v680l-267 -157l392 595l393 -595l-266 157v-680l266 158z" />
    <glyph glyph-name="uni2196" unicode="&#x2196;" horiz-adv-x="1820" 
d="M1499 0l-1153 1176l-57 -316l-144 696l697 -143l-307 -74l1140 -1163z" />
    <glyph glyph-name="uni2197" unicode="&#x2197;" horiz-adv-x="1820" 
d="M322 0l-177 176l1139 1163l-307 74l698 143l-143 -696l-59 316z" />
    <glyph glyph-name="uni2198" unicode="&#x2198;" horiz-adv-x="1820" 
d="M322 1556l1151 -1175l59 315l143 -696l-698 143l307 74l-1139 1163z" />
    <glyph glyph-name="uni2199" unicode="&#x2199;" horiz-adv-x="1820" 
d="M1499 1556l176 -176l-1140 -1163l307 -74l-697 -143l144 696l57 -315z" />
    <glyph glyph-name="partialdiff" unicode="&#x2202;" horiz-adv-x="1331" 
d="M629 -33q-230 0 -365 136.5t-135 365.5q0 240 145.5 390.5t366.5 150.5q128 0 216 -54.5t136 -144.5q10 263 -78.5 397.5t-263.5 134.5q-129 0 -214 -63.5t-103 -204.5h-234q29 222 180.5 351.5t378.5 129.5q264 0 418 -203t154 -575q0 -199 -43.5 -353.5t-123 -254.5
t-189.5 -151.5t-246 -51.5zM647 195q130 0 206.5 95.5t76.5 233.5q0 121 -62 191.5t-176 70.5q-126 0 -204 -87t-78 -232q0 -126 63.5 -199t173.5 -73z" />
    <glyph glyph-name="emptyset" unicode="&#x2205;" horiz-adv-x="1458" 
d="M1110 1024q99 -77 153 -197.5t54 -269.5q0 -265 -162 -427.5t-426 -162.5q-120 0 -215 33l-149 -254h-218l201 344q-100 78 -154.5 198t-54.5 269q0 265 162.5 427.5t427.5 162.5q125 0 215 -33l150 254h217zM342 557q0 -178 113 -285l383 658q-53 16 -109 16
q-173 0 -280 -107t-107 -282zM729 168q175 0 281 107t106 282q0 179 -112 285l-383 -658q53 -16 108 -16z" />
    <glyph glyph-name="product" unicode="&#x220f;" horiz-adv-x="1593" 
d="M166 -238v1794h1264v-1794h-293v1502h-678v-1502h-293z" />
    <glyph glyph-name="summation" unicode="&#x2211;" horiz-adv-x="1593" 
d="M1409 1264h-950l436 -564l-436 -645h971v-293h-1264v314l403 624l-403 543v313h1243v-292z" />
    <glyph glyph-name="minus" unicode="&#x2212;" horiz-adv-x="1116" 
d="M1028 436h-942v209h942v-209z" />
    <glyph glyph-name="radical" unicode="&#x221a;" horiz-adv-x="1748" 
d="M1655 1556v-258h-510l-527 -1531h-301l-301 786h295l119 -369l37 -112h4l35 112l448 1372h701z" />
    <glyph glyph-name="infinity" unicode="&#x221e;" horiz-adv-x="1806" 
d="M483 172q-189 0 -308.5 115t-119.5 301q0 185 119.5 298t308.5 113q133 0 245 -61t175 -166q64 105 175 166t245 61q189 0 308.5 -113t119.5 -298q0 -186 -119.5 -301t-308.5 -115q-131 0 -243 62t-177 167q-65 -105 -177 -167t-243 -62zM1307 373q95 0 158 59t63 154
t-64 154t-161 59q-89 0 -159.5 -56.5t-107.5 -156.5q34 -98 106 -155.5t165 -57.5zM504 375q98 0 174.5 57t112.5 154q-37 99 -112 155t-171 56q-99 0 -163 -58t-64 -153q0 -94 62.5 -152.5t160.5 -58.5z" />
    <glyph glyph-name="integral" unicode="&#x222b;" horiz-adv-x="1273" 
d="M1044 1589q44 0 90.5 -4.5t55.5 -7.5l-41 -225q-1 0 -9 1.5t-22.5 3t-30.5 1.5q-166 0 -190 -137l-215 -1217q-15 -87 -43.5 -152.5t-79.5 -121.5t-134 -85.5t-196 -29.5q-44 0 -90 4.5t-55 7.5l41 228q14 -7 61 -7q167 0 191 138l213 1214q16 87 44.5 152.5t79.5 121.5
t134 85.5t196 29.5z" />
    <glyph glyph-name="approxequal" unicode="&#x2248;" horiz-adv-x="1449" 
d="M942 612q-58 0 -109.5 19t-87.5 46t-68 54.5t-66.5 46.5t-67.5 19q-49 0 -83 -35t-34 -113v-26h-201v30q0 132 80 227t223 95q60 0 111 -17.5t86 -43t66.5 -51t65 -43t67.5 -17.5q43 0 71.5 29.5t28.5 99.5v24h201v-20q0 -61 -15.5 -116t-47.5 -103t-89 -76.5t-131 -28.5
zM942 184q-58 0 -109.5 19t-87.5 46t-68 54.5t-66.5 46.5t-67.5 19q-49 0 -83 -35.5t-34 -112.5v-26h-201v30q0 84 33 155.5t103.5 119t166.5 47.5q60 0 111 -18t86 -43.5t66.5 -51t65 -43.5t67.5 -18q43 0 71.5 29.5t28.5 99.5v24h201v-20q0 -48 -9.5 -93t-31 -87
t-53.5 -73t-80.5 -50t-108.5 -19z" />
    <glyph glyph-name="notequal" unicode="&#x2260;" horiz-adv-x="1284" 
d="M1114 682h-287l-75 -240h362v-209h-428l-74 -233h-278l74 233h-236v209h303l76 240h-379v209h444l58 184h278l-59 -184h221v-209z" />
    <glyph glyph-name="lessequal" unicode="&#x2264;" horiz-adv-x="1185" 
d="M788 211l-645 340v219l861 477v-227l-642 -358l682 -359v-303h-942v211h686z" />
    <glyph glyph-name="greaterequal" unicode="&#x2265;" horiz-adv-x="1187" 
d="M397 211h684v-211h-942v303l682 359l-641 358v227l860 -477v-219z" />
    <glyph glyph-name="lozenge" unicode="&#x25ca;" horiz-adv-x="1038" 
d="M385 -33l-369 670l369 670h272l365 -670l-365 -670h-272zM522 109l275 528l-275 530l-276 -530z" />
    <glyph glyph-name="I.ss01" horiz-adv-x="1538" 
d="M145 0v303h471v950h-471v303h1246l2 -303h-471v-950h471l-2 -303h-1246z" />
    <glyph glyph-name="Iacute.ss01" horiz-adv-x="1538" 
d="M1065 2038l-338 -359h-256l221 359h373zM145 0v303h471v950h-471v303h1246l2 -303h-471v-950h471l-2 -303h-1246z" />
    <glyph glyph-name="Icircumflex.ss01" horiz-adv-x="1538" 
d="M1176 1679h-234l-172 215l-174 -215h-236l242 359h332zM145 0v303h471v950h-471v303h1246l2 -303h-471v-950h471l-2 -303h-1246z" />
    <glyph glyph-name="Idieresis.ss01" horiz-adv-x="1538" 
d="M584 1769q-59 0 -101.5 42.5t-42.5 103.5q0 58 42.5 98.5t101.5 40.5q61 0 102 -40t41 -99q0 -61 -42 -103.5t-101 -42.5zM948 1769q-60 0 -102.5 42.5t-42.5 103.5q0 58 42.5 98.5t102.5 40.5t102 -40.5t42 -98.5q0 -61 -43 -103.5t-101 -42.5zM145 0v303h471v950h-471
v303h1246l2 -303h-471v-950h471l-2 -303h-1246z" />
    <glyph glyph-name="Idotaccent.ss01" horiz-adv-x="1538" 
d="M768 1716q-73 0 -125.5 52t-52.5 128q0 72 53 123.5t125 51.5q74 0 127 -51.5t53 -123.5q0 -76 -53 -128t-127 -52zM145 0v303h471v950h-471v303h1246l2 -303h-471v-950h471l-2 -303h-1246z" />
    <glyph glyph-name="Igrave.ss01" horiz-adv-x="1538" 
d="M471 2038h373l221 -359h-256zM145 0v303h471v950h-471v303h1246l2 -303h-471v-950h471l-2 -303h-1246z" />
    <glyph glyph-name="Imacron.ss01" horiz-adv-x="1538" 
d="M1135 1735h-729v221h729v-221zM145 0v303h471v950h-471v303h1246l2 -303h-471v-950h471l-2 -303h-1246z" />
    <glyph glyph-name="Iogonek.ss01" horiz-adv-x="1538" 
d="M922 1253v-950h471l-2 -303h-555q-131 -112 -131 -195q0 -81 135 -81q34 0 61 4v-146q-40 -6 -96 -6q-133 0 -194.5 53.5t-61.5 134.5q0 39 16 76.5t45 68.5t51 50t52 41h-568v303h471v950h-471v303h1246l2 -303h-471z" />
    <glyph glyph-name="J.ss01" horiz-adv-x="1339" 
d="M621 -33q-565 0 -596 541h319q15 -139 77.5 -203.5t192.5 -64.5q49 0 87.5 8t67 27.5t48.5 41.5t33.5 61.5t21 74.5t11.5 94t5 106.5t1 124.5v475h-752v303h1057v-882q0 -171 -27.5 -295.5t-92 -220t-177.5 -143.5t-276 -48z" />
    <glyph glyph-name="K.ss01" horiz-adv-x="1478" 
d="M963 813l473 -813h-365l-295 498l-295 -498h-313v1556h305v-1009l563 1009h363z" />
    <glyph glyph-name="Kcommaaccent.ss01" horiz-adv-x="1478" 
d="M963 813l473 -813h-365l-295 498l-295 -498h-313v1556h305v-1009l563 1009h363zM545 -492l69 349h285l-129 -349h-225z" />
    <glyph glyph-name="M.ss01" horiz-adv-x="1906" 
d="M166 0v1556h340l448 -954l447 954h340v-1556h-305v1083l-334 -741h-297l-334 741v-1083h-305z" />
    <glyph glyph-name="Q.ss01" horiz-adv-x="1765" 
d="M885 -33q-46 0 -66 2l-86 -133h672v-237h-969v237l123 191q-219 88 -339 288t-120 463q0 172 53.5 320t152 257.5t247.5 171.5t332 62q182 0 331 -62t247 -171.5t151 -257.5t53 -320t-53 -320t-151 -257.5t-247 -171.5t-331 -62zM883 1317q-86 0 -160 -29t-127.5 -79.5
t-92 -118.5t-57 -147.5t-18.5 -164.5q0 -107 30 -203.5t86 -171.5t144 -119t195 -44t194.5 44t143.5 119t86 171.5t30 203.5t-30 203.5t-86 172t-143.5 119.5t-194.5 44z" />
    <glyph glyph-name="R.ss01" horiz-adv-x="1423" 
d="M166 0v1556h584q252 0 397 -118.5t145 -343.5q0 -171 -94.5 -286t-269.5 -144l452 -664h-354l-442 635h-113v-635h-305zM471 897h246q107 0 180.5 48t73.5 145t-72.5 148.5t-196.5 51.5h-231v-393z" />
    <glyph glyph-name="Racute.ss01" horiz-adv-x="1406" 
d="M1069 2038l-338 -359h-256l221 359h373zM166 0v1556h584q252 0 397 -118.5t145 -343.5q0 -171 -94.5 -286t-269.5 -144l452 -664h-354l-442 635h-113v-635h-305zM471 897h246q107 0 180.5 48t73.5 145t-72.5 148.5t-196.5 51.5h-231v-393z" />
    <glyph glyph-name="Rcaron.ss01" horiz-adv-x="1406" 
d="M1180 2038l-242 -359h-332l-241 359h235l174 -215l170 215h236zM166 0v1556h584q252 0 397 -118.5t145 -343.5q0 -171 -94.5 -286t-269.5 -144l452 -664h-354l-442 635h-113v-635h-305zM471 897h246q107 0 180.5 48t73.5 145t-72.5 148.5t-196.5 51.5h-231v-393z" />
    <glyph glyph-name="Rcommaaccent.ss01" horiz-adv-x="1406" 
d="M166 0v1556h584q252 0 397 -118.5t145 -343.5q0 -171 -94.5 -286t-269.5 -144l452 -664h-354l-442 635h-113v-635h-305zM471 897h246q107 0 180.5 48t73.5 145t-72.5 148.5t-196.5 51.5h-231v-393zM596 -492l70 349h284l-129 -349h-225z" />
    <glyph glyph-name="U.ss01" horiz-adv-x="1560" 
d="M760 -33q-136 0 -238.5 32t-170 88.5t-109 143.5t-59 188.5t-17.5 231.5v905h305v-796q0 -76 2 -127.5t9.5 -111t21 -97.5t38 -76.5t59 -59.5t85 -34.5t115.5 -13.5q51 0 92.5 8t73.5 21.5t56.5 37t41.5 47.5t28.5 61.5t18.5 71t10.5 83t4.5 90.5t1 100v796h308v-1556
h-308v123q-53 -85 -139.5 -120.5t-228.5 -35.5z" />
    <glyph glyph-name="Uacute.ss01" horiz-adv-x="1560" 
d="M1118 2038l-338 -359h-256l221 359h373zM760 -33q-136 0 -238.5 32t-170 88.5t-109 143.5t-59 188.5t-17.5 231.5v905h305v-796q0 -76 2 -127.5t9.5 -111t21 -97.5t38 -76.5t59 -59.5t85 -34.5t115.5 -13.5q51 0 92.5 8t73.5 21.5t56.5 37t41.5 47.5t28.5 61.5t18.5 71
t10.5 83t4.5 90.5t1 100v796h308v-1556h-308v123q-53 -85 -139.5 -120.5t-228.5 -35.5z" />
    <glyph glyph-name="Ucircumflex.ss01" horiz-adv-x="1581" 
d="M1229 1679h-236l-172 215l-172 -215h-235l241 359h332zM760 -33q-137 0 -239.5 32t-169.5 88.5t-109 143.5t-59 188.5t-17 231.5v905h305v-796q0 -76 2 -127.5t9.5 -111t21 -97.5t38 -76.5t59 -59.5t85 -34.5t115.5 -13.5q51 0 92.5 8t73.5 21.5t56.5 37t41.5 47.5
t28.5 61.5t18.5 71t10.5 83t4.5 90.5t1 100v796h308v-1556h-308v123q-53 -85 -139.5 -120.5t-228.5 -35.5z" />
    <glyph glyph-name="Udieresis.ss01" horiz-adv-x="1560" 
d="M502 1798v240h241v-240h-241zM901 1798v240h242v-240h-242zM760 -33q-136 0 -238.5 32t-170 88.5t-109 143.5t-59 188.5t-17.5 231.5v905h305v-796q0 -76 2 -127.5t9.5 -111t21 -97.5t38 -76.5t59 -59.5t85 -34.5t115.5 -13.5q51 0 92.5 8t73.5 21.5t56.5 37t41.5 47.5
t28.5 61.5t18.5 71t10.5 83t4.5 90.5t1 100v796h308v-1556h-308v123q-53 -85 -139.5 -120.5t-228.5 -35.5z" />
    <glyph glyph-name="Ugrave.ss01" horiz-adv-x="1560" 
d="M524 2038h373l221 -359h-256zM760 -33q-136 0 -238.5 32t-170 88.5t-109 143.5t-59 188.5t-17.5 231.5v905h305v-796q0 -76 2 -127.5t9.5 -111t21 -97.5t38 -76.5t59 -59.5t85 -34.5t115.5 -13.5q51 0 92.5 8t73.5 21.5t56.5 37t41.5 47.5t28.5 61.5t18.5 71t10.5 83
t4.5 90.5t1 100v796h308v-1556h-308v123q-53 -85 -139.5 -120.5t-228.5 -35.5z" />
    <glyph glyph-name="Uhungarumlaut.ss01" horiz-adv-x="1568" 
d="M850 2038l-338 -359h-256l221 359h373zM1384 2038l-337 -359h-256l221 359h372zM760 -33q-136 0 -238.5 32t-170 88.5t-109 143.5t-59 188.5t-17.5 231.5v905h305v-796q0 -76 2 -127.5t9.5 -111t21 -97.5t38 -76.5t59 -59.5t85 -34.5t115.5 -13.5q51 0 92.5 8t73.5 21.5
t56.5 37t41.5 47.5t28.5 61.5t18.5 71t10.5 83t4.5 90.5t1 100v796h308v-1556h-308v123q-53 -85 -139.5 -120.5t-228.5 -35.5z" />
    <glyph glyph-name="Umacron.ss01" horiz-adv-x="1560" 
d="M1186 1735h-729v221h729v-221zM760 -33q-136 0 -238.5 32t-170 88.5t-109 143.5t-59 188.5t-17.5 231.5v905h305v-796q0 -76 2 -127.5t9.5 -111t21 -97.5t38 -76.5t59 -59.5t85 -34.5t115.5 -13.5q51 0 92.5 8t73.5 21.5t56.5 37t41.5 47.5t28.5 61.5t18.5 71t10.5 83
t4.5 90.5t1 100v796h308v-1556h-308v123q-53 -85 -139.5 -120.5t-228.5 -35.5z" />
    <glyph glyph-name="Uogonek.ss01" horiz-adv-x="1560" 
d="M1128 1556h308v-1556h-308v123q-79 -130 -258 -150q-100 -95 -100 -168q0 -81 135 -81q35 0 62 4v-146q-41 -6 -97 -6q-134 0 -196 53.5t-62 134.5q0 102 123 203q-130 3 -228 36.5t-162.5 90.5t-105 143t-57 186.5t-16.5 227.5v905h305v-796q0 -76 2 -127.5t9.5 -111
t21 -97.5t38 -76.5t59 -59.5t85 -34.5t115.5 -13.5q51 0 92.5 8t73.5 21.5t56.5 37t41.5 47.5t28.5 61.5t18.5 71t10.5 83t4.5 90.5t1 100v796z" />
    <glyph glyph-name="Uring.ss01" horiz-adv-x="1560" 
d="M821 1679q-89 0 -142.5 53.5t-53.5 141.5q0 86 53.5 138t142.5 52q88 0 142.5 -52t54.5 -138q0 -88 -54.5 -141.5t-142.5 -53.5zM821 1802q31 0 50.5 19.5t19.5 50.5q0 30 -19.5 48.5t-50.5 18.5q-32 0 -50.5 -18t-18.5 -49t18.5 -50.5t50.5 -19.5zM760 -33
q-136 0 -238.5 32t-170 88.5t-109 143.5t-59 188.5t-17.5 231.5v905h305v-796q0 -76 2 -127.5t9.5 -111t21 -97.5t38 -76.5t59 -59.5t85 -34.5t115.5 -13.5q51 0 92.5 8t73.5 21.5t56.5 37t41.5 47.5t28.5 61.5t18.5 71t10.5 83t4.5 90.5t1 100v796h308v-1556h-308v123
q-53 -85 -139.5 -120.5t-228.5 -35.5z" />
    <glyph glyph-name="X.ss01" horiz-adv-x="1597" 
d="M43 0l530 784l-493 772h358l361 -600l362 600h357l-492 -772l528 -784h-358l-397 621l-398 -621h-358z" />
    <glyph glyph-name="i.loclTRK" horiz-adv-x="598" 
d="M299 1235q-73 0 -125.5 52t-52.5 128q0 72 53 123t125 51q74 0 127 -51t53 -123q0 -76 -53 -128t-127 -52zM147 0v1075h304v-1075h-304z" />
    <glyph glyph-name="a.ss01" horiz-adv-x="1269" 
d="M545 -33q-214 0 -344.5 161.5t-130.5 414.5q0 163 55.5 290t164.5 201t255 74q106 0 181.5 -41.5t129.5 -128.5v137h303v-1075h-303v133q-41 -74 -120 -120t-191 -46zM612 209q108 0 176 78t68 215v86q0 128 -69 203t-177 75q-115 0 -182.5 -85t-67.5 -240
q0 -158 68.5 -245t183.5 -87z" />
    <glyph glyph-name="aacute.ss01" horiz-adv-x="1269" 
d="M913 1554l-338 -358h-256l222 358h372zM545 -33q-214 0 -344.5 161.5t-130.5 414.5q0 163 55.5 290t164.5 201t255 74q106 0 181.5 -41.5t129.5 -128.5v137h303v-1075h-303v133q-41 -74 -120 -120t-191 -46zM612 209q108 0 176 78t68 215v86q0 128 -69 203t-177 75
q-115 0 -182.5 -85t-67.5 -240q0 -158 68.5 -245t183.5 -87z" />
    <glyph glyph-name="abreve.ss01" horiz-adv-x="1269" 
d="M801 1554h221q0 -161 -111.5 -259.5t-294.5 -98.5t-295 98.5t-112 259.5h221q0 -81 51 -130.5t135 -49.5q83 0 134 49t51 131zM545 -33q-214 0 -344.5 161.5t-130.5 414.5q0 163 55.5 290t164.5 201t255 74q106 0 181.5 -41.5t129.5 -128.5v137h303v-1075h-303v133
q-41 -74 -120 -120t-191 -46zM612 209q108 0 176 78t68 215v86q0 128 -69 203t-177 75q-115 0 -182.5 -85t-67.5 -240q0 -158 68.5 -245t183.5 -87z" />
    <glyph glyph-name="acircumflex.ss01" horiz-adv-x="1269" 
d="M1024 1196h-236l-172 215l-174 -215h-233l242 358h331zM545 -33q-214 0 -344.5 161.5t-130.5 414.5q0 163 55.5 290t164.5 201t255 74q106 0 181.5 -41.5t129.5 -128.5v137h303v-1075h-303v133q-41 -74 -120 -120t-191 -46zM612 209q108 0 176 78t68 215v86
q0 128 -69 203t-177 75q-115 0 -182.5 -85t-67.5 -240q0 -158 68.5 -245t183.5 -87z" />
    <glyph glyph-name="adieresis.ss01" horiz-adv-x="1269" 
d="M436 1288q-58 0 -100.5 42.5t-42.5 103.5q0 58 42.5 98.5t100.5 40.5q61 0 103.5 -40t42.5 -99q0 -61 -43.5 -103.5t-102.5 -42.5zM801 1288q-59 0 -101.5 42.5t-42.5 103.5q0 58 42.5 98.5t101.5 40.5q60 0 101.5 -40.5t41.5 -98.5q0 -61 -42 -103.5t-101 -42.5z
M545 -33q-214 0 -344.5 161.5t-130.5 414.5q0 163 55.5 290t164.5 201t255 74q106 0 181.5 -41.5t129.5 -128.5v137h303v-1075h-303v133q-41 -74 -120 -120t-191 -46zM612 209q108 0 176 78t68 215v86q0 128 -69 203t-177 75q-115 0 -182.5 -85t-67.5 -240q0 -158 68.5 -245
t183.5 -87z" />
    <glyph glyph-name="agrave.ss01" horiz-adv-x="1269" 
d="M319 1554h373l221 -358h-256zM545 -33q-214 0 -344.5 161.5t-130.5 414.5q0 163 55.5 290t164.5 201t255 74q106 0 181.5 -41.5t129.5 -128.5v137h303v-1075h-303v133q-41 -74 -120 -120t-191 -46zM612 209q108 0 176 78t68 215v86q0 128 -69 203t-177 75
q-115 0 -182.5 -85t-67.5 -240q0 -158 68.5 -245t183.5 -87z" />
    <glyph glyph-name="amacron.ss01" horiz-adv-x="1269" 
d="M979 1251h-729v222h729v-222zM545 -33q-214 0 -344.5 161.5t-130.5 414.5q0 163 55.5 290t164.5 201t255 74q106 0 181.5 -41.5t129.5 -128.5v137h303v-1075h-303v133q-41 -74 -120 -120t-191 -46zM612 209q108 0 176 78t68 215v86q0 128 -69 203t-177 75
q-115 0 -182.5 -85t-67.5 -240q0 -158 68.5 -245t183.5 -87z" />
    <glyph glyph-name="aogonek.ss01" horiz-adv-x="1269" 
d="M1028 0q-133 -114 -133 -197q0 -79 135 -79q35 0 62 4v-148q-40 -6 -97 -6q-132 0 -194 54.5t-62 135.5q0 39 16.5 76t46 68.5t51.5 50.5t52 41h-49v133q-41 -74 -120 -120t-191 -46q-214 0 -344.5 161.5t-130.5 414.5q0 163 55.5 290t164.5 201t255 74
q106 0 181.5 -41.5t129.5 -128.5v137h303v-1075h-131zM856 502v86q0 128 -69 203t-177 75q-115 0 -182.5 -85t-67.5 -240q0 -158 68.5 -245t183.5 -87q108 0 176 78t68 215z" />
    <glyph glyph-name="aring.ss01" horiz-adv-x="1269" 
d="M614 1196q-88 0 -142 53.5t-54 141.5q0 86 54 138t142 52q89 0 143 -52t54 -138q0 -88 -54 -141.5t-143 -53.5zM614 1319q32 0 51 19.5t19 50.5t-19 49t-51 18q-31 0 -50 -18t-19 -49t19 -50.5t50 -19.5zM545 -33q-214 0 -344.5 161.5t-130.5 414.5q0 163 55.5 290
t164.5 201t255 74q106 0 181.5 -41.5t129.5 -128.5v137h303v-1075h-303v133q-41 -74 -120 -120t-191 -46zM612 209q108 0 176 78t68 215v86q0 128 -69 203t-177 75q-115 0 -182.5 -85t-67.5 -240q0 -158 68.5 -245t183.5 -87z" />
    <glyph glyph-name="atilde.ss01" horiz-adv-x="1269" 
d="M477 1524q42 0 81.5 -17t63.5 -37.5t53 -37.5t52 -17q33 0 51.5 25.5t18.5 72.5h194q0 -134 -67 -210t-176 -76q-46 0 -85.5 17t-62 37t-48.5 37t-48 17q-31 0 -50.5 -26.5t-19.5 -71.5h-192q0 127 65 207t170 80zM545 -33q-214 0 -344.5 161.5t-130.5 414.5
q0 163 55.5 290t164.5 201t255 74q106 0 181.5 -41.5t129.5 -128.5v137h303v-1075h-303v133q-41 -74 -120 -120t-191 -46zM612 209q108 0 176 78t68 215v86q0 128 -69 203t-177 75q-115 0 -182.5 -85t-67.5 -240q0 -158 68.5 -245t183.5 -87z" />
    <glyph glyph-name="d.ss01" horiz-adv-x="1292" 
d="M530 -33q-214 0 -344.5 159t-130.5 419q0 254 131 408.5t346 154.5q89 0 175 -44t135 -116v608h303v-1556h-221l-82 123q-39 -70 -126 -113t-186 -43zM598 209q110 0 177 80t67 213v86q0 126 -67.5 202t-178.5 76q-109 0 -176.5 -89t-67.5 -236q0 -150 67.5 -241
t178.5 -91z" />
    <glyph glyph-name="i.ss01" horiz-adv-x="579" 
d="M289 1219q-73 0 -125.5 52t-52.5 128q0 72 53 123t125 51q76 0 128 -51t52 -123q0 -76 -53 -128t-127 -52zM139 0v1075h303v-1075h-303z" />
    <glyph glyph-name="idieresis.ss01" horiz-adv-x="598" 
d="M115 1288q-59 0 -101.5 42.5t-42.5 103.5q0 58 42.5 98.5t101.5 40.5q61 0 103 -40t42 -99q0 -61 -43 -103.5t-102 -42.5zM479 1288q-59 0 -102 42.5t-43 103.5q0 58 43 98.5t102 40.5q60 0 102 -40.5t42 -98.5q0 -61 -43 -103.5t-101 -42.5zM147 0v1075h304v-1075h-304z
" />
    <glyph glyph-name="j.ss01" horiz-adv-x="589" 
d="M299 1219q-73 0 -126.5 52.5t-53.5 127.5q0 71 53.5 122.5t126.5 51.5q74 0 127 -51t53 -123q0 -76 -53 -128t-127 -52zM98 -492q-54 0 -99 3t-63 7l-18 3v225q23 -6 66 -6q163 0 163 170v1165h304v-1218q0 -160 -89.5 -254.5t-263.5 -94.5z" />
    <glyph glyph-name="k.ss01" horiz-adv-x="1175" 
d="M1159 0h-307l-205 352l-233 -352h-303v1556h303v-1101l387 620h321l-313 -477z" />
    <glyph glyph-name="kcommaaccent.ss01" horiz-adv-x="1175" 
d="M1159 0h-307l-205 352l-233 -352h-303v1556h303v-1101l387 620h321l-313 -477zM489 -492l70 349h285l-129 -349h-226z" />
    <glyph glyph-name="l.ss01" horiz-adv-x="524" 
d="M111 0v1556h241l62 -483v-1073h-303z" />
    <glyph glyph-name="lacute.ss01" horiz-adv-x="604" 
d="M758 1995l-338 -359h-256l221 359h373zM117 0v1556h241l62 -483v-1073h-303z" />
    <glyph glyph-name="lcaron.ss01" horiz-adv-x="598" 
d="M117 0v1556h241l62 -483v-1073h-303zM975 1556l-215 -358h-236l99 358h352z" />
    <glyph glyph-name="lcommaaccent.ss01" horiz-adv-x="598" 
d="M117 0v1556h241l62 -483v-1073h-303zM84 -492l70 349h284l-129 -349h-225z" />
    <glyph glyph-name="lslash.ss01" horiz-adv-x="524" 
d="M618 1163v-323l-223 -150v-690h-303v487l-166 -110v323l166 111v745h242l61 -483v-59z" />
    <glyph glyph-name="n.ss01" horiz-adv-x="1288" 
d="M111 0v1075h1052v-1075h-303v776h-446v-776h-303z" />
    <glyph glyph-name="nacute.ss01" horiz-adv-x="1288" 
d="M971 1556l-338 -358h-256l221 358h373zM111 0v1075h1052v-1075h-303v776h-446v-776h-303z" />
    <glyph glyph-name="ncaron.ss01" horiz-adv-x="1288" 
d="M1081 1556l-241 -358h-332l-242 358h236l172 -215l172 215h235zM111 0v1075h1052v-1075h-303v776h-446v-776h-303z" />
    <glyph glyph-name="ncommaaccent.ss01" horiz-adv-x="1288" 
d="M111 0v1075h1052v-1075h-303v776h-446v-776h-303zM498 -492l69 349h285l-129 -349h-225z" />
    <glyph glyph-name="ntilde.ss01" horiz-adv-x="1288" 
d="M537 1526q42 0 81 -17t63.5 -37.5t53 -37.5t51.5 -17q31 0 50.5 26.5t19.5 72.5h193q0 -134 -66.5 -210.5t-175.5 -76.5q-46 0 -85.5 17t-62 37t-49 37t-49.5 17q-30 0 -48.5 -26.5t-18.5 -71.5h-193q0 127 65.5 207t170.5 80zM111 0v1075h1052v-1075h-303v776h-446v-776
h-303z" />
    <glyph glyph-name="q.ss01" horiz-adv-x="1292" 
d="M842 -492v615q-39 -70 -126 -113t-186 -43q-214 0 -344.5 158.5t-130.5 417.5q0 255 130.5 410t344.5 155q91 0 177 -44t135 -116l82 127h221v-1567h-303zM598 209q110 0 177 80t67 213v86q0 126 -67.5 202t-178.5 76q-109 0 -176.5 -89t-67.5 -236q0 -150 67.5 -241
t178.5 -91z" />
    <glyph glyph-name="r.ss01" horiz-adv-x="833" 
d="M111 0v1075h682v-299h-379v-776h-303z" />
    <glyph glyph-name="racute.ss01" horiz-adv-x="872" 
d="M786 1556l-337 -358h-256l221 358h372zM113 0v1075h682v-299h-379v-776h-303z" />
    <glyph glyph-name="rcaron.ss01" horiz-adv-x="870" 
d="M897 1556l-242 -358h-331l-242 358h235l172 -215l173 215h235zM113 0v1075h682v-299h-379v-776h-303z" />
    <glyph glyph-name="rcommaaccent.ss01" horiz-adv-x="870" 
d="M145 0v1075h682v-299h-378v-776h-304zM100 -492l70 349h285l-129 -349h-226z" />
    <glyph glyph-name="germandbls.ss01" horiz-adv-x="1652" 
d="M1040 -33q-234 0 -373 126t-141 313h297q11 -76 67.5 -124.5t139.5 -48.5q58 0 103 24.5t70.5 67t38.5 93.5t13 108q0 128 -57.5 202.5t-163.5 74.5q-67 0 -112.5 -32t-85.5 -95l-39 -64l-258 72l282 569h-407v-1253h-303v1556h976v-303l-184 -323h10q49 49 102 72.5
t128 23.5q102 0 185.5 -40.5t137.5 -110.5t83.5 -162t29.5 -195q0 -111 -33 -208.5t-97.5 -175t-169.5 -122.5t-239 -45z" />
    <glyph glyph-name="t.ss01" horiz-adv-x="768" 
d="M178 0v809h-129v266h129v277h303v-277h213v-266h-213v-809h-303z" />
    <glyph glyph-name="tbar.ss01" horiz-adv-x="866" 
d="M776 809h-211v-209h211v-229h-211v-371h-303v371h-129v229h129v209h-129v266h129v277h303v-277h211v-266z" />
    <glyph glyph-name="tcaron.ss01" horiz-adv-x="880" 
d="M1110 1556l-215 -358h-238l99 358h354zM197 0v809h-129v266h129v277h303v-277h213v-266h-213v-809h-303z" />
    <glyph glyph-name="uni0163.ss01" horiz-adv-x="768" 
d="M479 0h-69l-107 -104h39q84 0 135 -39.5t51 -104.5q0 -78 -66.5 -122t-201.5 -44h-117v117h115q42 0 67 12.5t25 34.5q0 19 -25.5 30t-66.5 11h-94v105l94 104h-82v809h-127v266h127v277h303v-277h213v-266h-213v-809z" />
    <glyph glyph-name="uni021B.ss01" horiz-adv-x="770" 
d="M178 0v809h-127v266h127v277h303v-277h213v-266h-213v-809h-303zM113 -492l69 349h285l-129 -349h-225z" />
    <glyph glyph-name="u.ss01" horiz-adv-x="1347" 
d="M147 0v1075h304v-776h446v776h303v-1075h-1053z" />
    <glyph glyph-name="uacute.ss01" horiz-adv-x="1259" 
d="M922 1556l-338 -358h-256l221 358h373zM96 0v1075h303v-776h447v776h303v-1075h-1053z" />
    <glyph glyph-name="ucircumflex.ss01" horiz-adv-x="1259" 
d="M1032 1198h-235l-172 215l-172 -215h-236l242 358h332zM96 0v1075h303v-776h447v776h303v-1075h-1053z" />
    <glyph glyph-name="udieresis.ss01" horiz-adv-x="1259" 
d="M319 1317v239h242v-239h-242zM719 1317v239h242v-239h-242zM96 0v1075h303v-776h447v776h303v-1075h-1053z" />
    <glyph glyph-name="ugrave.ss01" horiz-adv-x="1259" 
d="M328 1556h372l222 -358h-256zM96 0v1075h303v-776h447v776h303v-1075h-1053z" />
    <glyph glyph-name="uhungarumlaut.ss01" horiz-adv-x="1343" 
d="M696 1556l-338 -358h-256l222 358h372zM1231 1556l-338 -358h-256l221 358h373zM139 0v1075h303v-776h447v776h303v-1075h-1053z" />
    <glyph glyph-name="umacron.ss01" horiz-adv-x="1259" 
d="M989 1253h-729v222h729v-222zM96 0v1075h303v-776h447v776h303v-1075h-1053z" />
    <glyph glyph-name="uogonek.ss01" horiz-adv-x="1259" 
d="M735 0q-131 -112 -131 -195q0 -81 135 -81q35 0 62 4v-146q-41 -6 -96 -6q-133 0 -194.5 53.5t-61.5 134.5q0 117 163 236h-516v1075h303v-776h447v776h303v-1075h-414z" />
    <glyph glyph-name="uring.ss01" horiz-adv-x="1259" 
d="M625 1198q-89 0 -143 53.5t-54 141.5q0 86 54 138t143 52t142.5 -52t53.5 -138q0 -88 -53.5 -141.5t-142.5 -53.5zM625 1321q31 0 50 19.5t19 50.5t-19 49t-50 18t-50.5 -18.5t-19.5 -48.5q0 -31 19.5 -50.5t50.5 -19.5zM96 0v1075h303v-776h447v776h303v-1075h-1053z
" />
    <glyph glyph-name="y.ss01" horiz-adv-x="1150" 
d="M424 -492v494l-408 1073h314l211 -663l32 -105h5l34 105l209 663h314l-408 -1073v-494h-303z" />
    <glyph glyph-name="yacute.ss01" horiz-adv-x="1150" 
d="M872 1556l-337 -358h-256l221 358h372zM422 -492v494l-406 1073h314l209 -663l32 -105h7l32 105l209 663h314l-408 -1073v-494h-303z" />
    <glyph glyph-name="ycircumflex.ss01" horiz-adv-x="1150" 
d="M983 1198h-235l-173 215l-172 -215h-235l242 358h331zM422 -492v494l-406 1073h314l209 -663l32 -105h7l32 105l209 663h314l-408 -1073v-494h-303z" />
    <glyph glyph-name="ydieresis.ss01" horiz-adv-x="1150" 
d="M254 1317v239h242v-239h-242zM653 1317v239h242v-239h-242zM424 -492v494l-408 1073h314l211 -663l32 -105h5l34 105l209 663h314l-408 -1073v-494h-303z" />
    <glyph glyph-name="ygrave.ss01" horiz-adv-x="1150" 
d="M229 1556h373l221 -358h-256zM424 -492v494l-408 1073h314l211 -663l32 -105h5l34 105l209 663h314l-408 -1073v-494h-303z" />
    <glyph glyph-name="A.smcp" horiz-adv-x="1529" 
d="M57 0l555 1323h306l552 -1323h-323l-115 283h-536l-113 -283h-326zM592 551h346l-174 436z" />
    <glyph glyph-name="Aacute.smcp" horiz-adv-x="1529" 
d="M1061 1804l-338 -358h-256l221 358h373zM57 0l555 1323h306l552 -1323h-323l-115 283h-536l-113 -283h-326zM592 551h346l-174 436z" />
    <glyph glyph-name="Abreve.smcp" horiz-adv-x="1529" 
d="M948 1804h223q0 -161 -111.5 -259.5t-295.5 -98.5q-183 0 -295.5 98.5t-112.5 259.5h224q0 -82 50.5 -131t133.5 -49t133.5 49t50.5 131zM57 0l555 1323h306l552 -1323h-323l-115 283h-536l-113 -283h-326zM592 551h346l-174 436z" />
    <glyph glyph-name="Acircumflex.smcp" horiz-adv-x="1529" 
d="M1171 1446h-235l-172 215l-172 -215h-236l242 358h332zM57 0l555 1323h306l552 -1323h-323l-115 283h-536l-113 -283h-326zM592 551h346l-174 436z" />
    <glyph glyph-name="Adieresis.smcp" horiz-adv-x="1529" 
d="M444 1565v239h242v-239h-242zM844 1565v239h241v-239h-241zM57 0l555 1323h306l552 -1323h-323l-115 283h-536l-113 -283h-326zM592 551h346l-174 436z" />
    <glyph glyph-name="Agrave.smcp" horiz-adv-x="1529" 
d="M467 1804h373l221 -358h-256zM57 0l555 1323h306l552 -1323h-323l-115 283h-536l-113 -283h-326zM592 551h346l-174 436z" />
    <glyph glyph-name="Amacron.smcp" horiz-adv-x="1529" 
d="M1128 1501h-729v221h729v-221zM57 0l555 1323h306l552 -1323h-323l-115 283h-536l-113 -283h-326zM592 551h346l-174 436z" />
    <glyph glyph-name="Aogonek.smcp" horiz-adv-x="1529" 
d="M1161 -197q0 -82 135 -82q28 0 62 5v-146q-40 -6 -96 -6q-133 0 -194.5 53.5t-61.5 134.5q0 40 16.5 77.5t47 69.5t52 50t52.5 41h-27l-115 283h-536l-113 -283h-326l555 1323h306l552 -1323h-176q-133 -114 -133 -197zM592 551h346l-174 436z" />
    <glyph glyph-name="Aring.smcp" horiz-adv-x="1529" 
d="M764 1446q-88 0 -141.5 53t-53.5 141q0 86 53.5 138.5t141.5 52.5q89 0 143 -52.5t54 -138.5q0 -88 -54 -141t-143 -53zM764 1569q32 0 51 19t19 50t-19 49.5t-51 18.5q-31 0 -50.5 -18.5t-19.5 -49.5t19.5 -50t50.5 -19zM57 0l555 1323h306l552 -1323h-323l-115 283
h-536l-113 -283h-326zM592 551h346l-174 436z" />
    <glyph glyph-name="Atilde.smcp" horiz-adv-x="1529" 
d="M625 1774q42 0 81 -17t63.5 -37.5t53 -37.5t51.5 -17q33 0 51.5 25.5t18.5 72.5h195q0 -134 -67.5 -210t-176.5 -76q-46 0 -85.5 17t-62 37t-48.5 37t-48 17q-31 0 -50 -26.5t-19 -71.5h-193q0 127 65.5 207t170.5 80zM57 0l555 1323h306l552 -1323h-323l-115 283h-536
l-113 -283h-326zM592 551h346l-174 436z" />
    <glyph glyph-name="AE.smcp" horiz-adv-x="2168" 
d="M1270 305h737v-305h-1040v264h-459l-113 -264h-338l602 1323h1317v-305h-706v-197h645v-303h-645v-213zM831 1018l-194 -449h330v449h-136z" />
    <glyph glyph-name="AEacute.smcp" horiz-adv-x="2168" 
d="M1395 1804l-338 -358h-256l221 358h373zM1270 305h737v-305h-1040v264h-459l-113 -264h-338l602 1323h1317v-305h-706v-197h645v-303h-645v-213zM831 1018l-194 -449h330v449h-136z" />
    <glyph glyph-name="B.smcp" horiz-adv-x="1361" 
d="M162 0v1323h532q149 0 257.5 -35t172.5 -112.5t64 -192.5q0 -97 -53.5 -170.5t-143.5 -91.5q124 -23 197.5 -114.5t73.5 -215.5q0 -185 -138.5 -288t-367.5 -103h-594zM457 793h194q228 0 228 131q0 70 -56 107.5t-159 37.5h-207v-276zM457 254h233q118 0 190 41t72 125
t-73 126t-197 42h-225v-334z" />
    <glyph glyph-name="C.smcp" horiz-adv-x="1595" 
d="M803 -29q-135 0 -248 34.5t-194.5 96.5t-139 147.5t-85 187t-27.5 214.5q0 149 48 277t136 222.5t221.5 148t296.5 53.5q148 0 273 -46t209.5 -124.5t135.5 -178.5t64 -212h-315q-27 128 -125.5 215.5t-251.5 87.5q-181 0 -280 -123.5t-99 -311.5q0 -186 99.5 -308
t279.5 -122q80 0 147 25.5t112.5 69t75 96.5t42.5 112h315q-13 -113 -64.5 -213t-136 -178.5t-211 -124t-278.5 -45.5z" />
    <glyph glyph-name="Cacute.smcp" horiz-adv-x="1595" 
d="M1092 1804l-338 -358h-256l221 358h373zM803 -29q-135 0 -248 34.5t-194.5 96.5t-139 147.5t-85 187t-27.5 214.5q0 149 48 277t136 222.5t221.5 148t296.5 53.5q148 0 273 -46t209.5 -124.5t135.5 -178.5t64 -212h-315q-27 128 -125.5 215.5t-251.5 87.5
q-181 0 -280 -123.5t-99 -311.5q0 -186 99.5 -308t279.5 -122q80 0 147 25.5t112.5 69t75 96.5t42.5 112h315q-13 -113 -64.5 -213t-136 -178.5t-211 -124t-278.5 -45.5z" />
    <glyph glyph-name="Ccaron.smcp" horiz-adv-x="1595" 
d="M1202 1804l-241 -358h-332l-242 358h236l172 -215l172 215h235zM803 -29q-135 0 -248 34.5t-194.5 96.5t-139 147.5t-85 187t-27.5 214.5q0 149 48 277t136 222.5t221.5 148t296.5 53.5q148 0 273 -46t209.5 -124.5t135.5 -178.5t64 -212h-315q-27 128 -125.5 215.5
t-251.5 87.5q-181 0 -280 -123.5t-99 -311.5q0 -186 99.5 -308t279.5 -122q80 0 147 25.5t112.5 69t75 96.5t42.5 112h315q-13 -113 -64.5 -213t-136 -178.5t-211 -124t-278.5 -45.5z" />
    <glyph glyph-name="Ccedilla.smcp" horiz-adv-x="1595" 
d="M801 229q80 0 147 25.5t112.5 69t75 96.5t42.5 112h315q-13 -109 -61.5 -206.5t-128.5 -175t-199 -125.5t-262 -54l-78 -75h39q83 0 133.5 -39.5t50.5 -104.5q0 -78 -66.5 -122t-201.5 -44h-117v117h115q42 0 67 12.5t25 34.5q0 19 -25.5 30t-66.5 11h-94v105l73 81
q-189 21 -323.5 117t-199 239t-64.5 318q0 149 48 277t136 222.5t221.5 148t296.5 53.5q148 0 273 -46t209.5 -124.5t135.5 -178.5t64 -212h-315q-27 128 -125.5 215.5t-251.5 87.5q-181 0 -280 -123.5t-99 -311.5q0 -186 99.5 -308t279.5 -122z" />
    <glyph glyph-name="Cdotaccent.smcp" horiz-adv-x="1595" 
d="M795 1483q-73 0 -127 52.5t-54 127.5q0 71 54 122.5t127 51.5t126.5 -51.5t53.5 -122.5q0 -75 -53.5 -127.5t-126.5 -52.5zM803 -29q-135 0 -248 34.5t-194.5 96.5t-139 147.5t-85 187t-27.5 214.5q0 149 48 277t136 222.5t221.5 148t296.5 53.5q148 0 273 -46
t209.5 -124.5t135.5 -178.5t64 -212h-315q-27 128 -125.5 215.5t-251.5 87.5q-181 0 -280 -123.5t-99 -311.5q0 -186 99.5 -308t279.5 -122q80 0 147 25.5t112.5 69t75 96.5t42.5 112h315q-13 -113 -64.5 -213t-136 -178.5t-211 -124t-278.5 -45.5z" />
    <glyph glyph-name="D.smcp" horiz-adv-x="1497" 
d="M739 0h-577l2 1323h586q163 0 280 -33.5t201 -109t125 -202.5t41 -310q0 -185 -41 -314.5t-125.5 -207.5t-204 -112.5t-287.5 -33.5zM459 258h241q101 0 167.5 16.5t117.5 60t74.5 124t23.5 203.5q0 120 -21.5 198.5t-71 123.5t-118 63t-172.5 18h-241v-807z" />
    <glyph glyph-name="Eth.smcp" horiz-adv-x="1497" 
d="M750 1323q163 0 280 -33.5t201 -109t125 -202.5t41 -310q0 -185 -41 -314.5t-125.5 -207.5t-204 -112.5t-287.5 -33.5h-577v545h-133v231h135v547h586zM700 258q101 0 167.5 16.5t117.5 60t74.5 124t23.5 203.5q0 120 -21.5 198.5t-71 123.5t-118 63t-172.5 18h-241v-289
h299v-231h-299v-287h241z" />
    <glyph glyph-name="Dcaron.smcp" horiz-adv-x="1497" 
d="M1145 1804l-242 -358h-332l-241 358h233l174 -215l172 215h236zM739 0h-577l2 1323h586q163 0 280 -33.5t201 -109t125 -202.5t41 -310q0 -185 -41 -314.5t-125.5 -207.5t-204 -112.5t-287.5 -33.5zM459 258h241q101 0 167.5 16.5t117.5 60t74.5 124t23.5 203.5
q0 120 -21.5 198.5t-71 123.5t-118 63t-172.5 18h-241v-807z" />
    <glyph glyph-name="Dcroat.smcp" horiz-adv-x="1497" 
d="M750 1323q163 0 280 -33.5t201 -109t125 -202.5t41 -310q0 -185 -41 -314.5t-125.5 -207.5t-204 -112.5t-287.5 -33.5h-577v545h-133v231h135v547h586zM700 258q101 0 167.5 16.5t117.5 60t74.5 124t23.5 203.5q0 120 -21.5 198.5t-71 123.5t-118 63t-172.5 18h-241v-289
h299v-231h-299v-287h241z" />
    <glyph glyph-name="E.smcp" horiz-adv-x="1357" 
d="M455 291h741v-291h-1034v1323h1003v-291h-710v-225h649v-268h-649v-248z" />
    <glyph glyph-name="Eacute.smcp" horiz-adv-x="1357" 
d="M977 1804l-338 -358h-256l221 358h373zM455 291h741v-291h-1034v1323h1003v-291h-710v-225h649v-268h-649v-248z" />
    <glyph glyph-name="Ecaron.smcp" horiz-adv-x="1357" 
d="M1087 1804l-241 -358h-332l-242 358h236l172 -215l172 215h235zM455 291h741v-291h-1034v1323h1003v-291h-710v-225h649v-268h-649v-248z" />
    <glyph glyph-name="Ecircumflex.smcp" horiz-adv-x="1357" 
d="M1087 1446h-235l-172 215l-172 -215h-236l242 358h332zM455 291h741v-291h-1034v1323h1003v-291h-710v-225h649v-268h-649v-248z" />
    <glyph glyph-name="Edieresis.smcp" horiz-adv-x="1357" 
d="M362 1565v239h242v-239h-242zM762 1565v239h242v-239h-242zM455 291h741v-291h-1034v1323h1003v-291h-710v-225h649v-268h-649v-248z" />
    <glyph glyph-name="Edotaccent.smcp" horiz-adv-x="1357" 
d="M680 1483q-73 0 -125.5 52t-52.5 128q0 72 53 123t125 51q74 0 127 -51t53 -123q0 -76 -53 -128t-127 -52zM455 291h741v-291h-1034v1323h1003v-291h-710v-225h649v-268h-649v-248z" />
    <glyph glyph-name="Egrave.smcp" horiz-adv-x="1357" 
d="M383 1804h373l221 -358h-256zM455 291h741v-291h-1034v1323h1003v-291h-710v-225h649v-268h-649v-248z" />
    <glyph glyph-name="Emacron.smcp" horiz-adv-x="1357" 
d="M1044 1501h-727v221h727v-221zM455 291h741v-291h-1034v1323h1003v-291h-710v-225h649v-268h-649v-248z" />
    <glyph glyph-name="Eogonek.smcp" horiz-adv-x="1357" 
d="M1149 -279q27 0 61 5v-146q-40 -6 -96 -6q-133 0 -194.5 53.5t-61.5 134.5q0 40 16.5 77.5t47 69.5t52 50t52.5 41h-864v1323h1003v-291h-710v-225h649v-268h-649v-248h741v-291h-49q-133 -114 -133 -197q0 -82 135 -82z" />
    <glyph glyph-name="F.smcp" horiz-adv-x="1193" 
d="M1147 1032h-692v-225h624v-268h-624v-539h-293v1323h985v-291z" />
    <glyph glyph-name="G.smcp" horiz-adv-x="1624" 
d="M866 -29q-352 0 -554.5 188t-202.5 507q0 316 192.5 501t509.5 185q275 0 463.5 -137.5t218.5 -352.5h-315q-32 104 -127 168t-236 64q-182 0 -287.5 -113t-105.5 -315q0 -203 115.5 -320t330.5 -117q105 0 201.5 31t144.5 90v133h-454v246h733v-465q-85 -133 -256 -213
t-371 -80z" />
    <glyph glyph-name="Gbreve.smcp" horiz-adv-x="1624" 
d="M1012 1804h223q0 -161 -112.5 -259.5t-295.5 -98.5t-295 98.5t-112 259.5h221q0 -81 51 -130.5t135 -49.5q83 0 134 49t51 131zM866 -29q-352 0 -554.5 188t-202.5 507q0 316 192.5 501t509.5 185q275 0 463.5 -137.5t218.5 -352.5h-315q-32 104 -127 168t-236 64
q-182 0 -287.5 -113t-105.5 -315q0 -203 115.5 -320t330.5 -117q105 0 201.5 31t144.5 90v133h-454v246h733v-465q-85 -133 -256 -213t-371 -80z" />
    <glyph glyph-name="Gcommaaccent.smcp" horiz-adv-x="1624" 
d="M866 -29q-352 0 -554.5 188t-202.5 507q0 316 192.5 501t509.5 185q275 0 463.5 -137.5t218.5 -352.5h-315q-32 104 -127 168t-236 64q-182 0 -287.5 -113t-105.5 -315q0 -203 115.5 -320t330.5 -117q105 0 201.5 31t144.5 90v133h-454v246h733v-465q-85 -133 -256 -213
t-371 -80zM651 -492l70 349h285l-129 -349h-226z" />
    <glyph glyph-name="Gdotaccent.smcp" horiz-adv-x="1624" 
d="M827 1483q-73 0 -126.5 52.5t-53.5 127.5q0 71 53.5 122.5t126.5 51.5t127 -51.5t54 -122.5q0 -75 -54 -127.5t-127 -52.5zM866 -29q-352 0 -554.5 188t-202.5 507q0 316 192.5 501t509.5 185q275 0 463.5 -137.5t218.5 -352.5h-315q-32 104 -127 168t-236 64
q-182 0 -287.5 -113t-105.5 -315q0 -203 115.5 -320t330.5 -117q105 0 201.5 31t144.5 90v133h-454v246h733v-465q-85 -133 -256 -213t-371 -80z" />
    <glyph glyph-name="H.smcp" horiz-adv-x="1486" 
d="M1030 1323h295v-1323h-295v524h-573v-524h-295v1323h295v-516h573v516z" />
    <glyph glyph-name="Hbar.smcp" horiz-adv-x="1486" 
d="M1466 1120v-231h-141v-889h-295v524h-573v-524h-295v889h-146v231h146v203h295v-203h573v203h295v-203h141zM1030 807v82h-573v-82h573z" />
    <glyph glyph-name="I.smcp" horiz-adv-x="591" 
d="M147 0v1323h295v-1323h-295z" />
    <glyph glyph-name="Iacute.smcp" horiz-adv-x="591" 
d="M592 1804l-338 -358h-256l221 358h373zM147 0v1323h295v-1323h-295z" />
    <glyph glyph-name="Icircumflex.smcp" horiz-adv-x="591" 
d="M702 1446h-235l-172 215l-172 -215h-236l242 358h332zM147 0v1323h295v-1323h-295z" />
    <glyph glyph-name="Idieresis.smcp" horiz-adv-x="591" 
d="M-29 1565v239h242v-239h-242zM371 1565v239h241v-239h-241zM145 0v1323h295v-1323h-295z" />
    <glyph glyph-name="Idotaccent.smcp" horiz-adv-x="591" 
d="M295 1483q-73 0 -126.5 52.5t-53.5 127.5q0 71 53.5 122.5t126.5 51.5q74 0 127 -51t53 -123q0 -76 -53 -128t-127 -52zM147 0v1323h295v-1323h-295z" />
    <glyph glyph-name="Igrave.smcp" horiz-adv-x="591" 
d="M-2 1804h373l221 -358h-256zM147 0v1323h295v-1323h-295z" />
    <glyph glyph-name="Imacron.smcp" horiz-adv-x="591" 
d="M659 1501h-727v221h727v-221zM147 0v1323h295v-1323h-295z" />
    <glyph glyph-name="Iogonek.smcp" horiz-adv-x="591" 
d="M418 -279q27 0 61 5v-146q-41 -6 -96 -6q-133 0 -194.5 53.5t-61.5 134.5q0 40 16.5 77.5t47 69.5t52 50t52.5 41h-148v1323h295v-1323h-26q-133 -114 -133 -197q0 -82 135 -82z" />
    <glyph glyph-name="J.smcp" horiz-adv-x="1269" 
d="M588 -29q-518 0 -549 478h309q14 -114 67 -167t167 -53q39 0 70 6t54.5 15.5t41.5 28.5t30.5 37.5t21 50t13 58t7 70t3 78t0.5 89.5v661h297v-784q0 -139 -27.5 -241t-88.5 -177t-165 -112.5t-251 -37.5z" />
    <glyph glyph-name="K.smcp" horiz-adv-x="1345" 
d="M1288 0h-358l-473 553v-553h-295v1323h295v-537l440 537h358l-557 -653z" />
    <glyph glyph-name="Kcommaaccent.smcp" horiz-adv-x="1345" 
d="M698 670l590 -670h-358l-473 553v-553h-295v1323h295v-537l440 537h358zM465 -492l70 349h284l-129 -349h-225z" />
    <glyph glyph-name="L.smcp" horiz-adv-x="1187" 
d="M455 291h692v-291h-985v1323h293v-1032z" />
    <glyph glyph-name="Lacute.smcp" horiz-adv-x="1187" 
d="M883 1804l-338 -358h-256l221 358h373zM455 291h692v-291h-985v1323h293v-1032z" />
    <glyph glyph-name="Lcaron.smcp" horiz-adv-x="1263" 
d="M475 291h692v-291h-985v1323h293v-1032zM1225 1323l-195 -305h-235l88 305h342z" />
    <glyph glyph-name="Lcommaaccent.smcp" horiz-adv-x="1187" 
d="M455 291h692v-291h-985v1323h293v-1032zM410 -492l69 349h285l-129 -349h-225z" />
    <glyph glyph-name="Lslash.smcp" horiz-adv-x="1187" 
d="M455 291h692v-291h-985v555l-187 -125v324l187 125v444h293v-250l215 144v-324l-215 -143v-459z" />
    <glyph glyph-name="M.smcp" horiz-adv-x="1802" 
d="M184 0v1323h326l403 -989l402 989h325v-1323h-294v741l-291 -741h-283l-293 741v-741h-295z" />
    <glyph glyph-name="N.smcp" horiz-adv-x="1509" 
d="M162 0v1323h284l584 -838v838h295v-1323h-293l-575 811v-811h-295z" />
    <glyph glyph-name="Nacute.smcp" horiz-adv-x="1509" 
d="M1034 1804l-338 -358h-256l222 358h372zM162 0v1323h284l584 -838v838h295v-1323h-293l-575 811v-811h-295z" />
    <glyph glyph-name="Ncaron.smcp" horiz-adv-x="1509" 
d="M1145 1804l-242 -358h-332l-241 358h235l174 -215l170 215h236zM162 0v1323h284l584 -838v838h295v-1323h-293l-575 811v-811h-295z" />
    <glyph glyph-name="Ncommaaccent.smcp" horiz-adv-x="1509" 
d="M162 0v1323h284l584 -838v838h295v-1323h-293l-575 811v-811h-295zM561 -492l70 349h284l-129 -349h-225z" />
    <glyph glyph-name="Eng.smcp" horiz-adv-x="1509" 
d="M932 -418q-378 0 -428 346h297q5 -129 117 -129q30 0 52 10.5t34 27t19.5 44t9.5 53t3 62.5l-577 815v-811h-297v1323h287l579 -838v838h297v-1323q0 -73 -9.5 -131.5t-36 -114t-69.5 -92t-113.5 -58.5t-164.5 -22z" />
    <glyph glyph-name="Ntilde.smcp" horiz-adv-x="1509" 
d="M600 1774q42 0 81.5 -17t63.5 -37.5t53 -37.5t52 -17q31 0 50.5 26t19.5 72h192q0 -134 -67 -210t-175 -76q-46 0 -85.5 17t-62 37t-48.5 37t-49 17q-31 0 -49.5 -26.5t-18.5 -71.5h-195q0 127 65.5 207t172.5 80zM162 0v1323h284l584 -838v838h295v-1323h-293l-575 811
v-811h-295z" />
    <glyph glyph-name="O.smcp" horiz-adv-x="1638" 
d="M819 -29q-167 0 -303 54.5t-224 148.5t-135.5 219t-47.5 269t47.5 269t135.5 219t224 148t303 54t303 -54t224.5 -148t136 -219t47.5 -269t-47.5 -269t-136 -219t-224.5 -148.5t-303 -54.5zM819 229q94 0 170.5 37.5t124 99.5t73 138t25.5 158q0 81 -25.5 157.5t-73 138
t-124 99t-170.5 37.5t-170.5 -37.5t-124 -99t-73 -138t-25.5 -157.5q0 -82 25.5 -158t73 -138t124 -99.5t170.5 -37.5z" />
    <glyph glyph-name="Oacute.smcp" horiz-adv-x="1638" 
d="M1116 1804l-338 -358h-256l221 358h373zM819 -29q-167 0 -303 54.5t-224 148.5t-135.5 219t-47.5 269t47.5 269t135.5 219t224 148t303 54t303 -54t224.5 -148t136 -219t47.5 -269t-47.5 -269t-136 -219t-224.5 -148.5t-303 -54.5zM819 229q94 0 170.5 37.5t124 99.5
t73 138t25.5 158q0 81 -25.5 157.5t-73 138t-124 99t-170.5 37.5t-170.5 -37.5t-124 -99t-73 -138t-25.5 -157.5q0 -82 25.5 -158t73 -138t124 -99.5t170.5 -37.5z" />
    <glyph glyph-name="Ocircumflex.smcp" horiz-adv-x="1638" 
d="M1227 1446h-236l-172 215l-174 -215h-233l241 358h332zM819 -29q-167 0 -303 54.5t-224 148.5t-135.5 219t-47.5 269t47.5 269t135.5 219t224 148t303 54t303 -54t224.5 -148t136 -219t47.5 -269t-47.5 -269t-136 -219t-224.5 -148.5t-303 -54.5zM819 229
q94 0 170.5 37.5t124 99.5t73 138t25.5 158q0 81 -25.5 157.5t-73 138t-124 99t-170.5 37.5t-170.5 -37.5t-124 -99t-73 -138t-25.5 -157.5q0 -82 25.5 -158t73 -138t124 -99.5t170.5 -37.5z" />
    <glyph glyph-name="Odieresis.smcp" horiz-adv-x="1638" 
d="M498 1565v239h241v-239h-241zM897 1565v239h242v-239h-242zM819 -29q-167 0 -303 54.5t-224 148.5t-135.5 219t-47.5 269t47.5 269t135.5 219t224 148t303 54t303 -54t224.5 -148t136 -219t47.5 -269t-47.5 -269t-136 -219t-224.5 -148.5t-303 -54.5zM821 229
q94 0 170.5 37.5t124 99.5t73 138t25.5 158q0 81 -25.5 157.5t-73 138t-124 99t-170.5 37.5q-95 0 -172 -37.5t-124.5 -99t-73 -137.5t-25.5 -158t25.5 -158t73 -138t124.5 -99.5t172 -37.5z" />
    <glyph glyph-name="Ograve.smcp" horiz-adv-x="1638" 
d="M522 1804h373l221 -358h-256zM819 -29q-167 0 -303 54.5t-224 148.5t-135.5 219t-47.5 269t47.5 269t135.5 219t224 148t303 54t303 -54t224.5 -148t136 -219t47.5 -269t-47.5 -269t-136 -219t-224.5 -148.5t-303 -54.5zM819 229q94 0 170.5 37.5t124 99.5t73 138
t25.5 158q0 81 -25.5 157.5t-73 138t-124 99t-170.5 37.5t-170.5 -37.5t-124 -99t-73 -138t-25.5 -157.5q0 -82 25.5 -158t73 -138t124 -99.5t170.5 -37.5z" />
    <glyph glyph-name="Ohungarumlaut.smcp" horiz-adv-x="1638" 
d="M848 1804l-338 -358h-256l221 358h373zM1382 1804l-338 -358h-256l222 358h372zM819 -29q-167 0 -303 54.5t-224 148.5t-135.5 219t-47.5 269t47.5 269t135.5 219t224 148t303 54t303 -54t224.5 -148t136 -219t47.5 -269t-47.5 -269t-136 -219t-224.5 -148.5t-303 -54.5z
M819 229q94 0 170.5 37.5t124 99.5t73 138t25.5 158q0 81 -25.5 157.5t-73 138t-124 99t-170.5 37.5t-170.5 -37.5t-124 -99t-73 -138t-25.5 -157.5q0 -82 25.5 -158t73 -138t124 -99.5t170.5 -37.5z" />
    <glyph glyph-name="Omacron.smcp" horiz-adv-x="1638" 
d="M1184 1501h-729v221h729v-221zM819 -29q-167 0 -303 54.5t-224 148.5t-135.5 219t-47.5 269t47.5 269t135.5 219t224 148t303 54t303 -54t224.5 -148t136 -219t47.5 -269t-47.5 -269t-136 -219t-224.5 -148.5t-303 -54.5zM819 229q94 0 170.5 37.5t124 99.5t73 138
t25.5 158q0 81 -25.5 157.5t-73 138t-124 99t-170.5 37.5t-170.5 -37.5t-124 -99t-73 -138t-25.5 -157.5q0 -82 25.5 -158t73 -138t124 -99.5t170.5 -37.5z" />
    <glyph glyph-name="Oslash.smcp" horiz-adv-x="1638" 
d="M1298 1192q113 -93 172.5 -231t59.5 -299q0 -144 -47.5 -269t-136 -219t-224.5 -148.5t-303 -54.5q-149 0 -270 41l-158 -248h-282l231 365q-113 94 -172 232t-59 301q0 144 47.5 269t135.5 219t224 148t303 54q151 0 273 -43l157 250h283zM426 662q0 -153 80 -271
l436 684q-59 19 -123 19q-94 0 -170.5 -37.5t-124 -99t-73 -138t-25.5 -157.5zM819 229q94 0 170.5 37.5t124 99.5t73 138t25.5 158q0 154 -79 270l-435 -684q59 -19 121 -19z" />
    <glyph glyph-name="Otilde.smcp" horiz-adv-x="1638" 
d="M680 1774q42 0 81.5 -17t63.5 -37.5t53 -37.5t52 -17q33 0 51 25.5t18 72.5h195q0 -134 -67 -210t-177 -76q-46 0 -85.5 17t-61.5 37t-48 37t-48 17q-31 0 -50.5 -26.5t-19.5 -71.5h-193q0 127 65.5 207t170.5 80zM819 -29q-167 0 -303 54.5t-224 148.5t-135.5 219
t-47.5 269t47.5 269t135.5 219t224 148t303 54t303 -54t224.5 -148t136 -219t47.5 -269t-47.5 -269t-136 -219t-224.5 -148.5t-303 -54.5zM819 229q94 0 170.5 37.5t124 99.5t73 138t25.5 158q0 81 -25.5 157.5t-73 138t-124 99t-170.5 37.5t-170.5 -37.5t-124 -99t-73 -138
t-25.5 -157.5q0 -82 25.5 -158t73 -138t124 -99.5t170.5 -37.5z" />
    <glyph glyph-name="OE.smcp" horiz-adv-x="2420" 
d="M819 -29q-167 0 -303 54.5t-224 148.5t-135.5 219t-47.5 269t47.5 269t135.5 219t224 148t303 54q255 0 406 -131v102h1001v-291h-708v-213h647v-293h-647v-233h741v-293h-1034v102q-151 -131 -406 -131zM819 229q94 0 170.5 37.5t124 99.5t73 138t25.5 158
q0 81 -25.5 157.5t-73 138t-124 99t-170.5 37.5t-171 -37.5t-125 -99t-73.5 -138t-25.5 -157.5t26 -157.5t73.5 -138.5t124.5 -99.5t171 -37.5z" />
    <glyph glyph-name="P.smcp" horiz-adv-x="1288" 
d="M162 0v1323h545q221 0 351 -107t130 -307q0 -204 -136.5 -310.5t-365.5 -106.5h-229v-492h-295zM457 748h188q234 0 234 155q0 83 -64.5 124.5t-169.5 41.5h-188v-321z" />
    <glyph glyph-name="Thorn.smcp" horiz-adv-x="1288" 
d="M688 1092q106 0 194.5 -23.5t158 -71.5t108.5 -129t39 -188q0 -91 -28 -163t-75.5 -119t-114 -78t-141 -44.5t-159.5 -13.5h-211v-262h-297v1323h297v-231h229zM639 520q48 0 85.5 6t73 21.5t55 47t19.5 77.5q0 159 -233 159h-180v-311h180z" />
    <glyph glyph-name="Q.smcp" horiz-adv-x="1638" 
d="M1530 662q0 -164 -61 -303.5t-177 -233.5l238 -240h-332l-123 123q-112 -37 -256 -37q-167 0 -303 54.5t-224 148.5t-135.5 219t-47.5 269t47.5 269t135.5 219t224 148t303 54t303 -54t224.5 -148t136 -219t47.5 -269zM819 229q25 0 37 2l-203 203h334l100 -100
q63 60 96.5 147.5t33.5 180.5q0 82 -25.5 158t-73.5 137.5t-126 99t-173 37.5t-172.5 -37.5t-125.5 -99t-73.5 -137.5t-25.5 -158t25.5 -158t73.5 -138t125.5 -99.5t172.5 -37.5z" />
    <glyph glyph-name="R.smcp" horiz-adv-x="1314" 
d="M162 0v1323h532q227 0 360.5 -103.5t133.5 -293.5q0 -144 -93 -251.5t-247 -133.5q-44 -9 -68 -9l492 -532h-359l-456 508v-508h-295zM457 756h198q96 0 159 36.5t63 116.5t-63.5 120t-168.5 40h-188v-313z" />
    <glyph glyph-name="Racute.smcp" horiz-adv-x="1314" 
d="M944 1804l-338 -358h-256l221 358h373zM162 0v1323h532q227 0 360.5 -103.5t133.5 -293.5q0 -144 -93 -251.5t-247 -133.5q-44 -9 -68 -9l492 -532h-359l-456 508v-508h-295zM457 756h198q96 0 159 36.5t63 116.5t-63.5 120t-168.5 40h-188v-313z" />
    <glyph glyph-name="Rcaron.smcp" horiz-adv-x="1314" 
d="M1055 1804l-242 -358h-332l-241 358h235l174 -215l170 215h236zM162 0v1323h532q227 0 360.5 -103.5t133.5 -293.5q0 -144 -93 -251.5t-247 -133.5q-44 -9 -68 -9l492 -532h-359l-456 508v-508h-295zM457 756h198q96 0 159 36.5t63 116.5t-63.5 120t-168.5 40h-188v-313z
" />
    <glyph glyph-name="Rcommaaccent.smcp" horiz-adv-x="1314" 
d="M162 0v1323h532q227 0 360.5 -103.5t133.5 -293.5q0 -144 -93 -251.5t-247 -133.5q-44 -9 -68 -9l492 -532h-359l-456 508v-508h-295zM457 756h198q96 0 159 36.5t63 116.5t-63.5 120t-168.5 40h-188v-313zM471 -492l70 349h284l-129 -349h-225z" />
    <glyph glyph-name="S.smcp" horiz-adv-x="1345" 
d="M715 -41q-290 0 -449.5 129t-179.5 340h291q58 -229 344 -229q227 0 227 155q0 27 -9 49t-30.5 40t-40 30t-56 25.5t-58.5 19.5t-66 19q-58 16 -95.5 27t-88 27.5t-84 31t-73.5 35t-65 41.5t-51.5 48.5t-41.5 58.5t-24.5 69t-10.5 81q-1 82 28 149t79 111.5t118 74.5
t142 43.5t155 13.5q249 0 389 -119t149 -320h-294q-6 58 -31 99.5t-63.5 63t-79.5 31t-87 9.5q-35 0 -69.5 -6.5t-71 -21t-58.5 -45t-22 -72.5q0 -26 7.5 -47t31.5 -39.5t42 -30.5t65.5 -28t75 -24.5t95.5 -27.5l21 -6q10 -3 31 -9q84 -24 128 -38.5t113 -48t104 -69.5
t63 -96t28 -136q0 -203 -137 -305.5t-391 -102.5z" />
    <glyph glyph-name="Sacute.smcp" horiz-adv-x="1345" 
d="M967 1788l-338 -358h-256l221 358h373zM715 -41q-290 0 -449.5 129t-179.5 340h291q58 -229 344 -229q227 0 227 155q0 27 -9 49t-30.5 40t-40 30t-56 25.5t-58.5 19.5t-66 19q-58 16 -95.5 27t-88 27.5t-84 31t-73.5 35t-65 41.5t-51.5 48.5t-41.5 58.5t-24.5 69
t-10.5 81q-1 82 28 149t79 111.5t118 74.5t142 43.5t155 13.5q249 0 389 -119t149 -320h-294q-6 58 -31 99.5t-63.5 63t-79.5 31t-87 9.5q-35 0 -69.5 -6.5t-71 -21t-58.5 -45t-22 -72.5q0 -26 7.5 -47t31.5 -39.5t42 -30.5t65.5 -28t75 -24.5t95.5 -27.5l21 -6q10 -3 31 -9
q84 -24 128 -38.5t113 -48t104 -69.5t63 -96t28 -136q0 -203 -137 -305.5t-391 -102.5z" />
    <glyph glyph-name="Scaron.smcp" horiz-adv-x="1345" 
d="M1077 1788l-241 -358h-332l-242 358h236l172 -215l172 215h235zM715 -41q-290 0 -449.5 129t-179.5 340h291q58 -229 344 -229q227 0 227 155q0 27 -9 49t-30.5 40t-40 30t-56 25.5t-58.5 19.5t-66 19q-58 16 -95.5 27t-88 27.5t-84 31t-73.5 35t-65 41.5t-51.5 48.5
t-41.5 58.5t-24.5 69t-10.5 81q-1 82 28 149t79 111.5t118 74.5t142 43.5t155 13.5q249 0 389 -119t149 -320h-294q-6 58 -31 99.5t-63.5 63t-79.5 31t-87 9.5q-35 0 -69.5 -6.5t-71 -21t-58.5 -45t-22 -72.5q0 -26 7.5 -47t31.5 -39.5t42 -30.5t65.5 -28t75 -24.5
t95.5 -27.5l21 -6q10 -3 31 -9q84 -24 128 -38.5t113 -48t104 -69.5t63 -96t28 -136q0 -203 -137 -305.5t-391 -102.5z" />
    <glyph glyph-name="Scedilla.smcp" horiz-adv-x="1345" 
d="M715 -41h-13l-63 -63h39q83 0 133.5 -39.5t50.5 -104.5q0 -78 -66.5 -122t-201.5 -44h-117v117h115q42 0 67 12.5t25 34.5q0 19 -25.5 30t-66.5 11h-94v105l67 73q-221 33 -342 155t-137 304h291q58 -229 344 -229q227 0 227 155q0 27 -9 49t-30.5 40t-40 30t-56 25.5
t-58.5 19.5t-66 19q-58 16 -95.5 27t-88 27.5t-84 31t-73.5 35t-65 41.5t-51.5 48.5t-41.5 58.5t-24.5 69t-10.5 81q-1 82 28 149t79 111.5t118 74.5t142 43.5t155 13.5q249 0 389 -119t149 -320h-294q-6 58 -31 99.5t-63.5 63t-79.5 31t-87 9.5q-35 0 -69.5 -6.5t-71 -21
t-58.5 -45t-22 -72.5q0 -26 7.5 -47t31.5 -39.5t42 -30.5t65.5 -28t75 -24.5t95.5 -27.5l21 -6q10 -3 31 -9q84 -24 128 -38.5t113 -48t104 -69.5t63 -96t28 -136q0 -203 -137 -305.5t-391 -102.5z" />
    <glyph glyph-name="Scommaaccent.smcp" horiz-adv-x="1345" 
d="M715 -41q-290 0 -449.5 129t-179.5 340h291q58 -229 344 -229q227 0 227 155q0 27 -9 49t-30.5 40t-40 30t-56 25.5t-58.5 19.5t-66 19q-58 16 -95.5 27t-88 27.5t-84 31t-73.5 35t-65 41.5t-51.5 48.5t-41.5 58.5t-24.5 69t-10.5 81q-1 82 28 149t79 111.5t118 74.5
t142 43.5t155 13.5q249 0 389 -119t149 -320h-294q-6 58 -31 99.5t-63.5 63t-79.5 31t-87 9.5q-35 0 -69.5 -6.5t-71 -21t-58.5 -45t-22 -72.5q0 -26 7.5 -47t31.5 -39.5t42 -30.5t65.5 -28t75 -24.5t95.5 -27.5l21 -6q10 -3 31 -9q84 -24 128 -38.5t113 -48t104 -69.5
t63 -96t28 -136q0 -203 -137 -305.5t-391 -102.5zM494 -492l69 349h285l-129 -349h-225z" />
    <glyph glyph-name="T.smcp" horiz-adv-x="1255" 
d="M1198 1032h-422v-1032h-295v1032h-424v291h1139z" />
    <glyph glyph-name="Tbar.smcp" horiz-adv-x="1255" 
d="M776 1032v-256h217v-231h-217v-545h-295v545h-217v231h217v256h-424v291h1139l2 -291h-422z" />
    <glyph glyph-name="Tcaron.smcp" horiz-adv-x="1255" 
d="M1036 1804l-241 -358h-332l-242 358h236l172 -215l172 215h235zM1198 1032h-422v-1032h-295v1032h-424v291h1139z" />
    <glyph glyph-name="uni0162.smcp" horiz-adv-x="1255" 
d="M637 -104q83 0 133.5 -39.5t50.5 -104.5q0 -78 -66.5 -122t-201.5 -44h-117v117h117q42 0 67 12.5t25 34.5q0 19 -25.5 30t-66.5 11h-96v105l96 104h-72v1032h-424v291h1139l2 -291h-422v-1032h-71l-107 -104h39z" />
    <glyph glyph-name="uni021A.smcp" horiz-adv-x="1255" 
d="M1198 1032h-422v-1032h-295v1032h-424v291h1139zM453 -492l69 349h285l-129 -349h-225z" />
    <glyph glyph-name="U.smcp" horiz-adv-x="1454" 
d="M743 -29q-162 0 -276 38t-180 113t-95.5 174t-29.5 232v795h295v-668q0 -63 1.5 -104.5t8 -91t18 -80.5t32.5 -62.5t51 -48.5t74 -28t101 -11t101 11t74 28t51 48.5t33 62.5t18.5 80t8 91t1.5 105v668h295v-795q0 -137 -30.5 -237t-97.5 -173.5t-180.5 -110t-273.5 -36.5
z" />
    <glyph glyph-name="Uacute.smcp" horiz-adv-x="1454" 
d="M1034 1804l-338 -358h-256l222 358h372zM743 -29q-162 0 -276 38t-180 113t-95.5 174t-29.5 232v795h295v-668q0 -63 1.5 -104.5t8 -91t18 -80.5t32.5 -62.5t51 -48.5t74 -28t101 -11t101 11t74 28t51 48.5t33 62.5t18.5 80t8 91t1.5 105v668h295v-795q0 -137 -30.5 -237
t-97.5 -173.5t-180.5 -110t-273.5 -36.5z" />
    <glyph glyph-name="Ucircumflex.smcp" horiz-adv-x="1454" 
d="M1145 1446h-236l-170 215l-174 -215h-235l241 358h332zM743 -29q-162 0 -276 38t-180 113t-95.5 174t-29.5 232v795h295v-668q0 -63 1.5 -104.5t8 -91t18 -80.5t32.5 -62.5t51 -48.5t74 -28t101 -11t101 11t74 28t51 48.5t33 62.5t18.5 80t8 91t1.5 105v668h295v-795
q0 -137 -30.5 -237t-97.5 -173.5t-180.5 -110t-273.5 -36.5z" />
    <glyph glyph-name="Udieresis.smcp" horiz-adv-x="1454" 
d="M420 1565v239h242v-239h-242zM819 1565v239h242v-239h-242zM743 -29q-162 0 -276 38t-180 113t-95.5 174t-29.5 232v795h295v-668q0 -63 1.5 -104.5t8 -91t18 -80.5t32.5 -62.5t51 -48.5t74 -28t101 -11t101 11t74 28t51 48.5t33 62.5t18.5 80t8 91t1.5 105v668h295v-795
q0 -137 -30.5 -237t-97.5 -173.5t-180.5 -110t-273.5 -36.5z" />
    <glyph glyph-name="Ugrave.smcp" horiz-adv-x="1454" 
d="M440 1804h373l221 -358h-256zM743 -29q-162 0 -276 38t-180 113t-95.5 174t-29.5 232v795h295v-668q0 -63 1.5 -104.5t8 -91t18 -80.5t32.5 -62.5t51 -48.5t74 -28t101 -11t101 11t74 28t51 48.5t33 62.5t18.5 80t8 91t1.5 105v668h295v-795q0 -137 -30.5 -237
t-97.5 -173.5t-180.5 -110t-273.5 -36.5z" />
    <glyph glyph-name="Uhungarumlaut.smcp" horiz-adv-x="1454" 
d="M768 1804l-338 -358h-256l221 358h373zM1303 1804l-338 -358h-256l221 358h373zM743 -29q-162 0 -276 38t-180 113t-95.5 174t-29.5 232v795h295v-668q0 -63 1.5 -104.5t8 -91t18 -80.5t32.5 -62.5t51 -48.5t74 -28t101 -11t101 11t74 28t51 48.5t33 62.5t18.5 80t8 91
t1.5 105v668h295v-795q0 -137 -30.5 -237t-97.5 -173.5t-180.5 -110t-273.5 -36.5z" />
    <glyph glyph-name="Umacron.smcp" horiz-adv-x="1454" 
d="M1104 1501h-729v221h729v-221zM743 -29q-162 0 -276 38t-180 113t-95.5 174t-29.5 232v795h295v-668q0 -63 1.5 -104.5t8 -91t18 -80.5t32.5 -62.5t51 -48.5t74 -28t101 -11t101 11t74 28t51 48.5t33 62.5t18.5 80t8 91t1.5 105v668h295v-795q0 -137 -30.5 -237
t-97.5 -173.5t-180.5 -110t-273.5 -36.5z" />
    <glyph glyph-name="Uogonek.smcp" horiz-adv-x="1454" 
d="M1030 1323h295v-795q0 -132 -28 -230t-90.5 -171t-167.5 -112t-253 -44q-102 -94 -102 -168q0 -82 135 -82q28 0 62 5v-146q-41 -6 -97 -6q-133 0 -194.5 53.5t-61.5 134.5q0 109 134 211q-139 10 -237 52.5t-155 116t-82.5 168t-25.5 218.5v795h295v-668
q0 -63 1.5 -104.5t8 -91t18 -80.5t32.5 -62.5t51 -48.5t74 -28t101 -11t101 11t74 28t51 48.5t33 62.5t18.5 80t8 91t1.5 105v668z" />
    <glyph glyph-name="Uring.smcp" horiz-adv-x="1454" 
d="M739 1446q-89 0 -142.5 53t-53.5 141q0 86 53.5 138.5t142.5 52.5q88 0 141.5 -52.5t53.5 -138.5q0 -88 -53.5 -141t-141.5 -53zM739 1569q31 0 50.5 19t19.5 50t-19.5 49.5t-50.5 18.5q-32 0 -50.5 -18.5t-18.5 -49.5t18.5 -50t50.5 -19zM743 -29q-162 0 -276 38
t-180 113t-95.5 174t-29.5 232v795h295v-668q0 -63 1.5 -104.5t8 -91t18 -80.5t32.5 -62.5t51 -48.5t74 -28t101 -11t101 11t74 28t51 48.5t33 62.5t18.5 80t8 91t1.5 105v668h295v-795q0 -137 -30.5 -237t-97.5 -173.5t-180.5 -110t-273.5 -36.5z" />
    <glyph glyph-name="V.smcp" horiz-adv-x="1492" 
d="M594 0l-555 1323h326l380 -987l381 987h326l-553 -1323h-305z" />
    <glyph glyph-name="W.smcp" horiz-adv-x="2125" 
d="M418 0l-379 1323h326l227 -987l291 987h360l291 -987l225 987h326l-375 -1323h-328l-319 1020l-318 -1020h-327z" />
    <glyph glyph-name="Wacute.smcp" horiz-adv-x="2125" 
d="M1360 1804l-338 -358h-256l221 358h373zM418 0l-379 1323h326l227 -987l291 987h360l291 -987l225 987h326l-375 -1323h-328l-319 1020l-318 -1020h-327z" />
    <glyph glyph-name="Wcircumflex.smcp" horiz-adv-x="2125" 
d="M1470 1446h-235l-172 215l-172 -215h-236l242 358h332zM418 0l-379 1323h326l227 -987l291 987h360l291 -987l225 987h326l-375 -1323h-328l-319 1020l-318 -1020h-327z" />
    <glyph glyph-name="Wdieresis.smcp" horiz-adv-x="2125" 
d="M745 1565v239h242v-239h-242zM1145 1565v239h241v-239h-241zM418 0l-379 1323h326l227 -987l291 987h360l291 -987l225 987h326l-375 -1323h-328l-319 1020l-318 -1020h-327z" />
    <glyph glyph-name="Wgrave.smcp" horiz-adv-x="2125" 
d="M766 1804h373l221 -358h-256zM418 0l-379 1323h326l227 -987l291 987h360l291 -987l225 987h326l-375 -1323h-328l-319 1020l-318 -1020h-327z" />
    <glyph glyph-name="X.smcp" horiz-adv-x="1429" 
d="M1372 0h-344l-313 453l-316 -453h-342l480 668l-447 655h342l283 -430l280 430h344l-446 -655z" />
    <glyph glyph-name="Y.smcp" horiz-adv-x="1376" 
d="M541 0v463l-488 860h328l307 -600l305 600h328l-485 -860v-463h-295z" />
    <glyph glyph-name="Yacute.smcp" horiz-adv-x="1376" 
d="M983 1804l-338 -358h-256l221 358h373zM541 0v463l-488 860h328l307 -600l305 600h328l-485 -860v-463h-295z" />
    <glyph glyph-name="Ycircumflex.smcp" horiz-adv-x="1376" 
d="M1094 1446h-234l-172 215l-174 -215h-235l241 358h332zM541 0v463l-488 860h328l307 -600l305 600h328l-485 -860v-463h-295z" />
    <glyph glyph-name="Ydieresis.smcp" horiz-adv-x="1376" 
d="M365 1565v239h241v-239h-241zM764 1565v239h242v-239h-242zM541 0v463l-488 860h328l307 -600l305 600h328l-485 -860v-463h-295z" />
    <glyph glyph-name="Ygrave.smcp" horiz-adv-x="1376" 
d="M389 1804h373l221 -358h-256zM541 0v463l-488 860h328l307 -600l305 600h328l-485 -860v-463h-295z" />
    <glyph glyph-name="Z.smcp" horiz-adv-x="1370" 
d="M492 291h780v-291h-1161v291l718 741h-700v291h1079l2 -291z" />
    <glyph glyph-name="Zacute.smcp" horiz-adv-x="1370" 
d="M987 1804l-338 -358h-256l221 358h373zM492 291h780v-291h-1161v291l718 741h-700v291h1079l2 -291z" />
    <glyph glyph-name="Zcaron.smcp" horiz-adv-x="1370" 
d="M1098 1804l-242 -358h-332l-241 358h233l174 -215l172 215h236zM492 291h780v-291h-1161v291l718 741h-700v291h1079l2 -291z" />
    <glyph glyph-name="Zdotaccent.smcp" horiz-adv-x="1370" 
d="M690 1483q-74 0 -127 52t-53 128q0 72 53 123t127 51q72 0 125 -51t53 -123q0 -76 -52.5 -128t-125.5 -52zM492 291h780v-291h-1161v291l718 741h-700v291h1079l2 -291z" />
    <glyph glyph-name="a.dnom" horiz-adv-x="948" 
d="M328 -633q-140 0 -211.5 72.5t-71.5 179.5q0 125 100 197q117 84 404 84h51v43q0 139 -135 139q-77 0 -110.5 -33t-37.5 -80h-231q2 59 21 107.5t60 91.5t117.5 67.5t182.5 24.5q187 0 282 -86t95 -287v-288v-111v-109h-232v127h-4q-85 -139 -280 -139zM420 -469
q86 0 134 43.5t48 89.5v100h-59q-252 0 -252 -131q0 -102 129 -102z" />
    <glyph glyph-name="b.dnom" horiz-adv-x="1007" 
d="M580 260q166 0 267 -122.5t101 -323.5q0 -204 -101.5 -329.5t-268.5 -125.5q-72 0 -143.5 34t-110.5 89v-96h-238v1228h242v-483q46 60 113 94.5t139 34.5zM522 -449q86 0 138.5 71t52.5 188t-52.5 188.5t-140.5 71.5q-86 0 -139 -63t-53 -167v-67q0 -100 53 -161
t141 -61z" />
    <glyph glyph-name="c.dnom" horiz-adv-x="940" 
d="M475 -641q-194 0 -305 126t-111 327q0 202 110.5 325t305.5 123q172 0 285 -96.5t123 -253.5h-236q-12 80 -55.5 120t-112.5 40q-86 0 -135 -67.5t-49 -190.5q0 -124 49 -193.5t135 -69.5q67 0 112 43.5t56 114.5h236q-9 -147 -120 -247.5t-288 -100.5z" />
    <glyph glyph-name="d.dnom" horiz-adv-x="1009" 
d="M686 614h240v-1228h-236v96q-39 -55 -110.5 -89t-143.5 -34q-167 0 -270 125.5t-103 329.5q0 201 102.5 323.5t268.5 122.5q72 0 139 -34.5t113 -94.5v483zM686 -217v65q0 100 -53 161t-139 61q-88 0 -140.5 -70.5t-52.5 -187.5q0 -118 53 -189.5t142 -71.5
q86 0 138 63.5t52 168.5z" />
    <glyph glyph-name="e.dnom" horiz-adv-x="940" 
d="M475 -641q-194 0 -305 125.5t-111 325.5q0 202 110.5 326t301.5 124q179 0 295.5 -110.5t116.5 -301.5v-102h-584q11 -93 57.5 -145t126.5 -52q64 0 108.5 34.5t55.5 82.5h236q-10 -119 -122.5 -213t-285.5 -94zM301 -106h344q0 83 -48 129.5t-122 46.5q-76 0 -125 -46.5
t-49 -129.5z" />
    <glyph glyph-name="f.dnom" horiz-adv-x="583" 
d="M145 -614v634h-102v216h100v98q0 307 293 307q101 0 131 -10v-193q-24 6 -49 6q-133 0 -133 -112v-96h170v-216h-170v-634h-240z" />
    <glyph glyph-name="g.dnom" horiz-adv-x="993" 
d="M686 236h240v-738q0 -270 -97 -386t-305 -116q-182 0 -291 78t-135 228h232q13 -58 61 -90.5t119 -32.5q93 0 133.5 59t42.5 193v59q-92 -131 -250 -131q-166 0 -268 127.5t-102 329.5q0 195 96.5 319.5t263.5 124.5q173 0 260 -135v111zM686 -217v65q0 105 -54.5 163.5
t-137.5 58.5q-91 0 -144 -67t-53 -191t54 -192.5t145 -68.5q83 0 136.5 60.5t53.5 171.5z" />
    <glyph glyph-name="h.dnom" horiz-adv-x="1003" 
d="M86 -614v1228h242v-508q94 154 278 154q150 0 232 -91t82 -257v-526h-242v432q0 252 -158 252q-83 0 -137.5 -72t-54.5 -191v-421h-242z" />
    <glyph glyph-name="i.dnom" horiz-adv-x="425" 
d="M86 387v227h252v-227h-252zM92 -614v850h242v-850h-242z" />
    <glyph glyph-name="j.dnom" horiz-adv-x="471" 
d="M111 387v227h251v-227h-251zM78 -1004q-43 0 -79 3t-51 5l-14 3v178q19 -4 52 -4q129 0 129 133v922h241v-963q0 -126 -70.5 -201.5t-207.5 -75.5z" />
    <glyph glyph-name="k.dnom" horiz-adv-x="813" 
d="M799 -612h-244l-227 315v-317h-242v1228h242v-739l211 361h245l-258 -424z" />
    <glyph glyph-name="l.dnom" horiz-adv-x="413" 
d="M86 -614v1228h242v-1228h-242z" />
    <glyph glyph-name="m.dnom" horiz-adv-x="1624" 
d="M1214 260q152 0 232 -92t80 -272v-510h-242v440q0 244 -154 244q-88 0 -142 -71t-54 -192v-421h-242v440q0 244 -153 244q-89 0 -143 -71.5t-54 -191.5v-421h-242v850h242v-130q93 154 281 154q211 0 278 -172q115 172 313 172z" />
    <glyph glyph-name="n.dnom" horiz-adv-x="1032" 
d="M100 -614v850h242v-130q91 154 279 154q148 0 230.5 -94.5t82.5 -261.5v-518h-242v432q0 129 -42.5 190.5t-117.5 61.5q-83 0 -136.5 -71.5t-53.5 -191.5v-421h-242z" />
    <glyph glyph-name="o.dnom" horiz-adv-x="980" 
d="M492 -641q-197 0 -315 127t-118 326q0 200 117.5 324t315.5 124q196 0 313 -124t117 -324q0 -199 -117.5 -326t-312.5 -127zM492 -451q88 0 141 69.5t53 193.5q0 122 -53 190t-141 68q-90 0 -143.5 -68t-53.5 -190q0 -124 54 -193.5t143 -69.5z" />
    <glyph glyph-name="p.dnom" horiz-adv-x="1021" 
d="M594 260q166 0 267.5 -122.5t101.5 -323.5q0 -204 -102.5 -329.5t-268.5 -125.5q-72 0 -140.5 33.5t-109.5 89.5v-486h-242v1240h238v-105q44 60 113 94.5t143 34.5zM535 -449q86 0 139 71t53 188t-53.5 188.5t-141.5 71.5q-86 0 -138 -63t-52 -167v-67q0 -100 52.5 -161
t140.5 -61z" />
    <glyph glyph-name="q.dnom" horiz-adv-x="1038" 
d="M686 236h236v-1240h-242v486q-41 -55 -110 -89t-140 -34q-167 0 -269 125.5t-102 329.5q0 201 101.5 323.5t267.5 122.5q73 0 143 -34.5t115 -94.5v105zM680 -217v65q0 100 -53.5 161t-139.5 61q-88 0 -140 -70.5t-52 -187.5q0 -118 52.5 -189.5t141.5 -71.5
q86 0 138.5 64t52.5 168z" />
    <glyph glyph-name="r.dnom" horiz-adv-x="641" 
d="M92 -614v850h232v-154q55 107 145 147q61 27 162 27v-244h-23q-134 0 -205 -79t-71 -214v-333h-240z" />
    <glyph glyph-name="s.dnom" horiz-adv-x="833" 
d="M440 -641q-177 0 -278 82.5t-113 222.5h223q26 -127 162 -127q109 0 109 86q0 17 -9 31.5t-19.5 23.5t-34 19t-37.5 15t-44 14q-74 21 -124.5 42.5t-96 53.5t-68.5 78t-24 106q0 66 26.5 116t73.5 79.5t104.5 44t125.5 14.5q161 0 250.5 -76t95.5 -209h-227
q-6 58 -42 84.5t-85 26.5q-42 0 -74.5 -19t-32.5 -59q0 -43 63 -72q22 -10 152 -53q36 -12 49.5 -17t45.5 -17.5t45.5 -21.5t37.5 -24.5t35 -31t24 -37t18 -47.5t5 -56q0 -134 -89.5 -203t-246.5 -69z" />
    <glyph glyph-name="t.dnom" horiz-adv-x="630" 
d="M428 -631q-156 1 -222.5 69.5t-66.5 207.5v374h-100v193q63 0 88 31.5t25 103.5v105h229v-217h168v-216h-168v-305q0 -70 33 -96.5t106 -26.5h51v-215q-82 -8 -143 -8z" />
    <glyph glyph-name="u.dnom" horiz-adv-x="1026" 
d="M387 -641q-151 0 -231 93t-80 274v510h241v-441q0 -246 154 -246q88 0 142.5 72t54.5 193v422h241v-850h-241v135q-93 -162 -281 -162z" />
    <glyph glyph-name="v.dnom" horiz-adv-x="909" 
d="M334 -614l-322 850h250l162 -517l31 -88h2l26 88l164 517h250l-322 -850h-241z" />
    <glyph glyph-name="w.dnom" horiz-adv-x="1484" 
d="M334 -614l-322 850h250l193 -605h2l178 605h215l180 -605h2l193 605h248l-320 -850h-242l-166 612h-4l-166 -612h-241z" />
    <glyph glyph-name="x.dnom" horiz-adv-x="833" 
d="M821 236l-254 -424l254 -424h-243l-160 280l-164 -280h-242l254 424l-254 424h242l160 -287l164 287h243z" />
    <glyph glyph-name="y.dnom" horiz-adv-x="909" 
d="M193 -1004l141 392l-322 848h250l164 -525l29 -82h2l26 82l164 525h250l-303 -793l-158 -447h-243z" />
    <glyph glyph-name="z.dnom" horiz-adv-x="915" 
d="M328 -422h536v-192h-803v192l500 465h-489v193h753l2 -193z" />
    <glyph glyph-name="a.numr" horiz-adv-x="948" 
d="M328 688q-140 0 -211.5 72.5t-71.5 179.5q0 125 100 197q117 84 404 84h51v43q0 139 -135 139q-77 0 -110.5 -33t-37.5 -80h-231q2 59 21 107.5t60 91.5t117.5 67.5t182.5 24.5q187 0 282 -86t95 -287v-288v-111v-109h-232v127h-4q-85 -139 -280 -139zM420 852
q86 0 134 43.5t48 89.5v100h-59q-252 0 -252 -131q0 -102 129 -102z" />
    <glyph glyph-name="b.numr" horiz-adv-x="1007" 
d="M580 1581q166 0 267 -122.5t101 -323.5q0 -204 -101.5 -329.5t-268.5 -125.5q-72 0 -143.5 34t-110.5 89v-96h-238v1228h242v-483q46 60 113 94.5t139 34.5zM522 872q86 0 138.5 70.5t52.5 187.5t-53 189t-140 72q-86 0 -139 -63t-53 -167v-67q0 -100 53 -161t141 -61z
" />
    <glyph glyph-name="c.numr" horiz-adv-x="940" 
d="M475 680q-194 0 -305 126t-111 327q0 202 110.5 325t305.5 123q172 0 285 -96.5t123 -253.5h-236q-12 80 -55.5 120t-112.5 40q-86 0 -135 -67.5t-49 -190.5q0 -124 49 -193.5t135 -69.5q67 0 112 43.5t56 114.5h236q-9 -147 -120 -247.5t-288 -100.5z" />
    <glyph glyph-name="d.numr" horiz-adv-x="1009" 
d="M686 1935h240v-1228h-236v96q-39 -55 -110.5 -89t-143.5 -34q-167 0 -270 125.5t-103 329.5q0 201 102.5 323.5t268.5 122.5q72 0 139 -34.5t113 -94.5v483zM686 1104v65q0 100 -53 161t-139 61q-88 0 -140.5 -70.5t-52.5 -187.5q0 -118 53 -189.5t142 -71.5
q86 0 138 63.5t52 168.5z" />
    <glyph glyph-name="e.numr" horiz-adv-x="940" 
d="M475 680q-194 0 -305 125t-111 325q0 202 110.5 326.5t301.5 124.5q179 0 295.5 -110.5t116.5 -301.5v-102h-584q11 -93 57.5 -145t126.5 -52q64 0 108.5 34.5t55.5 82.5h236q-10 -119 -122.5 -213t-285.5 -94zM301 1214h344q0 83 -48 130t-122 47q-76 0 -125 -46.5
t-49 -130.5z" />
    <glyph glyph-name="f.numr" horiz-adv-x="583" 
d="M145 707v634h-102v215h100v99q0 307 293 307q101 0 131 -10v-193q-24 6 -49 6q-133 0 -133 -112v-97h170v-215h-170v-634h-240z" />
    <glyph glyph-name="g.numr" horiz-adv-x="993" 
d="M686 1556h240v-737q0 -270 -97 -386t-305 -116q-182 0 -291 78t-135 228h232q13 -58 61 -90.5t119 -32.5q93 0 133.5 59t42.5 193v59q-92 -131 -250 -131q-166 0 -268 127.5t-102 329.5q0 195 96.5 319.5t263.5 124.5q173 0 260 -135v110zM686 1104v65q0 105 -54.5 163.5
t-137.5 58.5q-91 0 -144 -67t-53 -191t54 -192.5t145 -68.5q83 0 136.5 60.5t53.5 171.5z" />
    <glyph glyph-name="h.numr" horiz-adv-x="1003" 
d="M86 707v1228h242v-508q94 154 278 154q150 0 232 -91t82 -257v-526h-242v432q0 252 -158 252q-83 0 -137.5 -72t-54.5 -191v-421h-242z" />
    <glyph glyph-name="i.numr" horiz-adv-x="425" 
d="M86 1708v227h252v-227h-252zM92 707v849h242v-849h-242z" />
    <glyph glyph-name="j.numr" horiz-adv-x="448" 
d="M111 1708v227h251v-227h-251zM78 317q-43 0 -79 2.5t-51 5.5l-14 3v178q19 -4 52 -4q129 0 129 133v921h241v-962q0 -126 -70.5 -201.5t-207.5 -75.5z" />
    <glyph glyph-name="k.numr" horiz-adv-x="813" 
d="M799 709h-244l-227 315v-317h-242v1228h242v-739l211 360h245l-258 -423z" />
    <glyph glyph-name="l.numr" horiz-adv-x="413" 
d="M86 707v1228h242v-1228h-242z" />
    <glyph glyph-name="m.numr" horiz-adv-x="1624" 
d="M1214 1581q152 0 232 -92t80 -272v-510h-242v440q0 244 -154 244q-88 0 -142 -71t-54 -192v-421h-242v440q0 244 -153 244q-89 0 -143 -71.5t-54 -191.5v-421h-242v849h242v-129q93 154 281 154q211 0 278 -172q115 172 313 172z" />
    <glyph glyph-name="n.numr" horiz-adv-x="1032" 
d="M100 707v849h242v-129q91 154 279 154q148 0 230.5 -94.5t82.5 -261.5v-518h-242v432q0 129 -42.5 190.5t-117.5 61.5q-83 0 -136.5 -71.5t-53.5 -191.5v-421h-242z" />
    <glyph glyph-name="o.numr" horiz-adv-x="980" 
d="M492 680q-197 0 -315 127t-118 326q0 200 117.5 324t315.5 124q196 0 313 -124t117 -324q0 -199 -117.5 -326t-312.5 -127zM492 870q88 0 141 69.5t53 193.5q0 122 -53 190t-141 68q-90 0 -143.5 -68t-53.5 -190q0 -124 54 -193.5t143 -69.5z" />
    <glyph glyph-name="p.numr" horiz-adv-x="1021" 
d="M594 1581q166 0 267.5 -122.5t101.5 -323.5q0 -204 -102.5 -329.5t-268.5 -125.5q-72 0 -140.5 33.5t-109.5 89.5v-486h-242v1239h238v-104q44 60 113 94.5t143 34.5zM535 872q86 0 139 70.5t53 187.5t-53.5 189t-141.5 72q-86 0 -138 -63t-52 -167v-67q0 -100 52.5 -161
t140.5 -61z" />
    <glyph glyph-name="q.numr" horiz-adv-x="1038" 
d="M686 1556h236v-1239h-242v486q-41 -55 -110 -89t-140 -34q-167 0 -269 125.5t-102 329.5q0 201 101.5 323.5t267.5 122.5q73 0 143 -34.5t115 -94.5v104zM680 1104v65q0 100 -53.5 161t-139.5 61q-88 0 -140 -70.5t-52 -187.5q0 -118 52.5 -189.5t141.5 -71.5
q86 0 138.5 64t52.5 168z" />
    <glyph glyph-name="r.numr" horiz-adv-x="641" 
d="M92 707v849h232v-153q55 107 145 147q61 27 162 27v-244h-23q-134 0 -205 -79t-71 -214v-333h-240z" />
    <glyph glyph-name="s.numr" horiz-adv-x="833" 
d="M440 680q-177 0 -278 82.5t-113 222.5h223q26 -127 162 -127q109 0 109 86q0 17 -9 31.5t-19.5 23.5t-34 19t-37.5 15t-44 14q-74 21 -124.5 42.5t-96 53.5t-68.5 78t-24 106q0 66 26.5 116t73.5 79.5t104.5 44t125.5 14.5q161 0 250.5 -76t95.5 -209h-227
q-6 58 -42 84.5t-85 26.5q-42 0 -74.5 -19t-32.5 -59q0 -43 63 -72q22 -10 152 -53q36 -12 49.5 -17t45.5 -17.5t45.5 -21.5t37.5 -24.5t35 -31t24 -37t18 -47.5t5 -56q0 -134 -89.5 -203t-246.5 -69z" />
    <glyph glyph-name="t.numr" horiz-adv-x="630" 
d="M428 690q-156 1 -222.5 69.5t-66.5 207.5v374h-100v193q63 0 88 31.5t25 103.5v105h229v-218h168v-215h-168v-305q0 -70 33 -96.5t106 -26.5h51v-215q-82 -8 -143 -8z" />
    <glyph glyph-name="u.numr" horiz-adv-x="1026" 
d="M387 680q-151 0 -231 93t-80 274v509h241v-440q0 -246 154 -246q88 0 142.5 72t54.5 193v421h241v-849h-241v135q-93 -162 -281 -162z" />
    <glyph glyph-name="v.numr" horiz-adv-x="909" 
d="M334 707l-322 849h250l162 -516l31 -88h2l26 88l164 516h250l-322 -849h-241z" />
    <glyph glyph-name="w.numr" horiz-adv-x="1484" 
d="M334 707l-322 849h250l193 -604h2l178 604h215l180 -604h2l193 604h248l-320 -849h-242l-166 612h-4l-166 -612h-241z" />
    <glyph glyph-name="x.numr" horiz-adv-x="833" 
d="M821 1556l-254 -423l254 -424h-243l-160 280l-164 -280h-242l254 424l-254 423h242l160 -286l164 286h243z" />
    <glyph glyph-name="y.numr" horiz-adv-x="909" 
d="M193 317l141 392l-322 847h250l164 -524l29 -82h2l26 82l164 524h250l-303 -792l-158 -447h-243z" />
    <glyph glyph-name="z.numr" horiz-adv-x="915" 
d="M328 899h536v-192h-803v192l500 465h-489v192h753l2 -192z" />
    <glyph glyph-name="a.subs" horiz-adv-x="948" 
d="M328 -633q-140 0 -211.5 72.5t-71.5 179.5q0 125 100 197q117 84 404 84h51v43q0 139 -135 139q-77 0 -110.5 -33t-37.5 -80h-231q2 59 21 107.5t60 91.5t117.5 67.5t182.5 24.5q187 0 282 -86t95 -287v-288v-111v-109h-232v127h-4q-85 -139 -280 -139zM420 -469
q86 0 134 43.5t48 89.5v100h-59q-252 0 -252 -131q0 -102 129 -102z" />
    <glyph glyph-name="b.subs" horiz-adv-x="1007" 
d="M580 260q166 0 267 -122.5t101 -323.5q0 -204 -101.5 -329.5t-268.5 -125.5q-72 0 -143.5 34t-110.5 89v-96h-238v1228h242v-483q46 60 113 94.5t139 34.5zM522 -449q86 0 138.5 71t52.5 188t-52.5 188.5t-140.5 71.5q-86 0 -139 -63t-53 -167v-67q0 -100 53 -161
t141 -61z" />
    <glyph glyph-name="c.subs" horiz-adv-x="940" 
d="M475 -641q-194 0 -305 126t-111 327q0 202 110.5 325t305.5 123q172 0 285 -96.5t123 -253.5h-236q-12 80 -55.5 120t-112.5 40q-86 0 -135 -67.5t-49 -190.5q0 -124 49 -193.5t135 -69.5q67 0 112 43.5t56 114.5h236q-9 -147 -120 -247.5t-288 -100.5z" />
    <glyph glyph-name="d.subs" horiz-adv-x="1009" 
d="M686 614h240v-1228h-236v96q-39 -55 -110.5 -89t-143.5 -34q-167 0 -270 125.5t-103 329.5q0 201 102.5 323.5t268.5 122.5q72 0 139 -34.5t113 -94.5v483zM686 -217v65q0 100 -53 161t-139 61q-88 0 -140.5 -70.5t-52.5 -187.5q0 -118 53 -189.5t142 -71.5
q86 0 138 63.5t52 168.5z" />
    <glyph glyph-name="e.subs" horiz-adv-x="940" 
d="M475 -641q-194 0 -305 125.5t-111 325.5q0 202 110.5 326t301.5 124q179 0 295.5 -110.5t116.5 -301.5v-102h-584q11 -93 57.5 -145t126.5 -52q64 0 108.5 34.5t55.5 82.5h236q-10 -119 -122.5 -213t-285.5 -94zM301 -106h344q0 83 -48 129.5t-122 46.5q-76 0 -125 -46.5
t-49 -129.5z" />
    <glyph glyph-name="f.subs" horiz-adv-x="583" 
d="M145 -614v634h-102v216h100v98q0 307 293 307q101 0 131 -10v-193q-24 6 -49 6q-133 0 -133 -112v-96h170v-216h-170v-634h-240z" />
    <glyph glyph-name="g.subs" horiz-adv-x="993" 
d="M686 236h240v-738q0 -270 -97 -386t-305 -116q-182 0 -291 78t-135 228h232q13 -58 61 -90.5t119 -32.5q93 0 133.5 59t42.5 193v59q-92 -131 -250 -131q-166 0 -268 127.5t-102 329.5q0 195 96.5 319.5t263.5 124.5q173 0 260 -135v111zM686 -217v65q0 105 -54.5 163.5
t-137.5 58.5q-91 0 -144 -67t-53 -191t54 -192.5t145 -68.5q83 0 136.5 60.5t53.5 171.5z" />
    <glyph glyph-name="h.subs" horiz-adv-x="1003" 
d="M86 -614v1228h242v-508q94 154 278 154q150 0 232 -91t82 -257v-526h-242v432q0 252 -158 252q-83 0 -137.5 -72t-54.5 -191v-421h-242z" />
    <glyph glyph-name="i.subs" horiz-adv-x="425" 
d="M86 387v227h252v-227h-252zM92 -614v850h242v-850h-242z" />
    <glyph glyph-name="j.subs" horiz-adv-x="448" 
d="M111 387v227h251v-227h-251zM78 -1004q-43 0 -79 3t-51 5l-14 3v178q19 -4 52 -4q129 0 129 133v922h241v-963q0 -126 -70.5 -201.5t-207.5 -75.5z" />
    <glyph glyph-name="k.subs" horiz-adv-x="813" 
d="M799 -612h-244l-227 315v-317h-242v1228h242v-739l211 361h245l-258 -424z" />
    <glyph glyph-name="l.subs" horiz-adv-x="413" 
d="M86 -614v1228h242v-1228h-242z" />
    <glyph glyph-name="m.subs" horiz-adv-x="1624" 
d="M1214 260q152 0 232 -92t80 -272v-510h-242v440q0 244 -154 244q-88 0 -142 -71t-54 -192v-421h-242v440q0 244 -153 244q-89 0 -143 -71.5t-54 -191.5v-421h-242v850h242v-130q93 154 281 154q211 0 278 -172q115 172 313 172z" />
    <glyph glyph-name="n.subs" horiz-adv-x="1032" 
d="M100 -614v850h242v-130q91 154 279 154q148 0 230.5 -94.5t82.5 -261.5v-518h-242v432q0 129 -42.5 190.5t-117.5 61.5q-83 0 -136.5 -71.5t-53.5 -191.5v-421h-242z" />
    <glyph glyph-name="o.subs" horiz-adv-x="980" 
d="M492 -641q-197 0 -315 127t-118 326q0 200 117.5 324t315.5 124q196 0 313 -124t117 -324q0 -199 -117.5 -326t-312.5 -127zM492 -451q88 0 141 69.5t53 193.5q0 122 -53 190t-141 68q-90 0 -143.5 -68t-53.5 -190q0 -124 54 -193.5t143 -69.5z" />
    <glyph glyph-name="p.subs" horiz-adv-x="1021" 
d="M594 260q166 0 267.5 -122.5t101.5 -323.5q0 -204 -102.5 -329.5t-268.5 -125.5q-72 0 -140.5 33.5t-109.5 89.5v-486h-242v1240h238v-105q44 60 113 94.5t143 34.5zM535 -449q86 0 139 71t53 188t-53.5 188.5t-141.5 71.5q-86 0 -138 -63t-52 -167v-67q0 -100 52.5 -161
t140.5 -61z" />
    <glyph glyph-name="q.subs" horiz-adv-x="1038" 
d="M686 236h236v-1240h-242v486q-41 -55 -110 -89t-140 -34q-167 0 -269 125.5t-102 329.5q0 201 101.5 323.5t267.5 122.5q73 0 143 -34.5t115 -94.5v105zM680 -217v65q0 100 -53.5 161t-139.5 61q-88 0 -140 -70.5t-52 -187.5q0 -118 52.5 -189.5t141.5 -71.5
q86 0 138.5 64t52.5 168z" />
    <glyph glyph-name="r.subs" horiz-adv-x="641" 
d="M92 -614v850h232v-154q55 107 145 147q61 27 162 27v-244h-23q-134 0 -205 -79t-71 -214v-333h-240z" />
    <glyph glyph-name="s.subs" horiz-adv-x="833" 
d="M440 -641q-177 0 -278 82.5t-113 222.5h223q26 -127 162 -127q109 0 109 86q0 17 -9 31.5t-19.5 23.5t-34 19t-37.5 15t-44 14q-74 21 -124.5 42.5t-96 53.5t-68.5 78t-24 106q0 66 26.5 116t73.5 79.5t104.5 44t125.5 14.5q161 0 250.5 -76t95.5 -209h-227
q-6 58 -42 84.5t-85 26.5q-42 0 -74.5 -19t-32.5 -59q0 -43 63 -72q22 -10 152 -53q36 -12 49.5 -17t45.5 -17.5t45.5 -21.5t37.5 -24.5t35 -31t24 -37t18 -47.5t5 -56q0 -134 -89.5 -203t-246.5 -69z" />
    <glyph glyph-name="t.subs" horiz-adv-x="630" 
d="M428 -631q-156 1 -222.5 69.5t-66.5 207.5v374h-100v193q63 0 88 31.5t25 103.5v105h229v-217h168v-216h-168v-305q0 -70 33 -96.5t106 -26.5h51v-215q-82 -8 -143 -8z" />
    <glyph glyph-name="u.subs" horiz-adv-x="1026" 
d="M387 -641q-151 0 -231 93t-80 274v510h241v-441q0 -246 154 -246q88 0 142.5 72t54.5 193v422h241v-850h-241v135q-93 -162 -281 -162z" />
    <glyph glyph-name="v.subs" horiz-adv-x="909" 
d="M334 -614l-322 850h250l162 -517l31 -88h2l26 88l164 517h250l-322 -850h-241z" />
    <glyph glyph-name="w.subs" horiz-adv-x="1484" 
d="M334 -614l-322 850h250l193 -605h2l178 605h215l180 -605h2l193 605h248l-320 -850h-242l-166 612h-4l-166 -612h-241z" />
    <glyph glyph-name="x.subs" horiz-adv-x="833" 
d="M821 236l-254 -424l254 -424h-243l-160 280l-164 -280h-242l254 424l-254 424h242l160 -287l164 287h243z" />
    <glyph glyph-name="y.subs" horiz-adv-x="909" 
d="M193 -1004l141 392l-322 848h250l164 -525l29 -82h2l26 82l164 525h250l-303 -793l-158 -447h-243z" />
    <glyph glyph-name="z.subs" horiz-adv-x="915" 
d="M328 -422h536v-192h-803v192l500 465h-489v193h753l2 -193z" />
    <glyph glyph-name="a.sups" horiz-adv-x="948" 
d="M328 688q-140 0 -211.5 72.5t-71.5 179.5q0 125 100 197q117 84 404 84h51v43q0 139 -135 139q-77 0 -110.5 -33t-37.5 -80h-231q2 59 21 107.5t60 91.5t117.5 67.5t182.5 24.5q187 0 282 -86t95 -287v-288v-111v-109h-232v127h-4q-85 -139 -280 -139zM420 852
q86 0 134 43.5t48 89.5v100h-59q-252 0 -252 -131q0 -102 129 -102z" />
    <glyph glyph-name="b.sups" horiz-adv-x="1007" 
d="M580 1581q166 0 267 -122.5t101 -323.5q0 -204 -101.5 -329.5t-268.5 -125.5q-72 0 -143.5 34t-110.5 89v-96h-238v1228h242v-483q46 60 113 94.5t139 34.5zM522 872q86 0 138.5 70.5t52.5 187.5t-53 189t-140 72q-86 0 -139 -63t-53 -167v-67q0 -100 53 -161t141 -61z
" />
    <glyph glyph-name="c.sups" horiz-adv-x="940" 
d="M475 680q-194 0 -305 126t-111 327q0 202 110.5 325t305.5 123q172 0 285 -96.5t123 -253.5h-236q-12 80 -55.5 120t-112.5 40q-86 0 -135 -67.5t-49 -190.5q0 -124 49 -193.5t135 -69.5q67 0 112 43.5t56 114.5h236q-9 -147 -120 -247.5t-288 -100.5z" />
    <glyph glyph-name="d.sups" horiz-adv-x="1009" 
d="M686 1935h240v-1228h-236v96q-39 -55 -110.5 -89t-143.5 -34q-167 0 -270 125.5t-103 329.5q0 201 102.5 323.5t268.5 122.5q72 0 139 -34.5t113 -94.5v483zM686 1104v65q0 100 -53 161t-139 61q-88 0 -140.5 -70.5t-52.5 -187.5q0 -118 53 -189.5t142 -71.5
q86 0 138 63.5t52 168.5z" />
    <glyph glyph-name="e.sups" horiz-adv-x="940" 
d="M475 680q-194 0 -305 125t-111 325q0 202 110.5 326.5t301.5 124.5q179 0 295.5 -110.5t116.5 -301.5v-102h-584q11 -93 57.5 -145t126.5 -52q64 0 108.5 34.5t55.5 82.5h236q-10 -119 -122.5 -213t-285.5 -94zM301 1214h344q0 83 -48 130t-122 47q-76 0 -125 -46.5
t-49 -130.5z" />
    <glyph glyph-name="f.sups" horiz-adv-x="583" 
d="M145 707v634h-102v215h100v99q0 307 293 307q101 0 131 -10v-193q-24 6 -49 6q-133 0 -133 -112v-97h170v-215h-170v-634h-240z" />
    <glyph glyph-name="g.sups" horiz-adv-x="993" 
d="M686 1556h240v-737q0 -270 -97 -386t-305 -116q-182 0 -291 78t-135 228h232q13 -58 61 -90.5t119 -32.5q93 0 133.5 59t42.5 193v59q-92 -131 -250 -131q-166 0 -268 127.5t-102 329.5q0 195 96.5 319.5t263.5 124.5q173 0 260 -135v110zM686 1104v65q0 105 -54.5 163.5
t-137.5 58.5q-91 0 -144 -67t-53 -191t54 -192.5t145 -68.5q83 0 136.5 60.5t53.5 171.5z" />
    <glyph glyph-name="h.sups" horiz-adv-x="1003" 
d="M86 707v1228h242v-508q94 154 278 154q150 0 232 -91t82 -257v-526h-242v432q0 252 -158 252q-83 0 -137.5 -72t-54.5 -191v-421h-242z" />
    <glyph glyph-name="i.sups" horiz-adv-x="425" 
d="M86 1708v227h252v-227h-252zM92 707v849h242v-849h-242z" />
    <glyph glyph-name="j.sups" horiz-adv-x="448" 
d="M111 1708v227h251v-227h-251zM78 317q-43 0 -79 2.5t-51 5.5l-14 3v178q19 -4 52 -4q129 0 129 133v921h241v-962q0 -126 -70.5 -201.5t-207.5 -75.5z" />
    <glyph glyph-name="k.sups" horiz-adv-x="813" 
d="M799 709h-244l-227 315v-317h-242v1228h242v-739l211 360h245l-258 -423z" />
    <glyph glyph-name="l.sups" horiz-adv-x="413" 
d="M86 707v1228h242v-1228h-242z" />
    <glyph glyph-name="m.sups" horiz-adv-x="1624" 
d="M1214 1581q152 0 232 -92t80 -272v-510h-242v440q0 244 -154 244q-88 0 -142 -71t-54 -192v-421h-242v440q0 244 -153 244q-89 0 -143 -71.5t-54 -191.5v-421h-242v849h242v-129q93 154 281 154q211 0 278 -172q115 172 313 172z" />
    <glyph glyph-name="n.sups" horiz-adv-x="1032" 
d="M100 707v849h242v-129q91 154 279 154q148 0 230.5 -94.5t82.5 -261.5v-518h-242v432q0 129 -42.5 190.5t-117.5 61.5q-83 0 -136.5 -71.5t-53.5 -191.5v-421h-242z" />
    <glyph glyph-name="o.sups" horiz-adv-x="980" 
d="M492 680q-197 0 -315 127t-118 326q0 200 117.5 324t315.5 124q196 0 313 -124t117 -324q0 -199 -117.5 -326t-312.5 -127zM492 870q88 0 141 69.5t53 193.5q0 122 -53 190t-141 68q-90 0 -143.5 -68t-53.5 -190q0 -124 54 -193.5t143 -69.5z" />
    <glyph glyph-name="p.sups" horiz-adv-x="1021" 
d="M594 1581q166 0 267.5 -122.5t101.5 -323.5q0 -204 -102.5 -329.5t-268.5 -125.5q-72 0 -140.5 33.5t-109.5 89.5v-486h-242v1239h238v-104q44 60 113 94.5t143 34.5zM535 872q86 0 139 70.5t53 187.5t-53.5 189t-141.5 72q-86 0 -138 -63t-52 -167v-67q0 -100 52.5 -161
t140.5 -61z" />
    <glyph glyph-name="q.sups" horiz-adv-x="1038" 
d="M686 1556h236v-1239h-242v486q-41 -55 -110 -89t-140 -34q-167 0 -269 125.5t-102 329.5q0 201 101.5 323.5t267.5 122.5q73 0 143 -34.5t115 -94.5v104zM680 1104v65q0 100 -53.5 161t-139.5 61q-88 0 -140 -70.5t-52 -187.5q0 -118 52.5 -189.5t141.5 -71.5
q86 0 138.5 64t52.5 168z" />
    <glyph glyph-name="r.sups" horiz-adv-x="641" 
d="M92 707v849h232v-153q55 107 145 147q61 27 162 27v-244h-23q-134 0 -205 -79t-71 -214v-333h-240z" />
    <glyph glyph-name="s.sups" horiz-adv-x="833" 
d="M440 680q-177 0 -278 82.5t-113 222.5h223q26 -127 162 -127q109 0 109 86q0 17 -9 31.5t-19.5 23.5t-34 19t-37.5 15t-44 14q-74 21 -124.5 42.5t-96 53.5t-68.5 78t-24 106q0 66 26.5 116t73.5 79.5t104.5 44t125.5 14.5q161 0 250.5 -76t95.5 -209h-227
q-6 58 -42 84.5t-85 26.5q-42 0 -74.5 -19t-32.5 -59q0 -43 63 -72q22 -10 152 -53q36 -12 49.5 -17t45.5 -17.5t45.5 -21.5t37.5 -24.5t35 -31t24 -37t18 -47.5t5 -56q0 -134 -89.5 -203t-246.5 -69z" />
    <glyph glyph-name="t.sups" horiz-adv-x="630" 
d="M428 690q-156 1 -222.5 69.5t-66.5 207.5v374h-100v193q63 0 88 31.5t25 103.5v105h229v-218h168v-215h-168v-305q0 -70 33 -96.5t106 -26.5h51v-215q-82 -8 -143 -8z" />
    <glyph glyph-name="u.sups" horiz-adv-x="1026" 
d="M387 680q-151 0 -231 93t-80 274v509h241v-440q0 -246 154 -246q88 0 142.5 72t54.5 193v421h241v-849h-241v135q-93 -162 -281 -162z" />
    <glyph glyph-name="v.sups" horiz-adv-x="909" 
d="M334 707l-322 849h250l162 -516l31 -88h2l26 88l164 516h250l-322 -849h-241z" />
    <glyph glyph-name="w.sups" horiz-adv-x="1484" 
d="M334 707l-322 849h250l193 -604h2l178 604h215l180 -604h2l193 604h248l-320 -849h-242l-166 612h-4l-166 -612h-241z" />
    <glyph glyph-name="x.sups" horiz-adv-x="833" 
d="M821 1556l-254 -423l254 -424h-243l-160 280l-164 -280h-242l254 424l-254 423h242l160 -286l164 286h243z" />
    <glyph glyph-name="y.sups" horiz-adv-x="909" 
d="M193 317l141 392l-322 847h250l164 -524l29 -82h2l26 82l164 524h250l-303 -792l-158 -447h-243z" />
    <glyph glyph-name="z.sups" horiz-adv-x="915" 
d="M328 899h536v-192h-803v192l500 465h-489v192h753l2 -192z" />
    <glyph glyph-name="zero.lf" horiz-adv-x="1554" 
d="M778 -33q-162 0 -292 62t-214.5 171.5t-129 257t-44.5 320.5t44.5 320.5t129 257t214.5 171.5t292 62t292 -62t213.5 -171.5t128 -257t44.5 -320.5t-44.5 -320.5t-128 -257t-213.5 -171.5t-292 -62zM778 236q115 0 197 71.5t122 192.5t40 278q0 241 -94 392t-265 151
q-115 0 -197.5 -72t-122.5 -193t-40 -278t40 -278t122.5 -192.5t197.5 -71.5z" />
    <glyph glyph-name="one.lf" horiz-adv-x="1554" 
d="M930 303h526v-303h-1358v303h531v950h-457v303h758v-1253z" />
    <glyph glyph-name="two.lf" horiz-adv-x="1554" 
d="M160 -2v305q74 47 230.5 143.5t250 157.5t172.5 121q133 103 200.5 187t67.5 178q0 107 -79.5 169t-233.5 62q-168 0 -260 -82.5t-92 -239.5q0 -77 16 -163h-317q-17 80 -17 168q0 100 23.5 185.5t75.5 160t130 127t193.5 82.5t259.5 30q161 0 281.5 -36.5t192.5 -103
t107.5 -152.5t35.5 -191q0 -147 -76.5 -276.5t-255.5 -266.5q-153 -117 -420 -260h811v-305h-1296z" />
    <glyph glyph-name="three.lf" horiz-adv-x="1591" 
d="M727 -33q-293 0 -464 111.5t-208 322.5h326q49 -168 346 -168q383 0 383 252q0 130 -112 197.5t-365 67.5h-205v229l553 295h-815v282h1186v-323l-508 -272l6 -3q163 0 289 -52.5t200 -158.5t74 -253q0 -76 -19.5 -146.5t-69.5 -141.5t-125.5 -122.5t-196.5 -84
t-275 -32.5z" />
    <glyph glyph-name="four.lf" horiz-adv-x="1591" 
d="M1413 594v-303h-289v-291h-301v291h-768v323l568 942h344l-568 -962h424v340h301v-340h289z" />
    <glyph glyph-name="five.lf" horiz-adv-x="1591" 
d="M731 -33q-303 0 -482.5 121.5t-193.5 312.5h326q6 -57 58 -96.5t124 -56.5t156 -17q98 0 174 25.5t122 70t69.5 99.5t23.5 117q0 129 -92 216t-266 87q-94 0 -167.5 -29.5t-113 -69t-63.5 -90.5h-334l237 899h940v-282h-727l-84 -320q119 140 379 140q149 0 265.5 -44.5
t187.5 -121.5t107 -176.5t36 -214.5q0 -92 -22.5 -173t-73.5 -155t-128.5 -127t-194.5 -84t-263 -31z" />
    <glyph glyph-name="six.lf" horiz-adv-x="1591" 
d="M743 -33q-317 0 -502.5 201t-185.5 569q0 245 82.5 436.5t243.5 303.5t377 112q234 0 388 -114t179 -299h-315q-15 69 -89 115t-173 46q-166 0 -261 -128t-106 -343q63 98 186 156.5t277 58.5q250 0 409.5 -149.5t159.5 -390.5q0 -258 -184.5 -416t-485.5 -158zM739 231
q152 0 245 83t93 218t-93 218.5t-245 83.5q-151 0 -242 -82.5t-91 -219.5q0 -136 90.5 -218.5t242.5 -82.5z" />
    <glyph glyph-name="seven.lf" horiz-adv-x="1591" 
d="M279 0l768 1253h-992v303h1358v-313l-782 -1243h-352z" />
    <glyph glyph-name="eight.lf" horiz-adv-x="1591" 
d="M735 -33q-126 0 -230 19.5t-177 54.5t-127 80t-85 99t-46 109t-15 113q0 146 83.5 252.5t211.5 139.5q-100 39 -160.5 126.5t-60.5 204.5q0 66 19.5 126t64.5 115t113.5 95t173 64t235.5 24t235.5 -24t173 -63.5t113.5 -95t64.5 -114.5t19.5 -125q0 -117 -60.5 -205.5
t-160.5 -127.5q125 -34 209 -138.5t84 -253.5q0 -71 -20 -135.5t-69.5 -127.5t-124.5 -109t-194.5 -74.5t-269.5 -28.5zM733 956q137 0 208 57t71 140t-71 139t-208 56q-135 0 -205.5 -56t-70.5 -139t70.5 -140t205.5 -57zM733 229q177 0 261.5 66.5t84.5 163.5
q0 94 -82 158.5t-264 64.5q-94 0 -164 -19t-108 -52t-56 -71t-18 -81q0 -45 19 -84.5t58.5 -73t108.5 -53t160 -19.5z" />
    <glyph glyph-name="nine.lf" horiz-adv-x="1591" 
d="M698 -33q-275 0 -440 112t-192 298h315q15 -68 104.5 -113t206.5 -45q190 0 293.5 123.5t106.5 333.5q-54 -86 -181 -140.5t-276 -54.5q-245 0 -402 149t-157 390q0 255 178.5 412t462.5 157q157 0 285 -51.5t219.5 -149.5t141.5 -246t50 -333q0 -249 -86.5 -439.5
t-249.5 -296.5t-379 -106zM725 727q153 0 248.5 83t95.5 218q0 133 -95 215t-249 82q-152 0 -243 -81.5t-91 -215.5q0 -136 91 -218.5t243 -82.5z" />
    <glyph glyph-name="zero.osf" horiz-adv-x="1323" 
d="M666 -33q-255 0 -410.5 166t-155.5 440q0 291 155 469.5t407 178.5t406.5 -178t154.5 -470q0 -273 -153 -439.5t-404 -166.5zM659 250q114 0 182 90t68 240q0 163 -67.5 261.5t-179.5 98.5q-113 0 -181.5 -98.5t-68.5 -261.5q0 -149 68 -239.5t179 -90.5z" />
    <glyph glyph-name="one.osf" horiz-adv-x="1038" 
d="M694 303h275v-303h-858v303h288v582l-247 -152v322l247 164h295v-916z" />
    <glyph glyph-name="two.osf" horiz-adv-x="1282" 
d="M156 0v262q39 23 138 80.5t150 88t121.5 75.5t118.5 82q162 123 162 225q0 65 -53.5 111.5t-155.5 46.5q-124 0 -180 -68t-56 -176h-297q0 221 145 357.5t396 136.5q228 0 362 -111t134 -279q0 -192 -197 -352q-113 -93 -344 -217h582v-262h-1026z" />
    <glyph glyph-name="three.osf" horiz-adv-x="1198" 
d="M119 -367v256h174q498 0 498 265q0 241 -396 241h-151v209l454 344h-637v273h979v-283l-434 -330v-4q101 0 190 -28.5t157.5 -82.5t108.5 -141.5t40 -197.5q0 -125 -39.5 -218t-127 -162.5t-236 -105t-357.5 -35.5h-223z" />
    <glyph glyph-name="four.osf" horiz-adv-x="1288" 
d="M1217 293v-293h-156v-362h-301v362h-686v272l645 949h342v-928h156zM397 293h363v518z" />
    <glyph glyph-name="five.osf" horiz-adv-x="1351" 
d="M664 -369q-257 0 -420.5 115t-177.5 297h319q6 -52 49.5 -89.5t102 -54t122.5 -16.5q145 0 224.5 89.5t79.5 215.5t-79 211.5t-210 85.5q-100 0 -173.5 -53.5t-105.5 -142.5h-295l219 932h805v-293h-600l-82 -303q54 52 137.5 85t186.5 33q154 0 269.5 -75t174 -198.5
t58.5 -274.5q0 -89 -20.5 -169t-67 -153t-115 -126t-171.5 -84.5t-230 -31.5z" />
    <glyph glyph-name="six.osf" horiz-adv-x="1462" 
d="M756 -33q-160 0 -282 53.5t-199.5 153.5t-116.5 238t-39 311q0 117 18 225t53.5 205t91.5 176.5t129 137.5t170.5 90t211.5 32q94 0 174 -23t136 -61.5t97.5 -90.5t63.5 -109.5t28 -118.5h-315q-12 69 -69.5 110t-135.5 41q-99 0 -176.5 -70t-120 -180t-51.5 -241
q61 107 176 161t248 54q101 0 187 -29.5t146.5 -80t104 -117.5t64 -143t20.5 -156q0 -83 -21.5 -162.5t-70 -153.5t-118.5 -129.5t-174 -89t-230 -33.5zM754 231q130 0 215.5 85.5t85.5 211.5q0 120 -83 202.5t-218 82.5q-134 0 -218.5 -82t-84.5 -203q0 -124 86.5 -210.5
t216.5 -86.5z" />
    <glyph glyph-name="seven.osf" horiz-adv-x="1165" 
d="M166 -334l584 1254h-684v303h1021v-303l-577 -1254h-344z" />
    <glyph glyph-name="eight.osf" horiz-adv-x="1501" 
d="M725 -35q-143 0 -257.5 28.5t-187 75t-121.5 109.5t-69 128.5t-20 135.5q0 147 83.5 253t213.5 139q-101 42 -162.5 128.5t-61.5 196.5q0 65 19.5 125t64 116t110 97t165.5 65.5t223 24.5q124 0 223.5 -24.5t165 -65t109.5 -95.5t63 -114t19 -123q0 -113 -61 -201
t-163 -130q129 -34 212 -138t83 -254q0 -70 -19.5 -135.5t-67.5 -128.5t-120 -109.5t-186.5 -75t-257.5 -28.5zM723 954q126 0 193 56t67 139q0 84 -67.5 140.5t-192.5 56.5q-126 0 -195 -57t-69 -140t69 -139t195 -56zM723 229q159 0 240 66t81 160q0 95 -77.5 161
t-243.5 66t-245 -64.5t-79 -162.5q0 -94 81.5 -160t242.5 -66z" />
    <glyph glyph-name="nine.osf" horiz-adv-x="1437" 
d="M692 -369q-109 0 -200.5 23t-154.5 62t-109 91.5t-69.5 110t-29.5 119.5h315q13 -74 85.5 -114t172.5 -40q137 0 220.5 118t85.5 294q-146 -182 -394 -182q-122 0 -221 46t-161 122.5t-95 172t-33 199.5q0 84 21.5 164t68.5 154t115.5 129t169.5 88t223 33
q307 0 462 -200t155 -566q0 -129 -20 -244.5t-67 -223t-117.5 -185.5t-178.5 -124.5t-244 -46.5zM698 358q131 0 213 86.5t82 214.5t-81.5 212.5t-213.5 84.5q-123 0 -201.5 -85t-78.5 -212q0 -128 78.5 -214.5t201.5 -86.5z" />
    <glyph glyph-name="zero.ss01" horiz-adv-x="1554" 
d="M778 -33q-170 0 -302.5 65.5t-213.5 179t-122.5 257t-41.5 309.5t41.5 309.5t122.5 257t213.5 179t302.5 65.5t302.5 -65.5t213 -179t121.5 -257t41 -309.5t-41 -309.5t-121.5 -257t-213 -179t-302.5 -65.5zM778 242q94 0 165.5 46t113 124t62 170.5t20.5 195.5
t-20.5 196t-62 171t-113 124t-165.5 46q-75 0 -137 -30.5t-102.5 -82t-68.5 -121.5t-40 -145.5t-12 -157.5q0 -103 20.5 -195.5t61.5 -170.5t112.5 -124t165.5 -46z" />
    <glyph glyph-name="one.ss01" horiz-adv-x="839" 
d="M438 0v1194l-340 -289v365l340 286h301v-1556h-301z" />
    <glyph glyph-name="two.ss01" horiz-adv-x="1492" 
d="M98 -2l-2 305l365 213q-181 23 -292.5 168t-111.5 350q0 87 21 166t69 150.5t119 124t179 83.5t241 31q137 0 245 -32t177.5 -85.5t115 -127t64.5 -151t19 -163.5q0 -170 -89 -301t-303 -242l-340 -184h740v-305h-1217zM684 725q146 0 227.5 85.5t81.5 213.5
q0 131 -81 218t-228 87q-149 0 -231 -86.5t-82 -214.5t82 -215.5t231 -87.5z" />
    <glyph glyph-name="three.ss01" horiz-adv-x="1488" 
d="M737 -33q-142 0 -253 31t-182.5 84t-118 128.5t-66 158t-19.5 178.5q0 194 89.5 337t299.5 232l291 137h-680v306h1200l2 -306l-354 -186q137 0 239.5 -72t154 -191t51.5 -267q0 -93 -21 -174.5t-70.5 -155t-123.5 -126t-186 -83.5t-253 -31zM743 242q148 0 230 87
t82 222q0 138 -81 224.5t-231 86.5q-151 0 -232 -86.5t-81 -224.5q0 -135 81 -222t232 -87z" />
    <glyph glyph-name="four.ss01" horiz-adv-x="1431" 
d="M1333 594v-303h-153v-291h-301v291h-781v323l760 942h322v-962h153zM444 594h435v555z" />
    <glyph glyph-name="five.ss01" horiz-adv-x="1478" 
d="M741 -33q-135 0 -243.5 31.5t-182.5 85.5t-123.5 130.5t-71.5 163.5t-22 187q0 126 39 301q25 114 162 690h913v-303h-675l-68 -280q106 121 348 121q266 0 414.5 -153t148.5 -402q0 -118 -36 -218.5t-109.5 -181t-200 -126.5t-293.5 -46zM743 242q147 0 229.5 86.5
t82.5 214.5q0 131 -81.5 217t-230.5 86q-150 0 -231.5 -86t-81.5 -217q0 -129 81.5 -215t231.5 -86z" />
    <glyph glyph-name="six.ss01" horiz-adv-x="1468" 
d="M743 -33q-298 0 -471.5 158t-173.5 442q0 122 41.5 241.5t146 287.5t304.5 436l18 24h326l-406 -550q48 43 127.5 64.5t167.5 21.5q115 0 214 -37t173 -105t116 -172.5t42 -232.5q0 -119 -37.5 -221.5t-111.5 -183.5t-196 -127t-280 -46zM729 242q149 0 231 86t82 217
q0 129 -81.5 215t-229.5 86q-142 0 -226.5 -82.5t-84.5 -218.5q0 -130 80.5 -216.5t228.5 -86.5z" />
    <glyph glyph-name="seven.ss01" horiz-adv-x="1249" 
d="M315 0q24 325 168 651t365 602h-750v303h1053v-352q-84 -120 -140 -205.5t-131 -218t-122 -245.5t-84.5 -255.5t-46.5 -279.5h-312z" />
    <glyph glyph-name="nine.ss01" horiz-adv-x="1478" 
d="M201 0v279h743l66 284q-105 -110 -336 -110q-137 0 -247 41.5t-181.5 116.5t-109.5 177t-38 224q0 121 36.5 223t111.5 182.5t200.5 126t290.5 45.5q137 0 246.5 -32t182.5 -86.5t122 -131t70.5 -162t21.5 -182.5q0 -109 -26 -243l-164 -752h-989zM733 717
q149 0 230 85.5t81 213.5q0 131 -81 218t-228 87q-150 0 -231.5 -86.5t-81.5 -218.5q0 -128 81 -213.5t230 -85.5z" />
    <glyph glyph-name="zero.tf" horiz-adv-x="1540" 
d="M772 -33q-162 0 -292 62t-214.5 171.5t-129 257t-44.5 320.5t44.5 320.5t129 257t214.5 171.5t292 62q161 0 290.5 -62t213 -171.5t128 -257t44.5 -320.5t-44.5 -320.5t-128 -257t-213 -171.5t-290.5 -62zM770 236q171 0 264.5 150.5t93.5 391.5t-93.5 392t-264.5 151
t-264.5 -151t-93.5 -392t93.5 -391.5t264.5 -150.5z" />
    <glyph glyph-name="one.tf" horiz-adv-x="1540" 
d="M922 303h526v-303h-1356v303h529v950h-457v303h758v-1253z" />
    <glyph glyph-name="two.tf" horiz-adv-x="1540" 
d="M154 -2v305q82 52 231.5 144.5t246 155t175.5 122.5q87 67 140.5 119.5t89.5 116.5t36 129q0 107 -79.5 169t-233.5 62q-168 0 -260 -82.5t-92 -239.5q0 -86 18 -163h-317q-17 80 -17 168q0 126 38 229t117 184.5t213 126.5t314 45q160 0 280.5 -36.5t192.5 -103.5
t107 -152.5t35 -190.5q0 -147 -76.5 -276.5t-255.5 -266.5q-153 -117 -420 -260h811v-305h-1294z" />
    <glyph glyph-name="three.tf" horiz-adv-x="1540" 
d="M764 -33q-293 0 -464 111.5t-208 322.5h324q51 -168 348 -168q110 0 188 21t118.5 58.5t57.5 79.5t17 93q0 130 -111 197.5t-364 67.5h-205v229l553 295h-815v282h1186v-323l-508 -272l6 -3q163 0 288.5 -52.5t199 -158.5t73.5 -253q0 -53 -9.5 -104t-33 -104t-59 -99
t-90 -87t-124 -70t-163.5 -46t-205 -17z" />
    <glyph glyph-name="four.tf" horiz-adv-x="1540" 
d="M1448 594v-303h-287v-291h-301v291h-768v323l565 942h347l-568 -962h424v340h301v-340h287z" />
    <glyph glyph-name="five.tf" horiz-adv-x="1540" 
d="M766 -33q-302 0 -481 121.5t-193 312.5h326q7 -83 106 -126.5t230 -43.5q192 0 291.5 90t99.5 222q0 129 -92.5 216t-266.5 87q-138 0 -222 -54t-122 -135h-333l237 899h940v-282h-727l-86 -320q122 140 381 140q149 0 265 -44.5t186.5 -122t106.5 -176.5t36 -214
q0 -92 -22.5 -173t-73.5 -155t-128.5 -127t-194.5 -84t-263 -31z" />
    <glyph glyph-name="six.tf" horiz-adv-x="1540" 
d="M780 -33q-318 0 -503 200.5t-185 569.5q0 245 82.5 436.5t243.5 303.5t377 112q234 0 387 -114t180 -299h-315q-17 70 -91 115.5t-174 45.5q-165 0 -259 -128t-105 -343q63 98 186 156.5t277 58.5q249 0 408 -149.5t159 -390.5q0 -258 -184.5 -416t-483.5 -158zM776 231
q152 0 245 83t93 218t-93 218.5t-245 83.5q-151 0 -243.5 -83t-92.5 -219q0 -135 92 -218t244 -83z" />
    <glyph glyph-name="seven.tf" horiz-adv-x="1540" 
d="M315 0l768 1253h-991v303h1356v-313l-780 -1243h-353z" />
    <glyph glyph-name="eight.tf" horiz-adv-x="1540" 
d="M772 -33q-150 0 -269.5 28.5t-195 74.5t-125.5 109t-70 127.5t-20 135.5q0 146 83.5 252.5t211.5 139.5q-100 39 -160.5 126.5t-60.5 204.5q0 66 19.5 126t64.5 115t113.5 95t173 64t235.5 24t235.5 -24t172.5 -63.5t113 -95t64 -114.5t19 -125q0 -118 -60 -206
t-161 -127q126 -34 209.5 -138.5t83.5 -253.5q0 -58 -14.5 -112.5t-45 -109.5t-84 -99.5t-126 -79.5t-176.5 -54.5t-230 -19.5zM770 956q135 0 206 57t71 140t-71 139t-206 56t-205.5 -56t-70.5 -139t70.5 -140t205.5 -57zM770 229q177 0 261.5 66.5t84.5 163.5q0 43 -18 81
t-56 71t-108 52t-164 19t-164 -19t-108 -52t-56 -71t-18 -81q0 -97 84.5 -163.5t261.5 -66.5z" />
    <glyph glyph-name="nine.tf" horiz-adv-x="1540" 
d="M735 -33q-275 0 -440.5 112t-192.5 298h316q15 -68 104 -113t207 -45q189 0 291.5 123.5t107.5 333.5q-54 -86 -180.5 -140.5t-275.5 -54.5q-246 0 -402.5 149t-156.5 390q0 255 178.5 412t462.5 157q319 0 506.5 -204.5t187.5 -575.5q0 -249 -86 -439.5t-248.5 -296.5
t-378.5 -106zM762 727q153 0 247.5 83t94.5 218q0 134 -94 215.5t-248 81.5q-152 0 -243 -81.5t-91 -215.5q0 -136 91 -218.5t243 -82.5z" />
    </font>
</defs>
</svg>
